<svg xmlns="http://www.w3.org/2000/svg" viewBox="0 0 1920 1080"><defs><style>.a{fill:#1e1e1e;}</style></defs><path class="a" d="M605.6,673.8V614l5.83-5.83h24.08l5.84,5.83v14.77h-12v-7.53L628,619.8h-9l-1.41,1.41v45.34L619,668h9l1.41-1.41V659h12V673.8l-5.84,5.83H611.43Z"/><path class="a" d="M684.43,614V673.8l-5.83,5.83H654.52l-5.84-5.83V614l5.84-5.83H678.6ZM671,619.8h-9l-1.32,1.32v45.62l1.32,1.32h9l1.41-1.32V621.12Z"/><path class="a" d="M692.71,679.63V608.14H705.6L721.12,652V608.14h12v71.49H720.18l-15.52-43.84v43.84Z"/><path class="a" d="M741.35,679.63V608.14h12.88L769.75,652V608.14h12v71.49H768.81l-15.52-43.84v43.84Z"/><path class="a" d="M790,679.63V608.14h34.24v11.57H801.93v17.78h16.56v11.57H801.93v19h22.29v11.57Z"/><path class="a" d="M831.19,673.8V614l5.83-5.83H861.1l5.83,5.83v14.77H855v-7.53l-1.41-1.41h-9l-1.41,1.41v45.34l1.41,1.41h9l1.41-1.41V659h11.95V673.8l-5.83,5.83H837Z"/><path class="a" d="M909.26,619.71H896.38v59.92h-12V619.71H871.54V608.14h37.72Z"/><path class="a" d="M914.82,679.63V608.14h11.94v71.49Z"/><path class="a" d="M960.63,679.63H945.39L932,608.14h12l9,53.15,9-53.15h12Z"/><path class="a" d="M979.25,679.63V608.14h12v71.49Z"/><path class="a" d="M1034.48,619.71h-12.89v59.92h-12V619.71H996.75V608.14h37.73Z"/><path class="a" d="M1065.24,679.63h-11.86V654.7L1037,608.14h13l9.31,30,9.31-30h13l-16.37,46.56Z"/><path class="a" d="M1136.54,664.2h-14.67l-3.2,15.43h-12.23l16.93-71.49H1135L1152,679.63h-12.23Zm-2.35-11.57-5-24.08-5,24.08Z"/><path class="a" d="M1184.62,619.71h-12.89v59.92h-12V619.71h-12.89V608.14h37.73Z"/><path class="a" d="M1223,679.63h-32.83V608.14h12v59.92H1223Z"/><path class="a" d="M1255.64,664.2H1241l-3.2,15.43h-12.23l16.93-71.49h11.67l16.93,71.49h-12.23Zm-2.35-11.57-5-24.08-5,24.08Z"/><path class="a" d="M1299.57,628.74v-7.53l-1.41-1.41H1289l-1.41,1.41v14.87l1.41,1.41h16.74l5.83,5.83V673.8l-5.83,5.83h-24.27l-5.83-5.83V659h12v7.62l1.41,1.41h9.12l1.41-1.41V650.47l-1.41-1.41h-16.65l-5.83-5.84V614l5.83-5.83h24.27l5.83,5.83v14.77Z"/><path class="a" d="M716.26,474.84q-5.7,1-10.53,1.74c-3.22.49-6.23.91-9,1.24q-8.18,1-21.55,1.48-6.69.26-13.38.25h-10.9q-8.68-.24-19.82-.37t-27.75-.87v-87h72.34V379H603.29V338.09H713.54v86H639.46v17.59q6.43.25,13.63.5t16-.25q8.79-.5,19.45-2t23.78-4.46Zm-110,20.32H652.1v31H798.27v38.65h-192Zm179.87-91.92H726.67V364.59h59.46Zm0,58.22H726.67v-38.4h59.46Zm-33-129.07h41.87V500.61H753.18Z"/><path class="a" d="M974.42,337.34q.24,23.3-6.32,41a80.06,80.06,0,0,1-20.32,30.73Q934,422.08,912.85,431t-50.17,14.62l-18.83-36.67q5-.49,12.39-1.86t15.49-3.59q8-2.24,16.22-5.08a107.25,107.25,0,0,0,15-6.44,53.24,53.24,0,0,0,11.27-7.68,15.2,15.2,0,0,0,5.21-8.79l-64.91.24v-38.4ZM898.85,531.58h151.38v33.94H858.72V496.4h149.14v-9.17H857.48V454H1049v68.38H898.85Zm125.86-143.94H955.34V354.93h69.37Zm5,42.11H960.3v-32.2h69.37Zm-26.51-97.11h45.58V443.38h-45.58Z"/><path class="a" d="M1311.6,559.82H1097.3V516.71h84.48V448.33h48.31v68.38h81.51Zm-203.4-91.67V340.32h189v42.11H1155.77v45.09H1298v40.63Z"/><rect class="a" x="603.25" y="715.98" width="710.4" height="20"/></svg>