<svg xmlns="http://www.w3.org/2000/svg" viewBox="0 0 1849.7 1164.46"><g id="Layer_2" data-name="Layer 2"><g id="Layer_1-2" data-name="Layer 1"><path d="M732.67,279.62h0l0,0h0l-8.72,8.09.68.74,8.79-8.17-.68-.73ZM715.09,296,712,298.84h0l-.12.31h0l-.21.51h0v0l0,0v0h0v0h0v.05h0v0h0l0,.06v0h0v.08h0v0h0v.07h0v0h0v0h0v0h0v0h0v0h0l0,.07h0v0h0l-.09.22h0v0h0l0,.06v0h0v0h0l-.14.35v0h0v0l0,.12h0l0,.1h0c-.05.11-.09.22-.13.33h0v0h0l0,0h0L709.09,306l.93.37,2.79-7,3-2.75-.68-.73Zm-10.46,21.22-1.49,3.73h0v0l-3,7.35.93.38,4.46-11.15-.93-.37Zm-8.91,22.29-4.46,11.14.93.37,4.46-11.14-.93-.37Zm-11.39,19.15-11.57,1.69h-.3l.14,1,11.88-1.73-.15-1Zm-23.74,3.47-9.86,1.44h-.1l-1.92.28.15,1,11.87-1.74-.14-1Zm-23.75,3.48-9.21,1.34h0v2.7h1v-1.83l8.35-1.22-.14-1Zm-8.21,16h-1v12h1v-12Zm-22.06,13.58-.07,1,12,.75.06-1-12-.75Zm-24-1.5-.06,1,12,.75.06-1-12-.75Zm-24-1.5-.06,1,12,.75.06-1-12-.75Zm-23.95-1.49-.06,1,12,.75.06-1-12-.74Zm-24-1.5-.06,1,12,.75.06-1-12-.75Zm-9.34,6.88-5,4.42,0,0h0l-4,3.52.67.75,9-8-.67-.75ZM483.47,412l-9,8,.66.75,9-8-.67-.75Zm-17.93,16-5.07,4.5,0,0h0l-3.85,3.42.66.75,9-8-.66-.74ZM447.6,443.91l-6.42,5.71h0l-.05,0h0l0,0,0,0-.07.07h0l0,0-2.32,2.06.67.74,9-8-.67-.75Zm-17.94,15.95-9,8,.66.75,9-8-.67-.75ZM410.26,472h-12v1h12v-1Zm-24,0h-12v1h12v-1ZM364,476.89l-9.39,7.46.62.78,9.4-7.46-.63-.78Zm-18.79,14.92-8.5,6.76h0l-.06.05h0l0,0h0l0,0h0l0,0h0l0,0h0l-.06,0h0l-.2.16h0l-.4.32.62.78,9.4-7.46-.62-.79Zm-18.8,14.93-2.67,2.12h-.06l0,0h0l-.16.13h0l-.42.33h0l-.6.48h0l-.68.54h0l-.68.54h0l-.6.48h0l-.42.33h0l-.16.13h-.05l0,0h0l-3.46,1,.28,1,3.57-1,.19-.05.16-.13,3.73-3,2.76-2.19-.63-.78Zm-21.59,9.47-11.54,3.29.27,1,11.54-3.3-.27-1Zm-23.08,6.59-11.54,3.3.28,1,11.53-3.3-.27-1Zm-23.08,6.59-11.54,3.3.28,1,11.54-3.29-.28-1Zm-22.49,7.43-4.42,6.12h0l-.1.13h0l0,0h0l0,0h0l0,0h0l0,0,0,0-.06.08h0l-.07.1v0l-2.22,3.07.81.58,7-9.73-.81-.58ZM222.1,556.27,218.67,561h0l0,.05h0l-3.54,4.9.81.59,7-9.73-.81-.59Zm-14,19.46-2,2.75h0l0,0h0l-.28.4h0v0h0l0,.06-.14.19h0L201,585.46l.81.58,7-9.72-.81-.59ZM194,595.19l-7,9.73.81.58,7-9.73-.81-.58Zm-18.32,9.9-.95.33,3.7,10.37.63,1.79,1.12-1.54.58-.81-.81-.59v0h0l0,0h0l0,0h0l0,0h0v0h0l0,0h0l0,0h0v0h0l0,0h0l0,0h0l0,0h0l-.09.12h0l-.07.09h0l0,0h0l-3.69-10.36Zm-8.06-22.61-.94.33,4,11.31.94-.34-4-11.3Zm-8.05-22.61-.94.34,4,11.3.94-.34-2.65-7.42v0h0l-1.36-3.83Zm-8.05-22.61-.94.34,4,11.3.95-.33-.63-1.76v0l-.06-.19,0-.06v0c-.05-.12-.09-.26-.14-.39h0c-1.19-3.32-3.16-8.86-3.16-8.86Zm-8-22.61-1,.34,4,11.3.94-.33s-1.1-3.11-2.16-6.06l-1.86-5.25Zm-16.23-16.19-.55.83,10,6.6.55-.83-10-6.6Zm-20-13.2-.55.83,10,6.6.55-.83L112.88,489h0l0,0-5.65-3.72Zm-20-13.2-.55.83,10,6.6.55-.83-10-6.6Zm-8.42-1.15L74,481.48h0l0,0h0v0h0v0h0v0h0l0,0h0l0,.06h0l-.05.12h0l.91.41,4.87-11-.91-.41ZM69,492.85,68,495v0h0v0h0v0h0l0,.05h0l0,.05v0l0,.05h0v.06l-3.74,8.41.91.41,4.88-11-.92-.4Zm-9.74,21.93-2.41,5.41h0l0,.07h0v0h0v0h0l0,0h0v0h0v0h0l0,0v0h0l-.07.16h0l0,.07h0l0,.06h0v0l1.27,5.19,1-.24-1.22-4.95,2.52-5.68-.91-.4Zm2.47,22.69-1,.24,2.87,11.65,1-.24L61.7,537.47Zm5.74,23.3-1,.24,2.87,11.65,1-.24-2.87-11.65Zm5.74,23.31-1,.23L75.08,596l1-.24-2.87-11.65Zm5.73,23.3-1,.24,2.87,11.65,1-.24-2.87-11.65Zm5.74,23.3-1,.24,2.87,11.65,1-.23-2.87-11.66Zm.83,22.83-6.78,9.9.82.56,6.79-9.89-.83-.57Zm-13.57,19.8-6.78,9.89.82.57,6.79-9.9-.83-.56ZM58.34,693.1l-3.15,4.6h0v0L51.55,703l.83.56,6.79-9.89-.83-.57ZM44.77,712.9,38,722.79l.83.57,6.78-9.9-.82-.56ZM31.2,732.69l-6.79,9.9.83.56,6.78-9.9-.82-.56ZM17.63,752.48l-2.46,3.59,0,0v0l-4.28,6.24.83.57,6.78-9.9-.82-.57ZM4.05,772.28.57,777.37h0l-.57.82H0l4.1,2.56.53-.85-3.21-2,3.46-5.06-.83-.56Zm10.76,14-.53.85,6.51,4h0l.1.06h0l.05,0h0l0,0,3.46,2.16.53-.85-10.19-6.35Zm20.37,12.69-.53.85,10.19,6.35.53-.85-10.19-6.35Zm20.37,12.69-.53.85,10.19,6.35.53-.85-10.19-6.35Zm20.37,12.69-.52.85,4.74,3h0l0,0h0l.1.07h0l5.21,3.25.53-.85-10.19-6.35ZM96.29,837l-.52.85,2.47,1.54,0,0h0l0,0h0L106,844.2l.53-.85L96.29,837ZM111,854.93l-1,.29.74,2.47v0h0v.06h0v0h0v0h0v0l2.67,8.81,1-.29L111,854.93Zm7,23-1,.29,2,6.51h0l0,.06h0l1.48,4.88,1-.29-3.47-11.48Zm6.95,23-1,.29,3.47,11.49,1-.29-3.47-11.49Zm6.94,23-1,.29,3.48,11.49.95-.29-3.47-11.49Zm7,23-1,.28,1.31,4.33h0l.29,1h0l.91-.44h0l4.9-2.39-.44-.9L140,951l-1.26-4.17Zm27.58-8.67-10.78,5.26.44.9,10.78-5.26-.44-.9Zm21.57-10.53-10.78,5.27.44.89,7.35-3.58h0l.06,0,3.35-1.64-.44-.9Zm21.57-10.52-10.78,5.26.44.9,4.63-2.26h0l0,0,6.12-3-.44-.9Zm20.64-11L229,907.59l-8.73,4.26.44.9,8.91-4.35h0l0,0h0l0-.05h0l1.2-1.54-.79-.62Zm14.78-18.91-7.39,9.46.79.61,7.39-9.45-.79-.62Zm14.77-18.91-7.38,9.45.78.62,7.39-9.46-.79-.61Zm14.78-18.91-7.39,9.45.79.62,7.39-9.46-.79-.61Zm14.77-18.92L281.85,840l.78.62,7.39-9.46-.79-.62ZM304,811.59l-7.39,9.46.79.61,7.39-9.45-.79-.62Zm14.78-18.91-1.29,1.64-6.1,7.81.79.62,6.1-7.81h0l1.28-1.64-.78-.61Zm14.77-18.91-7.39,9.45.79.62,7.39-9.46-.79-.61Zm20.87-8.41h-12v1h12v-1Zm24,0h-12v1h12v-1Zm24,0h-12v1h12v-1Zm24,0h-12v1h12v-1Zm15.3,0h-3.3v1h2.79l.06.08h0l.17.24h0l0,0h0l.09.13h0l.13.18h0v0h0l.12.17h0l0,.05h0l0,0h0v0h0l0,0,.09.13h0l0,0h0l.15.2h0l0,0h0l4.27,5.94.81-.58L442,765.77l-.3-.41ZM454.41,783l-.81.58,5,6.91h0v0l0,0h0l2,2.76.82-.58-7-9.75Zm14,19.49-.81.58,6.27,8.73h0l0,0h0l.05.08h0l0,0v0h0v0l0,.06h0l0,.06h0l.15.22h0l.3.42.81-.59-7-9.74Zm14,19.49-.81.58,7,9.75.82-.58-7-9.75Zm14,19.49-.81.58,7,9.75.81-.59-7-9.74Zm12.41,20-8.24,8.73.73.68,8.23-8.72-.72-.69ZM492.36,879l-8.23,8.72.73.69,8.23-8.73-.73-.68ZM475.89,896.4l-8.23,8.73.72.68,8.24-8.72-.73-.69Zm-16.47,17.46-3.3,3.49-4.94,5.23.73.69,8.24-8.73-.73-.68ZM443,931.31,434.71,940l.73.68,8.23-8.72-.72-.69Zm-16.47,17.46-4.89,5.17,0,0h0l-3.3,3.49.73.69,8.23-8.73-.72-.68ZM410,966.22l-3.2,3.4h0l0,0-5,5.3.72.68,8.24-8.72-.73-.69Zm-16.47,17.45-8.23,8.73.72.69,8.24-8.73-.73-.69Zm-7.48,20.61h-1l0,3.83v0c0,3.5,0,8.12,0,8.12h1l-.06-12Zm.11,24h-1s0,2.12,0,4.57v.06h0v0h0v.11h0l0,7.21h1l0-12Zm.1,24h-1l.06,12h1l-.06-12Zm1.93,23.4-.95.31,3.68,11.42.95-.31-3.68-11.42Zm7.36,22.84-.95.31,3.68,11.42,1-.31-3.69-11.42Zm8,21.94-.72.7,4.48,4.66h0l0,0h0l.06.06,3.72,3.88.72-.7-8.31-8.66Zm16.62,17.32-.73.7.39.4h0l0,0h0l0,0h0l.1.09h0l7.76,8.09.72-.7-8.3-8.66Zm16.61,17.32-.72.7L443,1163h0l0,0h0l0,.05h0l0,0v0h0l.08.09h0l1.11,1.16.72-.69-8.3-8.67Zm22.74-6.57-7.93,9,.76.66,5.6-6.38h0v0l2.3-2.61-.75-.66Zm15.84-18-7.92,9,.75.66,7.92-9-.75-.66Zm15.85-18-7.93,9,.76.66,7.92-9-.75-.66Zm15.84-18-7.92,9,.75.66,7.92-9-.75-.66Zm15.85-18-7.92,9,.75.66,7.25-8.25,0,0h0l0,0h0l.09-.11h0l.17-.19h0l.34-.38-.75-.66Zm15.84-18-7.92,9,.75.66,5.24-6v0h0v0l2.62-3-.75-.66Zm18.39-14.79-5.83.86-.36.06-.25.27-4,4.59.75.66,4-4.59h.34l5.49-.81-.15-1Zm23.74-3.52L569,1041.85l.15,1,2.16-.32h.14l9.57-1.42-.15-1Zm23.74-3.52-11.87,1.76.15,1,5.79-.86h.06l6-.9-.15-1Zm23.11-4.56-3.39,1.63-7.85,1.16.15,1,5.61-.83h1.28l.37,0h0l.4-.06h0l.34-.05h0l.15-.08h0l.17-.08h0l.1,0h0l.12-.06h0l0,0h0l.06,0h0l.07,0h0l.06,0h0l.07,0h0l.07,0h0l.07,0h.05l0,0h.06l.07,0h0l.07,0h0l.07,0h.11l.39-.18h0l1.55-.74-.44-.9Zm21.63-10.4-10.81,5.2.43.9,2.32-1.12h.05l0,0h.11l8.29-4-.43-.9Zm21.63-10.4-10.81,5.2.43.9,10.81-5.2-.43-.9Zm21.63-10.4-2.47,1.18-8.35,4,.44.9,8.35-4,2.46-1.18-.43-.9Zm21.63-10.4-10.82,5.2.44.9,10.81-5.2-.43-.9ZM735.87,980l-10.82,5.2.44.91,10.81-5.2-.43-.91Zm21.63-10.4-10.82,5.2.43.9,10.82-5.2-.43-.9Zm21.62-10.4-10.81,5.2.43.9,10.82-5.2-.44-.9Zm20.59-12-10.06,6.55.54.83,5.68-3.69,4.38-2.85-.54-.84Zm20.12-13.08-10.06,6.54.54.84,3.57-2.32h0l6.46-4.2-.54-.84ZM840,921l-10.06,6.55.54.83,10.06-6.54L840,921ZM860.07,908,850,914.49l.54.84,6.24-4.06h0l.05,0h0l0,0h0l0,0h0l.07,0h0l0,0h.05l0,0h0l0,0h0l0,0,0,0h.08l0,0h0l.19-.12,0,0h0l0,0h0l.1-.06h0l.09-.06h0l.2-.13h0l0,0h0l0,0h0l.08-.06h0l0,0h0l0,0h0l.09-.06h0l.18-.12h0l.35-.23h0l1.57-1-.54-.84Zm20.11-13.09-10,6.55.54.83,10.06-6.54-.55-.84Zm20.12-13.08-10.06,6.54.55.84,6.13-4H897l3.88-2.52-.55-.84Zm20.12-13.09-10.06,6.54.55.84,4-2.62h0l0,0,6-3.9-.55-.84Zm20.12-13.08-10.06,6.54.55.84,10.06-6.54-.55-.84Zm20.12-13.09-10.06,6.54.55.84.15-.1h0l.34-.22h0l.09-.05h0l0,0h0l.19-.12h0l.16-.1h0l0,0h.1l0,0h0l0,0h0l.06,0h0l0,0h0l.06,0h0l0,0h.06l0,0h0l.08,0h0l0,0h.06l.08,0h0l.08-.05h0l.19-.12h0l.19-.12h0l.85-.55h0l6.88-4.47-.55-.84Zm20.12-13.08L970.72,836l.55.84,10.06-6.55-.55-.83Zm16-15.52-2.4,6.65-3.57,2.32.54.84,3.86-2.5h0l0-.08h0l0,0h0v0h0v0h0l0,0h0l2.42-6.71-.94-.34Zm8.16-22.57-4.08,11.29.94.34,4.08-11.29-.94-.34Zm8.16-22.57-4.08,11.29.94.34,2.07-5.71h0l0-.06v0h0l2-5.46-.94-.34Zm8.16-22.57-4.08,11.29.94.34,3.25-9h0l0-.08h0l0-.1v0l0,0h0v0h0v0h0l0,0,.06-.19h0l.63-1.76-.94-.34Zm-2.3-21.58-.9.44,5.33,10.75.89-.44L1019,724.63Zm-10.66-21.51-.9.45,5.33,10.75.9-.45-5.33-10.75Zm-10.65-21.5-.9.44,5.33,10.75.89-.44-5.32-10.75ZM987,660.11l-.89.44,5.32,10.76.9-.45L987,660.11ZM976.37,638.6l-.9.45,5.33,10.75.89-.44-5.32-10.76Zm-10.66-21.5-.89.44,5.32,10.76.9-.45-5.33-10.75Zm-10.65-21.51-.9.45,5.33,10.75.9-.44-5.33-10.76Zm-4.45-21.12-4.23,4.37-.49.51.32.63,2.63,5.31.89-.45-2.63-5.31h0l0,0h0l.06-.06h0l4.05-4.18-.72-.7Zm16.69-17.24L959,565.85l.72.7,3.32-3.43v0l0,0h0l0,0v0h0l4.93-5.1-.72-.69Zm9.48-8.35h-11.4v1h10.43l1-1Zm-25.71-15.76-.89.45,5.41,10.71.89-.45-2.52-5h0v0h0v0l0,0v0h0v0h0v0l0,0,0-.05h0l0-.06v0l0-.05h0l-2.67-5.29ZM940.25,511.7l-.89.45,5.41,10.71.89-.45-1.87-3.7h0l0-.05h0l-.07-.14v0h0l-.09-.18h0a1.63,1.63,0,0,1-.11-.23v0l-3.21-6.34Zm-10.82-21.43-.89.45L934,501.44l.89-.45-1.38-2.74h0v0h0v0h0l0-.05h0v0l0-.07h0v0l0,0h0l0-.1v0l0-.1h0l-.06-.11h0l-3.7-7.32Zm-10.82-21.42-.89.45L923.13,480l.89-.45-1.06-2.1h0l0,0h0l-.16-.32h0l-4.16-8.23Zm-10.82-21.42-.89.45,5.41,10.71.89-.45-.4-.8h0l0-.09h0v0h0l-.05-.1h0l0,0h0v0h0l0-.07v0l0,0h0l-.07-.13h0l-.09-.18h0c-1.53-3-4.57-9-4.57-9ZM897,426l-.89.45,5.41,10.71.89-.45h0l0,0h0l0-.1h0v0h0v0h0v0h0v0h0l0-.05h0l0-.05h0l0,0v0l0-.05h0L897,426Zm-10.82-21.43-.89.45,5.41,10.72.89-.46-5.41-10.71Zm-1.09-23.74h-1v12h1v-12Zm0-24h-1v12h1v-12Zm-3.39-5-4,3.1h0l-.06.05,0,0h0l0,0h0l-5.31,4.16.61.79,9.44-7.4-.61-.79Zm-18.89,14.81-5.36,4.21-4.08,3.2.62.78,9.44-7.4-.62-.79ZM843.9,381.43l-8.78,6.88h0l-.43.33h0l0,0h0l0,0h0l-.12.09h0l0,0,.61.78,9.45-7.4-.62-.79ZM825,396.24l-3.35,2.63-6.09,4.78.62.79,9.44-7.41-.62-.79Zm-15.41-4.33h-1v12h1v-12Zm0-24h-1v12h1v-12Zm-3.88-22.27-.67.74,3.55,3.22v6.31h1v-6.76h0l-.16-.15h0l-.08-.07h0l-.05,0h0l0,0h0l-3.54-3.2Zm-17.81-16.09-.67.74,8.91,8,.67-.74-5.26-4.75h0l-.08-.07h0l-3.56-3.21Zm-17.8-16.1-.67.74,8.9,8.05.67-.74-8.9-8.05ZM752.3,297.36l-.67.74,8.91,8,.67-.74-8.91-8.05Zm-17.8-16.09-.67.74,8.9,8.05.67-.75-8.9-8Z"/><path d="M1809.71,0h-12V1h12V0Zm-24,0h-12V1h12V0Zm-24,0h-12V1h12V0Zm-24,0h-12V1h12V0Zm-24,0h-12V1h12V0Zm-24,0h-12V1h12V0Zm-24,0h-12V1h12V0Zm-24,0h-12V1h12V0Zm-24,0h-12V1h12V0Zm-24,0h-12V1h12V0Zm-24,0h-12V1h12V0Zm-24,0h-12V1h12V0Zm-24,0h-12V1h12V0Zm-24,0h-12V1h12V0Zm-24,0h-12V1h12V0Zm-24,0h-12V1h12V0Zm-24,0h-12V1h12V0Zm-24,0h-12V1h12V0Zm-24,0h-12V1h12V0Zm-24,0h-12V1h12V0Zm-24,0h-12V1h12V0Zm-24,0h-12V1h12V0Zm-24,0h-12V1h12V0Zm-24,0h-12V1h12V0Zm-24,0h-12V1h12V0Zm-24,0h-3.61V1h0c0,2.22.13,7.38.13,7.38h1L1207.11,1h2.6V0Zm-2.27,20.36-1,0,.19,12,1,0-.19-12Zm.39,24-1,0,.2,12,1,0-.2-12ZM1223.9,62l-12,.43,0,1,8.1-.29h.1l3.79-.14,0-1Zm24-.87-12,.43,0,1,12-.43,0-1Zm24-.88-12,.44,0,1,7.11-.26h.27l4.62-.17,0-1Zm16.31-.59-.75,0-3.57.13,0,1,3.48-.13h.09s2.7,8,2.7,8l.95-.32-2.7-8-.24-.71ZM1295,79.69,1294,80l2.86,8.47v0l0,.07h0l.94,2.78,1-.32L1295,79.69Zm7.7,22.73-1,.32,3.85,11.37,1-.32-3.85-11.37Zm7.69,22.73-.94.32,1.83,5.41v0h0l2,5.93,1-.32-3.85-11.37Zm7.7,22.74-1,.32,1.57,4.64h0l.1.29v0h0v.1h0l.09.27h0v0h0v0h0v0h0l0,.06h0l0,.14v0h0V154h0l0,.09h0v.06h0l0,.09h0l0,.09h0l0,.08h0l.06.18h0l0,.08h0v0h0v.08h0l0,0h0l0,.08h0l0,.15v0l.06.15h0l0,.07h0l0,0h0v.05l0,.06h0l0,.07h0l.14.4h0c0,.16.1.3.14.42h0l.13.37h0l.09,0h.05l2.71-.52-.19-1-2,.39-2.63-7.79Zm28.2,2.87L1334.46,153l.19,1,8-1.54h0l.08,0h0l3.68-.71-.19-1Zm12.23-13.07h-1v11.73h.73v.06l.26-.06h0V137.69Zm0-24h-1v12h1v-12Zm1.14-23.92-1.69,1.12-.45.3v10.5h1v-10h0l1.7-1.13-.56-.83Zm20-13.32-10,6.66.56.83h0l.11-.07h0l.14-.09h0l.08-.06h0l0,0h0l0,0h0l0,0h0l0,0h0l0,0h0l.11-.07h0l9.22-6.15-.55-.83Zm20-13.31-10,6.66.56.83,10-6.66h0l-.55-.83Zm13-8.68-1.39.93-1.65,1.09.56.83,1.64-1.09h0v.11h0v.06h0v.07h0v0h0v0h0v0h0v0h0l.92,9.62,1-.1-1-10-.16-1.66Zm2.27,23.59-1,.09.54,5.6h0v.08h0c.29,3.07.6,6.25.6,6.25l1-.1-1.14-11.94Zm2.29,23.89-1,.09,1.15,12,1-.1-1.15-11.94Zm2.3,23.89-1,.09.7,7.23h0l2.69,3.9.82-.57-2.54-3.68-.67-7Zm10,20.53-.82.56,6.82,9.88.82-.57-6.82-9.87Zm13.64,19.75-.82.56,6.81,9.88.83-.57-6.82-9.87Zm13.64,19.75-.83.56,6.12,8.87h0l.4,1.11.94-.33L1463,195l0-.12-.07-.11-6.12-8.86Zm10.69,21.55-.94.33,2.21,6.19c.94,2.64,1.83,5.11,1.83,5.11l.94-.33-4-11.3Zm8.08,22.6-.94.33,4,11.3.94-.34-4-11.29Zm8.08,22.59-.94.34,2.42,6.76h0v0h0l.15.42h0v0h0v0h0v0h0l0,.06v0l0,.05h0l0,.06h0v0h0v0h0v0h0v0l.08.22h0l.07.18h0c0,.12.08.21.1.27h0l0,.1h0l2.86-.62-.21-1-2,.43-2.76-7.72Zm28.22,2.24-11.73,2.52.21,1,11.74-2.53-.22-1Zm23.47-5.06-11.73,2.53.21,1,11.73-2.53-.21-1Zm.8-18.51-1,.23,2.76,11.68,1-.23-1.58-6.66h0v-.06h0v0l-1.17-4.93Zm-5.53-23.35-1,.23,2.76,11.67,1-.23s-1.29-5.48-2.11-8.93v0h0l-.64-2.72ZM1542.2,192l-10.8,5.24.44.9,10.79-5.24-.43-.9Zm21.59-10.49-10.8,5.25.44.9,8.71-4.23h0l0,0h0l0,0h0l1.94-.95-.43-.9Zm21.58-10.48-10.79,5.24.44.9,10.79-5.24-.44-.9ZM1607,160.56l-10.79,5.24.44.9,10.79-5.24-.44-.9Zm21.59-10.48-10.79,5.24.43.9L1629,151l-.44-.9Zm9.29,5.7-.82.57,6.88,9.84.82-.58-6.88-9.83Zm13.75,19.67-.82.57,5.64,8.07h0l.59.84h0l.76-.83-.35-.32-5.82-8.33Zm21.59-9.77-8.08,8.87.74.67,8.08-8.87-.74-.67Zm16.16-17.75-8.08,8.87.74.68,8.07-8.88-.73-.67Zm10.15-11.15L1698,138.4l-.61.66.74.67.59-.65h0l1.3,11,1-.12-1.31-11-.26-2.17Zm3,25.12-1,.11.73,6.19h0v.07h0l.67,5.64,1-.12-1.41-11.91Zm2.83,23.83-1,.12s.3,2.53.62,5.27v0h0l0,.09h0l.77,6.51,1-.11-1.41-11.92Zm2.83,23.83-1,.12.47,4v.06h0l.94,7.88,1-.12-1.41-11.92Zm7.94,18.91-.42.91,6.37,2.93,4.53,2.1.42-.91-10.9-5Zm21.79,10.06-.42.91,10.9,5,.42-.91-10.9-5Zm21.79,10.06-.42.91,10.9,5,.42-.91-10.9-5Zm21.79,10.06-.42.91,4.09,1.88h.09l7.28-1.34-.18-1-7,1.27-3.9-1.79Zm34.47-3.8L1804.1,257l.18,1,11.81-2.16-.18-1Zm23.61-4.31-11.81,2.15.18,1,4.72-.87,7.09-1.29-.18-1Zm10.18-14.68h-1v12h1v-12Zm0-24h-1v12h1v-12Zm0-24h-1v12h1v-12Zm0-24h-1v12h1v-12Zm0-24h-1v12h1v-12Zm-1.26-23.8-1,.32,1.21,3.62v7.86h1v-8h0l-1.26-3.78Zm-7.6-22.76-.94.31,3.79,11.39,1-.32-3.8-11.38Zm-7.59-22.77-1,.32,3.8,11.38,1-.32-3.8-11.38Zm-7.6-22.77-1,.32,3.8,11.38,1-.31L1826.08,49h0v0h0v0h0v0h0v0h0v0h0l0-.05h0v0h0v0l0-.07h0l0-.07h0l-.08-.25V48.2h0l-.15-.44ZM1818.06,25l-1,.31,3.79,11.39.95-.32L1818.06,25Zm-7.6-22.77-1,.32,3.8,11.38,1-.31-3.8-11.39Z"/><path d="M1182.1,0h-12V1h12V0Zm-24,0h-12V1h12V0Zm-24,0h-12V1h12V0Zm-24,0h-12V1h12V0Zm-24,0h-12V1h12V0Zm-24,0h-12V1h12V0Zm-24,0h-12V1h12V0Zm-24,0h-12V1h12V0Zm-24,0h-12V1h12V0Zm-24,0h-12V1h12V0Zm-24,0h-12V1h12V0Zm-24,0h-12V1h12V0Zm-24,0h-12V1h12V0Zm-24,0h-12V1h12V0Zm-24,0h-12V1h12V0Zm-24,0h-12V1h12V0Zm-24,0h-12V1h12V0Zm-24,0h-12V1h12V0Zm-24,0h-12V1h12V0Zm-24,0h-12V1h12V0Zm-24,0h-12V1h12V0Zm-24,0h-12V1h12V0Zm-24,0h-12V1h12V0Zm-24,0h-12V1h12V0Zm-24,0h-12V1h12V0Zm-24,0h-12V1h12V0Zm-24,0h-12V1h12V0Zm-24,0h-12V1h12V0Zm-24,0h-12V1h12V0ZM490.05,2.21l-1,.2,2.49,11.74,1-.21L490.05,2.21Zm5,23.47-1,.21,1.39,6.6v0h0v0c.56,2.64,1.07,5.07,1.07,5.07l1-.21L495,25.68Zm5,23.48-1,.21,1.91,9h0l.05.23h0l0,.11v0h0v0h0l.49,2.33,1-.21L500,49.16Zm5,23.48-1,.21,2.49,11.74,1-.21L505,72.64Zm5,23.48-1,.21,2.49,11.74,1-.21-2.49-11.74Zm5,23.48-1,.21.83,3.88h0l.08.38h0v.13h0v.09h0v.06h0v.17l0,.12v0h0l.21,1h0l5.41-2.41-.4-.91-4.28,1.91-1-4.74Zm27.21-6.94-11,4.88.4.92,7.77-3.46.08,0h0l.05,0h0l3-1.36-.4-.91ZM564,102.88l-11,4.89.4.91,7.37-3.28h0l3.54-1.58-.4-.92ZM586,93.11,575,98l.41.91L586.33,94h0l-.41-.92Zm21.92-9.77-11,4.89.41.91,3.4-1.52h0l.17-.08H601l7.29-3.25-.41-.91Zm21.92-9.77-11,4.89.41.91,7.24-3.23h0l0,0h.05l3.61-1.61-.41-.91Zm10.12.51-1,.28,3.34,11.52,1-.28-3.34-11.52Zm6.68,23-1,.28,1.42,4.89v.06h0l1.91,6.57,1-.27L646.6,97.13Zm6.68,23.05-1,.28L655.66,132l1-.27-3.34-11.53Zm6.68,23-1,.28L662.34,155l1-.28L660,143.23Zm6.68,23.05-1,.28L669,178.09l1-.28-3.34-11.53Zm6.68,23.06-1,.27,3.34,11.53,1-.28-3.34-11.52Zm6.68,23-1,.28s.1.33.26.9h0v0h0v0h0l0,.08h0l0,.06v0h0v0l.05.17v0l0,.14h0v.11h0l.05.17h0v.06l0,.07h0v.06l.09.29h0l2.65,9.15,1-.28L680,212.39Zm6.68,23.05-1,.28,2.33,8c.57,2,1,3.48,1,3.48l1-.28-3.34-11.52Zm-5.8,17.45L669.59,257l.34.94,11.29-4.07-.34-.94ZM658.3,261l-1.27.46h0l1,.69h0l7.79,5.3.56-.83-8-5.48-.05-.14Zm18,12.37-.56.83,9.92,6.74.56-.82-9.92-6.75Zm19.85,13.5-.57.82,5.36,3.64h0l4.56,3.09.56-.82-9.92-6.75Zm27,.18-8.79,8.17.68.73,8.79-8.17-.68-.73Zm9.5-8.82-.67.62,0,0,.68.73,0,0,8.87,8,.67-.74-8.87-8-.68-.62Zm18.45,16.68-.67.74,8.91,8L760,303l-8.91-8ZM768.92,311l-.67.74,8.9,8.05.67-.74-8.9-8.05Zm17.8,16.09-.67.74,8.91,8.05.67-.74-8.91-8.05Zm17.81,16.09-.67.75,5.7,5.15h0l0,0h0v0h0v4.25h1v-4.69l-.32-.3-5.75-5.2Zm6.07,22.19h-1v12h1v-12Zm0,24h-1v12h1v-12Zm11.82,7.6L813,404.41l.62.79,4.49-3.53,4.95-3.88-.62-.79Zm18.89-14.81-9.44,7.41.61.79,0,0h.07l9.36-7.34-.62-.79Zm18.88-14.81-9.44,7.41.62.78,5.56-4.36h0l.08-.06h0l0,0h0l3.73-2.92-.62-.79Zm18.89-14.81L869.63,360l.62.78,9.44-7.4-.61-.79Zm7,1.77h-1v12h1v-12Zm0,24h-1v12h1v-12ZM886,402l-.74.38h-.15v.07h0l.16.31,0,.07h0l0,0v.05h0l0,0h0l.06.13h0l0,0h0v0h0v0h0l0,0h0l0,0v0l0,.08h0l0,.06h0l4.83,9.57.9-.46L886,402Zm10.78,21.36-.89.45,5.41,10.71.89-.45-5.41-10.71Zm10.82,21.42-.89.45,5.41,10.71.89-.45-5.41-10.71Zm10.82,21.42-.89.45,2.16,4.28h0l.08.15v0h0v0h0l0,0h0l0,0h0l3.08,6.1.89-.45-5.41-10.71Zm10.82,21.42-.89.46,2.92,5.78,2.49,4.93.89-.45-5.41-10.72ZM940,509l-.89.45,4.28,8.47V518h0l0,.09v0h0v0l0,0,.06.12h0l.06.12h0l.06.11h0l0,.1h0v0h0c.13.24.2.39.2.39h0l.54,1.07.89-.45-.56-1.12L940,509Zm10.82,21.42-.89.45,5.41,10.71.89-.45-5.41-10.71Zm24,17.45h-12v1h12v-1Zm-5.1,8.24-8.35,8.62.72.7,8.35-8.62-.72-.7Zm-16.7,17.25-5.56,5.75h0l-.17.18h0l-.15.15h0v0h0l0,0h0l0,0h0l1.47,3,.89-.44-1.2-2.43,5.48-5.66-.72-.69Zm1.77,19.53-.89.45,5.32,10.75.9-.44-5.33-10.76Zm10.66,21.51-.9.44,5.33,10.75.89-.44-5.32-10.75Zm10.65,21.5-.9.45,5.33,10.75.9-.44-5.33-10.76Zm10.65,21.51-.89.44,5.33,10.76.89-.45-5.33-10.75Zm10.66,21.5-.9.45,2.42,4.87h0l0,0h0l0,.05v0h0v0h0l2.83,5.7.9-.44-5.33-10.76Zm10.65,21.51-.89.44,1.6,3.24,0,0v0l0,.1h0l3.63,7.35.9-.45-5.33-10.75Zm10.66,21.51-.9.44,5.33,10.75.9-.44-5.33-10.75Zm4.32,22.25L1019,755.48l.94.34,4.08-11.29-.94-.34Zm-8.16,22.57-4.08,11.29.94.34,4.08-11.29-.94-.34Zm-8.16,22.57-3.41,9.43-.67,1.86.94.34,4.08-11.29-.94-.34Zm-8.16,22.57-3.37,9.33h0l1.74-1.14-.17-.27,2.74-7.58-.94-.34Zm17.95-5.73-10.06,6.54.54.84,7.3-4.75h0l.08,0h0l2.64-1.72-.54-.84Zm20.12-13.09-10.06,6.55.54.83,7.49-4.87h0l2.52-1.64-.54-.84Zm18.55-14-2,3.2-6.53,4.25.54.84,6.66-4.33h0l0,0h0l2.09-3.4-.86-.52Zm12.56-20.46-6.28,10.23.85.53,6.28-10.23-.85-.53Zm12.55-20.45-6.28,10.23.85.52,6.28-10.23-.85-.52Zm12.55-20.46L1086.61,728l.86.52,6.27-10.22-.85-.53Zm12.55-20.45-6.27,10.23.85.52,6.27-10.23-.85-.52ZM1118,676.81,1111.72,687l.85.52,3.71-6,.06-.11,0,0v0h0v0l0,0,0,0h0l0-.08,0-.07,0-.07,0,0,.06-.1,0,0v0h0v0h0l2.13-3.48-.86-.52Zm12.56-20.45-6.28,10.22.85.53,1.11-1.81v0h0v0h0l5.14-8.37-.85-.52Zm12.55-20.46-6.28,10.23.86.52,6.27-10.23-.85-.52Zm12.55-20.46-6.27,10.23.85.52,2.49-4.06,3.78-6.16-.85-.53Zm19.62-14.36-9.83,6.88.57.82,2.31-1.62,7.52-5.26-.57-.82Zm20.28-14.2-.88.62-9.57,6.7.57.82,8.78-6.15h0l.06,0h0l0,0h0l0,0h.07l0,0h0l0,0h0l.06,0h0l.07-.05h0l.32-.22h0l0,0h0v0h0l0,0h0v0h0v0h0l.86-.52-.16-.27-.56-.92Zm6.89,11.48-.86.52.54.9h0v0h0v0h0l5.58,9.3.85-.52-6.17-10.29Zm12.35,20.58-.86.52,2.87,4.77,3.31,5.52.85-.52-6.17-10.29Zm12.35,20.58-.86.52,3.32,5.54h0l5.28,1.67.31-1-4.92-1.55-3.13-5.22Zm19.49,10.39-.3,1,11.44,3.61.3-1-11.44-3.61Zm22.88,7.22-.3,1,5.15,1.62.12,0h.08l6.1,1.93.3-1-11.45-3.62Zm22.89,7.23-.3.95,11.44,3.62.3-1-11.44-3.61Zm22.89,7.23-.31.95,9.24,2.92h.13l2.08.65.3-.95-11.44-3.61Zm22.88,7.22-.3,1,8.47,2.67h0l.05,0h0l2.88.91.3-1-11.44-3.62Zm28.17,4.94-.11,3.92-5.17-1.63-.3,1,6.43,2h0l.15-5.25-1,0Zm.69-24-.34,12,1,0,.34-12-1,0Zm.69-24-.35,12,1,0,.16-5.58c.09-3.13.19-6.42.19-6.42l-1,0Zm.69-24-.35,12,1,0,.35-12-1,0Zm.69-24-.35,12,1,0,.35-12-1,0Zm.69-24-.35,12,1,0,.35-12-1,0Zm22.69-4.87-12,.92.08,1,8.69-.67h.29l3-.22-.07-1Zm23.93-1.84-12,.92.08,1,6.07-.47h.06l5.83-.45-.07-1Zm23.93-1.84-12,.92.08,1,2.65-.2h.2l9.11-.7-.07-1Zm23.93-1.84-12,.92.08,1,8.41-.64h0l3.51-.27-.07-1Zm17.33-14.27-8.37,8.6.71.69,3.91-4,0,0h0l0,0h0l0,0,.09-.09h0l4.28-4.39-.72-.7ZM1498.35,522l-8.38,8.59.72.7,2.94-3h0l.14-.14,0,0h0l5.25-5.39-.71-.7Zm16.74-17.19-8.37,8.59.72.7,2.16-2.22,0,0h0l0,0h0l0,0v0l6.08-6.24-.72-.69Zm16.75-17.2-8.37,8.6.71.7,1.49-1.52h0l0,0h0l.08-.08h0l6.76-6.94-.72-.7Zm16.75-17.19-8.38,8.6.72.7.59-.61h0l0,0h0l0,0v0h0l0,0h0l0,0,7.58-7.79-.71-.7Zm22.64-5.21h-12v1h12v-1Zm24,0h-12v1h12v-1Zm24,0h-12v1h12v-1Zm8.29-15.62-1.37,11.92,1,.12s.8-7,1.18-10.26h0v-.05h0v-.05h0v-.06h0v-.08h0v0l.16-1.38-1-.11Zm2.73-23.84-1.36,11.92,1,.11s1.16-10.11,1.34-11.71h0v0h0v0h0v0h0v0h0v0h0l-1-.11Zm2.74-23.85-1.37,11.92,1,.12L1634,402l-1-.12Zm2.74-23.84-1.37,11.92,1,.11,1.14-9.93h0v0h0v0h0v0h0v0h0c.12-1.11.21-1.86.21-1.86l-1-.11Zm2.73-23.84-1.37,11.92,1,.11L1639,358v0l.43-3.7-1-.11Zm8.78-2.62-.37.93,11.14,4.46.37-.93-11.14-4.46Zm22.28,8.92-.37.93,11.14,4.45.37-.93-11.14-4.45Zm22.28,8.91-.37.93,5.6,2.24h.07l.07,0h0l.06,0h0v5.75h1V372l-.63-.26-5.81-2.32Zm6.44,21h-1v12h1v-12Zm6.36,21.3-.81.58,7,9.74.81-.59-7-9.73Zm14,19.47-.82.58,7,9.74.81-.59-7-9.73Zm14,19.47-.81.58,7,9.74.81-.59-7-9.73Zm17.76,17.84-.94.34,3.66,10.23-6.45-8.94-.81.58,4.31,6,2.7,3.76.59-.42,0,.11.94-.34-4-11.3Zm-8.06-22.6-.94.33,4,11.3.94-.33-4-11.3Zm-8.07-22.61-.94.34,4,11.3.94-.34-4-11.3Zm5-17.38-9.87,3.81-.91.35.33.92.48,1.34.94-.34-.48-1.34h0l9.87-3.8-.36-.94Zm22.39-8.64-11.19,4.32.36.94,11.19-4.32-.36-.94Zm22.39-8.64-11.19,4.32.36.94,11.19-4.32-.36-.94Zm22.4-8.63-11.2,4.31.36.94,4.72-1.82,6.47-2.5-.35-.93Zm14.86-14-2.12,9-1.55.6.36.93,2-.79h0l2.25-9.55-1-.23Zm5.49-23.36-2.74,11.68,1,.23,2.75-11.69-1-.22Zm5.49-23.37L1829.58,331l1,.23,2.74-11.68-1-.23Zm5.49-23.36-2.74,11.68,1,.23,2.74-11.68-1-.23Zm5.49-23.37-2.74,11.69,1,.23s2.25-9.59,2.68-11.4h0l0-.08h0v-.07h0v0h0v0h0l-1-.23Zm6.4-22.85-1.07.2-2.58,11,1,.23,2.68-11.4Zm-12.09,2.21-3.82.7h0l-7.93,1.45.18,1,11.8-2.16-.18-1ZM1814,256.22l-11.8,2.16.18,1,11.8-2.16-.18-1Zm-34.9,2.45-.42.9,6.11,2.82.28.14.31-.06,5.19-1-.18-1-4.79.87h0l-.19,0h0l-.09,0h-.09l-.25-.12h0l-.13-.06h0l0,0h-.1l-.08,0h-.1l-.09-.05h0l-5.29-2.44Zm-21.79-10.06-.42.91,10.9,5,.41-.9-3.92-1.82h0l0,0h0l0,0h0l-.05,0-6.78-3.13Zm-21.79-10.06-.42.91,10.9,5,.41-.91-1.36-.63h0l-.07,0h0l-.06,0-.08,0h0l-.09,0h0l-9.19-4.24Zm-21.79-10.06-.42.91,10.9,5,.41-.91-10.89-5Zm-6.85-20.92-1,.12,1.41,11.92,1-.12-.43-3.58v0h0v-.14c-.42-3.49-1-8.14-1-8.14Zm-2.82-23.83-1,.12,1.42,11.92,1-.12-1-8.83h0v-.08l-.35-3Zm-2.83-23.83-1,.12,1.42,11.91,1-.11s-.54-4.6-1-8.08h0v0l-.45-3.81Zm-2.47-20.84-.9,1h0l-1.13,1.25.74.67.55-.61.8,6.75,1-.12s-.6-5.13-.9-7.61h0l-.15-1.31Zm-10.11,11.1-3.14,3.45,0,0h0l-4.91,5.39.74.68,8.08-8.88-.74-.67Zm-16.16,17.75-8.08,8.87.74.67,8.08-8.87-.74-.67Zm-22.93,6.37-.82.57,6.87,9.83.82-.57-2.71-3.88v0l0,0v0h0l-4.1-5.87Zm-13.75-19.68-.82.58,6.87,9.83.82-.57-2.17-3.1,0,0v0h0l0,0h0l0,0v0h0v0l0,0h0l-4.57-6.55Zm-8.73-2.71-1.88.91h0l0,0h0l0,0h0l0,0h0l0,0h0l0,0-8.62,4.18.43.9,10.8-5.24-.44-.9Zm-21.59,10.49-.7.34h0l-.13.07h-.06l-.22.1h0l-9.66,4.69.44.9,10.79-5.24-.44-.9Zm-21.59,10.48-.05,0h0l-10.74,5.22.44.9,10.79-5.25-.44-.9Zm-21.58,10.49-10.8,5.24.44.9,10.79-5.24-.43-.9Zm-21.59,10.48-10.8,5.25.44.9,10.8-5.25-.44-.9ZM1532,209.75l-1,.23,2.76,11.68,1-.23L1532,209.75Zm5.53,23.35-1,.23.25,1.08h0l.05.17h0l0,.18h0l0,.14,0,.11h0l.06.25h0l2.31,9.73,1-.23-2.77-11.68Zm-4.12,18.1-8.06,1.74h0l-3.64.78.22,1,11.73-2.53-.21-1ZM1510,256.26l-1.65.36-10.08,2.17.21,1,11.73-2.53-.21-1Zm-28-5.31-.94.33,3.77,10.54.3.83.85-.19.79-.17-.21-1h0l-.09,0h0l-.13,0h0l-.08,0h-.07l-.14,0h0l-.12,0h0l-.09,0h0L1481.94,251Zm-8.08-22.6-.94.33,4,11.3.94-.33-3.73-10.44h0v0h0v0h0v0h0l0,0v0h0v0h0v0h0v0h0l0,0v0h0l0-.05,0-.1h0l0-.09h0l-.1-.27Zm-8.08-22.6-.94.33,4,11.3.94-.33-4-11.3Zm-11.06-21.07-.82.57,6.81,9.87.83-.57s-1.6-2.3-3.24-4.68l-3.58-5.19Zm-13.64-19.75-.82.57,6.82,9.87.82-.56-6.82-9.88Zm-13.64-19.75-.82.57,6.82,9.87.82-.56-6.82-9.88Zm-9.2-21.37-1,.1.89,9.34,0,.26.15.21,1.48,2.15.83-.56-1.31-1.9h0l0,0h0v0h0v0h0l0,0h0v0h0l0-.06h0l0,0h0l0-.4h0l0-.21h0l0-.25h0l0-.21h0v0h0V132h0v-.05h0v-.09h0l0-.16h0v-.16h0l0-.16h0l-.72-7.48Zm-2.3-23.89-1,.1L1416.1,112l1-.09v-.17h0v0h0v-.09h0v0h0v0h0v0h0v0h0v0h0v0h0v-.06h0l-1.09-11.3ZM1413.65,76l-1,.1,1.15,11.94,1-.09-1.15-12Zm-1.91-19.81-3.41,2.27.56.83,2-1.34.59,6.2,1-.09-.65-6.74h0l-.11-1.13Zm-13.39,8.93-6.89,4.59-3.09,2.06.55.84,10-6.66-.55-.83Zm-20,13.31L1371,83.39l-2.59,1.73.55.83,10-6.66-.56-.83Zm-18.9,13.35h-1v12h1v-12Zm0,24h-1v12h1v-12Zm0,24h-1v9.61h0l-2.34.46.19,1,2.34-.45.81-.16V139.81Zm-15.12,12.33-2.43.47h-.09l-9.27,1.79.19,1,11.78-2.27-.18-1Zm-27.94-5.94-1,.32,3.6,10.62.28.83.85-.17.78-.14-.19-1-.77.15h0l-.16-.45h0l-.08-.23h0l0-.13h0l0-.14h0l0-.07h0l0-.07h0l0-.07h0v0h0v-.08h0v-.09h0v-.08h0v0l-.15-.44h0v0h0l-.1-.3h0l-2.81-8.3Zm-7.69-22.73-1,.32,3.85,11.36.94-.32-3.84-11.36Zm-7.7-22.74-1,.32,3.85,11.37,1-.32L1301,100.73ZM1293.34,78l-.95.32,3.85,11.37.94-.32L1293.34,78Zm-5.87-17.34-5.69.2,0,1,4.94-.18,1.78,5.27,1-.32-2-6Zm-17.68.64-12,.44,0,1,12-.44,0-1Zm-24,.87-12,.44,0,1,12-.44,0-1Zm-24,.87-12,.44,0,1,12-.44,0-1Zm-15-20.78h-1l.2,12h1l0-2.24h0v-.08h0v0h0v-.05h0v0h0l-.16-9.51Zm-.4-24-1,0,.2,12,1,0-.12-7.44v0h0v-.12h0v-.08c0-2.34-.07-4.32-.07-4.32ZM1206.1,0h-12V1h11l.09,5.28,1,0-.1-6.15h0v0h0V0h0V0Z"/></g></g></svg>