<svg xmlns="http://www.w3.org/2000/svg" xmlns:xlink="http://www.w3.org/1999/xlink" viewBox="0 0 3924.68 3497.02"><defs><style>.a,.m,.n,.o,.v{fill:none;}.b{fill:#e9d39a;}.c{fill:#d7a56a;}.d{isolation:isolate;}.e{font-size:24.48px;fill:#3b3b3b;}.e,.k{font-family:KCC-KP-KwangMyeong-Medium-KP-2011KPS, KP KwangMyeong;}.f{fill:#bd0d1a;}.g{clip-path:url(#a);}.h{fill:#1e1e1e;}.ac,.ad,.i,.w,.y,.z{fill:#fff;}.j{fill:#d8d8d8;}.k{font-size:28.12px;fill:#b1b1b1;}.l{fill:url(#b);}.m{stroke:#dd4830;stroke-width:5px;}.m,.n,.o,.v{stroke-miterlimit:10;}.n{stroke-width:4px;stroke:url(#e);}.n,.o,.v{mix-blend-mode:multiply;}.o{stroke-width:9px;stroke:url(#f);}.p{fill:url(#g);}.q{opacity:0.5;}.r{opacity:0.2;}.s{opacity:0;}.t{fill:url(#h);}.u{fill:url(#i);}.v{stroke-width:20px;stroke:url(#j);}.w{font-size:36px;}.aa,.w,.y{font-family:MapoGoldenPier-KSCpc-EUC-H, MapoGoldenPier;}.x{letter-spacing:-0.1em;}.aa,.y{font-size:18px;}.z{font-size:72px;}.ad,.z{font-family:Prohibition-Regular, Prohibition;}.aa{fill:#6c6c6c;}.ab{font-family:AdobeMyungjoStd-Medium-KSCpc-EUC-H, Adobe Myungjo Std;letter-spacing:0em;}.ac,.ad{font-size:24px;}.ac{font-family:KCC-KP-CheonRiMa-Bold-KP-2011KPS, KP CheonRiMa B;}.ae{letter-spacing:-0.08em;}.af{letter-spacing:-0.02em;}.ag{letter-spacing:-0.08em;}.ah{letter-spacing:0em;}</style><clipPath id="a" transform="translate(787.62 173.4)"><rect class="a" width="1920" height="1080"/></clipPath><pattern id="b" width="110.96" height="110.96" patternTransform="translate(722.53 728.2)" patternUnits="userSpaceOnUse" viewBox="0 0 110.96 110.96"><rect class="a" width="110.96" height="110.96"/><rect class="c" width="110.96" height="110.96"/></pattern><linearGradient id="e" x1="1239.56" y1="872.12" x2="2554.11" y2="872.12" gradientUnits="userSpaceOnUse"><stop offset="0" stop-color="#f2f2f2"/><stop offset="0.17" stop-color="#e9d39a"/><stop offset="0.28" stop-color="#fff"/><stop offset="0.52" stop-color="#fff"/><stop offset="0.58" stop-color="#e9d39a"/><stop offset="0.67" stop-color="#fff"/><stop offset="0.82" stop-color="#fff"/><stop offset="0.91" stop-color="#e9d39a"/><stop offset="1" stop-color="#f2f2f2"/></linearGradient><linearGradient id="f" x1="1202.49" y1="816.15" x2="2578.66" y2="816.15" xlink:href="#e"/><pattern id="g" width="48" height="48" patternTransform="translate(803.33 368.68) scale(1.15)" patternUnits="userSpaceOnUse" viewBox="0 0 48 48"><rect class="a" width="48" height="48"/><circle class="b" cx="24" cy="48" r="6"/><circle class="b" cx="48" cy="48" r="6"/><circle class="b" cx="24" cy="24" r="6"/><circle class="b" cx="48" cy="24" r="6"/><circle class="b" cx="36" cy="36" r="6"/><circle class="b" cx="12" cy="36" r="6"/><circle class="b" cx="36" cy="12" r="6"/><circle class="b" cx="12" cy="12" r="6"/><circle class="b" cy="48" r="6"/><circle class="b" cy="24" r="6"/><circle class="b" cx="24" r="6"/><circle class="b" cx="48" r="6"/><circle class="b" r="6"/></pattern><pattern id="h" width="48" height="48" patternTransform="translate(777.28 336.01) scale(1.15)" patternUnits="userSpaceOnUse" viewBox="0 0 48 48"><rect class="a" width="48" height="48"/><circle class="b" cx="24" cy="48" r="6"/><circle class="b" cx="48" cy="48" r="6"/><circle class="b" cx="24" cy="24" r="6"/><circle class="b" cx="48" cy="24" r="6"/><circle class="b" cx="36" cy="36" r="6"/><circle class="b" cx="12" cy="36" r="6"/><circle class="b" cx="36" cy="12" r="6"/><circle class="b" cx="12" cy="12" r="6"/><circle class="b" cy="48" r="6"/><circle class="b" cy="24" r="6"/><circle class="b" cx="24" r="6"/><circle class="b" cx="48" r="6"/><circle class="b" r="6"/></pattern><pattern id="i" width="48" height="48" patternTransform="translate(844.23 377.69) scale(1.15)" patternUnits="userSpaceOnUse" viewBox="0 0 48 48"><rect class="a" width="48" height="48"/><circle class="b" cx="24" cy="48" r="6"/><circle class="b" cx="48" cy="48" r="6"/><circle class="b" cx="24" cy="24" r="6"/><circle class="b" cx="48" cy="24" r="6"/><circle class="b" cx="36" cy="36" r="6"/><circle class="b" cx="12" cy="36" r="6"/><circle class="b" cx="36" cy="12" r="6"/><circle class="b" cx="12" cy="12" r="6"/><circle class="b" cy="48" r="6"/><circle class="b" cy="24" r="6"/><circle class="b" cx="24" r="6"/><circle class="b" cx="48" r="6"/><circle class="b" r="6"/></pattern><linearGradient id="j" x1="1175.57" y1="791.5" x2="2598.27" y2="791.5" xlink:href="#e"/></defs><g class="d"><text class="e" transform="translate(2573.59 319.62)">훈춘<tspan x="0" y="29.38">Hunchun</tspan></text><rect class="f" x="2545.56" y="330.97" width="15.3" height="15.3"/><rect class="f" x="2519.48" y="402.81" width="15.3" height="15.3"/><text class="e" transform="translate(2470 450.47)">라선<tspan x="-23.69" y="29.38">Rason</tspan></text><text class="e" transform="translate(1197.16 1061.43)">단둥<tspan x="-56.14" y="29.38">Dandong</tspan></text><rect class="f" x="1256.33" y="1082.22" width="15.3" height="15.3"/><rect class="f" x="1323.35" y="1162.93" width="15.3" height="15.3"/><text class="e" transform="translate(1351.05 1184.85)">신의주<tspan x="0" y="29.38">Sinuiju</tspan></text><text class="e" transform="translate(1943.03 680.49)">창바이<tspan x="-37.92" y="29.38">Changbai</tspan></text><rect class="f" x="2018.74" y="722.83" width="15.3" height="15.3"/><text class="e" transform="translate(2088.99 762.27)">혜산<tspan x="0" y="29.38">Hyesan</tspan></text><rect class="f" x="2060.57" y="773.4" width="15.3" height="15.3"/><g class="g"><polygon class="h" points="2570.68 389.95 2532.33 340.32 2532.33 294.76 2446.89 260.58 2427.1 433.07 2426.96 434.31 2318.74 434.31 2193.43 565.31 2190.95 565.5 2045.35 576.7 2045.14 583.75 2039.88 766.83 2030.64 763.91 1834.6 702 1783.34 616.57 1751.8 638.65 1726.39 656.44 1572.6 907.05 1409.9 1012.87 1175.44 1165.36 931.97 1282.44 1169.44 1269.71 1210 1241.2 1221.65 1233.02 1601.19 947.53 1737.61 667 1757.62 648.35 1782.14 625.48 1822.77 726.36 1825.89 734.11 2044.55 805.54 2063.25 594.39 2199.66 585.59 2320.87 455.77 2427.42 460.17 2467.05 297.35 2507.7 314.96 2521.79 345.76 2618.05 497.58 2649.41 504.85 2570.68 389.95"/><rect class="h" x="477.05" y="194.8" width="3447.63" height="3302.22"/><polygon class="i" points="2521.79 345.76 2507.7 314.96 2467.05 297.35 2427.42 460.17 2320.87 455.77 2199.66 585.59 2063.25 594.39 2044.55 805.54 1825.89 734.11 1822.77 726.36 1782.14 625.48 1757.62 648.35 1737.61 667 1601.19 947.53 1221.65 1233.02 1210 1241.2 1169.44 1269.71 1380.06 1370.63 1307 1638.5 1160.89 1833.32 1390.69 1951.19 1550.52 1918.55 1631.77 1959.17 1787.96 1784.61 2049.74 1784.61 2110.46 1677.64 2101.49 1653.72 1851.88 1489.35 1897.54 1309.75 2436.33 953.6 2411.98 703.99 2597.3 464.86 2596.03 462.86 2521.79 345.76"/><polygon points="2732.74 25.43 0 25.43 0 1696.97 414.13 1359.26 931.97 1282.44 1175.44 1165.36 1409.9 1012.87 1572.6 907.05 1726.39 656.44 1751.8 638.65 1783.34 616.57 1834.6 702 2030.64 763.91 2039.88 766.83 2045.14 583.75 2045.35 576.7 2190.95 565.5 2193.43 565.31 2318.74 434.31 2426.96 434.31 2427.1 433.07 2446.89 260.58 2452.81 262.95 2532.33 294.76 2532.33 340.32 2570.68 389.95 2570.68 389.95 2732.74 25.43"/><polygon class="i" points="2732.74 25.43 2570.68 389.95 2570.68 389.95 2570.68 389.95 2649.41 504.85 3447.63 489.12 3447.63 25.43 2732.74 25.43"/><polygon class="j" points="1803.63 1809.4 1639.48 1992.85 1656.47 2001.35 1733.25 2302.06 1643.67 2244.48 1534.9 2321.26 1618.08 2398.03 1675.66 2743.54 1586.09 2941.88 1813.22 3034.66 1947.59 2977.07 2238.7 2897.09 2357.07 2913.09 2488.24 2545.19 2430.65 2596.38 2427.45 2234.88 2209.91 1876.58 2142.56 1696.97 2078.75 1809.4 1803.63 1809.4"/><text class="k" transform="translate(1079.12 1356.77)">서해<tspan x="-49.36" y="33.75">WEST SEA</tspan></text><text class="k" transform="translate(2734.16 364.52)">러시아<tspan x="-11.52" y="33.75">RUSSIA</tspan></text><polygon class="l" points="1354.45 1188.47 1324.15 1199.46 1298 1175.58 1358.4 1130.15 1370.37 1159.81 1354.45 1188.47"/><polygon class="l" points="2068.67 813.54 2044.54 805.54 2044.54 805.54 2050.75 735.43 2084.88 777.72 2068.67 813.54"/><polygon class="m" points="1195.2 1152.5 1090.12 1051.56 1210.31 896.42 1394.11 912.27 1419.3 1006.75 1195.2 1152.5"/><polygon class="m" points="1987.22 682.88 1834.6 702 2039.88 766.83 2044.49 606.63 1987.22 682.88"/><polygon class="l" points="2528.84 356.88 2512.64 411.68 2550.06 525.82 2597.3 464.86 2528.84 356.88"/><polygon class="m" points="2532.33 340.32 2570.68 389.95 2732.74 25.43 2489.65 25.43 2489.65 277.69 2532.33 294.76 2532.33 340.32"/><polyline class="n" points="2552.42 522.78 2502.34 443.79 2481.03 531.37 2349.65 525.94 2231.38 652.6 2126.68 659.36 2105.55 897.97 1773.96 789.64 1765.19 767.87 1655.9 992.62 1262.18 1288.76 1240.71 1303.86"/><polyline class="o" points="2574.86 493.82 2491.43 362.23 2488.36 355.51 2454.23 495.77 2335.26 490.86 2215.52 619.1 2094.96 626.87 2075.05 851.75 1799.93 761.88 1768.93 684.91 1765.79 687.83 1628.55 970.08 1241.91 1260.89 1205.08 1286.78"/><polygon class="p" points="1979.86 669.7 1827.24 688.83 2032.53 753.65 2037.13 593.46 1979.86 669.7"/><g class="q"><circle class="b" cx="2026.06" cy="695.04" r="6.89"/></g><path class="b" d="M1266,528a6.4,6.4,0,1,1,6.39-6.39A6.4,6.4,0,0,1,1266,528Z" transform="translate(787.62 173.4)"/><path class="b" d="M1266,515.74a5.9,5.9,0,1,1-5.89,5.9,5.9,5.9,0,0,1,5.89-5.9m0-1a6.9,6.9,0,1,0,6.89,6.9,6.89,6.89,0,0,0-6.89-6.9Z" transform="translate(787.62 173.4)"/><path class="b" d="M1266,597a6.4,6.4,0,1,1,6.39-6.4A6.4,6.4,0,0,1,1266,597Z" transform="translate(787.62 173.4)"/><path class="b" d="M1266,584.66a5.9,5.9,0,1,1-5.89,5.89,5.9,5.9,0,0,1,5.89-5.89m0-1a6.9,6.9,0,1,0,6.89,6.89,6.89,6.89,0,0,0-6.89-6.89Z" transform="translate(787.62 173.4)"/><g class="q"><path class="b" d="M1100.53,500.46a6.39,6.39,0,1,1,6.39-6.39A6.4,6.4,0,0,1,1100.53,500.46Z" transform="translate(787.62 173.4)"/><path class="b" d="M1100.53,488.18a5.89,5.89,0,1,1-5.89,5.89,5.89,5.89,0,0,1,5.89-5.89m0-1a6.89,6.89,0,1,0,6.89,6.89,6.88,6.88,0,0,0-6.89-6.89Z" transform="translate(787.62 173.4)"/></g><g class="r"><circle class="b" cx="1874.36" cy="653.69" r="6.39"/><path class="b" d="M1086.74,474.39a5.9,5.9,0,1,1-5.89,5.9,5.9,5.9,0,0,1,5.89-5.9m0-1a6.9,6.9,0,1,0,6.89,6.9,6.89,6.89,0,0,0-6.89-6.9Z" transform="translate(787.62 173.4)"/></g><g class="r"><path class="b" d="M1045.38,500.46a6.39,6.39,0,1,1,6.39-6.39A6.4,6.4,0,0,1,1045.38,500.46Z" transform="translate(787.62 173.4)"/><path class="b" d="M1045.38,488.18a5.89,5.89,0,1,1-5.89,5.89,5.89,5.89,0,0,1,5.89-5.89m0-1a6.89,6.89,0,1,0,6.89,6.89,6.89,6.89,0,0,0-6.89-6.89Z" transform="translate(787.62 173.4)"/></g><g class="r"><path class="b" d="M1114.32,569.38a6.39,6.39,0,1,1,6.39-6.39A6.4,6.4,0,0,1,1114.32,569.38Z" transform="translate(787.62 173.4)"/><path class="b" d="M1114.32,557.1a5.89,5.89,0,1,1-5.89,5.89,5.89,5.89,0,0,1,5.89-5.89m0-1a6.89,6.89,0,1,0,6.89,6.89,6.89,6.89,0,0,0-6.89-6.89Z" transform="translate(787.62 173.4)"/></g><circle class="b" cx="2039.85" cy="681.25" r="6.39"/><path class="b" d="M1252.23,502a5.89,5.89,0,1,1-5.89,5.89,5.89,5.89,0,0,1,5.89-5.89m0-1a6.89,6.89,0,1,0,6.89,6.89,6.89,6.89,0,0,0-6.89-6.89Z" transform="translate(787.62 173.4)"/><g class="q"><path class="b" d="M1073,500.46a6.39,6.39,0,1,1,6.39-6.39A6.4,6.4,0,0,1,1073,500.46Z" transform="translate(787.62 173.4)"/><path class="b" d="M1073,488.18a5.89,5.89,0,1,1-5.89,5.89,5.89,5.89,0,0,1,5.89-5.89m0-1a6.89,6.89,0,1,0,6.89,6.89,6.88,6.88,0,0,0-6.89-6.89Z" transform="translate(787.62 173.4)"/></g><circle class="b" cx="1833" cy="695.04" r="6.39"/><path class="b" d="M1045.38,515.74a5.9,5.9,0,1,1-5.89,5.9,5.9,5.9,0,0,1,5.89-5.9m0-1a6.9,6.9,0,1,0,6.89,6.9,6.9,6.9,0,0,0-6.89-6.9Z" transform="translate(787.62 173.4)"/><path class="b" d="M1086.74,541.81a6.39,6.39,0,1,1,6.39-6.39A6.4,6.4,0,0,1,1086.74,541.81Z" transform="translate(787.62 173.4)"/><path class="b" d="M1086.74,529.53a5.89,5.89,0,1,1-5.89,5.89,5.89,5.89,0,0,1,5.89-5.89m0-1a6.89,6.89,0,1,0,6.89,6.89,6.88,6.88,0,0,0-6.89-6.89Z" transform="translate(787.62 173.4)"/><circle class="b" cx="1915.73" cy="722.6" r="6.39"/><path class="b" d="M1128.11,543.31a5.9,5.9,0,1,1-5.89,5.89,5.9,5.9,0,0,1,5.89-5.89m0-1a6.9,6.9,0,1,0,6.89,6.89,6.9,6.9,0,0,0-6.89-6.89Z" transform="translate(787.62 173.4)"/><circle class="b" cx="1943.31" cy="722.6" r="6.39"/><path class="b" d="M1155.69,543.31a5.9,5.9,0,1,1-5.89,5.89,5.91,5.91,0,0,1,5.89-5.89m0-1a6.9,6.9,0,1,0,6.9,6.89,6.9,6.9,0,0,0-6.9-6.89Z" transform="translate(787.62 173.4)"/><path class="b" d="M1169.48,569.38a6.39,6.39,0,1,1,6.4-6.39A6.4,6.4,0,0,1,1169.48,569.38Z" transform="translate(787.62 173.4)"/><path class="b" d="M1169.48,557.1a5.89,5.89,0,1,1-5.89,5.89,5.9,5.9,0,0,1,5.89-5.89m0-1a6.89,6.89,0,1,0,6.9,6.89,6.89,6.89,0,0,0-6.9-6.89Z" transform="translate(787.62 173.4)"/><path class="b" d="M1197.07,569.38a6.39,6.39,0,1,1,6.39-6.39A6.4,6.4,0,0,1,1197.07,569.38Z" transform="translate(787.62 173.4)"/><path class="b" d="M1197.07,557.1a5.89,5.89,0,1,1-5.9,5.89,5.9,5.9,0,0,1,5.9-5.89m0-1A6.89,6.89,0,1,0,1204,563a6.89,6.89,0,0,0-6.89-6.89Z" transform="translate(787.62 173.4)"/><path class="b" d="M1238.44,583.16a6.39,6.39,0,1,1,6.39-6.39A6.39,6.39,0,0,1,1238.44,583.16Z" transform="translate(787.62 173.4)"/><path class="b" d="M1238.44,570.88a5.89,5.89,0,1,1-5.89,5.89,5.89,5.89,0,0,1,5.89-5.89m0-1a6.89,6.89,0,1,0,6.89,6.89,6.88,6.88,0,0,0-6.89-6.89Z" transform="translate(787.62 173.4)"/><path class="b" d="M1252.23,569.38a6.39,6.39,0,1,1,6.39-6.39A6.4,6.4,0,0,1,1252.23,569.38Z" transform="translate(787.62 173.4)"/><path class="b" d="M1252.23,557.1a5.89,5.89,0,1,1-5.89,5.89,5.89,5.89,0,0,1,5.89-5.89m0-1a6.89,6.89,0,1,0,6.89,6.89,6.88,6.88,0,0,0-6.89-6.89Z" transform="translate(787.62 173.4)"/><path class="b" d="M1252.23,541.81a6.39,6.39,0,1,1,6.39-6.39A6.39,6.39,0,0,1,1252.23,541.81Z" transform="translate(787.62 173.4)"/><path class="b" d="M1252.23,529.53a5.89,5.89,0,1,1-5.89,5.89,5.89,5.89,0,0,1,5.89-5.89m0-1a6.89,6.89,0,1,0,6.89,6.89,6.88,6.88,0,0,0-6.89-6.89Z" transform="translate(787.62 173.4)"/><g class="q"><path class="b" d="M1210.85,445.33a6.4,6.4,0,1,1,5.54-3.2A6.38,6.38,0,0,1,1210.85,445.33Z" transform="translate(787.62 173.4)"/><path class="b" d="M1210.86,433h0a5.84,5.84,0,0,1,2.94.79,5.89,5.89,0,0,1-3,11,6,6,0,0,1-2.94-.79,5.89,5.89,0,0,1,2.95-11m0-1a6.9,6.9,0,1,0,3.44.93,6.88,6.88,0,0,0-3.44-.93Z" transform="translate(787.62 173.4)"/></g><g class="q"><path class="b" d="M1141.9,486.68a6.39,6.39,0,1,1,5.54-3.2A6.38,6.38,0,0,1,1141.9,486.68Z" transform="translate(787.62 173.4)"/><path class="b" d="M1141.91,474.39h0a5.9,5.9,0,0,1,0,11.79,5.89,5.89,0,0,1-5.1-8.84,5.92,5.92,0,0,1,5.11-2.95m0-1a6.89,6.89,0,0,0-3.45,12.86,6.87,6.87,0,0,0,9.41-2.52,6.9,6.9,0,0,0-6-10.34Z" transform="translate(787.62 173.4)"/></g><path class="b" d="M1114.32,541.81a6.39,6.39,0,1,1,6.39-6.39A6.4,6.4,0,0,1,1114.32,541.81Z" transform="translate(787.62 173.4)"/><path class="b" d="M1114.32,529.53a5.89,5.89,0,1,1-5.89,5.89,5.89,5.89,0,0,1,5.89-5.89m0-1a6.89,6.89,0,1,0,6.89,6.89,6.89,6.89,0,0,0-6.89-6.89Z" transform="translate(787.62 173.4)"/><g class="q"><circle class="b" cx="1888.15" cy="722.6" r="6.39"/><path class="b" d="M1100.53,543.31a5.9,5.9,0,1,1-5.89,5.89,5.9,5.9,0,0,1,5.89-5.89m0-1a6.9,6.9,0,1,0,6.89,6.89,6.89,6.89,0,0,0-6.89-6.89Z" transform="translate(787.62 173.4)"/></g><g class="r"><circle class="b" cx="1915.73" cy="750.17" r="6.39"/><path class="b" d="M1128.11,570.88a5.89,5.89,0,1,1-5.89,5.89,5.89,5.89,0,0,1,5.89-5.89m0-1a6.89,6.89,0,1,0,6.89,6.89,6.89,6.89,0,0,0-6.89-6.89Z" transform="translate(787.62 173.4)"/></g><g class="q"><path class="b" d="M1141.91,569.38a6.39,6.39,0,1,1,6.39-6.39A6.4,6.4,0,0,1,1141.91,569.38Z" transform="translate(787.62 173.4)"/><path class="b" d="M1141.91,557.1A5.89,5.89,0,1,1,1136,563a5.89,5.89,0,0,1,5.9-5.89m0-1a6.89,6.89,0,1,0,6.89,6.89,6.89,6.89,0,0,0-6.89-6.89Z" transform="translate(787.62 173.4)"/></g><g class="s"><circle class="b" cx="1915.73" cy="695.04" r="6.39"/><path class="b" d="M1128.11,515.74a5.9,5.9,0,1,1-5.89,5.9,5.9,5.9,0,0,1,5.89-5.9m0-1a6.9,6.9,0,1,0,6.89,6.9,6.9,6.9,0,0,0-6.89-6.9Z" transform="translate(787.62 173.4)"/><circle class="b" cx="1943.31" cy="695.04" r="6.39"/><path class="b" d="M1155.69,515.74a5.9,5.9,0,1,1-5.89,5.9,5.91,5.91,0,0,1,5.89-5.9m0-1a6.9,6.9,0,1,0,6.9,6.9,6.9,6.9,0,0,0-6.9-6.9Z" transform="translate(787.62 173.4)"/><circle class="b" cx="1860.57" cy="695.04" r="6.89"/><circle class="b" cx="1888.15" cy="695.04" r="6.39"/><path class="b" d="M1100.53,515.74a5.9,5.9,0,1,1-5.89,5.9,5.9,5.9,0,0,1,5.89-5.9m0-1a6.9,6.9,0,1,0,6.89,6.9,6.89,6.89,0,0,0-6.89-6.9Z" transform="translate(787.62 173.4)"/><circle class="b" cx="1970.9" cy="695.04" r="6.39"/><path class="b" d="M1183.27,515.74a5.9,5.9,0,1,1-5.89,5.9,5.91,5.91,0,0,1,5.89-5.9m0-1a6.9,6.9,0,1,0,6.9,6.9,6.9,6.9,0,0,0-6.9-6.9Z" transform="translate(787.62 173.4)"/><circle class="b" cx="1998.48" cy="695.04" r="6.39"/><path class="b" d="M1210.86,515.74a5.9,5.9,0,1,1-5.9,5.9,5.91,5.91,0,0,1,5.9-5.9m0-1a6.9,6.9,0,1,0,6.89,6.9,6.9,6.9,0,0,0-6.89-6.9Z" transform="translate(787.62 173.4)"/><path class="b" d="M1141.9,514.24a6.39,6.39,0,1,1,6.39-6.39A6.4,6.4,0,0,1,1141.9,514.24Z" transform="translate(787.62 173.4)"/><path class="b" d="M1141.9,502a5.89,5.89,0,1,1-5.89,5.89,5.89,5.89,0,0,1,5.89-5.89m0-1a6.89,6.89,0,1,0,6.89,6.89,6.9,6.9,0,0,0-6.89-6.89Z" transform="translate(787.62 173.4)"/><path class="b" d="M1169.48,514.24a6.39,6.39,0,1,1,6.4-6.39A6.4,6.4,0,0,1,1169.48,514.24Z" transform="translate(787.62 173.4)"/><path class="b" d="M1169.48,502a5.89,5.89,0,1,1-5.89,5.89,5.9,5.9,0,0,1,5.89-5.89m0-1a6.89,6.89,0,1,0,6.9,6.89,6.9,6.9,0,0,0-6.9-6.89Z" transform="translate(787.62 173.4)"/><circle class="b" cx="1874.36" cy="681.25" r="6.39"/><path class="b" d="M1086.74,502a5.89,5.89,0,1,1-5.89,5.89,5.89,5.89,0,0,1,5.89-5.89m0-1a6.89,6.89,0,1,0,6.89,6.89,6.89,6.89,0,0,0-6.89-6.89Z" transform="translate(787.62 173.4)"/><circle class="b" cx="1901.94" cy="681.25" r="6.39"/><path class="b" d="M1114.32,502a5.89,5.89,0,1,1-5.89,5.89,5.89,5.89,0,0,1,5.89-5.89m0-1a6.89,6.89,0,1,0,6.89,6.89,6.9,6.9,0,0,0-6.89-6.89Z" transform="translate(787.62 173.4)"/><circle class="b" cx="1846.79" cy="681.25" r="6.39"/><path class="b" d="M1059.17,502a5.89,5.89,0,1,1-5.9,5.89,5.9,5.9,0,0,1,5.9-5.89m0-1a6.89,6.89,0,1,0,6.89,6.89,6.9,6.9,0,0,0-6.89-6.89Z" transform="translate(787.62 173.4)"/><path class="b" d="M1252.22,431.54a6.39,6.39,0,1,1,3.2-11.92,6.39,6.39,0,0,1,2.34,8.73A6.41,6.41,0,0,1,1252.22,431.54Z" transform="translate(787.62 173.4)"/><path class="b" d="M1252.23,419.26h0a5.89,5.89,0,0,1,5.1,8.84,5.9,5.9,0,0,1-8,2.15,5.88,5.88,0,0,1-2.15-8,5.9,5.9,0,0,1,5.1-2.95m0-1a6.89,6.89,0,1,0,3.44.92,6.87,6.87,0,0,0-3.44-.92Z" transform="translate(787.62 173.4)"/><path class="b" d="M1238.43,445.33a6.4,6.4,0,1,1,5.54-3.2A6.38,6.38,0,0,1,1238.43,445.33Z" transform="translate(787.62 173.4)"/><path class="b" d="M1238.44,433h0a5.9,5.9,0,0,1,0,11.79,5.9,5.9,0,0,1,0-11.79m0-1A6.89,6.89,0,0,0,1235,444.9a6.82,6.82,0,0,0,3.44.93,6.9,6.9,0,0,0,0-13.79Z" transform="translate(787.62 173.4)"/><path class="b" d="M1224.64,459.11a6.41,6.41,0,0,1-6.17-4.74,6.39,6.39,0,1,1,6.17,4.74Z" transform="translate(787.62 173.4)"/><path class="b" d="M1224.65,446.83h0a5.88,5.88,0,0,1,5.1,8.83,5.89,5.89,0,1,1-5.1-8.83m0-1a6.89,6.89,0,1,0,3.44.92,6.87,6.87,0,0,0-3.44-.92Z" transform="translate(787.62 173.4)"/><path class="b" d="M1210.85,472.9a6.4,6.4,0,1,1,5.54-3.2A6.38,6.38,0,0,1,1210.85,472.9Z" transform="translate(787.62 173.4)"/><path class="b" d="M1210.86,460.61h0a5.84,5.84,0,0,1,2.94.79,5.89,5.89,0,0,1-3,11,6,6,0,0,1-2.94-.79,5.89,5.89,0,0,1,2.95-11m0-1a6.9,6.9,0,1,0,3.44.93,6.88,6.88,0,0,0-3.44-.93Z" transform="translate(787.62 173.4)"/><path class="b" d="M1197.06,486.68a6.39,6.39,0,1,1,5.54-3.2A6.38,6.38,0,0,1,1197.06,486.68Z" transform="translate(787.62 173.4)"/><path class="b" d="M1197.07,474.39h0a5.9,5.9,0,0,1,0,11.79,5.9,5.9,0,0,1-5.69-4.37,5.9,5.9,0,0,1,5.7-7.42m0-1a6.9,6.9,0,1,0,3.44.93,6.88,6.88,0,0,0-3.44-.93Z" transform="translate(787.62 173.4)"/><path class="b" d="M1183.27,500.46a6.39,6.39,0,1,1,5.54-3.19A6.38,6.38,0,0,1,1183.27,500.46Z" transform="translate(787.62 173.4)"/><path class="b" d="M1183.28,488.18h0a5.89,5.89,0,0,1,5.1,8.84,5.93,5.93,0,0,1-5.11,2.94,5.91,5.91,0,0,1-5.69-4.36,5.89,5.89,0,0,1,5.7-7.42m0-1a6.89,6.89,0,1,0,3.44.92,6.87,6.87,0,0,0-3.44-.92Z" transform="translate(787.62 173.4)"/><path class="b" d="M1155.69,500.46a6.39,6.39,0,1,1,5.54-3.19A6.38,6.38,0,0,1,1155.69,500.46Z" transform="translate(787.62 173.4)"/><path class="b" d="M1155.7,488.18h0a5.9,5.9,0,0,1,5.1,8.84,5.93,5.93,0,0,1-5.11,2.94,5.91,5.91,0,0,1-5.69-4.36,5.89,5.89,0,0,1,5.7-7.42m0-1a6.89,6.89,0,0,0-3.45,12.86,6.9,6.9,0,0,0,9.41-2.52,6.89,6.89,0,0,0-6-10.34Z" transform="translate(787.62 173.4)"/><circle class="b" cx="2039.85" cy="653.69" r="6.39"/><path class="b" d="M1252.23,474.39a5.9,5.9,0,1,1-5.89,5.9,5.9,5.9,0,0,1,5.89-5.9m0-1a6.9,6.9,0,1,0,6.89,6.9,6.89,6.89,0,0,0-6.89-6.9Z" transform="translate(787.62 173.4)"/><circle class="b" cx="2039.85" cy="626.12" r="6.39"/><path class="b" d="M1252.23,446.83a5.89,5.89,0,1,1-5.89,5.89,5.89,5.89,0,0,1,5.89-5.89m0-1a6.89,6.89,0,1,0,6.89,6.89,6.88,6.88,0,0,0-6.89-6.89Z" transform="translate(787.62 173.4)"/><circle class="b" cx="1984.69" cy="681.25" r="6.39"/><path class="b" d="M1197.07,502a5.89,5.89,0,1,1-5.9,5.89,5.9,5.9,0,0,1,5.9-5.89m0-1a6.89,6.89,0,1,0,6.89,6.89,6.9,6.9,0,0,0-6.89-6.89Z" transform="translate(787.62 173.4)"/><circle class="b" cx="2012.27" cy="681.25" r="6.39"/><path class="b" d="M1224.65,502a5.89,5.89,0,1,1-5.9,5.89,5.89,5.89,0,0,1,5.9-5.89m0-1a6.89,6.89,0,1,0,6.89,6.89,6.9,6.9,0,0,0-6.89-6.89Z" transform="translate(787.62 173.4)"/></g><g class="r"><circle class="b" cx="2060.52" cy="614.57" r="6.89"/></g><g class="q"><path class="b" d="M1397,406.21a6.39,6.39,0,1,1,6.39-6.39A6.39,6.39,0,0,1,1397,406.21Z" transform="translate(787.62 173.4)"/><path class="b" d="M1397,393.93a5.89,5.89,0,1,1-5.89,5.89,5.89,5.89,0,0,1,5.89-5.89m0-1a6.89,6.89,0,1,0,6.89,6.89,6.89,6.89,0,0,0-6.89-6.89Z" transform="translate(787.62 173.4)"/></g><g class="r"><circle class="b" cx="2170.85" cy="559.44" r="6.39"/><path class="b" d="M1383.23,380.15a5.89,5.89,0,1,1-5.89,5.89,5.89,5.89,0,0,1,5.89-5.89m0-1a6.89,6.89,0,1,0,6.89,6.89,6.88,6.88,0,0,0-6.89-6.89Z" transform="translate(787.62 173.4)"/></g><g class="q"><circle class="b" cx="2198.43" cy="559.44" r="6.39"/><path class="b" d="M1410.81,380.15a5.89,5.89,0,1,1-5.89,5.89,5.89,5.89,0,0,1,5.89-5.89m0-1a6.89,6.89,0,1,0,6.89,6.89,6.88,6.88,0,0,0-6.89-6.89Z" transform="translate(787.62 173.4)"/></g><g class="r"><path class="b" d="M1259.12,433.78a6.39,6.39,0,1,1,6.39-6.39A6.4,6.4,0,0,1,1259.12,433.78Z" transform="translate(787.62 173.4)"/><path class="b" d="M1259.12,421.5a5.89,5.89,0,1,1-5.89,5.89,5.89,5.89,0,0,1,5.89-5.89m0-1a6.89,6.89,0,1,0,6.89,6.89,6.88,6.88,0,0,0-6.89-6.89Z" transform="translate(787.62 173.4)"/></g><g class="q"><path class="b" d="M1452.17,351.08a6.39,6.39,0,1,1,5.55-3.2A6.38,6.38,0,0,1,1452.17,351.08Z" transform="translate(787.62 173.4)"/><path class="b" d="M1452.19,338.79h0a6,6,0,0,1,2.94.79,5.9,5.9,0,0,1-3,11,5.89,5.89,0,0,1-5.1-8.84,5.92,5.92,0,0,1,5.11-2.95m0-1a6.9,6.9,0,1,0,3.44.93,6.91,6.91,0,0,0-3.44-.93Z" transform="translate(787.62 173.4)"/></g><g class="q"><path class="b" d="M1438.38,364.86a6.39,6.39,0,1,1,5.54-3.19A6.38,6.38,0,0,1,1438.38,364.86Z" transform="translate(787.62 173.4)"/><path class="b" d="M1438.39,352.58h0a5.91,5.91,0,0,1,5.69,4.36,5.89,5.89,0,0,1-5.7,7.42,5.84,5.84,0,0,1-2.94-.79,5.89,5.89,0,0,1,3-11m0-1a6.89,6.89,0,1,0,3.44.92,6.87,6.87,0,0,0-3.44-.92Z" transform="translate(787.62 173.4)"/></g><circle class="b" cx="2239.8" cy="545.66" r="6.39"/><path class="b" d="M1452.18,366.36a5.9,5.9,0,1,1-5.89,5.89,5.9,5.9,0,0,1,5.89-5.89m0-1a6.9,6.9,0,1,0,6.89,6.89,6.9,6.9,0,0,0-6.89-6.89Z" transform="translate(787.62 173.4)"/><g class="q"><path class="b" d="M1637.61,206.16a6.4,6.4,0,1,1,5.54-3.2A6.38,6.38,0,0,1,1637.61,206.16Z" transform="translate(787.62 173.4)"/><path class="b" d="M1637.62,193.87h0a5.84,5.84,0,0,1,2.94.79,5.89,5.89,0,1,1-2.94-.79m0-1a6.89,6.89,0,1,0,3.44.92,6.88,6.88,0,0,0-3.44-.92Z" transform="translate(787.62 173.4)"/></g><circle class="b" cx="2439.03" cy="386.95" r="6.39"/><path class="b" d="M1651.41,207.66a5.89,5.89,0,1,1-5.89,5.89,5.89,5.89,0,0,1,5.89-5.89m0-1a6.89,6.89,0,1,0,6.89,6.89,6.89,6.89,0,0,0-6.89-6.89Z" transform="translate(787.62 173.4)"/><polygon class="t" points="1197.88 1129.87 1092.79 1028.93 1212.98 873.79 1396.78 889.64 1421.97 984.12 1197.88 1129.87"/><circle class="b" cx="1379.66" cy="896.76" r="6.89"/><circle class="b" cx="1352.12" cy="896.76" r="6.89"/><circle class="b" cx="1324.58" cy="896.76" r="6.89"/><circle class="b" cx="1297.04" cy="896.76" r="6.89"/><circle class="b" cx="1269.5" cy="896.76" r="6.89"/><circle class="b" cx="1241.96" cy="896.76" r="6.89"/><circle class="b" cx="1214.42" cy="896.76" r="6.89"/><circle class="b" cx="1186.88" cy="896.76" r="6.89"/><g class="q"><circle class="b" cx="1393.43" cy="882.98" r="6.89"/></g><circle class="b" cx="1365.89" cy="882.98" r="6.89"/><circle class="b" cx="1338.35" cy="882.98" r="6.89"/><circle class="b" cx="1310.81" cy="882.98" r="6.89"/><circle class="b" cx="1283.27" cy="882.98" r="6.89"/><circle class="b" cx="1255.73" cy="882.98" r="6.89"/><circle class="b" cx="1228.19" cy="882.98" r="6.89"/><circle class="b" cx="1200.65" cy="882.98" r="6.89"/><circle class="b" cx="1214.42" cy="869.19" r="6.89"/><circle class="b" cx="1173.1" cy="965.3" r="6.89"/><circle class="b" cx="1145.56" cy="965.3" r="6.89"/><circle class="b" cx="1118.02" cy="965.3" r="6.89"/><circle class="b" cx="1159.33" cy="951.52" r="6.89"/><circle class="b" cx="1131.79" cy="951.52" r="6.89"/><g class="q"><circle class="b" cx="1118.02" cy="937.73" r="6.89"/></g><g class="q"><circle class="b" cx="1090.48" cy="1020.43" r="6.89"/></g><g class="q"><circle class="b" cx="1076.69" cy="1061.79" r="6.89"/></g><g class="q"><circle class="b" cx="1104.25" cy="1089.35" r="6.89"/></g><g class="q"><circle class="b" cx="1159.33" cy="1116.92" r="6.89"/></g><g class="r"><circle class="b" cx="1145.56" cy="1130.7" r="6.89"/></g><g class="q"><circle class="b" cx="1297.04" cy="1116.92" r="6.89"/></g><g class="r"><circle class="b" cx="1283.27" cy="1130.7" r="6.89"/></g><g class="q"><circle class="b" cx="1407.22" cy="896.76" r="6.89"/></g><g class="q"><circle class="b" cx="1421" cy="992.87" r="6.89"/></g><g class="q"><circle class="b" cx="1434.78" cy="979.46" r="6.89"/></g><g class="r"><circle class="b" cx="1448.57" cy="965.68" r="6.89"/></g><g class="r"><circle class="b" cx="1421" cy="910.54" r="6.89"/></g><g class="q"><circle class="b" cx="1269.5" cy="869.19" r="6.89"/></g><g class="q"><circle class="b" cx="1297.04" cy="869.19" r="6.89"/></g><g class="q"><circle class="b" cx="1131.79" cy="923.95" r="6.89"/></g><g class="q"><circle class="b" cx="1186.89" cy="869.19" r="6.89"/></g><g class="q"><circle class="b" cx="1200.66" cy="855.41" r="6.89"/></g><g class="r"><circle class="b" cx="1118.02" cy="910.54" r="6.89"/></g><g class="r"><circle class="b" cx="1186.89" cy="841.63" r="6.89"/></g><g class="r"><circle class="b" cx="1283.27" cy="855.41" r="6.89"/></g><g class="r"><circle class="b" cx="1407.22" cy="869.19" r="6.89"/></g><circle class="b" cx="1145.56" cy="937.73" r="6.89"/><circle class="b" cx="1159.33" cy="1006.65" r="6.89"/><circle class="b" cx="1131.79" cy="1006.65" r="6.89"/><circle class="b" cx="1104.25" cy="1006.65" r="6.89"/><circle class="b" cx="1145.56" cy="992.87" r="6.89"/><circle class="b" cx="1118.02" cy="992.87" r="6.89"/><circle class="b" cx="1118.02" cy="1048" r="6.89"/><circle class="b" cx="1090.48" cy="1048" r="6.89"/><circle class="b" cx="1104.25" cy="1034.22" r="6.89"/><circle class="b" cx="1145.56" cy="1075.57" r="6.89"/><circle class="b" cx="1118.02" cy="1075.57" r="6.89"/><circle class="b" cx="1131.79" cy="1061.79" r="6.89"/><circle class="b" cx="1173.1" cy="1103.14" r="6.89"/><circle class="b" cx="1145.56" cy="1103.14" r="6.89"/><circle class="b" cx="1159.33" cy="1089.35" r="6.89"/><circle class="b" cx="1200.65" cy="1130.7" r="6.89"/><circle class="b" cx="1173.11" cy="1130.7" r="6.89"/><circle class="b" cx="1283.27" cy="1103.14" r="6.89"/><circle class="b" cx="1186.88" cy="1116.92" r="6.89"/><circle class="b" cx="1241.97" cy="1116.92" r="6.89"/><g class="q"><circle class="b" cx="1269.5" cy="1116.92" r="6.89"/></g><circle class="b" cx="1214.43" cy="1116.92" r="6.89"/><circle class="b" cx="1228.2" cy="1103.14" r="6.89"/><circle class="b" cx="1255.72" cy="1103.14" r="6.89"/><circle class="b" cx="1297.04" cy="1089.35" r="6.89"/><g class="r"><circle class="b" cx="1352.11" cy="1061.79" r="6.89"/></g><g class="q"><circle class="b" cx="1324.6" cy="1061.79" r="6.89"/></g><circle class="b" cx="1269.5" cy="1089.35" r="6.89"/><circle class="b" cx="1283.27" cy="1075.57" r="6.89"/><circle class="b" cx="1297.03" cy="1061.79" r="6.89"/><circle class="b" cx="1338.35" cy="1048" r="6.89"/><circle class="b" cx="1310.81" cy="1048" r="6.89"/><circle class="b" cx="1352.11" cy="1034.22" r="6.89"/><circle class="b" cx="1393.43" cy="1020.43" r="6.89"/><circle class="b" cx="1421" cy="965.68" r="6.89"/><circle class="b" cx="1365.89" cy="1020.43" r="6.89"/><circle class="b" cx="1379.66" cy="1006.65" r="6.89"/><circle class="b" cx="1407.22" cy="951.52" r="6.89"/><circle class="b" cx="1407.22" cy="923.95" r="6.89"/><g class="q"><circle class="b" cx="1517.43" cy="896.57" r="6.89"/></g><g class="q"><circle class="b" cx="1531.21" cy="883.16" r="6.89"/></g><g class="r"><circle class="b" cx="1545" cy="869.38" r="6.89"/></g><g class="r"><circle class="b" cx="1448.54" cy="965.49" r="6.89"/></g><circle class="b" cx="1448.54" cy="937.92" r="6.89"/><circle class="b" cx="1489.86" cy="924.14" r="6.89"/><circle class="b" cx="1517.43" cy="869.38" r="6.89"/><circle class="b" cx="1462.32" cy="924.14" r="6.89"/><circle class="b" cx="1476.09" cy="910.35" r="6.89"/><g class="r"><circle class="b" cx="1503.65" cy="855.22" r="6.89"/></g><circle class="b" cx="1613.89" cy="827.84" r="6.89"/><circle class="b" cx="1627.67" cy="814.44" r="6.89"/><circle class="b" cx="1545" cy="869.19" r="6.89"/><circle class="b" cx="1586.32" cy="855.41" r="6.89"/><circle class="b" cx="1613.89" cy="800.65" r="6.89"/><g class="q"><circle class="b" cx="1600.11" cy="814.25" r="6.89"/></g><g class="r"><circle class="b" cx="1586.32" cy="800.65" r="6.89"/></g><g class="r"><circle class="b" cx="1641.46" cy="800.65" r="6.89"/></g><circle class="b" cx="1600.11" cy="787.06" r="6.89"/><g class="q"><circle class="b" cx="1572.55" cy="841.63" r="6.89"/></g><g class="r"><circle class="b" cx="1669" cy="690.38" r="6.89"/></g><g class="q"><circle class="b" cx="1696.56" cy="662.82" r="6.89"/></g><circle class="b" cx="1710.35" cy="649.41" r="6.89"/><circle class="b" cx="1696.56" cy="635.63" r="6.89"/><g class="q"><circle class="b" cx="1655.23" cy="676.6" r="6.89"/></g><g class="r"><circle class="b" cx="1724.13" cy="663.19" r="6.89"/></g><g class="r"><circle class="b" cx="1682.78" cy="621.47" r="6.89"/></g><circle class="b" cx="1324.58" cy="1034.22" r="6.89"/><circle class="b" cx="1131.79" cy="979.08" r="6.89"/><polygon class="u" points="2520.36 314.9 2558.7 364.52 2720.77 0 2477.68 0 2477.68 252.26 2520.36 269.33 2520.36 314.9"/><path class="b" d="M1692.76-152.14a6.4,6.4,0,0,1-6.39-6.39,6.4,6.4,0,0,1,6.39-6.39,6.4,6.4,0,0,1,6.4,6.39A6.4,6.4,0,0,1,1692.76-152.14Z" transform="translate(787.62 173.4)"/><path class="b" d="M1692.76-164.42a5.9,5.9,0,0,1,5.9,5.89,5.9,5.9,0,0,1-5.9,5.89,5.89,5.89,0,0,1-5.89-5.89,5.89,5.89,0,0,1,5.89-5.89m0-1a6.9,6.9,0,0,0-6.89,6.89,6.89,6.89,0,0,0,6.89,6.89,6.89,6.89,0,0,0,6.9-6.89,6.9,6.9,0,0,0-6.9-6.89Z" transform="translate(787.62 173.4)"/><path class="b" d="M1692.76-124.57a6.4,6.4,0,0,1-6.39-6.39,6.4,6.4,0,0,1,6.39-6.39,6.4,6.4,0,0,1,6.4,6.39A6.4,6.4,0,0,1,1692.76-124.57Z" transform="translate(787.62 173.4)"/><path class="b" d="M1692.76-136.85a5.9,5.9,0,0,1,5.9,5.89,5.9,5.9,0,0,1-5.9,5.89,5.89,5.89,0,0,1-5.89-5.89,5.89,5.89,0,0,1,5.89-5.89m0-1a6.9,6.9,0,0,0-6.89,6.89,6.89,6.89,0,0,0,6.89,6.89,6.89,6.89,0,0,0,6.9-6.89,6.9,6.9,0,0,0-6.9-6.89Z" transform="translate(787.62 173.4)"/><path class="b" d="M1692.76-97a6.4,6.4,0,0,1-6.39-6.39,6.4,6.4,0,0,1,6.39-6.39,6.4,6.4,0,0,1,6.4,6.39A6.4,6.4,0,0,1,1692.76-97Z" transform="translate(787.62 173.4)"/><path class="b" d="M1692.76-109.28a5.9,5.9,0,0,1,5.9,5.89,5.9,5.9,0,0,1-5.9,5.89,5.89,5.89,0,0,1-5.89-5.89,5.89,5.89,0,0,1,5.89-5.89m0-1a6.9,6.9,0,0,0-6.89,6.89,6.89,6.89,0,0,0,6.89,6.89,6.89,6.89,0,0,0,6.9-6.89,6.9,6.9,0,0,0-6.9-6.89Z" transform="translate(787.62 173.4)"/><path class="b" d="M1692.76-69.43a6.4,6.4,0,0,1-6.39-6.39,6.4,6.4,0,0,1,6.39-6.39,6.4,6.4,0,0,1,6.4,6.39A6.4,6.4,0,0,1,1692.76-69.43Z" transform="translate(787.62 173.4)"/><path class="b" d="M1692.76-81.71a5.9,5.9,0,0,1,5.9,5.89,5.9,5.9,0,0,1-5.9,5.89,5.89,5.89,0,0,1-5.89-5.89,5.89,5.89,0,0,1,5.89-5.89m0-1a6.9,6.9,0,0,0-6.89,6.89,6.89,6.89,0,0,0,6.89,6.89,6.89,6.89,0,0,0,6.9-6.89,6.9,6.9,0,0,0-6.9-6.89Z" transform="translate(787.62 173.4)"/><path class="b" d="M1692.76-41.86a6.4,6.4,0,0,1-6.39-6.39,6.4,6.4,0,0,1,6.39-6.39,6.4,6.4,0,0,1,6.4,6.39A6.4,6.4,0,0,1,1692.76-41.86Z" transform="translate(787.62 173.4)"/><path class="b" d="M1692.76-54.14a5.9,5.9,0,0,1,5.9,5.89,5.9,5.9,0,0,1-5.9,5.89,5.89,5.89,0,0,1-5.89-5.89,5.89,5.89,0,0,1,5.89-5.89m0-1a6.9,6.9,0,0,0-6.89,6.89,6.89,6.89,0,0,0,6.89,6.89,6.89,6.89,0,0,0,6.9-6.89,6.9,6.9,0,0,0-6.9-6.89Z" transform="translate(787.62 173.4)"/><path class="b" d="M1692.76-14.28a6.4,6.4,0,0,1-6.39-6.4,6.4,6.4,0,0,1,6.39-6.39,6.4,6.4,0,0,1,6.4,6.39A6.41,6.41,0,0,1,1692.76-14.28Z" transform="translate(787.62 173.4)"/><path class="b" d="M1692.76-26.57a5.9,5.9,0,0,1,5.9,5.89,5.9,5.9,0,0,1-5.9,5.89,5.89,5.89,0,0,1-5.89-5.89,5.89,5.89,0,0,1,5.89-5.89m0-1a6.9,6.9,0,0,0-6.89,6.89,6.89,6.89,0,0,0,6.89,6.89,6.89,6.89,0,0,0,6.9-6.89,6.9,6.9,0,0,0-6.9-6.89Z" transform="translate(787.62 173.4)"/><path class="b" d="M1692.76,13.28a6.39,6.39,0,1,1,6.4-6.39A6.4,6.4,0,0,1,1692.76,13.28Z" transform="translate(787.62 173.4)"/><path class="b" d="M1692.76,1a5.9,5.9,0,1,1-5.89,5.89A5.9,5.9,0,0,1,1692.76,1m0-1a6.9,6.9,0,1,0,6.9,6.89,6.9,6.9,0,0,0-6.9-6.89Z" transform="translate(787.62 173.4)"/><path class="b" d="M1692.76,40.86a6.4,6.4,0,1,1,6.4-6.4A6.4,6.4,0,0,1,1692.76,40.86Z" transform="translate(787.62 173.4)"/><path class="b" d="M1692.76,28.57a5.9,5.9,0,1,1-5.89,5.89,5.9,5.9,0,0,1,5.89-5.89m0-1a6.9,6.9,0,1,0,6.9,6.89,6.9,6.9,0,0,0-6.9-6.89Z" transform="translate(787.62 173.4)"/><path class="b" d="M1830.46,68.43a6.4,6.4,0,1,1,6.4-6.4A6.4,6.4,0,0,1,1830.46,68.43Z" transform="translate(787.62 173.4)"/><path class="b" d="M1830.46,56.14a5.9,5.9,0,1,1-5.89,5.89,5.9,5.9,0,0,1,5.89-5.89m0-1a6.9,6.9,0,1,0,6.9,6.89,6.9,6.9,0,0,0-6.9-6.89Z" transform="translate(787.62 173.4)"/><path class="b" d="M1844.25,27.07a6.4,6.4,0,1,1,6.39-6.39A6.4,6.4,0,0,1,1844.25,27.07Z" transform="translate(787.62 173.4)"/><path class="b" d="M1844.25,14.79a5.89,5.89,0,1,1-5.89,5.89,5.89,5.89,0,0,1,5.89-5.89m0-1a6.89,6.89,0,1,0,6.89,6.89,6.88,6.88,0,0,0-6.89-6.89Z" transform="translate(787.62 173.4)"/><path class="b" d="M1858,13.28a6.39,6.39,0,1,1,6.39-6.39A6.4,6.4,0,0,1,1858,13.28Z" transform="translate(787.62 173.4)"/><path class="b" d="M1858,1a5.9,5.9,0,1,1-5.89,5.89A5.89,5.89,0,0,1,1858,1m0-1a6.9,6.9,0,1,0,6.89,6.89A6.9,6.9,0,0,0,1858,0Z" transform="translate(787.62 173.4)"/><path class="b" d="M1871.82-28.07a6.4,6.4,0,0,1-6.4-6.39,6.41,6.41,0,0,1,6.4-6.4,6.4,6.4,0,0,1,6.39,6.4A6.4,6.4,0,0,1,1871.82-28.07Z" transform="translate(787.62 173.4)"/><path class="b" d="M1871.82-40.36a5.91,5.91,0,0,1,5.89,5.9,5.9,5.9,0,0,1-5.89,5.89,5.9,5.9,0,0,1-5.9-5.89,5.91,5.91,0,0,1,5.9-5.9m0-1a6.9,6.9,0,0,0-6.9,6.9,6.9,6.9,0,0,0,6.9,6.89,6.9,6.9,0,0,0,6.89-6.89,6.9,6.9,0,0,0-6.89-6.9Z" transform="translate(787.62 173.4)"/><path class="b" d="M1885.6-69.43a6.39,6.39,0,0,1-6.39-6.39,6.4,6.4,0,0,1,6.39-6.39,6.4,6.4,0,0,1,6.39,6.39A6.4,6.4,0,0,1,1885.6-69.43Z" transform="translate(787.62 173.4)"/><path class="b" d="M1885.6-81.71a5.89,5.89,0,0,1,5.89,5.89,5.89,5.89,0,0,1-5.89,5.89,5.89,5.89,0,0,1-5.89-5.89,5.89,5.89,0,0,1,5.89-5.89m0-1a6.89,6.89,0,0,0-6.89,6.89,6.88,6.88,0,0,0,6.89,6.89,6.88,6.88,0,0,0,6.89-6.89,6.89,6.89,0,0,0-6.89-6.89Z" transform="translate(787.62 173.4)"/><path class="b" d="M1899.38-83.21A6.4,6.4,0,0,1,1893-89.6a6.4,6.4,0,0,1,6.39-6.39,6.39,6.39,0,0,1,6.39,6.39A6.4,6.4,0,0,1,1899.38-83.21Z" transform="translate(787.62 173.4)"/><path class="b" d="M1899.38-95.49a5.89,5.89,0,0,1,5.89,5.89,5.89,5.89,0,0,1-5.89,5.89,5.89,5.89,0,0,1-5.89-5.89,5.89,5.89,0,0,1,5.89-5.89m0-1a6.89,6.89,0,0,0-6.89,6.89,6.89,6.89,0,0,0,6.89,6.89,6.88,6.88,0,0,0,6.89-6.89,6.88,6.88,0,0,0-6.89-6.89Z" transform="translate(787.62 173.4)"/><g class="q"><path class="b" d="M1913.17-97a6.4,6.4,0,0,1-6.4-6.39,6.41,6.41,0,0,1,6.4-6.4,6.4,6.4,0,0,1,6.39,6.4A6.4,6.4,0,0,1,1913.17-97Z" transform="translate(787.62 173.4)"/><path class="b" d="M1913.17-109.28a5.9,5.9,0,0,1,5.89,5.9,5.9,5.9,0,0,1-5.89,5.89,5.91,5.91,0,0,1-5.9-5.89,5.91,5.91,0,0,1,5.9-5.9m0-1a6.9,6.9,0,0,0-6.9,6.9,6.9,6.9,0,0,0,6.9,6.89,6.9,6.9,0,0,0,6.89-6.89,6.9,6.9,0,0,0-6.89-6.9Z" transform="translate(787.62 173.4)"/></g><g class="q"><path class="b" d="M1899.38-55.64A6.4,6.4,0,0,1,1893-62a6.4,6.4,0,0,1,6.39-6.4,6.4,6.4,0,0,1,6.39,6.4A6.4,6.4,0,0,1,1899.38-55.64Z" transform="translate(787.62 173.4)"/><path class="b" d="M1899.38-67.93a5.9,5.9,0,0,1,5.89,5.9,5.89,5.89,0,0,1-5.89,5.89,5.89,5.89,0,0,1-5.89-5.89,5.9,5.9,0,0,1,5.89-5.9m0-1a6.9,6.9,0,0,0-6.89,6.9,6.9,6.9,0,0,0,6.89,6.89,6.89,6.89,0,0,0,6.89-6.89,6.89,6.89,0,0,0-6.89-6.9Z" transform="translate(787.62 173.4)"/></g><path class="b" d="M1913.17-124.56a6.4,6.4,0,0,1-6.4-6.39,6.4,6.4,0,0,1,6.4-6.39,6.4,6.4,0,0,1,6.39,6.39A6.4,6.4,0,0,1,1913.17-124.56Z" transform="translate(787.62 173.4)"/><path class="b" d="M1913.17-136.84a5.89,5.89,0,0,1,5.89,5.89,5.89,5.89,0,0,1-5.89,5.89,5.9,5.9,0,0,1-5.9-5.89,5.9,5.9,0,0,1,5.9-5.89m0-1a6.89,6.89,0,0,0-6.9,6.89,6.9,6.9,0,0,0,6.9,6.89,6.9,6.9,0,0,0,6.89-6.89,6.89,6.89,0,0,0-6.89-6.89Z" transform="translate(787.62 173.4)"/><path class="b" d="M1927-138.34a6.4,6.4,0,0,1-6.39-6.4,6.4,6.4,0,0,1,6.39-6.39,6.4,6.4,0,0,1,6.39,6.39A6.4,6.4,0,0,1,1927-138.34Z" transform="translate(787.62 173.4)"/><path class="b" d="M1927-150.63a5.9,5.9,0,0,1,5.89,5.89,5.9,5.9,0,0,1-5.89,5.9,5.9,5.9,0,0,1-5.89-5.9,5.9,5.9,0,0,1,5.89-5.89m0-1a6.89,6.89,0,0,0-6.89,6.89,6.89,6.89,0,0,0,6.89,6.9,6.89,6.89,0,0,0,6.89-6.9,6.89,6.89,0,0,0-6.89-6.89Z" transform="translate(787.62 173.4)"/><path class="b" d="M1816.57,82.21a6.39,6.39,0,1,1,6.4-6.39A6.4,6.4,0,0,1,1816.57,82.21Z" transform="translate(787.62 173.4)"/><path class="b" d="M1816.57,69.93a5.89,5.89,0,1,1-5.89,5.89,5.9,5.9,0,0,1,5.89-5.89m0-1a6.89,6.89,0,1,0,6.9,6.89,6.89,6.89,0,0,0-6.9-6.89Z" transform="translate(787.62 173.4)"/><path class="b" d="M1816.57,109.78a6.39,6.39,0,1,1,6.4-6.39A6.4,6.4,0,0,1,1816.57,109.78Z" transform="translate(787.62 173.4)"/><path class="b" d="M1816.57,97.5a5.89,5.89,0,1,1-5.89,5.89,5.9,5.9,0,0,1,5.89-5.89m0-1a6.89,6.89,0,1,0,6.9,6.89,6.89,6.89,0,0,0-6.9-6.89Z" transform="translate(787.62 173.4)"/><path class="b" d="M1802.79,123.45a6.39,6.39,0,1,1,6.39-6.39A6.4,6.4,0,0,1,1802.79,123.45Z" transform="translate(787.62 173.4)"/><path class="b" d="M1802.79,111.17a5.89,5.89,0,1,1-5.89,5.89,5.89,5.89,0,0,1,5.89-5.89m0-1a6.89,6.89,0,1,0,6.89,6.89,6.89,6.89,0,0,0-6.89-6.89Z" transform="translate(787.62 173.4)"/><path class="b" d="M1789,164.8a6.39,6.39,0,1,1,6.39-6.39A6.4,6.4,0,0,1,1789,164.8Z" transform="translate(787.62 173.4)"/><path class="b" d="M1789,152.52a5.89,5.89,0,1,1-5.9,5.89,5.9,5.9,0,0,1,5.9-5.89m0-1a6.89,6.89,0,1,0,6.89,6.89,6.9,6.9,0,0,0-6.89-6.89Z" transform="translate(787.62 173.4)"/><path class="b" d="M1775.47,178.59a6.4,6.4,0,1,1,6.4-6.39A6.4,6.4,0,0,1,1775.47,178.59Z" transform="translate(787.62 173.4)"/><path class="b" d="M1775.47,166.3a5.9,5.9,0,1,1-5.89,5.9,5.91,5.91,0,0,1,5.89-5.9m0-1a6.9,6.9,0,1,0,6.9,6.9,6.9,6.9,0,0,0-6.9-6.9Z" transform="translate(787.62 173.4)"/><path class="b" d="M1762.59,192.37A6.39,6.39,0,1,1,1769,186,6.4,6.4,0,0,1,1762.59,192.37Z" transform="translate(787.62 173.4)"/><path class="b" d="M1762.59,180.09a5.89,5.89,0,1,1-5.89,5.89,5.89,5.89,0,0,1,5.89-5.89m0-1a6.89,6.89,0,1,0,6.89,6.89,6.88,6.88,0,0,0-6.89-6.89Z" transform="translate(787.62 173.4)"/><g class="q"><path class="b" d="M1776.37,206.16a6.4,6.4,0,1,1,6.39-6.4A6.4,6.4,0,0,1,1776.37,206.16Z" transform="translate(787.62 173.4)"/><path class="b" d="M1776.37,193.87a5.9,5.9,0,1,1-5.89,5.89,5.89,5.89,0,0,1,5.89-5.89m0-1a6.9,6.9,0,1,0,6.89,6.89,6.89,6.89,0,0,0-6.89-6.89Z" transform="translate(787.62 173.4)"/></g><path class="b" d="M1692.76,68.43a6.4,6.4,0,1,1,6.4-6.4A6.4,6.4,0,0,1,1692.76,68.43Z" transform="translate(787.62 173.4)"/><path class="b" d="M1692.76,56.14a5.9,5.9,0,1,1-5.89,5.89,5.9,5.9,0,0,1,5.89-5.89m0-1a6.9,6.9,0,1,0,6.9,6.89,6.9,6.9,0,0,0-6.9-6.89Z" transform="translate(787.62 173.4)"/><g class="q"><path class="b" d="M1679,54.64a6.39,6.39,0,1,1,6.39-6.39A6.4,6.4,0,0,1,1679,54.64Z" transform="translate(787.62 173.4)"/><path class="b" d="M1679,42.36a5.89,5.89,0,1,1-5.89,5.89,5.89,5.89,0,0,1,5.89-5.89m0-1a6.89,6.89,0,1,0,6.89,6.89,6.88,6.88,0,0,0-6.89-6.89Z" transform="translate(787.62 173.4)"/></g><g class="q"><path class="b" d="M1679,82.21a6.39,6.39,0,1,1,6.39-6.39A6.4,6.4,0,0,1,1679,82.21Z" transform="translate(787.62 173.4)"/><path class="b" d="M1679,69.93a5.89,5.89,0,1,1-5.89,5.89,5.89,5.89,0,0,1,5.89-5.89m0-1a6.89,6.89,0,1,0,6.89,6.89,6.88,6.88,0,0,0-6.89-6.89Z" transform="translate(787.62 173.4)"/></g><g class="q"><path class="b" d="M1679-28.07a6.4,6.4,0,0,1-6.39-6.39,6.4,6.4,0,0,1,6.39-6.39,6.4,6.4,0,0,1,6.39,6.39A6.4,6.4,0,0,1,1679-28.07Z" transform="translate(787.62 173.4)"/><path class="b" d="M1679-40.35a5.89,5.89,0,0,1,5.89,5.89,5.89,5.89,0,0,1-5.89,5.89,5.89,5.89,0,0,1-5.89-5.89,5.89,5.89,0,0,1,5.89-5.89m0-1a6.88,6.88,0,0,0-6.89,6.89,6.89,6.89,0,0,0,6.89,6.89,6.89,6.89,0,0,0,6.89-6.89,6.88,6.88,0,0,0-6.89-6.89Z" transform="translate(787.62 173.4)"/></g><g class="r"><path class="b" d="M1665.2-14.28a6.41,6.41,0,0,1-6.4-6.4,6.4,6.4,0,0,1,6.4-6.39,6.4,6.4,0,0,1,6.39,6.39A6.4,6.4,0,0,1,1665.2-14.28Z" transform="translate(787.62 173.4)"/><path class="b" d="M1665.2-26.57a5.89,5.89,0,0,1,5.89,5.89,5.89,5.89,0,0,1-5.89,5.89,5.9,5.9,0,0,1-5.9-5.89,5.9,5.9,0,0,1,5.9-5.89m0-1a6.9,6.9,0,0,0-6.9,6.89,6.89,6.89,0,0,0,6.9,6.89,6.89,6.89,0,0,0,6.89-6.89,6.9,6.9,0,0,0-6.89-6.89Z" transform="translate(787.62 173.4)"/></g><g class="r"><path class="b" d="M1665.2,68.43a6.4,6.4,0,1,1,6.39-6.4A6.41,6.41,0,0,1,1665.2,68.43Z" transform="translate(787.62 173.4)"/><path class="b" d="M1665.2,56.14a5.9,5.9,0,1,1-5.9,5.89,5.89,5.89,0,0,1,5.9-5.89m0-1a6.9,6.9,0,1,0,6.89,6.89,6.9,6.9,0,0,0-6.89-6.89Z" transform="translate(787.62 173.4)"/></g><g class="q"><circle class="b" cx="2466.6" cy="166.51" r="6.39"/><path class="b" d="M1679-12.78a5.89,5.89,0,0,1,5.89,5.89A5.89,5.89,0,0,1,1679-1a5.89,5.89,0,0,1-5.89-5.89,5.89,5.89,0,0,1,5.89-5.89m0-1a6.88,6.88,0,0,0-6.89,6.89A6.89,6.89,0,0,0,1679,0a6.89,6.89,0,0,0,6.89-6.89,6.88,6.88,0,0,0-6.89-6.89Z" transform="translate(787.62 173.4)"/></g><g class="q"><path class="b" d="M1706.55,82.21a6.39,6.39,0,1,1,6.39-6.39A6.4,6.4,0,0,1,1706.55,82.21Z" transform="translate(787.62 173.4)"/><path class="b" d="M1706.55,69.93a5.89,5.89,0,1,1-5.89,5.89,5.89,5.89,0,0,1,5.89-5.89m0-1a6.89,6.89,0,1,0,6.89,6.89,6.88,6.88,0,0,0-6.89-6.89Z" transform="translate(787.62 173.4)"/></g><g class="q"><path class="b" d="M1734.11,109.78a6.39,6.39,0,1,1,6.4-6.39A6.4,6.4,0,0,1,1734.11,109.78Z" transform="translate(787.62 173.4)"/><path class="b" d="M1734.11,97.5a5.89,5.89,0,1,1-5.89,5.89,5.9,5.9,0,0,1,5.89-5.89m0-1a6.89,6.89,0,1,0,6.9,6.89,6.89,6.89,0,0,0-6.9-6.89Z" transform="translate(787.62 173.4)"/></g><g class="q"><path class="b" d="M1775.47,123.45a6.39,6.39,0,1,1,6.4-6.39A6.4,6.4,0,0,1,1775.47,123.45Z" transform="translate(787.62 173.4)"/><path class="b" d="M1775.47,111.17a5.89,5.89,0,1,1-5.89,5.89,5.9,5.9,0,0,1,5.89-5.89m0-1a6.89,6.89,0,1,0,6.9,6.89,6.9,6.9,0,0,0-6.9-6.89Z" transform="translate(787.62 173.4)"/></g><g class="q"><path class="b" d="M1761.68,109.78a6.39,6.39,0,1,1,6.39-6.39A6.4,6.4,0,0,1,1761.68,109.78Z" transform="translate(787.62 173.4)"/><path class="b" d="M1761.68,97.5a5.89,5.89,0,1,1-5.89,5.89,5.89,5.89,0,0,1,5.89-5.89m0-1a6.89,6.89,0,1,0,6.89,6.89,6.89,6.89,0,0,0-6.89-6.89Z" transform="translate(787.62 173.4)"/></g><g class="q"><path class="b" d="M1706.55,109.78a6.39,6.39,0,1,1,6.39-6.39A6.4,6.4,0,0,1,1706.55,109.78Z" transform="translate(787.62 173.4)"/><path class="b" d="M1706.55,97.5a5.89,5.89,0,1,1-5.89,5.89,5.89,5.89,0,0,1,5.89-5.89m0-1a6.89,6.89,0,1,0,6.89,6.89,6.88,6.88,0,0,0-6.89-6.89Z" transform="translate(787.62 173.4)"/></g><circle class="b" cx="2507.95" cy="263" r="6.39"/><path class="b" d="M1720.33,83.71a5.89,5.89,0,1,1-5.89,5.89,5.89,5.89,0,0,1,5.89-5.89m0-1a6.89,6.89,0,1,0,6.89,6.89,6.89,6.89,0,0,0-6.89-6.89Z" transform="translate(787.62 173.4)"/><path class="b" d="M1734.11,82.21a6.39,6.39,0,1,1,6.4-6.39A6.4,6.4,0,0,1,1734.11,82.21Z" transform="translate(787.62 173.4)"/><path class="b" d="M1734.11,69.93a5.89,5.89,0,1,1-5.89,5.89,5.9,5.9,0,0,1,5.89-5.89m0-1a6.89,6.89,0,1,0,6.9,6.89,6.89,6.89,0,0,0-6.9-6.89Z" transform="translate(787.62 173.4)"/><path class="b" d="M1747.9,123.45a6.39,6.39,0,1,1,6.39-6.39A6.39,6.39,0,0,1,1747.9,123.45Z" transform="translate(787.62 173.4)"/><path class="b" d="M1747.9,111.17a5.89,5.89,0,1,1-5.89,5.89,5.89,5.89,0,0,1,5.89-5.89m0-1a6.89,6.89,0,1,0,6.89,6.89,6.89,6.89,0,0,0-6.89-6.89Z" transform="translate(787.62 173.4)"/><path class="b" d="M1761.68,137.24a6.4,6.4,0,1,1,6.39-6.39A6.4,6.4,0,0,1,1761.68,137.24Z" transform="translate(787.62 173.4)"/><path class="b" d="M1761.68,125a5.9,5.9,0,1,1-5.89,5.9,5.9,5.9,0,0,1,5.89-5.9m0-1a6.9,6.9,0,1,0,6.89,6.9,6.9,6.9,0,0,0-6.89-6.9Z" transform="translate(787.62 173.4)"/><path class="b" d="M1775.47,151a6.39,6.39,0,1,1,6.4-6.39A6.4,6.4,0,0,1,1775.47,151Z" transform="translate(787.62 173.4)"/><path class="b" d="M1775.47,138.74a5.89,5.89,0,1,1-5.89,5.89,5.9,5.9,0,0,1,5.89-5.89m0-1a6.89,6.89,0,1,0,6.9,6.89,6.89,6.89,0,0,0-6.9-6.89Z" transform="translate(787.62 173.4)"/><path class="b" d="M1761.68,164.8a6.39,6.39,0,1,1,6.39-6.39A6.4,6.4,0,0,1,1761.68,164.8Z" transform="translate(787.62 173.4)"/><path class="b" d="M1761.68,152.52a5.89,5.89,0,1,1-5.89,5.89,5.89,5.89,0,0,1,5.89-5.89m0-1a6.89,6.89,0,1,0,6.89,6.89,6.9,6.9,0,0,0-6.89-6.89Z" transform="translate(787.62 173.4)"/><path class="b" d="M1734.11,137.24a6.4,6.4,0,1,1,6.4-6.39A6.4,6.4,0,0,1,1734.11,137.24Z" transform="translate(787.62 173.4)"/><path class="b" d="M1734.11,125a5.9,5.9,0,1,1-5.89,5.9,5.91,5.91,0,0,1,5.89-5.9m0-1a6.9,6.9,0,1,0,6.9,6.9,6.9,6.9,0,0,0-6.9-6.9Z" transform="translate(787.62 173.4)"/><polyline class="v" points="2589.82 474.51 2511.67 351.25 2499.09 323.75 2474.98 313.31 2436.36 472.04 2325.67 467.47 2204.95 596.76 2073.82 605.22 2054.71 820.94 1817.24 743.36 1777.74 645.29 1747 673.94 1610.31 955.05 1228.4 1242.31 1181.32 1275.4"/></g><path class="b" d="M189.56,467.94c15.37,0,27.88,12,27.88,26.84s-12.51,26.85-27.88,26.85-27.88-12.05-27.88-26.85,12.5-26.84,27.88-26.84m0-2c-16.48,0-29.88,12.94-29.88,28.84s13.4,28.85,29.88,28.85,29.88-12.94,29.88-28.85-13.4-28.84-29.88-28.84Z" transform="translate(787.62 173.4)"/><path class="b" d="M189.56,481a13.78,13.78,0,1,1-13.78,13.78A13.79,13.79,0,0,1,189.56,481m0-5a18.78,18.78,0,1,0,18.78,18.78A18.8,18.8,0,0,0,189.56,476Z" transform="translate(787.62 173.4)"/><circle class="b" cx="977.18" cy="668.18" r="10.81"/><text class="w" transform="translate(944.9 441.16)">The number of base stations located on the <tspan x="0" y="43.2">10-kilometer radius of each region is 2,421 in </tspan><tspan x="0" y="86.4">Sinu</tspan><tspan class="x" x="70.27" y="86.4">i</tspan><tspan x="76.57" y="86.4">ju, 120 in Hyesan and 20 in Rason.</tspan></text><text class="w" transform="translate(944.9 347.64)">각 지역 국경 10km 반경에 위치한 기지국은 <tspan x="0" y="43.2" xml:space="preserve">신의주 2421개, 혜산 120개, 라선 20개이다.  </tspan></text><text class="y" transform="translate(1034.7 724.92)">데이터 기반 단순 추정치임</text><text class="z" transform="translate(1034.7 693.99)">4,363</text><text class="aa" transform="translate(2544.02 1113.82)">Source<tspan x="-326.08" y="21.6">OpenGPS </tspan><tspan class="ab" x="-242.51" y="21.6">Mobile Phone Base Station search</tspan><tspan x="-343.11" y="43.2">https://www.opengps.cn/Data/Cell/Region.aspx</tspan></text><text class="ac" transform="translate(946.92 582.72)">북중국경 10km 내 위치한 기지국</text><text class="ad" transform="translate(947.67 612.64)">No. of connec<tspan class="ae" x="131.25" y="0">t</tspan><tspan x="139.65" y="0">able </tspan><tspan class="af" x="189.12" y="0">b</tspan><tspan x="199.89" y="0">ase s</tspan><tspan class="ag" x="250.24" y="0">ta</tspan><tspan class="ah" x="268.89" y="0">tion</tspan></text></g></svg>