<svg xmlns="http://www.w3.org/2000/svg" viewBox="0 0 5214.04 1085.02"><defs><style>.a,.f,.g,.h,.i,.j,.k,.l{fill:#fff;}.b{opacity:0.95;}.c{fill:#1e1e1e;}.d{font-size:24px;font-family:KCC-KP-KwangMyeong-Medium-KP-2011KPS, KP KwangMyeong;}.e{font-size:18px;font-family:MapoGoldenPier-KSCpc-EUC-H, MapoGoldenPier;}.f{font-size:67.05px;}.f,.g,.h,.i,.j,.k,.l{font-family:KCC-KP-KwangMyeong-Bold-KP-2011KPS, KP KwangMyeong B;}.g{font-size:50.48px;}.h{font-size:36px;}.i{font-size:22.38px;}.j{font-size:27px;}.k{font-size:44.35px;}.l{font-size:39.65px;}</style></defs><path class="a" d="M1606.84,308.24v-204h198v223c-5.87-.61-11.73-1.61-17.61-1.71-4.14-.07-8.77.16-12.32,2-3.15,1.6-5.13,2.2-8,.08-8.92-6.66-17.94-13.2-26.8-19.69.71-11,5.14-21.61,2.41-32.84a97.73,97.73,0,0,0-4.92,10.38c-1.15,2.57-2.74,3.24-4.85.76s-4.45-5-7-7.93c2.26-.6,4.34-1,6.32-1.71,4.19-1.47,7.93-3.61,8.33-8.59a4,4,0,0,0-2.35-3.09c-5.64-1.16-9.82,1.65-13.72,5.39-1.29,1.23-3.44,2.48-5,2.31-7.06-.76-14-2.45-21.09-3-14.7-1.23-25.15-9-29.61-23.09-.56-1.77-.17-3.94.16-5.86.5-2.88,2.2-3.41,4.72-2,5.49,3.12,10.48,6.28,13,12.88,3,8,14.34,11.59,22,7.7,1.63-.82,2.64-2.88,3.94-4.37l-.72-1.67c-3.75,0-7.57.48-11.21-.14-3.49-.59-6.79-2.32-10.08-3.51l4-7-5.23-1.19c3.69-4,23.18-3.54,26.67.71-1.66.34-3.06.64-4.47.9s-2.73.47-3.49.59c1.69,1.07,3.66,2.26,5.57,3.53,2.16,1.44,7.12-.55,8.83-3.74,1.56-2.89-.1-4.49-2.67-5.17-5.24-1.39-10.49-3-15.84-3.66-4.5-.53-9.14.4-13.71.34-1.28,0-2.54-1.23-3.81-1.9,1-1.23,1.77-2.89,3.06-3.56a6.64,6.64,0,0,1,4.41-.12c7.6,2.07,14.82-.69,21.84-2.4,5-1.22,6.3.81,7.68,4.22.49,1.2.1,2.91.81,3.85a21.88,21.88,0,0,0,5.23,5c.52.34,3.28-1.21,3.34-2a29.67,29.67,0,0,0-.87-7.39c-.09-.54-1-.88-1.35-1.43-2.41-3.88-4.78-7.79-7.08-11.57-3.87-2.77-7.93-5.69-12-8.63.87-7.49,1.4-7.62,8.68-4.65a51.34,51.34,0,0,0,11,2.75c1,.17,2.28-1.2,3.43-1.87-.92-1-1.68-2.34-2.82-2.94A19.78,19.78,0,0,0,1727,201l.21-1.11,16.56,3c-1.3-2.46-1.75-4.72-3.12-5.69-5.24-3.7-11-6-17.7-5.27-1.29.14-2.69-.69-4-1.07.8-1.29,1.55-2.62,2.43-3.86a11.34,11.34,0,0,1,2.06-1.58h-12.53c2.52-.67,5-1.67,7.55-1.92,5-.49,10-.55,15-.79a25.42,25.42,0,0,0-9.1-2.9c-7.06-.88-10.92.89-13.34,5.75-3.32,6.62-3.32,6.62-12.82,5.31-.65-6.1-5.89-4.87-9.24-6,.7,1.59,1.45,3.27,2.19,5-1.95.16-3.9.4-5.85.46-2.64.09-5.29.06-7.93.07h-10.12l-.46-1.67-4.36,5.45c-1.88-1.06-3.72-1.68-5-2.91s-2.48-3.11-2.14-4.25a107,107,0,0,1,6.22-17c1.73-3.45,5.41-5.87,7.51-9.2,6.65-10.56,16.47-15,28.38-14.25,12.1.76,24.13,2.55,36.17,4.09A11.94,11.94,0,0,1,1739,153c11,8.54,18.7,19.25,20.93,33.36.62,3.94,1.37,7.86,2.09,12l-5.48-1.06c5.48,7.1,4,13.86,2.58,20.71-.48,2.3-.07,4.78-.07,7.18l1.63.76c1.85-2.09,4.81-4,5.25-6.34s-1.49-5.44-2.51-8.59c.32-.05,2.42-.66,2.6-.3,1.32,2.57,2.24,5.35,3.67,9,1.06-2.73,2.35-4.63,2.46-6.6.16-3-.49-6.12-.79-9.19-2.38,1.11-4.77,2.23-7.16,3.33-.12.06-.31,0-.9-.12a24.69,24.69,0,0,1,.91-2.64c3.79-8,6.94-16.11,7.53-25.16.67-10.13-1.78-19.67-4.25-29.26-.23-.89-1.2-1.55-1.71-2.4-1.08-1.78-2.07-3.62-3.11-5.43-1.84-3.19-3.11-6.36-7.8-7.23-4.26-.8-8.14-3.68-12.17-5.7-.39-.19-.52-.85-.86-1.2a11.33,11.33,0,0,0-2.57-2.43c-11.59-5.9-24.24-7.41-36.92-7.82-6.91-.23-14-.68-20.46,4.26-6.2,4.71-13.76,7.59-20.64,11.44a6.82,6.82,0,0,0-2.8,3.31c-2.59,7.05-5.23,14.1-7.36,21.29a61,61,0,0,0,.3,35.8,23.22,23.22,0,0,1,.39,4.6l-4.84-.66c1.15,7.72-2.23,16.43,8.51,21.08l1.9-22.39,1.32.07.44,4c-.33-5.54,3.91-5.11,6.67-4.32,3.28.94,7.09,2.73,8.9,5.36,2.21,3.22,4.77,3.55,7.57,3.07,4.32-.75,8.5-2.24,13-3.49v3.49l1.62.51c.77-2.36,2.16-4.72,2.17-7.08,0-3.4,0-5.95,4.42-6s4.8,2.8,4.31,6c-.46,3-.41,5.53,2.39,7.52.76.54.85,2,1.24,3.11,1.63,2.15,3.57,4.14,4.79,6.5.87,1.67.78,3.84,1.12,5.79-1.44.05-2.89.2-4.33.12-6.55-.33-13.11-.69-19.66-1.15a39.05,39.05,0,0,1-4.87-.93,52.43,52.43,0,0,1,2.36-4.89,33.59,33.59,0,0,1,2.86-3.59,34.77,34.77,0,0,0-7.13,4.18c-1.17.8-3.4,1.18-3.59,2.08-1.77,8.37-9.09,7.46-14.64,8.2-3.75.51-5.12,1.91-5.46,4.92-.31,2.78.09,5.64,0,8.46s-.44,5.36-.69,8.21l-3.79-2.34c-.49,1.14-1.44,2.32-1.36,3.42a40.37,40.37,0,0,0,1.44,8.32c.89,3.08.23,5.42-1.24,8.33-5,9.9-12.32,18.77-11.94,31,.22,6.75-6.16,9.45-11.68,10.36C1624.76,307.33,1615.76,307.52,1606.84,308.24Zm87.66-124.67c-3.09-6.09-15.53-7.25-20.69-2.58ZM1752.32,194c-.71-.06-3.08-.46-3.14-.24-.72,2.71-1.1,5.51-1.46,7.62C1749,199.35,1750.42,197,1752.32,194Z"/><path d="M1711.35,208.91l12,8.61c2.3,3.78,4.67,7.69,7.08,11.57.35.55,1.26.89,1.35,1.43a29.67,29.67,0,0,1,.87,7.39c-.06.79-2.82,2.34-3.34,2a21.88,21.88,0,0,1-5.23-5c-.71-.94-.32-2.65-.81-3.85-1.38-3.41-2.67-5.44-7.68-4.22-7,1.71-14.24,4.47-21.84,2.4a6.64,6.64,0,0,0-4.41.12c-1.29.67-2.06,2.33-3.06,3.56,1.27.67,2.53,1.89,3.81,1.9,4.57.06,9.21-.87,13.71-.34,5.35.62,10.6,2.27,15.84,3.66,2.57.68,4.23,2.28,2.67,5.17-1.71,3.19-6.67,5.18-8.83,3.74-1.91-1.27-3.88-2.46-5.57-3.53.76-.12,2.13-.34,3.49-.59s2.81-.56,4.47-.9c-3.49-4.25-23-4.74-26.67-.71l5.23,1.19-4,7c3.29,1.19,6.59,2.92,10.08,3.51,3.64.62,7.46.14,11.21.14l.72,1.67c-1.3,1.49-2.31,3.55-3.94,4.37-7.71,3.89-19,.26-22-7.7-2.49-6.6-7.48-9.76-13-12.88-2.52-1.44-4.22-.91-4.72,2-.33,1.92-.72,4.09-.16,5.86,4.46,14.06,14.91,21.86,29.61,23.09,7.06.59,14,2.28,21.09,3,1.6.17,3.75-1.08,5-2.31,3.9-3.74,8.08-6.55,13.72-5.39a4,4,0,0,1,2.35,3.09c-.4,5-4.14,7.12-8.33,8.59-2,.69-4.06,1.11-6.32,1.71,2.59,2.91,4.87,5.37,7,7.93s3.7,1.81,4.85-.76a97.73,97.73,0,0,1,4.92-10.38c2.73,11.23-1.7,21.86-2.41,32.84,8.86,6.49,17.88,13,26.8,19.69,2.84,2.12,37.9,21,37.9,31.62H1605.05L1602.33,308s22.43-.68,31.22-2.14c5.52-.91,11.9-3.61,11.68-10.36-.38-12.27,7-21.14,11.94-31,1.47-2.91,2.13-5.25,1.24-8.33a40.37,40.37,0,0,1-1.44-8.32c-.08-1.1.87-2.28,1.36-3.42l3.79,2.34c.25-2.85.59-5.52.69-8.21s-.3-5.68,0-8.46c.34-3,1.71-4.41,5.46-4.92,5.55-.74,12.87.17,14.64-8.2.19-.9,2.42-1.28,3.59-2.08a34.77,34.77,0,0,1,7.13-4.18,33.59,33.59,0,0,0-2.86,3.59,52.43,52.43,0,0,0-2.36,4.89,39.05,39.05,0,0,0,4.87.93c6.55.46,13.11.82,19.66,1.15,1.44.08,2.89-.07,4.33-.12-.34-1.95-.25-4.12-1.12-5.79-1.22-2.36-3.16-4.35-4.79-6.5Zm17.41,91.84c-2.34,1.2-4.07,2.24-5.92,3-2.49,1-5.08,1.82-7.63,2.7-1.47.5-3,1-4.43,1.47a27.4,27.4,0,0,0,2,4.62c1.09,1.63,2.74,2.87,3.87,4.48.77,1.1,1.74,2.71,1.46,3.77-1.27,4.68,2.76,6.31,4.49,9.3.22-2.34-1.12-5-.29-6.45C1726.29,317,1729,310.05,1728.76,300.75Z"/><path d="M1711.37,208.84c-.39-1.07-.48-2.57-1.24-3.11-2.8-2-2.85-4.52-2.39-7.52.49-3.21.23-6.07-4.31-6s-4.39,2.62-4.42,6c0,2.36-1.4,4.72-2.17,7.08l-1.62-.51V201.3c-4.52,1.25-8.7,2.74-13,3.49-2.8.48-5.36.15-7.57-3.07-1.81-2.63-5.62-4.42-8.9-5.36-2.76-.79-7-1.22-6.67,4.32l-.44-4-1.32-.07L1655.4,219c-10.74-4.65-7.36-13.36-8.51-21.08l4.84.66a23.22,23.22,0,0,0-.39-4.6,61,61,0,0,1-.3-35.8c2.13-7.19,4.77-14.24,7.36-21.29a6.82,6.82,0,0,1,2.8-3.31c6.88-3.85,14.44-6.73,20.64-11.44,6.49-4.94,13.55-4.49,20.46-4.26,12.68.41,25.33,1.92,36.92,7.82a11.33,11.33,0,0,1,2.57,2.43c.34.35.47,1,.86,1.2,4,2,7.91,4.9,12.17,5.7,4.69.87,6,4,7.8,7.23,1,1.81,2,3.65,3.11,5.43.51.85,1.48,1.51,1.71,2.4,2.47,9.59,4.92,19.13,4.25,29.26-.59,9-3.74,17.15-7.53,25.16a24.69,24.69,0,0,0-.91,2.64c.59.09.78.18.9.12,2.39-1.1,4.78-2.22,7.16-3.33.3,3.07,1,6.15.79,9.19-.11,2-1.4,3.87-2.46,6.6-1.43-3.68-2.35-6.46-3.67-9-.18-.36-2.28.25-2.6.3,1,3.15,3,6.09,2.51,8.59s-3.4,4.25-5.25,6.34l-1.63-.76c0-2.4-.41-4.88.07-7.18,1.43-6.85,2.9-13.61-2.58-20.71l5.48,1.06c-.72-4.09-1.47-8-2.09-12-2.23-14.11-9.89-24.82-20.93-33.36a11.94,11.94,0,0,0-5.42-2.4c-12-1.54-24.07-3.33-36.17-4.09-11.91-.75-21.73,3.69-28.38,14.25-2.1,3.33-5.78,5.75-7.51,9.2a107,107,0,0,0-6.22,17c-.34,1.14,1,3.16,2.14,4.25s3.09,1.85,5,2.91l4.36-5.45.46,1.67h10.12c2.64,0,5.29,0,7.93-.07,2-.06,3.9-.3,5.85-.46-.74-1.69-1.49-3.37-2.19-5,3.35,1.09,8.59-.14,9.24,6,9.5,1.31,9.5,1.31,12.82-5.31l-.1-.13h12.52a11.34,11.34,0,0,0-2.06,1.58c-.88,1.24-1.63,2.57-2.43,3.86,1.34.38,2.74,1.21,4,1.07,6.67-.71,12.46,1.57,17.7,5.27,1.37,1,1.82,3.23,3.12,5.69l-16.56-3L1727,201a19.78,19.78,0,0,1,4.67,1.21c1.14.6,1.9,1.93,2.82,2.94-1.15.67-2.42,2-3.43,1.87a51.34,51.34,0,0,1-11-2.75c-7.28-3-7.81-2.84-8.68,4.65C1711.35,208.91,1711.37,208.84,1711.37,208.84Z"/><path d="M1694.5,183.57,1673.81,181C1679,176.32,1691.41,177.48,1694.5,183.57Z"/><path d="M1711,185.5c2.42-4.86,6.28-6.63,13.34-5.75a25.42,25.42,0,0,1,9.1,2.9c-5,.24-10,.3-15,.79-2.55.25-5,1.25-7.55,1.92Z"/><path d="M1752.32,194c-1.9,3.05-3.34,5.37-4.6,7.38.36-2.11.74-4.91,1.46-7.62C1749.24,193.52,1751.61,193.92,1752.32,194Z"/><path class="a" d="M1728.76,300.75c.21,9.3-2.47,16.21-6.42,22.89-.83,1.41.51,4.11.29,6.45-1.73-3-5.76-4.62-4.49-9.3.28-1.06-.69-2.67-1.46-3.77-1.13-1.61-2.78-2.85-3.87-4.48a27.4,27.4,0,0,1-2-4.62c1.48-.49,3-1,4.43-1.47,2.55-.88,5.14-1.69,7.63-2.7C1724.69,303,1726.42,302,1728.76,300.75Z"/><path d="M629.83,880.35c15.47-5,31-9.73,46.32-15.12,3-1.05,5.21-4.51,7.63-7s3.19-5.22,2-9.24c-3.56-12.45-3.07-25.32-2.12-38.13.32-4.31.62-8.63,1-14,.94,1.18,1.53,1.57,1.51,1.93-.33,6.8,3.86,11.7,6.57,17.38,2.6,5.45,2.76,12.07,3.93,18.19,2.11,11.09,6.32,21.22,13.61,29.92,1,1.16,2.68,1.78,4.15,2.4,3.57,1.51,7.17,3,10.84,4.24,2.49.86,5.7,2.57,7.58,1.7,5.41-2.51,10.21-1.18,15.31.33.83.24,2.16-.73,3.09-1.38,2.14-1.53,4.19-3.21,6.27-4.83l1.16,1.09c-1.91,2.43-3.86,4.82-5.7,7.3-.75,1-2,2.8-1.72,3.17a7.48,7.48,0,0,0,3.82,2.56c2.91.69,6,.78,8.92,1.33a34.63,34.63,0,0,1,4.76,1.61l-.08,1.22-5,1.58,2.64,4.37L760,895.52c1.17,1.7,2.42,3.5,3.64,5.31,2.79,4.16,4.81,8.24.92,13-1.78,2.2-1.49,4.66,0,7.46,7.15,13.39,14,27,20.88,40.46H745.64c.21-11.9-.24-23.86.88-35.67.55-5.76-.25-9.88-4.67-13.27-2.22-1.7-2.23-3.51-1-5.81,2-3.8,3.79-7.69,5.79-11.8-19.13-3.89-36.08-11.24-49.55-25.52,3.85,8.84,8.43,17.11,12.11,25.77,9.36,22,18.31,44.19,27.42,66.3H629.83Zm64.39-37.22c1-6.32-.88-11.57-3.38-16.65-.45-.92-1.56-1.51-2.36-2.25-.48,1.11-1.6,2.41-1.33,3.3,1.42,4.85,3.15,9.62,4.89,14.37C692.22,842.38,693.19,842.57,694.22,843.13Z"/><path d="M815.31,961.78c-3.12-11.9-6-23.85-9.41-35.68-3.4-12-7.52-23.8-10.74-35.84-1.88-7-2.62-14.31-4-22.47L856,890.3v71.48Z"/><path class="a" d="M736.6,961.78c-9.11-22.11-18.06-44.29-27.42-66.3-3.68-8.66-8.26-16.93-12.11-25.77,13.47,14.28,30.42,21.63,49.55,25.52-2,4.11-3.8,8-5.79,11.8-1.21,2.3-1.2,4.11,1,5.81,4.42,3.39,5.22,7.51,4.67,13.27-1.12,11.81-.67,23.77-.88,35.67Z"/><path d="M812.46,745.86l-9.74-4.94c.67,4.7,1.13,7.91,1.59,11.12l-1.57.61c-1.14-1.6-3-3.08-3.3-4.82-1.45-9.23-8.1-14.09-15.17-18.45-10.54-6.49-22-7.76-34.21-6.15-7.87,1-15.93.62-23.87,1.24-11.2.89-21.62,6.25-24.28,16.51-2.71,10.46-9.87,17.64-13.24,27.38,1.35-1.27,3.12-2.3,4-3.84,2.44-4.34,6.29-5.12,10.71-5.16,3.68,0,7.36-.35,11-.48a2.34,2.34,0,0,1,1.62.48c3.33,3.54,6.67,7.07,9.81,10.78.53.63.1,2.07.12,3.14-.92-.43-1.81-.89-2.74-1.27-3.11-1.28-6.14-3.26-9.35-3.63a86.11,86.11,0,0,0-17.14-.2c-2.47.21-4.78,2.35-7.15,3.64-.71.38-1.73,1.33-2,1.14a3.93,3.93,0,0,1-1.57-2.27c-.34-2-.36-4.13-.5-6.2,2.45-5.84,8.89-9.74,8.68-17l-3.57-.3c.9-3.35,1.71-6.32,2.52-9.31-3.15-.62-5.25,1.39-6.18,4.41a148.93,148.93,0,0,0-4.4,17.32c-.25,1.36,2,3.17,3.12,4.77-.58,4.24-2.67,8.43.5,12.71.71,1-.38,3.26-1.12,4.94-2.41-11.06-6.72-21.79-4.14-33.47.77-3.5.92-7.13,1.56-10.66,1.41-7.81,7.44-12.87,11.58-19a30,30,0,0,0,3.93-7.34,15.67,15.67,0,0,1,11.85-10.56c8.95-2,17.79-3.81,27.08-3,8.09.68,13,5.4,13.45,13.53.07,1.27,2,2.59,3.24,3.6a55.94,55.94,0,0,0,5.27,3.31c.34-1,.92-2.81,1.58-4.85l4.87,1.28c5.1-6.47-.41-10.68-3.58-15.16,6.34-3.79,10.62-1.32,12.22,5.85L770.18,700l-.83,1.81-1,13.06c4.3-.19,8.67.09,12.77-.8,1.81-.39,3.1-3.18,4.57-4.81v5.06h6.2l.66,2.49c.3.06.62.24.82.15,1.77-.78,2.75-1.82,3.47,1.58.34,1.59,5.33,2.94,8.27,3.09,7.13.35,7.9.55,10.7,7.56l-13.7-3.25-.37,1.31,4.19,1.32-2.26,2.52,10.83,3a23.6,23.6,0,0,0,.83,3.4c.75,1.71,1.63,3.36,2.46,5-3.18-2.49-5.92-5.83-10.72-5.64C812.81,737.71,810.31,743.18,812.46,745.86Z"/><path d="M707.43,825.35c4.69-.61,9.15-1.92,13.5-1.6,8.23.6,16.82-.29,24.38,4.42,2.53,1.58,5.53,2.39,8.09,3.92,1.3.77,2.11,2.37,2.87,3.29-3.39,1.23-6,2.37-8.74,3.13a22.26,22.26,0,0,1-6.74,1c-4.95-.23-9.86-1-14.81-1.28-1.87-.11-3.79.54-5.65.84-.37,5.2,2.35,8.57,8.59,10,3.91.88,8,1.09,12.41,1.65-2,3.18-3.74,6.4-8.48,6-3.29-.28-6.61-.26-9.89-.63-5.64-.63-11.41-8.62-9.78-13.92.47-1.55,3.32-2.52,1-4.57-1.46-1.26-3.28-2.11-4.79-3.32a4.55,4.55,0,0,1-1.83-2.52A56.35,56.35,0,0,1,707.43,825.35ZM729,827.6c-4.7.87-8.77,1.39-12.68,2.49-1.11.31-1.75,2.3-2.61,3.51,1.14.78,2.23,2.14,3.43,2.24,9.08.75,18.17,1.34,27.26,1.69,1.18.05,2.43-1.6,3.64-2.47-.82-.92-1.47-2.35-2.48-2.67C740,830.62,734.36,829.12,729,827.6Z"/><path d="M818,742.93c7.69,4.56,5.29,11.86,4.22,18.18-1.23,7.36-3.82,14.49-5.92,21.69a4.25,4.25,0,0,1-1.71,2.44c-2.52,1.31-5.18,2.34-7.46,3.33L784,781.17l.31-1.16,21,5.78c-2.47-5-.84-14.73,2.86-17.85.91-.77,1.2-2.4,1.53-3.69.48-1.85.72-3.75,1.22-6.48,1,1.56,1.5,2.39,2,3.21,3.23-4.79,3.35-9.83.33-13.79C817.77,748.57,818.74,747.68,818,742.93Z"/><path d="M716.63,786.3c-8.86,2.66-17.75,5.28-25.85-2.85L689,789.08h-.7V775l2.25,3.53,5.3-6.08v5.52c10.6-6.78,19.52-2.72,28.77,2.38l-2.87,3.47c-6.52-3.19-13-2.59-20.54-.65C706.34,788,711.8,785.18,716.63,786.3Z"/><path d="M740.36,773.47c3.56-6,15.87-11.9,22.23-10.77,2.32.41,4.64.85,7,1.11,7.8.86,11.27,5.39,10,13.24C767.31,768.17,754.14,769.28,740.36,773.47Z"/><path d="M779.22,787.15l-27.94-3.56c.46,2.31.67,3.33.88,4.35l-.89.95a98.52,98.52,0,0,1-8.24-6.2c-.2-.18,1.65-4,2.92-4.26,7.51-1.52,15.21-2.8,22.38,1.24C772,781.72,775.23,784.38,779.22,787.15Z"/><path d="M748,812.26c-1.74.88-3.1,2.09-4.57,2.24-5.83.6-11.7.86-17.55,1.26a13.14,13.14,0,0,0-3.09.39c-4.06,1.3-6.63-.21-8.22-4-2.28-5.44-2.32-5.43-7-1.48-.22-4.1,1.23-6.69,6.07-7.4.48,5.67,5.1,5.08,9,6.65C730.85,813.25,739.24,809.11,748,812.26Z"/><path class="a" d="M685.67,764.35c-1.11-1.6-3.37-3.41-3.12-4.77a148.93,148.93,0,0,1,4.4-17.32c.93-3,3-5,6.18-4.41-.81,3-1.62,6-2.52,9.31l3.57.3c.21,7.29-6.23,11.19-8.68,17Z"/><path class="a" d="M818,742.93c.79,4.75-.18,5.64-4.65,4.26l-.85-1.33c-2.14-2.68.36-8.15-5.37-9,4.8-.19,7.54,3.15,10.72,5.64C817.85,742.62,817.9,742.76,818,742.93Z"/><path d="M710.23,801.11l-21.74,1.15,2.16-1.9L685,789.66l1.24-.9C688.88,802.53,699.71,800.42,710.23,801.11Z"/><path d="M750.66,807.28c8.69,1.93,6,10.76,10.51,14.83l-1,.7Z"/><path d="M813.91,799a19.86,19.86,0,0,1-1.29-3.1,28.67,28.67,0,0,1-.45-4.43,7.21,7.21,0,0,1,1.87-.37,31.54,31.54,0,0,1,1.09,4.88C815.2,796.53,814.66,797.19,813.91,799Z"/><path d="M758.06,789.27l10,1.43-.26,1.56-9.94-1.9Z"/><path class="a" d="M694.22,843.13c-1-.56-2-.75-2.18-1.23-1.74-4.75-3.47-9.52-4.89-14.37-.27-.89.85-2.19,1.33-3.3.8.74,1.91,1.33,2.36,2.25C693.34,831.56,695.21,836.81,694.22,843.13Z"/><path class="a" d="M729,827.6c5.38,1.52,11,3,16.56,4.79,1,.32,1.66,1.75,2.48,2.67-1.21.87-2.46,2.52-3.64,2.47-9.09-.35-18.18-.94-27.26-1.69-1.2-.1-2.29-1.46-3.43-2.24.86-1.21,1.5-3.2,2.61-3.51C720.21,829,724.28,828.47,729,827.6Z"/><path class="a" d="M3807.5,303.31V137.64h206.86V300.22c-13.52-5.33-27.09-10.56-40.54-16.06-4-1.62-5.4-.11-7.44,3.19a135.26,135.26,0,0,1-13.2,17.91c-1.77,2-6.09,1.72-8.06,3.68-5.78,5.78-13,5-20.85,6.23l8.35-7.91-.83-1c-1.33.61-2.7,1.16-4,1.85a30.93,30.93,0,0,1-33.67-3.53c-4.4-3.72-10.1-6.44-13.22-11-4.74-6.88-8.54-14.56-7.95-23.73.18-2.81-1.92-6.51-4.14-8.46-1.38-1.21-6.76-.7-7.26.42-2.43,5.43-9,9.43-6.37,16.83a70,70,0,0,1,1.86,8.29c-5.55,2.13-10.58,4.32-15.77,6C3830.07,296.52,3818.76,299.86,3807.5,303.31Zm159.56-100c0-5.92-.12-10.37,0-14.81s.63-8.88.91-13.33c.8-12.82-10.59-24.64-23.39-23.6-10,.81-19.85,2.3-30,1.67-15.86-1-31.79-.52-47.69-.95-7-.18-13.88,3.63-15,9.71-2.62,13.65-.9,27.25,1,40.82.46,3.22,2.75,3.89,4.72,2.34,2.51-2,5.9-4.77,6.06-7.39.57-9.12,5.07-14,13.5-16.33,3.24-.91,6.11-3.22,9.36-4.05a88.65,88.65,0,0,1,13.79-2.11,61.52,61.52,0,0,1,9.69.15,132,132,0,0,1,14.08,1.34c4.53.81,8.88,2.55,13.38,3.5,9.87,2.09,11.69,4.12,13.2,14.13.31,2.08,1.71,5,3.38,5.67C3957.85,201.7,3962.12,202.18,3967.06,203.33Zm-53.73,29.47c-.3-9.65.71-11.39,9.48-12.52,6.51-.84,13.21-.48,19.81-.19,1.86.08,3.65,1.79,5.48,2.74l-.61,1.54-6.12-1.41.65,1.4c-1.45.9-2.87,2.53-4.36,2.59-5.24.22-10.49-.17-15.74-.16a15.49,15.49,0,0,0-3.85,1c.47,1.73.55,3.76,1.57,5.07.56.74,2.74.58,4.08.29,4.31-.93,8.53-2.81,12.86-3,6.05-.3,11.49,1.15,16.82-4.83,2.85-3.19,10.64-2,15.95-2.71-2.33-5.24-2.67-5.55-9.26-3.89-2.18.55-4.06,2.24-6.18,3.18-.88.38-2.68.53-2.92.13a12.72,12.72,0,0,1-.88-3.79c-3.08-.56-6-.72-8.75-1.64-9.29-3.17-18.26-4.77-26.2,3.13a5.12,5.12,0,0,1-1.79.85c-7.76,3.08-14.61,1-21.57-3a19.43,19.43,0,0,0-11-2.31c-4.43.44-8.65,2.74-13,4a80,80,0,0,1-7.89,1.53l-3.76,6.86,7.49,7.07c2.36-13.14,5.7-15.38,20.64-14.66,5.36.27,9,3.57,9.39,9-5-.72-10-1.2-14.88-2.22-3.64-.77-10.29,2-13.08,6.27,7.27-.38,14.33-.83,21.39-1.09,1.95-.07,4.51-.27,5.77.79,4,3.35,7.24,3.77,10.32-.87a7.68,7.68,0,0,0,.41-.81l-.93,0c-.13-1.6-.25-3.21-.38-4.81,1.51.07,3,.11,4.51.25.49,0,1.11.65,1.39.49C3914,223.83,3912.2,229,3913.33,232.8Zm-3.64,61.74c-2.54-5.83-10.94-6.55-11.15-13.38l4.92-.93-5.45-5.14,9.08-1.1.33-1.91c-2.34-.7-4.66-1.85-7-2s-5.09.72-8.23,1.24c.84-4.61,1.77-7,6.37-6.76,3.15.18,6.4-1.31,9.61-2l0-1.7c-3.45-1.21-6.83-3-10.38-3.5-4.06-.58-7.32-.95-5.1-6.83-4.14,2.88-8.81,18.05-7.3,21.69a1.2,1.2,0,0,0,.25.44c5,4.48,5.53,10.7,6.72,16.77,1.24,6.32,4.94,8.14,11.13,6.25A62.09,62.09,0,0,1,3909.69,294.54Zm-60.59-41.83c5.22-6.08,1.83-12.66,2.22-18.78.08-1.27-2.4-2.74-3.84-4-.08-.07-2,1.3-2.12,2.13C3844.38,239.27,3845,246.18,3849.1,252.71Zm76.57-2.93-2.09,1.32c3.2,6.54,6.34,13.11,9.68,19.58.37.7,1.85.82,2.82,1.21.31-1.06,1.22-2.46.84-3.13C3933.3,262.36,3929.45,256.09,3925.67,249.78Zm-10.29,22.32-.1.57,7.47,1.78-2.23,5.5c2.23-.29,4-.13,5.27-.82,1-.54,1.46-2.14,2.17-3.26-1.53-.86-3-2.06-4.6-2.5A72.85,72.85,0,0,0,3915.38,272.1Z"/><path class="b" d="M3806.07,303.84c11.26-3.45,24-7.32,35.21-10.92,5.19-1.67,10.22-3.86,15.77-6a70,70,0,0,0-1.86-8.29c-2.61-7.4,3.94-11.4,6.37-16.83.5-1.12,5.88-1.63,7.26-.42,2.22,1.95,4.32,5.65,4.14,8.46-.59,9.17,3.21,16.85,7.95,23.73,3.12,4.54,8.82,7.26,13.22,11a30.93,30.93,0,0,0,33.67,3.53c1.29-.69,2.66-1.24,4-1.85l.83,1-8.35,7.91c7.81-1.24,15.07-.45,20.85-6.23,2-2,6.29-1.66,8.06-3.68a135.26,135.26,0,0,0,13.2-17.91c2-3.3,3.47-4.81,7.44-3.19,13.45,5.5,27,10.73,40.54,16.06v94.71H3901.15c5.49-15.54,11-31.08,16.59-47l2.9,2.19q7.34-14.47,14.58-28.83l-1.11-1.49c-7.91,3.2-15.79,6.49-23.77,9.53a6.73,6.73,0,0,1-4.49-.15c-12-4.81-24.06-9.74-34.4-19.89l5.29,29.33-4.86-2c-2.57,9.33-.25,17.87,2.27,26.43a15.2,15.2,0,0,1,.72,5.42c-.28,3.39-1.4,6.75-1.41,10.12,0,5.46.59,10.91.93,16.37h-65.68C3808.71,364.39,3806.07,334.38,3806.07,303.84Z"/><path class="b" d="M3874.39,394.93c-.34-5.46-.94-10.91-.93-16.37,0-3.37,1.13-6.73,1.41-10.12a15.2,15.2,0,0,0-.72-5.42c-2.52-8.56-4.84-17.1-2.27-26.43l4.86,2-5.29-29.33c10.34,10.15,22.35,15.08,34.4,19.89a6.73,6.73,0,0,0,4.49.15c8-3,15.86-6.33,23.77-9.53l1.11,1.49q-7.28,14.38-14.58,28.83l-2.9-2.19c-5.62,15.91-11.1,31.45-16.59,47h-18.52c9.88-8.71,17.21-39.65,10.41-45.47-2.14,2.84-4.86,5.42-6.2,8.58-.82,1.95.4,4.79.8,7.21.2,1.2,1,2.43.88,3.55-1,7.07-1.44,14.3-5.81,20.44a58.28,58.28,0,0,0-3.17,5.69Z"/><path d="M3879.54,394.93a58.28,58.28,0,0,1,3.17-5.69c4.37-6.14,4.81-13.37,5.81-20.44.15-1.12-.68-2.35-.88-3.55-.4-2.42-1.62-5.26-.8-7.21,1.34-3.16,4.06-5.74,6.2-8.58,6.8,5.82-.53,36.76-10.41,45.47Z"/><path d="M3967.06,203.33c-4.94-1.15-9.21-1.63-13-3.24-1.67-.71-3.07-3.59-3.38-5.67-1.51-10-3.33-12-13.2-14.13-4.5-.95-8.85-2.69-13.38-3.5a132,132,0,0,0-14.08-1.34,61.52,61.52,0,0,0-9.69-.15,88.65,88.65,0,0,0-13.79,2.11c-3.25.83-6.12,3.14-9.36,4.05-8.43,2.34-12.93,7.21-13.5,16.33-.16,2.62-3.55,5.43-6.06,7.39-2,1.55-4.26.88-4.72-2.34-1.94-13.57-3.66-27.17-1-40.82,1.16-6.08,8-9.89,15-9.71,15.9.43,31.83,0,47.69.95,10.18.63,20-.86,30-1.67,12.8-1,24.19,10.78,23.39,23.6-.28,4.45-.75,8.89-.91,13.33S3967.06,197.41,3967.06,203.33Z"/><path d="M3915.16,219.69c7.94-7.9,16.91-6.3,26.2-3.13,2.71.92,5.67,1.08,8.75,1.64A12.72,12.72,0,0,0,3951,222c.24.4,2,.25,2.92-.13,2.12-.94,4-2.63,6.18-3.18,6.59-1.66,6.93-1.35,9.26,3.89-5.31.74-13.1-.48-15.95,2.71-5.33,6-10.77,4.53-16.82,4.83-4.33.22-8.55,2.1-12.86,3-1.34.29-3.52.45-4.08-.29-1-1.31-1.1-3.34-1.57-5.07a15.49,15.49,0,0,1,3.85-1c5.25,0,10.5.38,15.74.16,1.49-.06,2.91-1.69,4.36-2.59l-.65-1.4,6.12,1.41.61-1.54c-1.83-1-3.62-2.66-5.48-2.74-6.6-.29-13.3-.65-19.81.19-8.77,1.13-9.78,2.87-9.48,12.52-1.13-3.83.63-9-5.21-5.73-.28.16-.9-.45-1.39-.49-1.5-.14-3-.18-4.51-.25.13,1.6.25,3.21.38,4.81l.93,0a7.68,7.68,0,0,1-.41.81c-3.08,4.64-6.33,4.22-10.32.87-1.26-1.06-3.82-.86-5.77-.79-7.06.26-14.12.71-21.39,1.09,2.79-4.29,9.44-7,13.08-6.27,4.88,1,9.87,1.5,14.88,2.22-.4-5.45-4-8.75-9.39-9-14.94-.72-18.28,1.52-20.64,14.66l-7.49-7.07,3.76-6.86a80,80,0,0,0,7.89-1.53c4.38-1.23,8.6-3.53,13-4a19.43,19.43,0,0,1,11,2.31c7,4,13.81,6.08,21.57,3a5.12,5.12,0,0,0,1.79-.85"/><path d="M3909.69,294.54a62.09,62.09,0,0,0-6.2,1.12c-6.19,1.89-9.89.07-11.13-6.25-1.19-6.07-1.68-12.29-6.72-16.77a1.2,1.2,0,0,1-.25-.44c-1.51-3.64,3.16-18.81,7.3-21.69-2.22,5.88,1,6.25,5.1,6.83,3.55.51,6.93,2.29,10.38,3.5l0,1.7c-3.21.74-6.46,2.23-9.61,2-4.6-.26-5.53,2.15-6.37,6.76,3.14-.52,5.71-1.37,8.23-1.24s4.7,1.27,7,2l-.33,1.91-9.08,1.1,5.45,5.14-4.92.93C3898.75,288,3907.15,288.71,3909.69,294.54Z"/><path d="M3849.1,252.71c-4.1-6.53-4.72-13.44-3.74-20.6.12-.83,2-2.2,2.12-2.13,1.44,1.21,3.92,2.68,3.84,4C3850.93,240.05,3854.32,246.63,3849.1,252.71Z"/><path d="M3925.67,249.78c3.78,6.31,7.63,12.58,11.25,19,.38.67-.53,2.07-.84,3.13-1-.39-2.45-.51-2.82-1.21-3.34-6.47-6.48-13-9.68-19.58Z"/><path d="M3915.38,272.1a72.85,72.85,0,0,1,8,1.27c1.64.44,3.07,1.64,4.6,2.5-.71,1.12-1.16,2.72-2.17,3.26-1.3.69-3,.53-5.27.82l2.23-5.5-7.47-1.78Z"/><polygon class="b" points="3942.32 315.17 3909.69 322.18 3868.02 300.15 3856.08 363.27 3933.77 360.97 3942.32 315.17"/><polygon points="2147.11 89.49 2147.11 39.8 2053.95 2.54 2032.21 191.98 1914.19 191.98 1777.55 334.83 1604.51 331.92 1610.1 554.6 1386.24 483.9 1330.34 390.74 1268.23 434.21 1100.53 707.51 527.81 1085.02 695.18 1085.02 1131.71 751.65 1280.47 445.73 1328.32 415.39 1376.74 518.91 1622.72 589.9 1635.58 366.55 1791.17 375.55 1916.52 215.39 2032.71 220.19 2075.92 42.63 2120.26 61.83 2136.16 108.34 2240.59 260.98 2247.77 246.35 2147.11 89.49"/><path d="M4449.71,246,4349.05,89.12V39.43L4255.88,2.16,4234.14,191.6h-118L3979.49,334.46l-173-2.92,5.6,222.68-223.86-70.69-55.9-93.17-62.11,43.48-167.7,273.29L2729.74,1085h985l519.62-348.49-23.8-243.92,184.42-238,47.59,6h0Z"/><polygon class="b" points="4529.46 89.11 4529.46 39.43 4436.3 2.16 4414.56 191.6 4296.54 191.6 4159.9 334.46 3986.86 331.54 3992.45 554.22 3768.59 483.52 3712.69 390.36 3650.58 433.84 3482.88 707.13 2910.16 1085.02 3077.53 1085.02 3514.06 751.27 3662.82 445.35 3710.66 415.01 3759.09 518.53 4005.07 589.52 4017.93 366.17 4173.52 375.17 4298.87 215.01 4415.06 219.81 4458.27 42.26 4502.6 61.45 4518.5 107.96 4622.94 260.6 4630.12 245.98 4529.46 89.11"/><polygon class="a" points="4502.6 61.45 4458.27 42.26 4415.06 219.81 4298.87 215.01 4173.52 375.17 4017.93 366.17 4005.07 589.52 3759.09 518.53 3710.66 415.01 3662.82 445.35 3514.06 751.27 3077.53 1085.02 3895.11 1085.02 4414.72 736.53 4390.92 492.61 4575.35 254.65 4622.94 260.6 4518.5 107.96 4502.6 61.45"/><path d="M5214,0h-420.7l-22.49,196.62h-118L4516.19,339.47l-173-2.91,5.6,222.67-223.86-70.69L4069,395.38l-62.12,43.47-167.7,273.3L3266.45,1085H5214Z"/><polygon class="b" points="2247.77 245.98 2240.59 260.6 2729.01 1085.02 2856.33 1085.02 2247.77 245.98"/><polygon class="a" points="2120.26 62.49 2075.92 43.3 2032.71 220.85 1916.52 216.05 1791.17 376.21 1635.58 367.21 1622.72 590.57 1376.74 519.58 1328.32 416.05 1280.47 446.39 1131.71 752.32 695.18 1085.02 1512.76 1085.02 2032.37 737.57 2008.57 493.66 2193 255.69 2240.59 261.64 2136.16 109 2120.26 62.49"/><path d="M1.29,777.66V682.27l9.3-9.3H49l9.3,9.3v23.55h-19v-12L37,691.57H22.59l-2.25,2.25v72.3l2.25,2.25H37l2.25-2.25v-12h19v23.54L49,787H10.59Z"/><path d="M89,673v47.1h21.44V673h19V787h-19V738.52H89V787H70V673Z"/><path d="M142.73,787V673h19.05V787Z"/><path d="M175,787V673h20.55l24.75,69.9V673h19.05V787H218.78L194,717.07V787Z"/><path d="M295.73,762.37h-23.4L267.23,787h-19.5l27-114h18.6l27,114h-19.5ZM292,743.92l-8-38.4-7.95,38.4Z"/><path d="M214.55,565.59H0V528.43H214.55Zm-14.12-47.32q-30.72-.74-53.14-5.94a146.35,146.35,0,0,1-39.77-15.12,285.67,285.67,0,0,1-45.46,15.36,187.15,187.15,0,0,1-45.71,5L3,482.1q13.87,0,22.92-.5a112.38,112.38,0,0,0,16.85-2.1,108.61,108.61,0,0,0,16.1-4.71q8.3-3.09,20.19-8.05H12.64V434.28H201.42v33.2H135c-.49.17-1,0-1.61-.62s-1.2-.37-1.86.62q12.15,4,20.82,7.06a154.17,154.17,0,0,0,17.21,5.08A130.72,130.72,0,0,0,188,482.47a236.36,236.36,0,0,0,24.28.62Zm5.95,102.57a32,32,0,0,1-4.84,17,38.4,38.4,0,0,1-12.14,11.77,64.38,64.38,0,0,1-17.09,7.31,150.65,150.65,0,0,1-19.94,4q-10.41,1.36-20.82,1.74t-19.32.37q-8.43,0-19.32-.37t-22.43-1.74a202,202,0,0,1-22.54-4,77.64,77.64,0,0,1-19.57-7.31,41.78,41.78,0,0,1-13.75-11.77,26.66,26.66,0,0,1-5-17,24,24,0,0,1,5.08-15.36,42,42,0,0,1,13.38-10.9,87.49,87.49,0,0,1,19.08-7.31,192.4,192.4,0,0,1,22.17-4.46q11.38-1.6,22.55-2.11t20.31-.49q14.61,0,30.85,1.24a135.68,135.68,0,0,1,30.1,5.57,64,64,0,0,1,23.16,12.39Q205.63,607.46,206.38,620.84Zm-40.64,0q0-6.93-13.62-9.79t-39.89-2.85q-11.15,0-21.31.62a155,155,0,0,0-17.71,2,39.68,39.68,0,0,0-12,3.84q-4.45,2.48-4.46,6.19a8.62,8.62,0,0,0,3.84,7.43q3.84,2.73,10.91,4.21a104.9,104.9,0,0,0,17.46,1.86q10.41.38,23.29.37,28.74,0,41.13-2.6T165.74,620.84Zm-82-78.78h46.08v59H83.74Z"/><path d="M471.22,555.68H253.45V513.07H471.22Zm-15.61,25v81.76h-44.1V621.58H266.08V580.7Zm-56.49-41.87a121.29,121.29,0,0,0,6.82-26.38q2.34-15.24,3.84-33.82H267.07V434.78H456.6q-.25,20.07-.5,33.2t-1.23,23.78a213.68,213.68,0,0,1-3.1,21.31q-2.11,10.65-6.07,25.76ZM337.43,520h46.08V586.4H337.43Z"/><path d="M8.5,357v19h8.66V357h7.7V403h-7.7V383.43H8.5V403H.8V357Z"/><path d="M30.19,403V357h7.69V403Z"/><path d="M58.18,370.22v-4.85l-.9-.91H51.4l-.91.91V375l.91.91H62.18l3.76,3.75v19.64L62.18,403H46.55l-3.76-3.75v-9.52h7.7v4.91l.91.91h5.88l.9-.91V384.22l-.9-.91H46.55l-3.76-3.76V360.71L46.55,357H62.18l3.76,3.76v9.51Z"/><path d="M93.39,364.4h-8.3V403h-7.7V364.4h-8.3V357h24.3Z"/><path d="M120,360.71v38.54L116.24,403H100.72L97,399.25V360.71l3.75-3.76h15.52Zm-8.66,3.75h-5.82l-.85.85V394.7l.85.85h5.82l.91-.85V365.31Z"/><path d="M125.33,403V357H145.2l3.76,3.76v20.6l-3.76,3.76L149,403h-7.58l-3.75-17.93H133V403Zm15.08-25.39.85-.91V365.31l-.85-.85H133v13.15Z"/><path d="M169.14,403H161.5V386.94L151,357h8.36l6,19.33,6-19.33h8.36l-10.54,30Z"/><path d="M220.64,360.71v38.54L216.89,403H201.37l-3.75-3.75V360.71l3.75-3.76h15.52ZM212,364.46h-5.82l-.85.85V394.7l.85.85H212l.91-.85V365.31Z"/><path d="M248,357v7.45H233.67v11.82h10.61v7.45H233.67V403H226V357Z"/><path d="M286.15,357l3.75,3.76v15l-3.75,3.75,3.75,3.76v16L286.15,403H266.58V357Zm-4.79,18.91.85-.91v-9.76l-.85-.91h-7v11.58Zm0,7.45h-7v12.18h7l.85-.91V384.16Z"/><path d="M317.9,360.71v38.54L314.14,403H298.63l-3.75-3.75V360.71l3.75-3.76h15.51Zm-8.66,3.75h-5.82l-.85.85V394.7l.85.85h5.82l.9-.85V365.31Z"/><path d="M323.23,403V357h19.88l3.76,3.76v20.6l-3.76,3.76L346.87,403h-7.58l-3.76-17.93h-4.6V403Zm15.09-25.39.85-.91V365.31l-.85-.85h-7.39v13.15Z"/><path d="M371.22,357l3.76,3.76v38.54L371.22,403H351.71V357Zm-4.9,38.54.85-.91V365.19l-.85-.91h-6.85v31.21Z"/><path d="M380.31,403V357h22.06v7.45H388v11.46h10.66v7.45H388v12.24h14.36V403Z"/><path d="M406.86,403V357h19.87l3.76,3.76v20.6l-3.76,3.76L430.49,403h-7.58l-3.75-17.93h-4.61V403Zm15.08-25.39.85-.91V365.31l-.85-.85h-7.39v13.15Z"/><path d="M449.88,403V357h19.57l3.76,3.76v20.6l-3.76,3.76H457.57V403Zm14.66-25.39.91-.91V365.31l-.91-.85h-7v13.15Z"/><path d="M477.69,403V357h19.88l3.75,3.76v20.6l-3.75,3.76L501.32,403h-7.57L490,385.07h-4.6V403Zm15.09-25.39.85-.91V365.31l-.85-.85h-7.39v13.15Z"/><path d="M529.2,360.71v38.54L525.44,403H509.93l-3.76-3.75V360.71l3.76-3.76h15.51Zm-8.67,3.75h-5.81l-.85.85V394.7l.85.85h5.81l.91-.85V365.31Z"/><path d="M557.07,364.4h-8.3V403h-7.69V364.4h-8.31V357h24.3Z"/><path d="M583.68,360.71v38.54L579.92,403H564.41l-3.76-3.75V360.71l3.76-3.76h15.51ZM575,364.46h-5.82l-.84.85V394.7l.84.85H575l.91-.85V365.31Z"/><path d="M589,399.25V360.71l3.76-3.76h15.51l3.75,3.76v9.51h-7.69v-4.85l-.91-.91h-5.82l-.91.91v29.21l.91.91h5.82l.91-.91v-4.85H612v9.52L608.28,403H592.77Z"/><path d="M639.79,360.71v38.54L636,403H620.52l-3.76-3.75V360.71l3.76-3.76H636Zm-8.67,3.75h-5.81l-.85.85V394.7l.85.85h5.81l.91-.85V365.31Z"/><path d="M666.27,403H645.12V357h7.76v38.6h13.39Z"/><path d="M72.86,302.49H.64V288.36H72.86Zm-5.17,8.3V337.9H53.06V324.35H4.83V310.79ZM49,296.9a39.85,39.85,0,0,0,2.26-8.75q.78-5,1.27-11.21H5.16V262.4H68c-.05,4.43-.11,8.1-.16,11s-.19,5.53-.41,7.88a68.82,68.82,0,0,1-1,7.07c-.46,2.36-1.14,5.2-2,8.54Zm-20.46-6.24H43.78v22H28.49Z"/><path d="M128.9,262.31a43.63,43.63,0,0,1-2.22,15.82,35.23,35.23,0,0,1-7.4,12.28,44.75,44.75,0,0,1-12.12,9.16A83.15,83.15,0,0,1,90.69,306l-6.24-12.57a29.42,29.42,0,0,0,5.34-1.31,59.6,59.6,0,0,0,6-2.38,56.94,56.94,0,0,0,5.88-3.13,41.38,41.38,0,0,0,5-3.53,20.16,20.16,0,0,0,3.49-3.61,5.38,5.38,0,0,0,1.24-3.37H89.05V262.31Zm25.22,60q0,8.79-10.11,12.57a46.6,46.6,0,0,1-9.4,2.51,67.42,67.42,0,0,1-11.63.78q-33.27-.07-33.28-15.86,0-8.7,11-12.81,9.21-3.47,22.27-3.37Q154.12,306.19,154.12,322.29Zm-14.62,0q0-5.18-16.52-5.17a49.1,49.1,0,0,0-11.5,1.23q-5.92,1.32-5.92,3.94,0,5.26,17.42,5.26Q139.5,327.55,139.5,322.29Zm6.9-41.49h-23v-12h23Zm.49,4.93v11.91H124.05V285.73Zm-7.48-25h14.05V305.7H139.41Z"/><path d="M244.17,260.67v3.53h12.24v11.59H215.17V264.12h13.64v-3.45Zm11.42,30.15a10.39,10.39,0,0,1-5.34,8.71q-5,3-14,3.21-10.75.17-15.85-3.33t-5.1-9a9.88,9.88,0,0,1,5-8.87q4.93-3,15.78-3,9,0,14.17,2.79T255.59,290.82Zm-38.7,15.86h14.55v5.92h33.77v-5.92h14.46v31.14H216.89Zm26.3-15.94a2.72,2.72,0,0,0-.62-1.85,3.88,3.88,0,0,0-1.6-1.06,10.1,10.1,0,0,0-2.3-.54,21.8,21.8,0,0,0-2.71-.16c-.88,0-1.78,0-2.72.12a11.19,11.19,0,0,0-2.5.49,4.88,4.88,0,0,0-1.81,1,2.16,2.16,0,0,0-.7,1.64,2.3,2.3,0,0,0,.7,1.69,4.64,4.64,0,0,0,1.85,1.07,14,14,0,0,0,2.55.53,23,23,0,0,0,2.71.16,19.41,19.41,0,0,0,2.5-.16,11.27,11.27,0,0,0,2.3-.53,4.87,4.87,0,0,0,1.69-1A1.91,1.91,0,0,0,243.19,290.74ZM231.44,323v5h33.93v-5Zm45.27-41.33H258.63V268.89h18.08Zm0,18.41H258.63V287.37h18.08Zm-10.93-39.36h13.89v43.38H265.78Z"/><path d="M333.15,304.79a39.17,39.17,0,0,1-6.9-4.27q-3.45-2.62-7.72-6.33a57.81,57.81,0,0,1-6,5.67q-3.12,2.55-6.9,5.42l-9.69-10.84a21.62,21.62,0,0,0,4.76-2.75,45.46,45.46,0,0,0,5.38-4.56,31.58,31.58,0,0,0,4.36-5.26A8,8,0,0,0,312,277H300.45V262.4h37.63v14.87H326.42q-.26.83-.54,1.68a14.66,14.66,0,0,0-.45,1.69,30.88,30.88,0,0,0,6.33,6.57,46.23,46.23,0,0,0,8.95,5.5Zm30.49,18.57q0,8.13-9.78,11.75a46.91,46.91,0,0,1-9.24,2.34,68.47,68.47,0,0,1-11.22.7Q301,338.08,301,323.36q0-8.13,10.68-11.83a51.76,51.76,0,0,1,9.65-2.59,64.84,64.84,0,0,1,12-.86q15.45.07,22.84,3.94T363.64,323.36Zm-14.22,0q0-4.77-16-4.76a58.31,58.31,0,0,0-6,.28,45.61,45.61,0,0,0-5.29.87q-5.76,1.23-5.76,3.61,0,4.93,17,4.93Q349.42,328.29,349.42,323.36Zm11.75-32.54H339.81V277.68h21.36Zm-11.25-30.07H363.8v45.44H349.92Z"/><path d="M428.46,336.26H382.7v-14h45.76Zm-2.87-50.69q0,10.68-5.1,17-5.58,7.08-16,7.07-10.85,0-16.27-6.82-4.76-6.33-4.76-17.25,0-11.1,4.68-17.34,5.43-7.07,16.19-7.07Q425.58,261.16,425.59,285.57Zm-13.23,0q0-10.36-7.89-10.36t-7.8,10.36q0,10,7.8,10a6.83,6.83,0,0,0,6.33-3.53A13.39,13.39,0,0,0,412.36,285.57Zm20.79-24.82H448v77.07H433.15Z"/><path d="M547.93,305a50.14,50.14,0,0,1-5,.94c-1.45.19-2.79.33-4,.41s-2.41.14-3.53.17-2.26.09-3.41.2c-2.25,0-5,0-8.42,0s-7.74-.09-13.11-.2V279.07h24.08v-3.86H510.46v-12.9h36.48v26.95H522.38v5.59q2.13.09,4.56.12c1.61,0,3.41,0,5.38-.12s4.13-.31,6.49-.62,5-.72,7.81-1.27ZM560,324.51H510.46V311.69h63.68V337.9H560Zm11.91-41.24H552.2v-12h19.72Zm0,16.84H552.2V288.19h19.72Zm-11.67-39.36h13.89v47.57H560.25Z"/><path d="M629.52,334.62c-1.1-1.21-2.38-2.78-3.86-4.73s-3-4-4.56-6.24-3.08-4.45-4.56-6.7-2.8-4.27-3.95-6.08A56.25,56.25,0,0,1,610,318.1c-1,2.36-2.15,4.6-3.32,6.74s-2.39,4.15-3.62,6-2.42,3.63-3.57,5.22l-12.74-7.23a72.55,72.55,0,0,0,8.26-15,93.81,93.81,0,0,0,4.89-16.23,122.25,122.25,0,0,0,2.26-17.29q.52-8.91.45-18.2h14.79c0,.38,0,1.1,0,2.14s-.06,2.23-.09,3.57-.05,2.77-.08,4.27,0,2.95,0,4.32v3.65a22.58,22.58,0,0,0,.08,2.26,27.52,27.52,0,0,0,1.77,5.71q1.44,3.57,3.53,7.85t4.56,8.79q2.48,4.52,4.85,8.54t4.44,7.15a42.81,42.81,0,0,0,3.28,4.52Zm12.32-73.87h14.87v77.07H641.84Zm4.52,30.57h17.58v15.61H646.36Z"/><polygon class="c" points="4147.63 4.95 4147.62 5.04 4147.84 5.04 4147.63 4.95"/><rect class="c" x="331.1" y="719.02" width="63.34" height="20"/><text class="d" transform="translate(905.61 952.16)">「북·중 양국 변경주민들의 국경통행세칙」<tspan x="0" y="28.8">Border traffic rules for North Korean and Chinese residents </tspan></text><text class="e" transform="translate(841.57 708.31)">1948-1994<tspan x="0" y="21.6">김일성 집권기</tspan><tspan x="0" y="43.2">Kim Il Sung Era</tspan></text><text class="e" transform="translate(1792.85 124.91)">1994-2011<tspan x="0" y="21.6">김정일 집권기</tspan><tspan x="0" y="43.2">Kim Jong Il Era</tspan></text><text class="d" transform="translate(1073.22 827.6)">「북·중 변경지구 주민의 국경통행증 발급방법」<tspan x="0" y="28.8">Rules regarding border pass issuing for North Korean and Chinese residents</tspan></text><text class="d" transform="translate(1171.01 682.67)">「북·중 변경지역 주민의 국경 통행 세칙」<tspan x="0" y="28.8">Border traffic regulations for North Korean and Chinese residents</tspan></text><text class="d" transform="translate(1623.22 595.03)">「북·중 국경조약」<tspan x="0" y="28.8">North Korea-China Border Treaty</tspan></text><text class="d" transform="translate(2171.18 73.03)">「국경통과지점 및 그 관리제도에 관한 협정」<tspan x="0" y="28.8">Agreement on Border Passing Points and their Management Systems</tspan></text><text class="d" transform="translate(2544.68 489.7)">마지막 협정에서, 중국과 북한은 15개 국경통과지점을 설정하였다. <tspan x="28.99" y="28.8">In the last agreement, 15 crossing points were defined. </tspan></text><path class="a" d="M1552.85,518.59a1.5,1.5,0,0,0,0-3,1.5,1.5,0,0,0,0,3Z"/><path d="M460,673l9.3,9.3v95.39L460,787h-48.3V673Zm-12.15,95.4,2.1-2.25V693.37l-2.1-2.25H430.86v77.25Z"/><path d="M482.46,787V673h48.45l9.3,9.3v51l-9.3,9.3h-29.4V787Zm36.3-62.84,2.25-2.25v-28.2l-2.25-2.1H501.51v32.55Z"/><path d="M551.31,787V673h49.2l9.3,9.3v51l-9.3,9.3,9.3,44.39H591.06l-9.3-44.39h-11.4V787Zm37.35-62.84,2.1-2.25v-28.2l-2.1-2.1h-18.3v32.55Z"/><path d="M661.11,723.37,688.41,787H667.56l-18-42-9,16.5V787H621.81V673h18.75v52l26.85-52h21Z"/><path d="M433.15,944.15h-218V908.23h218ZM418,957v70.11h-44.1V993.21H226V957Zm-44.1-143.7V798.23h43.85v98.36h-189V798.23h43.11v15.11Zm0,30.48H271.87v17.83H373.94Zm-74.08,72.59h46.08v57H299.86Z"/><path d="M565.2,794.51v11.9h37.91v36.91H474.52V807.4h41.63V794.51ZM610,900.8a31,31,0,0,1-4.21,15.73,39,39,0,0,1-12.63,12.88q-8.43,5.58-21.31,8.92a137.86,137.86,0,0,1-30.47,3.84,111.81,111.81,0,0,1-26.39-2,64.74,64.74,0,0,1-20.93-7.93,41.15,41.15,0,0,1-14-13.75,38.56,38.56,0,0,1-5.33-19.69,35,35,0,0,1,4.46-18.46,42.68,42.68,0,0,1,13.5-14.25,72.73,72.73,0,0,1,21.06-9.41A106.41,106.41,0,0,1,540.92,853q35.93-.5,52.52,11.65T610,900.8ZM483,957.28h45.83v31H675v38.65H483Zm85-59.21q0-11.64-24.28-11.64-25.53,0-25.27,12.14Q518.62,910,542.9,910,567.92,910,567.93,898.07Zm60.94-103.31h42.86V961.25H628.87Zm64.91,104.55H639V854h54.75Z"/><text class="d" transform="translate(1649.64 419.73)">「국경지역 국가안전과 사회질서 업무 협력 의정서」<tspan x="0" y="28.8">Protocol for Cooperation of National Security</tspan><tspan x="0" y="57.6">and Social Order in Border Region </tspan></text><text class="f" transform="matrix(0.85, -0.52, 0.52, 0.85, 841.62, 961.78)">1951</text><text class="g" transform="matrix(0.8, -0.59, 0.59, 0.8, 1016.19, 833.65)">1953</text><text class="h" transform="matrix(0.64, -0.77, 0.77, 0.64, 1161.12, 672.24)">1955</text><text class="h" transform="matrix(0.87, 0.49, -0.49, 0.87, 1546.56, 559.37)">1962</text><text class="i" transform="translate(1622 411.53) rotate(-67.94)">1964</text><text class="j" transform="translate(1636.29 369.5) rotate(1.88)">1986</text><text class="k" transform="translate(1696.59 380.36) rotate(1.88)">1996</text><text class="l" transform="translate(2050.64 63.13) rotate(1.88)">2001</text><text class="e" transform="translate(3987.22 101.83)">2011-present<tspan x="0" y="21.6">김정은 집권기</tspan><tspan x="0" y="43.2">Kim Jong Un Era</tspan></text></svg>