<svg xmlns="http://www.w3.org/2000/svg" viewBox="0 0 4707.24 1087.57"><defs><style>.cls-1{fill:#fff;}.cls-2{fill:#1e1e1e;}.cls-3{opacity:0.95;}</style></defs><g id="Layer_2" data-name="Layer 2"><g id="Layer_1-2" data-name="Layer 1"><path class="cls-1" d="M1079,307.2v-204h198v223c-5.87-.61-11.73-1.61-17.61-1.71-4.14-.07-8.77.16-12.31,2-3.15,1.6-5.13,2.2-8,.09-8.93-6.66-18-13.2-26.81-19.69.71-11,5.15-21.61,2.42-32.84a97.83,97.83,0,0,0-4.93,10.38c-1.15,2.56-2.74,3.24-4.84.76s-4.46-5-7-7.93c2.26-.6,4.34-1,6.33-1.71,4.19-1.47,7.92-3.61,8.33-8.6a4,4,0,0,0-2.36-3.08c-5.63-1.16-9.82,1.65-13.72,5.39-1.28,1.23-3.43,2.48-5,2.31-7-.76-14-2.45-21.09-3-14.7-1.23-25.14-9-29.6-23.09-.56-1.77-.17-3.94.16-5.86.49-2.89,2.19-3.41,4.72-2,5.48,3.12,10.47,6.28,13,12.88,3,8,14.33,11.58,22,7.7,1.64-.82,2.65-2.88,3.94-4.37l-.72-1.67c-3.74,0-7.57.48-11.2-.14s-6.8-2.32-10.09-3.52l4-7-5.23-1.19c3.69-4,23.18-3.55,26.67.71-1.65.34-3.06.64-4.47.9s-2.73.46-3.48.59c1.68,1.07,3.65,2.26,5.56,3.53,2.17,1.44,7.12-.55,8.84-3.74,1.55-2.9-.11-4.49-2.67-5.17-5.25-1.39-10.5-3-15.85-3.67-4.49-.52-9.14.41-13.71.35-1.27,0-2.54-1.24-3.8-1.9,1-1.23,1.77-2.89,3-3.56a6.67,6.67,0,0,1,4.42-.12c7.59,2.07,14.81-.69,21.83-2.4,5-1.22,6.3.81,7.69,4.22.48,1.2.09,2.91.81,3.85a21.65,21.65,0,0,0,5.22,5c.52.34,3.29-1.21,3.34-2a30.21,30.21,0,0,0-.86-7.4c-.1-.53-1-.87-1.35-1.42-2.42-3.88-4.79-7.79-7.09-11.57l-12-8.63c.87-7.49,1.4-7.62,8.69-4.65a51.2,51.2,0,0,0,11,2.75c1,.17,2.28-1.21,3.43-1.87-.93-1-1.69-2.35-2.83-3a20.13,20.13,0,0,0-4.67-1.2l.21-1.11,16.56,3c-1.29-2.46-1.75-4.73-3.12-5.7-5.24-3.7-11-6-17.7-5.26-1.29.14-2.68-.69-4-1.08.8-1.29,1.55-2.61,2.43-3.85a11.07,11.07,0,0,1,2.07-1.58H1183c2.51-.67,5-1.67,7.54-1.92,5-.49,10-.55,15-.79a25.42,25.42,0,0,0-9.1-2.9c-7.06-.88-10.92.89-13.33,5.75-3.33,6.61-3.33,6.61-12.83,5.31-.65-6.11-5.89-4.87-9.24-6l2.2,5c-2,.16-3.9.4-5.86.46-2.64.09-5.29.06-7.93.07h-10.12l-.45-1.67-4.36,5.45c-1.89-1.06-3.72-1.69-5-2.91s-2.48-3.12-2.14-4.25a106.06,106.06,0,0,1,6.22-17c1.72-3.45,5.41-5.87,7.5-9.2,6.65-10.56,16.47-15,28.39-14.25,12.09.76,24.13,2.55,36.16,4.09a11.84,11.84,0,0,1,5.42,2.4c11,8.53,18.7,19.25,20.94,33.35.62,3.95,1.37,7.87,2.08,12l-5.48-1.06c5.48,7.1,4,13.86,2.59,20.71-.48,2.3-.08,4.78-.08,7.18l1.64.76c1.85-2.1,4.81-4,5.24-6.34.46-2.5-1.48-5.44-2.51-8.59.33,0,2.42-.66,2.61-.3,1.31,2.57,2.23,5.34,3.66,9,1.07-2.73,2.36-4.63,2.46-6.6.16-3-.48-6.13-.78-9.19-2.39,1.11-4.77,2.23-7.16,3.33-.13.05-.32,0-.9-.12a25.69,25.69,0,0,1,.9-2.65c3.79-8,6.94-16.1,7.54-25.15.66-10.13-1.78-19.67-4.26-29.26-.23-.89-1.2-1.56-1.71-2.4-1.07-1.78-2.06-3.62-3.1-5.43-1.84-3.19-3.12-6.36-7.8-7.23-4.27-.8-8.15-3.68-12.17-5.7-.39-.2-.52-.85-.87-1.2a11.11,11.11,0,0,0-2.57-2.43c-11.59-5.9-24.24-7.41-36.92-7.82-6.91-.23-14-.69-20.46,4.26-6.19,4.71-13.76,7.59-20.63,11.44a6.79,6.79,0,0,0-2.81,3.31c-2.59,7-5.23,14.1-7.36,21.29a61.1,61.1,0,0,0,.3,35.8,23.16,23.16,0,0,1,.4,4.6l-4.84-.66c1.15,7.72-2.23,16.43,8.5,21.08.66-7.77,1.29-15.08,1.91-22.39l1.32.07.43,4c-.33-5.54,3.92-5.12,6.68-4.32,3.27.94,7.08,2.73,8.89,5.36,2.21,3.22,4.77,3.55,7.57,3.07,4.32-.75,8.51-2.24,13-3.49v3.49l1.62.51c.77-2.36,2.15-4.72,2.17-7.09,0-3.39,0-5.94,4.41-6,4.54-.07,4.8,2.8,4.31,6-.46,3-.4,5.53,2.39,7.51.77.55.85,2,1.24,3.11,1.64,2.15,3.57,4.15,4.8,6.51.86,1.67.77,3.84,1.11,5.79-1.44,0-2.89.2-4.32.12-6.56-.34-13.12-.69-19.67-1.15a39.05,39.05,0,0,1-4.87-.93,53.93,53.93,0,0,1,2.37-4.9,34.4,34.4,0,0,1,2.85-3.58,34.77,34.77,0,0,0-7.13,4.18c-1.17.79-3.4,1.18-3.59,2.08-1.77,8.37-9.08,7.46-14.64,8.2-3.75.5-5.11,1.9-5.45,4.92-.32,2.78.09,5.64,0,8.46s-.45,5.36-.7,8.21l-3.79-2.35c-.48,1.15-1.44,2.33-1.35,3.43a41,41,0,0,0,1.43,8.32c.9,3.08.23,5.42-1.24,8.33-5,9.9-12.32,18.77-11.93,31,.21,6.75-6.17,9.45-11.68,10.36C1097,306.29,1088,306.47,1079,307.2Zm87.66-124.67c-3.09-6.1-15.53-7.25-20.68-2.58Zm57.83,10.41c-.71-.06-3.09-.46-3.15-.24-.71,2.71-1.1,5.51-1.45,7.62Z"/><path class="cls-2" d="M1183.55,207.86l12,8.62c2.3,3.78,4.67,7.69,7.09,11.57.34.55,1.25.89,1.35,1.42a30.21,30.21,0,0,1,.86,7.4c0,.79-2.82,2.34-3.34,2a21.65,21.65,0,0,1-5.22-5c-.72-.94-.33-2.65-.81-3.85-1.39-3.41-2.67-5.44-7.69-4.22-7,1.71-14.24,4.47-21.83,2.4a6.67,6.67,0,0,0-4.42.12c-1.28.67-2.06,2.33-3,3.56,1.26.66,2.53,1.88,3.8,1.9,4.57.06,9.22-.87,13.71-.35,5.35.63,10.6,2.28,15.85,3.67,2.56.68,4.22,2.27,2.67,5.17-1.72,3.19-6.67,5.18-8.84,3.74-1.91-1.27-3.88-2.46-5.56-3.53.75-.13,2.12-.34,3.48-.59s2.82-.56,4.47-.9c-3.49-4.26-23-4.75-26.67-.71l5.23,1.19-4,7c3.29,1.2,6.59,2.93,10.09,3.52s7.46.14,11.2.14l.72,1.67c-1.29,1.49-2.3,3.55-3.94,4.37-7.71,3.88-19,.26-22-7.7-2.5-6.6-7.49-9.76-13-12.88-2.53-1.44-4.23-.92-4.72,2-.33,1.92-.72,4.09-.16,5.86,4.46,14.06,14.9,21.86,29.6,23.09,7.07.59,14,2.28,21.09,3,1.61.17,3.76-1.08,5-2.31,3.9-3.74,8.09-6.55,13.72-5.39a4,4,0,0,1,2.36,3.08c-.41,5-4.14,7.13-8.33,8.6-2,.69-4.07,1.11-6.33,1.71,2.59,2.91,4.88,5.37,7,7.93s3.69,1.8,4.84-.76a97.83,97.83,0,0,1,4.93-10.38c2.73,11.23-1.71,21.86-2.42,32.84,8.86,6.49,17.88,13,26.81,19.69,2.84,2.11,37.89,21,37.89,31.61H1077.25L1074.52,307s22.43-.68,31.23-2.14c5.51-.91,11.89-3.61,11.68-10.36-.39-12.27,7-21.14,11.93-31,1.47-2.91,2.14-5.25,1.24-8.33a41,41,0,0,1-1.43-8.32c-.09-1.1.87-2.28,1.35-3.43l3.79,2.35c.25-2.85.6-5.52.7-8.21s-.31-5.68,0-8.46c.34-3,1.7-4.42,5.45-4.92,5.56-.74,12.87.17,14.64-8.2.19-.9,2.42-1.29,3.59-2.08a34.77,34.77,0,0,1,7.13-4.18,34.4,34.4,0,0,0-2.85,3.58,53.93,53.93,0,0,0-2.37,4.9,39.05,39.05,0,0,0,4.87.93c6.55.46,13.11.81,19.67,1.15,1.43.08,2.88-.07,4.32-.12-.34-2-.25-4.12-1.11-5.79-1.23-2.36-3.16-4.36-4.8-6.51ZM1201,299.71c-2.35,1.2-4.08,2.24-5.92,3-2.5,1-5.09,1.83-7.64,2.7-1.47.51-3,1-4.43,1.48a27.76,27.76,0,0,0,2,4.62c1.1,1.63,2.74,2.87,3.87,4.48.77,1.09,1.75,2.7,1.46,3.77-1.26,4.68,2.76,6.31,4.49,9.3.23-2.35-1.12-5-.28-6.45C1198.48,315.92,1201.17,309,1201,299.71Z"/><path d="M1183.56,207.79c-.39-1.06-.47-2.56-1.24-3.11-2.79-2-2.85-4.51-2.39-7.51.49-3.21.23-6.08-4.31-6-4.39.07-4.39,2.62-4.41,6,0,2.37-1.4,4.73-2.17,7.09l-1.62-.51v-3.49c-4.52,1.25-8.71,2.74-13,3.49-2.8.48-5.36.15-7.57-3.07-1.81-2.63-5.62-4.42-8.89-5.36-2.76-.8-7-1.22-6.68,4.32l-.43-4-1.32-.07c-.62,7.31-1.25,14.62-1.91,22.39-10.73-4.65-7.35-13.36-8.5-21.08l4.84.66a23.16,23.16,0,0,0-.4-4.6,61.1,61.1,0,0,1-.3-35.8c2.13-7.19,4.77-14.24,7.36-21.29a6.79,6.79,0,0,1,2.81-3.31c6.87-3.85,14.44-6.73,20.63-11.44,6.5-5,13.55-4.49,20.46-4.26,12.68.41,25.33,1.92,36.92,7.82a11.11,11.11,0,0,1,2.57,2.43c.35.35.48,1,.87,1.2,4,2,7.9,4.9,12.17,5.7,4.68.87,6,4,7.8,7.23,1,1.81,2,3.65,3.1,5.43.51.84,1.48,1.51,1.71,2.4,2.48,9.59,4.92,19.13,4.26,29.26-.6,9-3.75,17.15-7.54,25.15a25.69,25.69,0,0,0-.9,2.65c.58.08.77.17.9.12,2.39-1.1,4.77-2.22,7.16-3.33.3,3.06.94,6.15.78,9.19-.1,2-1.39,3.87-2.46,6.6-1.43-3.69-2.35-6.46-3.66-9-.19-.36-2.28.25-2.61.3,1,3.15,3,6.09,2.51,8.59-.43,2.35-3.39,4.24-5.24,6.34l-1.64-.76c0-2.4-.4-4.88.08-7.18,1.42-6.85,2.89-13.61-2.59-20.71l5.48,1.06c-.71-4.09-1.46-8-2.08-12-2.24-14.1-9.89-24.82-20.94-33.35a11.84,11.84,0,0,0-5.42-2.4c-12-1.54-24.07-3.33-36.16-4.09-11.92-.75-21.74,3.69-28.39,14.25-2.09,3.33-5.78,5.75-7.5,9.2a106.06,106.06,0,0,0-6.22,17c-.34,1.13,1,3.16,2.14,4.25s3.08,1.85,5,2.91l4.36-5.45.45,1.67h10.12c2.64,0,5.29,0,7.93-.07,2-.06,3.91-.3,5.86-.46l-2.2-5c3.35,1.09,8.59-.15,9.24,6,9.5,1.3,9.5,1.3,12.83-5.31l-.11-.13h12.53a11.07,11.07,0,0,0-2.07,1.58c-.88,1.24-1.63,2.56-2.43,3.85,1.35.39,2.74,1.22,4,1.08,6.68-.71,12.46,1.56,17.7,5.26,1.37,1,1.83,3.24,3.12,5.7l-16.56-3-.21,1.11a20.13,20.13,0,0,1,4.67,1.2c1.14.6,1.9,1.94,2.83,3-1.15.66-2.42,2-3.43,1.87a51.2,51.2,0,0,1-11-2.75c-7.29-3-7.82-2.84-8.69,4.65C1183.55,207.86,1183.56,207.79,1183.56,207.79Z"/><path d="M1166.69,182.53,1146,180C1151.16,175.28,1163.6,176.43,1166.69,182.53Z"/><path d="M1183.15,184.46c2.41-4.86,6.27-6.63,13.33-5.75a25.42,25.42,0,0,1,9.1,2.9c-5,.24-10,.3-15,.79-2.55.25-5,1.25-7.54,1.92A1.71,1.71,0,0,0,1183.15,184.46Z"/><path d="M1224.52,192.94l-4.6,7.38c.35-2.11.74-4.91,1.45-7.62C1221.43,192.48,1223.81,192.88,1224.52,192.94Z"/><path class="cls-1" d="M1201,299.71c.21,9.3-2.48,16.21-6.42,22.89-.84,1.41.51,4.1.28,6.45-1.73-3-5.75-4.62-4.49-9.3.29-1.07-.69-2.68-1.46-3.77-1.13-1.61-2.77-2.85-3.87-4.48a27.76,27.76,0,0,1-2-4.62c1.48-.49,3-1,4.43-1.48,2.55-.87,5.14-1.68,7.64-2.7C1196.88,302,1198.61,300.91,1201,299.71Z"/><path class="cls-1" d="M102,879.31V674.83H328.22V889.26L263.3,866.75c1.43,8.16,2.17,15.47,4.05,22.47,3.23,12,7.34,23.84,10.75,35.84,3.35,11.83,6.29,23.78,9.41,35.68H257.65c-6.93-13.51-13.73-27.07-20.88-40.46-1.5-2.8-1.79-5.26,0-7.46,3.89-4.79,1.88-8.87-.91-13-1.22-1.81-2.47-3.61-3.64-5.31l6.36-4.52c-1-1.66-1.81-3-2.65-4.37l5-1.59.09-1.21a33.88,33.88,0,0,0-4.77-1.61c-3-.56-6-.64-8.92-1.33a7.48,7.48,0,0,1-3.82-2.56c-.3-.37,1-2.17,1.72-3.17,1.84-2.48,3.8-4.87,5.71-7.3l-1.16-1.09c-2.09,1.62-4.13,3.3-6.28,4.82-.92.66-2.26,1.63-3.08,1.38-5.1-1.5-9.91-2.83-15.32-.32-1.87.86-5.09-.85-7.58-1.7-3.67-1.25-7.26-2.73-10.84-4.24-1.47-.62-3.18-1.25-4.15-2.4-7.28-8.7-11.5-18.84-13.61-29.92-1.16-6.12-1.32-12.74-3.92-18.19-2.72-5.68-6.91-10.58-6.58-17.38,0-.36-.56-.76-1.51-1.94-.38,5.34-.68,9.66-1,14-1,12.81-1.45,25.67,2.12,38.13,1.15,4,.47,6.63-2.05,9.24s-4.62,6-7.62,7C133,869.58,117.49,874.33,102,879.31ZM290.14,741.88a3.81,3.81,0,0,0-.14-.44c-.83-1.68-1.72-3.33-2.47-5a25.44,25.44,0,0,1-.83-3.4l-10.83-3,2.27-2.52L274,726.18l.36-1.31,13.7,3.25c-2.79-7-3.57-7.21-10.7-7.56-2.94-.15-7.92-1.5-8.26-3.09-.73-3.4-1.71-2.36-3.47-1.58-.21.09-.53-.09-.82-.15l-.67-2.49H257.9v-5.06c-1.47,1.63-2.76,4.42-4.57,4.81-4.11.89-8.47.61-12.78.8l1-13.06.83-1.82,3.79,5.5c-1.61-7.17-5.88-9.64-12.23-5.85,3.18,4.48,8.68,8.68,3.59,15.15l-4.87-1.27-1.59,4.84a57.26,57.26,0,0,1-5.27-3.3c-1.28-1-3.17-2.33-3.24-3.61-.47-8.12-5.36-12.84-13.45-13.52-9.29-.79-18.12,1.06-27.07,3a15.65,15.65,0,0,0-11.85,10.56,30.86,30.86,0,0,1-3.93,7.34C162.1,724,156.07,729,154.66,736.83c-.64,3.53-.78,7.16-1.55,10.66-2.58,11.67,1.72,22.41,4.14,33.47.73-1.68,1.83-4,1.12-4.94-3.18-4.28-1.09-8.47-.51-12.71l-.17.14c.15,2.07.17,4.16.51,6.2a3.88,3.88,0,0,0,1.57,2.27c.26.18,1.29-.76,2-1.15,2.37-1.28,4.68-3.42,7.16-3.63a86.78,86.78,0,0,1,17.13.19c3.22.37,6.25,2.36,9.35,3.64.93.38,1.83.84,2.74,1.27,0-1.07.42-2.51-.12-3.14-3.13-3.71-6.48-7.24-9.81-10.78a2.34,2.34,0,0,0-1.62-.48c-3.68.13-7.35.45-11,.48-4.43,0-8.28.82-10.71,5.16-.87,1.54-2.63,2.57-4,3.84,3.37-9.74,10.54-16.92,13.25-27.38,2.65-10.26,13.07-15.63,24.27-16.51,8-.62,16-.2,23.88-1.24,12.18-1.61,23.67-.34,34.2,6.15,7.08,4.36,13.73,9.22,15.17,18.45.28,1.74,2.16,3.22,3.3,4.82l1.58-.61c-.46-3.21-.93-6.42-1.6-11.13,3.88,2,6.81,3.46,9.73,4.94l.85,1.34c3,4,2.9,9-.33,13.79l-2-3.21c-.5,2.73-.75,4.63-1.22,6.48-.33,1.29-.63,2.92-1.54,3.69-3.7,3.12-5.33,12.88-2.85,17.84l-21-5.77-.3,1.16,23,7.4c2.29-1,5-2,7.46-3.33a4.24,4.24,0,0,0,1.71-2.44c2.1-7.2,4.69-14.34,5.93-21.69C295.43,753.74,297.83,746.45,290.14,741.88ZM179.62,824.31a56.71,56.71,0,0,0,.09,6.38,4.57,4.57,0,0,0,1.82,2.52c1.51,1.21,3.33,2.06,4.79,3.32,2.37,2.05-.47,3-.95,4.57-1.63,5.3,4.15,13.28,9.79,13.92,3.27.37,6.59.35,9.88.63,4.74.41,6.53-2.8,8.48-6-4.43-.57-8.5-.77-12.4-1.66-6.25-1.41-9-4.77-8.6-10,1.86-.3,3.78-.95,5.66-.84,4.94.27,9.86,1,14.8,1.28a22.28,22.28,0,0,0,6.75-1c2.72-.76,5.34-1.9,8.73-3.14-.76-.91-1.56-2.51-2.86-3.29-2.56-1.53-5.56-2.34-8.09-3.91-7.57-4.72-16.16-3.82-24.38-4.43C188.78,822.38,184.31,823.7,179.62,824.31Zm9.2-39c-4.83-1.12-10.29,1.68-15.41-3.16,7.49-1.94,14-2.55,20.53.65l2.87-3.47c-9.25-5.1-18.17-9.17-28.76-2.39v-5.51l-5.3,6.08-2.26-3.53V788l.7,0L163,782.4C171.07,790.54,180,787.92,188.82,785.26Zm23.74-12.83c13.78-4.19,26.94-5.3,39.25,3.58,1.23-7.85-2.24-12.38-10-13.25-2.34-.25-4.66-.69-7-1.1C228.42,760.53,216.12,766.45,212.56,772.43Zm38.85,13.67c-4-2.76-7.26-5.42-10.89-7.47-7.16-4-14.87-2.76-22.37-1.24-1.28.26-3.12,4.08-2.92,4.26a100.75,100.75,0,0,0,8.24,6.2l.88-1c-.2-1-.41-2-.88-4.35Zm-31.23,25.12c-8.74-3.15-17.13,1-25.39-2.35-3.87-1.57-8.5-1-9-6.65-4.83.71-6.29,3.29-6.06,7.4,4.69-4,4.73-4,7,1.48,1.59,3.8,4.15,5.31,8.21,4a13.29,13.29,0,0,1,3.1-.39c5.85-.41,11.71-.67,17.54-1.26C217.08,813.31,218.44,812.1,220.18,811.22Zm-37.76-11.16c-10.52-.68-21.35,1.42-24-12.34l-1.24.9,5.64,10.7-2.16,1.9Zm40.44,6.17,9.46,15.53,1-.7C228.89,817,231.54,808.17,222.86,806.23Zm63.24-8.3c.75-1.78,1.29-2.44,1.22-3a32.72,32.72,0,0,0-1.08-4.88,6.67,6.67,0,0,0-1.87.37,30,30,0,0,0,.44,4.43A22.78,22.78,0,0,0,286.1,797.93Zm-55.85-9.7-.19,1.09,9.94,1.9.27-1.57Z"/><path class="cls-2" d="M102,879.31c15.46-5,31-9.73,46.32-15.12,3-1.06,5.2-4.51,7.62-7s3.2-5.22,2.05-9.24c-3.57-12.46-3.07-25.32-2.12-38.13.32-4.31.62-8.63,1-14,.95,1.18,1.53,1.58,1.51,1.94-.33,6.8,3.86,11.7,6.58,17.38,2.6,5.45,2.76,12.07,3.92,18.19,2.11,11.08,6.33,21.22,13.61,29.92,1,1.15,2.68,1.78,4.15,2.4,3.58,1.51,7.17,3,10.84,4.24,2.49.85,5.71,2.56,7.58,1.7,5.41-2.51,10.22-1.18,15.32.32.82.25,2.16-.72,3.08-1.38,2.15-1.52,4.19-3.2,6.28-4.82l1.16,1.09c-1.91,2.43-3.87,4.82-5.71,7.3-.75,1-2,2.8-1.72,3.17a7.48,7.48,0,0,0,3.82,2.56c2.92.69,6,.77,8.92,1.33a33.88,33.88,0,0,1,4.77,1.61l-.09,1.21-5,1.59c.84,1.39,1.65,2.71,2.65,4.37l-6.36,4.52c1.17,1.7,2.42,3.5,3.64,5.31,2.79,4.16,4.8,8.24.91,13-1.78,2.2-1.49,4.66,0,7.46,7.15,13.39,13.95,27,20.88,40.46H217.84c.2-11.9-.24-23.86.88-35.67.54-5.76-.26-9.88-4.68-13.27-2.22-1.7-2.22-3.51-1-5.81,2-3.8,3.79-7.69,5.8-11.8-19.14-3.89-36.08-11.24-49.56-25.52,3.86,8.83,8.44,17.11,12.12,25.77,9.35,22,18.3,44.19,27.41,66.3H102Zm64.38-37.22c1-6.33-.88-11.57-3.37-16.65-.45-.92-1.56-1.51-2.37-2.25-.48,1.11-1.59,2.41-1.33,3.3,1.43,4.85,3.15,9.62,4.9,14.37C164.41,841.34,165.38,841.53,166.41,842.09Z"/><path class="cls-2" d="M287.51,960.74c-3.12-11.9-6.06-23.85-9.41-35.68-3.41-12-7.52-23.8-10.75-35.84-1.88-7-2.62-14.31-4.05-22.47l64.92,22.51v71.48Z"/><path class="cls-1" d="M208.79,960.74c-9.11-22.11-18.06-44.29-27.41-66.3-3.68-8.66-8.26-16.94-12.12-25.77,13.48,14.28,30.42,21.63,49.56,25.52-2,4.11-3.81,8-5.8,11.8-1.2,2.3-1.2,4.11,1,5.81,4.42,3.39,5.22,7.51,4.68,13.27-1.12,11.81-.68,23.77-.88,35.67Z"/><path d="M284.65,744.82l-9.74-5c.67,4.71,1.14,7.92,1.6,11.13l-1.58.61c-1.14-1.6-3-3.08-3.3-4.82-1.44-9.23-8.09-14.09-15.17-18.45-10.53-6.49-22-7.76-34.2-6.15-7.88,1-15.93.62-23.88,1.24-11.2.88-21.62,6.25-24.27,16.51-2.71,10.46-9.88,17.64-13.25,27.38,1.36-1.27,3.12-2.3,4-3.84,2.43-4.34,6.28-5.12,10.71-5.16,3.68,0,7.35-.35,11-.48a2.34,2.34,0,0,1,1.62.48c3.33,3.54,6.68,7.07,9.81,10.78.54.63.11,2.07.12,3.14-.91-.43-1.81-.89-2.74-1.27-3.1-1.28-6.13-3.27-9.35-3.64a86.78,86.78,0,0,0-17.13-.19c-2.48.21-4.79,2.35-7.16,3.63-.7.39-1.73,1.33-2,1.15a3.88,3.88,0,0,1-1.57-2.27c-.34-2-.36-4.13-.51-6.2,2.45-5.84,8.89-9.74,8.69-17l-3.58-.31c.91-3.34,1.71-6.31,2.52-9.3-3.14-.62-5.25,1.39-6.17,4.41a151,151,0,0,0-4.41,17.32c-.24,1.36,2,3.17,3.12,4.77-.58,4.24-2.67,8.43.51,12.71.71,1-.39,3.26-1.12,4.94-2.42-11.06-6.72-21.8-4.14-33.47.77-3.5.91-7.13,1.55-10.66,1.41-7.81,7.44-12.87,11.59-19.05a30.86,30.86,0,0,0,3.93-7.34A15.65,15.65,0,0,1,182,699.88c8.95-2,17.78-3.81,27.07-3,8.09.68,13,5.4,13.45,13.52.07,1.28,2,2.6,3.24,3.61a57.26,57.26,0,0,0,5.27,3.3l1.59-4.84,4.87,1.27c5.09-6.47-.41-10.67-3.59-15.15,6.35-3.79,10.62-1.32,12.23,5.85l-3.79-5.5-.83,1.82-1,13.06c4.31-.19,8.67.09,12.78-.8,1.81-.39,3.1-3.18,4.57-4.81v5.06h6.19l.67,2.49c.29.06.61.24.82.15,1.76-.78,2.74-1.82,3.47,1.58.34,1.59,5.32,2.94,8.26,3.09,7.13.35,7.91.55,10.7,7.56l-13.7-3.25-.36,1.31,4.19,1.32L275.87,730l10.83,3a25.44,25.44,0,0,0,.83,3.4c.75,1.71,1.64,3.36,2.47,5-3.18-2.49-5.93-5.83-10.73-5.64C285,736.67,282.5,742.13,284.65,744.82Z"/><path d="M179.62,824.31c4.69-.61,9.16-1.93,13.51-1.61,8.22.61,16.81-.29,24.38,4.43,2.53,1.57,5.53,2.38,8.09,3.91,1.3.78,2.1,2.38,2.86,3.29-3.39,1.24-6,2.38-8.73,3.14a22.28,22.28,0,0,1-6.75,1c-4.94-.23-9.86-1-14.8-1.28-1.88-.11-3.8.54-5.66.84-.36,5.2,2.35,8.56,8.6,10,3.9.89,8,1.09,12.4,1.66-2,3.18-3.74,6.39-8.48,6-3.29-.28-6.61-.26-9.88-.63-5.64-.64-11.42-8.62-9.79-13.92.48-1.55,3.32-2.52.95-4.57-1.46-1.26-3.28-2.11-4.79-3.32a4.57,4.57,0,0,1-1.82-2.52A56.71,56.71,0,0,1,179.62,824.31Zm21.55,2.25c-4.7.87-8.77,1.39-12.67,2.49-1.12.31-1.76,2.29-2.62,3.51,1.14.78,2.24,2.14,3.44,2.24,9.07.75,18.16,1.34,27.26,1.69,1.18,0,2.42-1.6,3.64-2.47-.82-.92-1.48-2.35-2.49-2.67C212.19,829.58,206.56,828.08,201.17,826.56Z"/><path d="M290.14,741.88c7.69,4.57,5.29,11.86,4.23,18.19-1.24,7.35-3.83,14.49-5.93,21.69a4.24,4.24,0,0,1-1.71,2.44c-2.51,1.31-5.17,2.34-7.46,3.33l-23-7.4.3-1.16,21,5.77c-2.48-5-.85-14.72,2.85-17.84.91-.77,1.21-2.4,1.54-3.69.47-1.85.72-3.75,1.22-6.48l2,3.21c3.23-4.79,3.35-9.83.33-13.79C290,747.53,290.93,746.64,290.14,741.88Z"/><path d="M188.82,785.26c-8.86,2.66-17.75,5.28-25.84-2.86L161.19,788l-.7,0V773.93l2.26,3.53,5.3-6.08v5.51c10.59-6.78,19.51-2.71,28.76,2.39l-2.87,3.47c-6.52-3.2-13-2.59-20.53-.65C178.53,786.94,184,784.14,188.82,785.26Z"/><path d="M212.56,772.43c3.56-6,15.86-11.9,22.22-10.77,2.33.41,4.65.85,7,1.1,7.8.87,11.27,5.4,10,13.25C239.5,767.13,226.34,768.24,212.56,772.43Z"/><path d="M251.41,786.1l-27.94-3.55c.47,2.31.68,3.33.88,4.35l-.88,1a100.75,100.75,0,0,1-8.24-6.2c-.2-.18,1.64-4,2.92-4.26,7.5-1.52,15.21-2.8,22.37,1.24C244.15,780.68,247.43,783.34,251.41,786.1Z"/><path d="M220.18,811.22c-1.74.88-3.1,2.09-4.57,2.24-5.83.59-11.69.85-17.54,1.26a13.29,13.29,0,0,0-3.1.39c-4.06,1.3-6.62-.21-8.21-4-2.28-5.45-2.32-5.43-7-1.48-.23-4.11,1.23-6.69,6.06-7.4.48,5.67,5.11,5.08,9,6.65C203.05,812.21,211.44,808.07,220.18,811.22Z"/><path class="cls-1" d="M157.86,763.31c-1.1-1.6-3.36-3.41-3.12-4.77a151,151,0,0,1,4.41-17.32c.92-3,3-5,6.17-4.41-.81,3-1.61,6-2.52,9.3l3.58.31c.2,7.29-6.24,11.19-8.69,17Z"/><path class="cls-1" d="M290.14,741.88c.79,4.76-.18,5.65-4.65,4.27-.28-.45-.57-.89-.84-1.33-2.15-2.69.35-8.15-5.38-9,4.8-.19,7.55,3.15,10.73,5.64A3.81,3.81,0,0,1,290.14,741.88Z"/><path d="M182.42,800.06l-21.73,1.16,2.16-1.9-5.64-10.7,1.24-.9C161.07,801.48,171.9,799.38,182.42,800.06Z"/><path d="M222.86,806.23c8.68,1.94,6,10.76,10.5,14.83l-1,.7Z"/><path d="M286.1,797.93a22.78,22.78,0,0,1-1.29-3.1,30,30,0,0,1-.44-4.43,6.67,6.67,0,0,1,1.87-.37,32.72,32.72,0,0,1,1.08,4.88C287.39,795.49,286.85,796.15,286.1,797.93Z"/><path d="M230.25,788.23l10,1.42-.27,1.57-9.94-1.9Z"/><path class="cls-1" d="M166.41,842.09c-1-.56-2-.75-2.17-1.23-1.75-4.75-3.47-9.52-4.9-14.37-.26-.89.85-2.19,1.33-3.3.81.74,1.92,1.33,2.37,2.25C165.53,830.52,167.4,835.76,166.41,842.09Z"/><path class="cls-1" d="M201.17,826.56c5.39,1.52,11,3,16.56,4.79,1,.32,1.67,1.75,2.49,2.67-1.22.87-2.46,2.52-3.64,2.47-9.1-.35-18.19-.94-27.26-1.69-1.2-.1-2.3-1.46-3.44-2.24.86-1.22,1.5-3.2,2.62-3.51C192.4,828,196.47,827.43,201.17,826.56Z"/><path class="cls-1" d="M3279.69,335.27V169.6h206.86V332.18c-13.52-5.34-27.08-10.56-40.54-16.06-4-1.63-5.4-.11-7.44,3.19a135.19,135.19,0,0,1-13.19,17.91c-1.77,2-6.1,1.72-8.06,3.68-5.79,5.77-13,5-20.85,6.23l8.34-7.91-.83-1c-1.33.61-2.7,1.16-4,1.85a30.92,30.92,0,0,1-33.67-3.54c-4.39-3.71-10.09-6.43-13.22-11-4.74-6.88-8.54-14.56-7.94-23.73.18-2.81-1.92-6.51-4.15-8.47-1.37-1.2-6.75-.69-7.25.43-2.43,5.43-9,9.43-6.38,16.83a69.18,69.18,0,0,1,1.87,8.29c-5.56,2.13-10.58,4.32-15.77,6C3302.26,328.48,3291,331.82,3279.69,335.27Zm159.56-100c0-5.92-.12-10.37,0-14.81s.62-8.88.9-13.33c.81-12.82-10.58-24.64-23.39-23.6-10,.81-19.85,2.3-30,1.67-15.85-1-31.79-.52-47.69-.95-7-.18-13.87,3.63-15,9.7-2.62,13.65-.89,27.26,1,40.83.46,3.22,2.75,3.89,4.73,2.34,2.5-2,5.9-4.77,6.06-7.39.57-9.12,5.06-14,13.49-16.34,3.25-.9,6.11-3.21,9.37-4a89.75,89.75,0,0,1,13.78-2.12,61.53,61.53,0,0,1,9.69.16,132.24,132.24,0,0,1,14.09,1.34c4.52.81,8.87,2.55,13.38,3.5,9.87,2.09,11.69,4.12,13.19,14.13.31,2.08,1.72,5,3.39,5.67C3430,233.65,3434.31,234.14,3439.25,235.29Zm-53.72,29.47c-.3-9.65.7-11.39,9.47-12.52,6.51-.84,13.21-.48,19.81-.19,1.86.08,3.65,1.78,5.48,2.74l-.61,1.54-6.11-1.41.65,1.4c-1.45.9-2.88,2.53-4.36,2.59-5.24.21-10.5-.18-15.75-.17a16.08,16.08,0,0,0-3.85,1c.47,1.73.56,3.76,1.57,5.07.57.74,2.75.58,4.08.29,4.31-.93,8.54-2.81,12.86-3,6.06-.3,11.5,1.15,16.83-4.83,2.84-3.19,10.64-2,15.94-2.71-2.33-5.24-2.67-5.55-9.25-3.89-2.19.55-4.07,2.24-6.19,3.17-.87.39-2.68.54-2.91.14a12.5,12.5,0,0,1-.89-3.8c-3.07-.55-6-.71-8.74-1.63-9.29-3.17-18.27-4.78-26.2,3.13a5.29,5.29,0,0,1-1.79.85c-7.77,3.08-14.62,1-21.58-3a19.42,19.42,0,0,0-11-2.31c-4.43.44-8.64,2.74-13,4a80.08,80.08,0,0,1-7.9,1.53l-3.76,6.86,7.5,7.07c2.35-13.14,5.69-15.38,20.63-14.66,5.37.26,9,3.57,9.4,9-5-.72-10-1.19-14.88-2.21-3.65-.77-10.3,2-13.08,6.27,7.27-.39,14.32-.83,21.38-1.09,2-.07,4.51-.27,5.78.79,4,3.35,7.24,3.77,10.32-.87a7.61,7.61,0,0,0,.4-.81l-.93.05c-.12-1.6-.25-3.21-.37-4.81,1.5.07,3,.11,4.51.24.48.05,1.11.66,1.39.5C3386.15,255.79,3384.39,260.93,3385.53,264.76Zm-3.65,61.74c-2.54-5.83-10.93-6.55-11.14-13.39l4.92-.92-5.45-5.14,9.08-1.1.33-1.91c-2.35-.7-4.67-1.85-7-2s-5.09.71-8.23,1.23c.85-4.6,1.77-7,6.37-6.75,3.16.17,6.41-1.31,9.61-2.05l0-1.7c-3.45-1.22-6.82-3-10.38-3.5-4.06-.58-7.31-.95-5.09-6.83-4.15,2.87-8.82,18-7.31,21.68a1.33,1.33,0,0,0,.26.45c5,4.47,5.53,10.7,6.71,16.77,1.24,6.32,4.94,8.14,11.13,6.25A59.81,59.81,0,0,1,3381.88,326.5Zm-60.59-41.83c5.22-6.08,1.84-12.66,2.22-18.78.08-1.27-2.4-2.74-3.84-4-.08-.06-2,1.31-2.11,2.14C3316.57,271.23,3317.19,278.13,3321.29,284.67Zm76.58-2.93-2.1,1.32c3.2,6.54,6.35,13.11,9.69,19.58.36.7,1.85.82,2.81,1.21.31-1.06,1.22-2.46.84-3.13C3405.49,294.32,3401.65,288.05,3397.87,281.74Zm-10.29,22.32-.1.57,7.47,1.78-2.24,5.5c2.23-.3,4-.13,5.27-.82,1-.54,1.47-2.14,2.17-3.26-1.52-.86-3-2.06-4.6-2.5A70.35,70.35,0,0,0,3387.58,304.06Z"/><path class="cls-3" d="M3278.26,335.8c11.27-3.45,24-7.32,35.22-10.93,5.19-1.66,10.21-3.85,15.77-6a69.18,69.18,0,0,0-1.87-8.29c-2.61-7.4,3.95-11.4,6.38-16.83.5-1.12,5.88-1.63,7.25-.43,2.23,2,4.33,5.66,4.15,8.47-.6,9.17,3.2,16.85,7.94,23.73,3.13,4.54,8.83,7.26,13.22,11a30.92,30.92,0,0,0,33.67,3.54c1.29-.69,2.66-1.24,4-1.85l.83,1-8.34,7.91c7.81-1.24,15.06-.46,20.85-6.23,2-2,6.29-1.66,8.06-3.68a135.19,135.19,0,0,0,13.19-17.91c2-3.3,3.47-4.82,7.44-3.19,13.46,5.5,27,10.72,40.54,16.06v94.71h-113.2c5.48-15.54,11-31.08,16.58-47l2.91,2.19q7.32-14.47,14.57-28.83l-1.11-1.49c-7.91,3.2-15.79,6.48-23.76,9.53a6.76,6.76,0,0,1-4.5-.15c-12.05-4.81-24.06-9.74-34.39-19.89l5.29,29.33-4.87-2c-2.57,9.33-.24,17.87,2.27,26.43a15.18,15.18,0,0,1,.72,5.41c-.28,3.4-1.4,6.75-1.41,10.13,0,5.45.59,10.91.94,16.37h-65.68C3280.91,396.35,3278.26,366.34,3278.26,335.8Z"/><path class="cls-3" d="M3346.59,426.89c-.35-5.46-1-10.92-.94-16.37,0-3.38,1.13-6.73,1.41-10.13a15.18,15.18,0,0,0-.72-5.41c-2.51-8.56-4.84-17.1-2.27-26.43l4.87,2-5.29-29.33C3354,351.41,3366,356.34,3378,361.15a6.76,6.76,0,0,0,4.5.15c8-3.05,15.85-6.33,23.76-9.53l1.11,1.49q-7.26,14.39-14.57,28.83l-2.91-2.19c-5.61,15.91-11.1,31.45-16.58,47h-18.53c9.89-8.71,17.22-39.65,10.41-45.47-2.14,2.84-4.85,5.42-6.2,8.58-.82,1.94.4,4.78.81,7.2.2,1.21,1,2.44.87,3.56-1,7.07-1.43,14.3-5.8,20.44a58.36,58.36,0,0,0-3.18,5.69Z"/><path d="M3351.73,426.89a58.36,58.36,0,0,1,3.18-5.69c4.37-6.14,4.81-13.37,5.8-20.44.16-1.12-.67-2.35-.87-3.56-.41-2.42-1.63-5.26-.81-7.2,1.35-3.16,4.06-5.74,6.2-8.58,6.81,5.82-.52,36.76-10.41,45.47Z"/><path d="M3439.25,235.29c-4.94-1.15-9.21-1.64-13-3.24-1.67-.71-3.08-3.59-3.39-5.67-1.5-10-3.32-12-13.19-14.13-4.51-.95-8.86-2.69-13.38-3.5a132.24,132.24,0,0,0-14.09-1.34,61.53,61.53,0,0,0-9.69-.16,89.75,89.75,0,0,0-13.78,2.12c-3.26.83-6.12,3.14-9.37,4-8.43,2.35-12.92,7.22-13.49,16.34-.16,2.62-3.56,5.43-6.06,7.39-2,1.55-4.27.88-4.73-2.34-1.93-13.57-3.66-27.18-1-40.83,1.17-6.07,8-9.88,15-9.7,15.9.43,31.84,0,47.69.95,10.18.63,20-.86,30-1.67,12.81-1,24.2,10.78,23.39,23.6-.28,4.45-.74,8.88-.9,13.33S3439.25,229.37,3439.25,235.29Z"/><path d="M3387.36,251.65c7.93-7.91,16.91-6.3,26.2-3.13,2.7.92,5.67,1.08,8.74,1.63a12.5,12.5,0,0,0,.89,3.8c.23.4,2,.25,2.91-.14,2.12-.93,4-2.62,6.19-3.17,6.58-1.66,6.92-1.35,9.25,3.89-5.3.74-13.1-.48-15.94,2.71-5.33,6-10.77,4.53-16.83,4.83-4.32.22-8.55,2.1-12.86,3-1.33.29-3.51.45-4.08-.29-1-1.31-1.1-3.34-1.57-5.07a16.08,16.08,0,0,1,3.85-1c5.25,0,10.51.38,15.75.17,1.48-.06,2.91-1.69,4.36-2.59l-.65-1.4,6.11,1.41.61-1.54c-1.83-1-3.62-2.66-5.48-2.74-6.6-.29-13.3-.65-19.81.19-8.77,1.13-9.77,2.87-9.47,12.52-1.14-3.83.62-9-5.21-5.73-.28.16-.91-.45-1.39-.5-1.5-.13-3-.17-4.51-.24.12,1.6.25,3.21.37,4.81l.93-.05a7.61,7.61,0,0,1-.4.81c-3.08,4.64-6.34,4.22-10.32.87-1.27-1.06-3.83-.86-5.78-.79-7.06.26-14.11.7-21.38,1.09,2.78-4.29,9.43-7,13.08-6.27,4.87,1,9.86,1.49,14.88,2.21-.41-5.44-4-8.75-9.4-9-14.94-.72-18.28,1.52-20.63,14.66l-7.5-7.07,3.76-6.86a80.08,80.08,0,0,0,7.9-1.53c4.38-1.23,8.59-3.53,13-4a19.42,19.42,0,0,1,11,2.31c7,4,13.81,6.08,21.58,3a5.29,5.29,0,0,0,1.79-.85"/><path d="M3381.88,326.5a59.81,59.81,0,0,0-6.2,1.12c-6.19,1.89-9.89.07-11.13-6.25-1.18-6.07-1.67-12.3-6.71-16.77a1.33,1.33,0,0,1-.26-.45c-1.51-3.63,3.16-18.81,7.31-21.68-2.22,5.88,1,6.25,5.09,6.83,3.56.5,6.93,2.28,10.38,3.5l0,1.7c-3.2.74-6.45,2.22-9.61,2.05-4.6-.26-5.52,2.15-6.37,6.75,3.14-.52,5.71-1.36,8.23-1.23s4.7,1.27,7,2l-.33,1.91-9.08,1.1,5.45,5.14-4.92.92C3371,320,3379.34,320.67,3381.88,326.5Z"/><path d="M3321.29,284.67c-4.1-6.54-4.72-13.44-3.73-20.6.11-.83,2-2.2,2.11-2.14,1.44,1.22,3.92,2.69,3.84,4C3323.13,272,3326.51,278.59,3321.29,284.67Z"/><path d="M3397.87,281.74c3.78,6.31,7.62,12.58,11.24,19,.38.67-.53,2.07-.84,3.13-1-.39-2.45-.51-2.81-1.21-3.34-6.47-6.49-13-9.69-19.58Z"/><path d="M3387.58,304.06a70.35,70.35,0,0,1,8,1.27c1.64.44,3.08,1.64,4.6,2.5-.7,1.12-1.15,2.72-2.17,3.26-1.29.69-3,.52-5.27.82l2.24-5.5-7.47-1.78Z"/><polygon class="cls-3" points="3414.51 347.13 3381.88 354.13 3340.21 332.11 3328.27 395.23 3405.96 392.93 3414.51 347.13"/><polygon class="cls-2" points="1619.31 94.13 1619.31 44.44 1526.14 7.18 1504.4 196.62 1386.39 196.62 1249.74 339.47 1076.7 336.56 1082.3 559.24 858.44 488.54 802.54 395.38 740.43 438.85 572.72 712.14 0 1084.64 167.37 1084.64 603.9 756.29 752.66 450.37 800.51 420.02 848.94 523.55 1094.91 594.54 1107.77 371.19 1263.36 380.19 1388.71 220.03 1504.91 224.83 1548.12 47.27 1592.45 66.47 1608.35 112.97 1712.78 265.62 1719.96 250.99 1619.31 94.13"/><path class="cls-3" d="M3921.9,251,3821.24,94.13V44.44L3728.08,7.18l-21.74,189.44h-118L3451.68,339.47l-173-2.91,5.59,222.67-223.86-70.69-55.9-93.16-62.11,43.47-167.7,273.3-572.72,372.49h167.37l817.58.38L3706.5,741.54l-23.8-243.91,184.43-238,47.59,5.95h0Z"/><polygon class="cls-3" points="4001.66 94.13 4001.66 44.44 3908.49 7.18 3886.75 196.62 3768.74 196.62 3632.09 339.47 3459.05 336.56 3464.65 559.24 3240.79 488.54 3184.89 395.38 3122.78 438.85 2955.07 712.14 2382.35 1084.64 2549.72 1084.64 2986.25 756.29 3135.01 450.37 3182.86 420.02 3231.29 523.55 3477.26 594.54 3490.12 371.19 3645.71 380.19 3771.06 220.03 3887.26 224.83 3930.47 47.27 3974.8 66.47 3990.7 112.97 4095.13 265.62 4102.31 250.99 4001.66 94.13"/><polygon class="cls-1" points="3974.8 66.47 3930.47 47.27 3887.26 224.83 3771.06 220.03 3645.71 380.19 3490.12 371.19 3477.26 594.54 3231.29 523.55 3182.86 420.02 3135.01 450.37 2986.25 756.29 2549.72 1084.64 3367.3 1085.02 3886.91 741.54 3863.12 497.63 4047.54 259.67 4095.13 265.62 3990.7 112.97 3974.8 66.47"/><path class="cls-3" d="M4707.24,2,4265.53,0,4243,196.62H4125L3988.38,339.47l-173-2.91,5.6,222.67-223.86-70.69-55.9-93.16-62.11,43.47-167.7,273.3-572.73,372.49,1968.6-1.62Z"/><polygon class="cls-2" points="1719.96 250.99 1712.78 265.62 2201.21 1082 2328.53 1087.57 1719.96 250.99"/></g></g></svg>