<svg xmlns="http://www.w3.org/2000/svg" viewBox="0 0 1102.54 803"><defs><style>.cls-1{font-size:18.88px;fill:#3b3b3b;font-family:KCC-KP-KwangMyeong-Medium-KP-2011KPS, KP KwangMyeong;}.cls-2{fill:#d8d8d8;}.cls-3{fill:#bd0d1a;}</style></defs><g id="Layer_2" data-name="Layer 2"><g id="Layer_1-2" data-name="Layer 1"><text class="cls-1" transform="translate(670.09 494.33)">혜산<tspan x="0" y="22.65">Hyesan</tspan></text><polygon class="cls-2" points="177.42 780.64 157.08 788.02 139.53 771.99 180.07 741.5 188.11 761.41 177.42 780.64"/><polygon class="cls-2" points="656.81 528.99 640.62 523.62 640.62 523.62 644.78 476.56 667.69 504.94 656.81 528.99"/><polygon class="cls-2" points="70.53 756.5 0 688.75 80.67 584.62 204.04 595.26 220.95 658.67 70.53 756.5"/><polygon class="cls-2" points="602.14 441.29 499.7 454.12 637.49 497.63 640.58 390.11 602.14 441.29"/><polygon class="cls-2" points="965.68 222.47 954.8 259.26 979.92 335.87 1011.63 294.95 965.68 222.47"/><polygon class="cls-2" points="968.02 211.36 993.76 244.67 1102.54 0 939.37 0 939.37 169.32 968.02 180.78 968.02 211.36"/><text class="cls-1" transform="translate(1008.56 195.03)">훈춘<tspan x="0" y="22.65">Hunchun</tspan></text><text class="cls-1" transform="translate(64.86 682.54)">단둥<tspan x="-43.28" y="22.65">Dandong</tspan></text><text class="cls-1" transform="translate(557.56 431.28)">창바이<tspan x="-29.23" y="22.65">Changbai</tspan></text><rect class="cls-3" x="986.96" y="203.79" width="11.8" height="11.8"/><rect class="cls-3" x="615.93" y="463.92" width="11.8" height="11.8"/><rect class="cls-3" x="110.47" y="698.57" width="11.8" height="11.8"/><rect class="cls-3" x="162.14" y="760.8" width="11.8" height="11.8"/><rect class="cls-3" x="648.18" y="502.91" width="11.8" height="11.8"/><rect class="cls-3" x="966.85" y="259.18" width="11.8" height="11.8"/><text class="cls-1" transform="translate(928.7 295.92)">라선<tspan x="-18.27" y="22.65">Rason</tspan></text><text class="cls-1" transform="translate(183.5 777.7)">신의주<tspan x="0" y="22.65">Sinuiju</tspan></text></g></g></svg>