<svg xmlns="http://www.w3.org/2000/svg" viewBox="0 0 1361.14 821.23"><defs><style>.cls-1{fill:#e9d39a;}.cls-2{fill:#fff;}.cls-3{fill:#073861;}</style></defs><g id="Layer_2" data-name="Layer 2"><g id="Layer_1-2" data-name="Layer 1"><polygon class="cls-1" points="177.86 151.16 154.93 72.04 206.08 5 448.11 5 362.68 47.04 381.41 134.78 318.17 165.02 177.86 151.16"/><path class="cls-2" d="M426.63,10,364,40.84l-7,3.44,1.62,7.62L375.7,132l-58.43,27.94-135.55-13.4L160.43,73.07,208.56,10H426.63m43-10h-266L149.42,71,174,155.8l145.07,14.34,68.05-32.55L368.38,49.81,469.59,0Z"/><polygon class="cls-1" points="6.17 5 193.5 5 146.22 66.97 30.24 118.67 6.17 5"/><path class="cls-2" d="M183.4,10,143,62.92,33.85,111.59,12.34,10H183.4M203.61,0H0L26.63,125.75,149.42,71,203.61,0Z"/><polygon class="cls-1" points="391.84 135.73 374.09 52.58 470.76 5 712.62 5 713.5 58.58 632.75 58.62 632.75 133 535.99 200.07 535.99 281.74 561.02 305.85 524.6 356.36 391.84 135.73"/><path class="cls-2" d="M707.7,10l.72,43.58-70.67,0h-10v76.76l-92.46,64.09-4.3,3v86.42l3.06,2.95,20.38,19.63L525,347.28,396.55,133.87,379.79,55.34,471.92,10H707.7m9.83-10H469.59L368.38,49.81l18.74,87.78,137.1,227.83,43.4-60.16L541,279.62V202.69l96.76-67.07v-72l80.84,0L717.53,0Z"/><polygon class="cls-1" points="326.04 346.93 244.06 272.84 222.91 292.47 179.39 262.87 207.31 252.8 180.85 161.5 319.97 175.25 385.18 144.06 514.61 359.16 395.05 343.93 326.04 398.05 326.04 346.93"/><path class="cls-2" d="M383.24,150.53,505,352.9,397.76,339.23l-4.15-.53-3.29,2.58L331,387.78V344.71l-3.29-3L250.81,272.2,244,266.05l-6.72,6.24L222.43,286.1l-32.12-21.85,14.29-5.15,8.82-3.18-2.61-9-23.1-79.71,130.37,12.89,2.78.27,2.52-1.2,59.86-28.63m3.88-12.94-68.05,32.55L174,155.8l27.21,93.89-32.74,11.8,54.93,37.36,20.71-19.23L321,349.15v59.18l75.45-59.18,127.73,16.27L387.12,137.59Z"/><polygon class="cls-1" points="751.14 447.49 751.14 403.23 680.7 431.4 531.84 363.41 574.21 304.67 545.99 277.49 545.99 205.3 642.75 138.24 642.75 68.61 718.68 68.58 795.36 65.79 826.45 157.65 826.45 201.23 859.02 225.77 780.49 369.09 821.07 414.24 784.85 457.35 751.14 447.49"/><path class="cls-2" d="M791.82,70.92l29.63,87.55v45.26l4,3,27.12,20.43L777.81,363.58l-3.41,6.22,4.74,5.27,35.31,39.28-31.33,37.29-27-7.9v-47.9l-13.72,5.49L680.83,426,539.46,361.39l36.27-50.28,5.07-7-6.25-6L551,275.36V207.92l92.46-64.08,4.3-3V73.61l70.84,0H719l72.87-2.65m7.08-10.26-80.31,2.92-80.84,0v72L541,202.69v76.93l26.63,25.64-43.4,60.16,156.35,71.42,65.57-26.23v40.62l40.44,11.84,41.11-48.94-41.11-45.75,78.9-144-34-25.64V156.82L798.9,60.66Z"/><polygon class="cls-1" points="401.49 401.22 401.49 354.83 519.75 369.9 530.66 454.94 457.15 511.41 401.49 401.22"/><path class="cls-2" d="M406.49,360.51l108.79,13.86,10.06,78.35-66.45,51L406.49,400V360.51m-10-11.36v53.26L455.4,519.06,536,457.15l-11.77-91.73L396.49,349.15Z"/><polygon class="cls-1" points="849.17 515.26 877.89 494.88 870.13 453.86 792.66 367.68 871.94 222.99 836.45 196.25 836.45 160.95 874.92 153.56 874.92 94.4 919 65.01 925.72 134.92 968.99 197.59 993.92 267.3 1057.93 253.5 1045.84 202.47 1141.96 155.79 1167.92 192.92 1206.52 150.53 1215.91 229.72 1295.98 266.69 1354.52 255.98 1327.24 372.07 1234.88 407.7 1251.33 453.81 1213.68 401.56 1213.68 369.25 1147.19 342.65 1133.6 461.16 1063.41 461.16 977.61 549.25 884.43 556.41 849.17 515.26"/><polygon class="cls-3" points="849.17 515.26 877.89 494.88 870.13 453.86 792.66 367.68 871.94 222.99 836.45 196.25 836.45 160.95 874.92 153.56 874.92 94.4 919 65.01 925.72 134.92 968.99 197.59 993.92 267.3 1057.93 253.5 1045.84 202.47 1141.96 155.79 1167.92 192.92 1206.52 150.53 1215.91 229.72 1295.98 266.69 1354.52 255.98 1327.24 372.07 1234.88 407.7 1251.33 453.81 1213.68 401.56 1213.68 369.25 1147.19 342.65 1133.6 461.16 1063.41 461.16 977.61 549.25 884.43 556.41 849.17 515.26"/><path class="cls-2" d="M914.82,73.81l5.8,60.3.25,2.58,1.48,2.14,42.16,61.06,23.22,65,3,8.26,8.57-1.85L1054,259.47l10-2.15-2.35-9.94-10-42.16,88.68-43.07,19.93,28.51,7.17,10.26,8.42-9.26,27-29.66,7.78,65.53.66,5.56,5.08,2.35,76.09,35.12,2.87,1.33,3.12-.57,49.47-9L1323,368.35l-85.35,32.93-9.1,3.51,3.28,9.19,3,8.29-16.09-22.33V365.86l-6.29-2.51-57.26-22.91L1143,335.58l-1.49,13-12.34,107.57H1061.3l-2.94,3-83,85.23-88.76,6.83-30.05-35.07,21.64-15.36,5.23-3.71-1.19-6.3-6.9-36.49-.52-2.75-1.87-2.08-37.79-42L798.75,367l75.5-137.78,4.16-7.59-6.91-5.2-30-22.65V165.08l30.36-5.83,8.11-1.56V97.08l34.9-23.27m8.36-17.59L869.92,91.73v57.69l-38.47,7.4v41.92l34,25.64-78.9,144,41.11,45.75,37.79,42,6.9,36.5-30.57,21.7,40.48,47.24,97.58-7.51,85.65-87.93h72.53l13.37-116.43,57.26,22.9v30.54l59.21,82.17-26.66-74.73,90.28-34.83,29.63-126.09-64.5,11.8-76.09-35.13-10.36-87.29-41.76,45.86-24.81-35.51-103.57,50.31,11.84,50-54.74,11.8-23.67-66.2-42.9-62.14-7.4-76.93Z"/><polygon class="cls-1" points="744.35 641.38 708.21 581.14 664.79 611.54 636.57 657.53 598.64 587.62 657.2 539.91 684.73 440.56 741.14 418 741.14 454.98 788.3 468.78 827.82 421.75 860.83 458.47 866.87 490.44 834.45 513.45 877.23 563.38 873.82 682.26 744.35 641.38"/><path class="cls-2" d="M736.14,425.38v33.35l7.19,2.1,40.44,11.84L790,474.5l4.2-5L828,429.37l28.22,31.4,5.2,27.44L836,506.2l-8.94,6.34,7.13,8.32,38,44.31L869,675.5,747.67,637.18l-32.41-54-5.52-9.2L701,580.13l-38.17,26.72L661.07,608,660,609.81l-23.15,37.72L605,588.87l54.11-44.08,2.47-2,.85-3.07,26.43-95.42,47.26-18.91m10-14.77-65.57,26.23L652.81,537l-60.54,49.32,44,81.16L668.51,615l38.17-26.72L741,645.58,878.63,689l3.66-127.43-40.48-47.24,30.57-21.7-6.9-36.5-37.79-42-41.11,48.94-40.44-11.84V410.61Z"/><polygon class="cls-1" points="542.31 737.36 464.59 580.48 500.02 543.88 473.54 543.88 461.74 520.5 541.31 459.37 530.32 373.71 674.61 439.62 648.42 534.17 585.9 585.1 630.53 667.37 561.77 779.43 516.44 808.91 542.31 737.36"/><path class="cls-2" d="M536.43,382l132.22,60.4L644,531.3,586,578.6l-6.43,5.24,4,7.28,41.28,76.1L558.1,775.85l-31.89,20.74,20.08-55.52,1.45-4-1.9-3.82L470.63,581.42l24.77-25.59,16.42-17h-35.2l-8.56-16.94,74-56.86,4.56-3.5-.74-5.7L536.43,382m-12.21-16.57L536,457.15,455.4,519.06l15.07,29.82h17.75l-29.68,30.65,78.34,158.14-30.21,83.56L565.44,783,636.3,667.52l-44-81.16L652.81,537l27.76-100.2L524.22,365.42Z"/></g></g></svg>