<svg xmlns="http://www.w3.org/2000/svg" viewBox="0 0 962.73 1113.8"><defs><style>.cls-1{fill:#fff;}</style></defs><g id="Layer_2" data-name="Layer 2"><g id="Layer_1-2" data-name="Layer 1"><polygon class="cls-1" points="912.11 32.44 902.67 11.8 875.42 0 848.87 109.13 777.45 106.18 696.22 193.18 604.78 199.08 592.25 340.6 445.7 292.72 443.61 287.53 416.38 219.92 399.94 235.25 386.53 247.75 295.1 435.77 40.72 627.11 32.91 632.59 5.73 651.7 146.89 719.34 97.93 898.88 0 1029.45 154.02 1108.45 261.14 1086.57 315.6 1113.8 420.28 996.8 595.74 996.8 636.43 925.11 630.42 909.08 463.12 798.91 493.73 678.53 854.84 439.83 838.52 272.54 962.73 112.27 961.87 110.92 912.11 32.44"/></g></g></svg>