<svg xmlns="http://www.w3.org/2000/svg" viewBox="0 0 1183.27 718.5"><defs><style>.cls-1{font-size:24.48px;fill:#3b3b3b;font-family:KCC-KP-KwangMyeong-Medium-KP-2011KPS, KP KwangMyeong;}.cls-2{fill:#bd0d1a;}</style></defs><g id="Layer_2" data-name="Layer 2"><g id="Layer_1-2" data-name="Layer 1"><text class="cls-1" transform="translate(118.99 646.32)">관뎬</text><rect class="cls-2" x="178.16" y="667.11" width="15.3" height="15.3"/><text class="cls-1" transform="translate(0 399.75)">싱징</text><rect class="cls-2" x="59.17" y="420.53" width="15.3" height="15.3"/><text class="cls-1" transform="translate(179.51 123.58)">류허</text><rect class="cls-2" x="238.67" y="144.37" width="15.3" height="15.3"/><text class="cls-1" transform="translate(198.42 21.01)">하이룽</text><rect class="cls-2" x="282.07" y="41.79" width="15.3" height="15.3"/><text class="cls-1" transform="translate(215.25 492.26)">환련</text><rect class="cls-2" x="274.42" y="513.05" width="15.3" height="15.3"/><text class="cls-1" transform="translate(270.49 402.49)">퉁화</text><rect class="cls-2" x="329.65" y="423.28" width="15.3" height="15.3"/><text class="cls-1" transform="translate(384.9 682.41)">지안<tspan x="1.15" y="29.38">Jian</tspan></text><rect class="cls-2" x="444.06" y="703.2" width="15.3" height="15.3"/><text class="cls-1" transform="translate(550.48 452.34)">린장</text><rect class="cls-2" x="609.64" y="473.13" width="15.3" height="15.3"/><text class="cls-1" transform="translate(759.41 256.47)">푸쑹</text><rect class="cls-2" x="818.57" y="277.26" width="15.3" height="15.3"/><text class="cls-1" transform="translate(1016.01 292.56)">허룽</text><rect class="cls-2" x="1075.18" y="313.35" width="15.3" height="15.3"/><text class="cls-1" transform="translate(872.01 39.05)">둔화</text><rect class="cls-2" x="931.18" y="59.84" width="15.3" height="15.3"/><text class="cls-1" transform="translate(1051.49 194.33)">옌지</text><rect class="cls-2" x="1110.65" y="215.11" width="15.3" height="15.3"/><text class="cls-1" transform="translate(1108.8 67.49)">왕칭</text><rect class="cls-2" x="1167.97" y="88.28" width="15.3" height="15.3"/></g></g></svg>