<svg xmlns="http://www.w3.org/2000/svg" viewBox="0 0 643.6 261.49"><defs><style>.cls-1{fill:#ccc;}.cls-2{fill:#fff;}</style></defs><g id="Layer_2" data-name="Layer 2"><g id="Layer_1-2" data-name="Layer 1"><polygon class="cls-1" points="507.65 222.99 496.33 127.61 451.42 176.94 427.74 143.06 316.73 196.98 328.31 245.88 282.85 255.67 260.43 192.99 217.89 131.38 209.82 47.42 147.38 89.05 147.38 145.29 117.26 151.09 84.91 55.53 5.97 58.4 5.08 5 600.01 5 638.6 120.65 638.6 245.52 579.76 256.28 507.65 222.99"/><polygon class="cls-1" points="507.65 222.99 496.33 127.61 451.42 176.94 427.74 143.06 316.73 196.98 328.31 245.88 282.85 255.67 260.43 192.99 217.89 131.38 209.82 47.42 147.38 89.05 147.38 145.29 117.26 151.09 84.91 55.53 5.97 58.4 5.08 5 600.01 5 638.6 120.65 638.6 245.52 579.76 256.28 507.65 222.99"/><path class="cls-2" d="M596.41,10,633.6,121.46V241.35l-53.18,9.73-68.14-31.46-9.69-81.73L500,116.14l-14.75,16.2L451.93,169,434.28,143.7l-4.89-7-7.68,3.73-103.56,50.3-7.21,3.5,1.85,7.8,9.48,40-36.19,7.8-20.72-57.94-.44-1.23-.75-1.08-41.42-60L215.6,55.26,214,38.63,200.1,47.9,146.84,83.41l-4.46,3v54.79l-21.79,4.19L90.84,57.45l-2.39-7.06L81,50.66,10.88,53.21,10.17,10H596.41m7.21-10H0L1.05,63.58l80.32-2.92,32.55,96.16,38.46-7.4V91.73l53.26-35.51,7.4,76.93L256,195.29l23.67,66.2,54.74-11.8-11.84-50,103.56-50.31,24.82,35.51,41.76-45.86L503,226.36l76.1,35.13,64.49-11.8V119.84L603.62,0Z"/></g></g></svg>