<svg xmlns="http://www.w3.org/2000/svg" xmlns:xlink="http://www.w3.org/1999/xlink" viewBox="0 0 2042.3 1083.29"><defs><style>.a,.ak,.al,.am,.an,.ao,.q{fill:none;}.b{clip-path:url(#a);}.c{fill:#d8d8d8;}.d{fill:#070a11;}.e{font-size:68.75px;fill:#b1b1b1;}.ad,.e,.h,.k{font-family:Prohibition-Regular, Prohibition;}.f{letter-spacing:-0.02em;}.g,.h{font-size:72px;}.ad,.g,.h,.j,.k{fill:#1e1e1e;}.g,.j{font-family:KCC-KP-CheonRiMa-Bold-KP-2011KPS, KP CheonRiMa B;}.i{font-size:22px;font-family:MapoFlowerIsland-KSCpc-EUC-H, MapoFlowerIsland;}.ad,.j,.k{font-size:24px;}.l{letter-spacing:-0.08em;}.ad,.m{letter-spacing:-0.01em;}.n{letter-spacing:-0.15em;}.o{letter-spacing:0em;}.p{letter-spacing:-0.02em;}.q{stroke:#1e1e1e;stroke-width:10px;}.ak,.al,.am,.an,.ao,.q,.w,.x{stroke-miterlimit:10;}.r{fill:url(#b);}.s{font-size:18px;fill:#6c6c6c;font-family:MapoGoldenPier-KSCpc-EUC-H, MapoGoldenPier;}.t{letter-spacing:-0.02em;}.u{letter-spacing:-0.02em;}.v{letter-spacing:0em;}.w,.y{fill:#fff;}.w,.x{stroke:#1263a4;}.w{stroke-width:9px;}.x{fill:#1263a4;}.z{letter-spacing:-0.02em;}.aa{fill:url(#c);}.ab{fill:url(#d);}.ac{letter-spacing:-0.02em;}.ae{letter-spacing:0em;}.af{fill:url(#e);}.ag{fill:url(#f);}.ah{fill:url(#g);}.ai{fill:url(#h);}.aj{fill:url(#i);}.ak{stroke:#d8d8d8;}.ak,.al,.am,.an,.ao{stroke-width:40px;}.al{stroke:url(#j);}.am{stroke-dasharray:4.8 4.8;stroke:url(#k);}.an{stroke:url(#l);}.ao{stroke:url(#m);}</style><clipPath id="a"><rect class="a" width="1920" height="1080"/></clipPath><linearGradient id="b" x1="-338.22" y1="-1012.46" x2="-309.35" y2="-1012.46" gradientTransform="matrix(2.39, 1.95, -0.97, 1.19, 904.19, 2428.1)" gradientUnits="userSpaceOnUse"><stop offset="0" stop-color="#073861"/><stop offset="1" stop-color="#1263a4"/></linearGradient><linearGradient id="c" x1="1601.32" y1="369.92" x2="1652.94" y2="369.92" gradientUnits="userSpaceOnUse"><stop offset="0" stop-color="#d7a56a"/><stop offset="1" stop-color="#e9d39a"/></linearGradient><linearGradient id="d" x1="1601.32" y1="129.88" x2="1652.94" y2="129.88" gradientUnits="userSpaceOnUse"><stop offset="0" stop-color="#bd0d1a"/><stop offset="1" stop-color="#dd4830"/></linearGradient><linearGradient id="e" x1="1601.32" y1="282.45" x2="1652.94" y2="282.45" gradientTransform="matrix(1, 0, 0, 1, 0, 0)" xlink:href="#b"/><linearGradient id="f" x1="809.93" y1="526.7" x2="1379.17" y2="526.7" xlink:href="#d"/><linearGradient id="g" x1="1075.27" y1="474.02" x2="1166.95" y2="474.02" xlink:href="#c"/><linearGradient id="h" x1="1216.26" y1="604.46" x2="1401.41" y2="604.46" xlink:href="#d"/><linearGradient id="i" x1="1269.85" y1="597.62" x2="1346" y2="597.62" xlink:href="#c"/><linearGradient id="j" x1="1185.1" y1="499.27" x2="1269.93" y2="577.56" gradientTransform="matrix(1, 0, 0, 1, 0, 0)" xlink:href="#b"/><linearGradient id="k" x1="1185.1" y1="499.27" x2="1269.93" y2="577.56" gradientTransform="matrix(1, 0, 0, 1, 0, 0)" xlink:href="#b"/><linearGradient id="l" x1="1185.1" y1="499.27" x2="1269.93" y2="577.56" gradientTransform="matrix(1, 0, 0, 1, 0, 0)" xlink:href="#b"/><linearGradient id="m" x1="1082.41" y1="547.12" x2="1235.34" y2="547.12" gradientTransform="matrix(0.58, 0.28, 0.28, 0.53, 364.54, -42.84)" xlink:href="#b"/></defs><g class="b"><polygon class="c" points="0 0 1920 0.76 1490.48 321.94 934.21 869.34 667.9 1083.29 135.92 1083.29 0 665.18 0 0"/><polygon class="c" points="1540.15 397.85 1888.94 692.79 1758.75 1014.33 1335.49 1063.64 1132.96 831.85 1198.9 764.22 1232.07 605.89 1288.07 527.57 1430.64 553.85 1540.15 397.85"/><rect class="d" x="162.69" y="619.66" width="43.89" height="97.44" transform="translate(-483.74 853.02) rotate(-90)"/><polygon points="1941.63 0 1457.94 178.01 1309.39 406.35 1035.62 608.92 713.98 886.37 576.13 1080.76 887.8 1083.29 1198.9 764.22 1232.07 605.89 1288.07 527.57 1430.64 553.85 1702.24 166.96 2042.3 0 1941.63 0"/><text class="e" transform="translate(1004.82 266.32)"><tspan class="f">D</tspan><tspan x="31.21" y="0">andong</tspan></text><text class="e" transform="translate(1444.21 821.11)">SINUIJU</text><text class="g" transform="translate(127.78 176.31)">신의주</text><text class="h" transform="translate(135.92 257.09)">Sinuiju</text><path d="M383,202.34h0c-.8-.06-9.8,0-10.61,0l-.11-.4c0-.11,2-.18,2-1V189c0-.86-2-.93-2-1l.11-.42c.81.07,3.87.07,4.69,0l.11.42c0,.11-1.85.18-1.87,1v12.27a.28.28,0,0,0,.26.31h5.94c.84,0,1-2.37,1.1-2.37l.51.06C383,199.92,383,201.64,383,202.34Z"/><path d="M384.93,197.92c0-2.84,1.89-5.13,4.73-5.13,2.53,0,4.42,2,4.42,5s-1.85,5-4.69,5C386.77,202.81,384.93,200.87,384.93,197.92Zm8,0c0-2.61-1.41-4.53-3.5-4.53s-3.41,1.87-3.41,4.38,1.36,4.4,3.54,4.4C391.57,202.19,393,200.45,393,197.94Z"/><path d="M400.92,202.83c-3,0-4.84-2-4.75-5a4.89,4.89,0,0,1,5.06-5,4.16,4.16,0,0,1,3,1.17c0,.37-.2,1-.57,1s-.35-.44-.57-.75a2.59,2.59,0,0,0-2-.79c-2.55,0-3.82,2.07-3.8,4.62s1.47,4.2,3.74,4.2a5,5,0,0,0,3.1-1.12l.4.4A5.3,5.3,0,0,1,400.92,202.83Z"/><path d="M414.39,202l-.09.44a5.13,5.13,0,0,1-.88.07,1.26,1.26,0,0,1-.73-.22c-.33-.27-.28-.82-.28-1.92l0-3.1a15,15,0,0,0-3.33.77c-1.21.48-2,1.12-2,2.18A1.76,1.76,0,0,0,409,202a5,5,0,0,0,2.95-1.19l.15.33a5.29,5.29,0,0,1-3.39,1.57,2.48,2.48,0,0,1-2.61-2.38c0-1.34,1-2.29,2.55-2.86a16,16,0,0,1,3.83-.81v-.71a2.21,2.21,0,0,0-2.22-2.44,3.71,3.71,0,0,0-2.56.92c-.22.31-.35.86-.64.86s-.52-.75-.52-1.12a5.73,5.73,0,0,1,3.72-1.37,3,3,0,0,1,3.21,3.13v.35l0,4.12a3.6,3.6,0,0,0,.1,1.34A1.68,1.68,0,0,0,414.39,202Z"/><path d="M422.2,201.73a4.93,4.93,0,0,1-2.8,1.08c-.66,0-1.52-.6-1.52-1.26v-7.88h-1.52v-.46a2.6,2.6,0,0,0,1.5-.72,6.3,6.3,0,0,0,.51-2.18h.52V193h2.82v.72h-2.82v7.09c0,.64,0,1.21.73,1.21a5.23,5.23,0,0,0,2.33-.62Z"/><path d="M428.75,192.79A4,4,0,0,1,432.8,197l-7,.83,0-.66,5.64-.7c.17,0,.22-.11.19-.31a3,3,0,0,0-3.05-2.71c-2.2,0-3.44,2-3.41,4.4s1.4,4.36,3.74,4.36a5,5,0,0,0,3.1-1.12l.39.39a5.21,5.21,0,0,1-3.58,1.35c-3,0-4.8-2-4.73-5C424.15,194.93,426,192.79,428.75,192.79Z"/><path d="M444.15,202l-.09.44a5,5,0,0,1-.88.07,1.23,1.23,0,0,1-.72-.22c-.33-.27-.29-.82-.29-1.92v-5.15a3.32,3.32,0,0,0-2.73-1.54c-2.2,0-3.56,2.18-3.56,4.38s1.38,3.85,3,3.85a3.1,3.1,0,0,0,2.53-1.16l.22.46a3.58,3.58,0,0,1-3,1.52c-1.91,0-3.87-1.79-3.87-4.78a4.8,4.8,0,0,1,4.57-4.88,4.29,4.29,0,0,1,2.82,1.05v-5.63a.52.52,0,0,0-.53-.57,2.9,2.9,0,0,0-1,.15l-.19-.39,2-1a.83.83,0,0,1,.68.33v13.42a3.36,3.36,0,0,0,.11,1.3A1.62,1.62,0,0,0,444.15,202Z"/><path d="M457.33,202l-.11.4a27.07,27.07,0,0,0-3.37,0l-.11-.4c0-.11,1.37-.2,1.39-1v-6.36a.53.53,0,0,0-.53-.58,2.91,2.91,0,0,0-1,.16l-.2-.4,2-1c.17-.06.68.22.68.33v7.82C456.14,201.77,457.33,201.86,457.33,202Zm-3.06-12.32c.07-.46.2-1.06.62-1.26a.89.89,0,0,1,1.16.38.87.87,0,0,1-.37,1.14A1.59,1.59,0,0,1,454.27,189.65Z"/><path d="M463.42,202l-.11.4a26.91,26.91,0,0,0-3.36,0l-.11-.4c0-.11,1.36-.2,1.38-1v-6.36a.53.53,0,0,0-.53-.58,2.86,2.86,0,0,0-1,.16l-.2-.4,2-1c.18-.06.68.22.68.33v7.82C462.23,201.77,463.42,201.86,463.42,202Zm7,0-.11.4a25.64,25.64,0,0,0-3.28,0l-.13-.4c0-.11,1.18-.2,1.21-1v-5.09a2.22,2.22,0,0,0-2.38-1.91,3.72,3.72,0,0,0-2.73,1.39l-.22-.47a4.1,4.1,0,0,1,3.17-1.8,2.91,2.91,0,0,1,3.15,2.77v5.11C469.1,201.77,470.4,201.86,470.4,202Z"/><path d="M494,187.93c0,.11-1.93.18-1.95,1v13.4h-.62l0-.05v.05l-9.31-13v11.6c0,.85,2,.92,2,1l-.11.4c-.81-.07-3.7-.07-4.51,0l-.11-.4c0-.11,1.85-.18,1.87-1V189c0-.84-1.87-.93-1.87-1l0-.44a24.86,24.86,0,0,0,2.73,0l9.07,12.7V189c0-.86-1.94-.93-1.94-1l.11-.42c.81.07,3.72.07,4.51,0Z"/><path d="M495.65,197.92c0-2.84,1.89-5.13,4.73-5.13,2.53,0,4.43,2,4.43,5s-1.85,5-4.69,5C497.5,202.81,495.65,200.87,495.65,197.92Zm8,0c0-2.61-1.41-4.53-3.5-4.53s-3.41,1.87-3.41,4.38,1.37,4.4,3.55,4.4C502.3,202.19,503.68,200.45,503.68,197.94Z"/><path d="M510.79,202l-.11.4a27.07,27.07,0,0,0-3.37,0l-.11-.4c0-.11,1.37-.2,1.39-1v-6.36a.53.53,0,0,0-.53-.58,2.91,2.91,0,0,0-1,.16l-.2-.4,2-1c.17-.06.68.22.68.33v7.82C509.6,201.77,510.79,201.86,510.79,202Zm2.4-7.33c-.29.05-.47-.64-.73-.61a6.87,6.87,0,0,0-2.11,1.25l-.16-.44a7,7,0,0,1,2.29-1.8,1.52,1.52,0,0,1,1.48.37C514.05,193.72,513.78,194.56,513.19,194.64Z"/><path d="M521.24,201.73a4.93,4.93,0,0,1-2.8,1.08c-.66,0-1.51-.6-1.51-1.26v-7.88h-1.52v-.46a2.57,2.57,0,0,0,1.49-.72,6.3,6.3,0,0,0,.51-2.18h.53V193h2.81v.72h-2.81v7.09c0,.64,0,1.21.72,1.21a5.31,5.31,0,0,0,2.34-.62Z"/><path d="M526.91,202l-.11.4a26.91,26.91,0,0,0-3.36,0l-.11-.4c0-.11,1.36-.2,1.38-1V188.46a.51.51,0,0,0-.52-.57,2.84,2.84,0,0,0-1,.15l-.2-.39,2-1a.83.83,0,0,1,.68.33v13.93C525.73,201.77,526.91,201.86,526.91,202Zm7,0-.11.4a25.64,25.64,0,0,0-3.28,0l-.13-.4c0-.11,1.19-.2,1.21-1v-5.09a2.21,2.21,0,0,0-2.38-1.91,3.72,3.72,0,0,0-2.73,1.39l-.22-.47a4.1,4.1,0,0,1,3.17-1.8,2.91,2.91,0,0,1,3.15,2.77v5.11C532.59,201.77,533.89,201.86,533.89,202Z"/><path d="M554.35,191.85c0,2.86-2.44,4.4-5.43,4.4a6.67,6.67,0,0,1-1.83-.18l.24-.53a8.47,8.47,0,0,0,1.39.05c2.5-.09,4.51-1.19,4.53-3.7s-1.83-3.69-4.49-3.69a9.36,9.36,0,0,0-2.66.3v12.44c0,.85,2.09.92,2.09,1l-.13.4c-.8-.07-4.07-.07-4.87,0l-.13-.4c0-.11,2-.18,2-1V189.1c0-.86-2-1.06-2-1.17l.05-.42c.7.07,2.31.11,2.92.09s2-.09,3.08-.09C552.19,187.51,554.37,189,554.35,191.85Z"/><path d="M566,193.41c0,.11-1,.2-1.39,1h0L559,206.24a10.7,10.7,0,0,1-.7,1.19,2.14,2.14,0,0,1-1.52.88,1.12,1.12,0,0,1-.68-.22A1.46,1.46,0,0,1,556,207c.09-.24.42-.07.62,0,.39.22.73.33,1,.11a3.92,3.92,0,0,0,.64-.92l2.2-4.62-3.28-7.2c-.44-.81-1.34-.9-1.34-1l.11-.4a19.77,19.77,0,0,0,2.88,0l.13.4c0,.11-1.14.22-.79,1l2.77,6.12,3-6.21c.2-.7-.9-.81-.9-.92l.11-.4a19,19,0,0,0,2.82,0Z"/><path d="M567.53,197.92c0-2.84,1.89-5.13,4.73-5.13,2.53,0,4.42,2,4.42,5s-1.85,5-4.69,5C569.37,202.81,567.53,200.87,567.53,197.92Zm8,0c0-2.61-1.41-4.53-3.5-4.53s-3.41,1.87-3.41,4.38,1.36,4.4,3.54,4.4C574.17,202.19,575.56,200.45,575.56,197.94Z"/><path d="M582.66,202l-.11.4a27.07,27.07,0,0,0-3.37,0l-.11-.4c0-.11,1.37-.2,1.39-1v-6.36a.53.53,0,0,0-.53-.58,3,3,0,0,0-1,.16l-.19-.4,2-1c.17-.06.68.22.68.33v7.82C581.47,201.77,582.66,201.86,582.66,202Zm7,0-.11.4a25.64,25.64,0,0,0-3.28,0l-.13-.4c0-.11,1.18-.2,1.21-1v-5.09a2.22,2.22,0,0,0-2.38-1.91,3.7,3.7,0,0,0-2.73,1.39l-.22-.47a4.1,4.1,0,0,1,3.17-1.8,2.91,2.91,0,0,1,3.15,2.77v5.11C588.34,201.77,589.64,201.86,589.64,202Z"/><path d="M600.17,203.31c0,2.27-3.3,3.3-5.63,3.26-1.78,0-3.3-1.32-3-2a6.15,6.15,0,0,1,2.27-2.29l.3.11a6,6,0,0,0-1.43,1.9c-.31.68,1,1.65,2.58,1.65,1.8,0,4-.73,4-2.31a1.55,1.55,0,0,0-1.14-1.43,33.08,33.08,0,0,0-4.47-.22c-.79-.09-1.59-1.08-1.39-1.46a5.69,5.69,0,0,1,1.37-1.36l.3.2c-.26.37-.54.77-.72,1.08s-.09.55.62.66c.88.13,3,0,4.35.15A2,2,0,0,1,600.17,203.31Zm-8-7.41a3.41,3.41,0,0,1,3.65-3.19,3.25,3.25,0,0,1,1.45.33l0,0a1.46,1.46,0,0,0,.37.11c.36,0,1.94.07,2.47.09l-.05.51c-.24,0-.88,0-1.12,0s-.61.11-.48.26l0,0a3.21,3.21,0,0,1,.63,2.05,3.32,3.32,0,0,1-3.58,3.12A3.15,3.15,0,0,1,592.21,195.9Zm1.1.06a2.41,2.41,0,0,0,2.42,2.62A2.33,2.33,0,0,0,598,196a2.48,2.48,0,0,0-2.39-2.68A2.39,2.39,0,0,0,593.31,196Z"/><path d="M610.27,202l-.09.44a5,5,0,0,1-.88.07,1.23,1.23,0,0,1-.72-.22c-.33-.27-.29-.82-.29-1.92l0-3.1A15.09,15.09,0,0,0,605,198c-1.21.48-2,1.12-2,2.18a1.76,1.76,0,0,0,1.83,1.8,5,5,0,0,0,2.95-1.19l.15.33a5.34,5.34,0,0,1-3.39,1.57,2.48,2.48,0,0,1-2.62-2.38c0-1.34,1-2.29,2.56-2.86a16,16,0,0,1,3.82-.81v-.71a2.21,2.21,0,0,0-2.22-2.44,3.68,3.68,0,0,0-2.55.92c-.22.31-.35.86-.64.86s-.53-.75-.53-1.12a5.77,5.77,0,0,1,3.72-1.37,3,3,0,0,1,3.21,3.13v.35l0,4.12a3.55,3.55,0,0,0,.11,1.34A1.62,1.62,0,0,0,610.27,202Z"/><path d="M616.15,202l-.11.4a27.07,27.07,0,0,0-3.37,0l-.11-.4c0-.11,1.36-.2,1.39-1v-6.36a.53.53,0,0,0-.53-.58,2.87,2.87,0,0,0-1,.16l-.2-.4,2-1c.18-.06.69.22.69.33v7.82C615,201.77,616.15,201.86,616.15,202Zm7,0-.11.4a25.64,25.64,0,0,0-3.28,0l-.13-.4c0-.11,1.19-.2,1.21-1v-5.09a2.21,2.21,0,0,0-2.38-1.91,3.7,3.7,0,0,0-2.72,1.39l-.22-.47a4.06,4.06,0,0,1,3.16-1.8,2.91,2.91,0,0,1,3.15,2.77v5.11C621.82,201.77,623.12,201.86,623.12,202Z"/><path d="M643.58,191.85c0,2.86-2.44,4.4-5.43,4.4a6.67,6.67,0,0,1-1.83-.18l.24-.53a8.47,8.47,0,0,0,1.39.05c2.51-.09,4.51-1.19,4.53-3.7s-1.83-3.69-4.49-3.69a9.41,9.41,0,0,0-2.66.3v12.44c0,.85,2.09.92,2.09,1l-.13.4c-.79-.07-4.07-.07-4.87,0l-.13-.4c0-.11,2-.18,2-1V189.1c0-.86-2-1.06-2-1.17l.05-.42c.7.07,2.31.11,2.92.09s2-.09,3.08-.09C641.42,187.51,643.6,189,643.58,191.85Z"/><path d="M649.45,202l-.11.4a26.91,26.91,0,0,0-3.36,0l-.11-.4c0-.11,1.36-.2,1.38-1v-6.36a.53.53,0,0,0-.53-.58,2.86,2.86,0,0,0-1,.16l-.2-.4,2-1c.18-.06.68.22.68.33v7.82C648.26,201.77,649.45,201.86,649.45,202Zm2.4-7.33c-.28.05-.46-.64-.72-.61a7,7,0,0,0-2.12,1.25l-.15-.44a6.92,6.92,0,0,1,2.29-1.8,1.5,1.5,0,0,1,1.47.37C652.71,193.72,652.45,194.56,651.85,194.64Z"/><path d="M654.18,197.92c0-2.84,1.89-5.13,4.73-5.13,2.53,0,4.43,2,4.43,5s-1.85,5-4.69,5C656,202.81,654.18,200.87,654.18,197.92Zm8,0c0-2.61-1.41-4.53-3.5-4.53s-3.41,1.87-3.41,4.38,1.37,4.4,3.55,4.4C660.83,202.19,662.21,200.45,662.21,197.94Z"/><path d="M675.52,193.41c0,.11-1,.18-1.54,1l-3.41,8.23h-.66l-3.61-8.23c-.5-.77-1.54-.84-1.54-1l.14-.4a26.91,26.91,0,0,0,3.36,0l.11.4c0,.11-1.23.2-1,.88l3.12,7.17,2.84-7.13c.2-.7-1-.81-1-.92l.1-.4a23.78,23.78,0,0,0,3,0Z"/><path d="M681,202l-.11.4a27.07,27.07,0,0,0-3.37,0l-.11-.4c0-.11,1.36-.2,1.39-1v-6.36a.53.53,0,0,0-.53-.58,2.91,2.91,0,0,0-1,.16l-.2-.4,2-1c.18-.06.69.22.69.33v7.82C679.77,201.77,681,201.86,681,202Zm-3.06-12.32c.06-.46.2-1.06.61-1.26a.9.9,0,0,1,1.17.38.87.87,0,0,1-.37,1.14A1.58,1.58,0,0,1,677.9,189.65Z"/><path d="M687.05,202l-.11.4a27.07,27.07,0,0,0-3.37,0l-.11-.4c0-.11,1.37-.2,1.39-1v-6.36a.53.53,0,0,0-.53-.58,3,3,0,0,0-1,.16l-.19-.4,2-1c.17-.06.68.22.68.33v7.82C685.86,201.77,687.05,201.86,687.05,202Zm7,0-.1.4a25.64,25.64,0,0,0-3.28,0l-.14-.4c0-.11,1.19-.2,1.21-1v-5.09a2.21,2.21,0,0,0-2.37-1.91,3.7,3.7,0,0,0-2.73,1.39l-.22-.47a4.1,4.1,0,0,1,3.17-1.8,2.9,2.9,0,0,1,3.14,2.77v5.11C692.73,201.77,694,201.86,694,202Z"/><path d="M700.65,202.83c-3,0-4.84-2-4.76-5a4.89,4.89,0,0,1,5.06-5,4.18,4.18,0,0,1,3,1.17c0,.37-.2,1-.57,1s-.36-.44-.58-.75a2.55,2.55,0,0,0-2-.79c-2.55,0-3.83,2.07-3.81,4.62s1.48,4.2,3.74,4.2a5,5,0,0,0,3.11-1.12l.39.4A5.25,5.25,0,0,1,700.65,202.83Z"/><path d="M710.66,192.79a4,4,0,0,1,4.05,4.19l-7.05.83.05-.66,5.63-.7c.18,0,.22-.11.2-.31a3,3,0,0,0-3.06-2.71c-2.2,0-3.43,2-3.41,4.4s1.41,4.36,3.74,4.36a5,5,0,0,0,3.1-1.12l.4.39a5.25,5.25,0,0,1-3.59,1.35c-3,0-4.79-2-4.73-5C706.06,194.93,707.88,192.79,710.66,192.79Z"/><path d="M717.7,201.46a.93.93,0,0,1,1.16-.3c.75.35.66,1.34.49,2a3.91,3.91,0,0,1-1.26,2.14l-.24-.2c.48-.49,1-2,.59-2.29a1,1,0,0,1-.7-.35A.9.9,0,0,1,717.7,201.46Z"/><path d="M376.85,229.23c-3,0-4.84-2-4.75-5a4.89,4.89,0,0,1,5.06-5,4.14,4.14,0,0,1,3,1.17c0,.37-.19,1-.57,1s-.35-.44-.57-.75a2.57,2.57,0,0,0-2-.79c-2.55,0-3.83,2.07-3.81,4.62s1.47,4.2,3.74,4.2a5,5,0,0,0,3.1-1.12l.4.4A5.28,5.28,0,0,1,376.85,229.23Z"/><path d="M382.2,224.32c0-2.84,1.89-5.13,4.73-5.13,2.53,0,4.42,2,4.42,5s-1.85,5-4.68,5C384.05,229.21,382.2,227.27,382.2,224.32Zm8,0c0-2.61-1.41-4.53-3.5-4.53s-3.41,1.87-3.41,4.38,1.37,4.4,3.54,4.4C388.84,228.59,390.23,226.85,390.23,224.34Z"/><path d="M397.34,228.37l-.12.4a26.91,26.91,0,0,0-3.36,0l-.11-.4c0-.11,1.36-.2,1.38-1V221a.52.52,0,0,0-.52-.58,2.87,2.87,0,0,0-1,.16l-.2-.4,2-1c.18-.06.69.22.69.33v7.82C396.15,228.17,397.34,228.26,397.34,228.37Zm7,0-.11.4a25.64,25.64,0,0,0-3.28,0l-.13-.4c0-.11,1.19-.2,1.21-1v-5.09a2.21,2.21,0,0,0-2.38-1.91,3.73,3.73,0,0,0-2.73,1.39l-.22-.47a4.1,4.1,0,0,1,3.17-1.8,2.91,2.91,0,0,1,3.15,2.77v5.11C403,228.17,404.31,228.26,404.31,228.37Z"/><path d="M410.07,228.37l-.11.4a26.91,26.91,0,0,0-3.36,0l-.11-.4c0-.11,1.36-.2,1.38-1V221a.53.53,0,0,0-.53-.58,2.86,2.86,0,0,0-1,.16l-.2-.4,2-1c.18-.06.68.22.68.33v7.82C408.88,228.17,410.07,228.26,410.07,228.37Zm7,0-.11.4a25.64,25.64,0,0,0-3.28,0l-.13-.4c0-.11,1.19-.2,1.21-1v-5.09a2.21,2.21,0,0,0-2.38-1.91,3.72,3.72,0,0,0-2.73,1.39l-.22-.47a4.1,4.1,0,0,1,3.17-1.8,2.91,2.91,0,0,1,3.15,2.77v5.11C415.75,228.17,417.05,228.26,417.05,228.37Z"/><path d="M423.69,219.19a4,4,0,0,1,4.05,4.18l-7,.84,0-.66,5.64-.7c.17,0,.22-.11.19-.31a3,3,0,0,0-3.05-2.71c-2.2,0-3.44,2-3.41,4.4s1.4,4.36,3.74,4.36a5,5,0,0,0,3.1-1.12l.39.39a5.21,5.21,0,0,1-3.58,1.35c-3,0-4.8-2-4.73-5C419.09,221.33,420.92,219.19,423.69,219.19Z"/><path d="M434.36,229.23c-3,0-4.84-2-4.75-5a4.89,4.89,0,0,1,5.06-5,4.16,4.16,0,0,1,3,1.17c0,.37-.2,1-.57,1s-.35-.44-.57-.75a2.59,2.59,0,0,0-2-.79c-2.55,0-3.82,2.07-3.8,4.62s1.47,4.2,3.74,4.2a5,5,0,0,0,3.1-1.12l.4.4A5.3,5.3,0,0,1,434.36,229.23Z"/><path d="M445.43,228.13a4.93,4.93,0,0,1-2.8,1.08c-.66,0-1.51-.6-1.51-1.26v-7.88H439.6v-.46a2.57,2.57,0,0,0,1.49-.72,6.3,6.3,0,0,0,.51-2.18h.53v2.64h2.81v.72h-2.81v7.09c0,.64,0,1.21.72,1.21a5.31,5.31,0,0,0,2.34-.62Z"/><path d="M452,219.19a4,4,0,0,1,4,4.18l-7,.84.05-.66,5.63-.7c.17,0,.22-.11.2-.31a3,3,0,0,0-3.06-2.71c-2.2,0-3.43,2-3.41,4.4s1.41,4.36,3.74,4.36a5,5,0,0,0,3.1-1.12l.4.39a5.25,5.25,0,0,1-3.59,1.35c-3,0-4.8-2-4.73-5C447.38,221.33,449.21,219.19,452,219.19Z"/><path d="M467.38,228.37l-.08.44a5.13,5.13,0,0,1-.88.07,1.26,1.26,0,0,1-.73-.22c-.33-.27-.29-.82-.29-1.92v-5.15a3.32,3.32,0,0,0-2.73-1.54c-2.2,0-3.56,2.18-3.56,4.38s1.39,3.85,3,3.85a3.08,3.08,0,0,0,2.53-1.16l.22.46a3.57,3.57,0,0,1-3,1.52c-1.91,0-3.87-1.79-3.87-4.78a4.81,4.81,0,0,1,4.58-4.88,4.28,4.28,0,0,1,2.81,1.05v-5.63a.51.51,0,0,0-.52-.57,2.84,2.84,0,0,0-1,.15l-.2-.39,2-1a.83.83,0,0,1,.68.33v13.42a3.36,3.36,0,0,0,.11,1.3A1.67,1.67,0,0,0,467.38,228.37Z"/><path d="M482.28,228.13a4.93,4.93,0,0,1-2.8,1.08c-.66,0-1.52-.6-1.52-1.26v-7.88h-1.51v-.46a2.6,2.6,0,0,0,1.49-.72,6.3,6.3,0,0,0,.51-2.18H479v2.64h2.81v.72H479v7.09c0,.64,0,1.21.72,1.21a5.31,5.31,0,0,0,2.34-.62Z"/><path d="M484.17,224.32c0-2.84,1.89-5.13,4.73-5.13,2.53,0,4.42,2,4.42,5s-1.85,5-4.69,5C486,229.21,484.17,227.27,484.17,224.32Zm8,0c0-2.61-1.41-4.53-3.5-4.53s-3.41,1.87-3.41,4.38,1.37,4.4,3.54,4.4C490.81,228.59,492.2,226.85,492.2,224.34Z"/><path d="M515.81,221.33c0,4.47-3.06,7.44-8,7.44-.81,0-4.66,0-5.13,0l-.11-.4c0-.11,2-.17,2-1v-12c0-.86-2-.93-2-1l.11-.42c.31,0,3.59.05,5,.05C513,214,515.81,216.8,515.81,221.33Zm-1.1.22c0-4.53-2.56-6.84-7-6.84a6.45,6.45,0,0,0-2.05.24v12.72a5.88,5.88,0,0,0,2,.35C511.67,228,514.71,226,514.71,221.55Z"/><path d="M526.23,228.37l-.09.44a5,5,0,0,1-.88.07,1.23,1.23,0,0,1-.72-.22c-.33-.27-.29-.82-.29-1.92l0-3.1a15.09,15.09,0,0,0-3.32.77c-1.21.48-2,1.12-2,2.18a1.76,1.76,0,0,0,1.83,1.8,5,5,0,0,0,3-1.19l.15.33a5.34,5.34,0,0,1-3.39,1.57,2.48,2.48,0,0,1-2.62-2.38c0-1.34,1-2.29,2.56-2.86a16.49,16.49,0,0,1,3.82-.82v-.7a2.21,2.21,0,0,0-2.22-2.44,3.64,3.64,0,0,0-2.55.92c-.22.31-.35.86-.64.86s-.53-.75-.53-1.12a5.77,5.77,0,0,1,3.72-1.37,3,3,0,0,1,3.21,3.13v.35l0,4.12a3.55,3.55,0,0,0,.11,1.34A1.64,1.64,0,0,0,526.23,228.37Z"/><path d="M532.11,228.37l-.11.4a27.07,27.07,0,0,0-3.37,0l-.11-.4c0-.11,1.36-.2,1.39-1V221a.53.53,0,0,0-.53-.58,2.91,2.91,0,0,0-1,.16l-.2-.4,2-1c.18-.06.69.22.69.33v7.82C530.92,228.17,532.11,228.26,532.11,228.37Zm7,0-.11.4a25.64,25.64,0,0,0-3.28,0l-.13-.4c0-.11,1.19-.2,1.21-1v-5.09a2.21,2.21,0,0,0-2.38-1.91,3.7,3.7,0,0,0-2.72,1.39l-.22-.47a4.06,4.06,0,0,1,3.16-1.8,2.9,2.9,0,0,1,3.15,2.77v5.11C537.78,228.17,539.08,228.26,539.08,228.37Z"/><path d="M550.21,228.37l-.08.44a5.13,5.13,0,0,1-.88.07,1.26,1.26,0,0,1-.73-.22c-.33-.27-.29-.82-.29-1.92v-5.15a3.32,3.32,0,0,0-2.73-1.54c-2.2,0-3.56,2.18-3.56,4.38s1.39,3.85,3,3.85a3.08,3.08,0,0,0,2.53-1.16l.22.46a3.57,3.57,0,0,1-3,1.52c-1.91,0-3.87-1.79-3.87-4.78a4.81,4.81,0,0,1,4.58-4.88,4.28,4.28,0,0,1,2.81,1.05v-5.63a.51.51,0,0,0-.52-.57,2.84,2.84,0,0,0-1,.15l-.2-.39,2-1a.83.83,0,0,1,.68.33v13.42a3.36,3.36,0,0,0,.11,1.3A1.67,1.67,0,0,0,550.21,228.37Z"/><path d="M552.3,224.32c0-2.84,1.89-5.13,4.73-5.13,2.53,0,4.43,2,4.43,5s-1.85,5-4.69,5C554.15,229.21,552.3,227.27,552.3,224.32Zm8,0c0-2.61-1.41-4.53-3.49-4.53s-3.42,1.87-3.42,4.38,1.37,4.4,3.55,4.4C559,228.59,560.33,226.85,560.33,224.34Z"/><path d="M567.44,228.37l-.11.4a27.07,27.07,0,0,0-3.37,0l-.11-.4c0-.11,1.37-.2,1.39-1V221a.53.53,0,0,0-.53-.58,2.91,2.91,0,0,0-1,.16l-.2-.4,2-1c.17-.06.68.22.68.33v7.82C566.25,228.17,567.44,228.26,567.44,228.37Zm7,0-.11.4a25.49,25.49,0,0,0-3.27,0l-.14-.4c0-.11,1.19-.2,1.21-1v-5.09a2.21,2.21,0,0,0-2.37-1.91,3.7,3.7,0,0,0-2.73,1.39l-.22-.47a4.1,4.1,0,0,1,3.17-1.8,2.9,2.9,0,0,1,3.14,2.77v5.11C573.12,228.17,574.41,228.26,574.41,228.37Z"/><path d="M585,229.71c0,2.27-3.3,3.3-5.63,3.26-1.78-.05-3.3-1.32-3-2.05a6.2,6.2,0,0,1,2.26-2.29l.31.11a6,6,0,0,0-1.43,1.9c-.31.68,1,1.65,2.58,1.65,1.8,0,4-.73,4-2.31a1.56,1.56,0,0,0-1.15-1.43,32.94,32.94,0,0,0-4.46-.22c-.8-.09-1.59-1.08-1.39-1.46a5.81,5.81,0,0,1,1.36-1.36l.31.2c-.26.37-.55.77-.72,1.08s-.09.55.61.66c.88.13,3,0,4.36.15A2.06,2.06,0,0,1,585,229.71Zm-8-7.41a3.41,3.41,0,0,1,3.65-3.19,3.28,3.28,0,0,1,1.45.33l0,0a1.46,1.46,0,0,0,.37.11c.35,0,1.94.07,2.47.09l0,.51c-.24,0-.88,0-1.12,0s-.62.11-.48.26l0,0a3.22,3.22,0,0,1,.64,2.05,3.33,3.33,0,0,1-3.59,3.12A3.14,3.14,0,0,1,577,222.3Zm1.1.06a2.41,2.41,0,0,0,2.42,2.62,2.33,2.33,0,0,0,2.24-2.62,2.48,2.48,0,0,0-2.4-2.68A2.39,2.39,0,0,0,578.09,222.36Z"/><path d="M599.74,228.13a4.93,4.93,0,0,1-2.8,1.08c-.66,0-1.52-.6-1.52-1.26v-7.88H593.9v-.46a2.6,2.6,0,0,0,1.5-.72,6.3,6.3,0,0,0,.51-2.18h.52v2.64h2.82v.72h-2.82v7.09c0,.64,0,1.21.73,1.21a5.23,5.23,0,0,0,2.33-.62Z"/><path d="M605.41,228.37l-.11.4a27.07,27.07,0,0,0-3.37,0l-.11-.4c0-.11,1.37-.2,1.39-1V214.86a.52.52,0,0,0-.53-.57,2.9,2.9,0,0,0-1,.15l-.19-.39,2-1a.85.85,0,0,1,.68.33v13.93C604.22,228.17,605.41,228.26,605.41,228.37Zm7,0-.11.4a25.64,25.64,0,0,0-3.28,0l-.13-.4c0-.11,1.18-.2,1.21-1v-5.09a2.22,2.22,0,0,0-2.38-1.91,3.7,3.7,0,0,0-2.73,1.39l-.22-.47a4.1,4.1,0,0,1,3.17-1.8,2.91,2.91,0,0,1,3.15,2.77v5.11C611.09,228.17,612.39,228.26,612.39,228.37Z"/><path d="M618.15,228.37l-.11.4a27.07,27.07,0,0,0-3.37,0l-.11-.4c0-.11,1.37-.2,1.39-1V221a.53.53,0,0,0-.53-.58,2.91,2.91,0,0,0-1,.16l-.2-.4,2-1c.17-.06.68.22.68.33v7.82C617,228.17,618.15,228.26,618.15,228.37Zm2.4-7.33c-.29.05-.46-.64-.73-.61a6.87,6.87,0,0,0-2.11,1.25l-.15-.44a7,7,0,0,1,2.28-1.8,1.52,1.52,0,0,1,1.48.37C621.41,220.12,621.14,221,620.55,221Z"/><path d="M622.88,224.32c0-2.84,1.89-5.13,4.73-5.13,2.53,0,4.42,2,4.42,5s-1.85,5-4.69,5C624.73,229.21,622.88,227.27,622.88,224.32Zm8,0c0-2.61-1.41-4.53-3.5-4.53s-3.41,1.87-3.41,4.38,1.37,4.4,3.54,4.4C629.52,228.59,630.91,226.85,630.91,224.34Z"/><path d="M641.54,227l.24.44a4.24,4.24,0,0,1-3.22,1.62,2.86,2.86,0,0,1-3.1-2.77v-5.21c0-.47-.13-.66-.35-.77a2.11,2.11,0,0,0-1-.11l-.11-.44,2-.33a.57.57,0,0,1,.46.33v6.51a2.2,2.2,0,0,0,2.34,1.94A4,4,0,0,0,641.54,227Zm2.77,1.36-.09.44a5.13,5.13,0,0,1-.88.07,1.26,1.26,0,0,1-.73-.22c-.33-.27-.28-.82-.28-1.92V221c0-.47-.13-.66-.35-.77a2.15,2.15,0,0,0-1-.11l-.11-.44,2-.33a.57.57,0,0,1,.46.33v7.15a3.48,3.48,0,0,0,.11,1.32A1.62,1.62,0,0,0,644.31,228.37Z"/><path d="M655,229.71c-.05,2.27-3.3,3.3-5.64,3.26-1.78-.05-3.3-1.32-3-2.05a6.15,6.15,0,0,1,2.27-2.29l.3.11a6,6,0,0,0-1.43,1.9c-.3.68,1,1.65,2.58,1.65,1.8,0,4-.73,4-2.31a1.55,1.55,0,0,0-1.14-1.43,33,33,0,0,0-4.47-.22c-.79-.09-1.58-1.08-1.39-1.46a5.69,5.69,0,0,1,1.37-1.36l.31.2c-.27.37-.55.77-.73,1.08s-.09.55.62.66c.88.13,3,0,4.35.15A2.06,2.06,0,0,1,655,229.71Zm-8-7.41a3.41,3.41,0,0,1,3.65-3.19,3.22,3.22,0,0,1,1.45.33l0,0a1.46,1.46,0,0,0,.37.11c.36,0,1.94.07,2.47.09l0,.51c-.25,0-.89,0-1.13,0s-.61.11-.48.26l0,0a3.28,3.28,0,0,1,.64,2.05,3.33,3.33,0,0,1-3.59,3.12A3.15,3.15,0,0,1,647,222.3Zm1.1.06a2.41,2.41,0,0,0,2.42,2.62,2.33,2.33,0,0,0,2.24-2.62,2.48,2.48,0,0,0-2.39-2.68A2.4,2.4,0,0,0,648.09,222.36Z"/><path d="M660.72,228.37l-.11.4a27.07,27.07,0,0,0-3.37,0l-.11-.4c0-.11,1.37-.2,1.39-1V214.86a.52.52,0,0,0-.53-.57,2.87,2.87,0,0,0-1,.15l-.2-.39,2-1a.85.85,0,0,1,.68.33v13.93C659.53,228.17,660.72,228.26,660.72,228.37Zm7,0-.11.4a25.49,25.49,0,0,0-3.27,0l-.14-.4c0-.11,1.19-.2,1.21-1v-5.09a2.21,2.21,0,0,0-2.37-1.91,3.7,3.7,0,0,0-2.73,1.39l-.22-.47a4.1,4.1,0,0,1,3.17-1.8,2.9,2.9,0,0,1,3.14,2.77v5.11C666.4,228.17,667.69,228.26,667.69,228.37Z"/><path d="M682.48,228.13a4.93,4.93,0,0,1-2.8,1.08c-.66,0-1.51-.6-1.51-1.26v-7.88h-1.52v-.46a2.57,2.57,0,0,0,1.49-.72,6.3,6.3,0,0,0,.51-2.18h.53v2.64H682v.72h-2.81v7.09c0,.64,0,1.21.72,1.21a5.31,5.31,0,0,0,2.34-.62Z"/><path d="M688.15,228.37l-.11.4a26.91,26.91,0,0,0-3.36,0l-.11-.4c0-.11,1.36-.2,1.38-1V214.86a.52.52,0,0,0-.53-.57,2.82,2.82,0,0,0-1,.15l-.2-.39,2-1a.83.83,0,0,1,.68.33v13.93C687,228.17,688.15,228.26,688.15,228.37Zm7,0-.11.4a25.64,25.64,0,0,0-3.28,0l-.13-.4c0-.11,1.19-.2,1.21-1v-5.09a2.21,2.21,0,0,0-2.38-1.91,3.72,3.72,0,0,0-2.73,1.39l-.22-.47a4.1,4.1,0,0,1,3.17-1.8,2.91,2.91,0,0,1,3.15,2.77v5.11C693.83,228.17,695.13,228.26,695.13,228.37Z"/><path d="M701.77,219.19a4,4,0,0,1,4.05,4.18l-7,.84,0-.66,5.64-.7c.17,0,.22-.11.19-.31a3,3,0,0,0-3-2.71c-2.2,0-3.44,2-3.41,4.4s1.4,4.36,3.74,4.36a5,5,0,0,0,3.1-1.12l.39.39a5.21,5.21,0,0,1-3.58,1.35c-3,0-4.8-2-4.73-5C697.17,221.33,699,219.19,701.77,219.19Z"/><path d="M715.43,228.17l.09-2H716c.13,0,.13.62.57,1.24s1.69,1,3.41,1c2,0,3.83-1.28,3.83-3.21S722,222.39,720,221.5c-2.25-1-4.4-1.67-4.4-4.31,0-2.11,1.63-3.61,4.35-3.61a7.59,7.59,0,0,1,4.14,1.1c0,.33-.13,1.43-.15,1.76h-.51c-.13,0-.13-.63-.57-1.23a4,4,0,0,0-3-1,2.89,2.89,0,0,0-3.15,2.64c0,2.2,1.67,2.71,3.65,3.59,2.22,1,4.58,2.07,4.58,4.47,0,2.73-2.36,4.27-4.82,4.27A10,10,0,0,1,715.43,228.17Z"/><path d="M731.36,228.37l-.11.4a27.07,27.07,0,0,0-3.37,0l-.11-.4c0-.11,1.37-.2,1.39-1V221a.53.53,0,0,0-.53-.58,3,3,0,0,0-1,.16l-.19-.4,2-1c.17-.06.68.22.68.33v7.82C730.17,228.17,731.36,228.26,731.36,228.37Zm-3.06-12.32c.07-.46.2-1.06.62-1.26a.88.88,0,0,1,1.16.38.86.86,0,0,1-.37,1.14A1.59,1.59,0,0,1,728.3,216.05Z"/><path d="M741.15,221.26a.4.4,0,0,1,.44.44v.53h-7.26a.39.39,0,0,1-.44-.44v-.53Z"/><path d="M376,254.77l-.12.4a26.91,26.91,0,0,0-3.36,0l-.11-.4c0-.11,1.36-.2,1.39-1v-6.36a.53.53,0,0,0-.53-.58,2.87,2.87,0,0,0-1,.16l-.2-.4,2-1c.18-.06.69.22.69.33v7.82C374.81,254.57,376,254.66,376,254.77Zm7,0-.11.4a25.64,25.64,0,0,0-3.28,0l-.13-.4c0-.11,1.19-.2,1.21-1v-5.09a2.21,2.21,0,0,0-2.38-1.91,3.76,3.76,0,0,0-2.73,1.38l-.21-.46a4.06,4.06,0,0,1,3.16-1.8,2.91,2.91,0,0,1,3.15,2.77v5.11C381.67,254.57,383,254.66,383,254.77Z"/><path d="M385,250.72c0-2.84,1.89-5.13,4.73-5.13,2.53,0,4.42,2,4.42,5s-1.85,5-4.68,5C386.8,255.61,385,253.67,385,250.72Zm8,0c0-2.62-1.41-4.53-3.5-4.53s-3.41,1.87-3.41,4.38,1.37,4.4,3.54,4.4C391.59,255,393,253.25,393,250.74Z"/><path d="M403.78,247.66a.4.4,0,0,1,.44.44v.53H397a.39.39,0,0,1-.44-.44v-.53Z"/><path d="M411.55,254.77l-.11.4c-.82-.07-3.88-.07-4.69,0l-.11-.4c0-.11,2-.18,2-1v-12c0-.86-2-.93-2-1l.11-.42c.81.07,3.87.07,4.69,0l.11.42c0,.11-1.85.18-1.87,1v12C409.7,254.59,411.55,254.66,411.55,254.77Zm8.82,0-.11.4c-.81-.07-3.45-.07-4.27,0l-.11-.4c0-.11,1.65-.18.95-1l-6.1-6.2,5.31-5.86c.83-.9-1-.9-1-1l.13-.42c.79.07,3.39.07,4.2,0l.11.42a4.65,4.65,0,0,0-2.4,1l-5.17,5.63,6.34,6.5C419.07,254.59,420.37,254.66,420.37,254.77Z"/><path d="M421.69,250.72c0-2.84,1.89-5.13,4.73-5.13,2.53,0,4.42,2,4.42,5s-1.85,5-4.69,5C423.54,255.61,421.69,253.67,421.69,250.72Zm8,0c0-2.62-1.41-4.53-3.5-4.53s-3.41,1.87-3.41,4.38,1.36,4.4,3.54,4.4C428.33,255,429.72,253.25,429.72,250.74Z"/><path d="M436.82,254.77l-.11.4a26.91,26.91,0,0,0-3.36,0l-.11-.4c0-.11,1.36-.2,1.38-1v-6.36a.52.52,0,0,0-.52-.58,2.87,2.87,0,0,0-1,.16l-.2-.4,2-1c.18-.06.68.22.68.33v7.82C435.64,254.57,436.82,254.66,436.82,254.77Zm2.4-7.33c-.28.05-.46-.64-.72-.61a7,7,0,0,0-2.12,1.25l-.15-.44a6.92,6.92,0,0,1,2.29-1.8,1.5,1.5,0,0,1,1.47.37A1.13,1.13,0,0,1,439.22,247.44Z"/><path d="M446.22,245.59a4,4,0,0,1,4,4.18l-7,.84,0-.66,5.63-.7c.18,0,.22-.11.2-.31a3,3,0,0,0-3.06-2.71c-2.2,0-3.43,2.05-3.41,4.4S444,255,446.37,255a5,5,0,0,0,3.1-1.12l.4.39a5.23,5.23,0,0,1-3.59,1.35c-3,0-4.79-2-4.73-5C441.62,247.73,443.45,245.59,446.22,245.59Z"/><path d="M460.36,254.77l-.08.44a5.13,5.13,0,0,1-.88.07,1.26,1.26,0,0,1-.73-.22c-.33-.27-.29-.82-.29-1.92l0-3.1a15,15,0,0,0-3.33.77c-1.21.48-2,1.12-2,2.18a1.76,1.76,0,0,0,1.83,1.8,5,5,0,0,0,2.95-1.19l.15.33a5.32,5.32,0,0,1-3.39,1.57,2.48,2.48,0,0,1-2.62-2.38c0-1.34,1-2.29,2.56-2.86a16,16,0,0,1,3.83-.81v-.71a2.22,2.22,0,0,0-2.23-2.44,3.66,3.66,0,0,0-2.55.92c-.22.31-.35.86-.64.86s-.53-.75-.53-1.12a5.77,5.77,0,0,1,3.72-1.37,3,3,0,0,1,3.22,3.13v.35l0,4.12a3.55,3.55,0,0,0,.11,1.34A1.67,1.67,0,0,0,460.36,254.77Z"/><path d="M466.24,254.77l-.11.4a27.07,27.07,0,0,0-3.37,0l-.11-.4c0-.11,1.36-.2,1.39-1v-6.36a.53.53,0,0,0-.53-.58,2.91,2.91,0,0,0-1,.16l-.2-.4,2-1c.18-.06.69.22.69.33v7.82C465.05,254.57,466.24,254.66,466.24,254.77Zm7,0-.11.4a25.64,25.64,0,0,0-3.28,0l-.13-.4c0-.11,1.19-.2,1.21-1v-5.09a2.21,2.21,0,0,0-2.37-1.91,3.72,3.72,0,0,0-2.73,1.38l-.22-.46a4.1,4.1,0,0,1,3.17-1.8,2.9,2.9,0,0,1,3.14,2.77v5.11C471.91,254.57,473.21,254.66,473.21,254.77Z"/><path d="M493.47,240.34l-.15,2.75-.51,0c-.11,0,0-2-.9-2h-6.62v6l4.71,0c.86,0,.92-1.76,1-1.76l.51.07a40.44,40.44,0,0,0,0,4.12l-.51.08c-.11,0-.17-1.74-1-1.76l-4.71,0v5.88c0,.92,1.69.92,1.69,1l-.11.4c-.81-.07-3.47-.07-4.29,0l-.11-.4c0-.11,1.76-.18,1.78-1v-12c0-.86-2-.93-2-1l.1-.42C483.2,240.36,492.68,240.38,493.47,240.34Z"/><path d="M498.14,254.77l-.11.4a27.07,27.07,0,0,0-3.37,0l-.11-.4c0-.11,1.37-.2,1.39-1v-6.36a.53.53,0,0,0-.53-.58,2.91,2.91,0,0,0-1,.16l-.2-.4,2-1c.17-.06.68.22.68.33v7.82C497,254.57,498.14,254.66,498.14,254.77Zm2.4-7.33c-.29.05-.47-.64-.73-.61a6.87,6.87,0,0,0-2.11,1.25l-.16-.44a7,7,0,0,1,2.29-1.8,1.52,1.52,0,0,1,1.48.37C501.39,246.52,501.13,247.35,500.54,247.44Z"/><path d="M506.87,254.77l-.11.4a27.07,27.07,0,0,0-3.37,0l-.1-.4c0-.11,1.36-.2,1.38-1v-6.36a.53.53,0,0,0-.53-.58,3,3,0,0,0-1,.16l-.19-.4,2-1c.18-.06.68.22.68.33v7.82C505.68,254.57,506.87,254.66,506.87,254.77Zm-3.06-12.32c.07-.46.2-1.06.62-1.26a.88.88,0,0,1,1.16.38.86.86,0,0,1-.37,1.14A1.59,1.59,0,0,1,503.81,242.45Z"/><path d="M513.84,245.59a4,4,0,0,1,4,4.18l-7,.84,0-.66,5.63-.7c.18,0,.22-.11.2-.31a3,3,0,0,0-3.06-2.71c-2.2,0-3.43,2.05-3.41,4.4S511.67,255,514,255a5,5,0,0,0,3.1-1.12l.4.39a5.25,5.25,0,0,1-3.59,1.35c-3,0-4.8-2-4.73-5C509.25,247.73,511.07,245.59,513.84,245.59Z"/><path d="M523.66,254.77l-.11.4a27.07,27.07,0,0,0-3.37,0l-.11-.4c0-.11,1.36-.2,1.39-1v-6.36a.53.53,0,0,0-.53-.58,2.91,2.91,0,0,0-1,.16l-.2-.4,2-1c.18-.06.69.22.69.33v7.82C522.47,254.57,523.66,254.66,523.66,254.77Zm7,0-.11.4a25.64,25.64,0,0,0-3.28,0l-.13-.4c0-.11,1.19-.2,1.21-1v-5.09a2.21,2.21,0,0,0-2.38-1.91,3.72,3.72,0,0,0-2.72,1.38l-.22-.46a4.07,4.07,0,0,1,3.17-1.8,2.91,2.91,0,0,1,3.14,2.77v5.11C529.33,254.57,530.63,254.66,530.63,254.77Z"/><path d="M541.76,254.77l-.08.44a5.13,5.13,0,0,1-.88.07,1.26,1.26,0,0,1-.73-.22c-.33-.27-.29-.82-.29-1.92V248a3.32,3.32,0,0,0-2.73-1.54c-2.2,0-3.56,2.18-3.56,4.38s1.39,3.85,3,3.85a3.08,3.08,0,0,0,2.53-1.16l.22.46a3.57,3.57,0,0,1-3,1.52c-1.91,0-3.87-1.79-3.87-4.78a4.81,4.81,0,0,1,4.58-4.88,4.28,4.28,0,0,1,2.81,1v-5.63a.51.51,0,0,0-.53-.57,2.82,2.82,0,0,0-1,.15l-.2-.39,2-1a.83.83,0,0,1,.68.33v13.42a3.36,3.36,0,0,0,.11,1.3A1.67,1.67,0,0,0,541.76,254.77Z"/><path d="M543.85,254.68l.09-1.67h.4c.13,0,.11.51.52,1.06a3.19,3.19,0,0,0,2.45.88,2.29,2.29,0,0,0,2.55-2.09c0-1.13-.86-1.46-2.33-2-1.83-.7-3.57-1.08-3.52-2.88s1.8-2.51,3.36-2.49a6.68,6.68,0,0,1,3.15.93c0,.3-.13,1.18-.15,1.51H550c-.13,0-.11-.5-.53-1.05a2.75,2.75,0,0,0-2.11-.75c-1,0-2.22.42-2.27,1.67,0,1.48,1.28,1.63,2.8,2.18,1.73.64,3.06,1.21,3.06,2.73,0,2-1.92,2.93-3.61,2.93A6.75,6.75,0,0,1,543.85,254.68Z"/><path d="M556.79,254.77l-.11.4a27.07,27.07,0,0,0-3.37,0l-.11-.4c0-.11,1.37-.2,1.39-1V241.26a.52.52,0,0,0-.53-.57,2.87,2.87,0,0,0-1,.15l-.2-.39,2-1a.85.85,0,0,1,.68.33v13.93C555.6,254.57,556.79,254.66,556.79,254.77Zm7,0-.11.4a25.49,25.49,0,0,0-3.27,0l-.14-.4c0-.11,1.19-.2,1.21-1v-5.09a2.21,2.21,0,0,0-2.37-1.91,3.72,3.72,0,0,0-2.73,1.38l-.22-.46a4.1,4.1,0,0,1,3.17-1.8,2.9,2.9,0,0,1,3.14,2.77v5.11C562.46,254.57,563.76,254.66,563.76,254.77Z"/><path d="M569.75,254.77l-.11.4a27.07,27.07,0,0,0-3.37,0l-.11-.4c0-.11,1.36-.2,1.39-1v-6.36a.53.53,0,0,0-.53-.58,2.91,2.91,0,0,0-1,.16l-.2-.4,2-1c.18-.06.69.22.69.33v7.82C568.56,254.57,569.75,254.66,569.75,254.77Zm-3.06-12.32c.06-.46.2-1.06.61-1.26a.9.9,0,0,1,1.17.38.87.87,0,0,1-.37,1.14A1.58,1.58,0,0,1,566.69,242.45Z"/><path d="M582,250.7a4.92,4.92,0,0,1-4.88,4.91,4,4,0,0,1-2.51-1.17v5.24c0,.85,1.43.92,1.43,1l-.11.4a28.86,28.86,0,0,0-3.48,0l-.11-.4c0-.11,1.26-.18,1.28-1V247.27a.53.53,0,0,0-.53-.58,3,3,0,0,0-1,.16l-.19-.4,2-1c.17-.06.68.22.68.33v7.75a3.14,3.14,0,0,0,2.79,1.43c1.9,0,3.5-2.05,3.5-4.38s-1.38-3.92-3-3.92A3.34,3.34,0,0,0,575.4,248l-.22-.46a3.61,3.61,0,0,1,3-1.63C580.06,245.88,582,247.64,582,250.7Z"/><path d="M602.77,250.94c0,2.86-2.53,4.23-5.35,4.23-1.1,0-5.52,0-6,0l-.13-.4c0-.11,1.91-.11,1.93-1v-12.1c0-.86-1.93-.9-1.93-1l.13-.44c.28,0,4.16,0,5.67,0,2.49,0,4.58,1.35,4.58,3.44a3.53,3.53,0,0,1-2.6,3.56A3.91,3.91,0,0,1,602.77,250.94Zm-1.1.18c0-2.2-2-3.3-4.23-3.37-.66,0-1.29,0-1.65,0v-.6a13.22,13.22,0,0,0,1.54-.11c1.87-.24,3.3-1.34,3.3-3.1,0-2.07-1.82-3-4-3a13.5,13.5,0,0,0-2.31.13v13.11a9.56,9.56,0,0,0,2.92.36C599.71,254.51,601.67,253.27,601.67,251.12Z"/><path d="M608.75,254.77l-.11.4a26.91,26.91,0,0,0-3.36,0l-.11-.4c0-.11,1.36-.2,1.38-1v-6.36a.53.53,0,0,0-.53-.58,2.86,2.86,0,0,0-1,.16l-.2-.4,2-1c.18-.06.68.22.68.33v7.82C607.56,254.57,608.75,254.66,608.75,254.77Zm2.4-7.33c-.29.05-.46-.64-.73-.61a7,7,0,0,0-2.11,1.25l-.15-.44a6.92,6.92,0,0,1,2.29-1.8,1.5,1.5,0,0,1,1.47.37A1.14,1.14,0,0,1,611.15,247.44Z"/><path d="M617.49,254.77l-.11.4a27.07,27.07,0,0,0-3.37,0l-.11-.4c0-.11,1.36-.2,1.39-1v-6.36a.53.53,0,0,0-.53-.58,2.91,2.91,0,0,0-1,.16l-.2-.4,2-1c.18-.06.69.22.69.33v7.82C616.3,254.57,617.49,254.66,617.49,254.77Zm-3.06-12.32c.06-.46.2-1.06.61-1.26a.9.9,0,0,1,1.17.38.87.87,0,0,1-.37,1.14A1.58,1.58,0,0,1,614.43,242.45Z"/><path d="M629.17,254.77l-.09.44a5.13,5.13,0,0,1-.88.07,1.26,1.26,0,0,1-.73-.22c-.33-.27-.28-.82-.28-1.92V248a3.33,3.33,0,0,0-2.73-1.54c-2.2,0-3.57,2.18-3.57,4.38s1.39,3.85,3,3.85a3.1,3.1,0,0,0,2.53-1.16l.22.46a3.58,3.58,0,0,1-3,1.52c-1.92,0-3.87-1.79-3.87-4.78a4.8,4.8,0,0,1,4.57-4.88,4.29,4.29,0,0,1,2.82,1v-5.63a.52.52,0,0,0-.53-.57,2.87,2.87,0,0,0-1,.15l-.2-.39,2-1a.85.85,0,0,1,.68.33v13.42a3.36,3.36,0,0,0,.11,1.3A1.62,1.62,0,0,0,629.17,254.77Z"/><path d="M639.82,256.11c-.05,2.27-3.3,3.3-5.64,3.26-1.78-.05-3.3-1.32-3-2.05a6.23,6.23,0,0,1,2.27-2.29l.3.11a5.85,5.85,0,0,0-1.42,1.9c-.31.68,1,1.65,2.57,1.65,1.8,0,4-.73,4-2.31a1.55,1.55,0,0,0-1.14-1.43,33,33,0,0,0-4.47-.22c-.79-.09-1.58-1.08-1.39-1.46a5.69,5.69,0,0,1,1.37-1.36l.31.2c-.27.37-.55.77-.73,1.08s-.09.55.62.66c.88.13,3,0,4.35.15A2.06,2.06,0,0,1,639.82,256.11Zm-8-7.41a3.41,3.41,0,0,1,3.65-3.19,3.29,3.29,0,0,1,1.46.33l-.05,0a1.41,1.41,0,0,0,.38.11c.35,0,1.93.07,2.46.09l0,.51c-.25,0-.88,0-1.13,0s-.61.11-.48.26l0,0a3.22,3.22,0,0,1,.64,2.05,3.33,3.33,0,0,1-3.59,3.12A3.15,3.15,0,0,1,631.85,248.7Zm1.1.06a2.41,2.41,0,0,0,2.42,2.62,2.34,2.34,0,0,0,2.25-2.62,2.5,2.5,0,0,0-2.4-2.68A2.4,2.4,0,0,0,633,248.76Z"/><path d="M646.46,245.59a4,4,0,0,1,4,4.18l-7,.84,0-.66,5.63-.7c.18,0,.22-.11.2-.31a3,3,0,0,0-3.06-2.71c-2.2,0-3.43,2.05-3.41,4.4s1.41,4.36,3.74,4.36a5.07,5.07,0,0,0,3.11-1.12l.39.39a5.21,5.21,0,0,1-3.58,1.35c-3,0-4.8-2-4.73-5C641.86,247.73,643.69,245.59,646.46,245.59Z"/><path d="M653.37,254.79a.91.91,0,1,1,1.82,0,.91.91,0,0,1-1.82,0Z"/><text class="i" transform="translate(371.11 136.81)">평안북도 서북부에 위치하며 조중우의교를 <tspan x="0" y="26.4">통해 중국 단둥시와 연결된다. </tspan></text><text class="h" transform="translate(131.63 454.65)">359,000</text><text class="j" transform="translate(131.44 374.8)">인구</text><text class="k" transform="translate(187.86 374.8)">Popul<tspan class="l" x="54.29" y="0">a</tspan><tspan x="64.54" y="0">tion</tspan></text><text class="j" transform="translate(131.44 527.57)">교류 규모</text><text class="k" transform="translate(245.28 527.57)">Trade <tspan class="m" x="61.41" y="0">V</tspan><tspan x="72.41" y="0">olume</tspan></text><text class="h" transform="translate(247.88 615.64)">582<tspan class="n" x="98.13" y="0">,</tspan><tspan class="o" x="105.55" y="0">479</tspan></text><text class="i" transform="translate(456.4 581.99)">명</text><text class="i" transform="translate(456.4 603.93)">pe<tspan class="p" x="22.86" y="0">o</tspan><tspan x="33.77" y="0">ple</tspan></text><text class="h" transform="translate(247.88 698.17)">582<tspan class="n" x="98.13" y="0">,</tspan><tspan class="o" x="105.55" y="0">479</tspan></text><text class="i" transform="translate(456.4 664.52)">톤</text><text class="i" transform="translate(456.4 686.46)">tons</text><line class="q" x1="130.62" y1="285.65" x2="772.95" y2="285.65"/><polygon class="r" points="1136 634.78 1067.64 581.68 1096.77 554.39 1161.61 607.48 1154.12 615.46 1145.71 624.42 1136 634.78"/><polygon points="1140.51 567.71 1129.91 588.67 1114.62 590.33 1114.62 612.59 1122.51 616.04 1123.25 596.81 1138.05 596.31 1145.94 575.35 1140.51 567.71"/><text class="s" transform="translate(1792.02 920.71)">Source<tspan x="-486.79" y="21.6">북·중 국경 관리실태와 남북 접경 관리에의 적용 가능성 연구(2019)</tspan><tspan x="-430.41" y="43.2">A Study on the the No</tspan><tspan class="t" x="-242.87" y="43.2">r</tspan><tspan x="-235.94" y="43.2">th-China Border and the Possibility</tspan><tspan x="-453.97" y="64.8">of Application to the Management of the South-No</tspan><tspan class="u" x="-29.2" y="64.8">r</tspan><tspan class="v" x="-22.26" y="64.8">th Border</tspan></text><circle class="d" cx="151.11" cy="570.64" r="7.04"/><polygon class="d" points="135.92 581.99 166.3 581.99 150.33 618.72 135.92 581.99"/><circle class="d" cx="218.17" cy="570.64" r="7.04"/><polygon class="d" points="202.98 581.99 233.36 581.99 217.39 618.72 202.98 581.99"/><circle class="d" cx="184.64" cy="570.64" r="7.04"/><polygon class="d" points="169.45 581.99 199.83 581.99 183.86 618.72 169.45 581.99"/><rect class="c" x="135.48" y="664.68" width="99" height="7.4"/><rect class="c" x="160.81" y="664.68" width="48.33" height="7.4" transform="translate(-483.41 853.36) rotate(-90)"/><circle class="w" cx="1094.55" cy="796.74" r="43.5"/><path class="x" d="M1115,795.54v.06h-4.65v4.81h4.06a20.47,20.47,0,0,1-16.76,15.33V790.36h12.7v-5.24h-12.7V772.37h-6.15v12.75h-12.7v5.24h12.7v25.38a20.49,20.49,0,0,1-16.77-15.33h4.07V795.6h-4.66v-.06H1069a25.57,25.57,0,1,0,51.14,0Z"/><polygon class="c" points="1494.91 203.12 1379.17 370.42 1328.5 481.34 1419.77 496.52 1652.04 186.67 1494.91 203.12"/><rect class="y" x="1572.35" y="69.91" width="275.66" height="364.96"/><path d="M1847.51,70.41v364H1572.85v-364h274.66m1-1H1571.85v366h276.66v-366Z"/><text class="j" transform="translate(1666.62 123.15)">도시권</text><text class="k" transform="translate(1666.62 155.69)">ur<tspan class="z" x="22.51" y="0">b</tspan><tspan x="33.29" y="0">an area</tspan></text><text class="j" transform="translate(1662.18 363.32)">국경통과지점</text><text class="k" transform="translate(1662.18 395.87)">border Crossing</text><polygon class="aa" points="1619.26 343.97 1619.26 363.97 1601.32 366.29 1620.76 376.34 1618.66 395.87 1629.55 374.43 1643.46 393.36 1638.56 369.92 1652.94 362.39 1632.24 361.83 1619.26 343.97"/><rect class="ab" x="1601.32" y="104.07" width="51.62" height="51.62"/><text class="j" transform="translate(1666.62 196.38)">비도시권</text><text class="k" transform="translate(1666.62 228.93)">subur<tspan class="ac" x="55.89" y="0">b</tspan><tspan x="66.67" y="0">an area</tspan></text><text class="j" transform="translate(1666.62 276.35)">육로</text><text class="ad" transform="translate(1666.62 308.9)">o<tspan class="ae" x="10.94" y="0">verland route</tspan></text><rect class="c" x="1601.32" y="177.3" width="51.62" height="51.62"/><rect class="af" x="1601.32" y="269.54" width="51.62" height="25.81"/><polygon class="ag" points="1379.17 299.08 1060.49 374.8 809.93 681.34 867.07 754.31 1309.39 406.35 1379.17 299.08"/><polygon class="ah" points="1107.14 440.71 1107.14 466.38 1075.27 469.37 1109.79 482.26 1106.07 507.33 1125.41 479.81 1150.12 504.11 1141.4 474.02 1166.95 464.35 1130.19 463.63 1107.14 440.71"/><polygon class="ai" points="1401.41 548.46 1288.07 527.57 1232.07 605.89 1216.26 681.34 1400.97 656.3 1401.41 548.46"/><polygon class="aj" points="1310.09 563.6 1297.36 589 1269.85 597.62 1287.61 606.03 1283.8 631.64 1303.56 603.53 1328.8 628.35 1319.9 597.62 1346 587.74 1313.79 584.89 1310.09 563.6"/><line class="ak" x1="1185.1" y1="499.27" x2="1269.93" y2="577.56"/><line class="al" x1="1185.1" y1="499.27" x2="1186.94" y2="500.97"/><line class="am" x1="1190.46" y1="504.23" x2="1266.33" y2="574.23"/><line class="an" x1="1268.09" y1="575.86" x2="1269.93" y2="577.56"/><line class="ao" x1="1135.42" y1="525.48" x2="1240.74" y2="622.66"/></g></svg>