<svg xmlns="http://www.w3.org/2000/svg" viewBox="0 0 5253.62 1087.57"><defs><style>.a,.l,.m,.n,.o,.p,.q,.r{fill:#fff;}.b,.d,.e,.f{fill:#1e1e1e;}.c{opacity:0.95;}.d{font-size:150px;}.d,.f{font-family:Prohibition-Regular, Prohibition;}.e{font-size:253.69px;}.e,.i{font-family:KCC-KP-CheonRiMa-Bold-KP-2011KPS, KP CheonRiMa B;}.f{font-size:60.6px;}.g{letter-spacing:-0.01em;}.h{letter-spacing:0em;}.i{font-size:84.14px;}.j{font-size:24px;font-family:KCC-KP-KwangMyeong-Medium-KP-2011KPS, KP KwangMyeong;}.k{font-size:18px;font-family:MapoGoldenPier-KSCpc-EUC-H, MapoGoldenPier;}.l{font-size:67.05px;}.l,.m,.n,.o,.p,.q,.r{font-family:KCC-KP-KwangMyeong-Bold-KP-2011KPS, KP KwangMyeong B;}.m{font-size:50.48px;}.n{font-size:36px;}.o{font-size:22.38px;}.p{font-size:27px;}.q{font-size:44.35px;}.r{font-size:39.65px;}</style></defs><path class="a" d="M1625.42,307.2v-204h198v223c-5.87-.61-11.73-1.61-17.61-1.71-4.14-.07-8.77.16-12.32,2-3.15,1.6-5.13,2.2-8,.09-8.92-6.66-17.94-13.2-26.8-19.69.71-11,5.14-21.61,2.41-32.84a97.73,97.73,0,0,0-4.92,10.38c-1.15,2.56-2.74,3.24-4.85.76s-4.45-5-7-7.93c2.26-.6,4.34-1,6.32-1.71,4.19-1.47,7.93-3.61,8.33-8.6a4,4,0,0,0-2.35-3.08c-5.63-1.16-9.82,1.65-13.72,5.39-1.29,1.23-3.44,2.48-5,2.31-7.06-.76-14-2.45-21.09-3-14.7-1.23-25.15-9-29.61-23.09-.56-1.77-.16-3.94.16-5.86.5-2.89,2.2-3.41,4.72-2,5.49,3.12,10.48,6.28,13,12.88,3,8,14.34,11.58,22,7.7,1.63-.82,2.64-2.88,3.94-4.37l-.72-1.67c-3.75,0-7.57.48-11.21-.14-3.49-.59-6.79-2.32-10.08-3.52l4-7-5.23-1.19c3.69-4,23.18-3.55,26.67.71-1.66.34-3.06.64-4.47.9s-2.73.46-3.49.59c1.69,1.07,3.66,2.26,5.57,3.53,2.16,1.44,7.12-.55,8.84-3.74,1.55-2.9-.11-4.49-2.68-5.17-5.24-1.39-10.49-3-15.84-3.67-4.49-.52-9.14.41-13.71.35-1.28,0-2.54-1.24-3.81-1.9,1-1.23,1.77-2.89,3.06-3.56a6.64,6.64,0,0,1,4.41-.12c7.6,2.07,14.82-.69,21.84-2.4,5-1.22,6.3.81,7.68,4.22.49,1.2.1,2.91.82,3.85a21.65,21.65,0,0,0,5.22,5c.52.34,3.28-1.21,3.34-2a30.21,30.21,0,0,0-.86-7.4c-.1-.53-1-.87-1.36-1.42-2.41-3.88-4.78-7.79-7.08-11.57l-12-8.63c.87-7.49,1.4-7.62,8.68-4.65a51.34,51.34,0,0,0,11,2.75c1,.17,2.28-1.21,3.43-1.87-.92-1-1.68-2.35-2.82-3a20.26,20.26,0,0,0-4.67-1.2l.21-1.11,16.56,3c-1.3-2.46-1.75-4.73-3.12-5.7-5.24-3.7-11-6-17.7-5.26-1.29.14-2.69-.69-4-1.08.8-1.29,1.55-2.61,2.43-3.85a10.89,10.89,0,0,1,2.06-1.58h-12.52c2.51-.67,5-1.67,7.54-1.92,5-.49,10-.55,15-.79a25.42,25.42,0,0,0-9.1-2.9c-7.06-.88-10.92.89-13.33,5.75-3.33,6.61-3.33,6.61-12.83,5.31-.65-6.11-5.89-4.87-9.24-6,.7,1.58,1.45,3.27,2.19,5-2,.16-3.9.4-5.85.46-2.64.09-5.29.06-7.93.07h-10.12l-.46-1.67-4.36,5.45c-1.88-1.06-3.72-1.69-5-2.91s-2.48-3.12-2.14-4.25a107,107,0,0,1,6.22-17c1.73-3.45,5.41-5.87,7.51-9.2,6.65-10.56,16.47-15,28.38-14.25,12.1.76,24.13,2.55,36.17,4.09a11.84,11.84,0,0,1,5.42,2.4c11,8.53,18.7,19.25,20.93,33.35.63,3.95,1.37,7.87,2.09,12l-5.48-1.06c5.48,7.1,4,13.86,2.58,20.71-.48,2.3-.07,4.78-.07,7.18l1.64.76c1.84-2.1,4.8-4,5.24-6.34.46-2.5-1.48-5.44-2.51-8.59.33,0,2.42-.66,2.6-.3,1.32,2.57,2.24,5.34,3.67,9,1.06-2.73,2.35-4.63,2.46-6.6.16-3-.48-6.13-.79-9.19-2.38,1.11-4.77,2.23-7.16,3.33-.12.05-.31,0-.9-.12a25.68,25.68,0,0,1,.91-2.65c3.79-8,6.94-16.1,7.53-25.15.67-10.13-1.77-19.67-4.25-29.26-.23-.89-1.2-1.56-1.71-2.4-1.08-1.78-2.07-3.62-3.11-5.43-1.84-3.19-3.11-6.36-7.79-7.23-4.27-.8-8.15-3.68-12.18-5.7-.38-.2-.52-.85-.86-1.2a11.11,11.11,0,0,0-2.57-2.43c-11.59-5.9-24.24-7.41-36.92-7.82-6.91-.23-14-.69-20.46,4.26-6.19,4.71-13.76,7.59-20.63,11.44a6.74,6.74,0,0,0-2.81,3.31c-2.59,7-5.23,14.1-7.36,21.29a61,61,0,0,0,.3,35.8,22.49,22.49,0,0,1,.39,4.6l-4.84-.66c1.15,7.72-2.22,16.43,8.51,21.08l1.9-22.39,1.32.07.44,4c-.33-5.54,3.91-5.12,6.67-4.32,3.28.94,7.09,2.73,8.9,5.36,2.21,3.22,4.77,3.55,7.57,3.07,4.32-.75,8.51-2.24,13-3.49v3.49l1.61.51c.78-2.36,2.16-4.72,2.18-7.09,0-3.39,0-5.94,4.41-6s4.8,2.8,4.31,6c-.46,3-.41,5.53,2.39,7.51.76.55.85,2,1.24,3.11,1.63,2.15,3.57,4.15,4.79,6.51.87,1.67.78,3.84,1.12,5.79-1.44,0-2.89.2-4.32.12-6.56-.34-13.12-.69-19.67-1.15a39.05,39.05,0,0,1-4.87-.93,53.85,53.85,0,0,1,2.36-4.9,34.5,34.5,0,0,1,2.86-3.58,34.77,34.77,0,0,0-7.13,4.18c-1.17.79-3.4,1.18-3.59,2.08-1.77,8.37-9.09,7.46-14.64,8.2-3.75.5-5.11,1.9-5.45,4.92-.32,2.78.09,5.64,0,8.46s-.44,5.36-.69,8.21l-3.79-2.35c-.48,1.15-1.44,2.33-1.36,3.43a40.37,40.37,0,0,0,1.44,8.32c.89,3.08.23,5.42-1.24,8.33-5,9.9-12.32,18.77-11.94,31,.22,6.75-6.16,9.45-11.67,10.36C1643.34,306.29,1634.34,306.47,1625.42,307.2Zm87.66-124.67c-3.09-6.1-15.53-7.25-20.69-2.58Zm57.82,10.41c-.71-.06-3.08-.46-3.14-.24-.72,2.71-1.1,5.51-1.45,7.62Z"/><path class="b" d="M1729.93,207.86l12,8.62c2.3,3.78,4.67,7.69,7.08,11.57.35.55,1.26.89,1.36,1.42a30.21,30.21,0,0,1,.86,7.4c-.06.79-2.82,2.34-3.34,2a21.65,21.65,0,0,1-5.22-5c-.72-.94-.33-2.65-.82-3.85-1.38-3.41-2.67-5.44-7.68-4.22-7,1.71-14.24,4.47-21.84,2.4a6.64,6.64,0,0,0-4.41.12c-1.29.67-2.06,2.33-3.06,3.56,1.27.66,2.53,1.88,3.81,1.9,4.57.06,9.22-.87,13.71-.35,5.35.63,10.6,2.28,15.84,3.67,2.57.68,4.23,2.27,2.68,5.17-1.72,3.19-6.68,5.18-8.84,3.74-1.91-1.27-3.88-2.46-5.57-3.53.76-.13,2.13-.34,3.49-.59s2.81-.56,4.47-.9c-3.49-4.26-23-4.75-26.67-.71l5.23,1.19-4,7c3.29,1.2,6.59,2.93,10.08,3.52,3.64.62,7.46.14,11.21.14l.72,1.67c-1.3,1.49-2.31,3.55-3.94,4.37-7.71,3.88-19,.26-22-7.7-2.49-6.6-7.48-9.76-13-12.88-2.52-1.44-4.22-.92-4.72,2-.32,1.92-.72,4.09-.16,5.86,4.46,14.06,14.91,21.86,29.61,23.09,7.07.59,14,2.28,21.09,3,1.6.17,3.75-1.08,5-2.31,3.9-3.74,8.09-6.55,13.72-5.39a4,4,0,0,1,2.35,3.08c-.4,5-4.14,7.13-8.33,8.6-2,.69-4.06,1.11-6.32,1.71,2.59,2.91,4.87,5.37,7,7.93s3.7,1.8,4.85-.76a97.73,97.73,0,0,1,4.92-10.38c2.73,11.23-1.7,21.86-2.41,32.84,8.86,6.49,17.88,13,26.8,19.69,2.84,2.11,37.9,21,37.9,31.61H1623.63L1620.91,307s22.43-.68,31.23-2.14c5.51-.91,11.89-3.61,11.67-10.36-.38-12.27,7-21.14,11.94-31,1.47-2.91,2.13-5.25,1.24-8.33a40.37,40.37,0,0,1-1.44-8.32c-.08-1.1.88-2.28,1.36-3.43l3.79,2.35c.25-2.85.59-5.52.69-8.21s-.3-5.68,0-8.46c.34-3,1.7-4.42,5.45-4.92,5.55-.74,12.87.17,14.64-8.2.19-.9,2.42-1.29,3.59-2.08a34.77,34.77,0,0,1,7.13-4.18,34.5,34.5,0,0,0-2.86,3.58,53.85,53.85,0,0,0-2.36,4.9,39.05,39.05,0,0,0,4.87.93c6.55.46,13.11.81,19.67,1.15,1.43.08,2.88-.07,4.32-.12-.34-2-.25-4.12-1.12-5.79-1.22-2.36-3.16-4.36-4.79-6.51Zm17.41,91.85c-2.34,1.2-4.07,2.24-5.92,3-2.49,1-5.08,1.83-7.63,2.7-1.47.51-3,1-4.43,1.48a27.76,27.76,0,0,0,2,4.62c1.09,1.63,2.74,2.87,3.87,4.48.77,1.09,1.74,2.7,1.46,3.77-1.27,4.68,2.76,6.31,4.49,9.3.22-2.35-1.12-5-.29-6.45C1744.87,315.92,1747.55,309,1747.34,299.71Z"/><path d="M1730,207.79c-.39-1.06-.48-2.56-1.24-3.11-2.8-2-2.85-4.51-2.39-7.51.49-3.21.23-6.08-4.31-6s-4.39,2.62-4.41,6c0,2.37-1.4,4.73-2.18,7.09l-1.61-.51v-3.49c-4.52,1.25-8.71,2.74-13,3.49-2.8.48-5.36.15-7.57-3.07-1.81-2.63-5.62-4.42-8.9-5.36-2.76-.8-7-1.22-6.67,4.32l-.44-4-1.32-.07L1674,218c-10.73-4.65-7.36-13.36-8.51-21.08l4.84.66a22.49,22.49,0,0,0-.39-4.6,61,61,0,0,1-.3-35.8c2.13-7.19,4.77-14.24,7.36-21.29a6.74,6.74,0,0,1,2.81-3.31c6.87-3.85,14.44-6.73,20.63-11.44,6.5-5,13.55-4.49,20.46-4.26,12.68.41,25.33,1.92,36.92,7.82a11.11,11.11,0,0,1,2.57,2.43c.34.35.48,1,.86,1.2,4,2,7.91,4.9,12.18,5.7,4.68.87,5.95,4,7.79,7.23,1,1.81,2,3.65,3.11,5.43.51.84,1.48,1.51,1.71,2.4,2.48,9.59,4.92,19.13,4.25,29.26-.59,9-3.74,17.15-7.53,25.15a25.68,25.68,0,0,0-.91,2.65c.59.08.78.17.9.12,2.39-1.1,4.78-2.22,7.16-3.33.31,3.06.95,6.15.79,9.19-.11,2-1.4,3.87-2.46,6.6-1.43-3.69-2.35-6.46-3.67-9-.18-.36-2.27.25-2.6.3,1,3.15,3,6.09,2.51,8.59-.44,2.35-3.4,4.24-5.24,6.34l-1.64-.76c0-2.4-.41-4.88.07-7.18,1.43-6.85,2.9-13.61-2.58-20.71l5.48,1.06c-.72-4.09-1.46-8-2.09-12-2.23-14.1-9.89-24.82-20.93-33.35a11.84,11.84,0,0,0-5.42-2.4c-12-1.54-24.07-3.33-36.17-4.09-11.91-.75-21.73,3.69-28.38,14.25-2.1,3.33-5.78,5.75-7.51,9.2a107,107,0,0,0-6.22,17c-.34,1.13,1,3.16,2.14,4.25s3.09,1.85,5,2.91l4.36-5.45.46,1.67h10.12c2.64,0,5.29,0,7.93-.07,2-.06,3.9-.3,5.85-.46-.74-1.69-1.49-3.38-2.19-5,3.35,1.09,8.59-.15,9.24,6,9.5,1.3,9.5,1.3,12.83-5.31l-.11-.13H1742a10.89,10.89,0,0,0-2.06,1.58c-.88,1.24-1.63,2.56-2.43,3.85,1.34.39,2.74,1.22,4,1.08,6.67-.71,12.46,1.56,17.7,5.26,1.37,1,1.82,3.24,3.12,5.7l-16.56-3-.21,1.11a20.26,20.26,0,0,1,4.67,1.2c1.14.6,1.9,1.94,2.82,3-1.15.66-2.41,2-3.43,1.87a51.34,51.34,0,0,1-11-2.75c-7.28-3-7.81-2.84-8.68,4.65C1729.93,207.86,1730,207.79,1730,207.79Z"/><path d="M1713.08,182.53,1692.39,180C1697.55,175.28,1710,176.43,1713.08,182.53Z"/><path d="M1729.54,184.46c2.41-4.86,6.27-6.63,13.33-5.75a25.42,25.42,0,0,1,9.1,2.9c-5,.24-10,.3-15,.79-2.55.25-5,1.25-7.54,1.92A1.71,1.71,0,0,0,1729.54,184.46Z"/><path d="M1770.9,192.94l-4.59,7.38c.35-2.11.73-4.91,1.45-7.62C1767.82,192.48,1770.19,192.88,1770.9,192.94Z"/><path class="a" d="M1747.34,299.71c.21,9.3-2.47,16.21-6.42,22.89-.83,1.41.51,4.1.29,6.45-1.73-3-5.76-4.62-4.49-9.3.28-1.07-.69-2.68-1.46-3.77-1.13-1.61-2.78-2.85-3.87-4.48a27.76,27.76,0,0,1-2-4.62c1.48-.49,3-1,4.43-1.48,2.55-.87,5.14-1.68,7.63-2.7C1743.27,302,1745,300.91,1747.34,299.71Z"/><path class="a" d="M648.42,879.31V674.83H874.61V889.26l-64.92-22.51c1.43,8.16,2.17,15.47,4,22.47,3.22,12,7.34,23.84,10.74,35.84,3.36,11.83,6.29,23.78,9.41,35.68H804c-6.93-13.51-13.74-27.07-20.88-40.46-1.5-2.8-1.79-5.26,0-7.46,3.89-4.79,1.88-8.87-.92-13-1.22-1.81-2.47-3.61-3.63-5.31L785,890l-2.64-4.37,5-1.59.08-1.21a33.33,33.33,0,0,0-4.76-1.61c-3-.56-6-.64-8.92-1.33a7.48,7.48,0,0,1-3.82-2.56c-.3-.37,1-2.17,1.72-3.17,1.84-2.48,3.79-4.87,5.7-7.3l-1.16-1.09c-2.08,1.62-4.12,3.3-6.27,4.82-.93.66-2.26,1.63-3.09,1.38-5.09-1.5-9.9-2.83-15.31-.32-1.87.86-5.09-.85-7.58-1.7-3.67-1.25-7.27-2.73-10.84-4.24-1.47-.62-3.18-1.25-4.15-2.4-7.28-8.7-11.5-18.84-13.61-29.92-1.17-6.12-1.33-12.74-3.93-18.19-2.71-5.68-6.9-10.58-6.57-17.38,0-.36-.57-.76-1.51-1.94-.39,5.34-.69,9.66-1,14-.95,12.81-1.44,25.67,2.13,38.13,1.15,4,.47,6.63-2,9.24s-4.63,6-7.62,7C679.42,869.58,663.88,874.33,648.42,879.31ZM836.53,741.88a3.76,3.76,0,0,0-.15-.44c-.83-1.68-1.71-3.33-2.46-5a25.44,25.44,0,0,1-.83-3.4l-10.83-3,2.26-2.52-4.18-1.32.36-1.31,13.7,3.25c-2.8-7-3.57-7.21-10.7-7.56-2.94-.15-7.93-1.5-8.27-3.09-.72-3.4-1.7-2.36-3.47-1.58-.2.09-.52-.09-.82-.15l-.66-2.49h-6.2v-5.06c-1.47,1.63-2.76,4.42-4.57,4.81-4.1.89-8.47.61-12.77.8l1-13.06.83-1.82,3.79,5.5c-1.61-7.17-5.88-9.64-12.23-5.85,3.17,4.48,8.68,8.68,3.59,15.15L779,712.45c-.66,2-1.24,3.81-1.58,4.84a55.94,55.94,0,0,1-5.27-3.3c-1.28-1-3.17-2.33-3.24-3.61-.47-8.12-5.36-12.84-13.45-13.52-9.29-.79-18.13,1.06-27.08,3a15.64,15.64,0,0,0-11.84,10.56,30.53,30.53,0,0,1-3.94,7.34c-4.14,6.18-10.17,11.24-11.58,19.05-.64,3.53-.78,7.16-1.56,10.66-2.58,11.67,1.73,22.41,4.15,33.47.73-1.68,1.83-4,1.11-4.94-3.17-4.28-1.08-8.47-.5-12.71l-.17.14a61,61,0,0,0,.51,6.2,3.87,3.87,0,0,0,1.56,2.27c.27.18,1.29-.76,2-1.15,2.37-1.28,4.68-3.42,7.15-3.63a86.87,86.87,0,0,1,17.14.19c3.21.37,6.24,2.36,9.35,3.64.93.38,1.83.84,2.74,1.27,0-1.07.41-2.51-.12-3.14-3.14-3.71-6.48-7.24-9.81-10.78a2.34,2.34,0,0,0-1.62-.48c-3.68.13-7.36.45-11,.48-4.42,0-8.27.82-10.71,5.16-.86,1.54-2.63,2.57-4,3.84,3.37-9.74,10.53-16.92,13.24-27.38,2.66-10.26,13.08-15.63,24.28-16.51,7.94-.62,16-.2,23.88-1.24,12.18-1.61,23.67-.34,34.2,6.15,7.08,4.36,13.72,9.22,15.17,18.45.27,1.74,2.16,3.22,3.3,4.82l1.57-.61c-.46-3.21-.92-6.42-1.59-11.13,3.88,2,6.81,3.46,9.73,4.94l.85,1.34c3,4,2.9,9-.33,13.79l-2-3.21c-.49,2.73-.74,4.63-1.22,6.48-.33,1.29-.62,2.92-1.53,3.69-3.7,3.12-5.33,12.88-2.86,17.84l-21-5.77-.31,1.16,23.06,7.4c2.28-1,5-2,7.46-3.33a4.28,4.28,0,0,0,1.71-2.44c2.1-7.2,4.69-14.34,5.92-21.69C841.82,753.74,844.22,746.45,836.53,741.88ZM726,824.31a54.41,54.41,0,0,0,.09,6.38,4.52,4.52,0,0,0,1.82,2.52c1.51,1.21,3.33,2.06,4.79,3.32,2.37,2.05-.48,3-1,4.57-1.63,5.3,4.15,13.28,9.78,13.92,3.28.37,6.6.35,9.89.63,4.74.41,6.53-2.8,8.48-6-4.44-.57-8.5-.77-12.41-1.66-6.24-1.41-9-4.77-8.59-10,1.86-.3,3.78-.95,5.65-.84,5,.27,9.87,1,14.81,1.28a22.37,22.37,0,0,0,6.75-1c2.72-.76,5.34-1.9,8.73-3.14-.76-.91-1.57-2.51-2.87-3.29-2.56-1.53-5.56-2.34-8.08-3.91-7.57-4.72-16.16-3.82-24.39-4.43C735.17,822.38,730.7,823.7,726,824.31Zm9.2-39c-4.83-1.12-10.29,1.68-15.42-3.16,7.49-1.94,14-2.55,20.54.65l2.87-3.47c-9.25-5.1-18.17-9.17-28.77-2.39v-5.51l-5.3,6.08-2.25-3.53V788l.7,0,1.79-5.64C717.46,790.54,726.35,787.92,735.21,785.26ZM759,772.43c13.78-4.19,26.94-5.3,39.25,3.58,1.23-7.85-2.24-12.38-10-13.25-2.34-.25-4.67-.69-7-1.1C774.81,760.53,762.5,766.45,759,772.43ZM797.8,786.1c-4-2.76-7.27-5.42-10.89-7.47-7.16-4-14.87-2.76-22.38-1.24-1.27.26-3.12,4.08-2.92,4.26a99.22,99.22,0,0,0,8.25,6.2l.88-1c-.21-1-.41-2-.88-4.35Zm-31.23,25.12c-8.75-3.15-17.14,1-25.4-2.35-3.87-1.57-8.49-1-9-6.65-4.84.71-6.29,3.29-6.07,7.4,4.7-4,4.74-4,7,1.48,1.58,3.8,4.15,5.31,8.21,4a13.21,13.21,0,0,1,3.09-.39c5.85-.41,11.72-.67,17.55-1.26C763.47,813.31,764.83,812.1,766.57,811.22Zm-37.76-11.16c-10.52-.68-21.35,1.42-24-12.34l-1.24.9,5.64,10.7-2.17,1.9Zm40.43,6.17c3.44,5.63,6.45,10.58,9.47,15.53l1-.7C775.28,817,777.93,808.17,769.24,806.23Zm63.25-8.3c.75-1.78,1.29-2.44,1.22-3a31.54,31.54,0,0,0-1.09-4.88,6.82,6.82,0,0,0-1.87.37,30,30,0,0,0,.45,4.43A20.28,20.28,0,0,0,832.49,797.93Zm-55.85-9.7-.19,1.09,9.94,1.9.26-1.57Z"/><path class="b" d="M648.42,879.31c15.46-5,31-9.73,46.32-15.12,3-1.06,5.2-4.51,7.62-7s3.2-5.22,2-9.24c-3.57-12.46-3.08-25.32-2.13-38.13.32-4.31.62-8.63,1-14,.94,1.18,1.53,1.58,1.51,1.94-.33,6.8,3.86,11.7,6.57,17.38,2.6,5.45,2.76,12.07,3.93,18.19,2.11,11.08,6.33,21.22,13.61,29.92,1,1.15,2.68,1.78,4.15,2.4,3.57,1.51,7.17,3,10.84,4.24,2.49.85,5.71,2.56,7.58,1.7,5.41-2.51,10.22-1.18,15.31.32.83.25,2.16-.72,3.09-1.38,2.15-1.52,4.19-3.2,6.27-4.82l1.16,1.09c-1.91,2.43-3.86,4.82-5.7,7.3-.75,1-2,2.8-1.72,3.17a7.48,7.48,0,0,0,3.82,2.56c2.91.69,6,.77,8.92,1.33a33.33,33.33,0,0,1,4.76,1.61l-.08,1.21-5,1.59L785,890l-6.35,4.52c1.16,1.7,2.41,3.5,3.63,5.31,2.8,4.16,4.81,8.24.92,13-1.78,2.2-1.49,4.66,0,7.46,7.14,13.39,14,27,20.88,40.46H764.23c.2-11.9-.25-23.86.87-35.67.55-5.76-.25-9.88-4.67-13.27-2.22-1.7-2.23-3.51-1-5.81,2-3.8,3.79-7.69,5.79-11.8-19.13-3.89-36.08-11.24-49.55-25.52,3.85,8.83,8.44,17.11,12.12,25.77,9.35,22,18.3,44.19,27.41,66.3H648.42Zm64.38-37.22c1-6.33-.88-11.57-3.38-16.65-.45-.92-1.56-1.51-2.36-2.25-.48,1.11-1.6,2.41-1.33,3.3,1.42,4.85,3.15,9.62,4.89,14.37C710.8,841.34,711.77,841.53,712.8,842.09Z"/><path class="b" d="M833.89,960.74c-3.12-11.9-6-23.85-9.41-35.68-3.4-12-7.52-23.8-10.74-35.84-1.88-7-2.62-14.31-4-22.47l64.92,22.51v71.48Z"/><path class="a" d="M755.18,960.74c-9.11-22.11-18.06-44.29-27.41-66.3-3.68-8.66-8.27-16.94-12.12-25.77,13.47,14.28,30.42,21.63,49.55,25.52-2,4.11-3.8,8-5.79,11.8-1.21,2.3-1.2,4.11,1,5.81,4.42,3.39,5.22,7.51,4.67,13.27-1.12,11.81-.67,23.77-.87,35.67Z"/><path d="M831,744.82l-9.74-5c.67,4.71,1.13,7.92,1.59,11.13l-1.57.61c-1.14-1.6-3-3.08-3.3-4.82-1.45-9.23-8.09-14.09-15.17-18.45-10.53-6.49-22-7.76-34.2-6.15-7.88,1-15.94.62-23.88,1.24-11.2.88-21.62,6.25-24.28,16.51-2.71,10.46-9.87,17.64-13.24,27.38,1.35-1.27,3.12-2.3,4-3.84,2.44-4.34,6.29-5.12,10.71-5.16,3.68,0,7.36-.35,11-.48a2.34,2.34,0,0,1,1.62.48c3.33,3.54,6.67,7.07,9.81,10.78.53.63.1,2.07.12,3.14-.91-.43-1.81-.89-2.74-1.27-3.11-1.28-6.14-3.27-9.35-3.64a86.87,86.87,0,0,0-17.14-.19c-2.47.21-4.78,2.35-7.15,3.63-.71.39-1.73,1.33-2,1.15a3.87,3.87,0,0,1-1.56-2.27,61,61,0,0,1-.51-6.2c2.45-5.84,8.89-9.74,8.68-17l-3.57-.31c.9-3.34,1.71-6.31,2.52-9.3-3.15-.62-5.25,1.39-6.18,4.41a148.93,148.93,0,0,0-4.4,17.32c-.24,1.36,2,3.17,3.12,4.77-.58,4.24-2.67,8.43.5,12.71.72,1-.38,3.26-1.11,4.94-2.42-11.06-6.73-21.8-4.15-33.47.78-3.5.92-7.13,1.56-10.66,1.41-7.81,7.44-12.87,11.58-19.05a30.53,30.53,0,0,0,3.94-7.34,15.64,15.64,0,0,1,11.84-10.56c9-2,17.79-3.81,27.08-3,8.09.68,13,5.4,13.45,13.52.07,1.28,2,2.6,3.24,3.61a55.94,55.94,0,0,0,5.27,3.3c.34-1,.92-2.8,1.58-4.84l4.88,1.27c5.09-6.47-.42-10.67-3.59-15.15,6.35-3.79,10.62-1.32,12.23,5.85l-3.79-5.5-.83,1.82-1,13.06c4.3-.19,8.67.09,12.77-.8,1.81-.39,3.1-3.18,4.57-4.81v5.06h6.2l.66,2.49c.3.06.62.24.82.15,1.77-.78,2.75-1.82,3.47,1.58.34,1.59,5.33,2.94,8.27,3.09,7.13.35,7.9.55,10.7,7.56l-13.7-3.25-.36,1.31,4.18,1.32L822.26,730l10.83,3a25.44,25.44,0,0,0,.83,3.4c.75,1.71,1.63,3.36,2.46,5-3.18-2.49-5.92-5.83-10.72-5.64C831.39,736.67,828.89,742.13,831,744.82Z"/><path d="M726,824.31c4.69-.61,9.16-1.93,13.5-1.61,8.23.61,16.82-.29,24.39,4.43,2.52,1.57,5.52,2.38,8.08,3.91,1.3.78,2.11,2.38,2.87,3.29-3.39,1.24-6,2.38-8.73,3.14a22.37,22.37,0,0,1-6.75,1c-4.94-.23-9.86-1-14.81-1.28-1.87-.11-3.79.54-5.65.84-.36,5.2,2.35,8.56,8.59,10,3.91.89,8,1.09,12.41,1.66-1.95,3.18-3.74,6.39-8.48,6-3.29-.28-6.61-.26-9.89-.63-5.63-.64-11.41-8.62-9.78-13.92.47-1.55,3.32-2.52,1-4.57-1.46-1.26-3.28-2.11-4.79-3.32a4.52,4.52,0,0,1-1.82-2.52A54.41,54.41,0,0,1,726,824.31Zm21.55,2.25c-4.7.87-8.77,1.39-12.68,2.49-1.11.31-1.75,2.29-2.61,3.51,1.14.78,2.24,2.14,3.43,2.24,9.08.75,18.17,1.34,27.26,1.69,1.18,0,2.43-1.6,3.64-2.47-.81-.92-1.47-2.35-2.48-2.67C758.58,829.58,752.94,828.08,747.56,826.56Z"/><path d="M836.53,741.88c7.69,4.57,5.29,11.86,4.22,18.19-1.23,7.35-3.82,14.49-5.92,21.69a4.28,4.28,0,0,1-1.71,2.44c-2.51,1.31-5.18,2.34-7.46,3.33l-23.06-7.4.31-1.16,21,5.77c-2.47-5-.84-14.72,2.86-17.84.91-.77,1.2-2.4,1.53-3.69.48-1.85.73-3.75,1.22-6.48l2,3.21c3.23-4.79,3.35-9.83.33-13.79C836.35,747.53,837.32,746.64,836.53,741.88Z"/><path d="M735.21,785.26c-8.86,2.66-17.75,5.28-25.84-2.86L707.58,788l-.7,0V773.93l2.25,3.53,5.3-6.08v5.51c10.6-6.78,19.52-2.71,28.77,2.39l-2.87,3.47c-6.52-3.2-13.05-2.59-20.54-.65C724.92,786.94,730.38,784.14,735.21,785.26Z"/><path d="M759,772.43c3.55-6,15.86-11.9,22.22-10.77,2.32.41,4.65.85,7,1.1,7.8.87,11.27,5.4,10,13.25C785.89,767.13,772.73,768.24,759,772.43Z"/><path d="M797.8,786.1l-27.94-3.55c.47,2.31.67,3.33.88,4.35l-.88,1a99.22,99.22,0,0,1-8.25-6.2c-.2-.18,1.65-4,2.92-4.26,7.51-1.52,15.22-2.8,22.38,1.24C790.53,780.68,793.81,783.34,797.8,786.1Z"/><path d="M766.57,811.22c-1.74.88-3.1,2.09-4.57,2.24-5.83.59-11.7.85-17.55,1.26a13.21,13.21,0,0,0-3.09.39c-4.06,1.3-6.63-.21-8.21-4-2.28-5.45-2.32-5.43-7-1.48-.22-4.11,1.23-6.69,6.07-7.4.48,5.67,5.1,5.08,9,6.65C749.43,812.21,757.82,808.07,766.57,811.22Z"/><path class="a" d="M704.25,763.31c-1.11-1.6-3.36-3.41-3.12-4.77a148.93,148.93,0,0,1,4.4-17.32c.93-3,3-5,6.18-4.41-.81,3-1.62,6-2.52,9.3l3.57.31c.21,7.29-6.23,11.19-8.68,17Z"/><path class="a" d="M836.53,741.88c.79,4.76-.18,5.65-4.65,4.27-.28-.45-.57-.89-.85-1.33-2.14-2.69.36-8.15-5.37-9,4.8-.19,7.54,3.15,10.72,5.64A3.76,3.76,0,0,1,836.53,741.88Z"/><path d="M728.81,800.06l-21.74,1.16,2.17-1.9-5.64-10.7,1.24-.9C707.46,801.48,718.29,799.38,728.81,800.06Z"/><path d="M769.24,806.23c8.69,1.94,6,10.76,10.51,14.83l-1,.7C775.69,816.81,772.68,811.86,769.24,806.23Z"/><path d="M832.49,797.93a20.28,20.28,0,0,1-1.29-3.1,30,30,0,0,1-.45-4.43,6.82,6.82,0,0,1,1.87-.37,31.54,31.54,0,0,1,1.09,4.88C833.78,795.49,833.24,796.15,832.49,797.93Z"/><path d="M776.64,788.23l10,1.42-.26,1.57-9.94-1.9Z"/><path class="a" d="M712.8,842.09c-1-.56-2-.75-2.18-1.23-1.74-4.75-3.47-9.52-4.89-14.37-.27-.89.85-2.19,1.33-3.3.8.74,1.91,1.33,2.36,2.25C711.92,830.52,713.79,835.76,712.8,842.09Z"/><path class="a" d="M747.56,826.56c5.38,1.52,11,3,16.56,4.79,1,.32,1.67,1.75,2.48,2.67-1.21.87-2.46,2.52-3.64,2.47-9.09-.35-18.18-.94-27.26-1.69-1.19-.1-2.29-1.46-3.43-2.24.86-1.22,1.5-3.2,2.61-3.51C738.79,828,742.86,827.43,747.56,826.56Z"/><path class="a" d="M3826.08,335.27V169.6h206.86V332.18c-13.52-5.34-27.09-10.56-40.54-16.06-4-1.63-5.4-.11-7.44,3.19a135.26,135.26,0,0,1-13.2,17.91c-1.77,2-6.09,1.72-8.06,3.68-5.78,5.77-13,5-20.85,6.23l8.35-7.91-.83-1c-1.33.61-2.7,1.16-4,1.85a30.91,30.91,0,0,1-33.67-3.54c-4.4-3.71-10.1-6.43-13.22-11-4.74-6.88-8.54-14.56-7.95-23.73.18-2.81-1.92-6.51-4.14-8.47-1.38-1.2-6.76-.69-7.26.43-2.43,5.43-9,9.43-6.37,16.83a71.17,71.17,0,0,1,1.87,8.29c-5.56,2.13-10.59,4.32-15.78,6C3848.65,328.48,3837.35,331.82,3826.08,335.27Zm159.56-100c0-5.92-.12-10.37,0-14.81s.62-8.88.9-13.33c.8-12.82-10.58-24.64-23.39-23.6-10,.81-19.85,2.3-30,1.67-15.86-1-31.79-.52-47.69-.95-7-.18-13.87,3.63-15,9.7-2.62,13.65-.9,27.26,1,40.83.46,3.22,2.75,3.89,4.72,2.34,2.51-2,5.9-4.77,6.07-7.39.56-9.12,5.06-14,13.49-16.34,3.24-.9,6.11-3.21,9.36-4a89.88,89.88,0,0,1,13.79-2.12,61.53,61.53,0,0,1,9.69.16,131.8,131.8,0,0,1,14.08,1.34c4.53.81,8.88,2.55,13.38,3.5,9.87,2.09,11.69,4.12,13.2,14.13.31,2.08,1.72,5,3.38,5.67C3976.43,233.65,3980.7,234.14,3985.64,235.29Zm-53.73,29.47c-.3-9.65.71-11.39,9.48-12.52,6.51-.84,13.21-.48,19.81-.19,1.86.08,3.65,1.78,5.48,2.74l-.61,1.54-6.11-1.41.65,1.4c-1.46.9-2.88,2.53-4.37,2.59-5.23.21-10.49-.18-15.74-.17a16,16,0,0,0-3.85,1c.47,1.73.56,3.76,1.57,5.07.57.74,2.74.58,4.08.29,4.31-.93,8.53-2.81,12.86-3,6.06-.3,11.5,1.15,16.82-4.83,2.85-3.19,10.64-2,15.95-2.71-2.33-5.24-2.67-5.55-9.25-3.89-2.19.55-4.07,2.24-6.19,3.17-.88.39-2.68.54-2.91.14a12.5,12.5,0,0,1-.89-3.8c-3.08-.55-6-.71-8.74-1.63-9.29-3.17-18.27-4.78-26.21,3.13a5.16,5.16,0,0,1-1.78.85c-7.77,3.08-14.62,1-21.58-3a19.42,19.42,0,0,0-11-2.31c-4.43.44-8.65,2.74-13,4a80,80,0,0,1-7.89,1.53l-3.76,6.86,7.49,7.07c2.36-13.14,5.7-15.38,20.64-14.66,5.36.26,9,3.57,9.39,9-5-.72-10-1.19-14.87-2.21-3.65-.77-10.3,2-13.09,6.27,7.27-.39,14.33-.83,21.39-1.09,1.95-.07,4.51-.27,5.77.79,4,3.35,7.24,3.77,10.32-.87a7.68,7.68,0,0,0,.41-.81l-.93.05c-.13-1.6-.25-3.21-.38-4.81,1.51.07,3,.11,4.51.24.49.05,1.11.66,1.39.5C3932.54,255.79,3930.78,260.93,3931.91,264.76Zm-3.64,61.74c-2.54-5.83-10.94-6.55-11.14-13.39l4.91-.92-5.44-5.14,9.07-1.1L3926,304c-2.35-.7-4.67-1.85-7.05-2s-5.09.71-8.23,1.23c.84-4.6,1.77-7,6.37-6.75,3.15.17,6.4-1.31,9.61-2.05l0-1.7c-3.45-1.22-6.83-3-10.38-3.5-4.06-.58-7.32-.95-5.1-6.83-4.14,2.87-8.81,18-7.3,21.68a1.17,1.17,0,0,0,.25.45c5,4.47,5.53,10.7,6.72,16.77,1.24,6.32,4.94,8.14,11.13,6.25A59.3,59.3,0,0,1,3928.27,326.5Zm-60.59-41.83c5.22-6.08,1.84-12.66,2.22-18.78.08-1.27-2.4-2.74-3.84-4-.08-.06-2,1.31-2.12,2.14C3863,271.23,3863.58,278.13,3867.68,284.67Zm76.57-2.93-2.09,1.32c3.2,6.54,6.34,13.11,9.68,19.58.37.7,1.85.82,2.82,1.21.31-1.06,1.22-2.46.84-3.13C3951.88,294.32,3948,288.05,3944.25,281.74ZM3934,304.06l-.11.57,7.47,1.78c-.76,1.86-1.32,3.25-2.23,5.5,2.23-.3,4-.13,5.27-.82,1-.54,1.47-2.14,2.17-3.26-1.53-.86-3-2.06-4.6-2.5A70.71,70.71,0,0,0,3934,304.06Z"/><path class="c" d="M3824.65,335.8c11.26-3.45,24-7.32,35.21-10.93,5.19-1.66,10.22-3.85,15.78-6a71.17,71.17,0,0,0-1.87-8.29c-2.61-7.4,3.94-11.4,6.37-16.83.5-1.12,5.88-1.63,7.26-.43,2.22,2,4.32,5.66,4.14,8.47-.59,9.17,3.21,16.85,7.95,23.73,3.12,4.54,8.82,7.26,13.22,11a30.91,30.91,0,0,0,33.67,3.54c1.29-.69,2.66-1.24,4-1.85l.83,1-8.35,7.91c7.82-1.24,15.07-.46,20.85-6.23,2-2,6.29-1.66,8.06-3.68a135.26,135.26,0,0,0,13.2-17.91c2-3.3,3.47-4.82,7.44-3.19,13.45,5.5,27,10.72,40.54,16.06v94.71H3919.73c5.49-15.54,11-31.08,16.59-47l2.91,2.19,14.57-28.83-1.11-1.49c-7.91,3.2-15.79,6.48-23.76,9.53a6.76,6.76,0,0,1-4.5-.15c-12-4.81-24.06-9.74-34.39-19.89,1.87,10.37,3.5,19.46,5.28,29.33l-4.86-2c-2.57,9.33-.25,17.87,2.27,26.43a15.18,15.18,0,0,1,.72,5.41c-.28,3.4-1.4,6.75-1.41,10.13,0,5.45.59,10.91.93,16.37H3827.3C3827.3,396.35,3824.65,366.34,3824.65,335.8Z"/><path class="c" d="M3893,426.89c-.34-5.46-.94-10.92-.93-16.37,0-3.38,1.13-6.73,1.41-10.13a15.18,15.18,0,0,0-.72-5.41c-2.52-8.56-4.84-17.1-2.27-26.43l4.86,2c-1.78-9.87-3.41-19-5.28-29.33,10.33,10.15,22.34,15.08,34.39,19.89a6.76,6.76,0,0,0,4.5.15c8-3.05,15.85-6.33,23.76-9.53l1.11,1.49-14.57,28.83-2.91-2.19c-5.62,15.91-11.1,31.45-16.59,47h-18.52c9.88-8.71,17.21-39.65,10.41-45.47-2.14,2.84-4.86,5.42-6.2,8.58-.82,1.94.4,4.78.8,7.2.21,1.21,1,2.44.88,3.56-1,7.07-1.44,14.3-5.81,20.44a58.28,58.28,0,0,0-3.17,5.69Z"/><path d="M3898.12,426.89a58.28,58.28,0,0,1,3.17-5.69c4.37-6.14,4.81-13.37,5.81-20.44.15-1.12-.67-2.35-.88-3.56-.4-2.42-1.62-5.26-.8-7.2,1.34-3.16,4.06-5.74,6.2-8.58,6.8,5.82-.53,36.76-10.41,45.47Z"/><path d="M3985.64,235.29c-4.94-1.15-9.21-1.64-13-3.24-1.66-.71-3.07-3.59-3.38-5.67-1.51-10-3.33-12-13.2-14.13-4.5-.95-8.85-2.69-13.38-3.5a131.8,131.8,0,0,0-14.08-1.34,61.53,61.53,0,0,0-9.69-.16,89.88,89.88,0,0,0-13.79,2.12c-3.25.83-6.12,3.14-9.36,4-8.43,2.35-12.93,7.22-13.49,16.34-.17,2.62-3.56,5.43-6.07,7.39-2,1.55-4.26.88-4.72-2.34-1.94-13.57-3.66-27.18-1-40.83,1.17-6.07,8-9.88,15-9.7,15.9.43,31.83,0,47.69.95,10.18.63,20-.86,30-1.67,12.81-1,24.19,10.78,23.39,23.6-.28,4.45-.75,8.88-.9,13.33S3985.64,229.37,3985.64,235.29Z"/><path d="M3933.74,251.65c7.94-7.91,16.92-6.3,26.21-3.13,2.7.92,5.66,1.08,8.74,1.63a12.5,12.5,0,0,0,.89,3.8c.23.4,2,.25,2.91-.14,2.12-.93,4-2.62,6.19-3.17,6.58-1.66,6.92-1.35,9.25,3.89-5.31.74-13.1-.48-15.95,2.71-5.32,6-10.76,4.53-16.82,4.83-4.33.22-8.55,2.1-12.86,3-1.34.29-3.51.45-4.08-.29-1-1.31-1.1-3.34-1.57-5.07a16,16,0,0,1,3.85-1c5.25,0,10.51.38,15.74.17,1.49-.06,2.91-1.69,4.37-2.59l-.65-1.4,6.11,1.41.61-1.54c-1.83-1-3.62-2.66-5.48-2.74-6.6-.29-13.3-.65-19.81.19-8.77,1.13-9.78,2.87-9.48,12.52-1.13-3.83.63-9-5.21-5.73-.28.16-.9-.45-1.39-.5-1.49-.13-3-.17-4.51-.24.13,1.6.25,3.21.38,4.81l.93-.05a7.68,7.68,0,0,1-.41.81c-3.08,4.64-6.33,4.22-10.32.87-1.26-1.06-3.82-.86-5.77-.79-7.06.26-14.12.7-21.39,1.09,2.79-4.29,9.44-7,13.09-6.27,4.87,1,9.86,1.49,14.87,2.21-.4-5.44-4-8.75-9.39-9-14.94-.72-18.28,1.52-20.64,14.66l-7.49-7.07,3.76-6.86a80,80,0,0,0,7.89-1.53c4.38-1.23,8.6-3.53,13-4a19.42,19.42,0,0,1,11,2.31c7,4,13.81,6.08,21.58,3a5.16,5.16,0,0,0,1.78-.85"/><path d="M3928.27,326.5a59.3,59.3,0,0,0-6.2,1.12c-6.19,1.89-9.89.07-11.13-6.25-1.19-6.07-1.68-12.3-6.72-16.77a1.17,1.17,0,0,1-.25-.45c-1.51-3.63,3.16-18.81,7.3-21.68-2.22,5.88,1,6.25,5.1,6.83,3.55.5,6.93,2.28,10.38,3.5l0,1.7c-3.21.74-6.46,2.22-9.61,2.05-4.6-.26-5.53,2.15-6.37,6.75,3.14-.52,5.71-1.36,8.23-1.23s4.7,1.27,7.05,2l-.34,1.91-9.07,1.1,5.44,5.14-4.91.92C3917.33,320,3925.73,320.67,3928.27,326.5Z"/><path d="M3867.68,284.67c-4.1-6.54-4.72-13.44-3.74-20.6.12-.83,2-2.2,2.12-2.14,1.44,1.22,3.92,2.69,3.84,4C3869.52,272,3872.9,278.59,3867.68,284.67Z"/><path d="M3944.25,281.74c3.78,6.31,7.63,12.58,11.25,19,.38.67-.53,2.07-.84,3.13-1-.39-2.45-.51-2.82-1.21-3.34-6.47-6.48-13-9.68-19.58Z"/><path d="M3934,304.06a70.71,70.71,0,0,1,8,1.27c1.64.44,3.07,1.64,4.6,2.5-.7,1.12-1.16,2.72-2.17,3.26-1.3.69-3,.52-5.27.82.91-2.25,1.47-3.64,2.23-5.5l-7.47-1.78Z"/><polygon class="c" points="3960.9 347.13 3928.27 354.13 3886.6 332.11 3874.66 395.23 3952.35 392.93 3960.9 347.13"/><polygon class="b" points="2165.7 94.13 2165.7 44.44 2072.53 7.18 2050.79 196.62 1932.78 196.62 1796.13 339.47 1623.09 336.56 1628.68 559.24 1404.83 488.54 1348.92 395.38 1286.81 438.85 1119.11 712.14 546.39 1084.64 713.76 1084.64 1150.29 756.29 1299.05 450.37 1346.9 420.02 1395.33 523.55 1641.3 594.54 1654.16 371.19 1809.75 380.19 1935.1 220.03 2051.3 224.83 2094.5 47.27 2138.84 66.47 2154.74 112.97 2259.17 265.62 2266.35 250.99 2165.7 94.13"/><path class="c" d="M4468.29,251,4367.63,94.13V44.44L4274.46,7.18l-21.74,189.44h-118L3998.07,339.47l-173-2.91,5.59,222.67-223.86-70.69-55.9-93.16-62.11,43.47-167.7,273.3-572.73,372.49h167.37l817.58.38,519.62-343.48-23.8-243.91,184.42-238,47.6,5.95h0Z"/><polygon class="c" points="4548.05 94.13 4548.05 44.44 4454.88 7.18 4433.14 196.62 4315.13 196.62 4178.48 339.47 4005.44 336.56 4011.03 559.24 3787.17 488.54 3731.27 395.38 3669.16 438.85 3501.46 712.14 2928.74 1084.64 3096.11 1084.64 3532.64 756.29 3681.4 450.37 3729.25 420.02 3777.68 523.55 4023.65 594.54 4036.51 371.19 4192.1 380.19 4317.45 220.03 4433.65 224.83 4476.85 47.27 4521.19 66.47 4537.09 112.97 4641.52 265.62 4648.7 250.99 4548.05 94.13"/><polygon class="a" points="4521.19 66.47 4476.85 47.27 4433.64 224.83 4317.45 220.03 4192.1 380.19 4036.51 371.19 4023.65 594.54 3777.68 523.55 3729.25 420.02 3681.4 450.37 3532.64 756.29 3096.11 1084.64 3913.69 1085.02 4433.3 741.54 4409.5 497.63 4593.93 259.67 4641.52 265.62 4537.09 112.97 4521.19 66.47"/><path class="c" d="M5253.62,2l-441.7-2-22.49,196.62h-118L4534.77,339.47l-173-2.91,5.6,222.67-223.86-70.69-55.9-93.16-62.12,43.47-167.7,273.3L3285,1084.64,5253.62,1083Z"/><polygon class="b" points="2266.35 250.99 2259.17 265.62 2747.59 1082 2874.91 1087.57 2266.35 250.99"/><polygon class="a" points="2138.84 66.47 2094.5 47.27 2051.3 224.83 1935.1 220.03 1809.75 380.19 1654.16 371.19 1641.3 594.54 1395.33 523.55 1346.9 420.02 1299.05 450.37 1150.29 756.29 713.76 1084.64 1531.34 1085.02 2050.95 741.54 2027.15 497.63 2211.58 259.67 2259.17 265.62 2154.74 112.97 2138.84 66.47"/><text class="d" transform="translate(13.27 785.92)">CHINA</text><text class="e" transform="translate(0 636.4)">중국</text><text class="f" transform="translate(16.72 401.96)">Histo<tspan class="g" x="124.53" y="0">r</tspan><tspan class="h" x="152.1" y="0">y of Border Protocol</tspan></text><text class="i" transform="translate(13.14 328.56)">국경 협정의 력사</text><polygon class="b" points="4166.21 3.91 4166.2 4 4166.43 4 4166.21 3.91"/><rect class="b" x="349.68" y="717.97" width="63.34" height="20"/><text class="j" transform="translate(924.19 951.12)">「북·중 양국 변경주민들의 국경통행세칙」<tspan x="0" y="28.8">Border traffic rules for North Korean and Chinese residents </tspan></text><text class="k" transform="translate(860.15 707.27)">1948-1994<tspan x="0" y="21.6">김일성 집권기</tspan><tspan x="0" y="43.2">Kim Il Sung Era</tspan></text><text class="k" transform="translate(1811.44 123.87)">1994-2011<tspan x="0" y="21.6">김정일 집권기</tspan><tspan x="0" y="43.2">Kim Jong Il Era</tspan></text><text class="j" transform="translate(1091.8 826.56)">「북·중 변경지구 주민의 국경통행증 발급방법」<tspan x="0" y="28.8">Rules regarding border pass issuing for North Korean and Chinese residents</tspan></text><text class="j" transform="translate(1189.59 681.63)">「북·중 변경지역 주민의 국경 통행 세칙」<tspan x="0" y="28.8">Border traffic regulations for North Korean and Chinese residents</tspan></text><text class="j" transform="translate(1641.8 593.99)">「북·중 국경조약」<tspan x="0" y="28.8">North Korea-China Border Treaty</tspan></text><text class="j" transform="translate(2189.77 71.99)">「국경통과지점 및 그 관리제도에 관한 협정」<tspan x="0" y="28.8">Agreement on Border Passing Points and their Management Systems</tspan></text><text class="j" transform="translate(2563.26 488.66)">마지막 협정에서, 중국과 북한은 15개 국경통과지점을 설정하였다. <tspan x="28.99" y="28.8">In the last agreement, 15 crossing points were defined. </tspan></text><path class="a" d="M1571.43,517.55a1.5,1.5,0,0,0,0-3,1.5,1.5,0,0,0,0,3Z"/><text class="d" transform="translate(423.65 785.92)">DPRK</text><text class="e" transform="translate(216.12 1001.09)">북한</text><text class="j" transform="translate(1668.22 418.69)">「국경지역 국가안전과 사회질서 업무 협력 의정서」<tspan x="0" y="28.8">Protocol for Cooperation of National Security</tspan><tspan x="0" y="57.6">and Social Order in Border Region </tspan></text><text class="l" transform="matrix(0.85, -0.52, 0.52, 0.85, 860.2, 960.73)">1951</text><text class="m" transform="matrix(0.8, -0.59, 0.59, 0.8, 1034.77, 832.61)">1953</text><text class="n" transform="matrix(0.64, -0.77, 0.77, 0.64, 1179.7, 671.2)">1955</text><text class="n" transform="matrix(0.87, 0.49, -0.49, 0.87, 1565.14, 558.33)">1962</text><text class="o" transform="translate(1640.58 410.49) rotate(-67.94)">1964</text><text class="p" transform="translate(1654.87 368.46) rotate(1.88)">1986</text><text class="q" transform="translate(1715.17 379.32) rotate(1.88)">1996</text><text class="r" transform="translate(2069.22 62.09) rotate(1.88)">2001</text><text class="k" transform="translate(3993.8 128.79)">2011-present<tspan x="0" y="21.6">김정은 집권기</tspan><tspan x="0" y="43.2">Kim Jong Un Era</tspan></text></svg>