<svg xmlns="http://www.w3.org/2000/svg" viewBox="0 0 1151.08 684.88"><defs><style>.cls-1{fill:#1e1e1e;}</style></defs><g id="Layer_2" data-name="Layer 2"><g id="Layer_1-2" data-name="Layer 1"><polygon class="cls-1" points="1098.31 86.7 1072.61 53.44 1072.61 22.91 1015.35 0 1002.08 115.61 1001.99 116.43 929.46 116.43 845.47 204.23 843.8 204.36 746.22 211.87 746.08 216.6 742.56 339.3 736.37 337.34 604.97 295.85 570.62 238.59 549.47 253.39 532.44 265.31 429.37 433.28 320.33 504.2 163.18 606.4 0 684.88 159.16 676.34 186.35 657.24 194.15 651.75 448.53 460.41 539.96 272.39 553.37 259.89 569.81 244.56 597.04 312.17 599.14 317.37 745.68 365.24 758.22 223.72 849.65 217.83 930.88 130.82 1002.3 133.77 1028.85 24.64 1056.1 36.44 1065.55 57.09 1130.06 158.84 1151.08 163.71 1098.31 86.7"/></g></g></svg>