<svg xmlns="http://www.w3.org/2000/svg" viewBox="0 0 208.29 257.29"><defs><style>.cls-1{fill:#fff;}.cls-2{opacity:0.95;}</style></defs><g id="Layer_2" data-name="Layer 2"><g id="Layer_1-2" data-name="Layer 1"><path class="cls-1" d="M1.43,165.67V0H208.29V162.58c-13.52-5.33-27.08-10.56-40.54-16.06-4-1.62-5.4-.11-7.44,3.19a134.37,134.37,0,0,1-13.2,17.91c-1.76,2-6.09,1.72-8.05,3.68-5.79,5.78-13,5-20.85,6.23l8.34-7.9-.83-1c-1.33.61-2.7,1.16-4,1.86a31,31,0,0,1-33.67-3.54c-4.39-3.72-10.09-6.44-13.22-11-4.74-6.88-8.54-14.56-8-23.73.19-2.81-1.91-6.51-4.14-8.46-1.37-1.21-6.75-.7-7.25.42-2.43,5.44-9,9.43-6.38,16.83A70.06,70.06,0,0,1,51,149.29c-5.56,2.13-10.58,4.32-15.77,6C24,158.88,12.7,162.22,1.43,165.67ZM161,65.69c0-5.92-.12-10.37,0-14.8s.62-8.89.9-13.33c.81-12.83-10.58-24.64-23.39-23.61-10,.81-19.85,2.3-30,1.67-15.85-1-31.79-.52-47.69-.94-7-.19-13.87,3.62-15,9.7-2.62,13.65-.89,27.25,1,40.82.46,3.22,2.75,3.89,4.73,2.34,2.5-2,5.9-4.77,6.06-7.39.57-9.11,5.06-14,13.49-16.33,3.25-.91,6.11-3.21,9.37-4a87.37,87.37,0,0,1,13.78-2.12,61.52,61.52,0,0,1,9.69.15A132.24,132.24,0,0,1,118,39.15c4.52.81,8.87,2.55,13.37,3.51,9.88,2.09,11.7,4.11,13.2,14.12.31,2.08,1.72,5,3.39,5.67C151.78,64.06,156.05,64.55,161,65.69ZM107.27,95.16c-.3-9.65.7-11.39,9.47-12.52,6.51-.84,13.21-.48,19.81-.19,1.86.08,3.65,1.79,5.48,2.75l-.61,1.53-6.11-1.41.65,1.4c-1.45.91-2.88,2.53-4.36,2.59-5.24.22-10.5-.17-15.75-.16a15.63,15.63,0,0,0-3.85,1c.47,1.73.56,3.76,1.57,5.07.57.73,2.75.57,4.08.28,4.31-.93,8.54-2.81,12.86-3,6.06-.31,11.5,1.14,16.83-4.84,2.84-3.19,10.64-2,15.94-2.71C161,79.69,160.61,79.38,154,81c-2.19.55-4.07,2.24-6.19,3.18-.87.38-2.68.54-2.91.13a12.43,12.43,0,0,1-.89-3.79c-3.07-.55-6-.72-8.74-1.64C126,75.76,117,74.15,109.1,82.05a5.29,5.29,0,0,1-1.79.85c-7.77,3.08-14.62,1-21.58-3a19.42,19.42,0,0,0-11-2.31c-4.43.44-8.64,2.75-13,4-2.91.81-6,1.16-7.9,1.53L50,90,57.51,97c2.35-13.15,5.69-15.39,20.63-14.66,5.37.26,9,3.56,9.4,9-5-.72-10-1.19-14.88-2.22-3.65-.77-10.3,2-13.08,6.27,7.27-.38,14.32-.83,21.38-1.09,2-.07,4.51-.27,5.78.8,4,3.34,7.24,3.76,10.32-.88a7.61,7.61,0,0,0,.4-.81l-.93.06c-.12-1.61-.25-3.22-.37-4.82,1.5.07,3,.11,4.51.25.48,0,1.11.65,1.39.5C107.89,86.19,106.13,91.33,107.27,95.16Zm-3.65,61.74c-2.54-5.83-10.93-6.55-11.14-13.38l4.92-.93L92,137.45l9.08-1.1.33-1.9c-2.35-.7-4.67-1.86-7-2s-5.09.72-8.23,1.24c.85-4.61,1.77-7,6.37-6.76,3.16.18,6.41-1.3,9.61-2l0-1.71c-3.45-1.21-6.82-3-10.38-3.5-4.06-.58-7.31-1-5.09-6.83-4.15,2.88-8.82,18-7.31,21.69a1.39,1.39,0,0,0,.26.44c5,4.48,5.53,10.7,6.71,16.77,1.24,6.32,4.94,8.15,11.13,6.25A62.64,62.64,0,0,1,103.62,156.9ZM43,115.07c5.22-6.08,1.84-12.66,2.22-18.78.08-1.27-2.4-2.74-3.84-4-.08-.07-2,1.3-2.11,2.13C38.31,101.63,38.93,108.54,43,115.07Zm76.58-2.92-2.1,1.31c3.2,6.54,6.35,13.11,9.69,19.58.36.7,1.85.82,2.81,1.22.31-1.07,1.22-2.47.84-3.14C127.23,124.73,123.39,118.45,119.61,112.15Zm-10.29,22.31-.1.58,7.47,1.77-2.24,5.5c2.23-.29,4-.13,5.27-.82,1-.54,1.47-2.13,2.17-3.26-1.52-.86-3-2.06-4.6-2.5A72.67,72.67,0,0,0,109.32,134.46Z"/><path class="cls-2" d="M0,166.2c11.27-3.44,24-7.32,35.22-10.92,5.19-1.67,10.21-3.86,15.77-6A70.06,70.06,0,0,0,49.12,141c-2.61-7.4,4-11.39,6.38-16.83.5-1.12,5.88-1.63,7.25-.42,2.23,2,4.33,5.65,4.14,8.46-.59,9.17,3.21,16.85,8,23.73,3.13,4.54,8.83,7.26,13.22,11a31,31,0,0,0,33.67,3.54c1.29-.7,2.66-1.25,4-1.86l.83,1-8.34,7.9c7.81-1.24,15.06-.45,20.85-6.23,2-2,6.29-1.65,8.05-3.68a134.37,134.37,0,0,0,13.2-17.91c2-3.3,3.47-4.81,7.44-3.19,13.46,5.5,27,10.73,40.54,16.06v94.71H95.09c5.48-15.54,11-31.08,16.58-47l2.91,2.19q7.32-14.48,14.57-28.83L128,182.17c-7.91,3.21-15.79,6.49-23.76,9.53a6.76,6.76,0,0,1-4.5-.15c-12-4.81-24.06-9.74-34.39-19.89L70.68,201l-4.87-2c-2.57,9.33-.24,17.87,2.27,26.43a15.2,15.2,0,0,1,.72,5.42c-.28,3.39-1.4,6.75-1.41,10.12,0,5.46.59,10.91.94,16.37H2.65C2.65,226.75,0,196.75,0,166.2Z"/><path class="cls-2" d="M68.33,257.29c-.35-5.46-1-10.91-.94-16.37,0-3.37,1.13-6.73,1.41-10.12a15.2,15.2,0,0,0-.72-5.42c-2.51-8.56-4.84-17.1-2.27-26.43l4.87,2-5.29-29.33c10.33,10.15,22.34,15.08,34.39,19.89a6.76,6.76,0,0,0,4.5.15c8-3,15.85-6.32,23.76-9.53l1.11,1.49q-7.26,14.39-14.57,28.83l-2.91-2.19c-5.61,15.91-11.1,31.45-16.58,47H76.56c9.89-8.71,17.22-39.65,10.41-45.47-2.14,2.84-4.85,5.42-6.2,8.59-.82,1.94.4,4.78.81,7.2.2,1.21,1,2.44.87,3.56-1,7.06-1.43,14.29-5.8,20.43a58.36,58.36,0,0,0-3.18,5.69Z"/><path d="M73.47,257.29a58.36,58.36,0,0,1,3.18-5.69c4.37-6.14,4.81-13.37,5.8-20.43.16-1.12-.67-2.35-.87-3.56-.41-2.42-1.63-5.26-.81-7.2,1.35-3.17,4.06-5.75,6.2-8.59,6.81,5.82-.52,36.76-10.41,45.47Z"/><path d="M161,65.69c-4.94-1.14-9.21-1.63-13-3.24-1.67-.71-3.08-3.59-3.39-5.67-1.5-10-3.32-12-13.2-14.12-4.5-1-8.85-2.7-13.37-3.51a132.24,132.24,0,0,0-14.09-1.34,61.52,61.52,0,0,0-9.69-.15,87.37,87.37,0,0,0-13.78,2.12c-3.26.83-6.12,3.13-9.37,4C62.67,46.17,58.18,51,57.61,60.15c-.16,2.62-3.56,5.43-6.06,7.39-2,1.55-4.27.88-4.73-2.34-1.93-13.57-3.66-27.17-1-40.82,1.17-6.08,8-9.89,15-9.7,15.9.42,31.84,0,47.69.94,10.18.63,20-.86,30-1.67,12.81-1,24.2,10.78,23.39,23.61-.28,4.44-.74,8.88-.9,13.33S161,59.77,161,65.69Z"/><path d="M109.1,82.05c7.93-7.9,16.91-6.29,26.2-3.13C138,79.84,141,80,144,80.56a12.43,12.43,0,0,0,.89,3.79c.23.41,2,.25,2.91-.13,2.12-.94,4-2.63,6.19-3.18,6.58-1.66,6.92-1.35,9.25,3.89-5.3.74-13.1-.48-15.94,2.71-5.33,6-10.77,4.53-16.83,4.84-4.32.21-8.55,2.09-12.86,3-1.33.29-3.51.45-4.08-.28-1-1.31-1.1-3.34-1.57-5.07a15.63,15.63,0,0,1,3.85-1c5.25,0,10.51.38,15.75.16,1.48-.06,2.91-1.68,4.36-2.59l-.65-1.4,6.11,1.41L142,85.2c-1.83-1-3.62-2.67-5.48-2.75-6.6-.29-13.3-.65-19.81.19-8.77,1.13-9.77,2.87-9.47,12.52-1.14-3.83.62-9-5.21-5.72-.28.15-.91-.46-1.39-.5-1.5-.14-3-.18-4.51-.25.12,1.6.25,3.21.37,4.82l.93-.06a7.61,7.61,0,0,1-.4.81c-3.08,4.64-6.34,4.22-10.32.88-1.27-1.07-3.83-.87-5.78-.8-7.06.26-14.11.71-21.38,1.09,2.78-4.28,9.43-7,13.08-6.27,4.87,1,9.86,1.5,14.88,2.22-.41-5.45-4-8.75-9.4-9C63.2,81.64,59.86,83.88,57.51,97L50,90l3.76-6.85c1.94-.37,5-.72,7.9-1.53,4.38-1.23,8.59-3.54,13-4a19.42,19.42,0,0,1,11,2.31c7,4,13.81,6.08,21.58,3a5.29,5.29,0,0,0,1.79-.85"/><path d="M103.62,156.9a62.64,62.64,0,0,0-6.2,1.12c-6.19,1.9-9.89.07-11.13-6.25-1.18-6.07-1.67-12.29-6.71-16.77a1.39,1.39,0,0,1-.26-.44c-1.51-3.64,3.16-18.81,7.31-21.69-2.22,5.88,1,6.25,5.09,6.83,3.56.51,6.93,2.29,10.38,3.5l0,1.71c-3.2.74-6.45,2.22-9.61,2-4.6-.26-5.52,2.15-6.37,6.76,3.14-.52,5.71-1.37,8.23-1.24s4.7,1.28,7,2l-.33,1.9L92,137.45l5.45,5.14-4.92.93C92.69,150.35,101.08,151.07,103.62,156.9Z"/><path d="M43,115.07c-4.1-6.53-4.72-13.44-3.73-20.6.11-.83,2-2.2,2.11-2.13,1.44,1.21,3.92,2.68,3.84,4C44.87,102.41,48.25,109,43,115.07Z"/><path d="M119.61,112.15c3.78,6.3,7.62,12.58,11.24,19,.38.67-.53,2.07-.84,3.14-1-.4-2.45-.52-2.81-1.22-3.34-6.47-6.49-13-9.69-19.58Z"/><path d="M109.32,134.46a72.67,72.67,0,0,1,8,1.27c1.64.44,3.08,1.64,4.6,2.5-.7,1.13-1.15,2.72-2.17,3.26-1.29.69-3,.53-5.27.82l2.24-5.5L109.22,135Z"/><polygon class="cls-2" points="136.25 177.53 103.62 184.54 61.95 162.51 50.01 225.63 127.7 223.33 136.25 177.53"/></g></g></svg>