<svg xmlns="http://www.w3.org/2000/svg" viewBox="0 0 1025.45 886.19"><defs><style>.cls-1{fill:#d7a56a;}.cls-2{fill:#fff;}</style></defs><g id="Layer_2" data-name="Layer 2"><g id="Layer_1-2" data-name="Layer 1"><path class="cls-1" d="M288.6,443.33l68.25-114.45,84.57-3.65L597.13,215.64V120l35.5,2.22V91.61l48.51-7.1,27.7,83.19-32.51,17.18v53.86l40.15,41.36-2.87,89.79-14.53,1.56-76.14-21.8-66.36,78.67-20.36-69.51-122.58,47-8,75.9H338.18L319.27,506Zm40.85-212.25L372,197.33h46L511,114.6l76.1,4.75v91.1L438.06,315.37l-80.53,3.47Z"/><path class="cls-2" d="M677.72,90.06l25,75.2-26.09,13.79-5.33,2.81v58.91l2.83,2.91,37.26,38.38-2.67,83.32-9.23,1-72.1-20.64L621.2,344,617,348.9,558.76,418l-15.92-54.36-7.41-98.44,62.45-44,4.25-3V125.3L627,126.86l10.62.66V95.93l40.09-5.87M512.79,119.72l69.34,4.33v83.8L436.38,310.44l-75.25,3.24-25.87-80.83,38.43-30.52h46.18l2.84-2.53,90.08-80.08m3.59,158.86,6,80.17-40,15.35-67.7,26-5.72,2.2-.65,6.09-7.19,68.38H335.74l-3,3.84-12.5,16-26-53,65.48-109.8,80.41-3.47,2.93-.12,2.4-1.69,70.88-49.9M684.56,79l-56.93,8.33v29.59l-118.37-7.4-93.19,82.85H370.21l-46.58,37L353.93,324l85.81-3.7L592.13,213v0L439.74,320.3,353.93,324l-71,119.1,35.37,72.22,22.33-28.58h69.53l8.14-77.33,67.7-26,47-18L525,260.27,533,365.42l21.45,73.24,70.27-83.31,74,21.17,19.82-2.12,3.08-96.26-40.22-41.43V187.89l33.59-17.75L684.56,79Z"/><polygon class="cls-1" points="603.24 636.3 618.82 578.45 558.23 553.91 531.16 487.38 519.38 492.88 530.43 476.22 516.28 440.89 499.59 438.64 491.55 386.66 529.67 372.04 550.13 441.86 585.31 464.36 606.33 444.68 636.25 459.48 618.77 477.33 623.97 543.35 689.34 510.67 722.57 594.75 670.36 666.2 603.24 636.3"/><path class="cls-2" d="M526.4,378.65l18.4,62.82,1.06,3.59,3.15,2,30.33,19.39,6.55,4.19,5.67-5.31,15.66-14.66,20.64,10.21-11.07,11.31-3.18,3.25L614,480l4.44,56.36,1.17,14.79,13.27-6.63,53.86-26.93L716.91,594l-48.2,66-59.53-26.52L622.49,584l2.3-8.54-8.2-3.32-54.52-22.09-24.3-59.7-4-9.74-.44.21,2.67-4-1.95-4.87L522,441.74l-2.17-5.42-5.78-.78L504,434.18l-6.86-44.3,29.3-11.23M533,365.42l-47,18,9.23,59.66,17.5,2.35,12.09,30.19L505.4,504.92l23.11-10.78,25.89,63.61,58.44,23.67-15.54,57.7L672,672.41l56.21-76.93L692,503.75l-63.62,31.81-4.44-56.35,20.72-21.16-39.21-19.39-20.71,19.39L554.4,438.66,533,365.42Z"/><polygon class="cls-1" points="629.1 481.08 653.04 456.62 604.55 432.64 584.15 451.74 561.9 437.52 626.41 361.04 693.45 380.23 687.15 500.58 632.77 527.77 629.1 481.08"/><path class="cls-2" d="M628.14,366.74l60.1,17.2-5.93,113.47L637.18,520l-2.92-37L651.79,465l9.64-9.84-12.35-6.11-39.21-19.4-6.21-3.07-5,4.74-15,14.08-14.17-9.06,58.74-69.64m-3.47-11.39L554.4,438.66l30.33,19.39,20.71-19.39,39.21,19.39-20.72,21.16,4.44,56.35L692,503.75l6.66-127.23-74-21.17Z"/><polygon class="cls-1" points="454.08 647.18 515.73 581.86 474.7 524.76 525.86 500.89 550.56 561.59 606.86 584.4 592.91 636.2 537.29 679.3 454.08 647.18"/><path class="cls-2" d="M523.21,507.64l21.93,53.88,1.59,3.92,3.91,1.58,50.24,20.35-12.36,45.91-52.06,40.34L462.82,645.2l53.71-56.91,5.66-6-4.81-6.7-35.1-48.85L509.63,514l13.58-6.34m5.3-13.5L505.4,504.92l-38.28,17.85,42.14,58.65-63.93,67.75L538.13,685l59.17-45.87,15.54-57.7L554.4,557.75l-25.89-63.61Z"/><polygon class="cls-1" points="443.79 481.74 415.71 481.74 422.94 412.98 482 390.33 490.85 447.55 509.17 450.02 519.19 475.07 502.01 500.98 468.76 516.49 443.79 481.74"/><path class="cls-2" d="M478,397.21l7.34,47.42,1.14,7.38,7.41,1,11.72,1.58,8,19.9-15,22.55L470.4,510.21,449.34,480.9l-3-4.16H421.26l6.33-60.19L478,397.21m8-13.77-67.7,26-8.14,77.33h31.07l25.9,36,38.28-17.85,19.41-29.28-12.09-30.19-17.5-2.35L486,383.44Z"/><polygon class="cls-1" points="7.08 497.09 93.64 370.84 61.83 241.62 82.41 195.31 136.74 231.09 177.84 346.48 240.1 260.28 320.9 237.19 348.48 323.38 279.4 439.23 71.85 537.45 7.08 497.09"/><path class="cls-2" d="M84.58,202.73l48,31.62,37.34,104.84,6.38,17.93,11.14-15.43,55.68-77.08,74.48-21.28L343,322.75,275.89,435.36,72.18,531.76l-58-36.15L96.5,375.52l2.53-3.7L98,367.47,67.09,242.08l17.49-39.35m-4.35-14.84L56.56,241.15,88.25,369.86,0,498.58l71.52,44.55,211.4-100,71-119.1-30.3-94.69-3.72,3L237.06,256l-57.7,79.89-38.47-108-60.66-40Z"/><path class="cls-1" d="M677.63,673.21l56.27-77-34.56-87.45h79V472.08l88.87-23.79,141.12,42.34-17.25,47.7L785.36,672.15l-92,44.23Zm19.63-174.46L703.42,381l90.32-9.65L857.92,434l39-63.21,74.74-10L1020,458.36l-8.26,22.85L867.38,437.9l-99,26.51v34.34Zm100.1-137.81-73.71,7.88,2.74-85.68h73.33l38.46-19.77,1.61-51.13,72-24.05-1.35-4.06L956,274.26h9L941.06,299,967,351.32l-76.07,10.2L856,418.14Zm-73.7-87.8-37.33-38.46V190.9L721,172.58,691.19,83l.67-.1,24.33-60.81L732.72,6.78l71.88,65V139l75.46-59.18V124l27.77,55L830,205l-1.65,52.21-31.07,16Z"/><path class="cls-2" d="M732.76,13.56,799.6,74v75.28l16.18-12.68,59.28-46.49v35.09l1.07,2.12,24.63,48.76-69,23.06-6.61,2.2-.22,7-1.44,45.78-27.38,14.07H725.78l-34.45-35.48V193.92L719.59,179l7.49-4-2.67-8L696.8,84.06l.77-1.93L720.41,25l12.35-11.47M909.87,194.11l40.23,79.66,2.78,5.49h.3L939.92,293,935,298l3.13,6.33,21.27,42.93-66.81,9-4.69.63-2.49,4L855,410.21,802.53,359l-3.36-3.29-4.68.5-65.66,7,2.4-75.1h69.7l2.15-1.11,34.77-17.87,5.24-2.69.18-5.89,1.41-44.7,65.19-21.77m58.92,172.1,45.8,92.45-5.93,16.4L870.18,433.52l-2.72-.82-2.74.74-.67.17,1.41-2.28L900,375.45l68.83-9.24m-176.86,10.4,58,56.63,3.34,3.25-82.53,22.1-7.41,2v33.18H702.53l5.66-108.19,11.34-1.21,72.4-7.74m75.22,76.88,134.7,40.41L987,535.06,782.9,667.78l-86.71,41.7-13-35.48,53.07-72.62,3.25-4.45-2-5.13-30.85-78h76.67V475.92l83.79-22.43M732.67,0,712,19.23,688.29,78.41l-3.73.55,30.36,91.18-33.59,17.75v48.82l40.22,41.43h77l34.77-17.87,1.63-51.67,75.3-25.15-75.3,25.15-1.63,51.67-34.77,17.87h-77l-3.08,96.26,77.08-8.24L857,426.08l37-59.92,80.63-10.81L947.1,299.92l29.68-30.66H959l-74-146.47V69.53L809.6,128.71V69.53L732.67,0ZM974.56,355.35Zm0,0-80.63,10.81-37,59.92-61.4-59.92-77.08,8.24-19.82,2.12L692,503.75h81.37v-35.5L867.3,443.1l145.48,43.64L867.3,443.1l-93.94,25.15v35.5H692l36.24,91.73L672,672.41l18.56,50.87,97.23-46.76L995.24,541.61l30.21-83.56-50.89-102.7Z"/><polygon class="cls-1" points="405.68 837.29 390.34 789.69 390.01 715.07 446.66 655.04 538.96 690.67 598 644.91 668.04 676.12 684.33 720.74 623.15 750.15 548.9 761.17 445.5 878.8 405.68 837.29"/><path class="cls-2" d="M598.7,650.69l65.37,29.13,14,38.37-56.42,27.13L550,756l-3.63.54-2.41,2.75-98.6,112.17-35.25-36.75-14.75-45.77L395,717.05l53-56.13,86.53,33.4,5.27,2,4.46-3.46,54.45-42.2m-1.4-11.57L538.13,685l-92.8-35.82L385,713.1l.34,77.39,15.94,49.43,44.38,46.27L551.45,765.85,624.63,755l66-31.71L672,672.41,597.3,639.12Z"/><polygon class="cls-1" points="111.11 561.9 81.94 543.73 280.6 449.73 312.42 514.71 226.43 624.78 142.5 665.73 111.11 561.9"/><path class="cls-2" d="M278.28,456.35l28.28,57.75L223.2,620.79l-77.62,37.87-29.14-96.4-1.09-3.61-3.2-2L92.36,544.33l185.92-88m4.64-13.25-211.4,100,35.34,22L139.41,672.8l90.25-44,88.63-113.45L282.92,443.1Z"/></g></g></svg>