<svg xmlns="http://www.w3.org/2000/svg" viewBox="0 0 5232.62 1085.02"><defs><style>.a,.l,.m,.n,.o,.p,.q,.r{fill:#fff;}.b{opacity:0.95;}.c{font-size:150px;}.c,.e{font-family:Prohibition-Regular, Prohibition;}.d{font-size:253.69px;}.d,.h{font-family:KCC-KP-CheonRiMa-Bold-KP-2011KPS, KP CheonRiMa B;}.e{font-size:60.6px;}.f{letter-spacing:-0.01em;}.g{letter-spacing:0em;}.h{font-size:84.14px;}.i{fill:#1e1e1e;}.j{font-size:24px;font-family:KCC-KP-KwangMyeong-Medium-KP-2011KPS, KP KwangMyeong;}.k{font-size:18px;font-family:MapoGoldenPier-KSCpc-EUC-H, MapoGoldenPier;}.l{font-size:67.05px;}.l,.m,.n,.o,.p,.q,.r{font-family:KCC-KP-KwangMyeong-Bold-KP-2011KPS, KP KwangMyeong B;}.m{font-size:50.48px;}.n{font-size:36px;}.o{font-size:22.38px;}.p{font-size:27px;}.q{font-size:44.35px;}.r{font-size:39.65px;}</style></defs><path class="a" d="M1625.42,308.24v-204h198v223c-5.87-.61-11.73-1.61-17.61-1.71-4.14-.07-8.77.16-12.32,2-3.15,1.6-5.13,2.2-8,.08-8.92-6.66-17.94-13.2-26.8-19.69.71-11,5.14-21.61,2.41-32.84a97.73,97.73,0,0,0-4.92,10.38c-1.15,2.57-2.74,3.24-4.85.76s-4.45-5-7-7.93c2.26-.6,4.34-1,6.32-1.71,4.19-1.47,7.93-3.61,8.33-8.59a4,4,0,0,0-2.35-3.09c-5.63-1.16-9.82,1.65-13.72,5.39-1.29,1.23-3.44,2.48-5,2.31-7.06-.76-14-2.45-21.09-3-14.7-1.23-25.15-9-29.61-23.09-.56-1.77-.16-3.94.16-5.86.5-2.88,2.2-3.41,4.72-2,5.49,3.12,10.48,6.28,13,12.88,3,8,14.34,11.59,22,7.7,1.63-.82,2.64-2.88,3.94-4.37l-.72-1.67c-3.75,0-7.57.48-11.21-.14-3.49-.59-6.79-2.32-10.08-3.51l4-7-5.23-1.19c3.69-4,23.18-3.54,26.67.71-1.66.34-3.06.64-4.47.9s-2.73.47-3.49.59c1.69,1.07,3.66,2.26,5.57,3.53,2.16,1.44,7.12-.55,8.84-3.74,1.55-2.89-.11-4.49-2.68-5.17-5.24-1.39-10.49-3-15.84-3.66-4.49-.53-9.14.4-13.71.34-1.28,0-2.54-1.23-3.81-1.9,1-1.23,1.77-2.89,3.06-3.56a6.64,6.64,0,0,1,4.41-.12c7.6,2.07,14.82-.69,21.84-2.4,5-1.22,6.3.81,7.68,4.22.49,1.2.1,2.91.82,3.85a21.65,21.65,0,0,0,5.22,5c.52.34,3.28-1.21,3.34-2a30.13,30.13,0,0,0-.86-7.39c-.1-.54-1-.88-1.36-1.43-2.41-3.88-4.78-7.79-7.08-11.57-3.87-2.77-7.93-5.69-12-8.63.87-7.49,1.4-7.62,8.68-4.65a51.34,51.34,0,0,0,11,2.75c1,.17,2.28-1.2,3.43-1.87-.92-1-1.68-2.34-2.82-2.94a19.78,19.78,0,0,0-4.67-1.21l.21-1.11,16.56,3c-1.3-2.46-1.75-4.72-3.12-5.69-5.24-3.7-11-6-17.7-5.27-1.29.14-2.69-.69-4-1.07.8-1.29,1.55-2.62,2.43-3.86a11.34,11.34,0,0,1,2.06-1.58h-12.52c2.51-.67,5-1.67,7.54-1.92,5-.49,10-.55,15-.79a25.42,25.42,0,0,0-9.1-2.9c-7.06-.88-10.92.89-13.33,5.75-3.33,6.62-3.33,6.62-12.83,5.31-.65-6.1-5.89-4.87-9.24-6,.7,1.59,1.45,3.27,2.19,5-2,.16-3.9.4-5.85.46-2.64.09-5.29.06-7.93.07h-10.12l-.46-1.67-4.36,5.45c-1.88-1.06-3.72-1.68-5-2.91s-2.48-3.11-2.14-4.25a107,107,0,0,1,6.22-17c1.73-3.45,5.41-5.87,7.51-9.2,6.65-10.56,16.47-15,28.38-14.25,12.1.76,24.13,2.55,36.17,4.09a11.94,11.94,0,0,1,5.42,2.4c11,8.54,18.7,19.25,20.93,33.36.63,3.94,1.37,7.86,2.09,12l-5.48-1.06c5.48,7.1,4,13.86,2.58,20.71-.48,2.3-.07,4.78-.07,7.18l1.64.76c1.84-2.09,4.8-4,5.24-6.34S1783,214.14,1782,211c.33-.05,2.42-.66,2.6-.3,1.32,2.57,2.24,5.35,3.67,9,1.06-2.73,2.35-4.63,2.46-6.6.16-3-.48-6.12-.79-9.19-2.38,1.11-4.77,2.23-7.16,3.33-.12.06-.31,0-.9-.12a24.69,24.69,0,0,1,.91-2.64c3.79-8,6.94-16.11,7.53-25.16.67-10.13-1.77-19.67-4.25-29.26-.23-.89-1.2-1.55-1.71-2.4-1.08-1.78-2.07-3.62-3.11-5.43-1.84-3.19-3.11-6.36-7.79-7.23-4.27-.8-8.15-3.68-12.18-5.7-.38-.19-.52-.85-.86-1.2a11.33,11.33,0,0,0-2.57-2.43c-11.59-5.9-24.24-7.41-36.92-7.82-6.91-.23-14-.68-20.46,4.26-6.19,4.71-13.76,7.59-20.63,11.44a6.78,6.78,0,0,0-2.81,3.31c-2.59,7.05-5.23,14.1-7.36,21.29a61,61,0,0,0,.3,35.8,22.49,22.49,0,0,1,.39,4.6l-4.84-.66c1.15,7.72-2.22,16.43,8.51,21.08l1.9-22.39,1.32.07.44,4c-.33-5.54,3.91-5.11,6.67-4.32,3.28.94,7.09,2.73,8.9,5.36,2.21,3.22,4.77,3.55,7.57,3.07,4.32-.75,8.51-2.24,13-3.49v3.49l1.61.51c.78-2.36,2.16-4.72,2.18-7.08,0-3.4,0-5.95,4.41-6s4.8,2.8,4.31,6c-.46,3-.41,5.53,2.39,7.52.76.54.85,2,1.24,3.11,1.63,2.15,3.57,4.14,4.79,6.5.87,1.67.78,3.84,1.12,5.79-1.44.05-2.89.2-4.32.12-6.56-.33-13.12-.69-19.67-1.15a39.05,39.05,0,0,1-4.87-.93,52.43,52.43,0,0,1,2.36-4.89,33.59,33.59,0,0,1,2.86-3.59,34.77,34.77,0,0,0-7.13,4.18c-1.17.8-3.4,1.18-3.59,2.08-1.77,8.37-9.09,7.46-14.64,8.2-3.75.51-5.11,1.91-5.45,4.92-.32,2.78.09,5.64,0,8.46s-.44,5.36-.69,8.21l-3.79-2.34c-.48,1.14-1.44,2.32-1.36,3.42a40.37,40.37,0,0,0,1.44,8.32c.89,3.08.23,5.42-1.24,8.33-5,9.9-12.32,18.77-11.94,31,.22,6.75-6.16,9.45-11.67,10.36C1643.34,307.33,1634.34,307.52,1625.42,308.24Zm87.66-124.67c-3.09-6.09-15.53-7.25-20.69-2.58ZM1770.9,194c-.71-.06-3.08-.46-3.14-.24-.72,2.71-1.1,5.51-1.45,7.62Z"/><path d="M1729.93,208.91l12,8.61c2.3,3.78,4.67,7.69,7.08,11.57.35.55,1.26.89,1.36,1.43a30.13,30.13,0,0,1,.86,7.39c-.06.79-2.82,2.34-3.34,2a21.65,21.65,0,0,1-5.22-5c-.72-.94-.33-2.65-.82-3.85-1.38-3.41-2.67-5.44-7.68-4.22-7,1.71-14.24,4.47-21.84,2.4a6.64,6.64,0,0,0-4.41.12c-1.29.67-2.06,2.33-3.06,3.56,1.27.67,2.53,1.89,3.81,1.9,4.57.06,9.22-.87,13.71-.34,5.35.62,10.6,2.27,15.84,3.66,2.57.68,4.23,2.28,2.68,5.17-1.72,3.19-6.68,5.18-8.84,3.74-1.91-1.27-3.88-2.46-5.57-3.53.76-.12,2.13-.34,3.49-.59s2.81-.56,4.47-.9c-3.49-4.25-23-4.74-26.67-.71l5.23,1.19-4,7c3.29,1.19,6.59,2.92,10.08,3.51,3.64.62,7.46.14,11.21.14l.72,1.67c-1.3,1.49-2.31,3.55-3.94,4.37-7.71,3.89-19,.26-22-7.7-2.49-6.6-7.48-9.76-13-12.88-2.52-1.44-4.22-.91-4.72,2-.32,1.92-.72,4.09-.16,5.86,4.46,14.06,14.91,21.86,29.61,23.09,7.07.59,14,2.28,21.09,3,1.6.17,3.75-1.08,5-2.31,3.9-3.74,8.09-6.55,13.72-5.39A4,4,0,0,1,1759,268c-.4,5-4.14,7.12-8.33,8.59-2,.69-4.06,1.11-6.32,1.71,2.59,2.91,4.87,5.37,7,7.93s3.7,1.81,4.85-.76a97.73,97.73,0,0,1,4.92-10.38c2.73,11.23-1.7,21.86-2.41,32.84,8.86,6.49,17.88,13,26.8,19.69,2.84,2.12,37.9,21,37.9,31.62H1623.63L1620.91,308s22.43-.68,31.23-2.14c5.51-.91,11.89-3.61,11.67-10.36-.38-12.27,7-21.14,11.94-31,1.47-2.91,2.13-5.25,1.24-8.33a40.37,40.37,0,0,1-1.44-8.32c-.08-1.1.88-2.28,1.36-3.42l3.79,2.34c.25-2.85.59-5.52.69-8.21s-.3-5.68,0-8.46c.34-3,1.7-4.41,5.45-4.92,5.55-.74,12.87.17,14.64-8.2.19-.9,2.42-1.28,3.59-2.08a34.77,34.77,0,0,1,7.13-4.18,33.59,33.59,0,0,0-2.86,3.59,52.43,52.43,0,0,0-2.36,4.89,39.05,39.05,0,0,0,4.87.93c6.55.46,13.11.82,19.67,1.15,1.43.08,2.88-.07,4.32-.12-.34-1.95-.25-4.12-1.12-5.79-1.22-2.36-3.16-4.35-4.79-6.5Zm17.41,91.84c-2.34,1.2-4.07,2.24-5.92,3-2.49,1-5.08,1.82-7.63,2.7-1.47.5-3,1-4.43,1.47a27.4,27.4,0,0,0,2,4.62c1.09,1.63,2.74,2.87,3.87,4.48.77,1.1,1.74,2.71,1.46,3.77-1.27,4.68,2.76,6.31,4.49,9.3.22-2.34-1.12-5-.29-6.45C1744.87,317,1747.55,310.05,1747.34,300.75Z"/><path d="M1730,208.84c-.39-1.07-.48-2.57-1.24-3.11-2.8-2-2.85-4.52-2.39-7.52.49-3.21.23-6.07-4.31-6s-4.39,2.62-4.41,6c0,2.36-1.4,4.72-2.18,7.08l-1.61-.51V201.3c-4.52,1.25-8.71,2.74-13,3.49-2.8.48-5.36.15-7.57-3.07-1.81-2.63-5.62-4.42-8.9-5.36-2.76-.79-7-1.22-6.67,4.32l-.44-4-1.32-.07L1674,219c-10.73-4.65-7.36-13.36-8.51-21.08l4.84.66a22.49,22.49,0,0,0-.39-4.6,61,61,0,0,1-.3-35.8c2.13-7.19,4.77-14.24,7.36-21.29a6.78,6.78,0,0,1,2.81-3.31c6.87-3.85,14.44-6.73,20.63-11.44,6.5-4.94,13.55-4.49,20.46-4.26,12.68.41,25.33,1.92,36.92,7.82a11.33,11.33,0,0,1,2.57,2.43c.34.35.48,1,.86,1.2,4,2,7.91,4.9,12.18,5.7,4.68.87,5.95,4,7.79,7.23,1,1.81,2,3.65,3.11,5.43.51.85,1.48,1.51,1.71,2.4,2.48,9.59,4.92,19.13,4.25,29.26-.59,9-3.74,17.15-7.53,25.16a24.69,24.69,0,0,0-.91,2.64c.59.09.78.18.9.12,2.39-1.1,4.78-2.22,7.16-3.33.31,3.07.95,6.15.79,9.19-.11,2-1.4,3.87-2.46,6.6-1.43-3.68-2.35-6.46-3.67-9-.18-.36-2.27.25-2.6.3,1,3.15,3,6.09,2.51,8.59s-3.4,4.25-5.24,6.34l-1.64-.76c0-2.4-.41-4.88.07-7.18,1.43-6.85,2.9-13.61-2.58-20.71l5.48,1.06c-.72-4.09-1.46-8-2.09-12-2.23-14.11-9.89-24.82-20.93-33.36a11.94,11.94,0,0,0-5.42-2.4c-12-1.54-24.07-3.33-36.17-4.09-11.91-.75-21.73,3.69-28.38,14.25-2.1,3.33-5.78,5.75-7.51,9.2a107,107,0,0,0-6.22,17c-.34,1.14,1,3.16,2.14,4.25s3.09,1.85,5,2.91l4.36-5.45.46,1.67h10.12c2.64,0,5.29,0,7.93-.07,2-.06,3.9-.3,5.85-.46-.74-1.69-1.49-3.37-2.19-5,3.35,1.09,8.59-.14,9.24,6,9.5,1.31,9.5,1.31,12.83-5.31l-.11-.13H1742a11.34,11.34,0,0,0-2.06,1.58c-.88,1.24-1.63,2.57-2.43,3.86,1.34.38,2.74,1.21,4,1.07,6.67-.71,12.46,1.57,17.7,5.27,1.37,1,1.82,3.23,3.12,5.69l-16.56-3-.21,1.11a19.78,19.78,0,0,1,4.67,1.21c1.14.6,1.9,1.93,2.82,2.94-1.15.67-2.41,2-3.43,1.87a51.34,51.34,0,0,1-11-2.75c-7.28-3-7.81-2.84-8.68,4.65C1729.93,208.91,1730,208.84,1730,208.84Z"/><path d="M1713.08,183.57,1692.39,181C1697.55,176.32,1710,177.48,1713.08,183.57Z"/><path d="M1729.54,185.5c2.41-4.86,6.27-6.63,13.33-5.75a25.42,25.42,0,0,1,9.1,2.9c-5,.24-10,.3-15,.79-2.55.25-5,1.25-7.54,1.92Z"/><path d="M1770.9,194l-4.59,7.38c.35-2.11.73-4.91,1.45-7.62C1767.82,193.52,1770.19,193.92,1770.9,194Z"/><path class="a" d="M1747.34,300.75c.21,9.3-2.47,16.21-6.42,22.89-.83,1.41.51,4.11.29,6.45-1.73-3-5.76-4.62-4.49-9.3.28-1.06-.69-2.67-1.46-3.77-1.13-1.61-2.78-2.85-3.87-4.48a27.4,27.4,0,0,1-2-4.62c1.48-.49,3-1,4.43-1.47,2.55-.88,5.14-1.69,7.63-2.7C1743.27,303,1745,302,1747.34,300.75Z"/><path d="M648.42,880.35c15.46-5,31-9.73,46.32-15.12,3-1.05,5.2-4.51,7.62-7s3.2-5.22,2-9.24c-3.57-12.45-3.08-25.32-2.13-38.13.32-4.31.62-8.63,1-14,.94,1.18,1.53,1.57,1.51,1.93-.33,6.8,3.86,11.7,6.57,17.38,2.6,5.45,2.76,12.07,3.93,18.19,2.11,11.09,6.33,21.22,13.61,29.92,1,1.16,2.68,1.78,4.15,2.4,3.57,1.51,7.17,3,10.84,4.24,2.49.86,5.71,2.57,7.58,1.7,5.41-2.51,10.22-1.18,15.31.33.83.24,2.16-.73,3.09-1.38,2.15-1.53,4.19-3.21,6.27-4.83l1.16,1.09c-1.91,2.43-3.86,4.82-5.7,7.3-.75,1-2,2.8-1.72,3.17a7.48,7.48,0,0,0,3.82,2.56c2.91.69,6,.78,8.92,1.33a34.63,34.63,0,0,1,4.76,1.61l-.08,1.22-5,1.58L785,891l-6.35,4.52c1.16,1.7,2.41,3.5,3.63,5.31,2.8,4.16,4.81,8.24.92,13-1.78,2.2-1.49,4.66,0,7.46,7.14,13.39,14,27,20.88,40.46H764.23c.2-11.9-.25-23.86.87-35.67.55-5.76-.25-9.88-4.67-13.27-2.22-1.7-2.23-3.51-1-5.81,2-3.8,3.79-7.69,5.79-11.8-19.13-3.89-36.08-11.24-49.55-25.52,3.85,8.84,8.44,17.11,12.12,25.77,9.35,22,18.3,44.19,27.41,66.3H648.42Zm64.38-37.22c1-6.32-.88-11.57-3.38-16.65-.45-.92-1.56-1.51-2.36-2.25-.48,1.11-1.6,2.41-1.33,3.3,1.42,4.85,3.15,9.62,4.89,14.37C710.8,842.38,711.77,842.57,712.8,843.13Z"/><path d="M833.89,961.78c-3.12-11.9-6-23.85-9.41-35.68-3.4-12-7.52-23.8-10.74-35.84-1.88-7-2.62-14.31-4-22.47l64.92,22.51v71.48Z"/><path class="a" d="M755.18,961.78c-9.11-22.11-18.06-44.29-27.41-66.3-3.68-8.66-8.27-16.93-12.12-25.77,13.47,14.28,30.42,21.63,49.55,25.52-2,4.11-3.8,8-5.79,11.8-1.21,2.3-1.2,4.11,1,5.81,4.42,3.39,5.22,7.51,4.67,13.27-1.12,11.81-.67,23.77-.87,35.67Z"/><path d="M831,745.86l-9.74-4.94c.67,4.7,1.13,7.91,1.59,11.12l-1.57.61c-1.14-1.6-3-3.08-3.3-4.82-1.45-9.23-8.09-14.09-15.17-18.45-10.53-6.49-22-7.76-34.2-6.15-7.88,1-15.94.62-23.88,1.24-11.2.89-21.62,6.25-24.28,16.51-2.71,10.46-9.87,17.64-13.24,27.38,1.35-1.27,3.12-2.3,4-3.84,2.44-4.34,6.29-5.12,10.71-5.16,3.68,0,7.36-.35,11-.48a2.34,2.34,0,0,1,1.62.48c3.33,3.54,6.67,7.07,9.81,10.78.53.63.1,2.07.12,3.14-.91-.43-1.81-.89-2.74-1.27-3.11-1.28-6.14-3.26-9.35-3.63a86.11,86.11,0,0,0-17.14-.2c-2.47.21-4.78,2.35-7.15,3.64-.71.38-1.73,1.33-2,1.14a3.87,3.87,0,0,1-1.56-2.27,61,61,0,0,1-.51-6.2c2.45-5.84,8.89-9.74,8.68-17l-3.57-.3c.9-3.35,1.71-6.32,2.52-9.31-3.15-.62-5.25,1.39-6.18,4.41a148.93,148.93,0,0,0-4.4,17.32c-.24,1.36,2,3.17,3.12,4.77-.58,4.24-2.67,8.43.5,12.71.72,1-.38,3.26-1.11,4.94-2.42-11.06-6.73-21.79-4.15-33.47.78-3.5.92-7.13,1.56-10.66,1.41-7.81,7.44-12.87,11.58-19a30.34,30.34,0,0,0,3.94-7.34,15.64,15.64,0,0,1,11.84-10.56c9-2,17.79-3.81,27.08-3,8.09.68,13,5.4,13.45,13.53.07,1.27,2,2.59,3.24,3.6a55.94,55.94,0,0,0,5.27,3.31c.34-1,.92-2.81,1.58-4.85l4.88,1.28c5.09-6.47-.42-10.68-3.59-15.16,6.35-3.79,10.62-1.32,12.23,5.85L788.76,700l-.83,1.81-1,13.06c4.3-.19,8.67.09,12.77-.8,1.81-.39,3.1-3.18,4.57-4.81v5.06h6.2l.66,2.49c.3.06.62.24.82.15,1.77-.78,2.75-1.82,3.47,1.58.34,1.59,5.33,2.94,8.27,3.09,7.13.35,7.9.55,10.7,7.56l-13.7-3.25-.36,1.31,4.18,1.32-2.26,2.52,10.83,3a25,25,0,0,0,.83,3.4c.75,1.71,1.63,3.36,2.46,5-3.18-2.49-5.92-5.83-10.72-5.64C831.39,737.71,828.89,743.18,831,745.86Z"/><path d="M726,825.35c4.69-.61,9.16-1.92,13.5-1.6,8.23.6,16.82-.29,24.39,4.42,2.52,1.58,5.52,2.39,8.08,3.92,1.3.77,2.11,2.37,2.87,3.29-3.39,1.23-6,2.37-8.73,3.13a22.37,22.37,0,0,1-6.75,1c-4.94-.23-9.86-1-14.81-1.28-1.87-.11-3.79.54-5.65.84-.36,5.2,2.35,8.57,8.59,10,3.91.88,8,1.09,12.41,1.65-1.95,3.18-3.74,6.4-8.48,6-3.29-.28-6.61-.26-9.89-.63-5.63-.63-11.41-8.62-9.78-13.92.47-1.55,3.32-2.52,1-4.57-1.46-1.26-3.28-2.11-4.79-3.32a4.49,4.49,0,0,1-1.82-2.52A54.41,54.41,0,0,1,726,825.35Zm21.55,2.25c-4.7.87-8.77,1.39-12.68,2.49-1.11.31-1.75,2.3-2.61,3.51,1.14.78,2.24,2.14,3.43,2.24,9.08.75,18.17,1.34,27.26,1.69,1.18.05,2.43-1.6,3.64-2.47-.81-.92-1.47-2.35-2.48-2.67C758.58,830.62,752.94,829.12,747.56,827.6Z"/><path d="M836.53,742.93c7.69,4.56,5.29,11.86,4.22,18.18-1.23,7.36-3.82,14.49-5.92,21.69a4.25,4.25,0,0,1-1.71,2.44c-2.51,1.31-5.18,2.34-7.46,3.33l-23.06-7.4.31-1.16,21,5.78c-2.47-5-.84-14.73,2.86-17.85.91-.77,1.2-2.4,1.53-3.69.48-1.85.73-3.75,1.22-6.48,1,1.56,1.5,2.39,2,3.21,3.23-4.79,3.35-9.83.33-13.79C836.35,748.57,837.32,747.68,836.53,742.93Z"/><path d="M735.21,786.3c-8.86,2.66-17.75,5.28-25.84-2.85l-1.79,5.63h-.7V775l2.25,3.53,5.3-6.08v5.52c10.6-6.78,19.52-2.72,28.77,2.38l-2.87,3.47c-6.52-3.19-13.05-2.59-20.54-.65C724.92,788,730.38,785.18,735.21,786.3Z"/><path d="M759,773.47c3.55-6,15.86-11.9,22.22-10.77,2.32.41,4.65.85,7,1.11,7.8.86,11.27,5.39,10,13.24C785.89,768.17,772.73,769.28,759,773.47Z"/><path d="M797.8,787.15l-27.94-3.56c.47,2.31.67,3.33.88,4.35l-.88.95a97.06,97.06,0,0,1-8.25-6.2c-.2-.18,1.65-4,2.92-4.26,7.51-1.52,15.22-2.8,22.38,1.24C790.53,781.72,793.81,784.38,797.8,787.15Z"/><path d="M766.57,812.26c-1.74.88-3.1,2.09-4.57,2.24-5.83.6-11.7.86-17.55,1.26a13.21,13.21,0,0,0-3.09.39c-4.06,1.3-6.63-.21-8.21-4-2.28-5.44-2.32-5.43-7-1.48-.22-4.1,1.23-6.69,6.07-7.4.48,5.67,5.1,5.08,9,6.65C749.43,813.25,757.82,809.11,766.57,812.26Z"/><path class="a" d="M704.25,764.35c-1.11-1.6-3.36-3.41-3.12-4.77a148.93,148.93,0,0,1,4.4-17.32c.93-3,3-5,6.18-4.41-.81,3-1.62,6-2.52,9.31l3.57.3c.21,7.29-6.23,11.19-8.68,17Z"/><path class="a" d="M836.53,742.93c.79,4.75-.18,5.64-4.65,4.26-.28-.45-.57-.89-.85-1.33-2.14-2.68.36-8.15-5.37-9,4.8-.19,7.54,3.15,10.72,5.64A4,4,0,0,1,836.53,742.93Z"/><path d="M728.81,801.11l-21.74,1.15,2.17-1.9-5.64-10.7,1.24-.9C707.46,802.53,718.29,800.42,728.81,801.11Z"/><path d="M769.24,807.28c8.69,1.93,6,10.76,10.51,14.83l-1,.7C775.69,817.86,772.68,812.91,769.24,807.28Z"/><path d="M832.49,799a19.86,19.86,0,0,1-1.29-3.1,30,30,0,0,1-.45-4.43,7.21,7.21,0,0,1,1.87-.37,31.54,31.54,0,0,1,1.09,4.88C833.78,796.53,833.24,797.19,832.49,799Z"/><path d="M776.64,789.27l10,1.43-.26,1.56-9.94-1.9Z"/><path class="a" d="M712.8,843.13c-1-.56-2-.75-2.18-1.23-1.74-4.75-3.47-9.52-4.89-14.37-.27-.89.85-2.19,1.33-3.3.8.74,1.91,1.33,2.36,2.25C711.92,831.56,713.79,836.81,712.8,843.13Z"/><path class="a" d="M747.56,827.6c5.38,1.52,11,3,16.56,4.79,1,.32,1.67,1.75,2.48,2.67-1.21.87-2.46,2.52-3.64,2.47-9.09-.35-18.18-.94-27.26-1.69-1.19-.1-2.29-1.46-3.43-2.24.86-1.21,1.5-3.2,2.61-3.51C738.79,829,742.86,828.47,747.56,827.6Z"/><path class="a" d="M3826.08,303.31V137.64h206.86V300.22c-13.52-5.33-27.09-10.56-40.54-16.06-4-1.62-5.4-.11-7.44,3.19a135.26,135.26,0,0,1-13.2,17.91c-1.77,2-6.09,1.72-8.06,3.68-5.78,5.78-13,5-20.85,6.23l8.35-7.91-.83-1c-1.33.61-2.7,1.16-4,1.85a30.93,30.93,0,0,1-33.67-3.53c-4.4-3.72-10.1-6.44-13.22-11-4.74-6.88-8.54-14.56-7.95-23.73.18-2.81-1.92-6.51-4.14-8.46-1.38-1.21-6.76-.7-7.26.42-2.43,5.43-9,9.43-6.37,16.83a72.1,72.1,0,0,1,1.87,8.29c-5.56,2.13-10.59,4.32-15.78,6C3848.65,296.52,3837.35,299.86,3826.08,303.31Zm159.56-100c0-5.92-.12-10.37,0-14.81s.62-8.88.9-13.33c.8-12.82-10.58-24.64-23.39-23.6-10,.81-19.85,2.3-30,1.67-15.86-1-31.79-.52-47.69-.95-7-.18-13.87,3.63-15,9.71-2.62,13.65-.9,27.25,1,40.82.46,3.22,2.75,3.89,4.72,2.34,2.51-2,5.9-4.77,6.07-7.39.56-9.12,5.06-14,13.49-16.33,3.24-.91,6.11-3.22,9.36-4.05a88.65,88.65,0,0,1,13.79-2.11,61.52,61.52,0,0,1,9.69.15,131.8,131.8,0,0,1,14.08,1.34c4.53.81,8.88,2.55,13.38,3.5,9.87,2.09,11.69,4.12,13.2,14.13.31,2.08,1.72,5,3.38,5.67C3976.43,201.7,3980.7,202.18,3985.64,203.33Zm-53.73,29.47c-.3-9.65.71-11.39,9.48-12.52,6.51-.84,13.21-.48,19.81-.19,1.86.08,3.65,1.79,5.48,2.74l-.61,1.54L3960,223l.65,1.4c-1.46.9-2.88,2.53-4.37,2.59-5.23.22-10.49-.17-15.74-.16a15.49,15.49,0,0,0-3.85,1c.47,1.73.56,3.76,1.57,5.07.57.74,2.74.58,4.08.29,4.31-.93,8.53-2.81,12.86-3,6.06-.3,11.5,1.15,16.82-4.83,2.85-3.19,10.64-2,15.95-2.71-2.33-5.24-2.67-5.55-9.25-3.89-2.19.55-4.07,2.24-6.19,3.18-.88.38-2.68.53-2.91.13a12.43,12.43,0,0,1-.89-3.79c-3.08-.56-6-.72-8.74-1.64-9.29-3.17-18.27-4.77-26.21,3.13a5.16,5.16,0,0,1-1.78.85c-7.77,3.08-14.62,1-21.58-3a19.42,19.42,0,0,0-11-2.31c-4.43.44-8.65,2.74-13,4a80,80,0,0,1-7.89,1.53l-3.76,6.86,7.49,7.07c2.36-13.14,5.7-15.38,20.64-14.66,5.36.27,9,3.57,9.39,9-5-.72-10-1.2-14.87-2.22-3.65-.77-10.3,2-13.09,6.27,7.27-.38,14.33-.83,21.39-1.09,1.95-.07,4.51-.27,5.77.79,4,3.35,7.24,3.77,10.32-.87a7.68,7.68,0,0,0,.41-.81l-.93,0c-.13-1.6-.25-3.21-.38-4.81,1.51.07,3,.11,4.51.25.49,0,1.11.65,1.39.49C3932.54,223.83,3930.78,229,3931.91,232.8Zm-3.64,61.74c-2.54-5.83-10.94-6.55-11.14-13.38l4.91-.93-5.44-5.14,9.07-1.1.34-1.91c-2.35-.7-4.67-1.85-7.05-2s-5.09.72-8.23,1.24c.84-4.61,1.77-7,6.37-6.76,3.15.18,6.4-1.31,9.61-2l0-1.7c-3.45-1.21-6.83-3-10.38-3.5-4.06-.58-7.32-.95-5.1-6.83-4.14,2.88-8.81,18.05-7.3,21.69a1.2,1.2,0,0,0,.25.44c5,4.48,5.53,10.7,6.72,16.77,1.24,6.32,4.94,8.14,11.13,6.25A62.09,62.09,0,0,1,3928.27,294.54Zm-60.59-41.83c5.22-6.08,1.84-12.66,2.22-18.78.08-1.27-2.4-2.74-3.84-4-.08-.07-2,1.3-2.12,2.13C3863,239.27,3863.58,246.18,3867.68,252.71Zm76.57-2.93-2.09,1.32c3.2,6.54,6.34,13.11,9.68,19.58.37.7,1.85.82,2.82,1.21.31-1.06,1.22-2.46.84-3.13C3951.88,262.36,3948,256.09,3944.25,249.78ZM3934,272.1l-.11.57,7.47,1.78-2.23,5.5c2.23-.29,4-.13,5.27-.82,1-.54,1.47-2.14,2.17-3.26-1.53-.86-3-2.06-4.6-2.5A73.06,73.06,0,0,0,3934,272.1Z"/><path class="b" d="M3824.65,303.84c11.26-3.45,24-7.32,35.21-10.92,5.19-1.67,10.22-3.86,15.78-6a72.1,72.1,0,0,0-1.87-8.29c-2.61-7.4,3.94-11.4,6.37-16.83.5-1.12,5.88-1.63,7.26-.42,2.22,1.95,4.32,5.65,4.14,8.46-.59,9.17,3.21,16.85,7.95,23.73,3.12,4.54,8.82,7.26,13.22,11a30.93,30.93,0,0,0,33.67,3.53c1.29-.69,2.66-1.24,4-1.85l.83,1-8.35,7.91c7.82-1.24,15.07-.45,20.85-6.23,2-2,6.29-1.66,8.06-3.68a135.26,135.26,0,0,0,13.2-17.91c2-3.3,3.47-4.81,7.44-3.19,13.45,5.5,27,10.73,40.54,16.06v94.71H3919.73c5.49-15.54,11-31.08,16.59-47l2.91,2.19,14.57-28.83-1.11-1.49c-7.91,3.2-15.79,6.49-23.76,9.53a6.76,6.76,0,0,1-4.5-.15c-12-4.81-24.06-9.74-34.39-19.89,1.87,10.37,3.5,19.46,5.28,29.33l-4.86-2c-2.57,9.33-.25,17.87,2.27,26.43a15.2,15.2,0,0,1,.72,5.42c-.28,3.39-1.4,6.75-1.41,10.12,0,5.46.59,10.91.93,16.37H3827.3C3827.3,364.39,3824.65,334.38,3824.65,303.84Z"/><path class="b" d="M3893,394.93c-.34-5.46-.94-10.91-.93-16.37,0-3.37,1.13-6.73,1.41-10.12a15.2,15.2,0,0,0-.72-5.42c-2.52-8.56-4.84-17.1-2.27-26.43l4.86,2c-1.78-9.87-3.41-19-5.28-29.33,10.33,10.15,22.34,15.08,34.39,19.89a6.76,6.76,0,0,0,4.5.15c8-3,15.85-6.33,23.76-9.53l1.11,1.49-14.57,28.83-2.91-2.19c-5.62,15.91-11.1,31.45-16.59,47h-18.52c9.88-8.71,17.21-39.65,10.41-45.47-2.14,2.84-4.86,5.42-6.2,8.58-.82,1.95.4,4.79.8,7.21.21,1.2,1,2.43.88,3.55-1,7.07-1.44,14.3-5.81,20.44a58.28,58.28,0,0,0-3.17,5.69Z"/><path d="M3898.12,394.93a58.28,58.28,0,0,1,3.17-5.69c4.37-6.14,4.81-13.37,5.81-20.44.15-1.12-.67-2.35-.88-3.55-.4-2.42-1.62-5.26-.8-7.21,1.34-3.16,4.06-5.74,6.2-8.58,6.8,5.82-.53,36.76-10.41,45.47Z"/><path d="M3985.64,203.33c-4.94-1.15-9.21-1.63-13-3.24-1.66-.71-3.07-3.59-3.38-5.67-1.51-10-3.33-12-13.2-14.13-4.5-.95-8.85-2.69-13.38-3.5a131.8,131.8,0,0,0-14.08-1.34,61.52,61.52,0,0,0-9.69-.15,88.65,88.65,0,0,0-13.79,2.11c-3.25.83-6.12,3.14-9.36,4.05-8.43,2.34-12.93,7.21-13.49,16.33-.17,2.62-3.56,5.43-6.07,7.39-2,1.55-4.26.88-4.72-2.34-1.94-13.57-3.66-27.17-1-40.82,1.17-6.08,8-9.89,15-9.71,15.9.43,31.83,0,47.69.95,10.18.63,20-.86,30-1.67,12.81-1,24.19,10.78,23.39,23.6-.28,4.45-.75,8.89-.9,13.33S3985.64,197.41,3985.64,203.33Z"/><path d="M3933.74,219.69c7.94-7.9,16.92-6.3,26.21-3.13,2.7.92,5.66,1.08,8.74,1.64a12.43,12.43,0,0,0,.89,3.79c.23.4,2,.25,2.91-.13,2.12-.94,4-2.63,6.19-3.18,6.58-1.66,6.92-1.35,9.25,3.89-5.31.74-13.1-.48-15.95,2.71-5.32,6-10.76,4.53-16.82,4.83-4.33.22-8.55,2.1-12.86,3-1.34.29-3.51.45-4.08-.29-1-1.31-1.1-3.34-1.57-5.07a15.49,15.49,0,0,1,3.85-1c5.25,0,10.51.38,15.74.16,1.49-.06,2.91-1.69,4.37-2.59L3960,223l6.11,1.41.61-1.54c-1.83-1-3.62-2.66-5.48-2.74-6.6-.29-13.3-.65-19.81.19-8.77,1.13-9.78,2.87-9.48,12.52-1.13-3.83.63-9-5.21-5.73-.28.16-.9-.45-1.39-.49-1.49-.14-3-.18-4.51-.25.13,1.6.25,3.21.38,4.81l.93,0a7.68,7.68,0,0,1-.41.81c-3.08,4.64-6.33,4.22-10.32.87-1.26-1.06-3.82-.86-5.77-.79-7.06.26-14.12.71-21.39,1.09,2.79-4.29,9.44-7,13.09-6.27,4.87,1,9.86,1.5,14.87,2.22-.4-5.45-4-8.75-9.39-9-14.94-.72-18.28,1.52-20.64,14.66l-7.49-7.07,3.76-6.86a80,80,0,0,0,7.89-1.53c4.38-1.23,8.6-3.53,13-4a19.42,19.42,0,0,1,11,2.31c7,4,13.81,6.08,21.58,3a5.16,5.16,0,0,0,1.78-.85"/><path d="M3928.27,294.54a62.09,62.09,0,0,0-6.2,1.12c-6.19,1.89-9.89.07-11.13-6.25-1.19-6.07-1.68-12.29-6.72-16.77a1.2,1.2,0,0,1-.25-.44c-1.51-3.64,3.16-18.81,7.3-21.69-2.22,5.88,1,6.25,5.1,6.83,3.55.51,6.93,2.29,10.38,3.5l0,1.7c-3.21.74-6.46,2.23-9.61,2-4.6-.26-5.53,2.15-6.37,6.76,3.14-.52,5.71-1.37,8.23-1.24s4.7,1.27,7.05,2l-.34,1.91-9.07,1.1,5.44,5.14-4.91.93C3917.33,288,3925.73,288.71,3928.27,294.54Z"/><path d="M3867.68,252.71c-4.1-6.53-4.72-13.44-3.74-20.6.12-.83,2-2.2,2.12-2.13,1.44,1.21,3.92,2.68,3.84,4C3869.52,240.05,3872.9,246.63,3867.68,252.71Z"/><path d="M3944.25,249.78c3.78,6.31,7.63,12.58,11.25,19,.38.67-.53,2.07-.84,3.13-1-.39-2.45-.51-2.82-1.21-3.34-6.47-6.48-13-9.68-19.58Z"/><path d="M3934,272.1a73.06,73.06,0,0,1,8,1.27c1.64.44,3.07,1.64,4.6,2.5-.7,1.12-1.16,2.72-2.17,3.26-1.3.69-3,.53-5.27.82l2.23-5.5-7.47-1.78Z"/><polygon class="b" points="3960.9 315.17 3928.27 322.18 3886.6 300.15 3874.66 363.27 3952.35 360.97 3960.9 315.17"/><polygon points="2165.7 89.49 2165.7 39.8 2072.53 2.54 2050.79 191.98 1932.78 191.98 1796.13 334.83 1623.09 331.92 1628.68 554.6 1404.83 483.9 1348.92 390.74 1286.81 434.21 1119.11 707.51 546.39 1085.02 713.76 1085.02 1150.29 751.65 1299.05 445.73 1346.9 415.39 1395.33 518.91 1641.3 589.9 1654.16 366.55 1809.75 375.55 1935.1 215.39 2051.3 220.19 2094.5 42.63 2138.84 61.83 2154.74 108.34 2259.17 260.98 2266.35 246.35 2165.7 89.49"/><path d="M4468.29,246,4367.63,89.12V39.43L4274.46,2.16,4252.72,191.6h-118L3998.07,334.46l-173-2.92,5.59,222.68-223.86-70.69-55.9-93.17-62.11,43.48-167.7,273.29L2748.32,1085h984.95l519.62-348.49-23.8-243.92,184.42-238,47.6,6h0Z"/><polygon class="b" points="4548.05 89.11 4548.05 39.43 4454.88 2.16 4433.14 191.6 4315.13 191.6 4178.48 334.46 4005.44 331.54 4011.03 554.22 3787.17 483.52 3731.27 390.36 3669.16 433.84 3501.46 707.13 2928.74 1085.02 3096.11 1085.02 3532.64 751.27 3681.4 445.35 3729.25 415.01 3777.68 518.53 4023.65 589.52 4036.51 366.17 4192.1 375.17 4317.45 215.01 4433.65 219.81 4476.85 42.26 4521.19 61.45 4537.09 107.96 4641.52 260.6 4648.7 245.98 4548.05 89.11"/><polygon class="a" points="4521.19 61.45 4476.85 42.26 4433.64 219.81 4317.45 215.01 4192.1 375.17 4036.51 366.17 4023.65 589.52 3777.68 518.53 3729.25 415.01 3681.4 445.35 3532.64 751.27 3096.11 1085.02 3913.69 1085.02 4433.3 736.53 4409.5 492.61 4593.93 254.65 4641.52 260.6 4537.09 107.96 4521.19 61.45"/><path class="b" d="M5232.62,0h-420.7l-22.49,196.62h-118L4534.77,339.47l-173-2.91,5.6,222.67-223.86-70.69-55.9-93.16-62.12,43.47-167.7,273.3L3285,1085H5232.62Z"/><polygon class="b" points="2266.35 245.98 2259.17 260.6 2747.59 1085.02 2874.91 1085.02 2266.35 245.98"/><polygon class="a" points="2138.84 62.49 2094.5 43.3 2051.3 220.85 1935.1 216.05 1809.75 376.21 1654.16 367.21 1641.3 590.57 1395.33 519.58 1346.9 416.05 1299.05 446.39 1150.29 752.32 713.76 1085.02 1531.34 1085.02 2050.95 737.57 2027.15 493.66 2211.58 255.69 2259.17 261.64 2154.74 109 2138.84 62.49"/><text class="c" transform="translate(13.27 786.96)">CHINA</text><text class="d" transform="translate(0 637.44)">중국</text><text class="e" transform="translate(16.72 403)">Histo<tspan class="f" x="124.53" y="0">r</tspan><tspan class="g" x="152.1" y="0">y of Border Protocol</tspan></text><text class="h" transform="translate(13.14 329.61)">국경 협정의 력사</text><polygon class="i" points="4166.21 4.95 4166.2 5.04 4166.43 5.04 4166.21 4.95"/><rect class="i" x="349.68" y="719.02" width="63.34" height="20"/><text class="j" transform="translate(924.19 952.16)">「북·중 양국 변경주민들의 국경통행세칙」<tspan x="0" y="28.8">Border traffic rules for North Korean and Chinese residents </tspan></text><text class="k" transform="translate(860.15 708.31)">1948-1994<tspan x="0" y="21.6">김일성 집권기</tspan><tspan x="0" y="43.2">Kim Il Sung Era</tspan></text><text class="k" transform="translate(1811.44 124.91)">1994-2011<tspan x="0" y="21.6">김정일 집권기</tspan><tspan x="0" y="43.2">Kim Jong Il Era</tspan></text><text class="j" transform="translate(1091.8 827.6)">「북·중 변경지구 주민의 국경통행증 발급방법」<tspan x="0" y="28.8">Rules regarding border pass issuing for North Korean and Chinese residents</tspan></text><text class="j" transform="translate(1189.59 682.67)">「북·중 변경지역 주민의 국경 통행 세칙」<tspan x="0" y="28.8">Border traffic regulations for North Korean and Chinese residents</tspan></text><text class="j" transform="translate(1641.8 595.03)">「북·중 국경조약」<tspan x="0" y="28.8">North Korea-China Border Treaty</tspan></text><text class="j" transform="translate(2189.77 73.03)">「국경통과지점 및 그 관리제도에 관한 협정」<tspan x="0" y="28.8">Agreement on Border Passing Points and their Management Systems</tspan></text><text class="j" transform="translate(2563.26 489.7)">마지막 협정에서, 중국과 북한은 15개 국경통과지점을 설정하였다. <tspan x="28.99" y="28.8">In the last agreement, 15 crossing points were defined. </tspan></text><path class="a" d="M1571.43,518.59a1.5,1.5,0,0,0,0-3,1.5,1.5,0,0,0,0,3Z"/><text class="c" transform="translate(423.65 786.96)">DPRK</text><text class="d" transform="translate(216.12 1002.13)">북한</text><text class="j" transform="translate(1668.22 419.73)">「국경지역 국가안전과 사회질서 업무 협력 의정서」<tspan x="0" y="28.8">Protocol for Cooperation of National Security</tspan><tspan x="0" y="57.6">and Social Order in Border Region </tspan></text><text class="l" transform="matrix(0.85, -0.52, 0.52, 0.85, 860.2, 961.78)">1951</text><text class="m" transform="matrix(0.8, -0.59, 0.59, 0.8, 1034.77, 833.65)">1953</text><text class="n" transform="matrix(0.64, -0.77, 0.77, 0.64, 1179.7, 672.24)">1955</text><text class="n" transform="matrix(0.87, 0.49, -0.49, 0.87, 1565.14, 559.37)">1962</text><text class="o" transform="translate(1640.58 411.53) rotate(-67.94)">1964</text><text class="p" transform="translate(1654.87 369.5) rotate(1.88)">1986</text><text class="q" transform="translate(1715.17 380.36) rotate(1.88)">1996</text><text class="r" transform="translate(2069.22 63.13) rotate(1.88)">2001</text><text class="k" transform="translate(4005.8 101.83)">2011-present<tspan x="0" y="21.6">김정은 집권기</tspan><tspan x="0" y="43.2">Kim Jong Un Era</tspan></text></svg>