<svg xmlns="http://www.w3.org/2000/svg" viewBox="0 0 226.19 285.91"><defs><style>.cls-1{fill:#fff;}.cls-2{fill:#1e1e1e;}</style></defs><g id="Layer_2" data-name="Layer 2"><g id="Layer_1-2" data-name="Layer 1"><path class="cls-1" d="M0,204.48V0H226.19V214.43l-64.91-22.51c1.42,8.16,2.16,15.47,4,22.47,3.23,12,7.35,23.84,10.75,35.84,3.35,11.83,6.29,23.78,9.41,35.68H155.62c-6.93-13.51-13.73-27.07-20.88-40.46-1.5-2.8-1.79-5.26,0-7.46,3.88-4.79,1.87-8.87-.92-13-1.22-1.81-2.47-3.61-3.64-5.31l6.36-4.52c-1-1.65-1.8-3-2.65-4.37l5-1.58L139,208a34.76,34.76,0,0,0-4.77-1.61c-3-.56-6-.64-8.91-1.33a7.51,7.51,0,0,1-3.83-2.56c-.3-.37,1-2.17,1.72-3.17,1.84-2.48,3.8-4.87,5.71-7.3l-1.16-1.09c-2.09,1.62-4.13,3.3-6.28,4.82-.92.66-2.25,1.63-3.08,1.39-5.1-1.51-9.9-2.84-15.32-.33-1.87.87-5.08-.85-7.58-1.7-3.67-1.25-7.26-2.73-10.84-4.24-1.47-.62-3.18-1.25-4.15-2.4-7.28-8.7-11.49-18.83-13.61-29.92-1.16-6.12-1.32-12.74-3.92-18.19-2.71-5.68-6.91-10.58-6.58-17.38,0-.36-.56-.76-1.51-1.94-.38,5.34-.68,9.66-1,14-.95,12.81-1.45,25.67,2.12,38.13,1.15,4,.47,6.63-2.05,9.24s-4.62,6-7.62,7C31,194.75,15.46,199.5,0,204.48ZM188.11,67.05a3.81,3.81,0,0,0-.14-.44c-.83-1.68-1.72-3.33-2.47-5a23.9,23.9,0,0,1-.82-3.4l-10.84-3,2.27-2.52-4.19-1.32.36-1.31L186,53.29c-2.79-7-3.57-7.21-10.69-7.56-2.95-.15-7.93-1.5-8.27-3.09-.72-3.4-1.7-2.36-3.47-1.58-.2.09-.52-.09-.82-.15l-.67-2.49h-6.19V33.36c-1.47,1.63-2.76,4.42-4.57,4.81-4.11.89-8.47.61-12.78.8l1-13.06.83-1.81,3.79,5.49c-1.61-7.17-5.88-9.64-12.22-5.85,3.17,4.48,8.67,8.68,3.58,15.15l-4.87-1.27L129,42.46a58.65,58.65,0,0,1-5.27-3.3c-1.28-1-3.16-2.33-3.24-3.61-.47-8.12-5.35-12.84-13.45-13.52-9.29-.79-18.12,1.06-27.07,3A15.65,15.65,0,0,0,68.15,35.61,30.67,30.67,0,0,1,64.22,43C60.08,49.13,54,54.19,52.63,62c-.63,3.53-.78,7.16-1.55,10.66-2.58,11.67,1.72,22.41,4.14,33.47.73-1.68,1.83-4,1.12-4.94-3.18-4.28-1.08-8.47-.5-12.71l-.18.14c.15,2.07.17,4.16.51,6.2a3.88,3.88,0,0,0,1.57,2.27c.27.18,1.29-.76,2-1.15,2.38-1.28,4.69-3.42,7.16-3.63a86,86,0,0,1,17.13.2c3.22.36,6.25,2.35,9.35,3.63.93.38,1.83.84,2.74,1.27,0-1.07.42-2.51-.12-3.14-3.13-3.71-6.48-7.24-9.81-10.78A2.32,2.32,0,0,0,84.56,83c-3.68.13-7.35.45-11,.48-4.43,0-8.28.82-10.71,5.16-.87,1.54-2.63,2.57-4,3.84,3.37-9.74,10.54-16.92,13.25-27.38C74.73,54.85,85.15,49.48,96.35,48.6c8-.62,16-.2,23.88-1.24,12.18-1.61,23.67-.34,34.2,6.15,7.08,4.36,13.73,9.22,15.17,18.45.28,1.74,2.16,3.22,3.31,4.82l1.57-.61c-.46-3.21-.92-6.42-1.6-11.13,3.88,2,6.81,3.46,9.73,4.94l.85,1.34c3,4,2.9,9-.33,13.8l-2-3.22c-.5,2.73-.75,4.63-1.22,6.48-.33,1.29-.62,2.92-1.53,3.69-3.7,3.12-5.34,12.88-2.86,17.85l-21-5.78-.3,1.16,23.05,7.4c2.29-1,4.95-2,7.46-3.33a4.24,4.24,0,0,0,1.71-2.44c2.1-7.2,4.69-14.34,5.93-21.69C193.4,78.91,195.8,71.62,188.11,67.05ZM77.59,149.48a56.71,56.71,0,0,0,.09,6.38,4.57,4.57,0,0,0,1.82,2.52c1.52,1.21,3.33,2.06,4.79,3.32,2.38,2.05-.47,3-1,4.57-1.63,5.3,4.15,13.29,9.79,13.92,3.27.37,6.59.35,9.88.63,4.75.42,6.53-2.8,8.48-6-4.43-.57-8.49-.77-12.4-1.65-6.24-1.41-9-4.78-8.6-10,1.86-.3,3.78-1,5.66-.84,4.94.27,9.86,1,14.8,1.28a22.28,22.28,0,0,0,6.75-1c2.72-.76,5.34-1.9,8.74-3.14-.77-.91-1.57-2.51-2.87-3.28-2.56-1.54-5.56-2.34-8.09-3.92-7.57-4.71-16.15-3.82-24.38-4.43C86.75,147.56,82.28,148.87,77.59,149.48Zm9.2-39c-4.83-1.12-10.28,1.68-15.41-3.16,7.49-1.94,14-2.54,20.53.65l2.87-3.47c-9.24-5.1-18.17-9.17-28.76-2.38V96.55l-5.3,6.08L58.47,99.1v14.1h.69L61,107.58C69,115.71,77.93,113.09,86.79,110.43ZM110.53,97.6c13.78-4.19,26.94-5.3,39.25,3.58,1.23-7.85-2.24-12.38-10-13.24-2.34-.26-4.66-.7-7-1.11C126.4,85.7,114.09,91.62,110.53,97.6Zm38.85,13.68c-4-2.77-7.26-5.43-10.89-7.48-7.16-4-14.87-2.76-22.37-1.24-1.28.26-3.12,4.08-2.92,4.26a98.52,98.52,0,0,0,8.24,6.2l.89-1c-.21-1-.42-2-.89-4.35Zm-31.23,25.11c-8.74-3.15-17.13,1-25.39-2.35-3.87-1.57-8.5-1-9-6.65-4.84.71-6.3,3.3-6.07,7.4,4.69-3.95,4.73-4,7,1.48,1.59,3.8,4.15,5.31,8.22,4a13.14,13.14,0,0,1,3.09-.39c5.85-.4,11.71-.66,17.54-1.26C115.05,138.48,116.41,137.27,118.15,136.39ZM80.39,125.24c-10.52-.69-21.34,1.41-24-12.35l-1.24.9,5.64,10.7-2.16,1.9Zm40.44,6.17,9.47,15.53,1-.7C126.86,142.17,129.52,133.34,120.83,131.41Zm63.25-8.31c.74-1.78,1.28-2.44,1.21-3a31.51,31.51,0,0,0-1.08-4.88,6.67,6.67,0,0,0-1.87.37,30,30,0,0,0,.44,4.43A22,22,0,0,0,184.08,123.1Zm-55.86-9.7-.19,1.09,9.95,1.9.26-1.56Z"/><path class="cls-2" d="M0,204.48c15.46-5,31-9.73,46.32-15.12,3-1.06,5.21-4.51,7.62-7s3.2-5.22,2.05-9.24c-3.57-12.46-3.07-25.32-2.12-38.13.32-4.31.62-8.63,1-14,1,1.18,1.53,1.58,1.51,1.94-.33,6.8,3.87,11.7,6.58,17.38,2.6,5.45,2.76,12.07,3.92,18.19,2.12,11.09,6.33,21.22,13.61,29.92,1,1.15,2.68,1.78,4.15,2.4,3.58,1.51,7.17,3,10.84,4.24,2.5.85,5.71,2.57,7.58,1.7,5.42-2.51,10.22-1.18,15.32.33.83.24,2.16-.73,3.08-1.39,2.15-1.52,4.19-3.2,6.28-4.82L128.9,192c-1.91,2.43-3.87,4.82-5.71,7.3-.74,1-2,2.8-1.72,3.17A7.51,7.51,0,0,0,125.3,205c2.91.69,6,.77,8.91,1.33A34.76,34.76,0,0,1,139,208l-.09,1.22-5,1.58c.85,1.39,1.65,2.72,2.65,4.37l-6.36,4.52c1.17,1.7,2.42,3.5,3.64,5.31,2.79,4.16,4.8,8.24.92,13-1.79,2.2-1.5,4.66,0,7.46,7.15,13.39,13.95,26.95,20.88,40.46H115.81c.2-11.9-.24-23.86.88-35.67.54-5.76-.25-9.88-4.68-13.27-2.22-1.7-2.22-3.51-1-5.81,2-3.8,3.78-7.69,5.79-11.8-19.14-3.89-36.08-11.24-49.56-25.52,3.86,8.84,8.44,17.11,12.12,25.77,9.35,22,18.3,44.19,27.41,66.3H0Zm64.38-37.22c1-6.32-.88-11.57-3.37-16.65-.45-.92-1.56-1.51-2.37-2.25-.48,1.11-1.59,2.41-1.33,3.3,1.43,4.85,3.16,9.62,4.9,14.37C62.39,166.51,63.35,166.7,64.38,167.26Z"/><path class="cls-2" d="M185.48,285.91c-3.12-11.9-6.06-23.85-9.41-35.68-3.4-12-7.52-23.8-10.75-35.84-1.88-7-2.62-14.31-4-22.47l64.91,22.51v71.48Z"/><path class="cls-1" d="M106.76,285.91c-9.11-22.11-18.06-44.29-27.41-66.3-3.68-8.66-8.26-16.93-12.12-25.77,13.48,14.28,30.42,21.63,49.56,25.52-2,4.11-3.81,8-5.79,11.8-1.21,2.3-1.21,4.11,1,5.81,4.43,3.39,5.22,7.51,4.68,13.27-1.12,11.81-.68,23.77-.88,35.67Z"/><path d="M182.62,70,172.88,65c.68,4.71,1.14,7.92,1.6,11.13l-1.57.61c-1.15-1.6-3-3.08-3.31-4.82-1.44-9.23-8.09-14.09-15.17-18.45-10.53-6.49-22-7.76-34.2-6.15-7.88,1-15.93.62-23.88,1.24-11.2.88-21.62,6.25-24.27,16.51C69.37,75.57,62.2,82.75,58.83,92.49c1.36-1.27,3.12-2.3,4-3.84,2.43-4.34,6.28-5.12,10.71-5.16,3.68,0,7.35-.35,11-.48a2.32,2.32,0,0,1,1.62.48C89.51,87,92.86,90.56,96,94.27c.54.63.11,2.07.12,3.14-.91-.43-1.81-.89-2.74-1.27-3.1-1.28-6.13-3.27-9.35-3.63a86,86,0,0,0-17.13-.2c-2.47.21-4.78,2.35-7.16,3.63-.7.39-1.72,1.33-2,1.15a3.88,3.88,0,0,1-1.57-2.27c-.34-2-.36-4.13-.51-6.2,2.45-5.84,8.89-9.74,8.69-17l-3.58-.31c.91-3.34,1.71-6.31,2.52-9.3-3.14-.62-5.25,1.39-6.17,4.41a151,151,0,0,0-4.41,17.32c-.24,1.36,2,3.17,3.13,4.77-.58,4.24-2.68,8.43.5,12.71.71,1-.39,3.26-1.12,4.94-2.42-11.06-6.72-21.8-4.14-33.47.77-3.5.92-7.13,1.55-10.66C54,54.19,60.08,49.13,64.22,43a30.67,30.67,0,0,0,3.93-7.34A15.65,15.65,0,0,1,80,25.05c9-2,17.78-3.81,27.07-3,8.1.68,13,5.4,13.45,13.52.08,1.28,2,2.6,3.24,3.61a58.65,58.65,0,0,0,5.27,3.3l1.59-4.84,4.87,1.27c5.09-6.47-.41-10.67-3.58-15.15,6.34-3.79,10.61-1.32,12.22,5.85l-3.79-5.49-.83,1.81-1,13.06c4.31-.19,8.67.09,12.78-.8,1.81-.39,3.1-3.18,4.57-4.81v5.06h6.19l.67,2.49c.3.06.62.24.82.15,1.77-.78,2.75-1.82,3.47,1.58.34,1.59,5.32,2.94,8.27,3.09,7.12.35,7.9.55,10.69,7.56L172.28,50l-.36,1.31,4.19,1.32-2.27,2.52,10.84,3a23.9,23.9,0,0,0,.82,3.4c.75,1.71,1.64,3.36,2.47,5-3.18-2.49-5.93-5.83-10.72-5.64C183,61.84,180.47,67.31,182.62,70Z"/><path d="M77.59,149.48c4.69-.61,9.16-1.92,13.51-1.61,8.23.61,16.81-.28,24.38,4.43,2.53,1.58,5.53,2.38,8.09,3.92,1.3.77,2.1,2.37,2.87,3.28-3.4,1.24-6,2.38-8.74,3.14a22.28,22.28,0,0,1-6.75,1c-4.94-.23-9.86-1-14.8-1.28-1.88-.11-3.8.54-5.66.84-.36,5.2,2.36,8.57,8.6,10,3.91.88,8,1.08,12.4,1.65-1.95,3.18-3.73,6.4-8.48,6-3.29-.28-6.61-.26-9.88-.63-5.64-.63-11.42-8.62-9.79-13.92.48-1.55,3.33-2.52,1-4.57-1.46-1.26-3.27-2.11-4.79-3.32a4.57,4.57,0,0,1-1.82-2.52A56.71,56.71,0,0,1,77.59,149.48Zm21.55,2.25c-4.7.87-8.77,1.39-12.67,2.49-1.12.31-1.76,2.29-2.62,3.51,1.15.78,2.24,2.14,3.44,2.24,9.07.75,18.16,1.34,27.26,1.69,1.18.05,2.42-1.6,3.64-2.47-.82-.92-1.48-2.35-2.48-2.67C110.16,154.75,104.53,153.25,99.14,151.73Z"/><path d="M188.11,67.05c7.69,4.57,5.29,11.86,4.23,18.19-1.24,7.35-3.83,14.49-5.93,21.69a4.24,4.24,0,0,1-1.71,2.44c-2.51,1.31-5.17,2.34-7.46,3.33l-23.05-7.4.3-1.16,21,5.78c-2.48-5-.84-14.73,2.86-17.85.91-.77,1.2-2.4,1.53-3.69.47-1.85.72-3.75,1.22-6.48l2,3.21c3.23-4.79,3.35-9.83.34-13.79C187.93,72.7,188.91,71.81,188.11,67.05Z"/><path d="M86.79,110.43C77.93,113.09,69,115.71,61,107.58l-1.79,5.63h-.69V99.1l2.25,3.53L66,96.55v5.52c10.59-6.79,19.52-2.72,28.76,2.38l-2.87,3.47c-6.52-3.19-13-2.59-20.53-.65C76.51,112.11,82,109.31,86.79,110.43Z"/><path d="M110.53,97.6c3.56-6,15.87-11.9,22.23-10.77,2.32.41,4.64.85,7,1.11,7.8.86,11.27,5.39,10,13.24C137.47,92.3,124.31,93.41,110.53,97.6Z"/><path d="M149.38,111.28l-27.94-3.56c.47,2.31.68,3.33.89,4.35l-.89,1a98.52,98.52,0,0,1-8.24-6.2c-.2-.18,1.64-4,2.92-4.26,7.5-1.52,15.21-2.8,22.37,1.24C142.12,105.85,145.4,108.51,149.38,111.28Z"/><path d="M118.15,136.39c-1.74.88-3.1,2.09-4.57,2.24-5.83.6-11.69.86-17.54,1.26a13.14,13.14,0,0,0-3.09.39c-4.07,1.3-6.63-.21-8.22-4-2.28-5.44-2.32-5.43-7-1.48-.23-4.1,1.23-6.69,6.07-7.4.47,5.67,5.1,5.08,9,6.65C101,137.38,109.41,133.24,118.15,136.39Z"/><path class="cls-1" d="M55.84,88.48c-1.11-1.6-3.37-3.41-3.13-4.77a151,151,0,0,1,4.41-17.32c.92-3,3-5,6.17-4.41-.81,3-1.61,6-2.52,9.3l3.58.31c.2,7.29-6.24,11.19-8.69,17Z"/><path class="cls-1" d="M188.11,67.05c.8,4.76-.18,5.65-4.64,4.27L182.62,70c-2.15-2.68.35-8.15-5.37-9,4.79-.19,7.54,3.15,10.72,5.64A3.81,3.81,0,0,1,188.11,67.05Z"/><path d="M80.39,125.24l-21.73,1.15,2.16-1.9-5.64-10.7,1.24-.9C59.05,126.65,69.87,124.55,80.39,125.24Z"/><path d="M120.83,131.41c8.69,1.93,6,10.76,10.51,14.83l-1,.7Z"/><path d="M184.08,123.1a22,22,0,0,1-1.3-3.1,30,30,0,0,1-.44-4.43,6.67,6.67,0,0,1,1.87-.37,31.51,31.51,0,0,1,1.08,4.88C185.36,120.66,184.82,121.32,184.08,123.1Z"/><path d="M128.22,113.4l10,1.43-.26,1.56-9.95-1.9Z"/><path class="cls-1" d="M64.38,167.26c-1-.56-2-.75-2.17-1.23-1.74-4.75-3.47-9.52-4.9-14.37-.26-.89.85-2.19,1.33-3.3.81.74,1.92,1.33,2.37,2.25C63.5,155.69,65.37,160.94,64.38,167.26Z"/><path class="cls-1" d="M99.14,151.73c5.39,1.52,11,3,16.57,4.79,1,.32,1.66,1.75,2.48,2.67-1.22.87-2.46,2.52-3.64,2.47-9.1-.35-18.19-.94-27.26-1.69-1.2-.1-2.29-1.46-3.44-2.24.86-1.22,1.5-3.2,2.62-3.51C90.37,153.12,94.44,152.6,99.14,151.73Z"/></g></g></svg>