<svg xmlns="http://www.w3.org/2000/svg" viewBox="0 0 5796.29 1085.08"><defs><style>.a,.l,.m,.n,.o,.p,.q,.r{fill:#fff;}.b{opacity:0.95;}.c{font-size:150px;}.c,.e{font-family:Prohibition-Regular, Prohibition;}.d{font-size:253.69px;}.d,.h{font-family:KCC-KP-CheonRiMa-Bold-KP-2011KPS, KP CheonRiMa B;}.e{font-size:60.6px;}.f{letter-spacing:-0.01em;}.g{letter-spacing:0em;}.h{font-size:84.14px;}.i{fill:#1e1e1e;}.j{font-size:24px;font-family:KCC-KP-KwangMyeong-Medium-KP-2011KPS, KP KwangMyeong;}.k{font-size:18px;font-family:MapoGoldenPier-KSCpc-EUC-H, MapoGoldenPier;}.l{font-size:67.05px;}.l,.m,.n,.o,.p,.q,.r{font-family:KCC-KP-KwangMyeong-Bold-KP-2011KPS, KP KwangMyeong B;}.m{font-size:50.48px;}.n{font-size:36px;}.o{font-size:22.38px;}.p{font-size:27px;}.q{font-size:44.35px;}.r{font-size:39.65px;}</style></defs><rect y="714.06" width="569.05" height="20"/><path class="a" d="M2168.09,303.29v-204h198v223c-5.87-.61-11.74-1.61-17.62-1.71-4.14-.07-8.76.16-12.31,2-3.15,1.61-5.13,2.21-8,.09-8.92-6.66-17.94-13.2-26.8-19.69.7-11,5.14-21.61,2.41-32.84a97.73,97.73,0,0,0-4.92,10.38c-1.15,2.56-2.75,3.24-4.85.76s-4.45-5-7.05-7.93c2.27-.6,4.35-1,6.33-1.71,4.19-1.47,7.93-3.61,8.33-8.6a4,4,0,0,0-2.35-3.08c-5.64-1.16-9.82,1.65-13.72,5.39-1.29,1.23-3.44,2.48-5,2.31-7.06-.76-14-2.45-21.09-3-14.7-1.23-25.15-9-29.61-23.09-.56-1.77-.17-3.94.16-5.86.49-2.88,2.2-3.41,4.72-2,5.49,3.12,10.48,6.28,13,12.88,3,8,14.33,11.59,22.05,7.7,1.63-.82,2.64-2.88,3.94-4.37l-.73-1.67c-3.74,0-7.56.48-11.2-.14-3.49-.59-6.8-2.32-10.08-3.51l4-7-5.24-1.19c3.7-4,23.18-3.54,26.68.71-1.66.34-3.06.64-4.48.9s-2.72.47-3.48.59c1.69,1.07,3.66,2.26,5.57,3.53,2.16,1.44,7.12-.55,8.83-3.74,1.56-2.89-.11-4.49-2.67-5.17-5.24-1.39-10.49-3-15.85-3.67-4.49-.52-9.13.41-13.7.35-1.28,0-2.54-1.23-3.81-1.9,1-1.23,1.77-2.89,3.06-3.56a6.64,6.64,0,0,1,4.41-.12c7.6,2.07,14.82-.69,21.83-2.4,5-1.22,6.31.81,7.69,4.22.49,1.2.1,2.91.81,3.85a21.65,21.65,0,0,0,5.22,5c.53.34,3.29-1.21,3.35-2a30.09,30.09,0,0,0-.87-7.39c-.1-.54-1-.88-1.35-1.43-2.42-3.88-4.78-7.79-7.08-11.57-3.87-2.78-7.94-5.7-12-8.63.86-7.49,1.39-7.62,8.68-4.65a51.2,51.2,0,0,0,11,2.75c1,.17,2.28-1.2,3.43-1.87-.93-1-1.68-2.35-2.82-2.94a19.78,19.78,0,0,0-4.67-1.21l.2-1.11,16.56,3c-1.29-2.46-1.74-4.73-3.12-5.69-5.23-3.71-11-6-17.69-5.27-1.29.14-2.69-.69-4-1.07.81-1.3,1.56-2.62,2.44-3.86a11,11,0,0,1,2.06-1.58h-12.53c2.51-.67,5-1.67,7.55-1.92,5-.49,10-.55,15-.79a25.37,25.37,0,0,0-9.09-2.9c-7.07-.88-10.93.89-13.34,5.75-3.33,6.62-3.33,6.62-12.83,5.31-.65-6.11-5.88-4.87-9.24-6,.71,1.59,1.45,3.27,2.2,5-1.95.16-3.9.4-5.85.46-2.65.09-5.29.06-7.94.07-3.37,0-6.74,0-10.11,0l-.46-1.67-4.36,5.45c-1.89-1.06-3.72-1.69-5-2.91-1.1-1.09-2.48-3.11-2.14-4.25a106.06,106.06,0,0,1,6.22-17c1.72-3.45,5.41-5.87,7.5-9.2,6.65-10.56,16.48-15,28.39-14.25,12.09.76,24.13,2.55,36.17,4.09a12,12,0,0,1,5.42,2.4c11,8.53,18.7,19.25,20.93,33.36.62,3.94,1.37,7.86,2.09,11.95l-5.48-1.06c5.48,7.1,4,13.86,2.58,20.71-.48,2.3-.08,4.78-.08,7.18l1.64.76c1.85-2.1,4.81-4,5.24-6.34s-1.48-5.44-2.5-8.59c.32,0,2.42-.66,2.6-.3,1.31,2.57,2.24,5.35,3.66,9,1.07-2.73,2.36-4.63,2.46-6.6.17-3-.48-6.13-.78-9.19-2.39,1.11-4.77,2.23-7.16,3.33-.12.06-.31,0-.9-.12a22.66,22.66,0,0,1,.91-2.64c3.79-8,6.94-16.11,7.53-25.16.66-10.13-1.78-19.67-4.26-29.26-.22-.89-1.2-1.56-1.7-2.4-1.08-1.78-2.07-3.62-3.11-5.43-1.84-3.19-3.11-6.36-7.8-7.23-4.26-.8-8.15-3.68-12.17-5.7-.39-.19-.52-.85-.86-1.2a11.11,11.11,0,0,0-2.57-2.43c-11.6-5.9-24.24-7.41-36.92-7.82-6.92-.23-14-.68-20.47,4.26-6.19,4.71-13.76,7.59-20.63,11.44a6.77,6.77,0,0,0-2.8,3.31c-2.6,7-5.24,14.1-7.37,21.29a61.1,61.1,0,0,0,.31,35.8,23.22,23.22,0,0,1,.39,4.6l-4.84-.66c1.15,7.72-2.23,16.43,8.51,21.08l1.9-22.39,1.32.07.43,4c-.32-5.54,3.92-5.11,6.68-4.32,3.27.94,7.08,2.73,8.9,5.36,2.2,3.22,4.76,3.55,7.57,3.07,4.31-.75,8.5-2.24,13-3.49v3.49l1.62.51c.77-2.36,2.15-4.72,2.17-7.09,0-3.39,0-5.94,4.41-6,4.54-.06,4.81,2.8,4.32,6-.46,3-.41,5.53,2.39,7.52.76.54.84,2,1.24,3.11,1.63,2.15,3.56,4.14,4.79,6.5.87,1.67.78,3.84,1.12,5.79-1.45,0-2.89.2-4.33.12-6.56-.34-13.11-.69-19.67-1.15a39.25,39.25,0,0,1-4.86-.93,52.43,52.43,0,0,1,2.36-4.89,33.49,33.49,0,0,1,2.85-3.59,34.68,34.68,0,0,0-7.12,4.18c-1.17.8-3.4,1.18-3.59,2.08-1.78,8.37-9.09,7.46-14.64,8.2-3.76.5-5.12,1.91-5.46,4.92-.31,2.78.09,5.64,0,8.46s-.44,5.36-.7,8.21l-3.79-2.35c-.48,1.15-1.43,2.33-1.35,3.43a41,41,0,0,0,1.43,8.32c.9,3.08.23,5.42-1.23,8.33-5,9.9-12.32,18.77-11.94,31,.21,6.75-6.16,9.45-11.68,10.36C2186,302.38,2177,302.57,2168.09,303.29Zm87.66-124.67c-3.1-6.09-15.53-7.25-20.69-2.58ZM2313.57,189c-.71-.06-3.09-.46-3.14-.24-.72,2.71-1.1,5.51-1.46,7.62Z"/><path d="M2272.6,204l12,8.61c2.3,3.78,4.66,7.69,7.08,11.57.34.55,1.25.89,1.35,1.43a30.09,30.09,0,0,1,.87,7.39c-.06.79-2.82,2.34-3.35,2a21.65,21.65,0,0,1-5.22-5c-.71-.94-.32-2.65-.81-3.85-1.38-3.41-2.67-5.44-7.69-4.22-7,1.71-14.23,4.47-21.83,2.4a6.64,6.64,0,0,0-4.41.12c-1.29.67-2.06,2.33-3.06,3.56,1.27.67,2.53,1.89,3.81,1.9,4.57.06,9.21-.87,13.7-.35,5.36.63,10.61,2.28,15.85,3.67,2.56.68,4.23,2.28,2.67,5.17-1.71,3.19-6.67,5.18-8.83,3.74-1.91-1.27-3.88-2.46-5.57-3.53.76-.12,2.12-.34,3.48-.59s2.82-.56,4.48-.9c-3.5-4.25-23-4.75-26.68-.71l5.24,1.19-4,7c3.28,1.19,6.59,2.92,10.08,3.51,3.64.62,7.46.14,11.2.14l.73,1.67c-1.3,1.49-2.31,3.55-3.94,4.37-7.72,3.89-19,.26-22.05-7.7-2.49-6.6-7.48-9.76-13-12.88-2.52-1.44-4.23-.91-4.72,2-.33,1.92-.72,4.09-.16,5.86,4.46,14.06,14.91,21.86,29.61,23.09,7.06.59,14,2.28,21.09,3,1.6.17,3.75-1.08,5-2.31,3.9-3.74,8.08-6.55,13.72-5.39a4,4,0,0,1,2.35,3.08c-.4,5-4.14,7.13-8.33,8.6-2,.69-4.06,1.11-6.33,1.71,2.6,2.91,4.88,5.37,7.05,7.93s3.7,1.8,4.85-.76a97.73,97.73,0,0,1,4.92-10.38c2.73,11.23-1.71,21.86-2.41,32.84,8.86,6.49,17.88,13,26.8,19.69,2.84,2.12,37.9,21,37.9,31.62H2166.3l-2.72-51.19s22.43-.68,31.22-2.14c5.52-.91,11.89-3.61,11.68-10.36-.38-12.27,6.95-21.14,11.94-31,1.46-2.91,2.13-5.25,1.23-8.33a41,41,0,0,1-1.43-8.32c-.08-1.1.87-2.28,1.35-3.43l3.79,2.35c.26-2.85.6-5.52.7-8.21s-.3-5.68,0-8.46c.34-3,1.7-4.42,5.46-4.92,5.55-.74,12.86.17,14.64-8.2.19-.9,2.42-1.28,3.59-2.08a34.68,34.68,0,0,1,7.12-4.18,33.49,33.49,0,0,0-2.85,3.59,52.43,52.43,0,0,0-2.36,4.89,39.25,39.25,0,0,0,4.86.93c6.56.46,13.11.81,19.67,1.15,1.44.08,2.88-.07,4.33-.12-.34-2-.25-4.12-1.12-5.79-1.23-2.36-3.16-4.35-4.79-6.5ZM2290,295.8c-2.34,1.2-4.07,2.24-5.92,3-2.5,1-5.08,1.82-7.63,2.7L2272,303a26.2,26.2,0,0,0,2,4.62c1.09,1.63,2.74,2.87,3.87,4.48.77,1.09,1.74,2.71,1.45,3.77-1.26,4.68,2.77,6.31,4.5,9.3.22-2.34-1.12-5-.29-6.45C2287.54,312,2290.22,305.1,2290,295.8Z"/><path d="M2272.62,203.89c-.4-1.07-.48-2.57-1.24-3.11-2.8-2-2.85-4.52-2.39-7.52.49-3.21.22-6.07-4.32-6-4.38.07-4.38,2.62-4.41,6,0,2.37-1.4,4.73-2.17,7.09l-1.62-.51v-3.49c-4.52,1.25-8.71,2.74-13,3.49-2.81.48-5.37.15-7.57-3.07-1.82-2.63-5.63-4.42-8.9-5.36-2.76-.79-7-1.22-6.68,4.32l-.43-4-1.32-.07-1.9,22.39c-10.74-4.65-7.36-13.36-8.51-21.08l4.84.66a23.22,23.22,0,0,0-.39-4.6,61.1,61.1,0,0,1-.31-35.8c2.13-7.19,4.77-14.24,7.37-21.29a6.77,6.77,0,0,1,2.8-3.31c6.87-3.85,14.44-6.73,20.63-11.44,6.5-4.94,13.55-4.49,20.47-4.26,12.68.41,25.32,1.92,36.92,7.82a11.11,11.11,0,0,1,2.57,2.43c.34.35.47,1,.86,1.2,4,2,7.91,4.9,12.17,5.7,4.69.87,6,4,7.8,7.23,1,1.81,2,3.65,3.11,5.43.5.84,1.48,1.51,1.7,2.4,2.48,9.59,4.92,19.13,4.26,29.26-.59,9.05-3.74,17.15-7.53,25.16a22.66,22.66,0,0,0-.91,2.64c.59.08.78.18.9.12,2.39-1.1,4.77-2.22,7.16-3.33.3,3.06,1,6.15.78,9.19-.1,2-1.39,3.87-2.46,6.6-1.42-3.68-2.35-6.46-3.66-9-.18-.36-2.28.25-2.6.3,1,3.15,3,6.09,2.5,8.59s-3.39,4.24-5.24,6.34l-1.64-.76c0-2.4-.4-4.88.08-7.18,1.43-6.85,2.9-13.61-2.58-20.71l5.48,1.06c-.72-4.09-1.47-8-2.09-11.95-2.23-14.11-9.89-24.83-20.93-33.36a12,12,0,0,0-5.42-2.4c-12-1.54-24.08-3.33-36.17-4.09-11.91-.75-21.74,3.69-28.39,14.25-2.09,3.33-5.78,5.75-7.5,9.2a106.06,106.06,0,0,0-6.22,17c-.34,1.14,1,3.16,2.14,4.25,1.25,1.22,3.08,1.85,5,2.91l4.36-5.45.46,1.67c3.37,0,6.74,0,10.11,0,2.65,0,5.29,0,7.94-.07,1.95-.06,3.9-.3,5.85-.46-.75-1.69-1.49-3.37-2.2-5,3.36,1.09,8.59-.15,9.24,6,9.5,1.31,9.5,1.31,12.83-5.31l-.11-.13h12.53a11,11,0,0,0-2.06,1.58c-.88,1.24-1.63,2.56-2.44,3.86,1.35.38,2.75,1.21,4,1.07,6.67-.71,12.46,1.56,17.69,5.27,1.38,1,1.83,3.23,3.12,5.69l-16.56-3-.2,1.11a19.78,19.78,0,0,1,4.67,1.21c1.14.59,1.89,1.93,2.82,2.94-1.15.67-2.42,2-3.43,1.87a51.2,51.2,0,0,1-11-2.75c-7.29-3-7.82-2.84-8.68,4.65C2272.6,204,2272.62,203.89,2272.62,203.89Z"/><path d="M2255.75,178.62,2235.06,176C2240.22,171.37,2252.65,172.53,2255.75,178.62Z"/><path d="M2272.2,180.55c2.41-4.86,6.27-6.63,13.34-5.75a25.37,25.37,0,0,1,9.09,2.9c-5,.24-10,.3-15,.79-2.56.25-5,1.25-7.55,1.92Z"/><path d="M2313.57,189l-4.6,7.38c.36-2.11.74-4.91,1.46-7.62C2310.48,188.57,2312.86,189,2313.57,189Z"/><path class="a" d="M2290,295.8c.21,9.3-2.47,16.21-6.42,22.89-.83,1.41.51,4.11.29,6.45-1.73-3-5.76-4.62-4.5-9.3.29-1.06-.68-2.68-1.45-3.77-1.13-1.61-2.78-2.85-3.87-4.48a26.2,26.2,0,0,1-2-4.62l4.43-1.47c2.55-.88,5.13-1.69,7.63-2.7C2285.94,298,2287.67,297,2290,295.8Z"/><path d="M1191.08,875.4c15.46-5,31-9.73,46.32-15.12,3-1.06,5.21-4.51,7.62-7s3.2-5.22,2-9.24c-3.57-12.45-3.07-25.32-2.12-38.13.32-4.31.62-8.63,1-14,1,1.19,1.53,1.58,1.52,1.94-.33,6.8,3.86,11.7,6.57,17.38,2.6,5.45,2.76,12.07,3.93,18.19,2.11,11.09,6.32,21.22,13.61,29.92,1,1.16,2.67,1.78,4.15,2.4,3.57,1.51,7.17,3,10.83,4.24,2.5.85,5.71,2.57,7.59,1.7,5.41-2.51,10.21-1.18,15.31.33.83.24,2.16-.73,3.08-1.38,2.15-1.53,4.2-3.21,6.28-4.83l1.16,1.09c-1.91,2.43-3.86,4.82-5.71,7.3-.74,1-2,2.8-1.71,3.17a7.44,7.44,0,0,0,3.82,2.56c2.91.69,6,.78,8.92,1.33a34.63,34.63,0,0,1,4.76,1.61l-.08,1.22-5,1.58,2.64,4.37-6.36,4.52c1.17,1.7,2.42,3.5,3.64,5.31,2.79,4.16,4.81,8.24.92,13-1.79,2.2-1.5,4.66,0,7.46,7.15,13.39,14,27,20.88,40.46h-39.81c.2-11.9-.24-23.86.88-35.67.55-5.76-.25-9.88-4.67-13.27-2.22-1.7-2.23-3.51-1-5.81,2-3.8,3.79-7.69,5.79-11.8-19.13-3.89-36.08-11.24-49.55-25.52,3.85,8.84,8.43,17.11,12.11,25.77,9.35,22,18.3,44.19,27.41,66.3H1191.08Zm64.39-37.22c1-6.32-.89-11.57-3.38-16.65-.45-.92-1.56-1.51-2.37-2.25-.47,1.11-1.59,2.41-1.33,3.3,1.43,4.85,3.16,9.62,4.9,14.37C1253.47,837.43,1254.44,837.62,1255.47,838.18Z"/><path d="M1376.56,956.83c-3.12-11.9-6-23.85-9.41-35.68-3.4-12-7.52-23.8-10.75-35.84-1.87-7-2.62-14.31-4-22.47l64.91,22.51v71.48Z"/><path class="a" d="M1297.84,956.83c-9.11-22.11-18.06-44.29-27.41-66.3-3.68-8.66-8.26-16.93-12.11-25.77,13.47,14.28,30.42,21.63,49.55,25.52-2,4.11-3.8,8-5.79,11.8-1.21,2.3-1.2,4.11,1,5.81,4.42,3.39,5.22,7.51,4.67,13.27-1.12,11.81-.68,23.77-.88,35.67Z"/><path d="M1373.7,740.91,1364,736c.68,4.71,1.14,7.92,1.6,11.13l-1.57.61c-1.14-1.6-3-3.08-3.3-4.82-1.45-9.23-8.1-14.09-15.17-18.45-10.54-6.49-22-7.76-34.21-6.15-7.87,1-15.93.62-23.87,1.24-11.21.89-21.62,6.25-24.28,16.51-2.71,10.46-9.88,17.64-13.24,27.38,1.35-1.27,3.11-2.3,4-3.84,2.44-4.34,6.29-5.12,10.71-5.16,3.68,0,7.36-.35,11-.48a2.31,2.31,0,0,1,1.62.48c3.34,3.54,6.68,7.07,9.82,10.78.53.63.1,2.07.11,3.14-.91-.43-1.81-.89-2.73-1.27-3.11-1.28-6.14-3.27-9.35-3.63a86.12,86.12,0,0,0-17.14-.2c-2.47.21-4.78,2.35-7.16,3.64-.7.38-1.72,1.32-2,1.14a3.88,3.88,0,0,1-1.57-2.27c-.34-2-.36-4.13-.51-6.2,2.45-5.84,8.89-9.74,8.69-17l-3.58-.31c.91-3.34,1.71-6.31,2.53-9.3-3.15-.62-5.26,1.39-6.18,4.41a148.93,148.93,0,0,0-4.4,17.32c-.25,1.36,2,3.17,3.12,4.77-.58,4.24-2.68,8.43.5,12.71.71,1-.38,3.26-1.12,4.94-2.42-11.06-6.72-21.8-4.14-33.47.77-3.5.92-7.13,1.56-10.66,1.4-7.81,7.44-12.87,11.58-19a30.67,30.67,0,0,0,3.93-7.34A15.65,15.65,0,0,1,1271.08,696c9-2,17.78-3.81,27.07-3,8.1.68,13,5.4,13.45,13.53.08,1.27,2,2.59,3.25,3.6a55.94,55.94,0,0,0,5.27,3.3c.33-1,.91-2.8,1.58-4.84l4.87,1.27c5.1-6.47-.41-10.67-3.58-15.15,6.34-3.79,10.61-1.32,12.22,5.85l-3.78-5.49-.84,1.81-1,13.06c4.3-.19,8.66.09,12.77-.8,1.81-.39,3.1-3.18,4.57-4.81v5.06h6.19l.67,2.49c.3.06.62.24.82.15,1.77-.78,2.75-1.82,3.47,1.58.34,1.59,5.32,2.94,8.27,3.09,7.13.35,7.9.55,10.69,7.56l-13.7-3.25-.36,1.31,4.19,1.32-2.27,2.52,10.84,3a23.6,23.6,0,0,0,.83,3.4c.74,1.71,1.63,3.36,2.46,5-3.18-2.49-5.93-5.83-10.72-5.64C1374.05,732.76,1371.55,738.23,1373.7,740.91Z"/><path d="M1268.68,820.4c4.69-.61,9.15-1.92,13.5-1.61,8.23.61,16.81-.28,24.38,4.43,2.53,1.58,5.53,2.39,8.09,3.92,1.3.77,2.11,2.37,2.87,3.28-3.4,1.24-6,2.38-8.74,3.14a22.26,22.26,0,0,1-6.74,1c-5-.23-9.87-1-14.81-1.28-1.88-.11-3.8.54-5.66.84-.36,5.2,2.36,8.57,8.6,10,3.91.88,8,1.08,12.41,1.65-2,3.18-3.74,6.4-8.48,6-3.29-.28-6.61-.26-9.89-.63-5.64-.63-11.42-8.62-9.79-13.92.48-1.55,3.33-2.52.95-4.57-1.46-1.26-3.27-2.11-4.78-3.32a4.59,4.59,0,0,1-1.83-2.52A56.35,56.35,0,0,1,1268.68,820.4Zm21.54,2.25c-4.7.87-8.76,1.39-12.67,2.49-1.11.31-1.76,2.29-2.61,3.51,1.14.78,2.23,2.14,3.43,2.24,9.07.75,18.16,1.34,27.26,1.69,1.18,0,2.43-1.6,3.64-2.47-.82-.92-1.47-2.35-2.48-2.67C1301.24,825.67,1295.61,824.17,1290.22,822.65Z"/><path d="M1379.19,738c7.69,4.56,5.29,11.85,4.23,18.18-1.24,7.35-3.83,14.49-5.92,21.69a4.25,4.25,0,0,1-1.72,2.44c-2.51,1.31-5.17,2.34-7.46,3.33l-23-7.4.31-1.16,21,5.78c-2.47-5-.84-14.73,2.86-17.85.91-.77,1.2-2.4,1.53-3.69.47-1.85.72-3.75,1.22-6.48l2,3.21c3.23-4.79,3.35-9.83.34-13.79C1379,743.62,1380,742.73,1379.19,738Z"/><path d="M1277.88,781.35c-8.86,2.66-17.75,5.28-25.85-2.85l-1.78,5.63h-.7V770l2.25,3.53,5.3-6.08V773c10.6-6.78,19.52-2.72,28.76,2.38l-2.87,3.47c-6.51-3.19-13-2.59-20.53-.65C1267.59,783,1273,780.23,1277.88,781.35Z"/><path d="M1301.61,768.52c3.56-6,15.87-11.9,22.23-10.77,2.32.41,4.64.85,7,1.11,7.81.86,11.27,5.39,10,13.24C1328.55,763.22,1315.39,764.33,1301.61,768.52Z"/><path d="M1340.46,782.2l-27.94-3.56c.47,2.31.68,3.33.89,4.35l-.89,1a98.52,98.52,0,0,1-8.24-6.2c-.2-.18,1.65-4,2.92-4.26,7.5-1.52,15.21-2.8,22.38,1.24C1333.2,776.77,1336.48,779.43,1340.46,782.2Z"/><path d="M1309.23,807.31c-1.73.88-3.1,2.09-4.57,2.24-5.83.6-11.69.86-17.54,1.26a13.14,13.14,0,0,0-3.09.39c-4.07,1.3-6.63-.21-8.22-4-2.28-5.44-2.32-5.43-7-1.48-.22-4.1,1.23-6.69,6.07-7.4.47,5.67,5.1,5.08,9,6.65C1292.1,808.3,1300.49,804.16,1309.23,807.31Z"/><path class="a" d="M1246.92,759.4c-1.11-1.6-3.37-3.41-3.12-4.77a148.93,148.93,0,0,1,4.4-17.32c.92-3,3-5,6.18-4.41-.82,3-1.62,6-2.53,9.3l3.58.31c.2,7.29-6.24,11.19-8.69,17Z"/><path class="a" d="M1379.19,738c.8,4.75-.17,5.64-4.64,4.26l-.85-1.33c-2.15-2.68.35-8.15-5.37-9,4.79-.19,7.54,3.15,10.72,5.64A3.45,3.45,0,0,1,1379.19,738Z"/><path d="M1271.47,796.16l-21.73,1.15,2.16-1.9-5.63-10.7,1.23-.9C1250.13,797.57,1261,795.47,1271.47,796.16Z"/><path d="M1311.91,802.33c8.69,1.93,6,10.76,10.51,14.83l-1,.7Z"/><path d="M1375.16,794a22,22,0,0,1-1.3-3.1,30,30,0,0,1-.44-4.43,6.75,6.75,0,0,1,1.87-.37,31.54,31.54,0,0,1,1.09,4.88C1376.45,791.58,1375.9,792.24,1375.16,794Z"/><path d="M1319.3,784.32l10,1.43-.26,1.56-9.94-1.9Z"/><path class="a" d="M1255.47,838.18c-1-.56-2-.75-2.18-1.23-1.74-4.75-3.47-9.52-4.9-14.37-.26-.89.86-2.19,1.33-3.3.81.74,1.92,1.33,2.37,2.25C1254.58,826.61,1256.46,831.86,1255.47,838.18Z"/><path class="a" d="M1290.22,822.65c5.39,1.52,11,3,16.57,4.79,1,.32,1.66,1.75,2.48,2.67-1.21.87-2.46,2.52-3.64,2.47-9.1-.35-18.19-.94-27.26-1.69-1.2-.1-2.29-1.46-3.43-2.24.85-1.22,1.5-3.2,2.61-3.51C1281.46,824,1285.52,823.52,1290.22,822.65Z"/><path class="a" d="M4368.74,331.36V165.69h206.87V328.27c-13.52-5.33-27.09-10.56-40.54-16.06-4-1.62-5.4-.11-7.44,3.19a135.26,135.26,0,0,1-13.2,17.91c-1.77,2-6.1,1.72-8.06,3.68-5.78,5.78-13,5-20.85,6.23l8.35-7.91-.83-1c-1.34.61-2.71,1.16-4,1.85a30.92,30.92,0,0,1-33.66-3.53c-4.4-3.72-10.1-6.44-13.22-11-4.75-6.88-8.55-14.56-7.95-23.73.18-2.81-1.92-6.51-4.15-8.46-1.37-1.21-6.75-.7-7.25.42-2.43,5.43-9,9.43-6.38,16.83a67.3,67.3,0,0,1,1.87,8.29c-5.55,2.13-10.58,4.32-15.77,6C4391.31,324.57,4380,327.91,4368.74,331.36Zm159.57-100c0-5.92-.13-10.37,0-14.81s.62-8.88.9-13.33c.81-12.82-10.58-24.64-23.39-23.6-10,.81-19.84,2.3-30,1.67-15.86-1-31.8-.52-47.69-.95-7-.18-13.88,3.63-15,9.71-2.63,13.65-.9,27.25,1,40.82.46,3.22,2.74,3.89,4.72,2.34,2.51-2,5.9-4.77,6.06-7.39.57-9.12,5.07-14,13.49-16.34,3.25-.9,6.12-3.21,9.37-4a89.88,89.88,0,0,1,13.79-2.12,62.78,62.78,0,0,1,9.69.16,132.3,132.3,0,0,1,14.08,1.34c4.52.81,8.87,2.55,13.38,3.5,9.87,2.09,11.69,4.12,13.2,14.13.31,2.08,1.71,5,3.38,5.67C4519.1,229.75,4523.37,230.23,4528.31,231.38Zm-53.73,29.47c-.3-9.65.7-11.39,9.48-12.52,6.51-.84,13.21-.48,19.8-.19,1.87.08,3.66,1.78,5.48,2.74l-.6,1.54-6.12-1.41.65,1.4c-1.45.9-2.87,2.53-4.36,2.59-5.24.22-10.5-.17-15.75-.17a16,16,0,0,0-3.84,1c.47,1.73.55,3.76,1.57,5.07.56.74,2.74.58,4.08.29,4.31-.93,8.53-2.81,12.85-3,6.06-.3,11.5,1.15,16.83-4.83,2.84-3.19,10.64-2,16-2.71-2.34-5.24-2.67-5.55-9.26-3.89-2.18.55-4.06,2.24-6.19,3.18-.87.38-2.67.53-2.91.13a12.2,12.2,0,0,1-.88-3.79c-3.08-.56-6-.72-8.75-1.64-9.29-3.17-18.26-4.78-26.2,3.13a5.12,5.12,0,0,1-1.79.85c-7.77,3.08-14.62,1-21.57-3a19.45,19.45,0,0,0-11.05-2.31c-4.42.44-8.64,2.74-13,4a79.53,79.53,0,0,1-7.9,1.53l-3.75,6.86,7.49,7.07c2.35-13.14,5.69-15.38,20.64-14.66,5.36.27,9,3.57,9.39,9-5-.73-10-1.2-14.88-2.22-3.64-.77-10.3,2-13.08,6.27,7.27-.38,14.32-.83,21.38-1.09,1.95-.07,4.51-.27,5.78.79,4,3.35,7.24,3.77,10.32-.87.16-.25.27-.54.41-.81l-.93.05c-.13-1.6-.25-3.21-.38-4.81,1.5.07,3,.11,4.51.25.48,0,1.11.65,1.39.49C4475.2,251.88,4473.45,257,4474.58,260.85Zm-3.65,61.74c-2.53-5.83-10.93-6.55-11.14-13.39l4.92-.92-5.45-5.14,9.08-1.1.33-1.91c-2.34-.7-4.67-1.85-7-2-2.52-.13-5.09.72-8.24,1.23.85-4.6,1.77-7,6.37-6.75,3.16.17,6.41-1.31,9.62-2.05l0-1.7c-3.45-1.21-6.82-3-10.37-3.5-4.06-.58-7.32-.95-5.1-6.83-4.15,2.88-8.82,18.05-7.31,21.68a1.33,1.33,0,0,0,.26.45c5,4.47,5.53,10.7,6.72,16.77,1.23,6.32,4.93,8.14,11.13,6.25A62.34,62.34,0,0,1,4470.93,322.59Zm-60.58-41.83c5.22-6.08,1.83-12.66,2.22-18.78.08-1.27-2.4-2.74-3.84-4-.08-.07-2,1.3-2.12,2.13C4405.63,267.32,4406.24,274.23,4410.35,280.76Zm76.57-2.93-2.1,1.32c3.21,6.54,6.35,13.11,9.69,19.58.36.7,1.85.82,2.82,1.21.31-1.06,1.22-2.46.84-3.13C4494.54,290.41,4490.7,284.14,4486.92,277.83Zm-10.29,22.32-.1.57,7.47,1.78-2.23,5.5c2.22-.29,4-.13,5.26-.82,1-.54,1.47-2.14,2.18-3.26-1.53-.86-3-2.06-4.6-2.5A70.53,70.53,0,0,0,4476.63,300.15Z"/><path class="b" d="M4367.31,331.89c11.27-3.45,24-7.32,35.22-10.92,5.19-1.67,10.22-3.86,15.77-6a67.3,67.3,0,0,0-1.87-8.29c-2.61-7.4,3.95-11.4,6.38-16.83.5-1.12,5.88-1.63,7.25-.42,2.23,1.95,4.33,5.65,4.15,8.46-.6,9.17,3.2,16.85,7.95,23.73,3.12,4.54,8.82,7.26,13.22,11a30.92,30.92,0,0,0,33.66,3.53c1.29-.69,2.66-1.24,4-1.85l.83,1-8.35,7.91c7.81-1.24,15.07-.45,20.85-6.23,2-2,6.29-1.66,8.06-3.68a135.26,135.26,0,0,0,13.2-17.91c2-3.3,3.47-4.81,7.44-3.19,13.45,5.5,27,10.73,40.54,16.06V423H4462.4c5.48-15.54,11-31.08,16.59-47l2.9,2.19,14.58-28.83-1.11-1.49c-7.91,3.2-15.8,6.49-23.77,9.53a6.73,6.73,0,0,1-4.49-.15c-12.05-4.81-24.06-9.74-34.4-19.89l5.29,29.33-4.87-2c-2.56,9.33-.24,17.87,2.28,26.43a15.43,15.43,0,0,1,.72,5.42c-.29,3.39-1.4,6.74-1.41,10.12,0,5.45.59,10.91.93,16.37H4370C4370,392.44,4367.31,362.43,4367.31,331.89Z"/><path class="b" d="M4435.64,423c-.34-5.46-1-10.92-.93-16.37,0-3.38,1.12-6.73,1.41-10.12a15.43,15.43,0,0,0-.72-5.42c-2.52-8.56-4.84-17.1-2.28-26.43l4.87,2-5.29-29.33c10.34,10.15,22.35,15.08,34.4,19.89a6.73,6.73,0,0,0,4.49.15c8-3,15.86-6.33,23.77-9.53l1.11,1.49-14.58,28.83L4479,376c-5.62,15.91-11.11,31.45-16.59,47h-18.53c9.89-8.71,17.22-39.65,10.42-45.47-2.15,2.84-4.86,5.42-6.2,8.58-.83,1.94.4,4.79.8,7.21.2,1.2,1,2.43.87,3.55-1,7.07-1.43,14.3-5.8,20.44a56.26,56.26,0,0,0-3.17,5.69Z"/><path d="M4440.79,423a56.26,56.26,0,0,1,3.17-5.69c4.37-6.14,4.81-13.37,5.8-20.44.16-1.12-.67-2.35-.87-3.55-.4-2.42-1.63-5.27-.8-7.21,1.34-3.16,4.05-5.74,6.2-8.58,6.8,5.82-.53,36.76-10.42,45.47Z"/><path d="M4528.31,231.38c-4.94-1.15-9.21-1.63-13-3.24-1.67-.71-3.07-3.59-3.38-5.67-1.51-10-3.33-12-13.2-14.13-4.51-1-8.86-2.69-13.38-3.5a132.3,132.3,0,0,0-14.08-1.34,62.78,62.78,0,0,0-9.69-.16,89.88,89.88,0,0,0-13.79,2.12c-3.25.83-6.12,3.14-9.37,4-8.42,2.35-12.92,7.22-13.49,16.34-.16,2.62-3.55,5.43-6.06,7.39-2,1.55-4.26.88-4.72-2.34-1.94-13.57-3.67-27.17-1-40.82,1.16-6.08,8-9.89,15-9.71,15.89.43,31.83,0,47.69.95,10.18.63,20-.86,30-1.67,12.81-1,24.2,10.78,23.39,23.6-.28,4.45-.74,8.89-.9,13.33S4528.31,225.46,4528.31,231.38Z"/><path d="M4476.41,247.74c7.94-7.91,16.91-6.3,26.2-3.13,2.71.92,5.67,1.08,8.75,1.64a12.2,12.2,0,0,0,.88,3.79c.24.4,2,.25,2.91-.13,2.13-.94,4-2.63,6.19-3.18,6.59-1.66,6.92-1.35,9.26,3.89-5.31.74-13.11-.48-16,2.71-5.33,6-10.77,4.53-16.83,4.83-4.32.22-8.54,2.1-12.85,3-1.34.29-3.52.45-4.08-.29-1-1.31-1.1-3.34-1.57-5.07a16,16,0,0,1,3.84-1c5.25,0,10.51.39,15.75.17,1.49-.06,2.91-1.69,4.36-2.59l-.65-1.4,6.12,1.41.6-1.54c-1.82-1-3.61-2.66-5.48-2.74-6.59-.29-13.29-.65-19.8.19-8.78,1.13-9.78,2.87-9.48,12.52-1.13-3.83.62-9-5.21-5.73-.28.16-.91-.45-1.39-.49-1.5-.14-3-.18-4.51-.25.13,1.6.25,3.21.38,4.81l.93-.05c-.14.27-.25.56-.41.81-3.08,4.64-6.33,4.22-10.32.87-1.27-1.06-3.83-.86-5.78-.79-7.06.26-14.11.71-21.38,1.09,2.78-4.29,9.44-7,13.08-6.27,4.88,1,9.87,1.49,14.88,2.22-.41-5.45-4-8.75-9.39-9-14.95-.72-18.29,1.52-20.64,14.66l-7.49-7.07,3.75-6.86a79.53,79.53,0,0,0,7.9-1.53c4.38-1.23,8.6-3.53,13-4a19.45,19.45,0,0,1,11.05,2.31c6.95,4,13.8,6.08,21.57,3a5.12,5.12,0,0,0,1.79-.85"/><path d="M4470.93,322.59a62.34,62.34,0,0,0-6.19,1.12c-6.2,1.89-9.9.07-11.13-6.25-1.19-6.07-1.68-12.3-6.72-16.77a1.33,1.33,0,0,1-.26-.45c-1.51-3.63,3.16-18.8,7.31-21.68-2.22,5.88,1,6.25,5.1,6.83,3.55.51,6.92,2.29,10.37,3.5l0,1.7c-3.21.74-6.46,2.22-9.62,2.05-4.6-.26-5.52,2.15-6.37,6.75,3.15-.51,5.72-1.36,8.24-1.23,2.37.12,4.7,1.27,7,2l-.33,1.91-9.08,1.1,5.45,5.14-4.92.92C4460,316,4468.4,316.76,4470.93,322.59Z"/><path d="M4410.35,280.76c-4.11-6.53-4.72-13.44-3.74-20.6.11-.83,2-2.2,2.12-2.13,1.44,1.21,3.92,2.68,3.84,4C4412.18,268.1,4415.57,274.68,4410.35,280.76Z"/><path d="M4486.92,277.83c3.78,6.31,7.62,12.58,11.25,19,.38.67-.53,2.07-.84,3.13-1-.39-2.46-.51-2.82-1.21-3.34-6.47-6.48-13-9.69-19.58Z"/><path d="M4476.63,300.15a70.53,70.53,0,0,1,8,1.27c1.63.44,3.07,1.64,4.6,2.5-.71,1.12-1.16,2.72-2.18,3.26-1.29.69-3,.53-5.26.82l2.23-5.5-7.47-1.78Z"/><polygon class="b" points="4503.56 343.22 4470.93 350.22 4429.26 328.2 4417.33 391.32 4495.02 389.02 4503.56 343.22"/><polygon points="2708.36 89.56 2708.36 39.87 2615.2 2.6 2593.46 192.04 2475.44 192.04 2338.8 334.9 2165.76 331.99 2171.35 554.66 1947.49 483.97 1891.59 390.8 1829.48 434.28 1661.78 707.57 1089.05 1080.07 1256.42 1080.07 1692.95 751.72 1841.72 445.8 1889.56 415.45 1937.99 518.98 2183.97 589.97 2196.83 366.62 2352.41 375.62 2477.77 215.46 2593.96 220.25 2637.17 42.7 2681.5 61.9 2697.4 108.4 2801.84 261.05 2809.02 246.42 2708.36 89.56"/><path d="M5011,246,4910.3,89.18V39.49L4817.13,2.23l-21.74,189.44h-118L4540.73,334.52l-173-2.91,5.6,222.67-223.86-70.69-55.9-93.17-62.11,43.48L3863.71,707.19,3291,1080.07h984.95l519.61-343.48-23.79-243.91,184.42-238,47.59,6h0Z"/><polygon class="b" points="5090.71 89.18 5090.71 39.49 4997.54 2.23 4975.8 191.67 4857.79 191.67 4721.15 334.52 4548.1 331.61 4553.7 554.28 4329.84 483.59 4273.94 390.42 4211.83 433.9 4044.13 707.2 3471.4 1080.07 3638.77 1080.07 4075.3 751.34 4224.07 445.42 4271.91 415.07 4320.34 518.6 4566.32 589.59 4579.18 366.24 4734.76 375.24 4860.12 215.08 4976.31 219.88 5019.52 42.32 5063.85 61.52 5079.75 108.03 5184.19 260.67 5191.37 246.04 5090.71 89.18"/><polygon class="a" points="5063.85 61.52 5019.52 42.32 4976.31 219.88 4860.12 215.08 4734.76 375.24 4579.18 366.24 4566.32 589.59 4320.34 518.6 4271.91 415.07 4224.07 445.42 4075.3 751.34 3638.77 1080.07 4456.35 1080.07 4975.97 736.59 4952.17 492.68 5136.59 254.72 5184.19 260.67 5079.75 108.03 5063.85 61.52"/><path class="b" d="M5796.29.07h-441.7L5332.1,196.68h-118L5077.44,339.54l-173-2.91L4910,559.3l-223.86-70.69-55.9-93.17-62.11,43.48-167.7,273.29-572.73,372.87h1968.6Z"/><polygon class="b" points="2809.02 246.04 2801.84 260.67 3290.26 1080.07 3417.58 1080.07 2809.02 246.04"/><polygon class="a" points="2681.5 62.56 2637.17 43.36 2593.96 220.92 2477.77 216.12 2352.41 376.28 2196.83 367.28 2183.97 590.63 1937.99 519.64 1889.56 416.12 1841.72 446.46 1692.95 752.38 1256.42 1080.73 2074.01 1081.11 2593.62 737.63 2569.82 493.72 2754.24 255.76 2801.84 261.71 2697.4 109.07 2681.5 62.56"/><text class="c" transform="translate(555.94 782.01)">CHINA</text><text class="d" transform="translate(542.67 632.49)">중국</text><text class="e" transform="translate(559.38 398.05)">Histo<tspan class="f" x="124.53" y="0">r</tspan><tspan class="g" x="152.1" y="0">y of Border Protocol</tspan></text><text class="h" transform="translate(555.81 324.65)">국경 협정의 력사</text><polygon class="i" points="4708.88 0 4708.86 0.09 4709.09 0.09 4708.88 0"/><rect class="i" x="892.35" y="714.06" width="63.34" height="20"/><text class="j" transform="translate(1466.86 947.21)">「북·중 양국 변경주민들의 국경통행세칙」<tspan x="0" y="28.8">Border traffic rules for North Korean and Chinese residents </tspan></text><text class="k" transform="translate(1402.82 703.36)">1948-1994<tspan x="0" y="21.6">김일성 집권기</tspan><tspan x="0" y="43.2">Kim Il Sung Era</tspan></text><text class="k" transform="translate(2354.1 119.96)">1994-2011<tspan x="0" y="21.6">김정일 집권기</tspan><tspan x="0" y="43.2">Kim Jong Il Era</tspan></text><text class="j" transform="translate(1634.46 822.65)">「북·중 변경지구 주민의 국경통행증 발급방법」<tspan x="0" y="28.8">Rules regarding border pass issuing for North Korean and Chinese residents</tspan></text><text class="j" transform="translate(1732.26 677.72)">「북·중 변경지역 주민의 국경 통행 세칙」<tspan x="0" y="28.8">Border traffic regulations for North Korean and Chinese residents</tspan></text><text class="j" transform="translate(2184.47 590.08)">「북·중 국경조약」<tspan x="0" y="28.8">North Korea-China Border Treaty</tspan></text><text class="j" transform="translate(2732.43 68.08)">「국경통과지점 및 그 관리제도에 관한 협정」<tspan x="0" y="28.8">Agreement on Border Passing Points and their Management Systems</tspan></text><text class="j" transform="translate(3105.93 484.75)">마지막 협정에서, 중국과 북한은 15개 국경통과지점을 설정하였다. <tspan x="28.99" y="28.8">In the last agreement, 15 crossing points were defined. </tspan></text><path class="a" d="M2114.1,513.64a1.5,1.5,0,0,0,0-3,1.5,1.5,0,0,0,0,3Z"/><text class="c" transform="translate(966.31 782.01)">DPRK</text><text class="d" transform="translate(758.79 997.18)">북한</text><text class="j" transform="translate(2210.88 414.78)">「국경지역 국가안전과 사회질서 업무 협력 의정서」<tspan x="0" y="28.8">Protocol for Cooperation of National Security</tspan><tspan x="0" y="57.6">and Social Order in Border Region </tspan></text><text class="l" transform="matrix(0.85, -0.52, 0.52, 0.85, 1402.86, 956.82)">1951</text><text class="m" transform="matrix(0.8, -0.59, 0.59, 0.8, 1577.43, 828.7)">1953</text><text class="n" transform="matrix(0.64, -0.77, 0.77, 0.64, 1722.37, 667.29)">1955</text><text class="n" transform="matrix(0.87, 0.49, -0.49, 0.87, 2107.81, 554.42)">1962</text><text class="o" transform="translate(2183.25 406.58) rotate(-67.94)">1964</text><text class="p" transform="translate(2197.54 364.55) rotate(1.88)">1986</text><text class="q" transform="translate(2257.84 375.41) rotate(1.88)">1996</text><text class="r" transform="translate(2611.89 58.18) rotate(1.88)">2001</text><text class="k" transform="translate(4536.46 124.88)">2011-present<tspan x="0" y="21.6">김정은 집권기</tspan><tspan x="0" y="43.2">Kim Jong Un Era</tspan></text></svg>