<svg xmlns="http://www.w3.org/2000/svg" viewBox="0 0 2309.85 2208.98"><defs><style>.a{fill:#fff;}.b{fill:#d8d8d8;}.c{font-size:18.88px;fill:#3b3b3b;font-family:KCC-KP-KwangMyeong-Medium-KP-2011KPS, KP KwangMyeong;}.d{fill:#e8e8e8;}.e{fill:#bd0d1a;}</style></defs><polygon class="a" points="1690.17 406.81 1680.73 386.16 1653.48 374.37 1626.93 483.49 1555.52 480.54 1474.28 567.55 1382.85 573.45 1370.31 714.96 1223.77 667.09 1221.67 661.89 1194.44 594.28 1178 609.61 1164.6 622.11 1073.16 810.13 818.78 1001.47 810.98 1006.96 783.79 1026.06 924.96 1093.7 875.99 1273.24 778.06 1403.81 932.08 1482.82 1039.21 1460.94 1093.66 1488.16 1198.34 1371.17 1373.8 1371.17 1414.49 1299.47 1408.48 1283.44 1241.18 1173.27 1271.79 1052.9 1632.9 814.2 1616.58 646.9 1740.79 486.63 1739.93 485.29 1690.17 406.81"/><polygon class="a" points="1831.56 0 0 0 0 1312.43 277.56 1086.08 624.63 1034.6 787.81 956.13 944.96 853.92 1054 783 1157.07 615.03 1174.11 603.11 1195.25 588.31 1229.6 645.57 1361 687.06 1367.19 689.02 1370.71 566.32 1370.85 561.59 1468.44 554.08 1470.1 553.95 1554.09 466.15 1626.62 466.15 1626.71 465.33 1639.98 349.72 1643.94 351.31 1697.24 372.63 1697.24 403.17 1722.94 436.43 1722.94 436.43 1831.56 0"/><polygon class="b" points="1831.56 0 1722.94 436.43 1722.94 436.43 1722.94 436.43 1775.71 513.43 2309.85 503 2309.85 0 1831.56 0"/><polygon class="b" points="1208.84 1387.78 1098.83 1510.74 1110.21 1516.43 1161.67 1717.98 1101.64 1679.38 1028.73 1730.84 1084.48 1782.3 1123.08 2013.87 1063.04 2146.8 1215.28 2208.98 1305.33 2170.39 1500.44 2116.79 1579.78 2127.51 1667.69 1880.93 1629.09 1915.24 1626.95 1672.95 1481.15 1432.81 1436.01 1312.43 1393.24 1387.78 1208.84 1387.78"/><text class="c" transform="translate(1399.09 688.33)">혜산<tspan x="0" y="22.65">Hyesan</tspan></text><polygon class="d" points="906.42 974.64 886.08 982.02 868.53 965.99 909.07 935.5 917.11 955.41 906.42 974.64"/><polygon class="d" points="1385.81 722.99 1369.62 717.62 1369.62 717.62 1373.78 670.56 1396.69 698.94 1385.81 722.99"/><polygon class="d" points="799.53 950.5 729 882.75 809.67 778.62 933.04 789.26 949.95 852.67 799.53 950.5"/><polygon class="d" points="1331.14 635.29 1228.7 648.12 1366.49 691.63 1369.58 584.11 1331.14 635.29"/><polygon class="d" points="1694.68 416.47 1683.8 453.26 1708.92 529.87 1740.63 488.95 1694.68 416.47"/><polygon class="d" points="1697.02 405.36 1722.76 438.67 1784 194 1668.37 194 1668.37 363.32 1697.02 374.78 1697.02 405.36"/><text class="c" transform="translate(1737.56 389.03)">훈춘<tspan x="0" y="22.65">Hunchun</tspan></text><text class="c" transform="translate(793.86 876.54)">단둥<tspan x="-43.28" y="22.65">Dandong</tspan></text><text class="c" transform="translate(1286.56 625.28)">창바이<tspan x="-29.23" y="22.65">Changbai</tspan></text><rect class="e" x="1715.96" y="397.79" width="11.8" height="11.8"/><rect class="e" x="1344.93" y="657.92" width="11.8" height="11.8"/><rect class="e" x="839.47" y="892.57" width="11.8" height="11.8"/><rect class="e" x="891.14" y="954.8" width="11.8" height="11.8"/><rect class="e" x="1377.18" y="696.91" width="11.8" height="11.8"/><rect class="e" x="1695.85" y="453.18" width="11.8" height="11.8"/><text class="c" transform="translate(1657.7 489.92)">라선<tspan x="-18.27" y="22.65">Rason</tspan></text><text class="c" transform="translate(912.5 971.7)">신의주<tspan x="0" y="22.65">Sinuiju</tspan></text></svg>