<svg xmlns="http://www.w3.org/2000/svg" viewBox="0 0 202.51 255"><defs><style>.cls-1{fill:#fff;}.cls-2{fill:#1e1e1e;}</style></defs><g id="Layer_2" data-name="Layer 2"><g id="Layer_1-2" data-name="Layer 1"><path class="cls-1" d="M4.51,204V0h198V223c-5.87-.61-11.73-1.61-17.61-1.71-4.14-.07-8.77.16-12.32,2-3.14,1.6-5.13,2.2-8,.09-8.93-6.66-18-13.2-26.81-19.69.71-11,5.14-21.61,2.41-32.84a99.73,99.73,0,0,0-4.92,10.38c-1.15,2.56-2.74,3.24-4.85.76s-4.45-5-7-7.93c2.26-.6,4.34-1,6.32-1.71,4.19-1.47,7.93-3.61,8.33-8.6a4,4,0,0,0-2.35-3.08c-5.63-1.16-9.82,1.65-13.72,5.39-1.28,1.23-3.43,2.48-5,2.31-7.06-.76-14-2.45-21.09-3-14.7-1.23-25.15-9-29.6-23.09-.56-1.77-.17-3.94.15-5.86.5-2.89,2.2-3.41,4.73-2,5.48,3.12,10.47,6.28,13,12.88,3,8,14.34,11.58,22.05,7.7,1.64-.82,2.65-2.88,3.94-4.37l-.72-1.67c-3.74,0-7.57.48-11.21-.14-3.49-.59-6.79-2.32-10.08-3.52l4-7-5.23-1.19c3.69-4,23.18-3.55,26.67.71-1.65.34-3.06.63-4.47.9s-2.73.46-3.49.59c1.69,1.07,3.66,2.26,5.57,3.53,2.17,1.44,7.12-.55,8.84-3.74,1.55-2.9-.11-4.49-2.68-5.17-5.24-1.39-10.49-3-15.84-3.67-4.49-.52-9.14.41-13.71.35-1.28,0-2.54-1.24-3.81-1.9,1-1.23,1.77-2.89,3.06-3.56a6.64,6.64,0,0,1,4.41-.12c7.6,2.07,14.82-.69,21.84-2.4,5-1.22,6.3.81,7.68,4.22.49,1.2.1,2.91.82,3.85a21.65,21.65,0,0,0,5.22,5c.52.34,3.29-1.21,3.34-2a30.21,30.21,0,0,0-.86-7.4c-.1-.53-1-.87-1.35-1.42-2.42-3.88-4.79-7.79-7.09-11.57l-12-8.63c.87-7.49,1.4-7.62,8.69-4.65a51.11,51.11,0,0,0,11,2.75c1,.17,2.28-1.21,3.43-1.87-.92-1-1.68-2.35-2.82-3a20.13,20.13,0,0,0-4.67-1.2l.21-1.11,16.56,3c-1.29-2.46-1.75-4.73-3.12-5.7-5.24-3.7-11-6-17.7-5.26-1.29.14-2.68-.69-4-1.08.8-1.29,1.55-2.61,2.43-3.85a11.07,11.07,0,0,1,2.07-1.58H108.52c2.51-.67,5-1.67,7.54-1.92,5-.49,10-.55,15-.79a25.42,25.42,0,0,0-9.1-2.9c-7.06-.88-10.92.89-13.33,5.75-3.33,6.61-3.33,6.61-12.83,5.31-.65-6.11-5.89-4.87-9.24-6l2.2,5c-2,.16-3.9.4-5.86.46-2.64.09-5.29.06-7.93.07-3.37,0-6.75,0-10.12,0l-.46-1.67L60,89.92c-1.88-1.06-3.72-1.69-5-2.91s-2.48-3.12-2.14-4.25a107.07,107.07,0,0,1,6.23-17c1.72-3.45,5.4-5.87,7.5-9.2C73.3,46,83.12,41.58,95,42.33c12.1.76,24.13,2.55,36.17,4.09a11.84,11.84,0,0,1,5.42,2.4c11,8.53,18.7,19.25,20.93,33.35.63,4,1.37,7.87,2.09,12l-5.48-1.06c5.48,7.1,4,13.86,2.58,20.71-.48,2.3-.07,4.78-.07,7.18l1.64.76c1.85-2.1,4.81-4,5.24-6.34s-1.48-5.44-2.51-8.59c.33-.05,2.42-.66,2.61-.3,1.31,2.57,2.23,5.34,3.66,9,1.07-2.73,2.35-4.63,2.46-6.6.16-3-.48-6.13-.79-9.19-2.38,1.11-4.76,2.23-7.16,3.33-.12,0-.31,0-.9-.12a25.68,25.68,0,0,1,.91-2.65c3.79-8,6.94-16.1,7.53-25.15.67-10.13-1.77-19.67-4.25-29.26-.23-.89-1.2-1.56-1.71-2.4-1.08-1.78-2.06-3.62-3.1-5.43-1.84-3.19-3.12-6.36-7.8-7.23-4.27-.8-8.15-3.68-12.17-5.7-.39-.2-.53-.85-.87-1.2a11.11,11.11,0,0,0-2.57-2.43c-11.59-5.9-24.24-7.41-36.92-7.82-6.91-.23-14-.69-20.46,4.26-6.19,4.71-13.76,7.59-20.63,11.44a6.79,6.79,0,0,0-2.81,3.31c-2.59,7-5.23,14.1-7.36,21.29a61,61,0,0,0,.3,35.8,22.45,22.45,0,0,1,.39,4.59l-4.83-.65c1.15,7.72-2.23,16.43,8.5,21.08C53.73,107,54.35,99.71,55,92.4l1.32.07.43,4c-.33-5.54,3.92-5.12,6.67-4.32,3.28.94,7.09,2.73,8.9,5.36,2.21,3.22,4.77,3.55,7.57,3.07,4.32-.75,8.51-2.24,13-3.49v3.49l1.61.51c.78-2.36,2.16-4.72,2.18-7.09,0-3.39,0-5.94,4.41-6,4.54-.07,4.8,2.8,4.31,6-.46,3-.4,5.53,2.39,7.51.77.55.85,2,1.24,3.11,1.63,2.15,3.57,4.15,4.79,6.51.87,1.67.78,3.84,1.12,5.79-1.44,0-2.89.2-4.32.12-6.56-.34-13.12-.69-19.67-1.15a39.05,39.05,0,0,1-4.87-.93c.78-1.64,1.43-3.35,2.36-4.9a34.5,34.5,0,0,1,2.86-3.58,34.77,34.77,0,0,0-7.13,4.18c-1.17.79-3.4,1.18-3.59,2.08-1.77,8.37-9.08,7.46-14.64,8.2-3.75.5-5.11,1.9-5.45,4.92-.32,2.78.09,5.64,0,8.46s-.44,5.36-.69,8.21L56,140.19c-.48,1.15-1.44,2.33-1.35,3.43a41,41,0,0,0,1.43,8.32c.9,3.08.23,5.42-1.24,8.33-5,9.9-12.32,18.77-11.93,31,.21,6.75-6.17,9.45-11.68,10.36C22.43,203.13,13.43,203.31,4.51,204ZM92.17,79.37c-3.09-6.1-15.53-7.25-20.68-2.58ZM150,89.78c-.71-.06-3.09-.46-3.15-.24-.72,2.71-1.1,5.51-1.45,7.62Z"/><path class="cls-2" d="M109,104.7l12,8.62c2.3,3.78,4.67,7.69,7.09,11.57.34.55,1.25.89,1.35,1.42a30.21,30.21,0,0,1,.86,7.4c0,.79-2.82,2.34-3.34,2a21.65,21.65,0,0,1-5.22-5c-.72-.94-.33-2.65-.82-3.85-1.38-3.41-2.66-5.44-7.68-4.22-7,1.71-14.24,4.47-21.84,2.4a6.64,6.64,0,0,0-4.41.12c-1.29.67-2.06,2.33-3.06,3.56,1.27.66,2.53,1.88,3.81,1.9,4.57.06,9.22-.87,13.71-.35,5.35.63,10.6,2.28,15.84,3.67,2.57.68,4.23,2.27,2.68,5.17-1.72,3.19-6.67,5.18-8.84,3.74-1.91-1.27-3.88-2.46-5.57-3.53.76-.13,2.13-.34,3.49-.59s2.82-.56,4.47-.9c-3.49-4.26-23-4.75-26.67-.71l5.23,1.19-4,7c3.29,1.2,6.59,2.93,10.08,3.52,3.64.62,7.47.14,11.21.14l.72,1.67c-1.29,1.49-2.3,3.55-3.94,4.37-7.71,3.88-19,.26-22.05-7.7-2.49-6.6-7.48-9.76-13-12.88-2.53-1.44-4.23-.92-4.73,2-.32,1.92-.71,4.09-.15,5.86,4.45,14.06,14.9,21.86,29.6,23.09,7.07.59,14,2.28,21.09,3,1.61.17,3.76-1.08,5-2.31,3.9-3.74,8.09-6.55,13.72-5.39a4,4,0,0,1,2.35,3.08c-.4,5-4.14,7.13-8.33,8.6-2,.69-4.06,1.11-6.32,1.71,2.59,2.91,4.87,5.37,7,7.93s3.7,1.8,4.85-.76a99.73,99.73,0,0,1,4.92-10.38c2.73,11.23-1.7,21.86-2.41,32.84,8.86,6.49,17.88,13,26.81,19.69,2.83,2.11,37.89,21,37.89,31.61H2.72L0,203.81s22.43-.68,31.23-2.14c5.51-.91,11.89-3.61,11.68-10.36-.39-12.27,6.94-21.14,11.93-31,1.47-2.91,2.14-5.25,1.24-8.33a41,41,0,0,1-1.43-8.32c-.09-1.1.87-2.28,1.35-3.43l3.79,2.35c.25-2.85.6-5.52.69-8.21s-.3-5.68,0-8.46c.34-3,1.7-4.42,5.45-4.92,5.56-.74,12.87.17,14.64-8.2.19-.9,2.42-1.29,3.59-2.08a34.77,34.77,0,0,1,7.13-4.18,34.5,34.5,0,0,0-2.86,3.58c-.93,1.55-1.58,3.26-2.36,4.9a39.05,39.05,0,0,0,4.87.93c6.55.46,13.11.81,19.67,1.15,1.43.08,2.88-.07,4.32-.12-.34-2-.25-4.12-1.12-5.79-1.22-2.36-3.16-4.36-4.79-6.51Zm17.42,91.85c-2.35,1.2-4.08,2.24-5.93,3-2.49,1-5.08,1.83-7.63,2.7-1.47.51-2.95,1-4.43,1.48a27.76,27.76,0,0,0,2,4.62c1.09,1.63,2.74,2.87,3.87,4.48.77,1.09,1.75,2.7,1.46,3.77-1.27,4.68,2.76,6.31,4.49,9.3.22-2.35-1.12-5-.28-6.45C124,212.76,126.64,205.85,126.44,196.55Z"/><path d="M109,104.63c-.39-1.06-.47-2.56-1.24-3.11C105,99.54,105,97,105.41,94c.49-3.21.23-6.08-4.31-6-4.39.07-4.39,2.62-4.41,6,0,2.37-1.4,4.73-2.18,7.09l-1.61-.51V97.1c-4.52,1.25-8.71,2.74-13,3.49-2.8.48-5.36.15-7.57-3.07-1.81-2.63-5.62-4.42-8.9-5.36-2.75-.8-7-1.22-6.67,4.32l-.43-4L55,92.4c-.63,7.31-1.25,14.62-1.91,22.39-10.73-4.65-7.35-13.36-8.5-21.08l4.83.65A22.45,22.45,0,0,0,49,89.77a61,61,0,0,1-.3-35.8c2.13-7.19,4.77-14.24,7.36-21.29a6.79,6.79,0,0,1,2.81-3.31c6.87-3.85,14.44-6.73,20.63-11.44C86,13,93.06,13.44,100,13.67c12.68.41,25.33,1.92,36.92,7.82a11.11,11.11,0,0,1,2.57,2.43c.34.35.48,1,.87,1.2,4,2,7.9,4.9,12.17,5.7,4.68.87,6,4,7.8,7.23,1,1.81,2,3.65,3.1,5.43.51.84,1.48,1.51,1.71,2.4,2.48,9.59,4.92,19.13,4.25,29.26-.59,9-3.74,17.15-7.53,25.15a25.68,25.68,0,0,0-.91,2.65c.59.08.78.17.9.12,2.4-1.1,4.78-2.22,7.16-3.33.31,3.06,1,6.15.79,9.19-.11,2-1.39,3.87-2.46,6.6-1.43-3.69-2.35-6.46-3.66-9-.19-.36-2.28.25-2.61.3,1,3.15,3,6.09,2.51,8.59s-3.39,4.24-5.24,6.34l-1.64-.76c0-2.4-.41-4.88.07-7.18,1.43-6.85,2.9-13.61-2.58-20.71l5.48,1.06c-.72-4.09-1.46-8-2.09-12-2.23-14.1-9.88-24.82-20.93-33.35a11.84,11.84,0,0,0-5.42-2.4c-12-1.54-24.07-3.33-36.17-4.09C83.12,41.58,73.3,46,66.65,56.58c-2.1,3.33-5.78,5.75-7.5,9.2a107.07,107.07,0,0,0-6.23,17c-.34,1.13,1,3.16,2.14,4.25s3.09,1.85,5,2.91l4.36-5.45.46,1.67c3.37,0,6.75,0,10.12,0,2.64,0,5.29,0,7.93-.07,2-.06,3.9-.3,5.86-.46l-2.2-5c3.35,1.09,8.59-.15,9.24,6,9.5,1.3,9.5,1.3,12.83-5.31l-.11-.13h12.53A11.07,11.07,0,0,0,119,82.75c-.88,1.24-1.63,2.56-2.43,3.85,1.35.39,2.74,1.22,4,1.08,6.68-.71,12.46,1.56,17.7,5.26,1.37,1,1.83,3.24,3.12,5.7l-16.56-3-.21,1.11A20.13,20.13,0,0,1,129.3,98c1.14.6,1.9,1.94,2.82,3-1.15.66-2.41,2-3.43,1.87a51.11,51.11,0,0,1-11-2.75c-7.29-3-7.82-2.84-8.69,4.65C109,104.7,109,104.63,109,104.63Z"/><path d="M92.17,79.37,71.49,76.79C76.64,72.12,89.08,73.27,92.17,79.37Z"/><path d="M108.63,81.3c2.41-4.86,6.27-6.63,13.33-5.75a25.42,25.42,0,0,1,9.1,2.9c-5,.24-10,.3-15,.79-2.55.25-5,1.25-7.54,1.92A1.71,1.71,0,0,0,108.63,81.3Z"/><path d="M150,89.78l-4.6,7.38c.35-2.11.73-4.91,1.45-7.62C146.91,89.32,149.29,89.72,150,89.78Z"/><path class="cls-1" d="M126.44,196.55c.2,9.3-2.48,16.21-6.42,22.89-.84,1.41.5,4.1.28,6.45-1.73-3-5.76-4.62-4.49-9.3.29-1.07-.69-2.68-1.46-3.77-1.13-1.61-2.78-2.85-3.87-4.48a27.76,27.76,0,0,1-2-4.62c1.48-.49,3-1,4.43-1.48,2.55-.87,5.14-1.68,7.63-2.7C122.36,198.79,124.09,197.75,126.44,196.55Z"/></g></g></svg>