<svg xmlns="http://www.w3.org/2000/svg" xmlns:xlink="http://www.w3.org/1999/xlink" viewBox="0 0 1920 1080"><defs><style>.a,.k,.l,.m,.t{fill:none;}.b{fill:#e9d39a;}.c{fill:#d7a56a;}.d{isolation:isolate;}.e{font-size:24.48px;fill:#3b3b3b;font-family:KCC-KP-KwangMyeong-Medium-KP-2011KPS, KP KwangMyeong;}.f{fill:#bd0d1a;}.g{clip-path:url(#a);}.h{fill:#1e1e1e;}.aa,.ab,.i,.u,.w,.x{fill:#fff;}.j{fill:url(#b);}.k{stroke:#dd4830;stroke-width:5px;}.k,.l,.m,.t{stroke-miterlimit:10;}.l{stroke-width:4px;stroke:url(#e);}.l,.m,.t{mix-blend-mode:multiply;}.m{stroke-width:9px;stroke:url(#f);}.n{fill:url(#g);}.o{opacity:0.5;}.p{opacity:0.2;}.q{opacity:0;}.r{fill:url(#h);}.s{fill:url(#i);}.t{stroke-width:20px;stroke:url(#j);}.u{font-size:36px;}.u,.w,.y{font-family:MapoGoldenPier-KSCpc-EUC-H, MapoGoldenPier;}.v{letter-spacing:-0.1em;}.w,.y{font-size:18px;}.x{font-size:72px;}.ab,.x{font-family:Prohibition-Regular, Prohibition;}.y{fill:#6c6c6c;}.z{font-family:AdobeMyungjoStd-Medium-KSCpc-EUC-H, Adobe Myungjo Std;letter-spacing:0em;}.aa,.ab{font-size:24px;}.aa{font-family:KCC-KP-CheonRiMa-Bold-KP-2011KPS, KP CheonRiMa B;}.ac{letter-spacing:-0.08em;}.ad{letter-spacing:-0.02em;}.ae{letter-spacing:-0.08em;}.af{letter-spacing:0em;}</style><clipPath id="a"><rect class="a" width="1920" height="1080"/></clipPath><pattern id="b" width="110.96" height="110.96" patternTransform="translate(-65.1 554.79)" patternUnits="userSpaceOnUse" viewBox="0 0 110.96 110.96"><rect class="a" width="110.96" height="110.96"/><rect class="c" width="110.96" height="110.96"/></pattern><linearGradient id="e" x1="451.94" y1="698.72" x2="1766.49" y2="698.72" gradientUnits="userSpaceOnUse"><stop offset="0" stop-color="#f2f2f2"/><stop offset="0.17" stop-color="#e9d39a"/><stop offset="0.28" stop-color="#fff"/><stop offset="0.52" stop-color="#fff"/><stop offset="0.58" stop-color="#e9d39a"/><stop offset="0.67" stop-color="#fff"/><stop offset="0.82" stop-color="#fff"/><stop offset="0.91" stop-color="#e9d39a"/><stop offset="1" stop-color="#f2f2f2"/></linearGradient><linearGradient id="f" x1="414.87" y1="642.75" x2="1791.04" y2="642.75" xlink:href="#e"/><pattern id="g" width="48" height="48" patternTransform="translate(15.71 195.28) scale(1.15)" patternUnits="userSpaceOnUse" viewBox="0 0 48 48"><rect class="a" width="48" height="48"/><circle class="b" cx="24" cy="48" r="6"/><circle class="b" cx="48" cy="48" r="6"/><circle class="b" cx="24" cy="24" r="6"/><circle class="b" cx="48" cy="24" r="6"/><circle class="b" cx="36" cy="36" r="6"/><circle class="b" cx="12" cy="36" r="6"/><circle class="b" cx="36" cy="12" r="6"/><circle class="b" cx="12" cy="12" r="6"/><circle class="b" cy="48" r="6"/><circle class="b" cy="24" r="6"/><circle class="b" cx="24" r="6"/><circle class="b" cx="48" r="6"/><circle class="b" r="6"/></pattern><pattern id="h" width="48" height="48" patternTransform="translate(-10.34 162.61) scale(1.15)" patternUnits="userSpaceOnUse" viewBox="0 0 48 48"><rect class="a" width="48" height="48"/><circle class="b" cx="24" cy="48" r="6"/><circle class="b" cx="48" cy="48" r="6"/><circle class="b" cx="24" cy="24" r="6"/><circle class="b" cx="48" cy="24" r="6"/><circle class="b" cx="36" cy="36" r="6"/><circle class="b" cx="12" cy="36" r="6"/><circle class="b" cx="36" cy="12" r="6"/><circle class="b" cx="12" cy="12" r="6"/><circle class="b" cy="48" r="6"/><circle class="b" cy="24" r="6"/><circle class="b" cx="24" r="6"/><circle class="b" cx="48" r="6"/><circle class="b" r="6"/></pattern><pattern id="i" width="48" height="48" patternTransform="translate(56.61 204.29) scale(1.15)" patternUnits="userSpaceOnUse" viewBox="0 0 48 48"><rect class="a" width="48" height="48"/><circle class="b" cx="24" cy="48" r="6"/><circle class="b" cx="48" cy="48" r="6"/><circle class="b" cx="24" cy="24" r="6"/><circle class="b" cx="48" cy="24" r="6"/><circle class="b" cx="36" cy="36" r="6"/><circle class="b" cx="12" cy="36" r="6"/><circle class="b" cx="36" cy="12" r="6"/><circle class="b" cx="12" cy="12" r="6"/><circle class="b" cy="48" r="6"/><circle class="b" cy="24" r="6"/><circle class="b" cx="24" r="6"/><circle class="b" cx="48" r="6"/><circle class="b" r="6"/></pattern><linearGradient id="j" x1="387.95" y1="618.1" x2="1810.65" y2="618.1" xlink:href="#e"/></defs><g class="d"><text class="e" transform="translate(1785.97 146.21)">훈춘<tspan x="0" y="29.38">Hunchun</tspan></text><rect class="f" x="1757.94" y="157.57" width="15.3" height="15.3"/><rect class="f" x="1731.86" y="229.41" width="15.3" height="15.3"/><text class="e" transform="translate(1682.38 277.07)">라선<tspan x="-23.69" y="29.38">Rason</tspan></text><text class="e" transform="translate(409.54 888.03)">단둥<tspan x="-56.14" y="29.38">Dandong</tspan></text><rect class="f" x="468.71" y="908.81" width="15.3" height="15.3"/><rect class="f" x="535.73" y="989.52" width="15.3" height="15.3"/><text class="e" transform="translate(563.42 1011.44)">신의주<tspan x="0" y="29.38">Sinuiju</tspan></text><text class="e" transform="translate(1155.41 507.09)">창바이<tspan x="-37.92" y="29.38">Changbai</tspan></text><rect class="f" x="1231.12" y="549.42" width="15.3" height="15.3"/><text class="e" transform="translate(1301.37 588.87)">혜산<tspan x="0" y="29.38">Hyesan</tspan></text><rect class="f" x="1272.95" y="600" width="15.3" height="15.3"/><g class="g"><polygon class="h" points="1783.06 216.55 1744.71 166.92 1744.71 121.36 1659.27 87.18 1639.48 259.67 1639.34 260.9 1531.12 260.9 1405.81 391.9 1403.33 392.1 1257.72 403.3 1257.52 410.35 1252.26 593.43 1243.02 590.51 1046.98 528.6 995.72 443.17 964.18 465.25 938.76 483.04 784.98 733.65 622.28 839.47 387.82 991.96 144.34 1109.04 381.82 1096.31 422.38 1067.8 434.02 1059.62 813.57 774.13 949.99 493.6 969.99 474.94 994.52 452.08 1035.15 552.96 1038.27 560.71 1256.92 632.14 1275.63 420.99 1412.04 412.19 1533.25 282.37 1639.8 286.77 1679.42 123.95 1720.08 141.56 1734.17 172.36 1830.42 324.18 1861.79 331.44 1783.06 216.55"/><rect class="h" x="-310.57" y="21.4" width="3447.63" height="3302.22"/><polygon class="i" points="1734.17 172.36 1720.08 141.56 1679.42 123.95 1639.8 286.77 1533.25 282.37 1412.04 412.19 1275.63 420.99 1256.92 632.14 1038.27 560.71 1035.15 552.96 994.52 452.08 969.99 474.94 949.99 493.6 813.57 774.13 434.02 1059.62 422.38 1067.8 381.82 1096.31 592.44 1197.23 519.38 1465.1 373.27 1659.92 603.07 1777.79 762.9 1745.15 844.15 1785.77 1000.34 1611.21 1262.12 1611.21 1322.84 1504.24 1313.87 1480.32 1064.26 1315.94 1109.92 1136.35 1648.71 780.2 1624.36 530.59 1809.68 291.46 1808.41 289.45 1734.17 172.36"/><polygon points="1945.12 -147.97 -787.62 -147.97 -787.62 1523.57 -373.49 1185.86 144.34 1109.04 387.82 991.96 622.28 839.47 784.98 733.65 938.76 483.04 964.18 465.25 995.72 443.17 1046.98 528.6 1243.02 590.51 1252.26 593.43 1257.52 410.35 1257.72 403.3 1403.33 392.1 1405.81 391.9 1531.12 260.9 1639.34 260.9 1639.48 259.67 1659.27 87.18 1665.19 89.55 1744.71 121.36 1744.71 166.92 1783.06 216.55 1783.05 216.55 1945.12 -147.97"/><polygon class="i" points="1945.12 -147.97 1783.05 216.55 1783.06 216.55 1783.06 216.55 1861.79 331.44 2660.01 315.72 2660.01 -147.97 1945.12 -147.97"/><polygon class="j" points="566.83 1015.07 536.53 1026.06 510.38 1002.18 570.78 956.75 582.75 986.41 566.83 1015.07"/><polygon class="j" points="1281.05 640.14 1256.92 632.14 1256.92 632.14 1263.13 562.03 1297.26 604.31 1281.05 640.14"/><polygon class="k" points="407.58 979.1 302.5 878.16 422.69 723.02 606.49 738.87 631.68 833.35 407.58 979.1"/><polygon class="k" points="1199.6 509.48 1046.98 528.6 1252.26 593.43 1256.87 433.23 1199.6 509.48"/><polygon class="j" points="1741.22 183.48 1725.02 238.28 1762.44 352.42 1809.68 291.46 1741.22 183.48"/><polygon class="k" points="1744.71 166.92 1783.05 216.55 1945.12 -147.97 1702.03 -147.97 1702.03 104.29 1744.71 121.36 1744.71 166.92"/><polyline class="l" points="1764.8 349.38 1714.72 270.39 1693.41 357.96 1562.03 352.54 1443.76 479.2 1339.06 485.96 1317.92 724.57 986.34 616.24 977.57 594.47 868.28 819.22 474.56 1115.36 453.09 1130.45"/><polyline class="m" points="1787.24 320.42 1703.81 188.83 1700.74 182.11 1666.61 322.37 1547.64 317.45 1427.9 445.7 1307.34 453.47 1287.42 678.35 1012.31 588.48 981.31 511.51 978.17 514.43 840.93 796.67 454.29 1087.49 417.45 1113.38"/><polygon class="n" points="1192.24 496.3 1039.62 515.43 1244.9 580.25 1249.51 420.05 1192.24 496.3"/><g class="o"><circle class="b" cx="1238.44" cy="521.64" r="6.89"/></g><path class="b" d="M1266,528a6.4,6.4,0,1,1,6.39-6.39A6.4,6.4,0,0,1,1266,528Z"/><path class="b" d="M1266,515.74a5.9,5.9,0,1,1-5.89,5.9,5.9,5.9,0,0,1,5.89-5.9m0-1a6.9,6.9,0,1,0,6.89,6.9,6.89,6.89,0,0,0-6.89-6.9Z"/><path class="b" d="M1266,597a6.4,6.4,0,1,1,6.39-6.4A6.4,6.4,0,0,1,1266,597Z"/><path class="b" d="M1266,584.66a5.9,5.9,0,1,1-5.89,5.89,5.9,5.9,0,0,1,5.89-5.89m0-1a6.9,6.9,0,1,0,6.89,6.89,6.89,6.89,0,0,0-6.89-6.89Z"/><g class="o"><path class="b" d="M1100.53,500.46a6.39,6.39,0,1,1,6.39-6.39A6.4,6.4,0,0,1,1100.53,500.46Z"/><path class="b" d="M1100.53,488.18a5.89,5.89,0,1,1-5.89,5.89,5.89,5.89,0,0,1,5.89-5.89m0-1a6.89,6.89,0,1,0,6.89,6.89,6.88,6.88,0,0,0-6.89-6.89Z"/></g><g class="p"><circle class="b" cx="1086.74" cy="480.29" r="6.39"/><path class="b" d="M1086.74,474.39a5.9,5.9,0,1,1-5.89,5.9,5.9,5.9,0,0,1,5.89-5.9m0-1a6.9,6.9,0,1,0,6.89,6.9,6.89,6.89,0,0,0-6.89-6.9Z"/></g><g class="p"><path class="b" d="M1045.38,500.46a6.39,6.39,0,1,1,6.39-6.39A6.4,6.4,0,0,1,1045.38,500.46Z"/><path class="b" d="M1045.38,488.18a5.89,5.89,0,1,1-5.89,5.89,5.89,5.89,0,0,1,5.89-5.89m0-1a6.89,6.89,0,1,0,6.89,6.89,6.89,6.89,0,0,0-6.89-6.89Z"/></g><g class="p"><path class="b" d="M1114.32,569.38a6.39,6.39,0,1,1,6.39-6.39A6.4,6.4,0,0,1,1114.32,569.38Z"/><path class="b" d="M1114.32,557.1a5.89,5.89,0,1,1-5.89,5.89,5.89,5.89,0,0,1,5.89-5.89m0-1a6.89,6.89,0,1,0,6.89,6.89,6.89,6.89,0,0,0-6.89-6.89Z"/></g><circle class="b" cx="1252.23" cy="507.85" r="6.39"/><path class="b" d="M1252.23,502a5.89,5.89,0,1,1-5.89,5.89,5.89,5.89,0,0,1,5.89-5.89m0-1a6.89,6.89,0,1,0,6.89,6.89,6.89,6.89,0,0,0-6.89-6.89Z"/><g class="o"><path class="b" d="M1073,500.46a6.39,6.39,0,1,1,6.39-6.39A6.4,6.4,0,0,1,1073,500.46Z"/><path class="b" d="M1073,488.18a5.89,5.89,0,1,1-5.89,5.89,5.89,5.89,0,0,1,5.89-5.89m0-1a6.89,6.89,0,1,0,6.89,6.89,6.88,6.88,0,0,0-6.89-6.89Z"/></g><circle class="b" cx="1045.38" cy="521.64" r="6.39"/><path class="b" d="M1045.38,515.74a5.9,5.9,0,1,1-5.89,5.9,5.9,5.9,0,0,1,5.89-5.9m0-1a6.9,6.9,0,1,0,6.89,6.9,6.9,6.9,0,0,0-6.89-6.9Z"/><path class="b" d="M1086.74,541.81a6.39,6.39,0,1,1,6.39-6.39A6.4,6.4,0,0,1,1086.74,541.81Z"/><path class="b" d="M1086.74,529.53a5.89,5.89,0,1,1-5.89,5.89,5.89,5.89,0,0,1,5.89-5.89m0-1a6.89,6.89,0,1,0,6.89,6.89,6.88,6.88,0,0,0-6.89-6.89Z"/><circle class="b" cx="1128.11" cy="549.2" r="6.39"/><path class="b" d="M1128.11,543.31a5.9,5.9,0,1,1-5.89,5.89,5.9,5.9,0,0,1,5.89-5.89m0-1a6.9,6.9,0,1,0,6.89,6.89,6.9,6.9,0,0,0-6.89-6.89Z"/><circle class="b" cx="1155.69" cy="549.2" r="6.39"/><path class="b" d="M1155.69,543.31a5.9,5.9,0,1,1-5.89,5.89,5.91,5.91,0,0,1,5.89-5.89m0-1a6.9,6.9,0,1,0,6.9,6.89,6.9,6.9,0,0,0-6.9-6.89Z"/><path class="b" d="M1169.48,569.38a6.39,6.39,0,1,1,6.4-6.39A6.4,6.4,0,0,1,1169.48,569.38Z"/><path class="b" d="M1169.48,557.1a5.89,5.89,0,1,1-5.89,5.89,5.9,5.9,0,0,1,5.89-5.89m0-1a6.89,6.89,0,1,0,6.9,6.89,6.89,6.89,0,0,0-6.9-6.89Z"/><path class="b" d="M1197.07,569.38a6.39,6.39,0,1,1,6.39-6.39A6.4,6.4,0,0,1,1197.07,569.38Z"/><path class="b" d="M1197.07,557.1a5.89,5.89,0,1,1-5.9,5.89,5.9,5.9,0,0,1,5.9-5.89m0-1A6.89,6.89,0,1,0,1204,563a6.89,6.89,0,0,0-6.89-6.89Z"/><path class="b" d="M1238.44,583.16a6.39,6.39,0,1,1,6.39-6.39A6.39,6.39,0,0,1,1238.44,583.16Z"/><path class="b" d="M1238.44,570.88a5.89,5.89,0,1,1-5.89,5.89,5.89,5.89,0,0,1,5.89-5.89m0-1a6.89,6.89,0,1,0,6.89,6.89,6.88,6.88,0,0,0-6.89-6.89Z"/><path class="b" d="M1252.23,569.38a6.39,6.39,0,1,1,6.39-6.39A6.4,6.4,0,0,1,1252.23,569.38Z"/><path class="b" d="M1252.23,557.1a5.89,5.89,0,1,1-5.89,5.89,5.89,5.89,0,0,1,5.89-5.89m0-1a6.89,6.89,0,1,0,6.89,6.89,6.88,6.88,0,0,0-6.89-6.89Z"/><path class="b" d="M1252.23,541.81a6.39,6.39,0,1,1,6.39-6.39A6.39,6.39,0,0,1,1252.23,541.81Z"/><path class="b" d="M1252.23,529.53a5.89,5.89,0,1,1-5.89,5.89,5.89,5.89,0,0,1,5.89-5.89m0-1a6.89,6.89,0,1,0,6.89,6.89,6.88,6.88,0,0,0-6.89-6.89Z"/><g class="o"><path class="b" d="M1210.85,445.33a6.4,6.4,0,1,1,5.54-3.2A6.38,6.38,0,0,1,1210.85,445.33Z"/><path class="b" d="M1210.86,433h0a5.84,5.84,0,0,1,2.94.79,5.89,5.89,0,0,1-3,11,5.9,5.9,0,0,1,0-11.79m0-1a6.9,6.9,0,1,0,3.44.93,6.88,6.88,0,0,0-3.44-.93Z"/></g><g class="o"><path class="b" d="M1141.9,486.68a6.39,6.39,0,1,1,5.54-3.2A6.38,6.38,0,0,1,1141.9,486.68Z"/><path class="b" d="M1141.91,474.39h0a6,6,0,0,1,2.94.79,5.91,5.91,0,0,1,2.16,8.05,5.92,5.92,0,0,1-5.11,2.95,5.84,5.84,0,0,1-2.94-.79,5.89,5.89,0,0,1,3-11m0-1a6.89,6.89,0,0,0-3.45,12.86,6.82,6.82,0,0,0,3.44.93,6.9,6.9,0,0,0,0-13.79Z"/></g><path class="b" d="M1114.32,541.81a6.39,6.39,0,1,1,6.39-6.39A6.4,6.4,0,0,1,1114.32,541.81Z"/><path class="b" d="M1114.32,529.53a5.89,5.89,0,1,1-5.89,5.89,5.89,5.89,0,0,1,5.89-5.89m0-1a6.89,6.89,0,1,0,6.89,6.89,6.89,6.89,0,0,0-6.89-6.89Z"/><g class="o"><circle class="b" cx="1100.53" cy="549.2" r="6.39"/><path class="b" d="M1100.53,543.31a5.9,5.9,0,1,1-5.89,5.89,5.9,5.9,0,0,1,5.89-5.89m0-1a6.9,6.9,0,1,0,6.89,6.89,6.89,6.89,0,0,0-6.89-6.89Z"/></g><g class="p"><circle class="b" cx="1128.11" cy="576.77" r="6.39"/><path class="b" d="M1128.11,570.88a5.89,5.89,0,1,1-5.89,5.89,5.89,5.89,0,0,1,5.89-5.89m0-1a6.89,6.89,0,1,0,6.89,6.89,6.89,6.89,0,0,0-6.89-6.89Z"/></g><g class="o"><path class="b" d="M1141.91,569.38a6.39,6.39,0,1,1,6.39-6.39A6.4,6.4,0,0,1,1141.91,569.38Z"/><path class="b" d="M1141.91,557.1A5.89,5.89,0,1,1,1136,563a5.89,5.89,0,0,1,5.9-5.89m0-1a6.89,6.89,0,1,0,6.89,6.89,6.89,6.89,0,0,0-6.89-6.89Z"/></g><g class="q"><circle class="b" cx="1128.11" cy="521.64" r="6.39"/><path class="b" d="M1128.11,515.74a5.9,5.9,0,1,1-5.89,5.9,5.9,5.9,0,0,1,5.89-5.9m0-1a6.9,6.9,0,1,0,6.89,6.9,6.9,6.9,0,0,0-6.89-6.9Z"/><circle class="b" cx="1155.69" cy="521.64" r="6.39"/><path class="b" d="M1155.69,515.74a5.9,5.9,0,1,1-5.89,5.9,5.91,5.91,0,0,1,5.89-5.9m0-1a6.9,6.9,0,1,0,6.9,6.9,6.9,6.9,0,0,0-6.9-6.9Z"/><circle class="b" cx="1072.95" cy="521.64" r="6.89"/><circle class="b" cx="1100.53" cy="521.64" r="6.39"/><path class="b" d="M1100.53,515.74a5.9,5.9,0,1,1-5.89,5.9,5.9,5.9,0,0,1,5.89-5.9m0-1a6.9,6.9,0,1,0,6.89,6.9,6.89,6.89,0,0,0-6.89-6.9Z"/><circle class="b" cx="1183.27" cy="521.64" r="6.39"/><path class="b" d="M1183.27,515.74a5.9,5.9,0,1,1-5.89,5.9,5.91,5.91,0,0,1,5.89-5.9m0-1a6.9,6.9,0,1,0,6.9,6.9,6.9,6.9,0,0,0-6.9-6.9Z"/><circle class="b" cx="1210.86" cy="521.64" r="6.39"/><path class="b" d="M1210.86,515.74a5.9,5.9,0,1,1-5.9,5.9,5.91,5.91,0,0,1,5.9-5.9m0-1a6.9,6.9,0,1,0,6.89,6.9,6.9,6.9,0,0,0-6.89-6.9Z"/><path class="b" d="M1141.9,514.24a6.39,6.39,0,1,1,6.39-6.39A6.4,6.4,0,0,1,1141.9,514.24Z"/><path class="b" d="M1141.9,502a5.89,5.89,0,1,1-5.89,5.89,5.89,5.89,0,0,1,5.89-5.89m0-1a6.89,6.89,0,1,0,6.89,6.89,6.9,6.9,0,0,0-6.89-6.89Z"/><path class="b" d="M1169.48,514.24a6.39,6.39,0,1,1,6.4-6.39A6.4,6.4,0,0,1,1169.48,514.24Z"/><path class="b" d="M1169.48,502a5.89,5.89,0,1,1-5.89,5.89,5.9,5.9,0,0,1,5.89-5.89m0-1a6.89,6.89,0,1,0,6.9,6.89,6.9,6.9,0,0,0-6.9-6.89Z"/><circle class="b" cx="1086.74" cy="507.85" r="6.39"/><path class="b" d="M1086.74,502a5.89,5.89,0,1,1-5.89,5.89,5.89,5.89,0,0,1,5.89-5.89m0-1a6.89,6.89,0,1,0,6.89,6.89,6.89,6.89,0,0,0-6.89-6.89Z"/><circle class="b" cx="1114.32" cy="507.85" r="6.39"/><path class="b" d="M1114.32,502a5.89,5.89,0,1,1-5.89,5.89,5.89,5.89,0,0,1,5.89-5.89m0-1a6.89,6.89,0,1,0,6.89,6.89,6.9,6.9,0,0,0-6.89-6.89Z"/><circle class="b" cx="1059.17" cy="507.85" r="6.39"/><path class="b" d="M1059.17,502a5.89,5.89,0,1,1-5.9,5.89,5.9,5.9,0,0,1,5.9-5.89m0-1a6.89,6.89,0,1,0,6.89,6.89,6.9,6.9,0,0,0-6.89-6.89Z"/><path class="b" d="M1252.22,431.54a6.39,6.39,0,1,1,3.2-11.92,6.39,6.39,0,0,1,2.34,8.73A6.41,6.41,0,0,1,1252.22,431.54Z"/><path class="b" d="M1252.23,419.26h0a5.89,5.89,0,0,1,5.1,8.84,5.9,5.9,0,0,1-8,2.15,5.88,5.88,0,0,1-2.15-8,5.89,5.89,0,0,1,5.1-2.95m0-1a6.89,6.89,0,1,0,3.44.92,6.87,6.87,0,0,0-3.44-.92Z"/><path class="b" d="M1238.43,445.33a6.4,6.4,0,1,1,5.54-3.2A6.38,6.38,0,0,1,1238.43,445.33Z"/><path class="b" d="M1238.44,433h0a5.9,5.9,0,0,1,0,11.79,5.9,5.9,0,0,1,0-11.79m0-1A6.89,6.89,0,0,0,1235,444.9a6.81,6.81,0,0,0,3.43.93,6.9,6.9,0,0,0,0-13.79Z"/><path class="b" d="M1224.64,459.11a6.41,6.41,0,0,1-6.17-4.74,6.39,6.39,0,1,1,6.17,4.74Z"/><path class="b" d="M1224.65,446.83h0a5.89,5.89,0,0,1,5.1,8.83,5.89,5.89,0,0,1-8,2.16,5.91,5.91,0,0,1-2.16-8.05,5.93,5.93,0,0,1,5.11-2.94m0-1a6.89,6.89,0,1,0,3.44.92,6.87,6.87,0,0,0-3.44-.92Z"/><path class="b" d="M1210.85,472.9a6.4,6.4,0,1,1,5.54-3.2A6.38,6.38,0,0,1,1210.85,472.9Z"/><path class="b" d="M1210.86,460.61h0a5.89,5.89,0,0,1,5.1,8.84,5.89,5.89,0,1,1-5.1-8.84m0-1a6.9,6.9,0,1,0,3.44.93,6.88,6.88,0,0,0-3.44-.93Z"/><path class="b" d="M1197.06,486.68a6.39,6.39,0,1,1,5.54-3.2A6.38,6.38,0,0,1,1197.06,486.68Z"/><path class="b" d="M1197.07,474.39h0a5.9,5.9,0,0,1,0,11.79,5.9,5.9,0,0,1,0-11.79m0-1a6.9,6.9,0,1,0,3.44.93,6.88,6.88,0,0,0-3.44-.93Z"/><path class="b" d="M1183.27,500.46a6.39,6.39,0,1,1,5.54-3.19A6.38,6.38,0,0,1,1183.27,500.46Z"/><path class="b" d="M1183.28,488.18h0a5.89,5.89,0,0,1,5.1,8.84,5.93,5.93,0,0,1-5.11,2.94,5.84,5.84,0,0,1-2.94-.79,5.89,5.89,0,0,1,3-11m0-1a6.89,6.89,0,1,0,3.44.92,6.87,6.87,0,0,0-3.44-.92Z"/><path class="b" d="M1155.69,500.46a6.39,6.39,0,1,1,5.54-3.19A6.38,6.38,0,0,1,1155.69,500.46Z"/><path class="b" d="M1155.7,488.18h0a5.9,5.9,0,0,1,5.1,8.84,5.93,5.93,0,0,1-5.11,2.94,5.91,5.91,0,0,1-5.69-4.36,5.89,5.89,0,0,1,5.7-7.42m0-1a6.89,6.89,0,0,0-3.45,12.86,6.9,6.9,0,0,0,9.41-2.52,6.89,6.89,0,0,0-6-10.34Z"/><circle class="b" cx="1252.23" cy="480.29" r="6.39"/><path class="b" d="M1252.23,474.39a5.9,5.9,0,1,1-5.89,5.9,5.9,5.9,0,0,1,5.89-5.9m0-1a6.9,6.9,0,1,0,6.89,6.9,6.89,6.89,0,0,0-6.89-6.9Z"/><circle class="b" cx="1252.23" cy="452.72" r="6.39"/><path class="b" d="M1252.23,446.83a5.89,5.89,0,1,1-5.89,5.89,5.89,5.89,0,0,1,5.89-5.89m0-1a6.89,6.89,0,1,0,6.89,6.89,6.88,6.88,0,0,0-6.89-6.89Z"/><circle class="b" cx="1197.07" cy="507.85" r="6.39"/><path class="b" d="M1197.07,502a5.89,5.89,0,1,1-5.9,5.89,5.9,5.9,0,0,1,5.9-5.89m0-1a6.89,6.89,0,1,0,6.89,6.89,6.9,6.9,0,0,0-6.89-6.89Z"/><circle class="b" cx="1224.65" cy="507.85" r="6.39"/><path class="b" d="M1224.65,502a5.89,5.89,0,1,1-5.9,5.89,5.89,5.89,0,0,1,5.9-5.89m0-1a6.89,6.89,0,1,0,6.89,6.89,6.9,6.9,0,0,0-6.89-6.89Z"/></g><g class="p"><circle class="b" cx="1272.9" cy="441.17" r="6.89"/></g><g class="o"><path class="b" d="M1397,406.21a6.39,6.39,0,1,1,6.39-6.39A6.39,6.39,0,0,1,1397,406.21Z"/><path class="b" d="M1397,393.93a5.89,5.89,0,1,1-5.89,5.89,5.89,5.89,0,0,1,5.89-5.89m0-1a6.89,6.89,0,1,0,6.89,6.89,6.89,6.89,0,0,0-6.89-6.89Z"/></g><g class="p"><circle class="b" cx="1383.23" cy="386.04" r="6.39"/><path class="b" d="M1383.23,380.15a5.89,5.89,0,1,1-5.89,5.89,5.89,5.89,0,0,1,5.89-5.89m0-1a6.89,6.89,0,1,0,6.89,6.89,6.88,6.88,0,0,0-6.89-6.89Z"/></g><g class="o"><circle class="b" cx="1410.81" cy="386.04" r="6.39"/><path class="b" d="M1410.81,380.15a5.89,5.89,0,1,1-5.89,5.89,5.89,5.89,0,0,1,5.89-5.89m0-1a6.89,6.89,0,1,0,6.89,6.89,6.88,6.88,0,0,0-6.89-6.89Z"/></g><g class="p"><path class="b" d="M1259.12,433.78a6.39,6.39,0,1,1,6.39-6.39A6.4,6.4,0,0,1,1259.12,433.78Z"/><path class="b" d="M1259.12,421.5a5.89,5.89,0,1,1-5.89,5.89,5.89,5.89,0,0,1,5.89-5.89m0-1a6.89,6.89,0,1,0,6.89,6.89,6.88,6.88,0,0,0-6.89-6.89Z"/></g><g class="o"><path class="b" d="M1452.17,351.08a6.39,6.39,0,1,1,5.55-3.2A6.38,6.38,0,0,1,1452.17,351.08Z"/><path class="b" d="M1452.19,338.79h0a6,6,0,0,1,2.94.79,5.9,5.9,0,0,1-3,11,5.89,5.89,0,0,1-5.1-8.84,5.92,5.92,0,0,1,5.11-2.95m0-1a6.9,6.9,0,1,0,3.44.93,6.91,6.91,0,0,0-3.44-.93Z"/></g><g class="o"><path class="b" d="M1438.38,364.86a6.39,6.39,0,1,1,5.54-3.19A6.38,6.38,0,0,1,1438.38,364.86Z"/><path class="b" d="M1438.39,352.58h0a5.91,5.91,0,0,1,5.69,4.36,5.89,5.89,0,0,1-5.7,7.42,5.84,5.84,0,0,1-2.94-.79,5.89,5.89,0,0,1,3-11m0-1a6.89,6.89,0,1,0,3.44.92,6.87,6.87,0,0,0-3.44-.92Z"/></g><circle class="b" cx="1452.18" cy="372.25" r="6.39"/><path class="b" d="M1452.18,366.36a5.9,5.9,0,1,1-5.89,5.89,5.9,5.9,0,0,1,5.89-5.89m0-1a6.9,6.9,0,1,0,6.89,6.89,6.9,6.9,0,0,0-6.89-6.89Z"/><g class="o"><path class="b" d="M1637.61,206.16a6.4,6.4,0,1,1,5.54-3.2A6.38,6.38,0,0,1,1637.61,206.16Z"/><path class="b" d="M1637.62,193.87h0a5.84,5.84,0,0,1,2.94.79,5.89,5.89,0,1,1-2.94-.79m0-1a6.89,6.89,0,1,0,3.44.92,6.88,6.88,0,0,0-3.44-.92Z"/></g><circle class="b" cx="1651.41" cy="213.55" r="6.39"/><path class="b" d="M1651.41,207.66a5.89,5.89,0,1,1-5.89,5.89,5.89,5.89,0,0,1,5.89-5.89m0-1a6.89,6.89,0,1,0,6.89,6.89,6.89,6.89,0,0,0-6.89-6.89Z"/><polygon class="r" points="410.25 956.47 305.17 855.53 425.36 700.39 609.16 716.24 634.35 810.72 410.25 956.47"/><circle class="b" cx="592.04" cy="723.36" r="6.89"/><circle class="b" cx="564.5" cy="723.36" r="6.89"/><circle class="b" cx="536.96" cy="723.36" r="6.89"/><circle class="b" cx="509.42" cy="723.36" r="6.89"/><circle class="b" cx="481.88" cy="723.36" r="6.89"/><circle class="b" cx="454.34" cy="723.36" r="6.89"/><circle class="b" cx="426.8" cy="723.36" r="6.89"/><circle class="b" cx="399.26" cy="723.36" r="6.89"/><g class="o"><circle class="b" cx="605.81" cy="709.58" r="6.89"/></g><circle class="b" cx="578.27" cy="709.58" r="6.89"/><circle class="b" cx="550.73" cy="709.58" r="6.89"/><circle class="b" cx="523.19" cy="709.58" r="6.89"/><circle class="b" cx="495.65" cy="709.58" r="6.89"/><circle class="b" cx="468.11" cy="709.58" r="6.89"/><circle class="b" cx="440.57" cy="709.58" r="6.89"/><circle class="b" cx="413.03" cy="709.58" r="6.89"/><circle class="b" cx="426.8" cy="695.79" r="6.89"/><circle class="b" cx="385.48" cy="791.9" r="6.89"/><circle class="b" cx="357.94" cy="791.9" r="6.89"/><circle class="b" cx="330.4" cy="791.9" r="6.89"/><circle class="b" cx="371.71" cy="778.12" r="6.89"/><circle class="b" cx="344.17" cy="778.12" r="6.89"/><g class="o"><circle class="b" cx="330.4" cy="764.33" r="6.89"/></g><g class="o"><circle class="b" cx="302.86" cy="847.03" r="6.89"/></g><g class="o"><circle class="b" cx="289.07" cy="888.38" r="6.89"/></g><g class="o"><circle class="b" cx="316.63" cy="915.95" r="6.89"/></g><g class="o"><circle class="b" cx="371.71" cy="943.52" r="6.89"/></g><g class="p"><circle class="b" cx="357.94" cy="957.3" r="6.89"/></g><g class="o"><circle class="b" cx="509.42" cy="943.52" r="6.89"/></g><g class="p"><circle class="b" cx="495.65" cy="957.3" r="6.89"/></g><g class="o"><circle class="b" cx="619.6" cy="723.36" r="6.89"/></g><g class="o"><circle class="b" cx="633.38" cy="819.47" r="6.89"/></g><g class="o"><circle class="b" cx="647.16" cy="806.06" r="6.89"/></g><g class="p"><circle class="b" cx="660.95" cy="792.28" r="6.89"/></g><g class="p"><circle class="b" cx="633.38" cy="737.14" r="6.89"/></g><g class="o"><circle class="b" cx="481.88" cy="695.79" r="6.89"/></g><g class="o"><circle class="b" cx="509.42" cy="695.79" r="6.89"/></g><g class="o"><circle class="b" cx="344.17" cy="750.55" r="6.89"/></g><g class="o"><circle class="b" cx="399.27" cy="695.79" r="6.89"/></g><g class="o"><circle class="b" cx="413.04" cy="682.01" r="6.89"/></g><g class="p"><circle class="b" cx="330.4" cy="737.14" r="6.89"/></g><g class="p"><circle class="b" cx="399.27" cy="668.22" r="6.89"/></g><g class="p"><circle class="b" cx="495.65" cy="682.01" r="6.89"/></g><g class="p"><circle class="b" cx="619.6" cy="695.79" r="6.89"/></g><circle class="b" cx="357.94" cy="764.33" r="6.89"/><circle class="b" cx="371.71" cy="833.25" r="6.89"/><circle class="b" cx="344.17" cy="833.25" r="6.89"/><circle class="b" cx="316.63" cy="833.25" r="6.89"/><circle class="b" cx="357.94" cy="819.47" r="6.89"/><circle class="b" cx="330.4" cy="819.47" r="6.89"/><circle class="b" cx="330.4" cy="874.6" r="6.89"/><circle class="b" cx="302.86" cy="874.6" r="6.89"/><circle class="b" cx="316.63" cy="860.82" r="6.89"/><circle class="b" cx="357.94" cy="902.17" r="6.89"/><circle class="b" cx="330.4" cy="902.17" r="6.89"/><circle class="b" cx="344.17" cy="888.38" r="6.89"/><circle class="b" cx="385.48" cy="929.74" r="6.89"/><circle class="b" cx="357.94" cy="929.74" r="6.89"/><circle class="b" cx="371.71" cy="915.95" r="6.89"/><circle class="b" cx="413.03" cy="957.3" r="6.89"/><circle class="b" cx="385.49" cy="957.3" r="6.89"/><circle class="b" cx="495.65" cy="929.74" r="6.89"/><circle class="b" cx="399.26" cy="943.52" r="6.89"/><circle class="b" cx="454.35" cy="943.52" r="6.89"/><g class="o"><circle class="b" cx="481.88" cy="943.52" r="6.89"/></g><circle class="b" cx="426.81" cy="943.52" r="6.89"/><circle class="b" cx="440.58" cy="929.74" r="6.89"/><circle class="b" cx="468.1" cy="929.74" r="6.89"/><circle class="b" cx="509.42" cy="915.95" r="6.89"/><g class="p"><circle class="b" cx="564.49" cy="888.38" r="6.89"/></g><g class="o"><circle class="b" cx="536.97" cy="888.38" r="6.89"/></g><circle class="b" cx="481.88" cy="915.95" r="6.89"/><circle class="b" cx="495.65" cy="902.17" r="6.89"/><circle class="b" cx="509.41" cy="888.38" r="6.89"/><circle class="b" cx="550.73" cy="874.6" r="6.89"/><circle class="b" cx="523.19" cy="874.6" r="6.89"/><circle class="b" cx="564.49" cy="860.82" r="6.89"/><circle class="b" cx="605.81" cy="847.03" r="6.89"/><circle class="b" cx="633.38" cy="792.28" r="6.89"/><circle class="b" cx="578.27" cy="847.03" r="6.89"/><circle class="b" cx="592.04" cy="833.25" r="6.89"/><circle class="b" cx="619.6" cy="778.12" r="6.89"/><circle class="b" cx="619.6" cy="750.55" r="6.89"/><g class="o"><circle class="b" cx="729.81" cy="723.17" r="6.89"/></g><g class="o"><circle class="b" cx="743.59" cy="709.76" r="6.89"/></g><g class="p"><circle class="b" cx="757.38" cy="695.98" r="6.89"/></g><g class="p"><circle class="b" cx="660.92" cy="792.09" r="6.89"/></g><circle class="b" cx="660.92" cy="764.52" r="6.89"/><circle class="b" cx="702.24" cy="750.74" r="6.89"/><circle class="b" cx="729.81" cy="695.98" r="6.89"/><circle class="b" cx="674.7" cy="750.74" r="6.89"/><circle class="b" cx="688.47" cy="736.95" r="6.89"/><g class="p"><circle class="b" cx="716.03" cy="681.82" r="6.89"/></g><circle class="b" cx="826.27" cy="654.44" r="6.89"/><circle class="b" cx="840.05" cy="641.03" r="6.89"/><circle class="b" cx="757.38" cy="695.79" r="6.89"/><circle class="b" cx="798.7" cy="682.01" r="6.89"/><circle class="b" cx="826.27" cy="627.25" r="6.89"/><g class="o"><circle class="b" cx="812.48" cy="640.85" r="6.89"/></g><g class="p"><circle class="b" cx="798.7" cy="627.25" r="6.89"/></g><g class="p"><circle class="b" cx="853.84" cy="627.25" r="6.89"/></g><circle class="b" cx="812.48" cy="613.66" r="6.89"/><g class="o"><circle class="b" cx="784.93" cy="668.22" r="6.89"/></g><g class="p"><circle class="b" cx="881.38" cy="516.98" r="6.89"/></g><g class="o"><circle class="b" cx="908.94" cy="489.42" r="6.89"/></g><circle class="b" cx="922.73" cy="476.01" r="6.89"/><circle class="b" cx="908.94" cy="462.23" r="6.89"/><g class="o"><circle class="b" cx="867.61" cy="503.2" r="6.89"/></g><g class="p"><circle class="b" cx="936.51" cy="489.79" r="6.89"/></g><g class="p"><circle class="b" cx="895.16" cy="448.06" r="6.89"/></g><circle class="b" cx="536.96" cy="860.82" r="6.89"/><circle class="b" cx="344.17" cy="805.68" r="6.89"/><polygon class="s" points="1732.74 141.5 1771.08 191.12 1933.15 -173.4 1690.06 -173.4 1690.06 78.86 1732.74 95.93 1732.74 141.5"/><path class="b" d="M1692.76,13.28a6.39,6.39,0,1,1,6.4-6.39A6.4,6.4,0,0,1,1692.76,13.28Z"/><path class="b" d="M1692.76,1a5.9,5.9,0,1,1-5.89,5.89A5.9,5.9,0,0,1,1692.76,1m0-1a6.9,6.9,0,1,0,6.9,6.89,6.9,6.9,0,0,0-6.9-6.89Z"/><path class="b" d="M1692.76,40.86a6.4,6.4,0,1,1,6.4-6.4A6.4,6.4,0,0,1,1692.76,40.86Z"/><path class="b" d="M1692.76,28.57a5.9,5.9,0,1,1-5.89,5.89,5.9,5.9,0,0,1,5.89-5.89m0-1a6.9,6.9,0,1,0,6.9,6.89,6.9,6.9,0,0,0-6.9-6.89Z"/><path class="b" d="M1830.46,68.43a6.4,6.4,0,1,1,6.4-6.4A6.4,6.4,0,0,1,1830.46,68.43Z"/><path class="b" d="M1830.46,56.14a5.9,5.9,0,1,1-5.89,5.89,5.9,5.9,0,0,1,5.89-5.89m0-1a6.9,6.9,0,1,0,6.9,6.89,6.9,6.9,0,0,0-6.9-6.89Z"/><path class="b" d="M1844.25,27.07a6.4,6.4,0,1,1,6.39-6.39A6.4,6.4,0,0,1,1844.25,27.07Z"/><path class="b" d="M1844.25,14.79a5.89,5.89,0,1,1-5.89,5.89,5.89,5.89,0,0,1,5.89-5.89m0-1a6.89,6.89,0,1,0,6.89,6.89,6.88,6.88,0,0,0-6.89-6.89Z"/><path class="b" d="M1858,13.28a6.39,6.39,0,1,1,6.39-6.39A6.4,6.4,0,0,1,1858,13.28Z"/><path class="b" d="M1858,1a5.9,5.9,0,1,1-5.89,5.89A5.89,5.89,0,0,1,1858,1m0-1a6.9,6.9,0,1,0,6.89,6.89A6.9,6.9,0,0,0,1858,0Z"/><path class="b" d="M1816.57,82.21a6.39,6.39,0,1,1,6.4-6.39A6.4,6.4,0,0,1,1816.57,82.21Z"/><path class="b" d="M1816.57,69.93a5.89,5.89,0,1,1-5.89,5.89,5.9,5.9,0,0,1,5.89-5.89m0-1a6.89,6.89,0,1,0,6.9,6.89,6.89,6.89,0,0,0-6.9-6.89Z"/><path class="b" d="M1816.57,109.78a6.39,6.39,0,1,1,6.4-6.39A6.4,6.4,0,0,1,1816.57,109.78Z"/><path class="b" d="M1816.57,97.5a5.89,5.89,0,1,1-5.89,5.89,5.9,5.9,0,0,1,5.89-5.89m0-1a6.89,6.89,0,1,0,6.9,6.89,6.89,6.89,0,0,0-6.9-6.89Z"/><path class="b" d="M1802.79,123.45a6.39,6.39,0,1,1,6.39-6.39A6.4,6.4,0,0,1,1802.79,123.45Z"/><path class="b" d="M1802.79,111.17a5.89,5.89,0,1,1-5.89,5.89,5.89,5.89,0,0,1,5.89-5.89m0-1a6.89,6.89,0,1,0,6.89,6.89,6.89,6.89,0,0,0-6.89-6.89Z"/><path class="b" d="M1789,164.8a6.39,6.39,0,1,1,6.39-6.39A6.4,6.4,0,0,1,1789,164.8Z"/><path class="b" d="M1789,152.52a5.89,5.89,0,1,1-5.9,5.89,5.9,5.9,0,0,1,5.9-5.89m0-1a6.89,6.89,0,1,0,6.89,6.89,6.9,6.9,0,0,0-6.89-6.89Z"/><path class="b" d="M1775.47,178.59a6.4,6.4,0,1,1,6.4-6.39A6.4,6.4,0,0,1,1775.47,178.59Z"/><path class="b" d="M1775.47,166.3a5.9,5.9,0,1,1-5.89,5.9,5.91,5.91,0,0,1,5.89-5.9m0-1a6.9,6.9,0,1,0,6.9,6.9,6.9,6.9,0,0,0-6.9-6.9Z"/><path class="b" d="M1762.59,192.37A6.39,6.39,0,1,1,1769,186,6.4,6.4,0,0,1,1762.59,192.37Z"/><path class="b" d="M1762.59,180.09a5.89,5.89,0,1,1-5.89,5.89,5.89,5.89,0,0,1,5.89-5.89m0-1a6.89,6.89,0,1,0,6.89,6.89,6.88,6.88,0,0,0-6.89-6.89Z"/><g class="o"><path class="b" d="M1776.37,206.16a6.4,6.4,0,1,1,6.39-6.4A6.4,6.4,0,0,1,1776.37,206.16Z"/><path class="b" d="M1776.37,193.87a5.9,5.9,0,1,1-5.89,5.89,5.89,5.89,0,0,1,5.89-5.89m0-1a6.9,6.9,0,1,0,6.89,6.89,6.89,6.89,0,0,0-6.89-6.89Z"/></g><path class="b" d="M1692.76,68.43a6.4,6.4,0,1,1,6.4-6.4A6.4,6.4,0,0,1,1692.76,68.43Z"/><path class="b" d="M1692.76,56.14a5.9,5.9,0,1,1-5.89,5.89,5.9,5.9,0,0,1,5.89-5.89m0-1a6.9,6.9,0,1,0,6.9,6.89,6.9,6.9,0,0,0-6.9-6.89Z"/><g class="o"><path class="b" d="M1679,54.64a6.39,6.39,0,1,1,6.39-6.39A6.4,6.4,0,0,1,1679,54.64Z"/><path class="b" d="M1679,42.36a5.89,5.89,0,1,1-5.89,5.89,5.89,5.89,0,0,1,5.89-5.89m0-1a6.89,6.89,0,1,0,6.89,6.89,6.88,6.88,0,0,0-6.89-6.89Z"/></g><g class="o"><path class="b" d="M1679,82.21a6.39,6.39,0,1,1,6.39-6.39A6.4,6.4,0,0,1,1679,82.21Z"/><path class="b" d="M1679,69.93a5.89,5.89,0,1,1-5.89,5.89,5.89,5.89,0,0,1,5.89-5.89m0-1a6.89,6.89,0,1,0,6.89,6.89,6.88,6.88,0,0,0-6.89-6.89Z"/></g><g class="p"><path class="b" d="M1665.2,68.43a6.4,6.4,0,1,1,6.39-6.4A6.41,6.41,0,0,1,1665.2,68.43Z"/><path class="b" d="M1665.2,56.14a5.9,5.9,0,1,1-5.9,5.89,5.89,5.89,0,0,1,5.9-5.89m0-1a6.9,6.9,0,1,0,6.89,6.89,6.9,6.9,0,0,0-6.89-6.89Z"/></g><g class="o"><path class="b" d="M1706.55,82.21a6.39,6.39,0,1,1,6.39-6.39A6.4,6.4,0,0,1,1706.55,82.21Z"/><path class="b" d="M1706.55,69.93a5.89,5.89,0,1,1-5.89,5.89,5.89,5.89,0,0,1,5.89-5.89m0-1a6.89,6.89,0,1,0,6.89,6.89,6.88,6.88,0,0,0-6.89-6.89Z"/></g><g class="o"><path class="b" d="M1734.11,109.78a6.39,6.39,0,1,1,6.4-6.39A6.4,6.4,0,0,1,1734.11,109.78Z"/><path class="b" d="M1734.11,97.5a5.89,5.89,0,1,1-5.89,5.89,5.9,5.9,0,0,1,5.89-5.89m0-1a6.89,6.89,0,1,0,6.9,6.89,6.89,6.89,0,0,0-6.9-6.89Z"/></g><g class="o"><path class="b" d="M1775.47,123.45a6.39,6.39,0,1,1,6.4-6.39A6.4,6.4,0,0,1,1775.47,123.45Z"/><path class="b" d="M1775.47,111.17a5.89,5.89,0,1,1-5.89,5.89,5.9,5.9,0,0,1,5.89-5.89m0-1a6.89,6.89,0,1,0,6.9,6.89,6.9,6.9,0,0,0-6.9-6.89Z"/></g><g class="o"><path class="b" d="M1761.68,109.78a6.39,6.39,0,1,1,6.39-6.39A6.4,6.4,0,0,1,1761.68,109.78Z"/><path class="b" d="M1761.68,97.5a5.89,5.89,0,1,1-5.89,5.89,5.89,5.89,0,0,1,5.89-5.89m0-1a6.89,6.89,0,1,0,6.89,6.89,6.89,6.89,0,0,0-6.89-6.89Z"/></g><g class="o"><path class="b" d="M1706.55,109.78a6.39,6.39,0,1,1,6.39-6.39A6.4,6.4,0,0,1,1706.55,109.78Z"/><path class="b" d="M1706.55,97.5a5.89,5.89,0,1,1-5.89,5.89,5.89,5.89,0,0,1,5.89-5.89m0-1a6.89,6.89,0,1,0,6.89,6.89,6.88,6.88,0,0,0-6.89-6.89Z"/></g><circle class="b" cx="1720.33" cy="89.6" r="6.39"/><path class="b" d="M1720.33,83.71a5.89,5.89,0,1,1-5.89,5.89,5.89,5.89,0,0,1,5.89-5.89m0-1a6.89,6.89,0,1,0,6.89,6.89,6.89,6.89,0,0,0-6.89-6.89Z"/><path class="b" d="M1734.11,82.21a6.39,6.39,0,1,1,6.4-6.39A6.4,6.4,0,0,1,1734.11,82.21Z"/><path class="b" d="M1734.11,69.93a5.89,5.89,0,1,1-5.89,5.89,5.9,5.9,0,0,1,5.89-5.89m0-1a6.89,6.89,0,1,0,6.9,6.89,6.89,6.89,0,0,0-6.9-6.89Z"/><path class="b" d="M1747.9,123.45a6.39,6.39,0,1,1,6.39-6.39A6.39,6.39,0,0,1,1747.9,123.45Z"/><path class="b" d="M1747.9,111.17a5.89,5.89,0,1,1-5.89,5.89,5.89,5.89,0,0,1,5.89-5.89m0-1a6.89,6.89,0,1,0,6.89,6.89,6.89,6.89,0,0,0-6.89-6.89Z"/><path class="b" d="M1761.68,137.24a6.4,6.4,0,1,1,6.39-6.39A6.4,6.4,0,0,1,1761.68,137.24Z"/><path class="b" d="M1761.68,125a5.9,5.9,0,1,1-5.89,5.9,5.9,5.9,0,0,1,5.89-5.9m0-1a6.9,6.9,0,1,0,6.89,6.9,6.9,6.9,0,0,0-6.89-6.9Z"/><path class="b" d="M1775.47,151a6.39,6.39,0,1,1,6.4-6.39A6.4,6.4,0,0,1,1775.47,151Z"/><path class="b" d="M1775.47,138.74a5.89,5.89,0,1,1-5.89,5.89,5.9,5.9,0,0,1,5.89-5.89m0-1a6.89,6.89,0,1,0,6.9,6.89,6.89,6.89,0,0,0-6.9-6.89Z"/><path class="b" d="M1761.68,164.8a6.39,6.39,0,1,1,6.39-6.39A6.4,6.4,0,0,1,1761.68,164.8Z"/><path class="b" d="M1761.68,152.52a5.89,5.89,0,1,1-5.89,5.89,5.89,5.89,0,0,1,5.89-5.89m0-1a6.89,6.89,0,1,0,6.89,6.89,6.9,6.9,0,0,0-6.89-6.89Z"/><path class="b" d="M1734.11,137.24a6.4,6.4,0,1,1,6.4-6.39A6.4,6.4,0,0,1,1734.11,137.24Z"/><path class="b" d="M1734.11,125a5.9,5.9,0,1,1-5.89,5.9,5.91,5.91,0,0,1,5.89-5.9m0-1a6.9,6.9,0,1,0,6.9,6.9,6.9,6.9,0,0,0-6.9-6.9Z"/><polyline class="t" points="1802.2 301.11 1724.05 177.85 1711.47 150.34 1687.36 139.91 1648.74 298.64 1538.05 294.07 1417.33 423.36 1286.2 431.82 1267.09 647.54 1029.62 569.96 990.12 471.89 959.38 500.54 822.69 781.64 440.78 1068.91 393.7 1102"/></g><path class="b" d="M189.56,467.94c15.37,0,27.88,12,27.88,26.84s-12.51,26.85-27.88,26.85-27.88-12.05-27.88-26.85,12.5-26.84,27.88-26.84m0-2c-16.48,0-29.88,12.94-29.88,28.84s13.4,28.85,29.88,28.85,29.88-12.94,29.88-28.85-13.4-28.84-29.88-28.84Z"/><path class="b" d="M189.56,481a13.78,13.78,0,1,1-13.78,13.78A13.79,13.79,0,0,1,189.56,481m0-5a18.78,18.78,0,1,0,18.78,18.78A18.8,18.8,0,0,0,189.56,476Z"/><circle class="b" cx="189.56" cy="494.78" r="10.81"/><text class="u" transform="translate(157.28 267.75)">The number of base stations located on the <tspan x="0" y="43.2">10-kilometer radius of each region is 2,421 in </tspan><tspan x="0" y="86.4">Sinu</tspan><tspan class="v" x="70.27" y="86.4">i</tspan><tspan x="76.57" y="86.4">ju, 120 in Hyesan and 20 in Rason.</tspan></text><text class="u" transform="translate(157.28 174.24)">각 지역 국경 10km 반경에 위치한 기지국은 <tspan x="0" y="43.2" xml:space="preserve">신의주 2421개, 혜산 120개, 라선 20개이다.  </tspan></text><text class="w" transform="translate(247.08 551.52)">데이터 기반 단순 추정치임</text><text class="x" transform="translate(247.07 520.59)">4,363</text><text class="y" transform="translate(1756.39 940.42)">Source<tspan x="-326.08" y="21.6">OpenGPS </tspan><tspan class="z" x="-242.51" y="21.6">Mobile Phone Base Station search</tspan><tspan x="-343.11" y="43.2">https://www.opengps.cn/Data/Cell/Region.aspx</tspan></text><text class="aa" transform="translate(159.3 409.32)">북중국경 10km 내 위치한 기지국</text><text class="ab" transform="translate(160.05 439.24)">No. of connec<tspan class="ac" x="131.25" y="0">t</tspan><tspan x="139.65" y="0">able </tspan><tspan class="ad" x="189.12" y="0">b</tspan><tspan x="199.89" y="0">ase s</tspan><tspan class="ae" x="250.24" y="0">ta</tspan><tspan class="af" x="268.89" y="0">tion</tspan></text></g></svg>