<svg xmlns="http://www.w3.org/2000/svg" xmlns:xlink="http://www.w3.org/1999/xlink" viewBox="0 0 1920 1080"><defs><style>.a,.ae,.q{fill:none;}.b{clip-path:url(#a);}.c{fill:#d8d8d8;}.d{fill:url(#b);}.e{fill:url(#c);}.f{fill:#070a11;}.g,.h{font-size:72px;}.ab,.g,.h,.j,.k{fill:#1e1e1e;}.g,.j{font-family:KCC-KP-CheonRiMa-Bold-KP-2011KPS, KP CheonRiMa B;}.ab,.af,.h,.k{font-family:Prohibition-Regular, Prohibition;}.i{font-size:22px;font-family:MapoFlowerIsland-KSCpc-EUC-H, MapoFlowerIsland;}.ab,.j,.k{font-size:24px;}.l{letter-spacing:-0.08em;}.ab,.m{letter-spacing:-0.01em;}.n{letter-spacing:-0.15em;}.o{letter-spacing:0em;}.p{letter-spacing:-0.02em;}.q{stroke:#1e1e1e;stroke-width:10px;}.ae,.q{stroke-miterlimit:10;}.r{font-size:18px;fill:#6c6c6c;font-family:MapoGoldenPier-KSCpc-EUC-H, MapoGoldenPier;}.s{letter-spacing:-0.02em;}.t{letter-spacing:-0.02em;}.u{letter-spacing:0em;}.v{letter-spacing:-0.01em;}.w{fill:#fff;}.x{letter-spacing:-0.02em;}.y{fill:url(#d);}.z{fill:url(#e);}.aa{letter-spacing:-0.02em;}.ac{letter-spacing:0em;}.ad{fill:url(#f);}.ae{stroke-width:40px;stroke:url(#g);}.af{font-size:68.75px;fill:#b1b1b1;}.ag{letter-spacing:-0.02em;}.ah{fill:url(#h);}.ai{fill:url(#i);}</style><clipPath id="a"><rect class="a" width="1916.1" height="1080"/></clipPath><linearGradient id="b" x1="831.13" y1="487.2" x2="1450.27" y2="487.2" gradientUnits="userSpaceOnUse"><stop offset="0" stop-color="#bd0d1a"/><stop offset="1" stop-color="#dd4830"/></linearGradient><linearGradient id="c" x1="810.31" y1="666.79" x2="1395.09" y2="666.79" xlink:href="#b"/><linearGradient id="d" x1="1601.32" y1="369.92" x2="1652.94" y2="369.92" gradientUnits="userSpaceOnUse"><stop offset="0" stop-color="#d7a56a"/><stop offset="1" stop-color="#e9d39a"/></linearGradient><linearGradient id="e" x1="1601.32" y1="129.88" x2="1652.94" y2="129.88" xlink:href="#b"/><linearGradient id="f" x1="1601.32" y1="282.45" x2="1652.94" y2="282.45" gradientUnits="userSpaceOnUse"><stop offset="0" stop-color="#073861"/><stop offset="1" stop-color="#1263a4"/></linearGradient><linearGradient id="g" x1="5776.25" y1="-3954.5" x2="5929.18" y2="-3954.5" gradientTransform="matrix(0.37, 0.25, 0.02, 0.42, -971.83, 763.59)" xlink:href="#f"/><linearGradient id="h" x1="1035.85" y1="460.27" x2="1127.53" y2="460.27" xlink:href="#d"/><linearGradient id="i" x1="1110.47" y1="615.64" x2="1186.62" y2="615.64" xlink:href="#d"/></defs><g class="b"><polygon class="c" points="-135.89 -54.59 -135.89 1080 668.2 1080 831.13 671.7 1204.19 459.88 1379.89 530.49 1600.65 -54.59 -135.89 -54.59"/><polygon class="c" points="1395.09 561.87 1432.57 988.98 1379.89 1051.74 1108.31 1086.6 1069.96 1156.33 951.42 1506.74 879.94 1604.36 759.65 1626.44 665.51 1426.55 691.25 1145.87 848.56 683.9 1209.42 499.11 1395.09 561.87"/><polygon class="d" points="1450.27 343.97 1381.88 302.71 1038.64 404.8 831.13 671.7 1204.19 459.88 1379.89 530.49 1450.27 343.97"/><polygon class="e" points="810.31 796.24 1047.15 712.18 1195.24 834.48 1158.87 673.44 1395.09 561.87 1209.42 499.11 848.56 683.9 810.31 796.24"/><polygon points="-84.45 1676.71 193.08 1156.33 691.25 1145.87 848.56 683.9 1209.42 499.11 1395.09 561.87 1732.42 -232.21 1667.68 -232.21 1379.89 530.49 1204.19 459.88 831.13 671.7 660.28 1099.83 165.19 1128.44 -135.89 1676.71 -84.45 1676.71"/></g><rect class="f" x="162.69" y="619.66" width="43.89" height="97.44" transform="translate(-483.74 853.02) rotate(-90)"/><text class="g" transform="translate(127.78 176.31)">혜산</text><text class="h" transform="translate(135.92 257.09)">hyeSan</text><path d="M383,202.32h0c-.8-.07-9.8,0-10.61,0l-.11-.4c0-.11,2-.17,2-1v-12c0-.86-2-.93-2-1l.11-.41c.81.06,3.87.06,4.69,0l.11.41c0,.11-1.85.18-1.87,1v12.28a.28.28,0,0,0,.26.3h5.94c.84,0,1-2.37,1.1-2.37l.51.06C383,199.9,383,201.61,383,202.32Z"/><path d="M384.93,197.89c0-2.83,1.89-5.12,4.73-5.12,2.53,0,4.42,2,4.42,5s-1.85,5-4.69,5C386.77,202.78,384.93,200.84,384.93,197.89Zm8,0c0-2.62-1.41-4.54-3.5-4.54s-3.41,1.87-3.41,4.38,1.36,4.4,3.54,4.4C391.57,202.16,393,200.42,393,197.92Z"/><path d="M400.92,202.8c-3,0-4.84-2-4.75-5a4.89,4.89,0,0,1,5.06-5,4.19,4.19,0,0,1,3,1.16c0,.38-.2,1-.57,1s-.35-.44-.57-.75a2.59,2.59,0,0,0-2-.79c-2.55,0-3.82,2.07-3.8,4.62s1.47,4.2,3.74,4.2a5,5,0,0,0,3.1-1.12l.4.4A5.3,5.3,0,0,1,400.92,202.8Z"/><path d="M414.39,201.94l-.09.44a4.28,4.28,0,0,1-.88.07,1.26,1.26,0,0,1-.73-.22c-.33-.27-.29-.82-.29-1.92l0-3.1a15.63,15.63,0,0,0-3.33.77c-1.21.49-2,1.12-2,2.18A1.76,1.76,0,0,0,409,202a5.07,5.07,0,0,0,2.95-1.18l.15.33a5.36,5.36,0,0,1-3.39,1.56,2.48,2.48,0,0,1-2.61-2.38c0-1.34,1-2.29,2.55-2.86a16,16,0,0,1,3.83-.81v-.71a2.22,2.22,0,0,0-2.23-2.44,3.66,3.66,0,0,0-2.55.93c-.22.3-.35.85-.64.85s-.52-.74-.52-1.12a5.72,5.72,0,0,1,3.71-1.36,3,3,0,0,1,3.22,3.12v.35l0,4.12a3.52,3.52,0,0,0,.11,1.34A1.68,1.68,0,0,0,414.39,201.94Z"/><path d="M422.19,201.7a4.87,4.87,0,0,1-2.79,1.08c-.66,0-1.52-.6-1.52-1.26v-7.87h-1.52v-.46a2.68,2.68,0,0,0,1.5-.73,6.24,6.24,0,0,0,.51-2.18h.52v2.64h2.82v.73h-2.82v7.08c0,.64,0,1.21.73,1.21a5.36,5.36,0,0,0,2.33-.61Z"/><path d="M428.75,192.77A4,4,0,0,1,432.8,197l-7,.83,0-.66,5.63-.7c.18,0,.22-.11.2-.31a3,3,0,0,0-3.06-2.7c-2.2,0-3.43,2-3.41,4.4s1.41,4.35,3.74,4.35A5,5,0,0,0,432,201l.39.4a5.25,5.25,0,0,1-3.58,1.34c-3,0-4.8-2-4.73-5C424.15,194.9,426,192.77,428.75,192.77Z"/><path d="M444.15,201.94l-.09.44a4.28,4.28,0,0,1-.88.07,1.23,1.23,0,0,1-.72-.22c-.33-.27-.29-.82-.29-1.92v-5.14a3.31,3.31,0,0,0-2.73-1.54c-2.2,0-3.56,2.17-3.56,4.37s1.38,3.85,3,3.85a3.1,3.1,0,0,0,2.53-1.16l.22.46a3.58,3.58,0,0,1-3,1.52c-1.91,0-3.87-1.78-3.87-4.78a4.82,4.82,0,0,1,4.57-4.88,4.3,4.3,0,0,1,2.82,1.06v-5.64a.52.52,0,0,0-.53-.57,2.9,2.9,0,0,0-1,.15l-.19-.39,2-1a.85.85,0,0,1,.68.33V200.4a3.34,3.34,0,0,0,.11,1.3A1.62,1.62,0,0,0,444.15,201.94Z"/><path d="M457.33,201.94l-.11.4a27.07,27.07,0,0,0-3.37,0l-.11-.4c0-.11,1.37-.2,1.39-1v-6.36a.52.52,0,0,0-.53-.57,2.87,2.87,0,0,0-1,.15l-.2-.39,2-1a.85.85,0,0,1,.68.33v7.81C456.14,201.74,457.33,201.83,457.33,201.94Zm-3.06-12.32c.07-.46.2-1.06.62-1.25a.85.85,0,1,1,.79,1.51A1.56,1.56,0,0,1,454.27,189.62Z"/><path d="M463.42,201.94l-.11.4a27.07,27.07,0,0,0-3.37,0l-.11-.4c0-.11,1.37-.2,1.39-1v-6.36a.52.52,0,0,0-.53-.57,2.9,2.9,0,0,0-1,.15l-.19-.39,2-1a.83.83,0,0,1,.68.33v7.81C462.23,201.74,463.42,201.83,463.42,201.94Zm7,0-.11.4a25.64,25.64,0,0,0-3.28,0l-.13-.4c0-.11,1.18-.2,1.21-1v-5.08a2.22,2.22,0,0,0-2.38-1.92A3.7,3.7,0,0,0,463,195.3l-.22-.46a4.08,4.08,0,0,1,3.17-1.81,2.91,2.91,0,0,1,3.15,2.77v5.11C469.1,201.74,470.4,201.83,470.4,201.94Z"/><path d="M494,187.9c0,.11-1.93.18-2,1v13.4h-.61l0-.05v.05l-9.31-13v11.6c0,.86,2,.92,2,1l-.11.4c-.81-.07-3.7-.07-4.51,0l-.11-.4c0-.11,1.85-.17,1.87-1V189c0-.84-1.87-.92-1.87-1l0-.44c.71,0,2.05,0,2.73,0l9.07,12.69V188.94c0-.86-1.94-.93-1.94-1l.11-.41c.81.06,3.72.06,4.51,0Z"/><path d="M495.65,197.89c0-2.83,1.89-5.12,4.73-5.12,2.53,0,4.43,2,4.43,5s-1.85,5-4.69,5C497.5,202.78,495.65,200.84,495.65,197.89Zm8,0c0-2.62-1.41-4.54-3.5-4.54s-3.41,1.87-3.41,4.38,1.37,4.4,3.55,4.4C502.3,202.16,503.68,200.42,503.68,197.92Z"/><path d="M510.79,201.94l-.11.4a27.07,27.07,0,0,0-3.37,0l-.11-.4c0-.11,1.36-.2,1.39-1v-6.36a.52.52,0,0,0-.53-.57,2.87,2.87,0,0,0-1,.15l-.2-.39,2-1a.85.85,0,0,1,.69.33v7.81C509.6,201.74,510.79,201.83,510.79,201.94Zm2.4-7.32c-.29,0-.47-.64-.73-.62a6.87,6.87,0,0,0-2.11,1.25l-.16-.44a7.17,7.17,0,0,1,2.29-1.8,1.55,1.55,0,0,1,1.48.37C514,193.69,513.78,194.53,513.19,194.62Z"/><path d="M521.24,201.7a4.93,4.93,0,0,1-2.8,1.08c-.66,0-1.51-.6-1.51-1.26v-7.87h-1.52v-.46a2.66,2.66,0,0,0,1.49-.73,6.24,6.24,0,0,0,.51-2.18h.53v2.64h2.81v.73h-2.81v7.08c0,.64,0,1.21.72,1.21a5.45,5.45,0,0,0,2.34-.61Z"/><path d="M526.91,201.94l-.11.4a26.91,26.91,0,0,0-3.36,0l-.11-.4c0-.11,1.36-.2,1.38-1V188.43a.52.52,0,0,0-.53-.57,2.82,2.82,0,0,0-1,.15l-.2-.39,2-1a.83.83,0,0,1,.68.33v13.93C525.72,201.74,526.91,201.83,526.91,201.94Zm7,0-.11.4a25.64,25.64,0,0,0-3.28,0l-.13-.4c0-.11,1.19-.2,1.21-1v-5.08a2.21,2.21,0,0,0-2.38-1.92,3.72,3.72,0,0,0-2.73,1.39l-.22-.46a4.08,4.08,0,0,1,3.17-1.81,2.91,2.91,0,0,1,3.15,2.77v5.11C532.59,201.74,533.89,201.83,533.89,201.94Z"/><path d="M556.22,201.9l-.11.42c-.71,0-2.31,0-3,0l-5.68-6.9.09-.38a8.66,8.66,0,0,0,1,0c2.33-.11,4-1.23,4-3.32s-1.54-3.54-3.83-3.54a10.68,10.68,0,0,0-2.77.28v12.48c0,.86,2,.92,2,1l-.13.4c-.8-.07-4-.07-4.76,0l-.13-.4c0-.11,2-.17,2-1V189.07c0-.86-2-1.06-2-1.17l0-.41c.7.06,2.31.11,2.92.08s2.07-.08,3.19-.08c2.69,0,4.6,1.6,4.58,4.09s-2.14,3.87-4.82,4l4.47,5.28C554,201.72,556.22,201.79,556.22,201.9Z"/><path d="M566.87,193.38c0,.11-1,.2-1.39,1h0l-5.59,11.81a9.86,9.86,0,0,1-.7,1.19,2.14,2.14,0,0,1-1.52.88,1.12,1.12,0,0,1-.68-.22,1.46,1.46,0,0,1-.14-1.08c.09-.24.42-.06.62.05.4.22.73.33,1,.11a4,4,0,0,0,.64-.93l2.2-4.62L558,194.4c-.44-.82-1.34-.91-1.34-1l.11-.39a23.06,23.06,0,0,0,2.88,0l.13.39c0,.11-1.14.22-.79,1l2.77,6.11,3-6.2c.2-.71-.9-.82-.9-.93l.11-.39a22.11,22.11,0,0,0,2.82,0Z"/><path d="M576.52,201.94l-.08.44a4.28,4.28,0,0,1-.88.07,1.26,1.26,0,0,1-.73-.22c-.33-.27-.29-.82-.29-1.92l0-3.1a15.63,15.63,0,0,0-3.33.77c-1.21.49-2,1.12-2,2.18a1.76,1.76,0,0,0,1.83,1.8,5.07,5.07,0,0,0,2.95-1.18l.15.33a5.36,5.36,0,0,1-3.39,1.56,2.49,2.49,0,0,1-2.62-2.38c0-1.34,1-2.29,2.56-2.86a16,16,0,0,1,3.83-.81v-.71a2.22,2.22,0,0,0-2.23-2.44,3.66,3.66,0,0,0-2.55.93c-.22.3-.35.85-.64.85s-.52-.74-.52-1.12a5.72,5.72,0,0,1,3.71-1.36,3,3,0,0,1,3.22,3.12v.35l0,4.12a3.52,3.52,0,0,0,.11,1.34A1.67,1.67,0,0,0,576.52,201.94Z"/><path d="M582.4,201.94l-.11.4a27.07,27.07,0,0,0-3.37,0l-.11-.4c0-.11,1.36-.2,1.39-1v-6.36a.52.52,0,0,0-.53-.57,2.87,2.87,0,0,0-1,.15l-.2-.39,2-1a.85.85,0,0,1,.69.33v7.81C581.21,201.74,582.4,201.83,582.4,201.94Zm7,0-.11.4a25.49,25.49,0,0,0-3.27,0l-.14-.4c0-.11,1.19-.2,1.21-1v-5.08a2.21,2.21,0,0,0-2.37-1.92A3.7,3.7,0,0,0,582,195.3l-.22-.46a4.08,4.08,0,0,1,3.17-1.81,2.9,2.9,0,0,1,3.14,2.77v5.11C588.08,201.74,589.37,201.83,589.37,201.94Z"/><path d="M599.91,203.28c0,2.27-3.3,3.31-5.63,3.26-1.79,0-3.3-1.32-3-2a6.06,6.06,0,0,1,2.26-2.29l.31.11a6,6,0,0,0-1.43,1.89c-.31.68,1,1.65,2.57,1.65,1.81,0,4-.73,4-2.31a1.58,1.58,0,0,0-1.15-1.43,34.65,34.65,0,0,0-4.46-.22c-.8-.09-1.59-1.08-1.39-1.45a5.84,5.84,0,0,1,1.36-1.37l.31.2c-.26.37-.55.77-.72,1.08s-.09.55.61.66c.88.13,3,0,4.36.15A2.06,2.06,0,0,1,599.91,203.28Zm-8-7.41a3.41,3.41,0,0,1,3.65-3.19,3.28,3.28,0,0,1,1.45.33l0,0a2,2,0,0,0,.37.11c.35,0,1.94.06,2.46.09l0,.5c-.24,0-.88,0-1.12,0s-.62.11-.49.27l0,0a3.19,3.19,0,0,1,.64,2,3.34,3.34,0,0,1-3.59,3.13A3.14,3.14,0,0,1,592,195.87Zm1.1.07a2.41,2.41,0,0,0,2.42,2.61,2.33,2.33,0,0,0,2.24-2.61,2.49,2.49,0,0,0-2.4-2.69A2.39,2.39,0,0,0,593.05,195.94Z"/><path d="M610.45,203.28c0,2.27-3.3,3.31-5.63,3.26-1.79,0-3.3-1.32-3-2a6.08,6.08,0,0,1,2.27-2.29l.31.11a6,6,0,0,0-1.43,1.89c-.31.68,1,1.65,2.57,1.65,1.81,0,4-.73,4-2.31a1.56,1.56,0,0,0-1.14-1.43,34.71,34.71,0,0,0-4.47-.22c-.79-.09-1.58-1.08-1.38-1.45a5.84,5.84,0,0,1,1.36-1.37l.31.2c-.26.37-.55.77-.73,1.08s-.08.55.62.66c.88.13,3,0,4.36.15A2.06,2.06,0,0,1,610.45,203.28Zm-8-7.41a3.42,3.42,0,0,1,3.66-3.19,3.28,3.28,0,0,1,1.45.33l-.05,0a2.11,2.11,0,0,0,.38.11c.35,0,1.93.06,2.46.09l0,.5c-.24,0-.88,0-1.12,0s-.62.11-.49.27l0,0a3.19,3.19,0,0,1,.64,2,3.34,3.34,0,0,1-3.59,3.13A3.16,3.16,0,0,1,602.48,195.87Zm1.1.07a2.42,2.42,0,0,0,2.42,2.61,2.33,2.33,0,0,0,2.25-2.61,2.49,2.49,0,0,0-2.4-2.69A2.41,2.41,0,0,0,603.58,195.94Z"/><path d="M620.55,201.94l-.09.44a4.28,4.28,0,0,1-.88.07,1.26,1.26,0,0,1-.73-.22c-.33-.27-.28-.82-.28-1.92l0-3.1a15.39,15.39,0,0,0-3.32.77c-1.21.49-2,1.12-2,2.18a1.76,1.76,0,0,0,1.82,1.8,5,5,0,0,0,2.95-1.18l.15.33a5.33,5.33,0,0,1-3.38,1.56,2.48,2.48,0,0,1-2.62-2.38c0-1.34,1-2.29,2.55-2.86a16,16,0,0,1,3.83-.81v-.71a2.21,2.21,0,0,0-2.22-2.44,3.67,3.67,0,0,0-2.56.93c-.22.3-.35.85-.63.85s-.53-.74-.53-1.12a5.74,5.74,0,0,1,3.72-1.36,3,3,0,0,1,3.21,3.12v.35l0,4.12a3.32,3.32,0,0,0,.11,1.34A1.62,1.62,0,0,0,620.55,201.94Z"/><path d="M626.42,201.94l-.11.4a27.07,27.07,0,0,0-3.37,0l-.11-.4c0-.11,1.37-.2,1.39-1v-6.36a.52.52,0,0,0-.53-.57,2.9,2.9,0,0,0-1,.15l-.19-.39,2-1a.85.85,0,0,1,.68.33v7.81C625.23,201.74,626.42,201.83,626.42,201.94Zm7,0-.11.4a25.64,25.64,0,0,0-3.28,0l-.14-.4c0-.11,1.19-.2,1.21-1v-5.08a2.21,2.21,0,0,0-2.37-1.92A3.7,3.7,0,0,0,626,195.3l-.22-.46a4.08,4.08,0,0,1,3.17-1.81,2.91,2.91,0,0,1,3.15,2.77v5.11C632.1,201.74,633.4,201.83,633.4,201.94Z"/><path d="M643.93,203.28c0,2.27-3.3,3.31-5.63,3.26-1.78,0-3.3-1.32-3-2a6,6,0,0,1,2.27-2.29l.3.11a6,6,0,0,0-1.43,1.89c-.31.68,1,1.65,2.58,1.65,1.8,0,4-.73,4-2.31a1.56,1.56,0,0,0-1.15-1.43,34.56,34.56,0,0,0-4.46-.22c-.79-.09-1.59-1.08-1.39-1.45a5.71,5.71,0,0,1,1.37-1.37l.3.2c-.26.37-.55.77-.72,1.08s-.09.55.62.66c.87.13,3,0,4.35.15A2,2,0,0,1,643.93,203.28Zm-8-7.41a3.41,3.41,0,0,1,3.65-3.19,3.25,3.25,0,0,1,1.45.33l0,0a2,2,0,0,0,.37.11c.35,0,1.94.06,2.47.09l0,.5c-.24,0-.88,0-1.12,0s-.62.11-.48.27l0,0a3.19,3.19,0,0,1,.64,2,3.33,3.33,0,0,1-3.58,3.13A3.15,3.15,0,0,1,636,195.87Zm1.1.07a2.41,2.41,0,0,0,2.42,2.61,2.33,2.33,0,0,0,2.24-2.61,2.49,2.49,0,0,0-2.4-2.69A2.39,2.39,0,0,0,637.07,195.94Z"/><path d="M664.39,191.82c0,2.86-2.44,4.4-5.43,4.4a7.14,7.14,0,0,1-1.83-.17l.24-.53a10,10,0,0,0,1.39,0c2.51-.09,4.51-1.19,4.53-3.69s-1.82-3.7-4.48-3.7a9,9,0,0,0-2.67.31v12.43c0,.86,2.09.92,2.09,1l-.13.4c-.79-.07-4.07-.07-4.86,0l-.13-.4c0-.11,2-.17,2-1V189.07c0-.86-2-1.06-2-1.17l0-.41c.7.06,2.31.11,2.93.08.46,0,1.95-.08,3.08-.08C662.24,187.49,664.41,188.94,664.39,191.82Z"/><path d="M670.27,201.94l-.11.4a27.07,27.07,0,0,0-3.37,0l-.11-.4c0-.11,1.36-.2,1.39-1v-6.36a.52.52,0,0,0-.53-.57,2.87,2.87,0,0,0-1,.15l-.2-.39,2-1a.85.85,0,0,1,.69.33v7.81C669.08,201.74,670.27,201.83,670.27,201.94Zm2.39-7.32c-.28,0-.46-.64-.72-.62a6.87,6.87,0,0,0-2.11,1.25l-.16-.44A7.17,7.17,0,0,1,672,193a1.52,1.52,0,0,1,1.47.37C673.52,193.69,673.26,194.53,672.66,194.62Z"/><path d="M675,197.89a4.8,4.8,0,0,1,4.74-5.12c2.53,0,4.42,2,4.42,5s-1.85,5-4.69,5C676.84,202.78,675,200.84,675,197.89Zm8,0c0-2.62-1.41-4.54-3.5-4.54s-3.41,1.87-3.41,4.38,1.36,4.4,3.54,4.4C681.64,202.16,683,200.42,683,197.92Z"/><path d="M696.34,193.38c0,.11-1,.18-1.54,1l-3.41,8.23h-.66l-3.61-8.23c-.51-.77-1.54-.84-1.54-1l.13-.39a31.57,31.57,0,0,0,3.37,0l.1.39c0,.11-1.23.2-1,.88l3.12,7.18,2.84-7.13c.2-.71-1-.82-1-.93l.11-.39a23.59,23.59,0,0,0,3,0Z"/><path d="M701.77,201.94l-.11.4a27.07,27.07,0,0,0-3.37,0l-.11-.4c0-.11,1.37-.2,1.39-1v-6.36A.52.52,0,0,0,699,194a2.87,2.87,0,0,0-1,.15l-.2-.39,2-1a.85.85,0,0,1,.68.33v7.81C700.58,201.74,701.77,201.83,701.77,201.94Zm-3.06-12.32c.07-.46.2-1.06.62-1.25a.85.85,0,1,1,.79,1.51A1.56,1.56,0,0,1,698.71,189.62Z"/><path d="M707.86,201.94l-.11.4a26.91,26.91,0,0,0-3.36,0l-.11-.4c0-.11,1.36-.2,1.38-1v-6.36a.52.52,0,0,0-.53-.57,2.82,2.82,0,0,0-1,.15l-.2-.39,2-1a.83.83,0,0,1,.68.33v7.81C706.67,201.74,707.86,201.83,707.86,201.94Zm7,0-.11.4a25.64,25.64,0,0,0-3.28,0l-.13-.4c0-.11,1.18-.2,1.21-1v-5.08a2.21,2.21,0,0,0-2.38-1.92,3.72,3.72,0,0,0-2.73,1.39l-.22-.46a4.08,4.08,0,0,1,3.17-1.81,2.91,2.91,0,0,1,3.15,2.77v5.11C713.54,201.74,714.84,201.83,714.84,201.94Z"/><path d="M721.46,202.8c-3,0-4.84-2-4.75-5a4.88,4.88,0,0,1,5.06-5,4.19,4.19,0,0,1,3,1.16c0,.38-.2,1-.57,1s-.36-.44-.57-.75a2.59,2.59,0,0,0-2-.79c-2.55,0-3.83,2.07-3.8,4.62s1.47,4.2,3.74,4.2a5,5,0,0,0,3.1-1.12l.4.4A5.3,5.3,0,0,1,721.46,202.8Z"/><path d="M731.47,192.77a4,4,0,0,1,4,4.18l-7,.83,0-.66,5.63-.7c.18,0,.22-.11.2-.31a3,3,0,0,0-3.06-2.7c-2.2,0-3.43,2-3.41,4.4s1.41,4.35,3.74,4.35a5,5,0,0,0,3.11-1.12l.39.4a5.25,5.25,0,0,1-3.58,1.34c-3,0-4.8-2-4.73-5C726.87,194.9,728.7,192.77,731.47,192.77Z"/><path d="M738.51,201.44a.92.92,0,0,1,1.16-.31c.75.35.66,1.34.49,2a4,4,0,0,1-1.25,2.14l-.25-.2c.49-.48,1-2.05.6-2.29a1,1,0,0,1-.71-.35A.92.92,0,0,1,738.51,201.44Z"/><path d="M376.85,229.2c-3,0-4.84-2-4.75-5a4.89,4.89,0,0,1,5.06-5,4.19,4.19,0,0,1,3,1.16c0,.38-.19,1-.57,1s-.35-.44-.57-.75a2.59,2.59,0,0,0-2-.79c-2.56,0-3.83,2.07-3.81,4.62s1.47,4.2,3.74,4.2a5,5,0,0,0,3.1-1.12l.4.4A5.3,5.3,0,0,1,376.85,229.2Z"/><path d="M382.2,224.29c0-2.83,1.89-5.12,4.73-5.12,2.53,0,4.42,2,4.42,5s-1.85,5-4.69,5C384.05,229.18,382.2,227.24,382.2,224.29Zm8,0c0-2.62-1.41-4.54-3.5-4.54s-3.41,1.87-3.41,4.38,1.36,4.4,3.54,4.4C388.84,228.56,390.23,226.82,390.23,224.32Z"/><path d="M397.33,228.34l-.11.4a26.91,26.91,0,0,0-3.36,0l-.11-.4c0-.11,1.36-.2,1.38-1V221a.51.51,0,0,0-.52-.57,2.84,2.84,0,0,0-1,.15l-.2-.39,2-1a.83.83,0,0,1,.68.33v7.81C396.15,228.14,397.33,228.23,397.33,228.34Zm7,0-.11.4a25.64,25.64,0,0,0-3.28,0l-.13-.4c0-.11,1.19-.2,1.21-1v-5.08a2.21,2.21,0,0,0-2.38-1.92,3.72,3.72,0,0,0-2.73,1.39l-.22-.46a4.08,4.08,0,0,1,3.17-1.81A2.91,2.91,0,0,1,403,222.2v5.11C403,228.14,404.31,228.23,404.31,228.34Z"/><path d="M410.07,228.34l-.11.4a26.91,26.91,0,0,0-3.36,0l-.11-.4c0-.11,1.36-.2,1.38-1V221a.52.52,0,0,0-.53-.57,2.82,2.82,0,0,0-1,.15l-.2-.39,2-1a.83.83,0,0,1,.68.33v7.81C408.88,228.14,410.07,228.23,410.07,228.34Zm7,0-.11.4a25.64,25.64,0,0,0-3.28,0l-.13-.4c0-.11,1.19-.2,1.21-1v-5.08a2.21,2.21,0,0,0-2.38-1.92,3.72,3.72,0,0,0-2.73,1.39l-.22-.46a4.08,4.08,0,0,1,3.17-1.81,2.91,2.91,0,0,1,3.15,2.77v5.11C415.75,228.14,417.05,228.23,417.05,228.34Z"/><path d="M423.69,219.17a4,4,0,0,1,4.05,4.18l-7,.83,0-.66,5.64-.7c.17,0,.22-.11.19-.31a3,3,0,0,0-3.06-2.7c-2.2,0-3.43,2-3.41,4.4s1.41,4.35,3.75,4.35a5,5,0,0,0,3.1-1.12l.39.4a5.25,5.25,0,0,1-3.58,1.34c-3,0-4.8-2-4.73-5C419.09,221.3,420.92,219.17,423.69,219.17Z"/><path d="M434.36,229.2c-3,0-4.84-2-4.75-5a4.89,4.89,0,0,1,5.06-5,4.19,4.19,0,0,1,3,1.16c0,.38-.2,1-.57,1s-.35-.44-.57-.75a2.59,2.59,0,0,0-2-.79c-2.55,0-3.82,2.07-3.8,4.62s1.47,4.2,3.74,4.2a5,5,0,0,0,3.1-1.12l.4.4A5.3,5.3,0,0,1,434.36,229.2Z"/><path d="M445.43,228.1a4.93,4.93,0,0,1-2.8,1.08c-.66,0-1.52-.6-1.52-1.26v-7.87H439.6v-.46a2.69,2.69,0,0,0,1.49-.73,6.24,6.24,0,0,0,.51-2.18h.53v2.64h2.81v.73h-2.81v7.08c0,.64,0,1.21.72,1.21a5.36,5.36,0,0,0,2.33-.61Z"/><path d="M452,219.17a4,4,0,0,1,4,4.18l-7,.83,0-.66,5.64-.7c.17,0,.22-.11.2-.31a3,3,0,0,0-3.06-2.7c-2.2,0-3.44,2-3.41,4.4s1.41,4.35,3.74,4.35a5,5,0,0,0,3.1-1.12l.4.4a5.3,5.3,0,0,1-3.59,1.34c-3,0-4.8-2-4.73-5C447.38,221.3,449.21,219.17,452,219.17Z"/><path d="M467.38,228.34l-.08.44a4.39,4.39,0,0,1-.89.07,1.23,1.23,0,0,1-.72-.22c-.33-.27-.29-.82-.29-1.92v-5.14a3.29,3.29,0,0,0-2.73-1.54c-2.2,0-3.56,2.17-3.56,4.37s1.39,3.85,3,3.85a3.08,3.08,0,0,0,2.53-1.16l.22.46a3.58,3.58,0,0,1-3,1.52c-1.91,0-3.87-1.78-3.87-4.78a4.82,4.82,0,0,1,4.58-4.88,4.29,4.29,0,0,1,2.81,1.06v-5.64a.51.51,0,0,0-.53-.57,2.82,2.82,0,0,0-1,.15l-.2-.39,2-1a.83.83,0,0,1,.68.33V226.8a3.34,3.34,0,0,0,.11,1.3A1.64,1.64,0,0,0,467.38,228.34Z"/><path d="M482.28,228.1a4.93,4.93,0,0,1-2.8,1.08c-.66,0-1.52-.6-1.52-1.26v-7.87h-1.51v-.46a2.69,2.69,0,0,0,1.49-.73,6.24,6.24,0,0,0,.51-2.18H479v2.64h2.81v.73H479v7.08c0,.64,0,1.21.72,1.21a5.36,5.36,0,0,0,2.33-.61Z"/><path d="M484.17,224.29c0-2.83,1.89-5.12,4.73-5.12,2.53,0,4.42,2,4.42,5s-1.85,5-4.69,5C486,229.18,484.17,227.24,484.17,224.29Zm8,0c0-2.62-1.41-4.54-3.5-4.54s-3.41,1.87-3.41,4.38,1.36,4.4,3.54,4.4C490.81,228.56,492.2,226.82,492.2,224.32Z"/><path d="M502.71,221.63c0-5.72,3.61-8.07,6.91-8.07a5.29,5.29,0,0,1,3.81,1.45c.37.39.48-1.15.59-1.15l.6.07c0,.77,0,3,0,3.81l-.71.06c-.11,0-.2-.77-.64-1.6-.61-1.17-1.85-1.87-3.87-1.87-2.46,0-5.52,1.8-5.52,7.08,0,4.71,2.86,6.89,5.59,6.89a6.06,6.06,0,0,0,4.84-2.38l.55.44a6.48,6.48,0,0,1-5.64,2.82C506.12,229.18,502.71,226.82,502.71,221.63Z"/><path d="M520.71,228.34l-.11.4a27.07,27.07,0,0,0-3.37,0l-.11-.4c0-.11,1.37-.2,1.39-1V214.83a.52.52,0,0,0-.53-.57,2.87,2.87,0,0,0-1,.15l-.2-.39,2-1a.85.85,0,0,1,.68.33v13.93C519.52,228.14,520.71,228.23,520.71,228.34Zm7,0-.11.4a25.49,25.49,0,0,0-3.27,0l-.14-.4c0-.11,1.19-.2,1.21-1v-5.08a2.21,2.21,0,0,0-2.37-1.92,3.7,3.7,0,0,0-2.73,1.39l-.22-.46a4.08,4.08,0,0,1,3.17-1.81,2.9,2.9,0,0,1,3.14,2.77v5.11C526.39,228.14,527.68,228.23,527.68,228.34Z"/><path d="M537.78,228.34l-.09.44a4.22,4.22,0,0,1-.88.07,1.23,1.23,0,0,1-.72-.22c-.33-.27-.29-.82-.29-1.92l0-3.1a15.68,15.68,0,0,0-3.32.77c-1.21.49-2,1.12-2,2.18a1.76,1.76,0,0,0,1.83,1.8,5.1,5.1,0,0,0,2.95-1.18l.15.33a5.38,5.38,0,0,1-3.39,1.56,2.48,2.48,0,0,1-2.62-2.38c0-1.34,1-2.29,2.56-2.86a16,16,0,0,1,3.82-.81v-.71a2.21,2.21,0,0,0-2.22-2.44,3.64,3.64,0,0,0-2.55.93c-.22.3-.35.85-.64.85s-.53-.74-.53-1.12a5.76,5.76,0,0,1,3.72-1.36,3,3,0,0,1,3.21,3.12v.35l0,4.12a3.52,3.52,0,0,0,.11,1.34A1.62,1.62,0,0,0,537.78,228.34Z"/><path d="M543.66,228.34l-.11.4a27.07,27.07,0,0,0-3.37,0l-.11-.4c0-.11,1.36-.2,1.39-1V221a.52.52,0,0,0-.53-.57,2.84,2.84,0,0,0-1,.15l-.2-.39,2-1a.85.85,0,0,1,.69.33v7.81C542.47,228.14,543.66,228.23,543.66,228.34Zm7,0-.11.4a25.64,25.64,0,0,0-3.28,0l-.13-.4c0-.11,1.19-.2,1.21-1v-5.08a2.21,2.21,0,0,0-2.38-1.92,3.7,3.7,0,0,0-2.72,1.39l-.22-.46a4,4,0,0,1,3.16-1.81,2.91,2.91,0,0,1,3.15,2.77v5.11C549.33,228.14,550.63,228.23,550.63,228.34Z"/><path d="M561.17,229.68c0,2.27-3.3,3.31-5.63,3.26-1.79,0-3.3-1.32-3-2a6.08,6.08,0,0,1,2.27-2.29l.31.11a6,6,0,0,0-1.43,1.89c-.31.68,1,1.65,2.57,1.65,1.81,0,4-.73,4-2.31a1.56,1.56,0,0,0-1.14-1.43,34.71,34.71,0,0,0-4.47-.22c-.79-.09-1.58-1.08-1.38-1.45a5.84,5.84,0,0,1,1.36-1.37l.31.2c-.26.37-.55.77-.73,1.08s-.08.55.62.66c.88.13,3,0,4.36.15A2.06,2.06,0,0,1,561.17,229.68Zm-8-7.41a3.42,3.42,0,0,1,3.66-3.19,3.28,3.28,0,0,1,1.45.33l0,0a1.9,1.9,0,0,0,.38.11c.35,0,1.93.06,2.46.09l0,.5c-.24,0-.88,0-1.12,0s-.62.11-.49.27l0,0a3.19,3.19,0,0,1,.64,2,3.34,3.34,0,0,1-3.59,3.13A3.16,3.16,0,0,1,553.2,222.27Zm1.1.07a2.42,2.42,0,0,0,2.42,2.61,2.33,2.33,0,0,0,2.25-2.61,2.49,2.49,0,0,0-2.4-2.69A2.41,2.41,0,0,0,554.3,222.34Z"/><path d="M573.11,224.4a4.91,4.91,0,0,1-4.92,4.78,8,8,0,0,1-2.47-.44l-1-.33V214.83c0-.46-.2-.55-.42-.57a3.42,3.42,0,0,0-1.07.15l-.2-.33a13.55,13.55,0,0,1,2-1,.83.83,0,0,1,.68.33v14a3.59,3.59,0,0,0,2.88,1.16c1.87,0,3.41-1.87,3.41-4.24s-1.38-4-3-4a3.33,3.33,0,0,0-2.53,1.27l-.22-.46a3.61,3.61,0,0,1,3-1.63C571.16,219.45,573.16,221.35,573.11,224.4Z"/><path d="M583.43,228.34l-.09.44a4.22,4.22,0,0,1-.88.07,1.23,1.23,0,0,1-.72-.22c-.33-.27-.29-.82-.29-1.92l0-3.1a15.68,15.68,0,0,0-3.32.77c-1.21.49-2,1.12-2,2.18a1.76,1.76,0,0,0,1.83,1.8,5.1,5.1,0,0,0,3-1.18l.15.33a5.38,5.38,0,0,1-3.39,1.56,2.48,2.48,0,0,1-2.62-2.38c0-1.34,1-2.29,2.56-2.86a16,16,0,0,1,3.82-.81v-.71a2.21,2.21,0,0,0-2.22-2.44,3.64,3.64,0,0,0-2.55.93c-.22.3-.35.85-.64.85s-.53-.74-.53-1.12a5.76,5.76,0,0,1,3.72-1.36,3,3,0,0,1,3.21,3.12v.35l0,4.12a3.52,3.52,0,0,0,.11,1.34A1.62,1.62,0,0,0,583.43,228.34Z"/><path d="M589.53,228.34l-.11.4a27.07,27.07,0,0,0-3.37,0l-.11-.4c0-.11,1.36-.2,1.39-1V221a.52.52,0,0,0-.53-.57,2.87,2.87,0,0,0-1,.15l-.2-.39,2-1a.85.85,0,0,1,.69.33v7.81C588.34,228.14,589.53,228.23,589.53,228.34ZM586.47,216c.06-.46.19-1.06.61-1.25a.89.89,0,0,1,1.17.37.87.87,0,0,1-.37,1.14A1.55,1.55,0,0,1,586.47,216Z"/><path d="M604.64,228.1a4.93,4.93,0,0,1-2.8,1.08c-.66,0-1.51-.6-1.51-1.26v-7.87h-1.52v-.46a2.71,2.71,0,0,0,1.5-.73,6.49,6.49,0,0,0,.5-2.18h.53v2.64h2.82v.73h-2.82v7.08c0,.64,0,1.21.73,1.21a5.4,5.4,0,0,0,2.33-.61Z"/><path d="M610.32,228.34l-.11.4a27.07,27.07,0,0,0-3.37,0l-.11-.4c0-.11,1.36-.2,1.39-1V214.83a.52.52,0,0,0-.53-.57,2.84,2.84,0,0,0-1,.15l-.2-.39,2-1a.85.85,0,0,1,.69.33v13.93C609.13,228.14,610.32,228.23,610.32,228.34Zm7,0-.11.4a25.64,25.64,0,0,0-3.28,0l-.13-.4c0-.11,1.19-.2,1.21-1v-5.08a2.21,2.21,0,0,0-2.38-1.92,3.7,3.7,0,0,0-2.72,1.39l-.22-.46a4,4,0,0,1,3.17-1.81A2.91,2.91,0,0,1,616,222.2v5.11C616,228.14,617.29,228.23,617.29,228.34Z"/><path d="M623.05,228.34l-.11.4a26.91,26.91,0,0,0-3.36,0l-.11-.4c0-.11,1.36-.2,1.38-1V221a.51.51,0,0,0-.52-.57,2.84,2.84,0,0,0-1,.15l-.2-.39,2-1a.83.83,0,0,1,.68.33v7.81C621.87,228.14,623.05,228.23,623.05,228.34Zm2.4-7.32c-.28,0-.46-.64-.72-.62a7,7,0,0,0-2.12,1.25l-.15-.44a7.06,7.06,0,0,1,2.29-1.8,1.52,1.52,0,0,1,1.47.37C626.31,220.09,626.05,220.93,625.45,221Z"/><path d="M627.78,224.29c0-2.83,1.89-5.12,4.73-5.12,2.53,0,4.43,2,4.43,5s-1.85,5-4.69,5C629.63,229.18,627.78,227.24,627.78,224.29Zm8,0c0-2.62-1.4-4.54-3.49-4.54s-3.41,1.87-3.41,4.38,1.36,4.4,3.54,4.4C634.43,228.56,635.81,226.82,635.81,224.32Z"/><path d="M646.44,227l.24.44a4.23,4.23,0,0,1-3.21,1.63,2.87,2.87,0,0,1-3.1-2.78v-5.21c0-.46-.13-.66-.36-.77a2.25,2.25,0,0,0-1-.11l-.11-.44,2-.33c.15,0,.46.22.46.33v6.51a2.19,2.19,0,0,0,2.33,1.94A3.87,3.87,0,0,0,646.44,227Zm2.77,1.36-.09.44a4.22,4.22,0,0,1-.88.07,1.23,1.23,0,0,1-.72-.22c-.33-.27-.29-.82-.29-1.92V221c0-.46-.13-.66-.35-.77a2.25,2.25,0,0,0-1-.11l-.11-.44,2-.33c.15,0,.46.22.46.33v7.15a3.45,3.45,0,0,0,.11,1.32A1.62,1.62,0,0,0,649.21,228.34Z"/><path d="M659.86,229.68c0,2.27-3.3,3.31-5.63,3.26-1.79,0-3.3-1.32-3-2a6.06,6.06,0,0,1,2.26-2.29l.31.11a6,6,0,0,0-1.43,1.89c-.31.68,1,1.65,2.57,1.65,1.81,0,4-.73,4-2.31a1.58,1.58,0,0,0-1.15-1.43,34.65,34.65,0,0,0-4.46-.22c-.8-.09-1.59-1.08-1.39-1.45a5.84,5.84,0,0,1,1.36-1.37l.31.2c-.26.37-.55.77-.72,1.08s-.09.55.61.66c.88.13,3,0,4.36.15A2.06,2.06,0,0,1,659.86,229.68Zm-8-7.41a3.41,3.41,0,0,1,3.65-3.19,3.28,3.28,0,0,1,1.45.33l0,0a1.83,1.83,0,0,0,.37.11c.35,0,1.94.06,2.46.09l0,.5c-.24,0-.88,0-1.12,0s-.62.11-.49.27l0,0a3.19,3.19,0,0,1,.64,2,3.34,3.34,0,0,1-3.59,3.13A3.14,3.14,0,0,1,651.9,222.27Zm1.09.07a2.42,2.42,0,0,0,2.42,2.61,2.33,2.33,0,0,0,2.25-2.61,2.49,2.49,0,0,0-2.4-2.69A2.41,2.41,0,0,0,653,222.34Z"/><path d="M665.62,228.34l-.11.4a26.91,26.91,0,0,0-3.36,0l-.11-.4c0-.11,1.36-.2,1.38-1V214.83a.51.51,0,0,0-.52-.57,2.84,2.84,0,0,0-1,.15l-.2-.39,2-1a.83.83,0,0,1,.68.33v13.93C664.43,228.14,665.62,228.23,665.62,228.34Zm7,0-.11.4a25.64,25.64,0,0,0-3.28,0l-.13-.4c0-.11,1.19-.2,1.21-1v-5.08a2.21,2.21,0,0,0-2.38-1.92,3.72,3.72,0,0,0-2.73,1.39l-.22-.46a4.08,4.08,0,0,1,3.17-1.81,2.91,2.91,0,0,1,3.15,2.77v5.11C671.3,228.14,672.6,228.23,672.6,228.34Z"/><path d="M687.38,228.1a4.87,4.87,0,0,1-2.79,1.08c-.66,0-1.52-.6-1.52-1.26v-7.87h-1.52v-.46a2.68,2.68,0,0,0,1.5-.73,6.49,6.49,0,0,0,.5-2.18h.53v2.64h2.82v.73h-2.82v7.08c0,.64,0,1.21.73,1.21a5.36,5.36,0,0,0,2.33-.61Z"/><path d="M693.06,228.34l-.11.4a27.07,27.07,0,0,0-3.37,0l-.11-.4c0-.11,1.36-.2,1.39-1V214.83a.52.52,0,0,0-.53-.57,2.87,2.87,0,0,0-1,.15l-.2-.39,2-1a.85.85,0,0,1,.69.33v13.93C691.87,228.14,693.06,228.23,693.06,228.34Zm7,0-.11.4a25.49,25.49,0,0,0-3.27,0l-.14-.4c0-.11,1.19-.2,1.21-1v-5.08a2.21,2.21,0,0,0-2.37-1.92,3.7,3.7,0,0,0-2.73,1.39l-.22-.46a4.08,4.08,0,0,1,3.17-1.81,2.9,2.9,0,0,1,3.14,2.77v5.11C698.74,228.14,700,228.23,700,228.34Z"/><path d="M706.68,219.17a4,4,0,0,1,4.05,4.18l-7.05.83.05-.66,5.63-.7c.18,0,.22-.11.2-.31a3,3,0,0,0-3.06-2.7c-2.2,0-3.43,2-3.41,4.4s1.41,4.35,3.74,4.35a5,5,0,0,0,3.1-1.12l.4.4a5.3,5.3,0,0,1-3.59,1.34c-3,0-4.79-2-4.73-5C702.08,221.3,703.9,219.17,706.68,219.17Z"/><path d="M734.35,228.34l-.11.4c-.81-.07-3.65-.07-4.46,0l-.11-.4c0-.11,1.65-.17,1.67-1v-5.66H722.8v5.66c0,.86,1.76.92,1.76,1l-.11.4c-.81-.07-3.74-.07-4.55,0l-.11-.4c0-.11,2-.17,2-1v-12c0-.86-2-.93-2-1l.11-.41c.81.06,3.74.06,4.55,0l.11.41c0,.11-1.74.18-1.76,1v5.52h8.54v-5.52c0-.86-1.67-.93-1.67-1l.11-.41c.81.06,3.65.06,4.46,0l.11.41c0,.11-2,.18-2,1v12C732.4,228.17,734.35,228.23,734.35,228.34Z"/><path d="M746.1,219.78c0,.11-1,.2-1.39,1h0l-5.59,11.81a7.78,7.78,0,0,1-.7,1.19,2.14,2.14,0,0,1-1.52.88,1.12,1.12,0,0,1-.68-.22,1.52,1.52,0,0,1-.13-1.08c.09-.24.42-.06.61.05.4.22.73.33,1,.11a3.71,3.71,0,0,0,.64-.93l2.2-4.62-3.28-7.19c-.44-.82-1.34-.91-1.34-1l.11-.39a23.06,23.06,0,0,0,2.88,0l.13.39c0,.11-1.14.22-.79,1l2.77,6.11,3-6.2c.19-.71-.91-.82-.91-.93l.11-.39a22.11,22.11,0,0,0,2.82,0Z"/><path d="M751.64,219.17a4,4,0,0,1,4.05,4.18l-7,.83,0-.66,5.64-.7c.17,0,.22-.11.2-.31a3,3,0,0,0-3.06-2.7c-2.2,0-3.44,2-3.41,4.4s1.41,4.35,3.74,4.35a5,5,0,0,0,3.1-1.12l.4.4a5.3,5.3,0,0,1-3.59,1.34c-3,0-4.8-2-4.73-5C747,221.3,748.87,219.17,751.64,219.17Z"/><path d="M765.15,221.24a.39.39,0,0,1,.44.44v.52h-7.26a.39.39,0,0,1-.44-.44v-.52Z"/><path d="M372.21,254.65l.09-1.67h.39c.14,0,.11.51.53,1.06a3.18,3.18,0,0,0,2.44.88,2.29,2.29,0,0,0,2.56-2.09c0-1.12-.86-1.45-2.34-2-1.82-.7-3.56-1.07-3.52-2.88s1.81-2.51,3.37-2.48a6.71,6.71,0,0,1,3.15.92c-.05.31-.14,1.19-.16,1.52h-.39c-.14,0-.11-.51-.53-1.06a2.82,2.82,0,0,0-2.11-.75c-1,0-2.23.42-2.27,1.68,0,1.47,1.28,1.62,2.79,2.17,1.74.64,3.06,1.21,3.06,2.73,0,2-1.91,2.93-3.61,2.93A6.71,6.71,0,0,1,372.21,254.65Z"/><path d="M389.48,254.74l-.09.44a4.28,4.28,0,0,1-.88.07,1.23,1.23,0,0,1-.72-.22c-.33-.27-.29-.82-.29-1.92l0-3.1a15.68,15.68,0,0,0-3.32.77c-1.21.49-2,1.12-2,2.18a1.76,1.76,0,0,0,1.83,1.8,5,5,0,0,0,2.94-1.18l.16.33a5.38,5.38,0,0,1-3.39,1.56,2.48,2.48,0,0,1-2.62-2.38c0-1.34,1-2.29,2.55-2.86a16.07,16.07,0,0,1,3.83-.81v-.71a2.21,2.21,0,0,0-2.22-2.44,3.62,3.62,0,0,0-2.55.93c-.22.3-.35.85-.64.85s-.53-.74-.53-1.12a5.76,5.76,0,0,1,3.72-1.36,3,3,0,0,1,3.21,3.12V249l0,4.12a3.52,3.52,0,0,0,.11,1.34A1.62,1.62,0,0,0,389.48,254.74Z"/><path d="M395.35,254.74l-.11.4a26.91,26.91,0,0,0-3.36,0l-.11-.4c0-.11,1.36-.2,1.38-1v-6.36a.51.51,0,0,0-.52-.57,2.84,2.84,0,0,0-1,.15l-.2-.39,2-1a.83.83,0,0,1,.68.33v7.81C394.17,254.54,395.35,254.63,395.35,254.74Zm7,0-.11.4a25.64,25.64,0,0,0-3.28,0l-.13-.4c0-.11,1.19-.2,1.21-1v-5.08a2.21,2.21,0,0,0-2.38-1.92,3.72,3.72,0,0,0-2.73,1.39l-.22-.46a4.08,4.08,0,0,1,3.17-1.81A2.91,2.91,0,0,1,401,248.6v5.11C401,254.54,402.33,254.63,402.33,254.74Z"/><path d="M411.79,247.64a.4.4,0,0,1,.44.44v.52H405a.39.39,0,0,1-.44-.44v-.52Z"/><path d="M414.76,248c0-5.72,3.61-8.07,6.91-8.07a5.26,5.26,0,0,1,3.8,1.45c.38.39.49-1.15.6-1.15l.59.07c0,.77,0,3,0,3.81l-.71.06c-.11,0-.19-.77-.63-1.6-.62-1.17-1.85-1.87-3.88-1.87-2.46,0-5.52,1.8-5.52,7.08,0,4.71,2.86,6.89,5.59,6.89a6,6,0,0,0,4.84-2.38l.55.44a6.48,6.48,0,0,1-5.63,2.82C418.17,255.58,414.76,253.22,414.76,248Z"/><path d="M432.75,254.74l-.11.4a26.91,26.91,0,0,0-3.36,0l-.11-.4c0-.11,1.36-.2,1.38-1V241.23a.52.52,0,0,0-.53-.57,2.82,2.82,0,0,0-1,.15l-.2-.39,2-1a.83.83,0,0,1,.68.33v13.93C431.56,254.54,432.75,254.63,432.75,254.74Zm7,0-.11.4a25.64,25.64,0,0,0-3.28,0l-.13-.4c0-.11,1.19-.2,1.21-1v-5.08a2.21,2.21,0,0,0-2.38-1.92,3.72,3.72,0,0,0-2.73,1.39l-.22-.46a4.08,4.08,0,0,1,3.17-1.81,2.91,2.91,0,0,1,3.15,2.77v5.11C438.43,254.54,439.73,254.63,439.73,254.74Z"/><path d="M449.83,254.74l-.09.44a4.28,4.28,0,0,1-.88.07,1.26,1.26,0,0,1-.73-.22c-.33-.27-.28-.82-.28-1.92l0-3.1a15.39,15.39,0,0,0-3.32.77c-1.21.49-2,1.12-2,2.18a1.77,1.77,0,0,0,1.83,1.8,5,5,0,0,0,2.95-1.18l.15.33a5.33,5.33,0,0,1-3.39,1.56,2.48,2.48,0,0,1-2.61-2.38c0-1.34,1-2.29,2.55-2.86a16,16,0,0,1,3.83-.81v-.71a2.21,2.21,0,0,0-2.22-2.44,3.67,3.67,0,0,0-2.56.93c-.22.3-.35.85-.63.85s-.53-.74-.53-1.12a5.74,5.74,0,0,1,3.72-1.36,3,3,0,0,1,3.21,3.12V249l0,4.12a3.32,3.32,0,0,0,.11,1.34A1.62,1.62,0,0,0,449.83,254.74Z"/><path d="M455.7,254.74l-.11.4a27.07,27.07,0,0,0-3.37,0l-.11-.4c0-.11,1.37-.2,1.39-1v-6.36a.52.52,0,0,0-.53-.57,2.87,2.87,0,0,0-1,.15l-.19-.39,2-1a.85.85,0,0,1,.68.33v7.81C454.51,254.54,455.7,254.63,455.7,254.74Zm7,0-.11.4a25.49,25.49,0,0,0-3.27,0l-.14-.4c0-.11,1.19-.2,1.21-1v-5.08a2.21,2.21,0,0,0-2.37-1.92,3.7,3.7,0,0,0-2.73,1.39l-.22-.46a4.08,4.08,0,0,1,3.17-1.81,2.9,2.9,0,0,1,3.14,2.77v5.11C461.38,254.54,462.67,254.63,462.67,254.74Z"/><path d="M473.21,256.08c0,2.27-3.3,3.31-5.63,3.26-1.78,0-3.3-1.32-3-2a6.1,6.1,0,0,1,2.26-2.28l.31.11a6,6,0,0,0-1.43,1.89c-.31.68,1,1.65,2.58,1.65,1.8,0,4-.73,4-2.31a1.56,1.56,0,0,0-1.15-1.43,34.56,34.56,0,0,0-4.46-.22c-.79-.09-1.59-1.08-1.39-1.45a5.71,5.71,0,0,1,1.37-1.37l.3.2c-.26.37-.55.77-.72,1.08s-.09.55.61.66c.88.13,3,0,4.36.15A2.06,2.06,0,0,1,473.21,256.08Zm-8-7.41a3.41,3.41,0,0,1,3.65-3.19,3.25,3.25,0,0,1,1.45.33l0,0a2,2,0,0,0,.37.11c.35,0,1.94.06,2.47.09l0,.5c-.24,0-.88,0-1.12,0s-.62.11-.48.27l0,0a3.19,3.19,0,0,1,.64,2,3.33,3.33,0,0,1-3.58,3.13A3.15,3.15,0,0,1,465.25,248.67Zm1.1.07a2.41,2.41,0,0,0,2.42,2.61,2.33,2.33,0,0,0,2.24-2.61,2.49,2.49,0,0,0-2.4-2.69A2.39,2.39,0,0,0,466.35,248.74Z"/><path d="M485.16,250.8a4.92,4.92,0,0,1-4.93,4.78,7.91,7.91,0,0,1-2.46-.44l-1-.33V241.23c0-.46-.2-.55-.42-.57a3.48,3.48,0,0,0-1.08.15l-.2-.33a13.55,13.55,0,0,1,2-1,.85.85,0,0,1,.69.33v14a3.59,3.59,0,0,0,2.88,1.16c1.87,0,3.41-1.87,3.41-4.24s-1.39-4.05-3-4.05a3.3,3.3,0,0,0-2.53,1.27l-.22-.46a3.58,3.58,0,0,1,3-1.63C483.2,245.85,485.2,247.75,485.16,250.8Z"/><path d="M495.48,254.74l-.09.44a4.28,4.28,0,0,1-.88.07,1.26,1.26,0,0,1-.73-.22c-.33-.27-.28-.82-.28-1.92l0-3.1a15.39,15.39,0,0,0-3.32.77c-1.21.49-2,1.12-2,2.18a1.76,1.76,0,0,0,1.82,1.8,5,5,0,0,0,2.95-1.18l.15.33a5.33,5.33,0,0,1-3.38,1.56,2.48,2.48,0,0,1-2.62-2.38c0-1.34,1-2.29,2.55-2.86a16,16,0,0,1,3.83-.81v-.71a2.21,2.21,0,0,0-2.22-2.44,3.67,3.67,0,0,0-2.56.93c-.22.3-.35.85-.63.85s-.53-.74-.53-1.12a5.74,5.74,0,0,1,3.72-1.36,3,3,0,0,1,3.21,3.12V249l0,4.12a3.32,3.32,0,0,0,.11,1.34A1.62,1.62,0,0,0,495.48,254.74Z"/><path d="M501.57,254.74l-.11.4a27.07,27.07,0,0,0-3.37,0l-.11-.4c0-.11,1.37-.2,1.39-1v-6.36a.52.52,0,0,0-.53-.57,2.9,2.9,0,0,0-1,.15l-.19-.39,2-1a.85.85,0,0,1,.68.33v7.81C500.38,254.54,501.57,254.63,501.57,254.74Zm-3.06-12.32c.07-.46.2-1.06.62-1.25a.87.87,0,0,1,1.16.37.86.86,0,0,1-.37,1.14A1.56,1.56,0,0,1,498.51,242.42Z"/><path d="M516,254.74l-.11.4c-.81-.07-4-.07-4.8,0l-.11-.4c0-.11,2-.17,2-1v-12c0-.86-2-.93-2-1l.11-.41c.82.06,4,.06,4.8,0l.11.41c0,.11-2,.18-2,1v12C514,254.57,516,254.63,516,254.74Z"/><path d="M522,254.74l-.11.4a26.91,26.91,0,0,0-3.36,0l-.11-.4c0-.11,1.36-.2,1.38-1v-6.36a.52.52,0,0,0-.53-.57,2.82,2.82,0,0,0-1,.15l-.2-.39,2-1a.83.83,0,0,1,.68.33v7.81C520.77,254.54,522,254.63,522,254.74Zm7,0-.11.4a25.64,25.64,0,0,0-3.28,0l-.13-.4c0-.11,1.19-.2,1.21-1v-5.08a2.21,2.21,0,0,0-2.38-1.92,3.72,3.72,0,0,0-2.73,1.39l-.22-.46a4.08,4.08,0,0,1,3.17-1.81,2.91,2.91,0,0,1,3.15,2.77v5.11C527.64,254.54,528.94,254.63,528.94,254.74Z"/><path d="M536.64,254.5a4.93,4.93,0,0,1-2.8,1.08c-.66,0-1.51-.6-1.51-1.26v-7.87h-1.52V246a2.66,2.66,0,0,0,1.49-.73,6.24,6.24,0,0,0,.51-2.18h.53v2.64h2.81v.73h-2.81v7.08c0,.64,0,1.21.72,1.21a5.45,5.45,0,0,0,2.34-.61Z"/><path d="M543.19,245.57a4,4,0,0,1,4,4.18l-7,.83,0-.66,5.63-.7c.17,0,.22-.11.2-.31a3,3,0,0,0-3.06-2.7c-2.2,0-3.43,2-3.41,4.4S541,255,543.35,255a5,5,0,0,0,3.1-1.12l.4.4a5.3,5.3,0,0,1-3.59,1.34c-3,0-4.8-2-4.73-5C538.6,247.7,540.42,245.57,543.19,245.57Z"/><path d="M553,254.74l-.12.4a26.91,26.91,0,0,0-3.36,0l-.11-.4c0-.11,1.36-.2,1.39-1v-6.36a.52.52,0,0,0-.53-.57,2.84,2.84,0,0,0-1,.15l-.2-.39,2-1a.85.85,0,0,1,.69.33v7.81C551.82,254.54,553,254.63,553,254.74Zm2.39-7.32c-.28,0-.46-.64-.72-.62a7,7,0,0,0-2.12,1.25l-.15-.44a7.06,7.06,0,0,1,2.29-1.8,1.52,1.52,0,0,1,1.47.37C556.26,246.49,556,247.33,555.4,247.42Z"/><path d="M561.52,254.74l-.11.4a27.07,27.07,0,0,0-3.37,0l-.11-.4c0-.11,1.37-.2,1.39-1v-6.36a.52.52,0,0,0-.53-.57,2.87,2.87,0,0,0-1,.15l-.2-.39,2-1a.85.85,0,0,1,.68.33v7.81C560.33,254.54,561.52,254.63,561.52,254.74Zm7,0-.11.4a25.49,25.49,0,0,0-3.27,0l-.14-.4c0-.11,1.19-.2,1.21-1v-5.08a2.21,2.21,0,0,0-2.37-1.92,3.7,3.7,0,0,0-2.73,1.39l-.22-.46a4.08,4.08,0,0,1,3.17-1.81,2.9,2.9,0,0,1,3.14,2.77v5.11C567.2,254.54,568.49,254.63,568.49,254.74Z"/><path d="M578.59,254.74l-.09.44a4.22,4.22,0,0,1-.88.07,1.23,1.23,0,0,1-.72-.22c-.33-.27-.29-.82-.29-1.92l0-3.1a15.68,15.68,0,0,0-3.32.77c-1.21.49-2,1.12-2,2.18a1.76,1.76,0,0,0,1.83,1.8,5.1,5.1,0,0,0,3-1.18l.15.33a5.38,5.38,0,0,1-3.39,1.56,2.48,2.48,0,0,1-2.62-2.38c0-1.34,1-2.29,2.56-2.86a15.89,15.89,0,0,1,3.82-.81v-.71a2.21,2.21,0,0,0-2.22-2.44,3.62,3.62,0,0,0-2.55.93c-.22.3-.35.85-.64.85s-.53-.74-.53-1.12a5.76,5.76,0,0,1,3.72-1.36,3,3,0,0,1,3.21,3.12V249l0,4.12a3.52,3.52,0,0,0,.11,1.34A1.62,1.62,0,0,0,578.59,254.74Z"/><path d="M586.4,254.5a4.87,4.87,0,0,1-2.79,1.08c-.66,0-1.52-.6-1.52-1.26v-7.87h-1.52V246a2.71,2.71,0,0,0,1.5-.73,6.49,6.49,0,0,0,.5-2.18h.53v2.64h2.82v.73H583.1v7.08c0,.64,0,1.21.73,1.21a5.36,5.36,0,0,0,2.33-.61Z"/><path d="M592.3,254.74l-.11.4a27.07,27.07,0,0,0-3.37,0l-.11-.4c0-.11,1.37-.2,1.39-1v-6.36a.52.52,0,0,0-.53-.57,2.87,2.87,0,0,0-1,.15l-.2-.39,2-1a.85.85,0,0,1,.68.33v7.81C591.11,254.54,592.3,254.63,592.3,254.74Zm-3.06-12.32c.07-.46.2-1.06.61-1.25a.89.89,0,0,1,1.17.37.87.87,0,0,1-.37,1.14A1.56,1.56,0,0,1,589.24,242.42Z"/><path d="M594.61,250.69c0-2.83,1.89-5.12,4.73-5.12,2.53,0,4.42,2,4.42,5s-1.85,5-4.69,5C596.45,255.58,594.61,253.64,594.61,250.69Zm8,0c0-2.62-1.41-4.54-3.5-4.54s-3.41,1.87-3.41,4.38,1.36,4.4,3.54,4.4C601.25,255,602.64,253.22,602.64,250.72Z"/><path d="M609.74,254.74l-.11.4a26.91,26.91,0,0,0-3.36,0l-.11-.4c0-.11,1.36-.2,1.38-1v-6.36a.52.52,0,0,0-.53-.57,2.82,2.82,0,0,0-1,.15l-.2-.39,2-1a.83.83,0,0,1,.68.33v7.81C608.55,254.54,609.74,254.63,609.74,254.74Zm7,0-.11.4a25.64,25.64,0,0,0-3.28,0l-.13-.4c0-.11,1.19-.2,1.21-1v-5.08a2.22,2.22,0,0,0-2.38-1.92,3.72,3.72,0,0,0-2.73,1.39l-.22-.46a4.08,4.08,0,0,1,3.17-1.81,2.91,2.91,0,0,1,3.15,2.77v5.11C615.42,254.54,616.72,254.63,616.72,254.74Z"/><path d="M626.82,254.74l-.09.44a4.28,4.28,0,0,1-.88.07,1.26,1.26,0,0,1-.73-.22c-.33-.27-.29-.82-.29-1.92l0-3.1a15.63,15.63,0,0,0-3.33.77c-1.2.49-2,1.12-2,2.18a1.77,1.77,0,0,0,1.83,1.8,5.07,5.07,0,0,0,3-1.18l.15.33a5.33,5.33,0,0,1-3.39,1.56,2.48,2.48,0,0,1-2.61-2.38c0-1.34,1-2.29,2.55-2.86a16,16,0,0,1,3.83-.81v-.71a2.21,2.21,0,0,0-2.22-2.44,3.67,3.67,0,0,0-2.56.93c-.22.3-.35.85-.64.85s-.52-.74-.52-1.12a5.72,5.72,0,0,1,3.72-1.36,3,3,0,0,1,3.21,3.12V249l0,4.12a3.58,3.58,0,0,0,.1,1.34A1.68,1.68,0,0,0,626.82,254.74Z"/><path d="M632.8,254.74l-.11.4a27.07,27.07,0,0,0-3.37,0l-.11-.4c0-.11,1.37-.2,1.39-1V241.23a.52.52,0,0,0-.53-.57,2.87,2.87,0,0,0-1,.15l-.19-.39,2-1a.85.85,0,0,1,.68.33v13.93C631.61,254.54,632.8,254.63,632.8,254.74Z"/><path d="M653.66,250.91c0,2.86-2.53,4.23-5.35,4.23-1.1,0-5.52,0-6,0l-.14-.4c0-.11,1.92-.11,1.94-1V241.69c0-.85-1.94-.9-1.94-1l.14-.44c.28,0,4.15,0,5.67,0,2.49,0,4.58,1.34,4.58,3.43a3.53,3.53,0,0,1-2.6,3.56A3.91,3.91,0,0,1,653.66,250.91Zm-1.1.18c0-2.2-2-3.3-4.23-3.37-.66,0-1.3,0-1.65,0v-.59c.35,0,1-.05,1.54-.11,1.87-.24,3.3-1.34,3.3-3.1,0-2.07-1.82-3-4-3a14.92,14.92,0,0,0-2.31.13v13.12a9.86,9.86,0,0,0,2.93.35C650.6,254.48,652.56,253.25,652.56,251.09Z"/><path d="M659.64,254.74l-.11.4a27.07,27.07,0,0,0-3.37,0l-.11-.4c0-.11,1.37-.2,1.39-1v-6.36a.52.52,0,0,0-.53-.57,2.87,2.87,0,0,0-1,.15l-.2-.39,2-1a.85.85,0,0,1,.68.33v7.81C658.45,254.54,659.64,254.63,659.64,254.74Zm2.4-7.32c-.29,0-.46-.64-.73-.62a6.87,6.87,0,0,0-2.11,1.25l-.15-.44a7.15,7.15,0,0,1,2.28-1.8,1.54,1.54,0,0,1,1.48.37C662.9,246.49,662.63,247.33,662,247.42Z"/><path d="M668.37,254.74l-.11.4a26.91,26.91,0,0,0-3.36,0l-.11-.4c0-.11,1.36-.2,1.38-1v-6.36a.52.52,0,0,0-.53-.57,2.82,2.82,0,0,0-1,.15l-.2-.39,2-1a.83.83,0,0,1,.68.33v7.81C667.18,254.54,668.37,254.63,668.37,254.74Zm-3.06-12.32c.07-.46.2-1.06.62-1.25a.89.89,0,0,1,1.17.37.87.87,0,0,1-.38,1.14A1.56,1.56,0,0,1,665.31,242.42Z"/><path d="M680.06,254.74l-.09.44a4.28,4.28,0,0,1-.88.07,1.26,1.26,0,0,1-.73-.22c-.33-.27-.28-.82-.28-1.92V248a3.32,3.32,0,0,0-2.73-1.54c-2.2,0-3.57,2.17-3.57,4.37s1.39,3.85,3,3.85a3.07,3.07,0,0,0,2.53-1.16l.22.46a3.57,3.57,0,0,1-3,1.52c-1.91,0-3.87-1.78-3.87-4.78a4.81,4.81,0,0,1,4.58-4.88,4.32,4.32,0,0,1,2.82,1.06v-5.64a.52.52,0,0,0-.53-.57,2.87,2.87,0,0,0-1,.15l-.2-.39,2-1a.85.85,0,0,1,.69.33V253.2a3.39,3.39,0,0,0,.1,1.3A1.68,1.68,0,0,0,680.06,254.74Z"/><path d="M690.7,256.08c0,2.27-3.3,3.31-5.63,3.26-1.78,0-3.3-1.32-3-2a6.1,6.1,0,0,1,2.26-2.28l.31.11a6,6,0,0,0-1.43,1.89c-.31.68,1,1.65,2.58,1.65,1.8,0,4-.73,4-2.31a1.56,1.56,0,0,0-1.15-1.43,34.56,34.56,0,0,0-4.46-.22c-.79-.09-1.59-1.08-1.39-1.45a5.71,5.71,0,0,1,1.37-1.37l.3.2c-.26.37-.55.77-.72,1.08s-.09.55.61.66c.88.13,3,0,4.36.15A2.06,2.06,0,0,1,690.7,256.08Zm-8-7.41a3.41,3.41,0,0,1,3.65-3.19,3.25,3.25,0,0,1,1.45.33l0,0a2,2,0,0,0,.37.11c.35,0,1.94.06,2.47.09l0,.5c-.24,0-.88,0-1.12,0s-.62.11-.48.27l0,0a3.19,3.19,0,0,1,.64,2,3.33,3.33,0,0,1-3.58,3.13A3.15,3.15,0,0,1,682.74,248.67Zm1.1.07a2.41,2.41,0,0,0,2.42,2.61,2.33,2.33,0,0,0,2.24-2.61,2.49,2.49,0,0,0-2.4-2.69A2.39,2.39,0,0,0,683.84,248.74Z"/><path d="M697.35,245.57a4,4,0,0,1,4,4.18l-7,.83,0-.66,5.63-.7c.18,0,.22-.11.2-.31a3,3,0,0,0-3.06-2.7c-2.2,0-3.43,2-3.41,4.4s1.41,4.35,3.74,4.35a5,5,0,0,0,3.1-1.12l.4.4a5.3,5.3,0,0,1-3.59,1.34c-3,0-4.79-2-4.73-5C692.75,247.7,694.57,245.57,697.35,245.57Z"/><path d="M704.25,254.76a.92.92,0,1,1,1.83,0,.92.92,0,0,1-1.83,0Z"/><text class="i" transform="translate(371.11 136.77)">량강도 북부에 위치하며 혜장교를 통해 <tspan x="0" y="26.4">창바이 조선족 자치현과 연결된다. </tspan></text><text class="h" transform="translate(135.92 454.65)">193,000</text><text class="j" transform="translate(131.44 374.8)">인구</text><text class="k" transform="translate(187.86 374.8)">Popul<tspan class="l" x="54.29" y="0">a</tspan><tspan x="64.54" y="0">tion</tspan></text><text class="k" transform="translate(304.53 374.8)">(2008)</text><text class="k" transform="translate(388.34 527.92)">(2017)</text><text class="j" transform="translate(131.44 527.57)">교류 규모</text><text class="k" transform="translate(245.27 527.57)">Trade <tspan class="m" x="61.41" y="0">V</tspan><tspan x="72.41" y="0">olume</tspan></text><text class="h" transform="translate(273.62 615.64)">65<tspan class="n" x="65.38" y="0">,</tspan><tspan class="o" x="72.79" y="0">444</tspan></text><text class="i" transform="translate(460.16 590.77)">명</text><text class="i" transform="translate(460.16 612.72)">pe<tspan class="p" x="22.86" y="0">o</tspan><tspan x="33.77" y="0">ple</tspan></text><text class="i" transform="translate(355.16 431.73)">명</text><text class="i" transform="translate(355.16 453.68)">pe<tspan class="p" x="22.86" y="0">o</tspan><tspan x="33.77" y="0">ple</tspan></text><text class="h" transform="translate(258.36 698.17)">144,129</text><text class="i" transform="translate(460.16 673.3)">톤</text><text class="i" transform="translate(460.16 695.25)">tons</text><line class="q" x1="130.62" y1="285.65" x2="772.95" y2="285.65"/><text class="r" transform="translate(1792.02 920.71)">Source<tspan x="-486.79" y="21.6">북·중 국경 관리실태와 남북 접경 관리에의 적용 가능성 연구(2019)</tspan><tspan x="-430.41" y="43.2">A Study on the the No</tspan><tspan class="s" x="-242.87" y="43.2">r</tspan><tspan x="-235.94" y="43.2">th-China Border and the Possibility</tspan><tspan x="-453.97" y="64.8">of Application to the Management of the South-No</tspan><tspan class="t" x="-29.2" y="64.8">r</tspan><tspan class="u" x="-22.26" y="64.8">th Border</tspan><tspan x="-499.12" y="86.4">Ebe</tspan><tspan class="v" x="-468.32" y="86.4">r</tspan><tspan x="-461.21" y="86.4">stadt and Banister(1992a: 22-23); (조선)중앙통계국(1994, 2009)</tspan></text><circle class="f" cx="151.11" cy="570.64" r="7.04"/><polygon class="f" points="135.92 581.99 166.3 581.99 150.33 618.72 135.92 581.99"/><circle class="f" cx="218.17" cy="570.64" r="7.04"/><polygon class="f" points="202.98 581.99 233.36 581.99 217.39 618.72 202.98 581.99"/><circle class="f" cx="184.64" cy="570.64" r="7.04"/><polygon class="f" points="169.45 581.99 199.83 581.99 183.86 618.72 169.45 581.99"/><rect class="c" x="135.48" y="664.68" width="99" height="7.4"/><rect class="c" x="160.81" y="664.68" width="48.33" height="7.4" transform="translate(-483.41 853.36) rotate(-90)"/><rect class="w" x="1572.35" y="69.91" width="275.66" height="364.96"/><path d="M1847.51,70.41v364H1572.85v-364h274.66m1-1H1571.85v366h276.66v-366Z"/><text class="j" transform="translate(1666.62 123.15)">도시권</text><text class="k" transform="translate(1666.62 155.69)">ur<tspan class="x" x="22.51" y="0">b</tspan><tspan x="33.29" y="0">an area</tspan></text><text class="j" transform="translate(1662.18 363.32)">국경통과지점</text><text class="k" transform="translate(1662.18 395.87)">border Crossing</text><polygon class="y" points="1619.26 343.97 1619.26 363.97 1601.32 366.29 1620.76 376.34 1618.66 395.87 1629.55 374.43 1643.46 393.36 1638.56 369.92 1652.94 362.39 1632.24 361.83 1619.26 343.97"/><rect class="z" x="1601.32" y="104.07" width="51.62" height="51.62"/><text class="j" transform="translate(1666.62 196.38)">비도시권</text><text class="k" transform="translate(1666.62 228.93)">subur<tspan class="aa" x="55.89" y="0">b</tspan><tspan x="66.67" y="0">an area</tspan></text><text class="j" transform="translate(1666.62 276.35)">육로</text><text class="ab" transform="translate(1666.62 308.9)">o<tspan class="ac" x="10.94" y="0">verland route</tspan></text><rect class="c" x="1601.32" y="177.3" width="51.62" height="51.62"/><rect class="ad" x="1601.32" y="269.54" width="51.62" height="25.81"/><line class="ae" x1="1071.13" y1="501.82" x2="1119.35" y2="581.47"/><text class="af" transform="translate(958.05 949.22)">hyesan</text><text class="af" transform="translate(958.05 266.32)">Chang<tspan class="ag" x="167.68" y="0">b</tspan><tspan x="198.54" y="0">ai</tspan></text><polygon class="ah" points="1067.72 426.97 1067.72 452.63 1035.85 455.62 1070.37 468.51 1066.65 493.58 1085.99 466.06 1110.7 490.36 1101.98 460.27 1127.53 450.6 1090.77 449.89 1067.72 426.97"/><polygon class="ai" points="1150.72 581.62 1137.99 607.02 1110.47 615.64 1128.23 624.05 1124.43 649.66 1144.19 621.55 1169.43 646.37 1160.53 615.64 1186.62 605.76 1154.41 602.91 1150.72 581.62"/></svg>