<svg xmlns="http://www.w3.org/2000/svg" xmlns:xlink="http://www.w3.org/1999/xlink" viewBox="0 0 1920 1080"><defs><style>.a{fill:#d8d8d8;}.b{fill:#070a11;}.c,.d{font-size:72px;}.c,.d,.i,.j,.y{fill:#1e1e1e;}.c,.i{font-family:KCC-KP-CheonRiMa-Bold-KP-2011KPS, KP CheonRiMa B;}.ab,.d,.j,.y{font-family:Prohibition-Regular, Prohibition;}.e{letter-spacing:-0.01em;}.f{letter-spacing:0em;}.g{font-size:22px;font-family:MapoFlowerIsland-KSCpc-EUC-H, MapoFlowerIsland;}.h{letter-spacing:-0.12em;}.i,.j,.y{font-size:24px;}.k{letter-spacing:-0.08em;}.l,.y{letter-spacing:-0.01em;}.m{letter-spacing:-0.02em;}.ad,.n{fill:none;stroke-miterlimit:10;}.n{stroke:#1e1e1e;stroke-width:10px;}.o{font-size:18px;fill:#6c6c6c;font-family:MapoGoldenPier-KSCpc-EUC-H, MapoGoldenPier;}.p{letter-spacing:-0.02em;}.q{letter-spacing:-0.02em;}.r{letter-spacing:0em;}.s{letter-spacing:-0.01em;}.t{fill:#fff;}.u{letter-spacing:-0.02em;}.v{fill:url(#a);}.w{fill:url(#b);}.x{letter-spacing:-0.02em;}.z{letter-spacing:0em;}.aa{fill:url(#c);}.ab{font-size:68.75px;fill:#b1b1b1;}.ac{fill:url(#d);}.ad{stroke-width:40px;stroke:url(#e);}.ae{fill:url(#f);}.af{fill:url(#g);}</style><linearGradient id="a" x1="1601.32" y1="369.92" x2="1652.94" y2="369.92" gradientUnits="userSpaceOnUse"><stop offset="0" stop-color="#d7a56a"/><stop offset="1" stop-color="#e9d39a"/></linearGradient><linearGradient id="b" x1="1601.32" y1="129.88" x2="1652.94" y2="129.88" gradientUnits="userSpaceOnUse"><stop offset="0" stop-color="#bd0d1a"/><stop offset="1" stop-color="#dd4830"/></linearGradient><linearGradient id="c" x1="1601.32" y1="282.45" x2="1652.94" y2="282.45" gradientUnits="userSpaceOnUse"><stop offset="0" stop-color="#073861"/><stop offset="1" stop-color="#1263a4"/></linearGradient><linearGradient id="d" x1="990.01" y1="596.9" x2="1081.69" y2="596.9" xlink:href="#a"/><linearGradient id="e" x1="11717.67" y1="-9711.24" x2="12310.34" y2="-9711.24" gradientTransform="matrix(0.3, 0.26, 0.07, 0.37, -1846.62, 1010.35)" xlink:href="#c"/><linearGradient id="f" x1="65.32" y1="983.18" x2="118.41" y2="983.18" gradientTransform="matrix(3.88, -1.29, 0.32, 0.95, 770.59, -376.55)" xlink:href="#b"/><linearGradient id="g" x1="1452.83" y1="419.65" x2="1528.98" y2="419.65" xlink:href="#a"/></defs><rect class="a" width="1920" height="1080"/><rect class="b" x="162.69" y="619.66" width="43.89" height="97.44" transform="translate(-483.74 853.02) rotate(-90)"/><text class="c" transform="translate(127.78 176.31)">라선</text><text class="d" transform="translate(135.92 257.09)">r<tspan class="e" x="33.84" y="0">a</tspan><tspan class="f" x="69.33" y="0">Son</tspan></text><path d="M383,202.36h0c-.8-.07-9.8-.05-10.61,0l-.11-.4c0-.11,2-.17,2-1V189c0-.86-2-.93-2-1l.11-.41c.81.06,3.87.06,4.69,0l.11.41c0,.11-1.85.18-1.87,1v12.28a.28.28,0,0,0,.26.3h5.94c.84,0,1-2.37,1.1-2.37l.51.06C383,199.94,383,201.65,383,202.36Z"/><path d="M384.93,197.93c0-2.83,1.89-5.12,4.73-5.12,2.53,0,4.42,2,4.42,5s-1.85,5-4.69,5C386.77,202.82,384.93,200.88,384.93,197.93Zm8,0c0-2.62-1.41-4.54-3.5-4.54s-3.41,1.87-3.41,4.38,1.36,4.4,3.54,4.4C391.57,202.2,393,200.46,393,198Z"/><path d="M400.92,202.84c-3,0-4.84-2-4.75-5a4.89,4.89,0,0,1,5.06-5,4.19,4.19,0,0,1,3,1.16c0,.38-.2,1-.57,1s-.35-.44-.57-.75a2.59,2.59,0,0,0-2-.79c-2.55,0-3.82,2.07-3.8,4.62s1.47,4.2,3.74,4.2a5,5,0,0,0,3.1-1.12l.4.4A5.3,5.3,0,0,1,400.92,202.84Z"/><path d="M414.39,202l-.09.44a4.28,4.28,0,0,1-.88.07,1.26,1.26,0,0,1-.73-.22c-.33-.27-.28-.82-.28-1.92l0-3.1a15.63,15.63,0,0,0-3.33.77c-1.21.49-2,1.12-2,2.18A1.76,1.76,0,0,0,409,202a5.07,5.07,0,0,0,2.95-1.18l.15.33a5.33,5.33,0,0,1-3.39,1.56,2.48,2.48,0,0,1-2.61-2.38c0-1.34,1-2.29,2.55-2.86a16,16,0,0,1,3.83-.81V196a2.21,2.21,0,0,0-2.22-2.44,3.67,3.67,0,0,0-2.56.93c-.22.3-.35.85-.64.85s-.52-.74-.52-1.12a5.72,5.72,0,0,1,3.72-1.36,3,3,0,0,1,3.21,3.12v.35l0,4.12a3.58,3.58,0,0,0,.1,1.34A1.68,1.68,0,0,0,414.39,202Z"/><path d="M422.2,201.74a4.93,4.93,0,0,1-2.8,1.08c-.66,0-1.52-.6-1.52-1.26v-7.87h-1.52v-.46a2.68,2.68,0,0,0,1.5-.73,6.3,6.3,0,0,0,.51-2.18h.52V193h2.82v.73h-2.82v7.08c0,.64,0,1.21.73,1.21a5.36,5.36,0,0,0,2.33-.61Z"/><path d="M428.75,192.81A4,4,0,0,1,432.8,197l-7,.83,0-.66,5.64-.7c.17,0,.22-.11.19-.31a3,3,0,0,0-3.05-2.71c-2.2,0-3.44,2.05-3.41,4.41s1.4,4.35,3.74,4.35a5,5,0,0,0,3.1-1.12l.39.4a5.25,5.25,0,0,1-3.58,1.34c-3,0-4.8-2-4.73-5C424.15,194.94,426,192.81,428.75,192.81Z"/><path d="M444.15,202l-.09.44a4.22,4.22,0,0,1-.88.07,1.23,1.23,0,0,1-.72-.22c-.33-.27-.29-.82-.29-1.92v-5.14a3.29,3.29,0,0,0-2.73-1.54c-2.2,0-3.56,2.17-3.56,4.37s1.38,3.85,3,3.85a3.1,3.1,0,0,0,2.53-1.16l.22.46a3.58,3.58,0,0,1-3,1.52c-1.91,0-3.87-1.78-3.87-4.78a4.81,4.81,0,0,1,4.57-4.88,4.25,4.25,0,0,1,2.82,1.06v-5.64a.52.52,0,0,0-.53-.57,2.9,2.9,0,0,0-1,.15l-.19-.39,2-1a.83.83,0,0,1,.68.33v13.42a3.34,3.34,0,0,0,.11,1.3A1.62,1.62,0,0,0,444.15,202Z"/><path d="M457.33,202l-.11.4a27.07,27.07,0,0,0-3.37,0l-.11-.4c0-.11,1.37-.2,1.39-1v-6.36a.52.52,0,0,0-.53-.57,2.87,2.87,0,0,0-1,.15l-.2-.39,2-1a.85.85,0,0,1,.68.33V201C456.14,201.78,457.33,201.87,457.33,202Zm-3.06-12.32c.07-.46.2-1.06.62-1.25a.85.85,0,1,1,.79,1.51A1.56,1.56,0,0,1,454.27,189.66Z"/><path d="M463.42,202l-.11.4a26.91,26.91,0,0,0-3.36,0l-.11-.4c0-.11,1.36-.2,1.38-1v-6.36a.52.52,0,0,0-.53-.57,2.82,2.82,0,0,0-1,.15l-.2-.39,2-1a.83.83,0,0,1,.68.33V201C462.23,201.78,463.42,201.87,463.42,202Zm7,0-.11.4a25.64,25.64,0,0,0-3.28,0l-.13-.4c0-.11,1.18-.2,1.21-1v-5.08a2.22,2.22,0,0,0-2.38-1.92,3.72,3.72,0,0,0-2.73,1.39l-.22-.46a4.08,4.08,0,0,1,3.17-1.81,2.91,2.91,0,0,1,3.15,2.77V201C469.1,201.78,470.4,201.87,470.4,202Z"/><path d="M494,187.94c0,.11-1.93.18-1.95,1v13.4h-.62l0,0v0l-9.31-13V201c0,.86,2,.92,2,1l-.11.4c-.81-.07-3.7-.07-4.51,0l-.11-.4c0-.11,1.85-.17,1.87-1V189c0-.84-1.87-.92-1.87-1l0-.44c.71,0,2.05,0,2.73,0l9.07,12.69V189c0-.86-1.94-.93-1.94-1l.11-.41c.81.06,3.72.06,4.51,0Z"/><path d="M495.65,197.93c0-2.83,1.89-5.12,4.73-5.12,2.53,0,4.43,2,4.43,5s-1.85,5-4.69,5C497.5,202.82,495.65,200.88,495.65,197.93Zm8,0c0-2.62-1.41-4.54-3.5-4.54s-3.41,1.87-3.41,4.38,1.37,4.4,3.55,4.4C502.3,202.2,503.68,200.46,503.68,198Z"/><path d="M510.79,202l-.11.4a27.07,27.07,0,0,0-3.37,0l-.11-.4c0-.11,1.37-.2,1.39-1v-6.36a.52.52,0,0,0-.53-.57,2.87,2.87,0,0,0-1,.15l-.2-.39,2-1a.85.85,0,0,1,.68.33V201C509.6,201.78,510.79,201.87,510.79,202Zm2.4-7.32c-.29,0-.47-.64-.73-.62a6.87,6.87,0,0,0-2.11,1.25l-.16-.44a7.17,7.17,0,0,1,2.29-1.8,1.55,1.55,0,0,1,1.48.37C514.05,193.73,513.78,194.57,513.19,194.66Z"/><path d="M521.24,201.74a4.93,4.93,0,0,1-2.8,1.08c-.66,0-1.51-.6-1.51-1.26v-7.87h-1.52v-.46a2.66,2.66,0,0,0,1.49-.73,6.3,6.3,0,0,0,.51-2.18h.53V193h2.81v.73h-2.81v7.08c0,.64,0,1.21.72,1.21a5.45,5.45,0,0,0,2.34-.61Z"/><path d="M526.91,202l-.11.4a26.91,26.91,0,0,0-3.36,0l-.11-.4c0-.11,1.36-.2,1.38-1V188.47a.51.51,0,0,0-.52-.57,2.84,2.84,0,0,0-1,.15l-.2-.39,2-1a.83.83,0,0,1,.68.33V201C525.73,201.78,526.91,201.87,526.91,202Zm7,0-.11.4a25.64,25.64,0,0,0-3.28,0l-.13-.4c0-.11,1.19-.2,1.21-1v-5.08A2.21,2.21,0,0,0,529.2,194a3.72,3.72,0,0,0-2.73,1.39l-.22-.46a4.08,4.08,0,0,1,3.17-1.81,2.91,2.91,0,0,1,3.15,2.77V201C532.59,201.78,533.89,201.87,533.89,202Z"/><path d="M556.22,201.94l-.11.42c-.7,0-2.31-.05-3,0l-5.68-6.9.09-.38a8.66,8.66,0,0,0,1,0c2.33-.11,4-1.23,4-3.32s-1.54-3.54-3.83-3.54a10.68,10.68,0,0,0-2.77.28V201c0,.86,2,.92,2,1l-.13.4c-.8-.07-4-.07-4.76,0L543,202c0-.11,2-.17,2-1V189.11c0-.86-2-1.06-2-1.17l0-.41c.7.06,2.31.11,2.92.08s2.07-.08,3.19-.08c2.69,0,4.6,1.6,4.58,4.09s-2.14,3.87-4.82,4l4.47,5.28C554,201.76,556.22,201.83,556.22,201.94Z"/><path d="M566.87,193.42c0,.11-1,.2-1.39,1h0l-5.59,11.81a9.86,9.86,0,0,1-.7,1.19,2.14,2.14,0,0,1-1.52.88,1.12,1.12,0,0,1-.68-.22,1.46,1.46,0,0,1-.14-1.08c.09-.24.42-.06.62,0,.4.22.73.33,1,.1a3.72,3.72,0,0,0,.64-.92l2.2-4.62L558,194.44c-.44-.82-1.34-.91-1.34-1l.11-.39a23.06,23.06,0,0,0,2.88,0l.13.39c0,.11-1.14.22-.79,1l2.77,6.11,3-6.2c.2-.71-.9-.82-.9-.93l.11-.39a22.11,22.11,0,0,0,2.82,0Z"/><path d="M576.53,202l-.09.44a4.28,4.28,0,0,1-.88.07,1.26,1.26,0,0,1-.73-.22c-.33-.27-.28-.82-.28-1.92l0-3.1a15.63,15.63,0,0,0-3.33.77c-1.21.49-2,1.12-2,2.18a1.76,1.76,0,0,0,1.83,1.8,5.07,5.07,0,0,0,2.95-1.18l.15.33a5.36,5.36,0,0,1-3.39,1.56,2.48,2.48,0,0,1-2.61-2.38c0-1.34,1-2.29,2.55-2.86a16,16,0,0,1,3.83-.81V196a2.22,2.22,0,0,0-2.23-2.44,3.66,3.66,0,0,0-2.55.93c-.22.3-.35.85-.64.85s-.52-.74-.52-1.12a5.72,5.72,0,0,1,3.71-1.36,3,3,0,0,1,3.22,3.12v.35l0,4.12a3.58,3.58,0,0,0,.1,1.34A1.68,1.68,0,0,0,576.53,202Z"/><path d="M582.4,202l-.11.4a27.07,27.07,0,0,0-3.37,0l-.11-.4c0-.11,1.37-.2,1.39-1v-6.36a.52.52,0,0,0-.53-.57,2.87,2.87,0,0,0-1,.15l-.2-.39,2-1a.85.85,0,0,1,.68.33V201C581.21,201.78,582.4,201.87,582.4,202Zm7,0-.11.4a25.49,25.49,0,0,0-3.27,0l-.14-.4c0-.11,1.19-.2,1.21-1v-5.08a2.21,2.21,0,0,0-2.37-1.92,3.7,3.7,0,0,0-2.73,1.39l-.22-.46a4.08,4.08,0,0,1,3.17-1.81,2.9,2.9,0,0,1,3.14,2.77V201C588.08,201.78,589.37,201.87,589.37,202Z"/><path d="M599.91,203.32c0,2.27-3.3,3.31-5.63,3.26-1.78,0-3.3-1.32-3-2.05a6.1,6.1,0,0,1,2.26-2.28l.31.11a6,6,0,0,0-1.43,1.89c-.31.68,1,1.65,2.57,1.65,1.81,0,4-.73,4-2.31a1.57,1.57,0,0,0-1.15-1.43,34.65,34.65,0,0,0-4.46-.22c-.8-.09-1.59-1.08-1.39-1.45a5.84,5.84,0,0,1,1.36-1.37l.31.2c-.26.37-.55.77-.72,1.08s-.09.55.61.66c.88.13,3,0,4.36.15A2.06,2.06,0,0,1,599.91,203.32Zm-8-7.41a3.41,3.41,0,0,1,3.65-3.19,3.28,3.28,0,0,1,1.45.33l0,0a2,2,0,0,0,.37.11c.35,0,1.94.06,2.47.09l-.05.5c-.24,0-.88,0-1.12,0s-.62.11-.48.27l0,0a3.19,3.19,0,0,1,.64,2,3.34,3.34,0,0,1-3.59,3.13A3.14,3.14,0,0,1,592,195.91Zm1.1.07a2.41,2.41,0,0,0,2.42,2.61,2.33,2.33,0,0,0,2.24-2.61,2.49,2.49,0,0,0-2.4-2.69A2.39,2.39,0,0,0,593.05,196Z"/><path d="M610.45,203.32c0,2.27-3.3,3.31-5.63,3.26-1.79,0-3.3-1.32-3-2.05a6.2,6.2,0,0,1,2.27-2.28l.31.11a6,6,0,0,0-1.43,1.89c-.31.68,1,1.65,2.57,1.65,1.81,0,4-.73,4-2.31a1.58,1.58,0,0,0-1.15-1.43,34.71,34.71,0,0,0-4.47-.22c-.79-.09-1.58-1.08-1.38-1.45a5.84,5.84,0,0,1,1.36-1.37l.31.2c-.26.37-.55.77-.73,1.08s-.08.55.62.66c.88.13,3,0,4.36.15A2.06,2.06,0,0,1,610.45,203.32Zm-8-7.41a3.42,3.42,0,0,1,3.66-3.19,3.28,3.28,0,0,1,1.45.33l0,0a1.83,1.83,0,0,0,.37.11c.35,0,1.94.06,2.46.09l0,.5c-.24,0-.88,0-1.12,0s-.62.11-.49.27l0,0a3.19,3.19,0,0,1,.64,2,3.34,3.34,0,0,1-3.59,3.13A3.16,3.16,0,0,1,602.48,195.91Zm1.1.07a2.42,2.42,0,0,0,2.42,2.61,2.33,2.33,0,0,0,2.25-2.61,2.49,2.49,0,0,0-2.4-2.69A2.41,2.41,0,0,0,603.58,196Z"/><path d="M620.55,202l-.09.44a4.28,4.28,0,0,1-.88.07,1.26,1.26,0,0,1-.73-.22c-.33-.27-.28-.82-.28-1.92l0-3.1a15.39,15.39,0,0,0-3.32.77c-1.21.49-2,1.12-2,2.18a1.76,1.76,0,0,0,1.82,1.8,5,5,0,0,0,2.95-1.18l.15.33a5.33,5.33,0,0,1-3.38,1.56,2.48,2.48,0,0,1-2.62-2.38c0-1.34,1-2.29,2.55-2.86a16,16,0,0,1,3.83-.81V196a2.21,2.21,0,0,0-2.22-2.44,3.67,3.67,0,0,0-2.56.93c-.22.3-.35.85-.63.85s-.53-.74-.53-1.12a5.74,5.74,0,0,1,3.72-1.36,3,3,0,0,1,3.21,3.12v.35l0,4.12a3.52,3.52,0,0,0,.11,1.34A1.62,1.62,0,0,0,620.55,202Z"/><path d="M626.42,202l-.11.4a27.07,27.07,0,0,0-3.37,0l-.11-.4c0-.11,1.37-.2,1.39-1v-6.36a.52.52,0,0,0-.53-.57,2.9,2.9,0,0,0-1,.15l-.19-.39,2-1a.83.83,0,0,1,.68.33V201C625.23,201.78,626.42,201.87,626.42,202Zm7,0-.11.4a25.64,25.64,0,0,0-3.28,0l-.13-.4c0-.11,1.18-.2,1.21-1v-5.08a2.22,2.22,0,0,0-2.38-1.92,3.7,3.7,0,0,0-2.73,1.39l-.22-.46a4.08,4.08,0,0,1,3.17-1.81,2.91,2.91,0,0,1,3.15,2.77V201C632.1,201.78,633.4,201.87,633.4,202Z"/><path d="M643.93,203.32c0,2.27-3.3,3.31-5.63,3.26-1.78,0-3.3-1.32-3-2.05a6.06,6.06,0,0,1,2.27-2.28l.3.11a6,6,0,0,0-1.43,1.89c-.31.68,1,1.65,2.58,1.65,1.8,0,4-.73,4-2.31a1.56,1.56,0,0,0-1.14-1.43,34.8,34.8,0,0,0-4.47-.22c-.79-.09-1.59-1.08-1.39-1.45a5.71,5.71,0,0,1,1.37-1.37l.3.2c-.26.37-.55.77-.72,1.08s-.09.55.62.66c.88.13,3,0,4.35.15A2,2,0,0,1,643.93,203.32Zm-8-7.41a3.41,3.41,0,0,1,3.65-3.19,3.25,3.25,0,0,1,1.45.33l0,0a2,2,0,0,0,.37.11c.36,0,1.94.06,2.47.09l0,.5c-.24,0-.88,0-1.12,0s-.61.11-.48.27l0,0a3.18,3.18,0,0,1,.63,2,3.33,3.33,0,0,1-3.58,3.13A3.15,3.15,0,0,1,636,195.91Zm1.1.07a2.41,2.41,0,0,0,2.42,2.61,2.32,2.32,0,0,0,2.24-2.61,2.49,2.49,0,0,0-2.39-2.69A2.4,2.4,0,0,0,637.07,196Z"/><path d="M664.39,191.86c0,2.86-2.44,4.4-5.43,4.4a7.14,7.14,0,0,1-1.83-.17l.25-.53a9.83,9.83,0,0,0,1.38,0c2.51-.09,4.51-1.19,4.53-3.7s-1.82-3.69-4.48-3.69a9,9,0,0,0-2.67.31V201c0,.86,2.09.92,2.09,1l-.13.4c-.79-.07-4.07-.07-4.86,0l-.13-.4c0-.11,1.95-.17,2-1V189.11c0-.86-2-1.06-2-1.17l0-.41c.7.06,2.31.11,2.93.08.46,0,2-.08,3.08-.08C662.24,187.53,664.42,189,664.39,191.86Z"/><path d="M670.27,202l-.11.4a27.07,27.07,0,0,0-3.37,0l-.11-.4c0-.11,1.36-.2,1.39-1v-6.36a.52.52,0,0,0-.53-.57,2.87,2.87,0,0,0-1,.15l-.2-.39,2-1a.85.85,0,0,1,.69.33V201C669.08,201.78,670.27,201.87,670.27,202Zm2.4-7.32c-.29,0-.47-.64-.73-.62a6.87,6.87,0,0,0-2.11,1.25l-.16-.44a7.17,7.17,0,0,1,2.29-1.8,1.52,1.52,0,0,1,1.47.37C673.52,193.73,673.26,194.57,672.67,194.66Z"/><path d="M675,197.93c0-2.83,1.89-5.12,4.73-5.12,2.53,0,4.42,2,4.42,5s-1.85,5-4.69,5C676.84,202.82,675,200.88,675,197.93Zm8,0c0-2.62-1.41-4.54-3.5-4.54s-3.41,1.87-3.41,4.38,1.36,4.4,3.54,4.4C681.64,202.2,683,200.46,683,198Z"/><path d="M696.34,193.42c0,.11-1,.18-1.54,1l-3.41,8.23h-.66l-3.61-8.23c-.51-.77-1.54-.84-1.54-1l.13-.39a31.57,31.57,0,0,0,3.37,0l.11.39c0,.11-1.24.2-1.06.88l3.12,7.18,2.84-7.13c.2-.71-1-.82-1-.93l.11-.39a25.71,25.71,0,0,0,3,0Z"/><path d="M701.77,202l-.11.4a27.07,27.07,0,0,0-3.37,0l-.11-.4c0-.11,1.37-.2,1.39-1v-6.36A.52.52,0,0,0,699,194a2.87,2.87,0,0,0-1,.15l-.19-.39,2-1a.85.85,0,0,1,.68.33V201C700.58,201.78,701.77,201.87,701.77,202Zm-3.06-12.32c.07-.46.2-1.06.62-1.25a.87.87,0,0,1,1.16.37.86.86,0,0,1-.37,1.14A1.56,1.56,0,0,1,698.71,189.66Z"/><path d="M707.86,202l-.11.4a26.91,26.91,0,0,0-3.36,0l-.11-.4c0-.11,1.36-.2,1.38-1v-6.36a.52.52,0,0,0-.53-.57,2.82,2.82,0,0,0-1,.15l-.2-.39,2-1a.83.83,0,0,1,.68.33V201C706.67,201.78,707.86,201.87,707.86,202Zm7,0-.11.4a25.64,25.64,0,0,0-3.28,0l-.13-.4c0-.11,1.19-.2,1.21-1v-5.08a2.21,2.21,0,0,0-2.38-1.92,3.72,3.72,0,0,0-2.73,1.39l-.22-.46a4.08,4.08,0,0,1,3.17-1.81,2.91,2.91,0,0,1,3.15,2.77V201C713.54,201.78,714.84,201.87,714.84,202Z"/><path d="M721.46,202.84c-3,0-4.84-2-4.75-5a4.89,4.89,0,0,1,5.06-5,4.19,4.19,0,0,1,3,1.16c0,.38-.2,1-.57,1s-.35-.44-.57-.75a2.59,2.59,0,0,0-2-.79c-2.55,0-3.82,2.07-3.8,4.62s1.47,4.2,3.74,4.2a5,5,0,0,0,3.1-1.12l.4.4A5.3,5.3,0,0,1,721.46,202.84Z"/><path d="M731.47,192.81a4,4,0,0,1,4,4.18l-7,.83,0-.66,5.63-.7c.18,0,.22-.11.2-.31a3,3,0,0,0-3.06-2.71c-2.2,0-3.43,2.05-3.41,4.41s1.41,4.35,3.74,4.35a5,5,0,0,0,3.11-1.12l.39.4a5.25,5.25,0,0,1-3.58,1.34c-3,0-4.8-2-4.73-5C726.87,194.94,728.7,192.81,731.47,192.81Z"/><path d="M738.51,201.48a.92.92,0,0,1,1.16-.31c.75.35.67,1.34.49,2a4,4,0,0,1-1.25,2.14l-.25-.2c.49-.48,1-2.05.6-2.29a1,1,0,0,1-.71-.35A.92.92,0,0,1,738.51,201.48Z"/><path d="M376.85,229.24c-3,0-4.84-2-4.75-5a4.89,4.89,0,0,1,5.06-5,4.18,4.18,0,0,1,3,1.16c0,.38-.19,1-.57,1s-.35-.44-.57-.75a2.57,2.57,0,0,0-2-.79c-2.55,0-3.83,2.07-3.81,4.62s1.47,4.2,3.74,4.2a5,5,0,0,0,3.1-1.12l.4.4A5.28,5.28,0,0,1,376.85,229.24Z"/><path d="M382.2,224.33c0-2.83,1.89-5.12,4.73-5.12,2.53,0,4.42,2,4.42,5s-1.85,5-4.68,5C384.05,229.22,382.2,227.28,382.2,224.33Zm8,0c0-2.62-1.41-4.54-3.5-4.54s-3.41,1.87-3.41,4.38,1.37,4.4,3.54,4.4C388.84,228.6,390.23,226.86,390.23,224.36Z"/><path d="M397.34,228.38l-.12.4a26.91,26.91,0,0,0-3.36,0l-.11-.4c0-.11,1.36-.2,1.38-1V221a.51.51,0,0,0-.52-.57,2.84,2.84,0,0,0-1,.15l-.2-.4,2-1a.85.85,0,0,1,.69.33v7.81C396.15,228.18,397.34,228.27,397.34,228.38Zm7,0-.11.4a25.64,25.64,0,0,0-3.28,0l-.13-.4c0-.11,1.19-.2,1.21-1v-5.08a2.21,2.21,0,0,0-2.38-1.92,3.73,3.73,0,0,0-2.73,1.39l-.22-.46a4.08,4.08,0,0,1,3.17-1.81,2.91,2.91,0,0,1,3.15,2.77v5.11C403,228.18,404.31,228.27,404.31,228.38Z"/><path d="M410.07,228.38l-.11.4a26.91,26.91,0,0,0-3.36,0l-.11-.4c0-.11,1.36-.2,1.38-1V221a.52.52,0,0,0-.53-.57,2.82,2.82,0,0,0-1,.15l-.2-.4,2-1a.83.83,0,0,1,.68.33v7.81C408.88,228.18,410.07,228.27,410.07,228.38Zm7,0-.11.4a25.64,25.64,0,0,0-3.28,0l-.13-.4c0-.11,1.19-.2,1.21-1v-5.08a2.21,2.21,0,0,0-2.38-1.92,3.72,3.72,0,0,0-2.73,1.39l-.22-.46a4.08,4.08,0,0,1,3.17-1.81,2.91,2.91,0,0,1,3.15,2.77v5.11C415.75,228.18,417.05,228.27,417.05,228.38Z"/><path d="M423.69,219.21a4,4,0,0,1,4.05,4.18l-7,.83,0-.66,5.64-.7c.17,0,.22-.11.19-.31a3,3,0,0,0-3.05-2.71c-2.2,0-3.44,2-3.41,4.41s1.4,4.35,3.74,4.35a5,5,0,0,0,3.1-1.12l.39.4a5.25,5.25,0,0,1-3.58,1.34c-3,0-4.8-2-4.73-5C419.09,221.34,420.92,219.21,423.69,219.21Z"/><path d="M434.36,229.24c-3,0-4.84-2-4.75-5a4.89,4.89,0,0,1,5.06-5,4.19,4.19,0,0,1,3,1.16c0,.38-.2,1-.57,1s-.35-.44-.57-.75a2.59,2.59,0,0,0-2-.79c-2.55,0-3.82,2.07-3.8,4.62s1.47,4.2,3.74,4.2a5,5,0,0,0,3.1-1.12l.4.4A5.3,5.3,0,0,1,434.36,229.24Z"/><path d="M445.43,228.14a4.93,4.93,0,0,1-2.8,1.08c-.66,0-1.51-.6-1.51-1.26v-7.87H439.6v-.46a2.66,2.66,0,0,0,1.49-.73,6.3,6.3,0,0,0,.51-2.18h.53v2.64h2.81v.73h-2.81v7.08c0,.64,0,1.21.72,1.21a5.45,5.45,0,0,0,2.34-.61Z"/><path d="M452,219.21a4,4,0,0,1,4,4.18l-7,.83.05-.66,5.63-.7c.17,0,.22-.11.2-.31a3,3,0,0,0-3.06-2.71c-2.2,0-3.43,2-3.41,4.41s1.41,4.35,3.74,4.35a5,5,0,0,0,3.1-1.12l.4.4a5.3,5.3,0,0,1-3.59,1.34c-3,0-4.8-2-4.73-5C447.38,221.34,449.21,219.21,452,219.21Z"/><path d="M467.38,228.38l-.08.44a4.28,4.28,0,0,1-.88.07,1.26,1.26,0,0,1-.73-.22c-.33-.27-.29-.82-.29-1.92v-5.14a3.29,3.29,0,0,0-2.73-1.54c-2.2,0-3.56,2.17-3.56,4.37s1.39,3.85,3,3.85a3.08,3.08,0,0,0,2.53-1.16l.22.46a3.57,3.57,0,0,1-3,1.52c-1.91,0-3.87-1.78-3.87-4.78a4.81,4.81,0,0,1,4.58-4.88,4.24,4.24,0,0,1,2.81,1.06v-5.64a.51.51,0,0,0-.52-.57,2.84,2.84,0,0,0-1,.15l-.2-.39,2-1a.83.83,0,0,1,.68.33v13.42a3.34,3.34,0,0,0,.11,1.3A1.67,1.67,0,0,0,467.38,228.38Z"/><path d="M482.28,228.14a4.93,4.93,0,0,1-2.8,1.08c-.66,0-1.52-.6-1.52-1.26v-7.87h-1.51v-.46a2.69,2.69,0,0,0,1.49-.73,6.3,6.3,0,0,0,.51-2.18H479v2.64h2.81v.73H479v7.08c0,.64,0,1.21.72,1.21a5.45,5.45,0,0,0,2.34-.61Z"/><path d="M484.17,224.33c0-2.83,1.89-5.12,4.73-5.12,2.53,0,4.42,2,4.42,5s-1.85,5-4.69,5C486,229.22,484.17,227.28,484.17,224.33Zm8,0c0-2.62-1.41-4.54-3.5-4.54s-3.41,1.87-3.41,4.38,1.37,4.4,3.54,4.4C490.81,228.6,492.2,226.86,492.2,224.36Z"/><path d="M502.71,221.67c0-5.72,3.61-8.07,6.91-8.07a5.29,5.29,0,0,1,3.81,1.45c.37.39.48-1.15.59-1.15l.6.07c0,.77,0,3,0,3.81l-.71.06c-.11,0-.2-.77-.64-1.6-.61-1.17-1.84-1.87-3.87-1.87-2.46,0-5.52,1.8-5.52,7.08,0,4.71,2.86,6.89,5.59,6.89a6,6,0,0,0,4.84-2.38l.55.44a6.48,6.48,0,0,1-5.63,2.82C506.13,229.22,502.71,226.86,502.71,221.67Z"/><path d="M520.71,228.38l-.11.4a27.07,27.07,0,0,0-3.37,0l-.11-.4c0-.11,1.37-.2,1.39-1V214.87a.52.52,0,0,0-.53-.57,2.9,2.9,0,0,0-1,.15l-.19-.39,2-1a.85.85,0,0,1,.68.33v13.93C519.52,228.18,520.71,228.27,520.71,228.38Zm7,0-.1.4a25.64,25.64,0,0,0-3.28,0l-.14-.4c0-.11,1.19-.2,1.22-1v-5.08a2.22,2.22,0,0,0-2.38-1.92,3.7,3.7,0,0,0-2.73,1.39l-.22-.46a4.08,4.08,0,0,1,3.17-1.81,2.9,2.9,0,0,1,3.14,2.77v5.11C526.39,228.18,527.68,228.27,527.68,228.38Z"/><path d="M537.78,228.38l-.09.44a4.22,4.22,0,0,1-.88.07,1.23,1.23,0,0,1-.72-.22c-.33-.27-.29-.82-.29-1.92l0-3.1a15.68,15.68,0,0,0-3.32.77c-1.21.49-2,1.12-2,2.18a1.76,1.76,0,0,0,1.83,1.8,5.1,5.1,0,0,0,2.95-1.18l.15.33a5.38,5.38,0,0,1-3.39,1.56,2.48,2.48,0,0,1-2.62-2.38c0-1.34,1-2.29,2.56-2.86a16,16,0,0,1,3.82-.81v-.71a2.21,2.21,0,0,0-2.22-2.44,3.64,3.64,0,0,0-2.55.93c-.22.3-.35.85-.64.85s-.53-.75-.53-1.12a5.76,5.76,0,0,1,3.72-1.36,3,3,0,0,1,3.21,3.12v.35l0,4.12a3.52,3.52,0,0,0,.11,1.34A1.64,1.64,0,0,0,537.78,228.38Z"/><path d="M543.66,228.38l-.11.4a27.07,27.07,0,0,0-3.37,0l-.11-.4c0-.11,1.36-.2,1.39-1V221a.52.52,0,0,0-.53-.57,2.87,2.87,0,0,0-1,.15l-.2-.4,2-1a.85.85,0,0,1,.69.33v7.81C542.47,228.18,543.66,228.27,543.66,228.38Zm7,0-.11.4a25.64,25.64,0,0,0-3.28,0l-.13-.4c0-.11,1.19-.2,1.21-1v-5.08a2.21,2.21,0,0,0-2.38-1.92,3.7,3.7,0,0,0-2.72,1.39l-.22-.46a4,4,0,0,1,3.16-1.81,2.91,2.91,0,0,1,3.15,2.77v5.11C549.33,228.18,550.63,228.27,550.63,228.38Z"/><path d="M561.17,229.72c0,2.27-3.3,3.31-5.63,3.26-1.79,0-3.3-1.32-3-2a6.2,6.2,0,0,1,2.27-2.28l.31.11a6,6,0,0,0-1.43,1.89c-.31.68,1,1.65,2.57,1.65,1.81,0,4-.73,4-2.31a1.58,1.58,0,0,0-1.15-1.43,34.71,34.71,0,0,0-4.47-.22c-.79-.09-1.58-1.08-1.38-1.45a5.84,5.84,0,0,1,1.36-1.37l.31.2c-.26.37-.55.77-.73,1.08s-.08.55.62.66c.88.13,3,0,4.36.15A2.06,2.06,0,0,1,561.17,229.72Zm-8-7.41a3.42,3.42,0,0,1,3.66-3.19,3.28,3.28,0,0,1,1.45.33l0,0a2.11,2.11,0,0,0,.38.11c.35,0,1.94.06,2.46.09l0,.5c-.24,0-.88,0-1.12,0s-.62.11-.49.27l0,0a3.17,3.17,0,0,1,.64,2,3.34,3.34,0,0,1-3.59,3.13A3.16,3.16,0,0,1,553.2,222.31Zm1.1.07a2.42,2.42,0,0,0,2.42,2.61,2.33,2.33,0,0,0,2.25-2.61,2.49,2.49,0,0,0-2.4-2.69A2.41,2.41,0,0,0,554.3,222.38Z"/><path d="M573.12,224.44a4.92,4.92,0,0,1-4.93,4.78,8,8,0,0,1-2.47-.44l-1-.33V214.87c0-.46-.2-.55-.42-.57a3.42,3.42,0,0,0-1.07.15l-.2-.33a13.55,13.55,0,0,1,2-1,.83.83,0,0,1,.68.33v14a3.61,3.61,0,0,0,2.88,1.16c1.87,0,3.42-1.87,3.42-4.24s-1.39-4.05-3-4.05a3.33,3.33,0,0,0-2.53,1.27l-.22-.46a3.61,3.61,0,0,1,3-1.63C571.16,219.49,573.16,221.39,573.12,224.44Z"/><path d="M583.43,228.38l-.09.44a4.16,4.16,0,0,1-.88.07,1.26,1.26,0,0,1-.72-.22c-.33-.27-.29-.82-.29-1.92l0-3.1a15.68,15.68,0,0,0-3.32.77c-1.21.49-2,1.12-2,2.18a1.76,1.76,0,0,0,1.83,1.8,5.07,5.07,0,0,0,3-1.18l.15.33a5.38,5.38,0,0,1-3.39,1.56,2.48,2.48,0,0,1-2.62-2.38c0-1.34,1-2.29,2.56-2.86a16,16,0,0,1,3.82-.81v-.71a2.21,2.21,0,0,0-2.22-2.44,3.64,3.64,0,0,0-2.55.93c-.22.3-.35.85-.64.85s-.53-.75-.53-1.12a5.76,5.76,0,0,1,3.72-1.36,3,3,0,0,1,3.21,3.12v.35l0,4.12a3.52,3.52,0,0,0,.11,1.34A1.67,1.67,0,0,0,583.43,228.38Z"/><path d="M589.53,228.38l-.11.4a27.07,27.07,0,0,0-3.37,0l-.11-.4c0-.11,1.36-.2,1.39-1V221a.52.52,0,0,0-.53-.57,2.87,2.87,0,0,0-1,.15l-.2-.4,2-1a.85.85,0,0,1,.69.33v7.81C588.34,228.18,589.53,228.27,589.53,228.38Zm-3.06-12.32c.06-.46.2-1.06.61-1.25a.89.89,0,0,1,1.17.37.87.87,0,0,1-.37,1.14A1.55,1.55,0,0,1,586.47,216.06Z"/><path d="M604.64,228.14a4.9,4.9,0,0,1-2.79,1.08c-.66,0-1.52-.6-1.52-1.26v-7.87h-1.52v-.46a2.71,2.71,0,0,0,1.5-.73,6.56,6.56,0,0,0,.5-2.18h.53v2.64h2.82v.73h-2.82v7.08c0,.64,0,1.21.73,1.21a5.4,5.4,0,0,0,2.33-.61Z"/><path d="M610.32,228.38l-.11.4a27.07,27.07,0,0,0-3.37,0l-.11-.4c0-.11,1.36-.2,1.39-1V214.87a.52.52,0,0,0-.53-.57,2.87,2.87,0,0,0-1,.15l-.2-.39,2-1a.85.85,0,0,1,.69.33v13.93C609.13,228.18,610.32,228.27,610.32,228.38Zm7,0-.11.4a25.64,25.64,0,0,0-3.28,0l-.13-.4c0-.11,1.19-.2,1.21-1v-5.08a2.21,2.21,0,0,0-2.38-1.92,3.7,3.7,0,0,0-2.72,1.39l-.22-.46a4,4,0,0,1,3.16-1.81,2.91,2.91,0,0,1,3.15,2.77v5.11C616,228.18,617.29,228.27,617.29,228.38Z"/><path d="M623.05,228.38l-.11.4a26.91,26.91,0,0,0-3.36,0l-.11-.4c0-.11,1.36-.2,1.38-1V221a.51.51,0,0,0-.52-.57,2.84,2.84,0,0,0-1,.15l-.2-.4,2-1a.83.83,0,0,1,.68.33v7.81C621.87,228.18,623.05,228.27,623.05,228.38Zm2.4-7.32c-.28,0-.46-.64-.72-.62a7,7,0,0,0-2.12,1.25l-.15-.44a7.06,7.06,0,0,1,2.29-1.8,1.52,1.52,0,0,1,1.47.37C626.31,220.13,626.05,221,625.45,221.06Z"/><path d="M627.78,224.33c0-2.83,1.9-5.12,4.73-5.12,2.54,0,4.43,2,4.43,5s-1.85,5-4.69,5C629.63,229.22,627.78,227.28,627.78,224.33Zm8,0c0-2.62-1.4-4.54-3.49-4.54s-3.41,1.87-3.41,4.38,1.36,4.4,3.54,4.4C634.43,228.6,635.81,226.86,635.81,224.36Z"/><path d="M646.44,227l.24.44a4.23,4.23,0,0,1-3.21,1.63,2.87,2.87,0,0,1-3.1-2.78V221.1c0-.46-.13-.66-.35-.77a2.29,2.29,0,0,0-1-.11l-.11-.44,2-.33c.15,0,.46.22.46.33v6.51a2.19,2.19,0,0,0,2.33,1.94A3.85,3.85,0,0,0,646.44,227Zm2.77,1.36-.08.44a4.39,4.39,0,0,1-.89.07,1.23,1.23,0,0,1-.72-.22c-.33-.27-.29-.82-.29-1.92V221c0-.46-.13-.66-.35-.77a2.25,2.25,0,0,0-1-.11l-.11-.44,2-.33c.16,0,.46.22.46.33v7.15a3.45,3.45,0,0,0,.11,1.32A1.62,1.62,0,0,0,649.21,228.38Z"/><path d="M659.86,229.72c0,2.27-3.3,3.31-5.63,3.26-1.78,0-3.3-1.32-3-2a6.1,6.1,0,0,1,2.26-2.28l.31.11a6,6,0,0,0-1.43,1.89c-.31.68,1,1.65,2.57,1.65,1.81,0,4-.73,4-2.31a1.58,1.58,0,0,0-1.15-1.43,34.65,34.65,0,0,0-4.46-.22c-.8-.09-1.59-1.08-1.39-1.45a5.84,5.84,0,0,1,1.36-1.37l.31.2c-.26.37-.55.77-.72,1.08s-.09.55.61.66c.88.13,3,0,4.36.15A2.06,2.06,0,0,1,659.86,229.72Zm-8-7.41a3.41,3.41,0,0,1,3.65-3.19,3.28,3.28,0,0,1,1.45.33l0,0a1.83,1.83,0,0,0,.37.11c.35,0,1.94.06,2.47.09l0,.5c-.24,0-.88,0-1.12,0s-.62.11-.49.27l0,0a3.17,3.17,0,0,1,.64,2,3.34,3.34,0,0,1-3.59,3.13A3.14,3.14,0,0,1,651.9,222.31Zm1.1.07a2.41,2.41,0,0,0,2.42,2.61,2.33,2.33,0,0,0,2.24-2.61,2.49,2.49,0,0,0-2.4-2.69A2.39,2.39,0,0,0,653,222.38Z"/><path d="M665.62,228.38l-.11.4a26.91,26.91,0,0,0-3.36,0l-.11-.4c0-.11,1.36-.2,1.38-1V214.87a.51.51,0,0,0-.52-.57,2.84,2.84,0,0,0-1,.15l-.2-.39,2-1a.83.83,0,0,1,.68.33v13.93C664.44,228.18,665.62,228.27,665.62,228.38Zm7,0-.11.4a25.64,25.64,0,0,0-3.28,0l-.13-.4c0-.11,1.19-.2,1.21-1v-5.08a2.21,2.21,0,0,0-2.38-1.92,3.72,3.72,0,0,0-2.73,1.39l-.22-.46a4.08,4.08,0,0,1,3.17-1.81,2.91,2.91,0,0,1,3.15,2.77v5.11C671.3,228.18,672.6,228.27,672.6,228.38Z"/><path d="M687.38,228.14a4.87,4.87,0,0,1-2.79,1.08c-.66,0-1.52-.6-1.52-1.26v-7.87h-1.52v-.46a2.68,2.68,0,0,0,1.5-.73,6.56,6.56,0,0,0,.5-2.18h.53v2.64h2.82v.73h-2.82v7.08c0,.64,0,1.21.73,1.21a5.36,5.36,0,0,0,2.33-.61Z"/><path d="M693.06,228.38l-.11.4a27.07,27.07,0,0,0-3.37,0l-.11-.4c0-.11,1.37-.2,1.39-1V214.87a.52.52,0,0,0-.53-.57,2.87,2.87,0,0,0-1,.15l-.2-.39,2-1a.85.85,0,0,1,.68.33v13.93C691.87,228.18,693.06,228.27,693.06,228.38Zm7,0-.11.4a25.49,25.49,0,0,0-3.27,0l-.14-.4c0-.11,1.19-.2,1.21-1v-5.08a2.21,2.21,0,0,0-2.37-1.92,3.7,3.7,0,0,0-2.73,1.39l-.22-.46a4.08,4.08,0,0,1,3.17-1.81,2.9,2.9,0,0,1,3.14,2.77v5.11C698.74,228.18,700,228.27,700,228.38Z"/><path d="M706.68,219.21a4,4,0,0,1,4.05,4.18l-7.05.83.05-.66,5.63-.7c.18,0,.22-.11.2-.31a3,3,0,0,0-3.06-2.71c-2.2,0-3.43,2-3.41,4.41s1.41,4.35,3.74,4.35a5,5,0,0,0,3.1-1.12l.4.4a5.28,5.28,0,0,1-3.59,1.34c-3,0-4.79-2-4.73-5C702.08,221.34,703.9,219.21,706.68,219.21Z"/><path d="M734.35,228.38l-.11.4c-.81-.07-3.65-.07-4.46,0l-.11-.4c0-.11,1.65-.17,1.67-1v-5.66H722.8v5.66c0,.86,1.76.92,1.76,1l-.11.4c-.81-.07-3.74-.07-4.55,0l-.11-.4c0-.11,2-.17,2-1v-12c0-.86-2-.93-2-1l.11-.41c.81.06,3.74.06,4.55,0l.11.41c0,.11-1.74.18-1.76,1v5.52h8.54v-5.52c0-.86-1.67-.93-1.67-1l.11-.41c.81.06,3.65.06,4.46,0l.11.41c0,.11-2,.18-2,1v12C732.4,228.21,734.35,228.27,734.35,228.38Z"/><path d="M746.1,219.82c0,.11-1,.2-1.39,1h0l-5.59,11.81a7.78,7.78,0,0,1-.7,1.19,2.12,2.12,0,0,1-1.52.88,1.14,1.14,0,0,1-.68-.22,1.52,1.52,0,0,1-.13-1.08c.09-.24.42-.06.61,0,.4.23.73.34,1,.11a3.47,3.47,0,0,0,.64-.92l2.2-4.62-3.28-7.19c-.44-.82-1.34-.91-1.34-1l.11-.39a23.06,23.06,0,0,0,2.88,0l.14.39c0,.11-1.15.22-.8,1L741,227l3-6.2c.19-.71-.91-.82-.91-.93l.11-.39a22.11,22.11,0,0,0,2.82,0Z"/><path d="M751.64,219.21a4,4,0,0,1,4.05,4.18l-7,.83.05-.66,5.63-.7c.17,0,.22-.11.2-.31a3,3,0,0,0-3.06-2.71c-2.2,0-3.43,2-3.41,4.41s1.41,4.35,3.74,4.35a5,5,0,0,0,3.1-1.12l.4.4a5.3,5.3,0,0,1-3.59,1.34c-3,0-4.8-2-4.73-5C747.05,221.34,748.87,219.21,751.64,219.21Z"/><path d="M765.15,221.28a.39.39,0,0,1,.44.44v.52h-7.26a.4.4,0,0,1-.44-.44v-.52Z"/><path d="M372.21,254.69l.09-1.67h.39c.14,0,.11.51.53,1.06a3.19,3.19,0,0,0,2.45.88,2.29,2.29,0,0,0,2.55-2.09c0-1.12-.86-1.45-2.34-2-1.82-.7-3.56-1.07-3.52-2.88s1.81-2.51,3.37-2.49a6.83,6.83,0,0,1,3.15.93c-.05.31-.13,1.19-.16,1.52h-.39c-.13,0-.11-.51-.53-1.06a2.82,2.82,0,0,0-2.11-.75c-1,0-2.23.42-2.27,1.68,0,1.47,1.28,1.62,2.79,2.17,1.74.64,3.06,1.21,3.06,2.73,0,2-1.91,2.93-3.6,2.93A6.72,6.72,0,0,1,372.21,254.69Z"/><path d="M389.48,254.78l-.09.44a4.22,4.22,0,0,1-.88.07,1.23,1.23,0,0,1-.72-.22c-.33-.27-.29-.82-.29-1.92l0-3.1a15.68,15.68,0,0,0-3.32.77c-1.21.49-2,1.12-2,2.18a1.76,1.76,0,0,0,1.83,1.8,5.1,5.1,0,0,0,2.95-1.18l.15.33a5.38,5.38,0,0,1-3.39,1.56,2.48,2.48,0,0,1-2.62-2.38c0-1.34,1-2.29,2.55-2.86a16.07,16.07,0,0,1,3.83-.81v-.71a2.21,2.21,0,0,0-2.22-2.44,3.62,3.62,0,0,0-2.55.93c-.22.3-.35.85-.64.85s-.53-.74-.53-1.12a5.76,5.76,0,0,1,3.72-1.36,3,3,0,0,1,3.21,3.12v.35l0,4.12a3.52,3.52,0,0,0,.11,1.34A1.62,1.62,0,0,0,389.48,254.78Z"/><path d="M395.35,254.78l-.11.4a26.91,26.91,0,0,0-3.36,0l-.11-.4c0-.11,1.36-.2,1.38-1v-6.36a.51.51,0,0,0-.52-.57,2.84,2.84,0,0,0-1,.15l-.2-.4,2-1a.83.83,0,0,1,.68.33v7.81C394.17,254.58,395.35,254.67,395.35,254.78Zm7,0-.11.4a25.64,25.64,0,0,0-3.28,0l-.13-.4c0-.11,1.19-.2,1.21-1v-5.08a2.21,2.21,0,0,0-2.38-1.92,3.72,3.72,0,0,0-2.73,1.39l-.22-.47a4.1,4.1,0,0,1,3.17-1.8,2.91,2.91,0,0,1,3.15,2.77v5.11C401,254.58,402.33,254.67,402.33,254.78Z"/><path d="M411.79,247.67a.4.4,0,0,1,.44.45v.52H405a.39.39,0,0,1-.44-.44v-.53Z"/><path d="M414.76,248.07c0-5.72,3.61-8.07,6.91-8.07a5.26,5.26,0,0,1,3.8,1.45c.38.39.49-1.15.6-1.15l.59.07c0,.77,0,3,0,3.81l-.7.06c-.11,0-.2-.77-.64-1.6-.62-1.17-1.85-1.87-3.88-1.87-2.46,0-5.52,1.8-5.52,7.08,0,4.71,2.86,6.89,5.59,6.89a6,6,0,0,0,4.84-2.38l.55.44a6.48,6.48,0,0,1-5.63,2.82C418.17,255.62,414.76,253.26,414.76,248.07Z"/><path d="M432.75,254.78l-.11.4a26.91,26.91,0,0,0-3.36,0l-.11-.4c0-.11,1.36-.2,1.38-1V241.27a.51.51,0,0,0-.52-.57,2.84,2.84,0,0,0-1,.15l-.2-.39,2-1a.83.83,0,0,1,.68.33v13.93C431.57,254.58,432.75,254.67,432.75,254.78Zm7,0-.11.4a25.64,25.64,0,0,0-3.28,0l-.13-.4c0-.11,1.19-.2,1.21-1v-5.08a2.21,2.21,0,0,0-2.38-1.92,3.72,3.72,0,0,0-2.73,1.39l-.22-.47a4.1,4.1,0,0,1,3.17-1.8,2.91,2.91,0,0,1,3.15,2.77v5.11C438.43,254.58,439.73,254.67,439.73,254.78Z"/><path d="M449.83,254.78l-.09.44a4.28,4.28,0,0,1-.88.07,1.26,1.26,0,0,1-.73-.22c-.33-.27-.28-.82-.28-1.92l0-3.1a15.39,15.39,0,0,0-3.32.77c-1.21.49-2,1.12-2,2.18a1.76,1.76,0,0,0,1.82,1.8,5,5,0,0,0,2.95-1.18l.15.33a5.33,5.33,0,0,1-3.38,1.56,2.48,2.48,0,0,1-2.62-2.38c0-1.34,1-2.29,2.55-2.86a16,16,0,0,1,3.83-.81v-.71a2.21,2.21,0,0,0-2.22-2.44,3.67,3.67,0,0,0-2.56.93c-.22.3-.35.85-.63.85s-.53-.74-.53-1.12a5.74,5.74,0,0,1,3.72-1.36,3,3,0,0,1,3.21,3.12v.35l0,4.12a3.32,3.32,0,0,0,.11,1.34A1.62,1.62,0,0,0,449.83,254.78Z"/><path d="M455.7,254.78l-.11.4a27.07,27.07,0,0,0-3.37,0l-.11-.4c0-.11,1.37-.2,1.39-1v-6.36a.52.52,0,0,0-.53-.57,2.9,2.9,0,0,0-1,.15l-.19-.4,2-1a.85.85,0,0,1,.68.33v7.81C454.51,254.58,455.7,254.67,455.7,254.78Zm7,0-.1.4a25.64,25.64,0,0,0-3.28,0l-.14-.4c0-.11,1.19-.2,1.22-1v-5.08a2.22,2.22,0,0,0-2.38-1.92,3.7,3.7,0,0,0-2.73,1.39l-.22-.47a4.1,4.1,0,0,1,3.17-1.8,2.9,2.9,0,0,1,3.14,2.77v5.11C461.38,254.58,462.67,254.67,462.67,254.78Z"/><path d="M473.21,256.12c0,2.27-3.3,3.3-5.63,3.26-1.78,0-3.3-1.32-3-2.05a6.1,6.1,0,0,1,2.26-2.28l.31.11a6,6,0,0,0-1.43,1.89c-.31.68,1,1.65,2.58,1.65,1.8,0,4-.73,4-2.31a1.56,1.56,0,0,0-1.15-1.43,34.56,34.56,0,0,0-4.46-.22c-.79-.09-1.59-1.08-1.39-1.45a5.71,5.71,0,0,1,1.37-1.37l.3.2c-.26.37-.55.77-.72,1.08s-.09.55.61.66c.88.13,3,0,4.36.15A2,2,0,0,1,473.21,256.12Zm-8-7.41a3.41,3.41,0,0,1,3.65-3.19,3.25,3.25,0,0,1,1.45.33l0,0a2,2,0,0,0,.37.11c.36,0,1.94.06,2.47.09l0,.5c-.24,0-.88,0-1.12,0s-.61.11-.48.27l0,0a3.19,3.19,0,0,1,.64,2,3.33,3.33,0,0,1-3.58,3.13A3.15,3.15,0,0,1,465.25,248.71Zm1.1.07a2.41,2.41,0,0,0,2.42,2.61,2.32,2.32,0,0,0,2.24-2.61,2.49,2.49,0,0,0-2.4-2.69A2.39,2.39,0,0,0,466.35,248.78Z"/><path d="M485.16,250.84a4.91,4.91,0,0,1-4.93,4.78,7.91,7.91,0,0,1-2.46-.44l-1-.33V241.27c0-.46-.2-.55-.42-.57a3.48,3.48,0,0,0-1.08.15l-.2-.33a13.55,13.55,0,0,1,2-1,.85.85,0,0,1,.69.33v14a3.59,3.59,0,0,0,2.88,1.16c1.87,0,3.41-1.87,3.41-4.24s-1.39-4-3-4a3.3,3.3,0,0,0-2.53,1.27l-.22-.46a3.58,3.58,0,0,1,3-1.63C483.2,245.89,485.2,247.79,485.16,250.84Z"/><path d="M495.48,254.78l-.09.44a4.28,4.28,0,0,1-.88.07,1.26,1.26,0,0,1-.73-.22c-.33-.27-.28-.82-.28-1.92l0-3.1a15.39,15.39,0,0,0-3.32.77c-1.21.49-2,1.12-2,2.18a1.76,1.76,0,0,0,1.82,1.8,5,5,0,0,0,2.95-1.18l.15.33a5.33,5.33,0,0,1-3.38,1.56,2.48,2.48,0,0,1-2.62-2.38c0-1.34,1-2.29,2.55-2.86a16,16,0,0,1,3.83-.81v-.71a2.21,2.21,0,0,0-2.22-2.44,3.67,3.67,0,0,0-2.56.93c-.22.3-.35.85-.63.85s-.53-.74-.53-1.12a5.74,5.74,0,0,1,3.72-1.36,3,3,0,0,1,3.21,3.12v.35l0,4.12a3.32,3.32,0,0,0,.11,1.34A1.62,1.62,0,0,0,495.48,254.78Z"/><path d="M501.57,254.78l-.11.4a27.07,27.07,0,0,0-3.37,0l-.11-.4c0-.11,1.37-.2,1.39-1v-6.36a.52.52,0,0,0-.53-.57,2.9,2.9,0,0,0-1,.15l-.19-.4,2-1a.85.85,0,0,1,.68.33v7.81C500.38,254.58,501.57,254.67,501.57,254.78Zm-3.06-12.32c.07-.46.2-1.06.62-1.25a.87.87,0,0,1,1.16.37.86.86,0,0,1-.37,1.14A1.56,1.56,0,0,1,498.51,242.46Z"/><path d="M516,254.78l-.11.4c-.81-.07-4-.07-4.8,0l-.11-.4c0-.11,2-.17,2-1v-12c0-.86-2-.93-2-1l.11-.41c.82.06,4,.06,4.8,0l.11.41c0,.11-2,.18-2,1v12C514,254.61,516,254.67,516,254.78Z"/><path d="M522,254.78l-.11.4a26.91,26.91,0,0,0-3.36,0l-.11-.4c0-.11,1.36-.2,1.38-1v-6.36a.51.51,0,0,0-.52-.57,2.84,2.84,0,0,0-1,.15l-.2-.4,2-1a.83.83,0,0,1,.68.33v7.81C520.78,254.58,522,254.67,522,254.78Zm7,0-.11.4a25.64,25.64,0,0,0-3.28,0l-.13-.4c0-.11,1.19-.2,1.21-1v-5.08a2.21,2.21,0,0,0-2.38-1.92,3.72,3.72,0,0,0-2.73,1.39l-.22-.47a4.1,4.1,0,0,1,3.17-1.8,2.91,2.91,0,0,1,3.15,2.77v5.11C527.64,254.58,528.94,254.67,528.94,254.78Z"/><path d="M536.64,254.54a4.93,4.93,0,0,1-2.8,1.08c-.66,0-1.51-.6-1.51-1.26v-7.87h-1.52V246a2.66,2.66,0,0,0,1.49-.73,6.3,6.3,0,0,0,.51-2.18h.53v2.64h2.81v.73h-2.81v7.08c0,.64,0,1.21.72,1.21a5.45,5.45,0,0,0,2.34-.61Z"/><path d="M543.19,245.61a4,4,0,0,1,4,4.18l-7,.83,0-.66,5.63-.7c.17,0,.22-.11.2-.31a3,3,0,0,0-3.06-2.71c-2.2,0-3.43,2-3.41,4.41S541,255,543.35,255a5,5,0,0,0,3.1-1.12l.4.4a5.3,5.3,0,0,1-3.59,1.34c-3,0-4.8-2-4.73-5C538.6,247.74,540.42,245.61,543.19,245.61Z"/><path d="M553,254.78l-.11.4a27.07,27.07,0,0,0-3.37,0l-.11-.4c0-.11,1.36-.2,1.39-1v-6.36a.52.52,0,0,0-.53-.57,2.87,2.87,0,0,0-1,.15l-.2-.4,2-1a.85.85,0,0,1,.69.33v7.81C551.82,254.58,553,254.67,553,254.78Zm2.39-7.32c-.28,0-.46-.64-.72-.62a6.87,6.87,0,0,0-2.11,1.25l-.16-.44a7.17,7.17,0,0,1,2.29-1.8,1.52,1.52,0,0,1,1.47.37C556.26,246.53,556,247.37,555.4,247.46Z"/><path d="M561.52,254.78l-.11.4a27.07,27.07,0,0,0-3.37,0l-.11-.4c0-.11,1.37-.2,1.39-1v-6.36a.52.52,0,0,0-.53-.57,2.87,2.87,0,0,0-1,.15l-.19-.4,2-1a.85.85,0,0,1,.68.33v7.81C560.33,254.58,561.52,254.67,561.52,254.78Zm7,0-.11.4a25.49,25.49,0,0,0-3.27,0l-.14-.4c0-.11,1.19-.2,1.21-1v-5.08a2.21,2.21,0,0,0-2.37-1.92,3.7,3.7,0,0,0-2.73,1.39l-.22-.47a4.1,4.1,0,0,1,3.17-1.8,2.9,2.9,0,0,1,3.14,2.77v5.11C567.2,254.58,568.49,254.67,568.49,254.78Z"/><path d="M578.59,254.78l-.09.44a4.22,4.22,0,0,1-.88.07,1.23,1.23,0,0,1-.72-.22c-.33-.27-.29-.82-.29-1.92l0-3.1a15.68,15.68,0,0,0-3.32.77c-1.21.49-2,1.12-2,2.18a1.76,1.76,0,0,0,1.83,1.8,5.1,5.1,0,0,0,3-1.18l.15.33a5.38,5.38,0,0,1-3.39,1.56,2.48,2.48,0,0,1-2.62-2.38c0-1.34,1-2.29,2.56-2.86a16,16,0,0,1,3.82-.81v-.71a2.21,2.21,0,0,0-2.22-2.44,3.64,3.64,0,0,0-2.55.93c-.22.3-.35.85-.64.85s-.53-.74-.53-1.12a5.76,5.76,0,0,1,3.72-1.36,3,3,0,0,1,3.21,3.12v.35l0,4.12a3.52,3.52,0,0,0,.11,1.34A1.62,1.62,0,0,0,578.59,254.78Z"/><path d="M586.4,254.54a4.87,4.87,0,0,1-2.79,1.08c-.66,0-1.52-.6-1.52-1.26v-7.87h-1.52V246a2.68,2.68,0,0,0,1.5-.73,6.56,6.56,0,0,0,.5-2.18h.53v2.64h2.82v.73H583.1v7.08c0,.64,0,1.21.73,1.21a5.36,5.36,0,0,0,2.33-.61Z"/><path d="M592.3,254.78l-.11.4a27.07,27.07,0,0,0-3.37,0l-.11-.4c0-.11,1.37-.2,1.39-1v-6.36a.52.52,0,0,0-.53-.57,2.87,2.87,0,0,0-1,.15l-.2-.4,2-1a.85.85,0,0,1,.68.33v7.81C591.11,254.58,592.3,254.67,592.3,254.78Zm-3.06-12.32c.07-.46.2-1.06.62-1.25a.85.85,0,1,1,.79,1.51A1.56,1.56,0,0,1,589.24,242.46Z"/><path d="M594.61,250.73c0-2.83,1.89-5.12,4.73-5.12,2.53,0,4.42,2,4.42,5s-1.85,5-4.69,5C596.46,255.62,594.61,253.68,594.61,250.73Zm8,0c0-2.62-1.41-4.54-3.5-4.54s-3.41,1.87-3.41,4.38,1.36,4.4,3.54,4.4C601.25,255,602.64,253.26,602.64,250.76Z"/><path d="M609.74,254.78l-.11.4a26.91,26.91,0,0,0-3.36,0l-.11-.4c0-.11,1.36-.2,1.38-1v-6.36a.52.52,0,0,0-.53-.57,2.82,2.82,0,0,0-1,.15l-.2-.4,2-1a.83.83,0,0,1,.68.33v7.81C608.55,254.58,609.74,254.67,609.74,254.78Zm7,0-.11.4a25.64,25.64,0,0,0-3.28,0l-.13-.4c0-.11,1.19-.2,1.21-1v-5.08a2.21,2.21,0,0,0-2.38-1.92,3.72,3.72,0,0,0-2.73,1.39l-.22-.47a4.1,4.1,0,0,1,3.17-1.8,2.91,2.91,0,0,1,3.15,2.77v5.11C615.42,254.58,616.72,254.67,616.72,254.78Z"/><path d="M626.82,254.78l-.09.44a4.28,4.28,0,0,1-.88.07,1.26,1.26,0,0,1-.73-.22c-.33-.27-.28-.82-.28-1.92l0-3.1a15.39,15.39,0,0,0-3.32.77c-1.21.49-2,1.12-2,2.18a1.77,1.77,0,0,0,1.83,1.8,5,5,0,0,0,3-1.18l.15.33a5.33,5.33,0,0,1-3.39,1.56,2.48,2.48,0,0,1-2.61-2.38c0-1.34,1-2.29,2.55-2.86a16,16,0,0,1,3.83-.81v-.71a2.21,2.21,0,0,0-2.22-2.44,3.67,3.67,0,0,0-2.56.93c-.22.3-.35.85-.63.85s-.53-.74-.53-1.12a5.74,5.74,0,0,1,3.72-1.36,3,3,0,0,1,3.21,3.12v.35l0,4.12a3.32,3.32,0,0,0,.11,1.34A1.62,1.62,0,0,0,626.82,254.78Z"/><path d="M632.8,254.78l-.11.4a27.07,27.07,0,0,0-3.37,0l-.11-.4c0-.11,1.37-.2,1.39-1V241.27a.52.52,0,0,0-.53-.57,2.9,2.9,0,0,0-1,.15l-.19-.39,2-1a.85.85,0,0,1,.68.33v13.93C631.61,254.58,632.8,254.67,632.8,254.78Z"/><path d="M653.66,251c0,2.86-2.53,4.23-5.35,4.23-1.1,0-5.52,0-6,0l-.14-.4c0-.11,1.92-.11,1.94-1V241.73c0-.85-1.94-.9-1.94-1l.14-.44c.28,0,4.15.05,5.67.05,2.49,0,4.58,1.34,4.58,3.43a3.53,3.53,0,0,1-2.6,3.56A3.91,3.91,0,0,1,653.66,251Zm-1.1.18c0-2.2-2-3.3-4.23-3.37-.66,0-1.3,0-1.65,0v-.59c.35,0,1-.05,1.54-.11,1.87-.24,3.3-1.35,3.3-3.11,0-2.06-1.82-3-4-3a14.92,14.92,0,0,0-2.31.13v13.12a9.86,9.86,0,0,0,2.93.35C650.6,254.52,652.56,253.29,652.56,251.13Z"/><path d="M659.64,254.78l-.11.4a27.07,27.07,0,0,0-3.37,0l-.11-.4c0-.11,1.37-.2,1.39-1v-6.36a.52.52,0,0,0-.53-.57,2.9,2.9,0,0,0-1,.15l-.19-.4,2-1a.85.85,0,0,1,.68.33v7.81C658.45,254.58,659.64,254.67,659.64,254.78Zm2.4-7.32c-.29,0-.46-.64-.73-.62a6.87,6.87,0,0,0-2.11,1.25l-.15-.44a7.15,7.15,0,0,1,2.28-1.8,1.54,1.54,0,0,1,1.48.37C662.9,246.53,662.63,247.37,662,247.46Z"/><path d="M668.37,254.78l-.11.4a26.91,26.91,0,0,0-3.36,0l-.11-.4c0-.11,1.36-.2,1.38-1v-6.36a.51.51,0,0,0-.53-.57,2.82,2.82,0,0,0-1,.15l-.2-.4,2-1a.83.83,0,0,1,.68.33v7.81C667.19,254.58,668.37,254.67,668.37,254.78Zm-3.06-12.32c.07-.46.2-1.06.62-1.25a.89.89,0,0,1,1.17.37.86.86,0,0,1-.38,1.14A1.56,1.56,0,0,1,665.31,242.46Z"/><path d="M680.06,254.78l-.09.44a4.28,4.28,0,0,1-.88.07,1.26,1.26,0,0,1-.73-.22c-.33-.27-.28-.82-.28-1.92V248a3.32,3.32,0,0,0-2.73-1.55c-2.2,0-3.57,2.18-3.57,4.38s1.39,3.85,3,3.85a3.07,3.07,0,0,0,2.53-1.16l.23.46a3.6,3.6,0,0,1-3,1.52c-1.91,0-3.87-1.78-3.87-4.78a4.82,4.82,0,0,1,4.58-4.88,4.29,4.29,0,0,1,2.82,1.05v-5.63a.52.52,0,0,0-.53-.57,2.84,2.84,0,0,0-1,.15l-.2-.39,2-1a.85.85,0,0,1,.69.33v13.42a3.15,3.15,0,0,0,.11,1.3A1.62,1.62,0,0,0,680.06,254.78Z"/><path d="M690.7,256.12c0,2.27-3.3,3.3-5.63,3.26-1.78,0-3.3-1.32-3-2.05a6.1,6.1,0,0,1,2.26-2.28l.31.11a6,6,0,0,0-1.43,1.89c-.31.68,1,1.65,2.58,1.65,1.8,0,4-.73,4-2.31a1.56,1.56,0,0,0-1.15-1.43,34.56,34.56,0,0,0-4.46-.22c-.79-.09-1.59-1.08-1.39-1.45a5.71,5.71,0,0,1,1.37-1.37l.3.2c-.26.37-.55.77-.72,1.08s-.09.55.61.66c.88.13,3,0,4.36.15A2,2,0,0,1,690.7,256.12Zm-8-7.41a3.41,3.41,0,0,1,3.65-3.19,3.25,3.25,0,0,1,1.45.33l0,0a2,2,0,0,0,.37.11c.36,0,1.94.06,2.47.09l0,.5c-.24,0-.88,0-1.12,0s-.61.11-.48.27l0,0a3.13,3.13,0,0,1,.64,2A3.33,3.33,0,0,1,686,252,3.15,3.15,0,0,1,682.74,248.71Zm1.1.07a2.41,2.41,0,0,0,2.42,2.61,2.32,2.32,0,0,0,2.24-2.61,2.49,2.49,0,0,0-2.4-2.69A2.39,2.39,0,0,0,683.84,248.78Z"/><path d="M697.35,245.61a4,4,0,0,1,4,4.18l-7,.83,0-.66,5.63-.7c.18,0,.22-.11.2-.31a3,3,0,0,0-3.06-2.71c-2.2,0-3.43,2-3.41,4.41s1.41,4.35,3.74,4.35a5,5,0,0,0,3.1-1.12l.4.4a5.28,5.28,0,0,1-3.59,1.34c-3,0-4.79-2-4.73-5C692.75,247.74,694.57,245.61,697.35,245.61Z"/><path d="M704.25,254.8a.92.92,0,1,1,1.83,0,.92.92,0,0,1-1.83,0Z"/><text class="g" transform="translate(371.11 136.83)">량강도 북부에 위치하며 혜장교를 통해 <tspan x="0" y="26.4">창바이 조선족 자치현과 연결된다. </tspan></text><text class="d" transform="translate(135.92 454.65)">19<tspan class="h" x="51.19" y="0">7</tspan><tspan x="72.79" y="0">,000</tspan></text><text class="i" transform="translate(131.44 374.8)">인구</text><text class="j" transform="translate(187.86 374.8)">Popul<tspan class="k" x="54.29" y="0">a</tspan><tspan x="64.54" y="0">tion</tspan></text><text class="j" transform="translate(304.53 374.8)">(2008)</text><text class="j" transform="translate(388.34 527.92)">(2017)</text><text class="i" transform="translate(131.44 527.57)">교류 규모</text><text class="j" transform="translate(245.27 527.57)">Trade <tspan class="l" x="61.41" y="0">V</tspan><tspan x="72.41" y="0">olume</tspan></text><text class="d" transform="translate(252.62 615.64)">468,648</text><text class="g" transform="translate(482.93 590.77)">명</text><text class="g" transform="translate(482.93 612.72)">pe<tspan class="m" x="22.86" y="0">o</tspan><tspan x="33.77" y="0">ple</tspan></text><text class="g" transform="translate(344.16 431.73)">명</text><text class="g" transform="translate(344.15 453.68)">pe<tspan class="m" x="22.86" y="0">o</tspan><tspan x="33.77" y="0">ple</tspan></text><text class="d" transform="translate(251.97 698.17)">358,029</text><text class="g" transform="translate(482.93 673.3)">톤</text><text class="g" transform="translate(482.93 695.25)">tons</text><line class="n" x1="130.62" y1="285.65" x2="772.95" y2="285.65"/><text class="o" transform="translate(1792.02 920.71)">Source<tspan x="-486.79" y="21.6">북·중 국경 관리실태와 남북 접경 관리에의 적용 가능성 연구(2019)</tspan><tspan x="-430.41" y="43.2">A Study on the the No</tspan><tspan class="p" x="-242.87" y="43.2">r</tspan><tspan x="-235.94" y="43.2">th-China Border and the Possibility</tspan><tspan x="-453.97" y="64.8">of Application to the Management of the South-No</tspan><tspan class="q" x="-29.2" y="64.8">r</tspan><tspan class="r" x="-22.26" y="64.8">th Border</tspan><tspan x="-499.12" y="86.4">Ebe</tspan><tspan class="s" x="-468.32" y="86.4">r</tspan><tspan x="-461.21" y="86.4">stadt and Banister(1992a: 22-23); (조선)중앙통계국(1994, 2009)</tspan></text><circle class="b" cx="151.11" cy="570.64" r="7.04"/><polygon class="b" points="135.92 581.99 166.3 581.99 150.33 618.72 135.92 581.99"/><circle class="b" cx="218.17" cy="570.64" r="7.04"/><polygon class="b" points="202.98 581.99 233.36 581.99 217.39 618.72 202.98 581.99"/><circle class="b" cx="184.64" cy="570.64" r="7.04"/><polygon class="b" points="169.45 581.99 199.83 581.99 183.86 618.72 169.45 581.99"/><rect class="a" x="135.48" y="664.68" width="99" height="7.4"/><rect class="a" x="160.81" y="664.68" width="48.33" height="7.4" transform="translate(-483.41 853.36) rotate(-90)"/><rect class="t" x="1572.35" y="69.91" width="275.66" height="364.96"/><path d="M1847.51,70.41v364H1572.85v-364h274.66m1-1H1571.85v366h276.66v-366Z"/><text class="i" transform="translate(1666.62 123.14)">도시권</text><text class="j" transform="translate(1666.62 155.69)">ur<tspan class="u" x="22.51" y="0">b</tspan><tspan x="33.29" y="0">an area</tspan></text><text class="i" transform="translate(1662.18 363.32)">국경통과지점</text><text class="j" transform="translate(1662.18 395.87)">border Crossing</text><polygon class="v" points="1619.26 343.97 1619.26 363.97 1601.32 366.29 1620.76 376.34 1618.66 395.87 1629.55 374.43 1643.46 393.36 1638.56 369.92 1652.94 362.39 1632.24 361.83 1619.26 343.97"/><rect class="w" x="1601.32" y="104.07" width="51.62" height="51.62"/><text class="i" transform="translate(1666.62 196.38)">비도시권</text><text class="j" transform="translate(1666.62 228.93)">subur<tspan class="x" x="55.89" y="0">b</tspan><tspan x="66.67" y="0">an area</tspan></text><text class="i" transform="translate(1666.62 276.35)">육로</text><text class="y" transform="translate(1666.62 308.9)">o<tspan class="z" x="10.94" y="0">verland route</tspan></text><rect class="a" x="1601.32" y="177.3" width="51.62" height="51.62"/><rect class="aa" x="1601.32" y="269.54" width="51.62" height="25.81"/><text class="ab" transform="translate(825.88 868.34)">rason</text><text class="ab" transform="translate(1151.36 285.65)">HUNCHUN</text><polygon class="ac" points="1021.88 563.6 1021.88 589.26 990 592.25 1024.53 605.14 1020.8 630.21 1040.14 602.69 1064.86 626.99 1056.14 596.9 1081.69 587.23 1044.93 586.52 1021.88 563.6"/><polygon points="865.4 0 850.42 128.22 905.96 325.48 1130.84 528.66 1170.29 735.78 1132.32 1080 1210.48 1080 1221.27 700.27 1164.37 502.69 941.74 292.92 889.87 112.44 931.6 0 865.4 0"/><line class="ad" x1="1096.11" y1="577.68" x2="1232.6" y2="527.57"/><polygon class="ae" points="1528.98 469.89 1352.29 527.57 1420.34 419.65 1517.25 349.31 1545.36 419.65 1528.98 469.89"/><polygon class="af" points="1493.07 385.63 1480.34 411.03 1452.83 419.65 1470.59 428.07 1466.78 453.68 1486.54 425.56 1511.78 450.38 1502.88 419.65 1528.98 409.78 1496.77 406.92 1493.07 385.63"/></svg>