<svg xmlns="http://www.w3.org/2000/svg" viewBox="0 0 1920 1080"><defs><style>.a{fill:#1e1e1e;}</style></defs><rect class="a" y="715.98" width="1920" height="20"/><path d="M578.36,523a4.44,4.44,0,0,0,.49-1.86V512H564.69v9.14c0,1.67.71,2.5,2.14,2.5H568v1.09h-9.71v-1H560c1.36,0,2-.85,2-2.53v-18.6c0-1.69-.68-2.53-2-2.53h-1.69V499H568v1.06h-1.3c-1.36,0-2,.84-2,2.53V511h14.16v-8.4c0-1.69-.71-2.53-2.14-2.53h-1.34V499H585v1.06h-1.3c-1.45,0-2.18.84-2.18,2.53v18.49a3.2,3.2,0,0,0,.44,1.93,2.11,2.11,0,0,0,1.74.57H585v1.09h-9.6v-1h1.34A1.74,1.74,0,0,0,578.36,523Z"/><path d="M606,515.94a9.18,9.18,0,0,1-2.5,6.47,7.67,7.67,0,0,1-3,2,10.46,10.46,0,0,1-3.67.65,10.31,10.31,0,0,1-3.8-.69,6.85,6.85,0,0,1-2.88-2.05,10.33,10.33,0,0,1-2.11-6.72,10.19,10.19,0,0,1,2.28-6.61,7.61,7.61,0,0,1,3-2.18,9.56,9.56,0,0,1,3.65-.7,9.89,9.89,0,0,1,3.82.74,7.73,7.73,0,0,1,3,2.21A10.61,10.61,0,0,1,606,515.94Zm-2.18-.24a10.5,10.5,0,0,0-1.51-5.8,5.82,5.82,0,0,0-2.32-2.15,6.68,6.68,0,0,0-3-.7,5.88,5.88,0,0,0-5.09,2.92,10.49,10.49,0,0,0-1.52,5.62,11.24,11.24,0,0,0,1.45,5.7,5.71,5.71,0,0,0,2.23,2.19,5.93,5.93,0,0,0,2.83.73,7,7,0,0,0,3.08-.69,5.83,5.83,0,0,0,2.33-2.06A10.37,10.37,0,0,0,603.78,515.7Z"/><path d="M635.31,508.91a9.17,9.17,0,0,0-1.44,2.6l-5.52,13.78h-.59l-4.36-12.83-4.57,12.83h-.74l-5.77-14.87a7.91,7.91,0,0,0-.84-1.86,3.64,3.64,0,0,0-2.74-.77v-.85h8.65v.85c-1.79,0-2.68.54-2.68,1.61a7.07,7.07,0,0,0,.39,1.62l4,10.79,3.73-10.93a7.6,7.6,0,0,0-1.44-2.14,4,4,0,0,0-2.36-.95v-.85h8.55v.85c-1.81,0-2.71.55-2.71,1.65a5.59,5.59,0,0,0,.28,1l3.52,11.39,4.21-10.54a3.83,3.83,0,0,0,.46-1.62q0-1.86-2.49-1.86v-.85H638v.85A3.48,3.48,0,0,0,635.31,508.91Z"/><path d="M655.6,523.12a12,12,0,0,1-1.65,1.16,9.05,9.05,0,0,1-4.57,1.12,8.77,8.77,0,0,1-6.3-2.46,8,8,0,0,1-2.7-6.15,11.72,11.72,0,0,1,2.39-7.35,8.15,8.15,0,0,1,6.75-3.34q7.17,0,7.91,8.51H643a.67.67,0,0,0,0,.28v.88a8.92,8.92,0,0,0,1.86,5.83,6.66,6.66,0,0,0,5.49,2.5,6.82,6.82,0,0,0,3.55-1.13c.47-.3,1-.63,1.47-1a18.39,18.39,0,0,0,1.59-1.25l.73.5C656.92,522,656.23,522.6,655.6,523.12Zm-1.9-14a4.58,4.58,0,0,0-4.08-2q-4.92,0-6.36,6.61H654.9A7.85,7.85,0,0,0,653.7,509.09Z"/><path d="M679.47,508.14c-.84.23-1.64,1.23-2.39,3l-5.91,14.06h-.59L664.21,511a10.57,10.57,0,0,0-1.61-2.85,7.06,7.06,0,0,0-2.22-.63v-.84h8.4v.95a3.39,3.39,0,0,0-2,.38c-.39.26-.59.52-.59.78l.59,1.61,4.82,11.29,4.33-10.44a4.75,4.75,0,0,0,.56-1.65,2,2,0,0,0-.71-1.38,3.94,3.94,0,0,0-2.14-.59v-.85h7.56v.74A3.81,3.81,0,0,0,679.47,508.14Z"/><path d="M698.46,523.12a12.59,12.59,0,0,1-1.66,1.16,9,9,0,0,1-4.57,1.12,8.75,8.75,0,0,1-6.29-2.46,8,8,0,0,1-2.71-6.15,11.78,11.78,0,0,1,2.39-7.35,8.17,8.17,0,0,1,6.75-3.34q7.17,0,7.91,8.51H685.87a.6.6,0,0,0,0,.28v.88a8.92,8.92,0,0,0,1.87,5.83,6.62,6.62,0,0,0,5.48,2.5,6.8,6.8,0,0,0,3.55-1.13c.47-.3,1-.63,1.48-1a18.31,18.31,0,0,0,1.58-1.25l.74.5C699.78,522,699.09,522.6,698.46,523.12Zm-1.9-14a4.61,4.61,0,0,0-4.08-2q-4.92,0-6.36,6.61h11.63A7.92,7.92,0,0,0,696.56,509.09Z"/><path d="M717.51,507.79q0,1.44-2,1.44a16.53,16.53,0,0,1-2.74-.74,2.89,2.89,0,0,0-2,1.13,5.13,5.13,0,0,0-1.27,2,12,12,0,0,0-.73,4.08v5.76a1.93,1.93,0,0,0,1,2,6.4,6.4,0,0,0,2.39.32v1h-8.89v-1a5.32,5.32,0,0,0,2.28-.32,2.09,2.09,0,0,0,.85-2V509.83q0-1.59-2.61-1.59h-.52v-.84a6.89,6.89,0,0,0,3-.56c.33-.17.7-.37,1.11-.62s.87-.53,1.39-.86v5.52a10.2,10.2,0,0,1,2.46-3.51,6,6,0,0,1,4-1.38Q717.51,506,717.51,507.79Z"/><path d="M727.49,523.71q0,3.45-4.57,5.8l-.45-.73a9,9,0,0,0,1.49-1,5.93,5.93,0,0,0,1-1.11,1.73,1.73,0,0,0,.6-1.19c0-.17-.07-.25-.21-.25a3.47,3.47,0,0,1-1.74-.9,2.2,2.2,0,0,1-.72-1.67,1.93,1.93,0,0,1,2-2,2.34,2.34,0,0,1,1.9.94A3.33,3.33,0,0,1,727.49,523.71Z"/><path d="M762.4,525.19q-3.72,0-3.72-4.68V507.65h-3v-.71a4.64,4.64,0,0,0,3.16-1.47q1-1.34,1.27-5.24H761v6.57h6.26v.85H761v13c0,2.09.81,3.13,2.43,3.13,1.12,0,2.24-.73,3.34-2.18l.74.49A5.67,5.67,0,0,1,762.4,525.19Z"/><path d="M783.89,523.54a2.13,2.13,0,0,0,.77-2v-8.51q0-5.52-4.08-5.52a5,5,0,0,0-2.43.7,16.32,16.32,0,0,0-3.12,3.27v10c0,1,.11,1.58.35,1.8a4.67,4.67,0,0,0,2.63.49v1h-8.5v-1a6,6,0,0,0,2.25-.39,2,2,0,0,0,1-1.9V501.53c0-.63-.19-1-.56-1.2a3,3,0,0,0-1.48-.24h-1.05v-.95a8.31,8.31,0,0,0,5.38-1.79v12.58c.63-.63,1.59-1.49,2.88-2.56a6.21,6.21,0,0,1,3.62-1.16,5,5,0,0,1,5.13,3.86,10.87,10.87,0,0,1,.39,2.85v8.65a2.57,2.57,0,0,0,.42,1.79,4.53,4.53,0,0,0,2.6.49v.85h-8.4v-.85A5.22,5.22,0,0,0,783.89,523.54Z"/><path d="M807.4,523.12a12,12,0,0,1-1.65,1.16,9,9,0,0,1-4.57,1.12,8.75,8.75,0,0,1-6.29-2.46,8,8,0,0,1-2.71-6.15,11.78,11.78,0,0,1,2.39-7.35,8.17,8.17,0,0,1,6.75-3.34q7.17,0,7.91,8.51H794.82a.6.6,0,0,0,0,.28v.88a8.87,8.87,0,0,0,1.87,5.83,6.62,6.62,0,0,0,5.48,2.5,6.8,6.8,0,0,0,3.55-1.13c.47-.3,1-.63,1.48-1a20,20,0,0,0,1.58-1.25l.74.5A27.57,27.57,0,0,1,807.4,523.12Zm-1.89-14a4.61,4.61,0,0,0-4.08-2q-4.92,0-6.37,6.61H806.7A7.92,7.92,0,0,0,805.51,509.09Z"/><path d="M826.46,507.79q0,1.44-2,1.44a16.53,16.53,0,0,1-2.74-.74,2.89,2.89,0,0,0-2,1.13,5.13,5.13,0,0,0-1.27,2,12,12,0,0,0-.73,4.08v5.76a1.93,1.93,0,0,0,1,2,6.4,6.4,0,0,0,2.39.32v1h-8.89v-1a5.36,5.36,0,0,0,2.28-.32,2.09,2.09,0,0,0,.84-2V509.83c0-1.06-.86-1.59-2.6-1.59h-.52v-.84a6.89,6.89,0,0,0,3-.56c.33-.17.7-.37,1.11-.62s.87-.53,1.39-.86v5.52a10.2,10.2,0,0,1,2.46-3.51,6,6,0,0,1,4-1.38C825.7,506,826.46,506.59,826.46,507.79Z"/><path d="M843.86,523.12a12,12,0,0,1-1.65,1.16,9.05,9.05,0,0,1-4.57,1.12,8.73,8.73,0,0,1-6.29-2.46,8,8,0,0,1-2.71-6.15,11.78,11.78,0,0,1,2.39-7.35,8.15,8.15,0,0,1,6.75-3.34q7.17,0,7.91,8.51H831.28s0,.12,0,.28v.88a8.92,8.92,0,0,0,1.86,5.83,6.66,6.66,0,0,0,5.49,2.5,6.82,6.82,0,0,0,3.55-1.13c.47-.3,1-.63,1.48-1a20,20,0,0,0,1.58-1.25l.74.5C845.19,522,844.49,522.6,843.86,523.12Zm-1.9-14a4.58,4.58,0,0,0-4.07-2q-4.93,0-6.37,6.61h11.64A7.85,7.85,0,0,0,842,509.09Z"/><path d="M869.31,523.75a1.3,1.3,0,0,0,1.06-1.37v-.46a.85.85,0,0,1,0-.35V510.42a4,4,0,0,0-.14-1.47q-.27-.6-1.23-.6h-.49a.4.4,0,0,1-.21,0h-.91v-.84a14.92,14.92,0,0,0,2.84-.7l.92-.51,1.65-1v16.45a.82.82,0,0,1,0,.32v.35a1.22,1.22,0,0,0,1.08,1.27,11.6,11.6,0,0,0,1.94.1v.85h-8.4v-.85A10.26,10.26,0,0,0,869.31,523.75Zm4.05-22.68a2.05,2.05,0,0,1-.63,1.53,2.16,2.16,0,0,1-1.55.62,2.19,2.19,0,0,1-2.15-2.15,2.12,2.12,0,0,1,.62-1.54,2,2,0,0,1,1.53-.64,2.17,2.17,0,0,1,2.18,2.18Z"/><path d="M884.22,507.19a4.14,4.14,0,0,0-2.67,1,2.94,2.94,0,0,0-1.2,2.39,2.29,2.29,0,0,0,1.55,2.18l.86.39c.32.14.68.28,1.07.42l3,1.09q5.41,2,5.42,5.49a4.3,4.3,0,0,1-1,2.88,5.45,5.45,0,0,1-2.71,1.69,7.43,7.43,0,0,1-2.5.35,10,10,0,0,1-2.49-.32,5.35,5.35,0,0,1-.69-.17l-.65-.21A4.34,4.34,0,0,0,881,524c-.14,0-.37.17-.7.5a3.59,3.59,0,0,1-.6.7l-1-6,.7-.25a9.38,9.38,0,0,0,2.53,3.73,6.39,6.39,0,0,0,4.18,1.55,5.27,5.27,0,0,0,3-.81,3,3,0,0,0,1.4-2.64c0-1.73-1.64-3.19-4.92-4.36L884,516c-.56-.17-1.22-.39-2-.65-.26-.09-.49-.19-.7-.28l-.6-.28a4.13,4.13,0,0,1-2.32-3.87,4,4,0,0,1,1.06-2.71,5.13,5.13,0,0,1,2.49-1.61,5.39,5.39,0,0,1,2.15-.35,5,5,0,0,1,.84.1l1.44.28,1.13.25a2.25,2.25,0,0,0,.87.14,12.23,12.23,0,0,0,1.16-.39,6.09,6.09,0,0,0,.57-.28l.21-.1.84,5.41-.84.25Q888.3,507.19,884.22,507.19Z"/><path d="M915.62,523.54a2.15,2.15,0,0,0,.8-2V502c0-.75-.11-1.23-.35-1.44a4.58,4.58,0,0,0-2.63-.49v-.85a10.55,10.55,0,0,0,5.41-1.89v24.22a2.23,2.23,0,0,0,.74,2,5.14,5.14,0,0,0,2.25.31v.85h-8.4v-.85A5.1,5.1,0,0,0,915.62,523.54Z"/><path d="M927.22,523.75a1.3,1.3,0,0,0,1-1.37v-.46a1,1,0,0,1,0-.35V510.42a4.29,4.29,0,0,0-.14-1.47,1.22,1.22,0,0,0-1.23-.6h-.5a.4.4,0,0,1-.21,0h-.91v-.84a15.2,15.2,0,0,0,2.85-.7l.91-.51,1.65-1v16.45a.82.82,0,0,1,0,.32v.35a1.22,1.22,0,0,0,1.09,1.27,11.45,11.45,0,0,0,1.93.1v.85h-8.4v-.85A10.39,10.39,0,0,0,927.22,523.75Zm4-22.68a2.05,2.05,0,0,1-.63,1.53,2.14,2.14,0,0,1-1.55.62,2,2,0,0,1-1.51-.64,2.05,2.05,0,0,1-.63-1.51,2.11,2.11,0,0,1,.61-1.54,2,2,0,0,1,1.53-.64,2.17,2.17,0,0,1,2.18,2.18Z"/><path d="M942.72,525.19c-2.48,0-3.73-1.56-3.73-4.68V507.65h-3v-.71a4.66,4.66,0,0,0,3.16-1.47c.63-.89,1.06-2.64,1.27-5.24h.84v6.57h6.26v.85h-6.26v13c0,2.09.81,3.13,2.43,3.13,1.12,0,2.23-.73,3.34-2.18l.73.49A5.67,5.67,0,0,1,942.72,525.19Z"/><path d="M956.89,525.19q-3.74,0-3.73-4.68V507.65h-3v-.71a4.67,4.67,0,0,0,3.17-1.47q.95-1.34,1.26-5.24h.85v6.57h6.26v.85h-6.26v13c0,2.09.81,3.13,2.42,3.13,1.13,0,2.24-.73,3.34-2.18l.74.49A5.67,5.67,0,0,1,956.89,525.19Z"/><path d="M967,523.54a2.13,2.13,0,0,0,.81-2V502a2,2,0,0,0-.35-1.44,4.62,4.62,0,0,0-2.64-.49v-.85a10.55,10.55,0,0,0,5.41-1.89v24.22a2.23,2.23,0,0,0,.74,2,5.14,5.14,0,0,0,2.25.31v.85h-8.4v-.85A5.07,5.07,0,0,0,967,523.54Z"/><path d="M991.13,523.12a12,12,0,0,1-1.65,1.16,9.05,9.05,0,0,1-4.57,1.12,8.73,8.73,0,0,1-6.29-2.46,8,8,0,0,1-2.71-6.15,11.78,11.78,0,0,1,2.39-7.35,8.15,8.15,0,0,1,6.75-3.34q7.17,0,7.91,8.51H978.55s0,.12,0,.28v.88a8.92,8.92,0,0,0,1.86,5.83,6.66,6.66,0,0,0,5.49,2.5,6.82,6.82,0,0,0,3.55-1.13c.47-.3,1-.63,1.48-1a20,20,0,0,0,1.58-1.25l.74.5C992.46,522,991.76,522.6,991.13,523.12Zm-1.9-14a4.58,4.58,0,0,0-4.08-2q-4.92,0-6.36,6.61h11.64A7.85,7.85,0,0,0,989.23,509.09Z"/><path d="M1026.16,523.4a10.47,10.47,0,0,1-1.1,1,5.28,5.28,0,0,1-3.1.84,7,7,0,0,1-5.41-2.6,9.59,9.59,0,0,1-2.29-6.54,10.16,10.16,0,0,1,2.47-7,10.35,10.35,0,0,1,2.28-2.08,5.76,5.76,0,0,1,3-.73,7.71,7.71,0,0,1,2.43.7,21.87,21.87,0,0,1,3.23,2.67v-7.7a2.15,2.15,0,0,0-.31-1.41,5.19,5.19,0,0,0-2.82-.49v-.84l1.59-.25a11.38,11.38,0,0,0,3.83-1.54v23.76a2.47,2.47,0,0,0,.84,2.15,4.84,4.84,0,0,0,2.29.59v.85l-3.24.35h-2.18v-3.24C1027.08,522.45,1026.6,523,1026.16,523.4Zm-1.52-15.4a4.49,4.49,0,0,0-2.08-.71,4.11,4.11,0,0,0-2.32.64,7.68,7.68,0,0,0-1.62,1.79,10.37,10.37,0,0,0-1.72,6.22,9.27,9.27,0,0,0,1.72,5.77,5,5,0,0,0,3.94,2.28,5.22,5.22,0,0,0,2.46-.8,13.07,13.07,0,0,0,2.6-2.92V511l-.77-1.09A7,7,0,0,0,1024.64,508Z"/><path d="M1049.84,523.12a12,12,0,0,1-1.65,1.16,9.05,9.05,0,0,1-4.57,1.12,8.75,8.75,0,0,1-6.29-2.46,8,8,0,0,1-2.71-6.15,11.78,11.78,0,0,1,2.39-7.35,8.15,8.15,0,0,1,6.75-3.34q7.17,0,7.91,8.51h-14.41s0,.12,0,.28v.88a8.92,8.92,0,0,0,1.86,5.83,6.66,6.66,0,0,0,5.49,2.5,6.82,6.82,0,0,0,3.55-1.13c.47-.3,1-.63,1.48-1a20,20,0,0,0,1.58-1.25l.74.5A27.57,27.57,0,0,1,1049.84,523.12Zm-1.9-14a4.58,4.58,0,0,0-4.07-2q-4.93,0-6.37,6.61h11.64A7.85,7.85,0,0,0,1047.94,509.09Z"/><path d="M1060.74,507.19a4.14,4.14,0,0,0-2.67,1,2.94,2.94,0,0,0-1.2,2.39,2.29,2.29,0,0,0,1.55,2.18l.86.39c.32.14.68.28,1.07.42l3,1.09q5.42,2,5.42,5.49a4.3,4.3,0,0,1-1,2.88,5.5,5.5,0,0,1-2.71,1.69,7.47,7.47,0,0,1-2.5.35,10,10,0,0,1-2.49-.32,5,5,0,0,1-.69-.17l-.65-.21a4.34,4.34,0,0,0-1.23-.36c-.14,0-.37.17-.7.5a4,4,0,0,1-.6.7l-1.05-6,.7-.25a9.38,9.38,0,0,0,2.53,3.73,6.39,6.39,0,0,0,4.18,1.55,5.27,5.27,0,0,0,3-.81,3,3,0,0,0,1.4-2.64c0-1.73-1.64-3.19-4.92-4.36l-1.44-.44c-.56-.17-1.22-.39-2-.65-.26-.09-.49-.19-.7-.28l-.6-.28a4.13,4.13,0,0,1-2.32-3.87,4,4,0,0,1,1-2.71,5.21,5.21,0,0,1,2.5-1.61,5.36,5.36,0,0,1,2.15-.35,5,5,0,0,1,.84.1l1.44.28,1.13.25a2.25,2.25,0,0,0,.87.14,12.23,12.23,0,0,0,1.16-.39,6.09,6.09,0,0,0,.57-.28l.21-.1.84,5.41-.84.25Q1064.82,507.19,1060.74,507.19Z"/><path d="M1085,523.85a8.94,8.94,0,0,1-4.73,1.34,7.62,7.62,0,0,1-6.08-2.78,9.29,9.29,0,0,1-2.32-6.36,9.85,9.85,0,0,1,2.78-7.1,9.21,9.21,0,0,1,7-3,8.46,8.46,0,0,1,3.83.85,3.26,3.26,0,0,1,2.14,3,1.48,1.48,0,0,1-1.68,1.68,1.71,1.71,0,0,1-1.2-.44,1.4,1.4,0,0,1-.49-1.1v-.14a.23.23,0,0,0,0-.14c0-.15,0-.28,0-.41s0-.25,0-.37c0-1.24-1-1.86-3-1.86a6.13,6.13,0,0,0-5.17,2.78,9.55,9.55,0,0,0-1.79,5.76,8.78,8.78,0,0,0,1.76,5.52,6,6,0,0,0,5.06,2.5q3.66,0,6.51-3.73l.7.39A9.36,9.36,0,0,1,1085,523.85Z"/><path d="M1105.25,507.79q0,1.44-2,1.44a16.27,16.27,0,0,1-2.74-.74,2.89,2.89,0,0,0-2,1.13,5.13,5.13,0,0,0-1.27,2,12,12,0,0,0-.74,4.08v5.76a1.93,1.93,0,0,0,1,2,6.36,6.36,0,0,0,2.39.32v1H1091v-1a5.36,5.36,0,0,0,2.28-.32,2.09,2.09,0,0,0,.84-2V509.83c0-1.06-.86-1.59-2.6-1.59H1091v-.84a6.89,6.89,0,0,0,3-.56c.33-.17.7-.37,1.11-.62s.87-.53,1.38-.86v5.52a10.35,10.35,0,0,1,2.47-3.51,6,6,0,0,1,4-1.38C1104.49,506,1105.25,506.59,1105.25,507.79Z"/><path d="M1110.1,523.75a1.3,1.3,0,0,0,1.05-1.37v-.46a1,1,0,0,1,0-.35V510.42A4.29,4.29,0,0,0,1111,509a1.22,1.22,0,0,0-1.23-.6h-.49a.45.45,0,0,1-.21,0h-.92v-.84a15.2,15.2,0,0,0,2.85-.7l.91-.51,1.66-1v16.45a.73.73,0,0,1,0,.32v.35a1.22,1.22,0,0,0,1.09,1.27,11.45,11.45,0,0,0,1.93.1v.85h-8.4v-.85A10.32,10.32,0,0,0,1110.1,523.75Zm4-22.68a2.05,2.05,0,0,1-.63,1.53,2.14,2.14,0,0,1-1.55.62,2.17,2.17,0,0,1-2.14-2.15,2.11,2.11,0,0,1,.61-1.54,2,2,0,0,1,1.53-.64,2.17,2.17,0,0,1,2.18,2.18Z"/><path d="M1137.17,515.21a12.46,12.46,0,0,1-1,4.85,7.73,7.73,0,0,1-3.27,3.62,5.62,5.62,0,0,1-2.81.74,7.28,7.28,0,0,1-6-3.13v5.2q0,2.43,2,2.43l.47,0,.86-.1v1h-8.89v-1a6,6,0,0,0,2.77-.39c.31-.24.46-.87.46-1.9V509.83a1.39,1.39,0,0,0-1.12-1.34c-.19-.05-.45-.09-.78-.14s-.72-.08-1.19-.11v-.7a11.16,11.16,0,0,0,5.38-2V509a7.41,7.41,0,0,1,5.66-3,6.52,6.52,0,0,1,5.17,2.85A10.14,10.14,0,0,1,1137.17,515.21Zm-2.53.1a10.14,10.14,0,0,0-.77-4.08,6.91,6.91,0,0,0-2.5-3.3,3.91,3.91,0,0,0-2.14-.64,5.35,5.35,0,0,0-3.84,1.76l-.65.74c-.22.26-.45.55-.68.88v8.72c1.5,2.62,3.3,3.94,5.41,3.94,1.41,0,2.61-.81,3.62-2.43A10.41,10.41,0,0,0,1134.64,515.31Z"/><path d="M1147.05,525.19q-3.73,0-3.73-4.68V507.65h-3v-.71a4.67,4.67,0,0,0,3.17-1.47q.95-1.34,1.26-5.24h.85v6.57h6.26v.85h-6.26v13c0,2.09.81,3.13,2.42,3.13,1.13,0,2.24-.73,3.34-2.18l.74.49A5.67,5.67,0,0,1,1147.05,525.19Z"/><path d="M1157.17,523.75a1.3,1.3,0,0,0,1.06-1.37v-.46a.85.85,0,0,1,0-.35V510.42a4,4,0,0,0-.14-1.47q-.27-.6-1.23-.6h-.49a.4.4,0,0,1-.21,0h-.91v-.84a14.92,14.92,0,0,0,2.84-.7l.92-.51,1.65-1v16.45c0,.19,0,.3,0,.32v.35a1.23,1.23,0,0,0,1.09,1.27,11.6,11.6,0,0,0,1.94.1v.85h-8.4v-.85A10.26,10.26,0,0,0,1157.17,523.75Zm4-22.68a2,2,0,0,1-.64,1.53,2.12,2.12,0,0,1-1.54.62,2.19,2.19,0,0,1-2.15-2.15,2.12,2.12,0,0,1,.62-1.54,2,2,0,0,1,1.53-.64,2.19,2.19,0,0,1,2.18,2.18Z"/><path d="M1184.53,515.94a9.23,9.23,0,0,1-2.5,6.47,7.67,7.67,0,0,1-3,2,10.5,10.5,0,0,1-3.67.65,10.31,10.31,0,0,1-3.8-.69,6.85,6.85,0,0,1-2.88-2.05,10.33,10.33,0,0,1-2.11-6.72,10.19,10.19,0,0,1,2.28-6.61,7.58,7.58,0,0,1,2.95-2.18,9.58,9.58,0,0,1,3.66-.7,9.92,9.92,0,0,1,3.82.74,7.73,7.73,0,0,1,3,2.21A10.61,10.61,0,0,1,1184.53,515.94Zm-2.18-.24a10.5,10.5,0,0,0-1.52-5.8,5.76,5.76,0,0,0-2.32-2.15,6.61,6.61,0,0,0-3-.7,5.91,5.91,0,0,0-5.1,2.92,10.58,10.58,0,0,0-1.51,5.62,11.23,11.23,0,0,0,1.44,5.7,5.73,5.73,0,0,0,2.24,2.19,5.93,5.93,0,0,0,2.83.73,6.94,6.94,0,0,0,3.07-.69,5.79,5.79,0,0,0,2.34-2.06A10.37,10.37,0,0,0,1182.35,515.7Z"/><path d="M1201.1,523.55c.44-.29.65-.9.65-1.84v-9.25a5.25,5.25,0,0,0-1-3.23,3.49,3.49,0,0,0-2.92-1.58,3.28,3.28,0,0,0-2.39,1c-.26.24-.57.53-.93.9s-.79.78-1.29,1.25v10.68c0,1.27.36,2,1.06,2.18a9.23,9.23,0,0,0,1.83.11v1h-8.41v-1a6.36,6.36,0,0,0,2.36-.25c.52-.28.77-1,.77-2V509.83c0-.52-.51-.94-1.54-1.27a10.94,10.94,0,0,0-1.59-.32v-.84a8.66,8.66,0,0,0,5.52-1.9v4c1.95-2.18,3.77-3.26,5.45-3.26a5,5,0,0,1,4,1.72,6.1,6.1,0,0,1,1.54,4.18v9.46a2.53,2.53,0,0,0,.58,1.88,2.84,2.84,0,0,0,2,.54v.71H1199V524A3.83,3.83,0,0,0,1201.1,523.55Z"/><path d="M1246.37,515.94a9.23,9.23,0,0,1-2.5,6.47,7.67,7.67,0,0,1-3,2,10.5,10.5,0,0,1-3.67.65,10.31,10.31,0,0,1-3.8-.69,6.85,6.85,0,0,1-2.88-2.05,10.33,10.33,0,0,1-2.11-6.72,10.19,10.19,0,0,1,2.28-6.61,7.58,7.58,0,0,1,3-2.18,9.58,9.58,0,0,1,3.66-.7,9.92,9.92,0,0,1,3.82.74,7.73,7.73,0,0,1,3,2.21A10.61,10.61,0,0,1,1246.37,515.94Zm-2.18-.24a10.5,10.5,0,0,0-1.52-5.8,5.82,5.82,0,0,0-2.32-2.15,6.61,6.61,0,0,0-3-.7,5.91,5.91,0,0,0-5.1,2.92,10.58,10.58,0,0,0-1.51,5.62,11.23,11.23,0,0,0,1.44,5.7,5.73,5.73,0,0,0,2.24,2.19,5.93,5.93,0,0,0,2.83.73,6.94,6.94,0,0,0,3.07-.69,5.79,5.79,0,0,0,2.34-2.06A10.37,10.37,0,0,0,1244.19,515.7Z"/><path d="M1262.47,499.74c0,.93-.41,1.4-1.23,1.4a3.73,3.73,0,0,1-1.8-.7,4.44,4.44,0,0,0-1.26-.74,5.9,5.9,0,0,0-1.27.28,2.23,2.23,0,0,0-.77,1,11.66,11.66,0,0,0-.53,4.26v1.33h5.31v1.06h-5.31v13.81a1.94,1.94,0,0,0,1,1.9c.17,0,.44.11.83.19s.88.19,1.49.3v.85H1250v-1a5.59,5.59,0,0,0,2.35-.32c.59-.3.88-1,.88-2V507.65h-4.08v-1.06h4.08c0-.47.12-1,.21-1.69s.22-1.41.39-2.28q1.86-4.81,5.52-4.82a5.53,5.53,0,0,1,1.93.49C1262.07,498.67,1262.47,499.15,1262.47,499.74Z"/><path d="M1289.47,525.19q-3.73,0-3.73-4.68V507.65h-3v-.71a4.67,4.67,0,0,0,3.17-1.47q.94-1.34,1.26-5.24h.85v6.57h6.25v.85H1288v13c0,2.09.8,3.13,2.42,3.13,1.13,0,2.24-.73,3.34-2.18l.74.49A5.67,5.67,0,0,1,1289.47,525.19Z"/><path d="M1311,523.54a2.13,2.13,0,0,0,.77-2v-8.51q0-5.52-4.08-5.52a5,5,0,0,0-2.42.7,16,16,0,0,0-3.13,3.27v10c0,1,.12,1.58.35,1.8a4.71,4.71,0,0,0,2.64.49v1h-8.51v-1a5.88,5.88,0,0,0,2.25-.39,2,2,0,0,0,1-1.9V501.53c0-.63-.18-1-.56-1.2a3,3,0,0,0-1.48-.24h-1v-.95a8.31,8.31,0,0,0,5.38-1.79v12.58c.63-.63,1.59-1.49,2.88-2.56a6.23,6.23,0,0,1,3.62-1.16,5,5,0,0,1,5.14,3.86,11.28,11.28,0,0,1,.38,2.85v8.65a2.57,2.57,0,0,0,.42,1.79,4.55,4.55,0,0,0,2.61.49v.85h-8.41v-.85A5.22,5.22,0,0,0,1311,523.54Z"/><path d="M1334.47,523.12a12.59,12.59,0,0,1-1.66,1.16,9,9,0,0,1-4.57,1.12,8.75,8.75,0,0,1-6.29-2.46,8,8,0,0,1-2.71-6.15,11.73,11.73,0,0,1,2.4-7.35,8.15,8.15,0,0,1,6.75-3.34q7.17,0,7.91,8.51h-14.42a.67.67,0,0,0,0,.28v.88a8.92,8.92,0,0,0,1.86,5.83,6.64,6.64,0,0,0,5.48,2.5,6.8,6.8,0,0,0,3.55-1.13c.47-.3,1-.63,1.48-1a18.31,18.31,0,0,0,1.58-1.25l.74.5C1335.79,522,1335.1,522.6,1334.47,523.12Zm-1.9-14a4.6,4.6,0,0,0-4.08-2q-4.92,0-6.36,6.61h11.63A7.85,7.85,0,0,0,1332.57,509.09Z"/><path d="M548.46,567.05a8.94,8.94,0,0,1-4.73,1.34,7.62,7.62,0,0,1-6.08-2.78,9.29,9.29,0,0,1-2.32-6.36,9.85,9.85,0,0,1,2.78-7.1,9.21,9.21,0,0,1,7-3,8.46,8.46,0,0,1,3.83.85,3.27,3.27,0,0,1,2.15,3,1.49,1.49,0,0,1-1.69,1.68,1.71,1.71,0,0,1-1.2-.44,1.4,1.4,0,0,1-.49-1.1V553a.23.23,0,0,0,0-.14c0-.14,0-.28,0-.41s0-.25,0-.37c0-1.24-1-1.86-3-1.86a6.13,6.13,0,0,0-5.17,2.78,9.55,9.55,0,0,0-1.79,5.76,8.78,8.78,0,0,0,1.76,5.52,6,6,0,0,0,5.06,2.5q3.66,0,6.51-3.73l.7.39A9.36,9.36,0,0,1,548.46,567.05Z"/><path d="M573,559.14a9.18,9.18,0,0,1-2.5,6.47,7.56,7.56,0,0,1-3,2,10.46,10.46,0,0,1-3.67.65,10.31,10.31,0,0,1-3.8-.69,6.85,6.85,0,0,1-2.88-2,10.33,10.33,0,0,1-2.11-6.72,10.19,10.19,0,0,1,2.28-6.61,7.54,7.54,0,0,1,3-2.18,9.53,9.53,0,0,1,3.65-.7,9.92,9.92,0,0,1,3.82.74,7.73,7.73,0,0,1,3,2.21A10.61,10.61,0,0,1,573,559.14Zm-2.18-.24a10.58,10.58,0,0,0-1.51-5.8A5.89,5.89,0,0,0,567,551a6.68,6.68,0,0,0-3-.7,6,6,0,0,0-2.83.72,5.87,5.87,0,0,0-2.26,2.2,10.49,10.49,0,0,0-1.52,5.62,11.23,11.23,0,0,0,1.44,5.7,5.87,5.87,0,0,0,5.07,2.92,6.94,6.94,0,0,0,3.07-.69,5.79,5.79,0,0,0,2.34-2.06A10.37,10.37,0,0,0,570.84,558.9Z"/><path d="M589.59,566.75c.44-.29.65-.9.65-1.84v-9.25a5.25,5.25,0,0,0-1-3.23,3.48,3.48,0,0,0-2.92-1.58,3.28,3.28,0,0,0-2.39,1c-.26.24-.57.53-.93.9L581.67,554v10.68c0,1.27.35,2,1.05,2.18a9.23,9.23,0,0,0,1.83.11v.95h-8.4V567a6.33,6.33,0,0,0,2.35-.25q.78-.42.78-2V553c0-.52-.52-.94-1.55-1.27a10.76,10.76,0,0,0-1.58-.32v-.84a8.7,8.7,0,0,0,5.52-1.9v4q2.91-3.25,5.45-3.26a5,5,0,0,1,4,1.72,6.11,6.11,0,0,1,1.55,4.18v9.46a2.49,2.49,0,0,0,.58,1.88,2.81,2.81,0,0,0,1.95.54v.71h-7.7v-.71A3.83,3.83,0,0,0,589.59,566.75Z"/><path d="M612.09,566.75c.44-.29.65-.9.65-1.84v-9.25a5.25,5.25,0,0,0-1-3.23,3.48,3.48,0,0,0-2.92-1.58,3.28,3.28,0,0,0-2.39,1c-.26.24-.57.53-.93.9L604.17,554v10.68c0,1.27.35,2,1.05,2.18a9.23,9.23,0,0,0,1.83.11v.95h-8.4V567a6.33,6.33,0,0,0,2.35-.25q.78-.42.78-2V553c0-.52-.52-.94-1.55-1.27a10.76,10.76,0,0,0-1.58-.32v-.84a8.7,8.7,0,0,0,5.52-1.9v4q2.91-3.25,5.45-3.26a5,5,0,0,1,4,1.72,6.11,6.11,0,0,1,1.55,4.18v9.46a2.49,2.49,0,0,0,.58,1.88,2.81,2.81,0,0,0,1.95.54v.71H610v-.71A3.83,3.83,0,0,0,612.09,566.75Z"/><path d="M636,566.32a12.58,12.58,0,0,1-1.65,1.16,9.08,9.08,0,0,1-4.57,1.12,8.76,8.76,0,0,1-6.3-2.46,8,8,0,0,1-2.7-6.15,11.72,11.72,0,0,1,2.39-7.35,8.15,8.15,0,0,1,6.75-3.34q7.17,0,7.91,8.51H623.43a.67.67,0,0,0,0,.28V559a8.92,8.92,0,0,0,1.86,5.83,6.64,6.64,0,0,0,5.48,2.5,6.86,6.86,0,0,0,3.56-1.13c.46-.3,1-.63,1.47-1a18.31,18.31,0,0,0,1.58-1.25l.74.5C637.34,565.17,636.65,565.8,636,566.32Zm-1.9-14a4.58,4.58,0,0,0-4.08-2q-4.92,0-6.36,6.61h11.63A7.85,7.85,0,0,0,634.12,552.29Z"/><path d="M654.28,567.05a8.94,8.94,0,0,1-4.73,1.34,7.62,7.62,0,0,1-6.08-2.78,9.29,9.29,0,0,1-2.32-6.36,9.85,9.85,0,0,1,2.78-7.1,9.21,9.21,0,0,1,7-3,8.46,8.46,0,0,1,3.83.85,3.27,3.27,0,0,1,2.15,3,1.49,1.49,0,0,1-1.69,1.68,1.71,1.71,0,0,1-1.2-.44,1.4,1.4,0,0,1-.49-1.1V553a.23.23,0,0,0,0-.14c0-.14,0-.28.05-.41s0-.25,0-.37c0-1.24-1-1.86-3-1.86a6.1,6.1,0,0,0-5.16,2.78,9.49,9.49,0,0,0-1.8,5.76,8.78,8.78,0,0,0,1.76,5.52,6,6,0,0,0,5.06,2.5q3.66,0,6.51-3.73l.7.39A9.36,9.36,0,0,1,654.28,567.05Z"/><path d="M667,568.39c-2.48,0-3.73-1.56-3.73-4.68V550.85h-3v-.71a4.66,4.66,0,0,0,3.16-1.47q.94-1.33,1.27-5.24h.84V550h6.26v.85h-6.26v13c0,2.09.81,3.13,2.43,3.13,1.12,0,2.23-.73,3.33-2.18l.74.49A5.67,5.67,0,0,1,667,568.39Z"/><path d="M677.12,567a1.3,1.3,0,0,0,1-1.37v-.46a1,1,0,0,1,0-.35V553.62a3.94,3.94,0,0,0-.15-1.47q-.27-.6-1.23-.6h-.49a.4.4,0,0,1-.21,0h-.91v-.84A14.92,14.92,0,0,0,678,550l.92-.51,1.65-1V565a.82.82,0,0,1,0,.32v.35a1.22,1.22,0,0,0,1.09,1.27,11.37,11.37,0,0,0,1.93.1v.85h-8.4v-.85A10.39,10.39,0,0,0,677.12,567Zm4-22.68a2.05,2.05,0,0,1-.63,1.53,2.16,2.16,0,0,1-1.55.62,2,2,0,0,1-1.51-.64,2.06,2.06,0,0,1-.64-1.51,2.12,2.12,0,0,1,.62-1.54,2,2,0,0,1,1.53-.64,2.17,2.17,0,0,1,2.18,2.18Z"/><path d="M705,551.34c-.84.23-1.64,1.23-2.39,3l-5.9,14.06h-.6l-6.36-14.17a10.21,10.21,0,0,0-1.62-2.85,7,7,0,0,0-2.22-.63v-.84h8.41v1a3.39,3.39,0,0,0-2,.38q-.6.39-.6.78l.6,1.61,4.81,11.29,4.33-10.44a4.75,4.75,0,0,0,.56-1.65,2,2,0,0,0-.7-1.38,4,4,0,0,0-2.15-.59V550h7.56v.74A3.81,3.81,0,0,0,705,551.34Z"/><path d="M711.43,567a1.3,1.3,0,0,0,1.05-1.37v-.46a1,1,0,0,1,0-.35V553.62a4.29,4.29,0,0,0-.14-1.47,1.22,1.22,0,0,0-1.23-.6h-.5a.4.4,0,0,1-.21,0h-.91v-.84a15.2,15.2,0,0,0,2.85-.7l.91-.51,1.65-1V565a.82.82,0,0,1,0,.32v.35a1.22,1.22,0,0,0,1.09,1.27,11.45,11.45,0,0,0,1.93.1v.85h-8.4v-.85A10.39,10.39,0,0,0,711.43,567Zm4-22.68a2.05,2.05,0,0,1-.63,1.53,2.14,2.14,0,0,1-1.55.62,2.17,2.17,0,0,1-2.14-2.15,2.11,2.11,0,0,1,.61-1.54,2,2,0,0,1,1.53-.64,2.17,2.17,0,0,1,2.18,2.18Z"/><path d="M726.93,568.39q-3.72,0-3.72-4.68V550.85h-3v-.71a4.64,4.64,0,0,0,3.16-1.47c.63-.89,1.06-2.64,1.27-5.24h.84V550h6.26v.85h-6.26v13c0,2.09.81,3.13,2.43,3.13,1.12,0,2.23-.73,3.34-2.18l.73.49A5.67,5.67,0,0,1,726.93,568.39Z"/><path d="M753.72,552.36a7.73,7.73,0,0,0-.84,1.25c-.33.57-.72,1.29-1.16,2.16l-5.17,10.76c-.26.54-.52,1-.77,1.47a9.71,9.71,0,0,1-.78,1.16,19.2,19.2,0,0,1-1.46,1.69,7.37,7.37,0,0,1-1.28,1.09,6.27,6.27,0,0,1-3.52,1q-2.88,0-2.88-1.89c0-.89.56-1.34,1.69-1.34a5.37,5.37,0,0,1,2.78.95,1.39,1.39,0,0,0,.81.25,2.81,2.81,0,0,0,2-1,10.34,10.34,0,0,0,.74-.84l1-1.27a4,4,0,0,1,.17-.4c.07-.15.15-.32.25-.51l-7.7-14.45a3.18,3.18,0,0,0-3.09-1.69v-.84h8.85v1c-1.87,0-2.81.48-2.81,1.44a10,10,0,0,0,.92,2.42l5,9.88,4.43-9.17a5.89,5.89,0,0,0,.78-2.57c0-1.34-1-2-2.92-2v-1h8.16v.84A6.57,6.57,0,0,0,753.72,552.36Z"/><path d="M794.89,558.41a12.46,12.46,0,0,1-1,4.85,7.73,7.73,0,0,1-3.27,3.62,5.62,5.62,0,0,1-2.81.74,7.28,7.28,0,0,1-6-3.13v5.2c0,1.62.68,2.43,2,2.43l.48,0,.86-.1v1h-8.89v-1a6,6,0,0,0,2.77-.39c.31-.24.46-.87.46-1.9V553a1.39,1.39,0,0,0-1.12-1.34c-.19-.05-.45-.09-.78-.14s-.72-.08-1.19-.11v-.7a11.16,11.16,0,0,0,5.38-2v3.48a7.41,7.41,0,0,1,5.66-3A6.5,6.5,0,0,1,792.6,552,10.09,10.09,0,0,1,794.89,558.41Zm-2.53.1a10,10,0,0,0-.78-4.08,6.84,6.84,0,0,0-2.49-3.3,3.91,3.91,0,0,0-2.15-.63,5.34,5.34,0,0,0-3.83,1.75l-.65.74c-.22.26-.45.55-.68.88v8.72c1.5,2.62,3.3,3.94,5.41,3.94,1.41,0,2.61-.81,3.62-2.43A10.41,10.41,0,0,0,792.36,558.51Z"/><path d="M812.33,551q0,1.44-2,1.44a16.27,16.27,0,0,1-2.74-.74,2.89,2.89,0,0,0-2,1.13,5.13,5.13,0,0,0-1.27,2,12,12,0,0,0-.74,4.08v5.76a1.93,1.93,0,0,0,1,2A6.36,6.36,0,0,0,807,567v.95h-8.9V567a5.41,5.41,0,0,0,2.29-.32,2.09,2.09,0,0,0,.84-2V553c0-1.06-.87-1.59-2.6-1.59h-.53v-.84a6.91,6.91,0,0,0,3-.56c.32-.17.69-.37,1.1-.62s.88-.53,1.39-.86v5.52a10.48,10.48,0,0,1,2.46-3.51,6.07,6.07,0,0,1,4-1.38C811.56,549.19,812.33,549.79,812.33,551Z"/><path d="M831.79,567a3.53,3.53,0,0,1-.34.38,4.65,4.65,0,0,1-.47.44,3.82,3.82,0,0,1-.48.34,3.19,3.19,0,0,1-1.58.39c-1.29,0-1.93-.92-1.93-2.75-.33.26-.77.57-1.32.92l-1.95,1.23a9.54,9.54,0,0,1-3.1.6,7.41,7.41,0,0,1-3.79-1,3.64,3.64,0,0,1-2-3.17q0-5.44,12.13-7.7v-2.88a3.21,3.21,0,0,0-.93-2.39,3.32,3.32,0,0,0-2.41-.92,4.48,4.48,0,0,0-2.92.92,9.28,9.28,0,0,0-1.23,2.49,2.11,2.11,0,0,1-2.11,1.59c-.89,0-1.34-.48-1.34-1.44q0-2.33,3-3.63a12.38,12.38,0,0,1,5-1.05q5.26,0,5.27,4.68v10.93c0,1.31.25,2,.74,2s1-.38,1.79-1.13l.46.6C832.07,566.58,831.91,566.78,831.79,567Zm-10.89-7.84c-2.43,1.24-3.65,2.78-3.65,4.6a3.13,3.13,0,0,0,1.23,2.5,5,5,0,0,0,2.64,1.09,5.84,5.84,0,0,0,3.19-.77c.1,0,1-.73,2.68-2.11v-6.86A13.3,13.3,0,0,0,820.9,559.11Z"/><path d="M848.27,567.05a8.93,8.93,0,0,1-4.72,1.34,7.62,7.62,0,0,1-6.09-2.78,9.34,9.34,0,0,1-2.32-6.36,9.85,9.85,0,0,1,2.78-7.1,9.24,9.24,0,0,1,7-3,8.46,8.46,0,0,1,3.83.85,3.27,3.27,0,0,1,2.15,3,1.49,1.49,0,0,1-1.69,1.68,1.67,1.67,0,0,1-1.19-.44,1.41,1.41,0,0,1-.5-1.1V553a.18.18,0,0,0,0-.14c0-.14,0-.28.05-.41s0-.25,0-.37c0-1.24-1-1.86-3-1.86a6.12,6.12,0,0,0-5.17,2.78,9.49,9.49,0,0,0-1.8,5.76,8.78,8.78,0,0,0,1.76,5.52,6,6,0,0,0,5.06,2.5q3.66,0,6.51-3.73l.7.39A9.36,9.36,0,0,1,848.27,567.05Z"/><path d="M861,568.39q-3.72,0-3.72-4.68V550.85h-3v-.71a4.64,4.64,0,0,0,3.16-1.47c.63-.89,1.06-2.64,1.27-5.24h.84V550h6.26v.85h-6.26v13c0,2.09.81,3.13,2.43,3.13,1.12,0,2.24-.73,3.34-2.18l.74.49A5.68,5.68,0,0,1,861,568.39Z"/><path d="M871.11,567a1.3,1.3,0,0,0,1-1.37v-.46a1,1,0,0,1,0-.35V553.62a4.29,4.29,0,0,0-.14-1.47,1.22,1.22,0,0,0-1.23-.6h-.5a.4.4,0,0,1-.21,0h-.91v-.84A15.2,15.2,0,0,0,872,550l.91-.51,1.65-1V565a.82.82,0,0,1,0,.32v.35a1.22,1.22,0,0,0,1.09,1.27,11.45,11.45,0,0,0,1.93.1v.85h-8.4v-.85A10.39,10.39,0,0,0,871.11,567Zm4-22.68a2.05,2.05,0,0,1-.63,1.53,2.14,2.14,0,0,1-1.55.62,2.17,2.17,0,0,1-2.14-2.15,2.11,2.11,0,0,1,.61-1.54,2,2,0,0,1,1.53-.64,2.17,2.17,0,0,1,2.18,2.18Z"/><path d="M893.38,567.05a9,9,0,0,1-4.73,1.34,7.62,7.62,0,0,1-6.08-2.78,9.29,9.29,0,0,1-2.32-6.36,9.81,9.81,0,0,1,2.78-7.1,9.21,9.21,0,0,1,7-3,8.49,8.49,0,0,1,3.83.85,3.26,3.26,0,0,1,2.14,3,1.48,1.48,0,0,1-1.68,1.68,1.71,1.71,0,0,1-1.2-.44,1.4,1.4,0,0,1-.49-1.1V553a.24.24,0,0,0,0-.14c0-.14,0-.28.06-.41s0-.25,0-.37c0-1.24-1-1.86-3-1.86a6.13,6.13,0,0,0-5.17,2.78,9.55,9.55,0,0,0-1.79,5.76,8.78,8.78,0,0,0,1.76,5.52,6,6,0,0,0,5.06,2.5q3.66,0,6.5-3.73l.71.39A9.43,9.43,0,0,1,893.38,567.05Z"/><path d="M914.6,566.32a12.59,12.59,0,0,1-1.66,1.16,9,9,0,0,1-4.57,1.12,8.75,8.75,0,0,1-6.29-2.46,8,8,0,0,1-2.71-6.15,11.78,11.78,0,0,1,2.39-7.35,8.17,8.17,0,0,1,6.75-3.34q7.18,0,7.91,8.51H902a.67.67,0,0,0,0,.28V559a8.92,8.92,0,0,0,1.86,5.83,6.62,6.62,0,0,0,5.48,2.5,6.8,6.8,0,0,0,3.55-1.13c.47-.3,1-.63,1.48-1a18.31,18.31,0,0,0,1.58-1.25l.74.5C915.92,565.17,915.23,565.8,914.6,566.32Zm-1.9-14a4.61,4.61,0,0,0-4.08-2q-4.92,0-6.36,6.61h11.63A7.92,7.92,0,0,0,912.7,552.29Z"/><path d="M925.49,550.39a4.14,4.14,0,0,0-2.67,1,3,3,0,0,0-1.19,2.39,2.28,2.28,0,0,0,1.54,2.18l.87.39c.31.14.67.28,1.07.42l3,1.09q5.42,2,5.41,5.49a4.3,4.3,0,0,1-1,2.88,5.45,5.45,0,0,1-2.71,1.69,7.4,7.4,0,0,1-2.49.35,10,10,0,0,1-2.5-.32,5.2,5.2,0,0,1-.68-.17l-.65-.21a4.34,4.34,0,0,0-1.23-.36c-.15,0-.38.17-.71.5a3.28,3.28,0,0,1-.6.7l-1-6,.7-.25a9.48,9.48,0,0,0,2.53,3.73,6.42,6.42,0,0,0,4.19,1.55,5.23,5.23,0,0,0,3-.81,3,3,0,0,0,1.41-2.64c0-1.73-1.64-3.19-4.92-4.36l-1.45-.44c-.56-.17-1.22-.39-2-.65l-.7-.28L922,558a4.15,4.15,0,0,1-2.32-3.87,4,4,0,0,1,1.06-2.71,5.18,5.18,0,0,1,2.49-1.61,5.39,5.39,0,0,1,2.15-.35,4.82,4.82,0,0,1,.84.1l1.44.28,1.13.25a2.27,2.27,0,0,0,.88.14c.05,0,.43-.13,1.16-.39a5.83,5.83,0,0,0,.56-.28l.21-.1.85,5.41-.85.25Q929.57,550.39,925.49,550.39Z"/><path d="M956.92,567a1.3,1.3,0,0,0,1.06-1.37v-.46a.85.85,0,0,1,0-.35V553.62a4,4,0,0,0-.14-1.47q-.27-.6-1.23-.6h-.49a.4.4,0,0,1-.21,0H955v-.84a14.92,14.92,0,0,0,2.84-.7l.92-.51,1.65-1V565c0,.19,0,.3,0,.32v.35a1.23,1.23,0,0,0,1.09,1.27,11.6,11.6,0,0,0,1.94.1v.85H955v-.85A10.26,10.26,0,0,0,956.92,567ZM961,544.27a2,2,0,0,1-.64,1.53,2.12,2.12,0,0,1-1.54.62,2.19,2.19,0,0,1-2.15-2.15,2.12,2.12,0,0,1,.62-1.54,2,2,0,0,1,1.53-.64,2.19,2.19,0,0,1,2.18,2.18Z"/><path d="M979.51,566.75c.44-.29.65-.9.65-1.84v-9.25a5.25,5.25,0,0,0-1-3.23,3.49,3.49,0,0,0-2.92-1.58,3.28,3.28,0,0,0-2.39,1c-.26.24-.57.53-.93.9s-.79.78-1.29,1.25v10.68c0,1.27.36,2,1.06,2.18a9.23,9.23,0,0,0,1.83.11v.95h-8.41V567a6.36,6.36,0,0,0,2.36-.25c.52-.28.77-1,.77-2V553c0-.52-.51-.94-1.54-1.27a10.94,10.94,0,0,0-1.59-.32v-.84a8.66,8.66,0,0,0,5.52-1.9v4q2.92-3.25,5.45-3.26a5,5,0,0,1,4,1.72,6.1,6.1,0,0,1,1.54,4.18v9.46a2.53,2.53,0,0,0,.58,1.88,2.84,2.84,0,0,0,2,.54v.71h-7.69v-.71A3.83,3.83,0,0,0,979.51,566.75Z"/><path d="M1012.93,568.39q-3.73,0-3.73-4.68V550.85h-3v-.71a4.67,4.67,0,0,0,3.17-1.47q.95-1.33,1.26-5.24h.85V550h6.25v.85h-6.25v13c0,2.09.81,3.13,2.42,3.13,1.13,0,2.24-.73,3.34-2.18l.74.49A5.67,5.67,0,0,1,1012.93,568.39Z"/><path d="M1034.41,566.74a2.13,2.13,0,0,0,.77-2v-8.51q0-5.52-4.08-5.52a5,5,0,0,0-2.42.7,16.26,16.26,0,0,0-3.13,3.27v9.95c0,1,.12,1.59.35,1.8a4.71,4.71,0,0,0,2.64.49v.95H1020V567a5.88,5.88,0,0,0,2.25-.39,2,2,0,0,0,1-1.9V544.73c0-.63-.18-1-.56-1.2a2.93,2.93,0,0,0-1.47-.24h-1.06v-.95a8.31,8.31,0,0,0,5.38-1.79v12.58c.63-.63,1.59-1.49,2.88-2.56a6.23,6.23,0,0,1,3.62-1.16,5,5,0,0,1,5.14,3.86,11.28,11.28,0,0,1,.38,2.85v8.65a2.57,2.57,0,0,0,.42,1.79,4.55,4.55,0,0,0,2.61.49v.85h-8.41v-.85A5.19,5.19,0,0,0,1034.41,566.74Z"/><path d="M1057.93,566.32a12.58,12.58,0,0,1-1.65,1.16,9.08,9.08,0,0,1-4.57,1.12,8.76,8.76,0,0,1-6.3-2.46,8,8,0,0,1-2.7-6.15,11.72,11.72,0,0,1,2.39-7.35,8.15,8.15,0,0,1,6.75-3.34q7.17,0,7.91,8.51h-14.42a.67.67,0,0,0,0,.28V559a8.92,8.92,0,0,0,1.86,5.83,6.64,6.64,0,0,0,5.48,2.5,6.86,6.86,0,0,0,3.56-1.13c.46-.3,1-.63,1.47-1a16.9,16.9,0,0,0,1.58-1.25l.74.5C1059.25,565.17,1058.56,565.8,1057.93,566.32Zm-1.9-14a4.58,4.58,0,0,0-4.08-2q-4.92,0-6.36,6.61h11.64A7.85,7.85,0,0,0,1056,552.29Z"/><path d="M1068.83,550.39a4.14,4.14,0,0,0-2.68,1,3,3,0,0,0-1.19,2.39,2.29,2.29,0,0,0,1.55,2.18l.86.39c.31.14.67.28,1.07.42l3,1.09q5.41,2,5.41,5.49a4.3,4.3,0,0,1-1,2.88,5.47,5.47,0,0,1-2.7,1.69,7.51,7.51,0,0,1-2.5.35,10.08,10.08,0,0,1-2.5-.32,5.2,5.2,0,0,1-.68-.17l-.65-.21a4.34,4.34,0,0,0-1.23-.36c-.14,0-.38.17-.71.5a3.54,3.54,0,0,1-.59.7l-1.06-6,.7-.25a9.4,9.4,0,0,0,2.54,3.73,6.37,6.37,0,0,0,4.18,1.55,5.23,5.23,0,0,0,3-.81A3,3,0,0,0,1075,564c0-1.73-1.64-3.19-4.92-4.36l-1.44-.44c-.57-.17-1.22-.39-2-.65-.26-.09-.5-.19-.71-.28l-.59-.28a4.13,4.13,0,0,1-2.32-3.87,4,4,0,0,1,1-2.71,5.21,5.21,0,0,1,2.5-1.61,5.34,5.34,0,0,1,2.14-.35,4.82,4.82,0,0,1,.84.1l1.45.28,1.12.25a2.31,2.31,0,0,0,.88.14s.43-.13,1.16-.39a5.83,5.83,0,0,0,.56-.28l.21-.1.85,5.41-.85.25C1073.58,552,1071.55,550.39,1068.83,550.39Z"/><path d="M1094.81,566.32a12.59,12.59,0,0,1-1.66,1.16,9,9,0,0,1-4.57,1.12,8.75,8.75,0,0,1-6.29-2.46,8,8,0,0,1-2.71-6.15,11.73,11.73,0,0,1,2.4-7.35,8.15,8.15,0,0,1,6.75-3.34q7.17,0,7.91,8.51h-14.42a.67.67,0,0,0,0,.28V559a8.92,8.92,0,0,0,1.86,5.83,6.64,6.64,0,0,0,5.48,2.5,6.8,6.8,0,0,0,3.55-1.13c.47-.3,1-.63,1.48-1a18.31,18.31,0,0,0,1.58-1.25l.74.5C1096.13,565.17,1095.44,565.8,1094.81,566.32Zm-1.9-14a4.6,4.6,0,0,0-4.08-2q-4.92,0-6.36,6.61h11.63A7.85,7.85,0,0,0,1092.91,552.29Z"/><path d="M1135.38,558.79a11.72,11.72,0,0,1-2,6.4q-2.2,3.4-5.45,3.41a12.23,12.23,0,0,1-3.86-1.12c-.28-.12-.6-.26-1-.43a4.24,4.24,0,0,0-2.64,1.55h-.6V544.87a1.49,1.49,0,0,0-1.68-1.69h-1.45v-.84l1.15-.18c.45-.07,1-.16,1.6-.28a8.88,8.88,0,0,0,2.67-1.33v12.23q3.48-3.48,6.12-3.48c2,0,3.77,1.1,5.2,3.3A11.35,11.35,0,0,1,1135.38,558.79Zm-2.5.11a11.6,11.6,0,0,0-1.16-5.24q-1.44-2.92-4-2.92c-1.88,0-3.72,1.33-5.52,4v7.56a5.13,5.13,0,0,0,1.72,3.73,5.47,5.47,0,0,0,3.8,1.65q2.46,0,4-3.3A13.91,13.91,0,0,0,1132.88,558.9Z"/><path d="M1156.86,559.14a9.18,9.18,0,0,1-2.5,6.47,7.56,7.56,0,0,1-3,2,10.46,10.46,0,0,1-3.67.65,10.31,10.31,0,0,1-3.8-.69,6.85,6.85,0,0,1-2.88-2,10.33,10.33,0,0,1-2.11-6.72,10.19,10.19,0,0,1,2.28-6.61,7.54,7.54,0,0,1,3-2.18,9.49,9.49,0,0,1,3.65-.7,9.92,9.92,0,0,1,3.82.74,7.73,7.73,0,0,1,3,2.21A10.61,10.61,0,0,1,1156.86,559.14Zm-2.18-.24a10.58,10.58,0,0,0-1.51-5.8,5.89,5.89,0,0,0-2.32-2.15,6.68,6.68,0,0,0-3-.7,6,6,0,0,0-2.83.72,5.87,5.87,0,0,0-2.26,2.2,10.49,10.49,0,0,0-1.52,5.62,11.23,11.23,0,0,0,1.44,5.7,5.73,5.73,0,0,0,2.24,2.19,5.82,5.82,0,0,0,2.83.73,6.94,6.94,0,0,0,3.07-.69,5.79,5.79,0,0,0,2.34-2.06A10.37,10.37,0,0,0,1154.68,558.9Z"/><path d="M1173.91,551q0,1.44-2,1.44a16.27,16.27,0,0,1-2.74-.74,2.89,2.89,0,0,0-2,1.13,5.13,5.13,0,0,0-1.27,2,12,12,0,0,0-.74,4.08v5.76a1.93,1.93,0,0,0,1,2,6.36,6.36,0,0,0,2.39.32v.95h-8.89V567a5.36,5.36,0,0,0,2.28-.32,2.09,2.09,0,0,0,.84-2V553c0-1.06-.86-1.59-2.6-1.59h-.52v-.84a6.89,6.89,0,0,0,3-.56c.33-.17.7-.37,1.11-.62s.87-.53,1.38-.86v5.52a10.35,10.35,0,0,1,2.47-3.51,6,6,0,0,1,4-1.38C1173.15,549.19,1173.91,549.79,1173.91,551Z"/><path d="M1188.34,566.6a9.52,9.52,0,0,1-1.11.95,5.25,5.25,0,0,1-3.09.84,7,7,0,0,1-5.41-2.6,9.54,9.54,0,0,1-2.29-6.54,10.2,10.2,0,0,1,2.46-7,10.61,10.61,0,0,1,2.29-2.08,5.74,5.74,0,0,1,3-.73,7.6,7.6,0,0,1,2.42.7,21.18,21.18,0,0,1,3.24,2.67v-7.7a2.14,2.14,0,0,0-.32-1.41,5.14,5.14,0,0,0-2.81-.49v-.84l1.58-.25a11.22,11.22,0,0,0,3.83-1.54v23.76a2.48,2.48,0,0,0,.85,2.15,4.79,4.79,0,0,0,2.28.59v.85l-3.23.35h-2.18V565C1189.26,565.65,1188.77,566.17,1188.34,566.6Zm-1.53-15.4a4.39,4.39,0,0,0-2.07-.7,4.08,4.08,0,0,0-2.32.63,7.47,7.47,0,0,0-1.62,1.79,10.3,10.3,0,0,0-1.72,6.22,9.21,9.21,0,0,0,1.72,5.77,5,5,0,0,0,3.94,2.28,5.22,5.22,0,0,0,2.46-.8,13.33,13.33,0,0,0,2.6-2.92v-9.25l-.77-1.09A6.92,6.92,0,0,0,1186.81,551.2Z"/><path d="M1212,566.32a12.58,12.58,0,0,1-1.65,1.16,9.08,9.08,0,0,1-4.57,1.12,8.76,8.76,0,0,1-6.3-2.46,8,8,0,0,1-2.7-6.15,11.72,11.72,0,0,1,2.39-7.35,8.15,8.15,0,0,1,6.75-3.34q7.17,0,7.91,8.51h-14.42a.67.67,0,0,0,0,.28V559a8.92,8.92,0,0,0,1.86,5.83,6.64,6.64,0,0,0,5.48,2.5,6.86,6.86,0,0,0,3.56-1.13c.46-.3,1-.63,1.47-1a18.31,18.31,0,0,0,1.58-1.25l.74.5C1213.34,565.17,1212.65,565.8,1212,566.32Zm-1.9-14a4.58,4.58,0,0,0-4.08-2q-4.92,0-6.36,6.61h11.63A7.85,7.85,0,0,0,1210.12,552.29Z"/><path d="M1231.07,551q0,1.44-2,1.44a16.53,16.53,0,0,1-2.74-.74,2.91,2.91,0,0,0-2,1.13,5.11,5.11,0,0,0-1.26,2,11.74,11.74,0,0,0-.74,4.08v5.76a1.94,1.94,0,0,0,1,2,6.4,6.4,0,0,0,2.39.32v.95h-8.89V567a5.32,5.32,0,0,0,2.28-.32,2.07,2.07,0,0,0,.85-2V553c0-1.06-.87-1.59-2.6-1.59h-.53v-.84a6.89,6.89,0,0,0,3-.56c.33-.17.7-.37,1.11-.62s.87-.53,1.39-.86v5.52a10.2,10.2,0,0,1,2.46-3.51,6,6,0,0,1,4-1.38Q1231.07,549.19,1231.07,551Z"/><path d="M1264.73,567.05a8.93,8.93,0,0,1-4.72,1.34,7.62,7.62,0,0,1-6.09-2.78,9.34,9.34,0,0,1-2.32-6.36,9.85,9.85,0,0,1,2.78-7.1,9.24,9.24,0,0,1,7-3,8.46,8.46,0,0,1,3.83.85,3.27,3.27,0,0,1,2.15,3,1.49,1.49,0,0,1-1.69,1.68,1.67,1.67,0,0,1-1.19-.44,1.41,1.41,0,0,1-.5-1.1V553a.18.18,0,0,0,0-.14c0-.14,0-.28,0-.41s0-.25,0-.37c0-1.24-1-1.86-3-1.86a6.12,6.12,0,0,0-5.17,2.78,9.48,9.48,0,0,0-1.79,5.76,8.78,8.78,0,0,0,1.75,5.52,6,6,0,0,0,5.07,2.5q3.64,0,6.5-3.73l.7.39A9.36,9.36,0,0,1,1264.73,567.05Z"/><path d="M1273.4,567a1.3,1.3,0,0,0,1.06-1.37v-.46s0-.14,0-.35V553.62a4.29,4.29,0,0,0-.14-1.47,1.22,1.22,0,0,0-1.23-.6h-.49a.45.45,0,0,1-.21,0h-.92v-.84a15.2,15.2,0,0,0,2.85-.7l.91-.51,1.66-1V565a.73.73,0,0,1,0,.32v.35a1.22,1.22,0,0,0,1.09,1.27,11.45,11.45,0,0,0,1.93.1v.85h-8.4v-.85A10.32,10.32,0,0,0,1273.4,567Zm4-22.68a2.05,2.05,0,0,1-.63,1.53,2.14,2.14,0,0,1-1.55.62,2.17,2.17,0,0,1-2.14-2.15,2.11,2.11,0,0,1,.61-1.54,2,2,0,0,1,1.53-.64,2.17,2.17,0,0,1,2.18,2.18Z"/><path d="M1288.9,568.39q-3.72,0-3.72-4.68V550.85h-3v-.71a4.64,4.64,0,0,0,3.16-1.47q1-1.33,1.27-5.24h.84V550h6.26v.85h-6.26v13c0,2.09.81,3.13,2.43,3.13,1.12,0,2.24-.73,3.34-2.18l.74.49A5.67,5.67,0,0,1,1288.9,568.39Z"/><path d="M1299,567a1.3,1.3,0,0,0,1-1.37v-.46a1,1,0,0,1,0-.35V553.62a4.29,4.29,0,0,0-.14-1.47,1.22,1.22,0,0,0-1.23-.6h-.49a.45.45,0,0,1-.21,0h-.92v-.84a15.2,15.2,0,0,0,2.85-.7l.91-.51,1.66-1V565a.73.73,0,0,1,0,.32v.35a1.22,1.22,0,0,0,1.09,1.27,11.45,11.45,0,0,0,1.93.1v.85h-8.4v-.85A10.32,10.32,0,0,0,1299,567Zm4-22.68a2.05,2.05,0,0,1-.63,1.53,2.14,2.14,0,0,1-1.55.62,2.17,2.17,0,0,1-2.14-2.15,2.11,2.11,0,0,1,.61-1.54,2,2,0,0,1,1.53-.64,2.17,2.17,0,0,1,2.18,2.18Z"/><path d="M1323,566.32a12,12,0,0,1-1.65,1.16,9.05,9.05,0,0,1-4.57,1.12,8.73,8.73,0,0,1-6.29-2.46,8,8,0,0,1-2.71-6.15,11.78,11.78,0,0,1,2.39-7.35,8.15,8.15,0,0,1,6.75-3.34q7.17,0,7.91,8.51h-14.41s0,.12,0,.28V559a8.92,8.92,0,0,0,1.86,5.83,6.66,6.66,0,0,0,5.49,2.5,6.82,6.82,0,0,0,3.55-1.13c.47-.3,1-.63,1.48-1a20,20,0,0,0,1.58-1.25l.74.5C1324.37,565.17,1323.67,565.8,1323,566.32Zm-1.9-14a4.58,4.58,0,0,0-4.08-2q-4.92,0-6.36,6.61h11.64A7.85,7.85,0,0,0,1321.14,552.29Z"/><path d="M1333.94,550.39a4.12,4.12,0,0,0-2.67,1,2.94,2.94,0,0,0-1.2,2.39,2.29,2.29,0,0,0,1.55,2.18l.86.39c.32.14.67.28,1.07.42l3,1.09q5.42,2,5.42,5.49a4.3,4.3,0,0,1-1,2.88,5.5,5.5,0,0,1-2.71,1.69,7.47,7.47,0,0,1-2.5.35,10,10,0,0,1-2.49-.32,5,5,0,0,1-.69-.17l-.65-.21a4.34,4.34,0,0,0-1.23-.36c-.14,0-.37.17-.7.5a4,4,0,0,1-.6.7l-1.06-6,.71-.25a9.38,9.38,0,0,0,2.53,3.73,6.39,6.39,0,0,0,4.18,1.55,5.27,5.27,0,0,0,3-.81,3,3,0,0,0,1.4-2.64c0-1.73-1.64-3.19-4.92-4.36l-1.44-.44c-.56-.17-1.22-.39-2-.65-.26-.09-.49-.19-.7-.28l-.6-.28a4.13,4.13,0,0,1-2.32-3.87,4,4,0,0,1,1-2.71,5.21,5.21,0,0,1,2.5-1.61,5.34,5.34,0,0,1,2.14-.35,5,5,0,0,1,.85.1l1.44.28,1.12.25a2.35,2.35,0,0,0,.88.14,12.23,12.23,0,0,0,1.16-.39c.21-.09.4-.19.57-.28l.21-.1.84,5.41-.84.25Q1338,550.39,1333.94,550.39Z"/><path d="M1352.5,566.35a2.13,2.13,0,0,1-.65,1.62,2.25,2.25,0,0,1-1.63.63,2,2,0,0,1-1.53-.67,2.25,2.25,0,0,1-.62-1.58,2.33,2.33,0,0,1,.62-1.6,2,2,0,0,1,1.53-.68A2,2,0,0,1,1352.5,566.35Z"/><path d="M533.64,420.55h18v1.58h-18Z"/><path d="M570.42,398.79a8.09,8.09,0,0,1-1.66,5.06,7.06,7.06,0,0,1-6.18,3,6.87,6.87,0,0,1-6.23-3.2,10.55,10.55,0,0,1-.07-10.76q2-2.88,6.26-2.88Q570.42,390,570.42,398.79Zm12.83,18.07a2.62,2.62,0,0,1,.33.49,1.58,1.58,0,0,1,.2.53.45.45,0,0,1-.13.4.79.79,0,0,1-.58.16H560.71l-1.67,0a3.87,3.87,0,0,1-1.3-.23,1.64,1.64,0,0,1-.84-.72,2.89,2.89,0,0,1-.3-1.46v-7a5,5,0,0,0,1,.28l1.56.31a9,9,0,0,1,1.43.43c.41.16.61.35.61.56s-.09.25-.28.33a4.65,4.65,0,0,1-.63.21l-.64.18c-.18.06-.28.15-.28.26V415a4.15,4.15,0,0,0,.27,1.64c.17.41.63.61,1.38.61h17.2l.31-.33a8.43,8.43,0,0,1,.67-.63,8.94,8.94,0,0,1,.79-.62,1.26,1.26,0,0,1,.65-.28,1.58,1.58,0,0,1,.65.16,4.89,4.89,0,0,1,.72.37,5.35,5.35,0,0,1,.67.47C582.93,416.56,583.11,416.72,583.25,416.86ZM567.6,398.79q0-7.53-5.06-7.53a4.12,4.12,0,0,0-4,2.78,9.54,9.54,0,0,0-.88,4.32,10.45,10.45,0,0,0,1,4.4q1.41,2.88,3.91,2.88a4.35,4.35,0,0,0,4.07-2.78A9.29,9.29,0,0,0,567.6,398.79Zm12.13-2.57h-6.08l-1.58.21-.6-1.86,1.86.28h6.4Zm0,7.87h-6l-1.62.25-.6-1.79,1.93.28h6.33Zm3.93-12.93c0,.26-.19.49-.58.72a10.6,10.6,0,0,1-1.17.58v17.22c0,.87-1,1.23-2.89,1.09l0-21.48a3.26,3.26,0,0,0,1.19.44l1.53.32a6.46,6.46,0,0,1,1.32.4C583.45,390.62,583.63,390.85,583.63,391.16Z"/><path d="M621.64,404.27a1.75,1.75,0,0,1,.42.84c0,.31-.42.46-1.27.46h-14v12.8c0,.56-1,.84-3,.84V405.57H591.47l-.51.05c-.29,0-.72.08-1.28.13l-1-1.8a2.49,2.49,0,0,0,.47.07l.9.11.82.1a4.12,4.12,0,0,0,.51,0h26c.05,0,.36-.43,1-1.16a1.32,1.32,0,0,1,1-.6,2.21,2.21,0,0,1,1.26.67,3,3,0,0,1,.51.46C621.27,403.83,621.45,404,621.64,404.27Zm-9.07,1.13a14.14,14.14,0,0,0,.74-2.8q.32-1.77.51-3.69c.13-1.28.22-2.49.3-3.64s.1-2,.1-2.64h-20s-.06,0-.24.09l-.62.18-.6.17-.23.09-.87-2.14,1.93.26.67.09h19.9l.36-.3.57-.48c.2-.16.4-.31.59-.44a1.07,1.07,0,0,1,.48-.19,1.72,1.72,0,0,1,.51.23c.27.15.56.32.86.51a6.77,6.77,0,0,1,.81.58c.23.2.35.33.35.4,0,.38-.5.79-1.51,1.23a24.43,24.43,0,0,1-.25,3.4c-.16,1.2-.37,2.38-.61,3.53s-.51,2.21-.79,3.18-.53,1.77-.74,2.38Z"/><path d="M672.83,403.22a4,4,0,0,1,.84.45c.35.24.7.5,1.05.79a9.83,9.83,0,0,1,.92.86,1.22,1.22,0,0,1,.39.67c0,.45-.65.67-1.94.67H645.62l-2,.32-.6-2.11,2.6.45h24.89l.33-.4.6-.65a8.8,8.8,0,0,1,.72-.65A2.49,2.49,0,0,1,672.83,403.22ZM650,400.3q-3.93,0-3.93-2.67v-7.39a15.5,15.5,0,0,1,2.92.95h18a9.25,9.25,0,0,1,1-.91,9.86,9.86,0,0,1,1.1-.78,1.88,1.88,0,0,1,1,.34,5.12,5.12,0,0,1,.91.75,8.37,8.37,0,0,1,.67.81,1.42,1.42,0,0,1,.26.5c0,.35-.07.52-.35.52H648.85v4.71c0,.85.15,1.39.46,1.62a3.18,3.18,0,0,0,1.79.35h15.82c.14-.14.3-.31.49-.53s.38-.41.58-.61a3.41,3.41,0,0,1,.62-.49.94.94,0,0,1,.6-.16,1.84,1.84,0,0,1,.77.33,8,8,0,0,1,.9.71,5.8,5.8,0,0,1,.75.84,1.42,1.42,0,0,1,.32.79c0,.21-.13.32-.39.32Zm22,13.64q0,5.13-12.83,5.13a32.41,32.41,0,0,1-7.67-.84q-5.31-1.31-5.31-4.29c0-2.11,1.73-3.6,5.17-4.47a33.82,33.82,0,0,1,3.6-.59,35.71,35.71,0,0,1,4.14-.22,28.09,28.09,0,0,1,7.73.88C670.29,410.41,672,411.88,672,413.94Zm-3.34-.11q0-2-3.45-3.09a23.23,23.23,0,0,0-6-.81,24,24,0,0,0-6.16.81q-3.48,1-3.48,3.09,0,2.22,3.52,3.2a21.6,21.6,0,0,0,6,.74,19.33,19.33,0,0,0,6.25-.77C667.58,416.34,668.68,415.29,668.68,413.83Zm-8.16-14.17v6.4h-2.95v-6.4Z"/><path d="M696.63,390.56a1.91,1.91,0,0,1,.63.21,7.85,7.85,0,0,1,.93.51,6.47,6.47,0,0,1,.85.63.93.93,0,0,1,.36.58c0,.31-.44.64-1.33,1a26.25,26.25,0,0,1-1.28,6.29,36.27,36.27,0,0,1-2.76,6.29,31.89,31.89,0,0,1-3.91,5.54,20.79,20.79,0,0,1-4.71,4.06l-1.14.67c-.41.23-.83.45-1.27.65a10.51,10.51,0,0,1-1.26.49,3.77,3.77,0,0,1-1.14.19c-.17,0-.2-.07-.11-.22a2.6,2.6,0,0,1,.47-.55c.23-.21.49-.44.78-.68s.55-.47.79-.65a28.21,28.21,0,0,0,4.66-4.42,36.07,36.07,0,0,0,3.95-5.64,33.5,33.5,0,0,0,2.78-6.26A21.61,21.61,0,0,0,695,393H685c-.22,0-.85.08-1.9.22l-1-1.9c.72.14,1.73.28,3,.42h9.74c.28-.26.57-.52.88-.77A1.38,1.38,0,0,1,696.63,390.56Zm13,.6c0,.26-.32.48-.91.66s-.84.38-.84.64v25.13c0,.92-1,1.31-2.89,1.16V389.29q.71.25,1.5.48c.53.15,1.06.29,1.6.4C709.19,390.43,709.71,390.76,709.63,391.16Z"/><path d="M713.64,420.55h18v1.58h-18Z"/><path d="M783.64,407.05a1.67,1.67,0,0,1,.42.84c0,.31-.42.46-1.27.46h-29l-.51,0c-.3,0-.72.08-1.29.12l-1-1.79a3.77,3.77,0,0,0,.47.07l.9.11.83.1a3.87,3.87,0,0,0,.51,0h25.66c.05-.05.36-.44,1-1.16a1.32,1.32,0,0,1,1-.6,2.15,2.15,0,0,1,1.26.67,3.43,3.43,0,0,1,.51.45C783.27,406.6,783.45,406.81,783.64,407.05Zm-4-17.09q.63.32.63.63c0,.14-.15.37-.46.67a1.33,1.33,0,0,0-.42.85v8.68c0,1.41-.08,2.16-.25,2.25l-.37,0-.43,0c-1.13,0-1.72-.07-1.76-.21v-.7H757q0,.84-.42,1a7.12,7.12,0,0,0-1.27,0,3.27,3.27,0,0,1-.95-.07c-.09-.05-.16-.23-.21-.56v-.88a5.1,5.1,0,0,0,0-.55V389.75a1,1,0,0,0,.38.18l.85.28a7.54,7.54,0,0,0,1.23.31h20l.58-.4.47-.37a1,1,0,0,1,.63-.35,1.8,1.8,0,0,1,.67.21l.32.16a.53.53,0,0,1,.21.12l.21.05S779.71,390,779.67,390Zm-3.06,1.79H757v9.15h19.62Zm-8.19,15.93v10.69c0,.56-1,.84-3,.84V407.68Z"/><path d="M804.06,398.82a7.27,7.27,0,0,1-1.65,4.82,6.47,6.47,0,0,1-2.62,2,9.09,9.09,0,0,1-3.57.66,7.12,7.12,0,0,1-6.22-2.88,8.55,8.55,0,0,1-1.51-5.06,9.15,9.15,0,0,1,1.44-5.34c1.34-1.88,3.42-2.82,6.26-2.82Q804.07,390.24,804.06,398.82Zm12.56,18.56c.16.8-.29,1.2-1.34,1.2a3.69,3.69,0,0,1-1.69-.49c-.23-.12-.61-.34-1.12-.67l-1.78-1.16-2.07-1.41-2-1.4c-.64-.45-1.18-.84-1.62-1.18a10,10,0,0,1-.85-.69,11.62,11.62,0,0,1-2.35,2.27,26.15,26.15,0,0,1-3.16,2,33.65,33.65,0,0,1-3.4,1.6,25.34,25.34,0,0,1-3.07,1,10.25,10.25,0,0,1-2.78.56c-.38,0-.49-.09-.35-.28a8.3,8.3,0,0,1,2.49-1.37,38,38,0,0,0,3.64-1.85,29,29,0,0,0,3.69-2.48,18.92,18.92,0,0,0,3.06-3,8.53,8.53,0,0,0,1.74-3.43l1.13.42c.37.14.76.27,1.16.39,1.19.49,1.79.89,1.79,1.19s-.11.3-.33.41a8.54,8.54,0,0,1-1.64.37c-.09.16-.2.34-.33.53a7,7,0,0,1-.48.59s.28,0,.78.23,1.1.46,1.84.79,1.54.69,2.39,1.09,1.67.79,2.43,1.16,1.41.71,2,1a6.66,6.66,0,0,1,.95.58,5.88,5.88,0,0,1,.81.92A3,3,0,0,1,816.62,417.38Zm-15.37-18.56q0-7.38-5.06-7.38a4.11,4.11,0,0,0-4,2.67,9.47,9.47,0,0,0-.88,4.29,8.81,8.81,0,0,0,1,4.11,4.32,4.32,0,0,0,3.9,2.57,4.38,4.38,0,0,0,4.08-2.5A7.45,7.45,0,0,0,801.25,398.82Zm13.5.28h-7l-1.65.32-1.23-2,2.78.46h7.06Zm2.81-8.08a.54.54,0,0,1-.26.44,5.23,5.23,0,0,1-.58.35l-.58.3c-.18.09-.26.2-.26.31v15.33c0,.91-1,1.32-2.89,1.23V389.33a1.47,1.47,0,0,0,.92.44l1.55.31a13.86,13.86,0,0,1,1.45.37C817.35,390.59,817.56,390.78,817.56,391Z"/><path d="M825.09,404.2l-1.51.46-.53-2.18a3.08,3.08,0,0,1,1.05.24l1.06.21h25.91q1.15-1.65,2.07-1.65a1.21,1.21,0,0,1,.6.14,1.28,1.28,0,0,1,.63.32,2.79,2.79,0,0,1,.44.37l.51.51a2.13,2.13,0,0,1,.74,1.23c0,.23-.2.35-.6.35Zm27.24-8.86a3.46,3.46,0,0,1-1.07,2.62,7.25,7.25,0,0,1-2.88,1.62,21.28,21.28,0,0,1-4.25.81c-1.63.15-3.36.22-5.19.22s-3.52-.07-5.15-.22a21.85,21.85,0,0,1-4.29-.81,7.75,7.75,0,0,1-2.94-1.59,3.34,3.34,0,0,1-1.09-2.58,3.64,3.64,0,0,1,1.15-2.76,7.72,7.72,0,0,1,3-1.65,20.47,20.47,0,0,1,4.31-.79c1.61-.14,3.28-.21,5-.21,1.9,0,3.66.07,5.29.23a18.38,18.38,0,0,1,4.24.84,7.31,7.31,0,0,1,2.83,1.65A3.56,3.56,0,0,1,852.33,395.34Zm-.21,12.31c0,.09-.13.21-.4.35s-.49.25-.65.35v3.83a3.65,3.65,0,0,1-.23,1.51c-.15.31-.59.46-1.32.46a2.08,2.08,0,0,1-1.09-.21c-.21-.14-.31-.45-.31-.92H829.34v2.75c0,.65.11,1.05.34,1.19a2.52,2.52,0,0,0,1.24.21H848c.15-.14.3-.3.46-.47l.49-.53a4.59,4.59,0,0,1,.48-.44.62.62,0,0,1,.37-.17,1.65,1.65,0,0,1,.79.33,11.19,11.19,0,0,1,1,.74,9.82,9.82,0,0,1,.86.77c.25.25.37.39.37.44,0,.37-.55.56-1.65.56H829.76a13.92,13.92,0,0,1-1.56-.07,2.41,2.41,0,0,1-1.06-.33,1.62,1.62,0,0,1-.59-.81,4.53,4.53,0,0,1-.2-1.49v-5l.76.17c.29.07.59.16.9.25a8.21,8.21,0,0,1,.84.3,2.31,2.31,0,0,1,.56.3h18.78v-3.55H828.92l-2.21.45-.78-2.18,3,.46h19.41a3.75,3.75,0,0,1,1-.68,2.37,2.37,0,0,1,.77-.3,1.47,1.47,0,0,1,.53.14,3,3,0,0,1,.68.37,3.73,3.73,0,0,1,.6.52A1,1,0,0,1,852.12,407.65Zm-3.06-12.45a2.58,2.58,0,0,0-.73-1.88,5.14,5.14,0,0,0-2.06-1.21,13.58,13.58,0,0,0-3.18-.65,40.08,40.08,0,0,0-4.15-.2,38.57,38.57,0,0,0-4,.2,15,15,0,0,0-3.28.66,5.9,5.9,0,0,0-2.24,1.29,2.74,2.74,0,0,0-.82,2,2.33,2.33,0,0,0,.9,1.89,6.47,6.47,0,0,0,2.35,1.18,16.68,16.68,0,0,0,3.31.62c1.23.11,2.47.17,3.74.17,1.52,0,2.91-.06,4.15-.17a13.61,13.61,0,0,0,3.18-.64,4.88,4.88,0,0,0,2.06-1.26A2.92,2.92,0,0,0,849.06,395.2Z"/><path d="M879.09,406.48l-1.51.46-.53-2.18a2.9,2.9,0,0,1,1.05.25l1.06.21h25.91q1.15-1.65,2.07-1.65a1.11,1.11,0,0,1,.6.14,1.29,1.29,0,0,1,.63.31,3.46,3.46,0,0,1,.44.37q.23.24.51.51a2.19,2.19,0,0,1,.74,1.23c0,.24-.2.35-.6.35Zm27.35-11a3.94,3.94,0,0,1-1.07,2.83,7.51,7.51,0,0,1-2.92,1.75,18,18,0,0,1-4.29.9c-1.63.16-3.37.25-5.22.25s-3.56-.09-5.2-.25a19.46,19.46,0,0,1-4.33-.88,7.48,7.48,0,0,1-2.95-1.72,3.75,3.75,0,0,1-1.09-2.78,4.2,4.2,0,0,1,1.14-3,7.72,7.72,0,0,1,3-1.83,19.56,19.56,0,0,1,4.34-.89,48.79,48.79,0,0,1,5.05-.25,52.28,52.28,0,0,1,5.33.26,17.76,17.76,0,0,1,4.28.94,6.9,6.9,0,0,1,2.85,1.81A4.14,4.14,0,0,1,906.44,395.52ZM906,413.94q0,5.13-12.83,5.13a32.41,32.41,0,0,1-7.67-.84q-5.31-1.31-5.31-4.29c0-2.11,1.73-3.6,5.17-4.47a33.82,33.82,0,0,1,3.6-.59,35.71,35.71,0,0,1,4.14-.22,28.09,28.09,0,0,1,7.73.88C904.29,410.41,906,411.88,906,413.94Zm-2.89-18.56a3.08,3.08,0,0,0-.73-2.11,5.13,5.13,0,0,0-2.08-1.36,12.76,12.76,0,0,0-3.21-.7,40.93,40.93,0,0,0-4.17-.19,35.9,35.9,0,0,0-4,.21,13.7,13.7,0,0,0-3.31.74,5.76,5.76,0,0,0-2.25,1.42,3.22,3.22,0,0,0-.82,2.27,2.65,2.65,0,0,0,.89,2,6.47,6.47,0,0,0,2.38,1.28,16.3,16.3,0,0,0,3.34.67,36,36,0,0,0,3.76.19,40.93,40.93,0,0,0,4.17-.19,12.73,12.73,0,0,0,3.21-.71,5,5,0,0,0,2.08-1.37A3.24,3.24,0,0,0,903.13,395.38Zm-.45,18.45q0-2-3.45-3.09a23.23,23.23,0,0,0-6-.81,24,24,0,0,0-6.16.81q-3.48,1-3.48,3.09,0,2.22,3.52,3.2a21.6,21.6,0,0,0,6,.74,19.33,19.33,0,0,0,6.25-.77C901.58,416.34,902.68,415.29,902.68,413.83ZM884.92,406v-5.77h2.71l0,5.77Zm13.43,0v-5.77h2.78V406Z"/><path d="M930.1,390a1.22,1.22,0,0,1,.58.2,3.17,3.17,0,0,1,.65.49,7.5,7.5,0,0,1,.56.59,1.09,1.09,0,0,1,.28.51c0,.38-.37.77-1.19,1.16a20.74,20.74,0,0,1-5.47,8.48,21.71,21.71,0,0,1-9.19,4.71,6,6,0,0,1-.78.14,9.15,9.15,0,0,1-1,.09,8.47,8.47,0,0,1-.9,0q-.39,0-.39-.18c0-.11.26-.26.76-.44s1.23-.46,2.16-.86a23,23,0,0,0,3.92-2.11,22,22,0,0,0,3.5-2.84,19.31,19.31,0,0,0,2.73-3.43,13.35,13.35,0,0,0,1.63-3.89h-10l-1.94.18L914.84,391c.4.09.85.17,1.36.24l1.67.25h10.44C929.08,390.5,929.68,390,930.1,390Zm11.36,19q0,.39-.57.63c-.35.17-.52.38-.52.64V417a3.94,3.94,0,0,1-.15,1.47c-.18.33-.59.5-1.23.5a3.33,3.33,0,0,1-1.12-.11c-.26-.12-.39-.45-.39-1H918.81c0,.72-.58,1.09-1.75,1.09-.59,0-.94-.13-1.06-.39a3.67,3.67,0,0,1-.1-1.23V408a4.67,4.67,0,0,1,2.91.73h18.74l.34-.24.33-.25a1.94,1.94,0,0,1,.84-.38.39.39,0,0,1,.29.1l.63.21.6.18C941.16,408.56,941.46,408.79,941.46,409.05Zm-4,.88H918.85v6.72h18.63Zm3.27-4.85q0,1.37-2.88,1.23v-17a4.3,4.3,0,0,0,1.14.44l1.53.38c.52.13,1,.26,1.34.39s.56.29.56.48a.57.57,0,0,1-.26.44,6.36,6.36,0,0,1-.58.35,6.18,6.18,0,0,0-.58.3c-.18.09-.27.2-.27.31Zm5.73-5.8c0,.3-.29.45-.88.45h-5.55v-1.19h1.58c.12-.16.27-.35.46-.56a6.79,6.79,0,0,1,.6-.6,4.39,4.39,0,0,1,.63-.48,1.18,1.18,0,0,1,.53-.19,2.16,2.16,0,0,1,.75.39,5.42,5.42,0,0,1,.72.65,6.79,6.79,0,0,1,.65.77A8.42,8.42,0,0,1,946.48,399.28Z"/><path d="M951.79,395.83q-.7.18-1,.3l-.43.16-.73-2.25c.28.09.6.18,1,.26l1.18.27h6.36v-4.85c2.46.32,3.88.65,4.26,1a.61.61,0,0,1,.17.46c0,.14-.25.28-.77.42s-.74.28-.74.56v2.5h4.92c.14-.19.3-.38.46-.57l.49-.56c.5-.58.85-.88,1.06-.88a1.8,1.8,0,0,1,.56.32c1.27,1.05,1.9,1.82,1.9,2.28s-.45.6-1.34.6Zm16.35,12.87a8.82,8.82,0,0,1-2.22,6.19,7.75,7.75,0,0,1-6,2.56,8,8,0,0,1-6.12-2.49,8.33,8.33,0,0,1-2.36-6.26,9.42,9.42,0,0,1,2.22-6.47,7.72,7.72,0,0,1,6.26-2.64q4.18,0,6.25,2.61A9.85,9.85,0,0,1,968.14,408.7Zm-2.92,0a10.88,10.88,0,0,0-1.12-5.17,4.51,4.51,0,0,0-4.22-2.74,4.64,4.64,0,0,0-4.29,2.71,10.93,10.93,0,0,0-1.13,5.2,9.82,9.82,0,0,0,1.23,5,4.64,4.64,0,0,0,4.19,2.53c1.59,0,2.93-.89,4-2.67A9.22,9.22,0,0,0,965.22,408.7Zm11.53,8.89c0,.87-1,1.23-2.88,1.09V389.29a2.28,2.28,0,0,0,1,.39l1.62.37a9,9,0,0,1,1.48.46c.42.17.61.39.56.65a.49.49,0,0,1-.32.35l-.59.31a6.26,6.26,0,0,0-.58.29.4.4,0,0,0-.27.35v11.46h.56c.17-.19.36-.41.57-.67l.63-.76a6.24,6.24,0,0,1,.63-.63,1.3,1.3,0,0,1,.6-.3,1.08,1.08,0,0,1,.81.32,8.14,8.14,0,0,1,1,.91,10.47,10.47,0,0,1,.82,1.06,1.66,1.66,0,0,1,.35.74c0,.33-.32.49-1,.49h-5Z"/><path d="M1014.83,414a4.1,4.1,0,0,1,.84.46,12,12,0,0,1,1.05.79,8.66,8.66,0,0,1,.92.86,1.19,1.19,0,0,1,.39.67c0,.45-.65.67-1.94.67H988l-2,.32-.6-2.11,2.6.45h24.54l.33-.4.6-.65a7.29,7.29,0,0,1,.72-.65A2.55,2.55,0,0,1,1014.83,414Zm-7,2.85a10.13,10.13,0,0,0,.81-2.57c.23-1.14.43-2.46.6-3.93s.3-3.05.42-4.71.2-3.29.24-4.87.07-3.06.07-4.41,0-2.48-.07-3.34H991.27l-.4,0-.62.09-.6.09-.38,0-.92-1.86.46.07,1,.14,1,.14a4.57,4.57,0,0,0,.51.07h18.49c.12.07.24,0,.37-.12s.26-.34.4-.55.29-.41.44-.6a.63.63,0,0,1,.44-.28,2.22,2.22,0,0,1,.81.25,9.55,9.55,0,0,1,1,.56,6.61,6.61,0,0,1,.84.6c.22.19.3.3.23.35a.74.74,0,0,1-.18.42,4.45,4.45,0,0,1-.4.51l-.41.49a.76.76,0,0,0-.17.37q.14,3.13,0,6.4a63.39,63.39,0,0,1-.63,6.33,49.88,49.88,0,0,1-1.18,5.73,26.34,26.34,0,0,1-1.63,4.57Zm-13,0v-16a4.56,4.56,0,0,0,1.41.54l1.63.36a6.69,6.69,0,0,1,1.36.4.78.78,0,0,1,.56.7.57.57,0,0,1-.21.41,2.88,2.88,0,0,1-.53.37c-.21.11-.43.21-.65.3a2.7,2.7,0,0,1-.61.15v12.8Z"/><path d="M1041.58,393.76l-.56.05-1.44.19-.67-1.75c.7.09,1.26.15,1.67.19s.71.05.89.05h7.42v-3.2a4.5,4.5,0,0,0,.83.28c.29.08.58.13.86.18l.42.05.67.06h.46l.49,0q.63.11.63.42c0,.31-.24.55-.74.74s-.73.29-.73.46v1h5.3a1.54,1.54,0,0,0,.25-.38,4.66,4.66,0,0,1,.53-.78c.33-.35.58-.52.77-.52a2.41,2.41,0,0,1,.95.35,1.75,1.75,0,0,1,.56.42,3.72,3.72,0,0,0,.6.53q1,.84,1,1.23t-1,.42ZM1061.41,405c.63.51.95.94.95,1.26s-.35.5-1.06.5h-19.68a7.34,7.34,0,0,0-1,.1,6.25,6.25,0,0,1-.69.09,1.8,1.8,0,0,0-.37.05l-.6-1.93,1.15.17c.43.07.94.15,1.53.22h16c.86-1.27,1.52-1.86,2-1.76a6.21,6.21,0,0,1,.8.49l.41.33Zm-11.32-1.69c-1.5,0-2.86-.06-4.06-.17a13,13,0,0,1-3.1-.64,4.56,4.56,0,0,1-2-1.25,3.24,3.24,0,0,1,0-4,4.66,4.66,0,0,1,2-1.26,13.33,13.33,0,0,1,3.1-.69,35.4,35.4,0,0,1,4.06-.21,33.78,33.78,0,0,1,4,.21,12.69,12.69,0,0,1,3,.69,4.64,4.64,0,0,1,1.93,1.26,2.92,2.92,0,0,1,.69,2,3,3,0,0,1-.65,2,4.3,4.3,0,0,1-1.9,1.25,12.36,12.36,0,0,1-3,.64C1052.93,403.26,1051.59,403.32,1050.09,403.32ZM1066.44,414q0,4.79-12.84,4.78a37.76,37.76,0,0,1-3.95-.19,34,34,0,0,1-3.75-.61c-3.51-.85-5.27-2.17-5.27-4s1.71-3.22,5.13-4a26.86,26.86,0,0,1,3.55-.58c1.29-.13,2.7-.19,4.22-.19a37.86,37.86,0,0,1,4.13.21,32.52,32.52,0,0,1,3.64.6C1064.72,410.93,1066.44,412.26,1066.44,414Zm-10.09-14.76a1.68,1.68,0,0,0-.51-1.2,4.15,4.15,0,0,0-1.36-.88,9.41,9.41,0,0,0-2-.54,14.44,14.44,0,0,0-2.41-.19,13.86,13.86,0,0,0-2.34.19,10.18,10.18,0,0,0-2,.54,4.2,4.2,0,0,0-1.41.88,1.66,1.66,0,0,0-.53,1.2,1.78,1.78,0,0,0,.55,1.35,3.83,3.83,0,0,0,1.44.81,8.52,8.52,0,0,0,2,.39c.75.06,1.51.08,2.29.08s1.6,0,2.35-.08a8.33,8.33,0,0,0,2-.39,3.6,3.6,0,0,0,1.39-.81A1.82,1.82,0,0,0,1056.35,399.28Zm6.64,14.66q0-1.8-3.34-2.71a22.57,22.57,0,0,0-6.05-.74,23.56,23.56,0,0,0-6.15.74q-3.37.88-3.37,2.71c0,1.38,1.13,2.37,3.41,2.95a14.19,14.19,0,0,0,2.72.49c1,.1,2.1.14,3.32.14s2.52,0,3.55-.14a12.19,12.19,0,0,0,2.71-.52Q1063,416,1063,413.94Zm-14.27-7.81v-3.51h2.88v3.51Zm18,1.83q0,1.41-2.88,1.2V389.33a6.84,6.84,0,0,0,1.23.47,14.87,14.87,0,0,0,1.48.34c1.24.21,1.86.5,1.86.88s-.28.65-.84.84-.85.35-.85.56Zm5.56-7.56a1,1,0,0,1,.17.46c0,.3-.29.46-.88.46h-5.55v-1.2h1.58q1.51-1.83,2.22-1.83a.94.94,0,0,1,.66.32A15.5,15.5,0,0,1,1072.31,400.4Z"/><path d="M1107.78,403.6a2.06,2.06,0,0,1,.39.81c0,.19-.16.28-.46.28h-29.64l-1,.28-1.07.32-.67-2.25,1.18.18c.45.07,1,.12,1.6.17h25.17a3.69,3.69,0,0,0,1.09-1.05,1.44,1.44,0,0,1,1-.57,2.42,2.42,0,0,1,1.3.6A7.06,7.06,0,0,1,1107.78,403.6Zm-8.82,1a21.65,21.65,0,0,0,.75-4q.38-3,.51-7.89h-20s0,0-.23.09l-.59.19-.62.19c-.19.06-.27.08-.25.06l-.87-2.15a1.27,1.27,0,0,0,.42.09l.84.1.86.11a4,4,0,0,0,.48.05h19.9a2.56,2.56,0,0,0,.35-.3c.16-.15.34-.31.54-.47s.4-.31.6-.44a1,1,0,0,1,.47-.19,1.58,1.58,0,0,1,.53.23c.28.15.58.32.88.51a5.81,5.81,0,0,1,.81.58c.23.19.35.33.35.4,0,.37-.5.79-1.51,1.23a26.4,26.4,0,0,1-.16,2.65c-.1,1.07-.25,2.17-.42,3.29s-.38,2.2-.62,3.22a15.64,15.64,0,0,1-.73,2.44Zm5.44,4.92c0,.21-.18.43-.56.64s-.53.37-.53.63V417a4,4,0,0,1-.14,1.47c-.18.33-.59.5-1.23.5a3.17,3.17,0,0,1-1.12-.11c-.26-.12-.39-.45-.39-1h-18.6c0,.72-.58,1.09-1.75,1.09-.59,0-.94-.13-1.06-.39a3.67,3.67,0,0,1-.1-1.23v-8.86a5.21,5.21,0,0,1,2.91.74h18.67l.35-.27.36-.26a2,2,0,0,1,.8-.39.34.34,0,0,1,.28.14c.22.05.43.11.64.18l.6.21C1104.11,409.05,1104.4,409.29,1104.4,409.54Zm-4,.88h-18.56v6.23h18.56Z"/><path d="M1130.63,415.48c0,1.08-.37,1.62-1.12,1.62-.59,0-1.29-.56-2.11-1.69a19.44,19.44,0,0,1-1.5-2.58c-.5-1-1-2.11-1.54-3.27s-1.09-2.33-1.67-3.51a29.39,29.39,0,0,0-1.87-3.26,17.27,17.27,0,0,1-.93,3.26,39.94,39.94,0,0,1-1.69,3.85c-.64,1.28-1.32,2.49-2,3.62a14.78,14.78,0,0,1-1.93,2.56c-1.2,1.22-2,1.83-2.36,1.83q-.17,0-.09-.3a5,5,0,0,1,.29-.7c.12-.27.27-.55.44-.85l.42-.75a46.6,46.6,0,0,0,4.67-12.06,54.79,54.79,0,0,0,1.51-13.53c0,.07.22.18.73.33l1.68.51c.62.19,1.2.38,1.73.58s.79.37.79.51c0,.3-.64.67-1.9,1.09a67.12,67.12,0,0,1-1,8.16l2.72,3.25c1,1.13,1.85,2.28,2.69,3.42a40.56,40.56,0,0,1,2.27,3.43,15.66,15.66,0,0,1,1.49,3.25,1.88,1.88,0,0,1,.22.64C1130.62,415.1,1130.63,415.3,1130.63,415.48Zm11-24.32c0,.26-.32.48-.91.66s-.84.38-.84.64v25.13c0,.92-1,1.31-2.89,1.16V389.29q.71.25,1.5.48c.53.15,1.06.29,1.6.4C1141.19,390.43,1141.71,390.76,1141.63,391.16Z"/><path d="M1153.8,416.86a10.45,10.45,0,0,1-2.2-.18,2.05,2.05,0,0,1-1.19-.67,2.46,2.46,0,0,1-.5-1.33c-.05-.57-.08-1.3-.08-2.22V390.17a2.24,2.24,0,0,0,.93.39l1.28.28a8.74,8.74,0,0,1,1.25.35,1.58,1.58,0,0,1,.83.6h4.46c1.05-1.22,1.76-1.83,2.11-1.83a1.64,1.64,0,0,1,.51.28,10.75,10.75,0,0,1,.86.67,6.51,6.51,0,0,1,.83.83,1.3,1.3,0,0,1,.37.75c0,.33-.3.49-.88.49h-9.6l0,20.85q0,1.28.57,1.53a4.37,4.37,0,0,0,1.79.27h3.8c.4-.43.74-.81,1-1.16a2.58,2.58,0,0,1,1.18-.78,2.69,2.69,0,0,1,1.14.58,8.49,8.49,0,0,1,.9.9l.33.44a2.65,2.65,0,0,1,.27.37,1.24,1.24,0,0,1,.21.63c0,.16-.39.25-1.16.25Zm16.7-25.35c0,.26-.33.48-.92.67s-.84.37-.84.63v24.08c0,.92-1,1.3-2.88,1.16v-28.4l1.53.47c.5.15,1,.29,1.53.4C1170,390.78,1170.57,391.11,1170.5,391.51Zm3.2,12.72H1168V403h5.7Zm3.93-13.07c0,.26-.32.48-.91.66s-.84.38-.84.64v25.13c0,.92-1,1.31-2.89,1.16V389.29q.71.25,1.5.48c.53.15,1.06.29,1.6.4C1177.19,390.43,1177.71,390.76,1177.63,391.16Z"/><path d="M1186.39,416.75a15.83,15.83,0,0,1-1.62.32l-.6-1.94a14.46,14.46,0,0,0,1.9.39h16.35c.16-.19.31-.37.44-.54s.24-.33.33-.44c.54-.78.93-1.15,1.16-1.13l.25.12c.12.06.27.15.46.27a4.84,4.84,0,0,1,.56.37l.7.51c.82.75,1.23,1.33,1.23,1.75,0,.22-.16.32-.49.32Zm17.23-17.82a10.32,10.32,0,0,1-.67,3.79,7.8,7.8,0,0,1-1.9,2.85,8.52,8.52,0,0,1-3,1.79,11.9,11.9,0,0,1-7.7,0,8.7,8.7,0,0,1-3-1.79,7.74,7.74,0,0,1-1.93-2.85,9.92,9.92,0,0,1-.69-3.79,9.22,9.22,0,0,1,.7-3.68,7.82,7.82,0,0,1,1.94-2.7,8,8,0,0,1,2.95-1.67,11.91,11.91,0,0,1,3.76-.57,11.07,11.07,0,0,1,3.69.6,9.38,9.38,0,0,1,3,1.71,7.82,7.82,0,0,1,2,2.7A8.56,8.56,0,0,1,1203.62,398.93Zm-3.77,0a10.33,10.33,0,0,0-.35-2.68,7.63,7.63,0,0,0-1.07-2.39,6.11,6.11,0,0,0-1.79-1.72,4.74,4.74,0,0,0-2.52-.67,4.79,4.79,0,0,0-2.58.64,4.74,4.74,0,0,0-1.65,1.68,7.57,7.57,0,0,0-.88,2.39,13.94,13.94,0,0,0-.27,2.75,14.94,14.94,0,0,0,.27,2.81,7.81,7.81,0,0,0,.88,2.49,5.12,5.12,0,0,0,1.65,1.78,4.55,4.55,0,0,0,2.58.69,5.26,5.26,0,0,0,2.75-.67,5.39,5.39,0,0,0,1.75-1.74,7.37,7.37,0,0,0,1-2.48A14.5,14.5,0,0,0,1199.85,398.93Zm13.78-7.77c0,.26-.32.48-.91.66s-.84.38-.84.64v25.13c0,.92-1,1.31-2.89,1.16V389.29q.71.25,1.5.48c.53.15,1.06.29,1.6.4C1213.19,390.43,1213.71,390.76,1213.63,391.16Z"/><path d="M1254.42,398.08a6.64,6.64,0,0,1-1.69,4.61q-2,2.46-6.19,2.46t-6.19-2.64a7.82,7.82,0,0,1-1.47-4.81q0-7.67,7.63-7.67Q1254.42,390,1254.42,398.08Zm.35,9.85c0,.3-.28.55-.85.73s-.84.34-.84.53v8a5.81,5.81,0,0,1-.14,1.87,3.75,3.75,0,0,1-1.86.28,2.21,2.21,0,0,1-.6,0c-.17-.07-.25-.44-.25-1.12h-6.64a1.52,1.52,0,0,1-.18.81c-.16.23-.6.35-1.3.35s-1.11-.1-1.23-.28a4.55,4.55,0,0,1-.05-.53c0-.24,0-.52,0-.85V406.2l1.14.3c.39.11.78.21,1.18.3,1.24.31,1.86.61,1.86.92s-.23.56-.7.7-.7.23-.7.42v2.32h6.64v-4.92c.45.14.88.26,1.3.35s.84.2,1.23.32Q1254.77,407.43,1254.77,407.93Zm-3.17-9.85q0-6.88-5.09-6.89a4.1,4.1,0,0,0-4,2.46,8.49,8.49,0,0,0-.88,4.05,7.55,7.55,0,0,0,1,3.86,4.18,4.18,0,0,0,3.87,2.36,4.58,4.58,0,0,0,4.11-2.29,7.7,7.7,0,0,0,.71-1.68A7.1,7.1,0,0,0,1251.6,398.08Zm-1.37,14.31h-6.64v4.47h6.64Zm17.23,5.1c0,1-.42,1.48-1.27,1.48l-.73-.18a4.49,4.49,0,0,1-1.45-1.86c-.39-.78-.79-1.56-1.19-2.34a11.91,11.91,0,0,0-1.44-2.2,22.91,22.91,0,0,1-1.73,2.71,16.67,16.67,0,0,1-2.39,2.53,14.34,14.34,0,0,1-1.77,1.27,2.66,2.66,0,0,1-.93.38q-.18,0-.18-.21a1.19,1.19,0,0,1,.3-.61c.2-.27.5-.65.9-1.15q1-1.33,1.74-2.49a16.89,16.89,0,0,0,1.23-2.39,15.59,15.59,0,0,0,.82-2.68,32.08,32.08,0,0,0,.53-3.37,24.55,24.55,0,0,1,2.39.77c1.34.47,1.9.88,1.69,1.23s-.69.46-1.51.53a7.26,7.26,0,0,1-.23.95c-.11.33-.22.69-.34,1.09Q1267.46,415.38,1267.46,417.49Zm-3.06-19.09h-6.61l-1.65.32-1.23-2,2.78.46h6.71Zm3.16-7.38a.54.54,0,0,1-.26.44,5.23,5.23,0,0,1-.58.35l-.58.3c-.18.09-.26.2-.26.31v12.2c0,.92-1,1.33-2.89,1.23V389.33a1.47,1.47,0,0,0,.92.44l1.55.31a13.86,13.86,0,0,1,1.45.37C1267.35,390.59,1267.56,390.78,1267.56,391Z"/><path d="M1305.78,417.24a.61.61,0,0,1-.56.28H1275.9a2.44,2.44,0,0,0-.44.06l-.79.12-1.27.21-.42-2.25.53.11c.25,0,.58.11,1,.21s.72.16,1,.19a3.16,3.16,0,0,0,.47.05h24.68a4.44,4.44,0,0,0,.46-.59c.14-.22.28-.41.42-.6.42-.52.8-.78,1.13-.78a5.07,5.07,0,0,1,1.37.6q1.89,1.09,1.89,2A.7.7,0,0,1,1305.78,417.24Zm-3.31-17.61a7.25,7.25,0,0,1-3.44,6.56q-3.37,2.06-9.6,2.05-7,0-10.37-2.07t-3.37-6.93a8.2,8.2,0,0,1,.84-3.72,7.93,7.93,0,0,1,2.55-2.92,12.89,12.89,0,0,1,4.29-1.92,24.1,24.1,0,0,1,6.06-.68,21.13,21.13,0,0,1,5.61.68,12.26,12.26,0,0,1,4.11,1.95,8.31,8.31,0,0,1,2.52,3A8.75,8.75,0,0,1,1302.47,399.63Zm-3.34-.07a8,8,0,0,0-.65-3.59,6.3,6.3,0,0,0-2-2.44,8.37,8.37,0,0,0-3.07-1.42,17.69,17.69,0,0,0-4-.5c-3.47-.07-6.07.53-7.82,1.8a6.62,6.62,0,0,0-2.62,5.76q0,4,2.64,5.72c1.75,1.16,4.36,1.71,7.8,1.67a24.26,24.26,0,0,0,4.08-.39,8.61,8.61,0,0,0,3-1.16,5.47,5.47,0,0,0,1.92-2.13A7.38,7.38,0,0,0,1299.13,399.56Z"/><path d="M1327.4,391.37q0,.24-.63.63c-.4.21-.6.46-.6.74v12.62c0,1-.08,1.52-.25,1.69a3,3,0,0,1-1.61.24c-.52,0-.81-.09-.88-.28v-1.12h-8.86a5.66,5.66,0,0,1,0,.82.67.67,0,0,1-.25.44,1,1,0,0,1-.53.18c-.22,0-.52,0-.89,0s-.68,0-.78-.14a6.46,6.46,0,0,1-.17-2.18V389.82c1.75.38,2.74.8,2.95,1.27h8.61c.73-.8,1.29-1.2,1.69-1.2.21,0,.33,0,.35,0a3.87,3.87,0,0,1,1.83,1c0,.11,0,.21.05.28S1327.4,391.34,1327.4,391.37Zm11.85,25.49a2.62,2.62,0,0,1,.33.49,1.58,1.58,0,0,1,.2.53.45.45,0,0,1-.13.4.79.79,0,0,1-.58.16h-22.36l-1.67,0a3.87,3.87,0,0,1-1.3-.23,1.64,1.64,0,0,1-.84-.72,2.89,2.89,0,0,1-.3-1.46v-7a5,5,0,0,0,1,.28l1.56.31a9,9,0,0,1,1.43.43c.41.16.61.35.61.56s-.09.25-.28.33a4.65,4.65,0,0,1-.63.21l-.64.18c-.18.06-.28.15-.28.26V415a4.15,4.15,0,0,0,.27,1.64c.17.41.63.61,1.38.61h17.2l.31-.33a8.43,8.43,0,0,1,.67-.63,8.94,8.94,0,0,1,.79-.62,1.26,1.26,0,0,1,.65-.28,1.58,1.58,0,0,1,.65.16,4.89,4.89,0,0,1,.72.37,5.35,5.35,0,0,1,.67.47C1338.93,416.56,1339.11,416.72,1339.25,416.86Zm-15.82-24.54h-8.79v12.3h8.79Zm12.3,3.9h-6.08l-1.58.21-.6-1.86,1.86.28h6.4Zm0,7.87h-6l-1.62.25-.6-1.79,1.93.28h6.33Zm3.93-12.93c0,.26-.19.49-.58.72a10.6,10.6,0,0,1-1.17.58v17.22c0,.87-1,1.23-2.89,1.09l0-21.48a3.26,3.26,0,0,0,1.19.44l1.53.32a6.46,6.46,0,0,1,1.32.4C1339.45,390.62,1339.63,390.85,1339.63,391.16Z"/><path d="M1352.64,416.36q0,3.45-4.57,5.8l-.45-.73a9,9,0,0,0,1.49-1,6,6,0,0,0,1-1.11,1.73,1.73,0,0,0,.6-1.19c0-.17-.07-.25-.21-.25a3.47,3.47,0,0,1-1.74-.9,2.2,2.2,0,0,1-.72-1.67,1.91,1.91,0,0,1,2-2,2.3,2.3,0,0,1,1.89.93A3.28,3.28,0,0,1,1352.64,416.36Z"/><path d="M495.39,459a1.75,1.75,0,0,1,.64,1c0,.42-.65.63-1.94.63H466l-.39.06-.67.1-.65.11-.33.05-.6-2.11,1.14.21,1.46.25h24.54l.35-.39c.19-.21.44-.5.74-.88a1.4,1.4,0,0,1,2.11-.53c.33.24.63.47.91.71A9.47,9.47,0,0,1,495.39,459Zm-11,1.12a12.24,12.24,0,0,0,.92-2.57c.3-1.14.59-2.46.86-3.93s.52-3,.76-4.71.42-3.29.58-4.87.26-3.06.33-4.41a31.81,31.81,0,0,0,0-3.34H469.27l-.4,0-.62.09-.6.09-.38,0-.92-1.86.46.07.95.14,1,.14a4.57,4.57,0,0,0,.51.07h18.49c.12.07.24,0,.37-.12s.26-.34.4-.55.29-.41.44-.6a.63.63,0,0,1,.44-.28,2.22,2.22,0,0,1,.81.25,9.55,9.55,0,0,1,1,.56,6.61,6.61,0,0,1,.84.6c.22.19.3.3.23.35a.74.74,0,0,1-.18.42,4.45,4.45,0,0,1-.4.51l-.41.49a.76.76,0,0,0-.17.37,56.09,56.09,0,0,1-.37,6.4c-.25,2.18-.57,4.29-1,6.33a58.36,58.36,0,0,1-1.45,5.73,32.94,32.94,0,0,1-1.74,4.57Z"/><path d="M501.09,447.05l-1.51.46-.53-2.18a3.08,3.08,0,0,1,1.05.24l1.06.21h25.91q1.15-1.65,2.07-1.65a2.75,2.75,0,0,1,1.23.46,2.33,2.33,0,0,1,.44.37l.51.51a2.13,2.13,0,0,1,.74,1.23c0,.23-.2.35-.6.35Zm4.6-4.47q-3.93,0-3.93-2.67v-6.47a15.21,15.21,0,0,1,2.91.95H523a9.25,9.25,0,0,1,1-.91,9.86,9.86,0,0,1,1.1-.78,1.88,1.88,0,0,1,1,.34,5.12,5.12,0,0,1,.91.75,8.37,8.37,0,0,1,.67.81,1.42,1.42,0,0,1,.26.5c.05.35-.07.52-.35.52h-23v3.8c0,.84.15,1.38.46,1.62a3.18,3.18,0,0,0,1.79.35H523c.14-.14.3-.32.49-.53s.38-.42.58-.61a3.49,3.49,0,0,1,.62-.5.93.93,0,0,1,.6-.15,1.84,1.84,0,0,1,.77.33,7.85,7.85,0,0,1,.9.7,5.38,5.38,0,0,1,.75.85,1.39,1.39,0,0,1,.32.79c0,.21-.13.31-.39.31Zm22.43,8.27c0,.09-.13.21-.4.35l-.65.35v3.83a3.65,3.65,0,0,1-.23,1.51c-.15.31-.59.46-1.32.46a2.08,2.08,0,0,1-1.09-.21c-.21-.14-.31-.45-.31-.92H505.34V459c0,.65.11,1,.34,1.19a2.52,2.52,0,0,0,1.24.21H524c.15-.14.3-.3.46-.47l.49-.53a4.59,4.59,0,0,1,.48-.44.62.62,0,0,1,.37-.17,1.65,1.65,0,0,1,.79.33,11.19,11.19,0,0,1,1,.74,9.82,9.82,0,0,1,.86.77c.25.25.37.39.37.44,0,.38-.55.56-1.65.56H505.76a13.92,13.92,0,0,1-1.56-.07,2.41,2.41,0,0,1-1.06-.33,1.62,1.62,0,0,1-.59-.81,4.53,4.53,0,0,1-.2-1.49v-5l.76.17.9.25a8.21,8.21,0,0,1,.84.3,2.72,2.72,0,0,1,.56.3h18.78v-3.55H504.92l-2.21.45-.78-2.17,2.95.45h19.41a3.75,3.75,0,0,1,1-.68,2.37,2.37,0,0,1,.77-.3,1.72,1.72,0,0,1,.53.14,3.48,3.48,0,0,1,.68.37,3.73,3.73,0,0,1,.6.52A1,1,0,0,1,528.12,450.85Z"/><path d="M549.92,446.84a30.6,30.6,0,0,1-.33,4.59,33.71,33.71,0,0,1-.94,4.2q-1.86,5.24-5.37,5.23a4.48,4.48,0,0,1-3.24-1.28,9.84,9.84,0,0,1-2.25-3.85,26.87,26.87,0,0,1-1.23-8.89,30,30,0,0,1,1.09-8.62q1.65-5.13,5.31-5.13c2.58,0,4.48,1.67,5.69,5a29.27,29.27,0,0,1,.94,4.12A31,31,0,0,1,549.92,446.84Zm-2.95,0q0-12.34-3.87-12.34t-4,12.34a37.93,37.93,0,0,0,.18,3.79,27.18,27.18,0,0,0,.56,3.52q1,5.34,3.41,5.34Q547,459.49,547,446.84Zm8,.21h-4.81a1.51,1.51,0,0,0-.71.14,4,4,0,0,1-.47.1l-.27.07-.56-2c.75.11,1.3.21,1.64.28s.46.1.37.1H555Zm3.94-12.34c0,.26-.33.48-.91.67s-.85.37-.85.63v24.08c0,.92-1,1.3-2.88,1.16v-28.4l1.53.47c.5.15,1,.29,1.53.4C558.46,434,559,434.31,558.92,434.71Zm6.71-.35c0,.26-.32.48-.91.66s-.84.38-.84.64v25.13c0,.92-1,1.31-2.89,1.16V432.49q.71.25,1.5.48c.53.15,1.06.29,1.6.4C565.19,433.63,565.71,434,565.63,434.36Z"/><path d="M587,434.81a3,3,0,0,1-.88,1.45q-.42,3-1,6.25a38.7,38.7,0,0,1-1.77,6.44,26.84,26.84,0,0,1-3.17,6,19.9,19.9,0,0,1-5.18,5l-.6.38-.72.41-.71.35a2.2,2.2,0,0,1-.54.19c-.19.05-.11-.16.23-.61a20.53,20.53,0,0,1,1.84-2,25.58,25.58,0,0,0,3.85-4.89,30.38,30.38,0,0,0,2.64-5.52,34.12,34.12,0,0,0,1.55-5.94,43.83,43.83,0,0,0,.58-6.15h-7.28l-.47.05-1.32.12-1.23-1.86c.75.16,1.75.34,3,.52h7.24s.11-.14.25-.29.3-.32.47-.5a4.52,4.52,0,0,1,.55-.45.92.92,0,0,1,.45-.2,1.3,1.3,0,0,1,.53.18c.24.12.48.25.72.4s.47.3.65.43A3.1,3.1,0,0,1,587,434.81Zm4,12.59H586.2a3.75,3.75,0,0,0-.82.14,3.91,3.91,0,0,1-.83.14l-.39-1.93.32.09.63.15a4.24,4.24,0,0,0,.95.21H591Zm3.94-12.69c0,.26-.33.48-.91.67s-.85.37-.85.63v24.08c0,.92-1,1.3-2.88,1.16v-28.4l1.53.47c.5.15,1,.29,1.53.4C594.46,434,595,434.31,594.92,434.71Zm6.71-.35c0,.26-.32.48-.91.66s-.84.38-.84.64v25.13c0,.92-1,1.31-2.89,1.16V432.49q.71.25,1.5.48c.53.15,1.06.29,1.6.4C601.19,433.63,601.71,434,601.63,434.36Z"/><path d="M645.47,446.52c.17,1.08-.22,1.62-1.16,1.62a2.5,2.5,0,0,1-1.4-.49c-.1-.07-.27-.21-.53-.43s-.54-.45-.86-.73-.66-.6-1-.95-.71-.71-1-1.06l-1-1.09q-.55-.56-1-1.05l-.81-.85-.37-.38a16.28,16.28,0,0,1-2,2.79A15.75,15.75,0,0,1,632,446a17.79,17.79,0,0,1-2.5,1.63,4.63,4.63,0,0,1-2.11.69.82.82,0,0,1-.42-.11q-.13-.24,1.83-1.68a12.48,12.48,0,0,0,2.18-2,21.43,21.43,0,0,0,1.88-2.55,17.41,17.41,0,0,0,1.35-2.59,6.39,6.39,0,0,0,.57-2.14h-5.28c.17,0,.11,0-.17.05l-1.48.2-.46-1.73a8.78,8.78,0,0,1,.88.14c.33.07.72.14,1.16.21h5.35v-3.55c.07.12.34.21.82.29l1.55.22c.55.09,1,.18,1.48.28s.64.27.61.48-.12.19-.28.3l-.51.3-.49.28c-.15.09-.23.17-.23.24v1.13h3.59c.7-.91,1.26-1.37,1.68-1.37a2,2,0,0,1,.74.19,4.5,4.5,0,0,1,.9.51,3.67,3.67,0,0,1,.75.72,1.3,1.3,0,0,1,.32.83c0,.19-.15.28-.46.28h-7.55a3.54,3.54,0,0,1-.41,1.18,7.74,7.74,0,0,0-.58,1.39,26.37,26.37,0,0,0,2.48,1.58q1.42.81,2.76,1.62a16.38,16.38,0,0,1,2.34,1.68A3.31,3.31,0,0,1,645.47,446.52Zm9.15,4.15c0,.09-.14.21-.41.35l-.65.35v4.12a3.68,3.68,0,0,1-.23,1.51q-.23.45-1.32.45a2.08,2.08,0,0,1-1.09-.21c-.21-.14-.31-.44-.31-.91H632.08v2.88q0,1,.33,1.2a2.59,2.59,0,0,0,1.25.21h16.81l.45-.48.5-.52a3.12,3.12,0,0,1,.47-.44.68.68,0,0,1,.37-.18,1.59,1.59,0,0,1,.79.34,11,11,0,0,1,1,.73,9.83,9.83,0,0,1,.86.78c.25.24.37.39.37.44,0,.37-.55.56-1.65.56H632.5a13.92,13.92,0,0,1-1.56-.07,2.37,2.37,0,0,1-1.06-.34,1.45,1.45,0,0,1-.59-.8,4.64,4.64,0,0,1-.2-1.5V454l.76.18c.29.07.59.15.89.25a7.63,7.63,0,0,1,.85.3,2.34,2.34,0,0,1,.56.29h18.53v-3.83H631.31l-2.22.46-.77-2.18,2.95.46h19.51a3.77,3.77,0,0,1,1-.69,2.46,2.46,0,0,1,.77-.3,1.72,1.72,0,0,1,.53.14,4.11,4.11,0,0,1,.68.37,2.78,2.78,0,0,1,.6.53A1,1,0,0,1,654.62,450.67Zm-2.18-9.21h-7.35l-1.65.31-1.23-2,2.77.46h7.46Zm3.12-7.24a.54.54,0,0,1-.26.44,5.23,5.23,0,0,1-.58.35l-.58.3c-.18.09-.26.2-.26.31v11c0,.92-1,1.33-2.89,1.23V432.53a1.47,1.47,0,0,0,.92.44l1.55.31a13.86,13.86,0,0,1,1.45.37C655.35,433.79,655.56,434,655.56,434.22Z"/><path d="M663.58,437.27l-.56.06c-.33,0-.81.1-1.44.19l-.67-1.76c.7.1,1.26.16,1.67.2s.71.05.89.05h7.42v-3.2a4.5,4.5,0,0,0,.83.28l.86.18.42.05.67.05h.46a3.1,3.1,0,0,1,.49,0q.63.1.63.42c0,.3-.24.55-.74.74s-.73.29-.73.45v1h5.3a1.45,1.45,0,0,0,.25-.39,5.14,5.14,0,0,1,.53-.77c.33-.35.58-.53.77-.53a2.58,2.58,0,0,1,1,.35,1.77,1.77,0,0,1,.56.43,3.29,3.29,0,0,0,.6.52q1.05.86,1,1.23t-1,.42Zm19.83,12c.63.52,1,1,1,1.41s-.35.53-1.06.53H663.62a7.34,7.34,0,0,0-1,.1,6.25,6.25,0,0,1-.69.09,1.8,1.8,0,0,0-.37.05l-.6-1.93c.33.05.71.1,1.15.18s.94.14,1.53.21h16c.86-1.27,1.52-1.86,2-1.76l.33.19.47.3a2.54,2.54,0,0,1,.37.23Zm-11.32-1.47a27.62,27.62,0,0,1-4.06-.27,13.06,13.06,0,0,1-3.1-.79,5,5,0,0,1-2-1.35,3,3,0,0,1-.68-2,3.2,3.2,0,0,1,.68-2,5.08,5.08,0,0,1,2-1.41,12.58,12.58,0,0,1,3.1-.8,27.62,27.62,0,0,1,4.06-.27,26.29,26.29,0,0,1,3.95.28,12.82,12.82,0,0,1,3,.83,5,5,0,0,1,1.93,1.39,3.06,3.06,0,0,1,.69,2c0,1.48-.85,2.58-2.54,3.31A18.45,18.45,0,0,1,672.09,447.79Zm18,12.27a3.23,3.23,0,0,1,.34.49,1.55,1.55,0,0,1,.19.53.47.47,0,0,1-.12.4.81.81,0,0,1-.58.16H667.59l-1.67,0a3.78,3.78,0,0,1-1.3-.23,1.63,1.63,0,0,1-.85-.72,2.89,2.89,0,0,1-.3-1.46v-6.29a4.61,4.61,0,0,0,1,.28c.51.09,1,.2,1.57.32a8.61,8.61,0,0,1,1.42.42c.41.16.62.35.62.56s-.1.25-.29.34a3.87,3.87,0,0,1-.63.21c-.23.05-.44.11-.63.17s-.28.15-.28.27v2.7a4.36,4.36,0,0,0,.26,1.64c.18.41.64.61,1.39.61h17.19l.32-.33a7,7,0,0,1,.67-.63,7.68,7.68,0,0,1,.79-.62,1.23,1.23,0,0,1,.65-.28,1.66,1.66,0,0,1,.65.16,6.14,6.14,0,0,1,.72.37,7.37,7.37,0,0,1,.67.47C689.81,459.76,690,459.92,690.12,460.06Zm-11.77-16.67a1.89,1.89,0,0,0-.51-1.3,4.47,4.47,0,0,0-1.36-1,7.84,7.84,0,0,0-2-.59,14.42,14.42,0,0,0-2.41-.2,13.85,13.85,0,0,0-2.34.2,8.44,8.44,0,0,0-2,.59,4.49,4.49,0,0,0-1.41,1,1.86,1.86,0,0,0-.53,1.3,2.06,2.06,0,0,0,.55,1.48,3.53,3.53,0,0,0,1.44.86,9,9,0,0,0,2,.4c.75.07,1.51.11,2.29.11s1.6,0,2.35-.11a8.83,8.83,0,0,0,2-.4,3.33,3.33,0,0,0,1.39-.86A2.13,2.13,0,0,0,678.35,443.39Zm-7.63,7.24v-4.07h2.88v4.07Zm18,2.78q0,1.44-2.88,1.23V432.53a6.16,6.16,0,0,0,1.23.47,14.87,14.87,0,0,0,1.48.34c1.24.21,1.86.5,1.86.88s-.28.65-.84.84-.85.35-.85.56Zm5.56-8.75a1,1,0,0,1,.17.45c0,.31-.29.46-.88.46h-5.55v-1.19h1.58q1.51-1.83,2.22-1.83a.93.93,0,0,1,.66.31A16.63,16.63,0,0,1,694.31,444.66Z"/><path d="M699.79,439q-.7.18-1,.3l-.43.16-.73-2.25c.28.09.6.18,1,.26l1.18.27h6.36v-4.85c2.46.32,3.88.65,4.26,1a.61.61,0,0,1,.17.46c0,.14-.25.28-.77.42s-.74.28-.74.56v2.5h4.92c.14-.19.3-.38.46-.57l.49-.56c.5-.58.85-.88,1.06-.88a1.8,1.8,0,0,1,.56.32c1.27,1.05,1.9,1.82,1.9,2.29s-.45.59-1.34.59Zm16.35,12.87a8.82,8.82,0,0,1-2.22,6.19,7.75,7.75,0,0,1-6,2.56,8,8,0,0,1-6.12-2.49,8.33,8.33,0,0,1-2.36-6.26,9.42,9.42,0,0,1,2.22-6.47,7.72,7.72,0,0,1,6.26-2.64q4.18,0,6.25,2.61A9.85,9.85,0,0,1,716.14,451.9Zm-2.92,0a10.88,10.88,0,0,0-1.12-5.17,4.51,4.51,0,0,0-4.22-2.74,4.64,4.64,0,0,0-4.29,2.71,10.93,10.93,0,0,0-1.13,5.2,9.82,9.82,0,0,0,1.23,5,4.64,4.64,0,0,0,4.19,2.53c1.59,0,2.93-.89,4-2.67A9.22,9.22,0,0,0,713.22,451.9Zm11.53,8.89c0,.87-1,1.23-2.88,1.09V432.49a2.28,2.28,0,0,0,1,.39l1.62.37a9,9,0,0,1,1.48.46c.42.17.61.39.56.65a.49.49,0,0,1-.32.35l-.59.31a6.26,6.26,0,0,0-.58.29.4.4,0,0,0-.27.35v11.46h.56c.17-.19.36-.41.57-.67l.63-.76a6.24,6.24,0,0,1,.63-.63,1.3,1.3,0,0,1,.6-.3,1.08,1.08,0,0,1,.81.32,8.14,8.14,0,0,1,1,.91,10.47,10.47,0,0,1,.82,1.06,1.66,1.66,0,0,1,.35.74c0,.33-.32.49-1,.49h-5Z"/><path d="M763.92,459.07a2.7,2.7,0,0,1,.56,1.58c0,.71-.31,1.06-.92,1.06a2.73,2.73,0,0,1-1.4-.53,17.9,17.9,0,0,0-2.59-2.81q-1.56-1.41-3.25-3.1a18.79,18.79,0,0,1-5.38,5.77c-.11.09-.27.2-.45.32l-.67.42-1,.39-.7.21c-.22,0-.32,0-.32-.14s.2-.41.6-.88c.11-.12.22-.23.31-.34l.32-.33c.19-.19.37-.38.54-.58a6.65,6.65,0,0,0,.51-.65,6.35,6.35,0,0,1-1.63-.86l-2-1.37a18.63,18.63,0,0,0-1.81-1.11c-.54-.28-.88-.29-1,0a5.37,5.37,0,0,1-.87,1.08c-.45.48-1,1-1.67,1.63a25.21,25.21,0,0,1-2,1.6,17.35,17.35,0,0,1-1.87,1.18,6.72,6.72,0,0,1-2.81,1c-.12,0-.18,0-.18-.11s.23-.42.67-.77l.56-.46.78-.6a22.36,22.36,0,0,0,2.53-2.26,14.68,14.68,0,0,0,1.86-2.31,10.69,10.69,0,0,0,2.5-6.47c1.52.43,2.33.64,2.42.64,1.27.42,1.9.78,1.9,1.09s-.34.44-1,.7l-.28.07a3.31,3.31,0,0,0-.42.11,4.61,4.61,0,0,1-.88,1.68c.33.14.62.27.86.39l.72.35.72.35.87.39a16.51,16.51,0,0,1,2.16,1.18,2.56,2.56,0,0,1,1.14,1.32,12.38,12.38,0,0,0,2.43-3.27A13.9,13.9,0,0,0,755,452a7.41,7.41,0,0,0,.42-2.21q4.18,1.33,4.19,2.07c0,.3-.58.49-1.73.56,0,.12-.15.37-.31.74a11.63,11.63,0,0,1-.53,1.06c.49.25,1.08.58,1.78,1s1.37.81,2.05,1.25,1.3.9,1.87,1.35A5.63,5.63,0,0,1,763.92,459.07Zm-13.15-18a7.13,7.13,0,0,1-1.65,4.74,7.56,7.56,0,0,1-6.19,2.57,7.29,7.29,0,0,1-6.22-2.74,8.57,8.57,0,0,1-1.52-5q0-7.69,7.7-7.69Q750.77,432.92,750.77,441ZM748,441q0-7-5.07-7a4.17,4.17,0,0,0-4,2.5,8.49,8.49,0,0,0-.87,4.07,8.62,8.62,0,0,0,1,4,5.24,5.24,0,0,0,1.63,1.85,4,4,0,0,0,2.27.61,4.44,4.44,0,0,0,4.08-2.35A7.46,7.46,0,0,0,748,441Zm11.77-2h-6.15l-1.58.21-.6-1.86,1.86.28h6.47Zm0,6.58h-6.08l-1.62.24-.6-1.79,1.93.28h6.4Zm3.93-11.25c0,.26-.19.49-.58.72a10.6,10.6,0,0,1-1.17.58v12.76c0,.87-1,1.23-2.89,1.09l0-17a3.26,3.26,0,0,0,1.19.44l1.53.32a6.46,6.46,0,0,1,1.32.4C763.45,433.82,763.63,434.05,763.63,434.36Z"/><path d="M771.09,449.9a1.79,1.79,0,0,0-.78.24,6.63,6.63,0,0,1-.73.21l-.53-2.18a6.66,6.66,0,0,0,1.05.25l1.06.21h25.91q1.2-1.62,2.07-1.62a1.91,1.91,0,0,1,.6.11,1.2,1.2,0,0,1,.63.32,5.18,5.18,0,0,1,.42.36l.53.51a2.2,2.2,0,0,1,.74,1.2q0,.39-.6.39Zm5.83-6.51h-1.79a5.47,5.47,0,0,1-1.44-.17,1.72,1.72,0,0,1-1-.67,2.59,2.59,0,0,1-.35-1.48V433a1.59,1.59,0,0,0,.79.26l1.46.29c.51.1,1,.22,1.42.35s.68.3.72.51-.08.22-.24.31a3.07,3.07,0,0,1-.55.25l-.54.18c-.17,0-.25.09-.25.14v5.41a2.59,2.59,0,0,0,.12.88.81.81,0,0,0,.39.44,1.8,1.8,0,0,0,.67.14l1,0h17.47a6,6,0,0,0,.47-.55c.18-.22.35-.44.53-.65a5.77,5.77,0,0,1,.53-.56,1,1,0,0,1,.47-.28c.14,0,.38.08.71.31a9.13,9.13,0,0,1,1,.85,7.21,7.21,0,0,1,.83,1c.22.33.28.58.19.74s-.18.42-.53.42Zm22.22,17.76c0,.32-.23.49-.7.49H777a11.1,11.1,0,0,1-2.81-.21,2.11,2.11,0,0,1-1.34-2.22v-7l1.41.33,1.4.33c1.25.33,1.87.64,1.87.92s-.32.44-.95.56-.92.26-.92.42v3.41c0,1.5.55,2.25,1.66,2.25h16.24l1.26-1.26a1.71,1.71,0,0,1,1.16-.6,2.85,2.85,0,0,1,1.41.53,4.24,4.24,0,0,1,1.16.93A1.72,1.72,0,0,1,799.14,461.15Z"/><path d="M821.5,433.76a1.84,1.84,0,0,1,.63.21,8,8,0,0,1,.94.51,7.07,7.07,0,0,1,.84.63c.25.23.37.42.37.58s-.45.64-1.34,1a25.77,25.77,0,0,1-1.28,6.29,34.81,34.81,0,0,1-2.76,6.29,31.46,31.46,0,0,1-3.9,5.54,21.22,21.22,0,0,1-4.71,4.06l-1.15.67c-.41.23-.83.45-1.26.65a10.63,10.63,0,0,1-1.27.49,3.77,3.77,0,0,1-1.14.19c-.16,0-.2-.07-.1-.22a2.6,2.6,0,0,1,.47-.55c.22-.21.48-.44.77-.68l.79-.65a28.21,28.21,0,0,0,4.66-4.42,36.13,36.13,0,0,0,4-5.64,33.17,33.17,0,0,0,2.77-6.26,21.63,21.63,0,0,0,1.13-6.25h-10c-.21,0-.84.07-1.9.21l-1-1.9q1.1.21,3,.42h9.73c.29-.26.58-.52.88-.77A1.4,1.4,0,0,1,821.5,433.76Zm11.25,27c0,.87-1,1.23-2.88,1.09V432.49a2.28,2.28,0,0,0,1,.39l1.62.37a9,9,0,0,1,1.48.46c.42.17.61.39.56.65a.49.49,0,0,1-.32.35l-.59.31a6.26,6.26,0,0,0-.58.29.4.4,0,0,0-.27.35v11.46h.56c.17-.19.36-.41.57-.67l.63-.76a6.24,6.24,0,0,1,.63-.63,1.3,1.3,0,0,1,.6-.3,1.08,1.08,0,0,1,.81.32,8.14,8.14,0,0,1,1,.91,10.47,10.47,0,0,1,.82,1.06,1.66,1.66,0,0,1,.35.74c0,.33-.32.49-1,.49h-5Z"/><path d="M856.45,441.11a5.84,5.84,0,0,1-2.32,4.53,12.7,12.7,0,0,1-4.78,2.32v6.58H847.8V447a5.9,5.9,0,0,0,4.25-1.79,5.66,5.66,0,0,0,1.87-4.19,4.86,4.86,0,0,0-1.73-3.8,6,6,0,0,0-4-1.51,7.25,7.25,0,0,0-3.48.88,3,3,0,0,0-2,2.67,1.88,1.88,0,0,0,.25.92,6.19,6.19,0,0,0,1.68.6,1.25,1.25,0,0,1,.53.24,1.29,1.29,0,0,1,.56,1.2,1.72,1.72,0,0,1-.61,1.35,2.11,2.11,0,0,1-1.42.55,2.45,2.45,0,0,1-1.94-1.09,3.75,3.75,0,0,1-.84-2.25,5.29,5.29,0,0,1,2.49-4.68,9.45,9.45,0,0,1,5.31-1.44,8.84,8.84,0,0,1,5.38,1.58A5.64,5.64,0,0,1,856.45,441.11Zm-5.52,18.31A2.26,2.26,0,0,1,847,461a2.2,2.2,0,0,1-.68-1.6,2.16,2.16,0,0,1,.68-1.58,2.25,2.25,0,0,1,3.2,0A2.13,2.13,0,0,1,850.93,459.42Z"/><path d="M894.17,433.23a7.51,7.51,0,0,1,1.18.78,3.5,3.5,0,0,1,.89,1,2.3,2.3,0,0,1-1.19,1.17,15.63,15.63,0,0,1-1.62,4.53,19.94,19.94,0,0,1-3,4.22,22.06,22.06,0,0,1-4.2,3.5,19.3,19.3,0,0,1-5.12,2.33c-.23.05-.52.11-.86.16l-1,.16a4.79,4.79,0,0,1-.79.07c-.22,0-.33-.05-.33-.14s.24-.37.72-.56,1.17-.51,2.06-.95a21.9,21.9,0,0,0,4.23-2.78,24,24,0,0,0,3.48-3.51,18.29,18.29,0,0,0,2.39-3.8,9.58,9.58,0,0,0,1-3.59h-9.35l-1.93.18-1.09-1.86,3,.49h9.74a4.46,4.46,0,0,1,.88-.92A2.22,2.22,0,0,1,894.17,433.23Zm12.45,27.35c.16.8-.29,1.2-1.34,1.2a3.69,3.69,0,0,1-1.69-.49c-.23-.12-.61-.34-1.12-.67l-1.78-1.16-2.07-1.41-2-1.4c-.64-.45-1.18-.84-1.62-1.18a10,10,0,0,1-.85-.69,11.62,11.62,0,0,1-2.35,2.27,26.15,26.15,0,0,1-3.16,2,33.65,33.65,0,0,1-3.4,1.6,25.34,25.34,0,0,1-3.07,1,10.25,10.25,0,0,1-2.78.56c-.38,0-.49-.09-.35-.28a8.3,8.3,0,0,1,2.49-1.37,38,38,0,0,0,3.64-1.85,29,29,0,0,0,3.69-2.48,18.92,18.92,0,0,0,3.06-3,8.53,8.53,0,0,0,1.74-3.43l1.13.42c.37.14.76.27,1.16.39,1.19.49,1.79.89,1.79,1.19s-.11.3-.33.41a8.54,8.54,0,0,1-1.64.37c-.09.16-.2.34-.33.53a7,7,0,0,1-.48.59s.28,0,.78.23,1.1.46,1.84.79,1.54.69,2.39,1.09,1.67.79,2.43,1.16,1.41.71,2,1a6.66,6.66,0,0,1,.95.58,5.88,5.88,0,0,1,.81.92A3,3,0,0,1,906.62,460.58Zm-2.92-16.87h-7l-1.66.31-1.23-2,2.78.46h7.07Zm3.86-9.49a.54.54,0,0,1-.26.44,5.23,5.23,0,0,1-.58.35l-.58.3c-.18.09-.26.2-.26.31V451c0,.91-1,1.32-2.89,1.23V432.53a1.47,1.47,0,0,0,.92.44l1.55.31a13.86,13.86,0,0,1,1.45.37C907.35,433.79,907.56,434,907.56,434.22Z"/><path d="M915.09,450.56a1.83,1.83,0,0,0-.78.25,6.63,6.63,0,0,1-.73.21l-.53-2.18a8.43,8.43,0,0,0,1.05.25l1.06.21h25.91q1.2-1.62,2.07-1.62a1.91,1.91,0,0,1,.6.11,1.29,1.29,0,0,1,.63.31l.42.37.53.51a2.2,2.2,0,0,1,.74,1.2c0,.26-.2.38-.6.38Zm27.28-11.46a4.25,4.25,0,0,1-1.07,3,7.22,7.22,0,0,1-2.89,1.85,17.74,17.74,0,0,1-4.25.93,51.53,51.53,0,0,1-10.34,0,18.45,18.45,0,0,1-4.28-.93,7.55,7.55,0,0,1-2.94-1.81,4.07,4.07,0,0,1-1.09-2.94,4.39,4.39,0,0,1,1.14-3.14,7.42,7.42,0,0,1,3-1.88,18.48,18.48,0,0,1,4.3-.92c1.62-.16,3.28-.24,5-.24a48.6,48.6,0,0,1,5.3.26,17.06,17.06,0,0,1,4.23.95,7.06,7.06,0,0,1,2.83,1.86A4.45,4.45,0,0,1,942.37,439.1Zm.77,22c0,.32-.23.49-.7.49H921a11.1,11.1,0,0,1-2.81-.21,2.11,2.11,0,0,1-1.34-2.22v-7l1.41.33,1.4.33c1.25.33,1.87.64,1.87.92s-.32.44-.95.56-.92.26-.92.42v3.41c0,1.5.55,2.25,1.66,2.25h16.24l1.26-1.26a1.71,1.71,0,0,1,1.16-.6,2.85,2.85,0,0,1,1.41.53,4.24,4.24,0,0,1,1.16.93A1.72,1.72,0,0,1,943.14,461.15Zm-4-22.19a3.24,3.24,0,0,0-.74-2.19,5.1,5.1,0,0,0-2.06-1.39,11.82,11.82,0,0,0-3.18-.74,37.19,37.19,0,0,0-4.15-.21,35.56,35.56,0,0,0-4,.21,13.4,13.4,0,0,0-3.29.75,5.7,5.7,0,0,0-2.23,1.48,3.4,3.4,0,0,0-.83,2.34,2.79,2.79,0,0,0,.9,2.14,6.25,6.25,0,0,0,2.36,1.34,15.83,15.83,0,0,0,3.3.7,33.09,33.09,0,0,0,3.74.21,37.19,37.19,0,0,0,4.15-.21,11.82,11.82,0,0,0,3.18-.74,5,5,0,0,0,2.06-1.42A3.46,3.46,0,0,0,939.1,439Z"/><path d="M984,445.78a2.13,2.13,0,0,1-.07,1.36,1,1,0,0,1-.95.61,2.32,2.32,0,0,1-1.26-.49,6.76,6.76,0,0,1-1.23-1.13c-.49-.53-1-1.12-1.55-1.75s-1.08-1.26-1.62-1.87a15.68,15.68,0,0,0-1.44-1.47c-.42.77-.84,1.47-1.26,2.09a14.56,14.56,0,0,1-1.37,1.72,16,16,0,0,1-1.6,1.48,21.42,21.42,0,0,1-1.92,1.32,5.18,5.18,0,0,1-.56.31c-.24.12-.46.23-.69.32a2,2,0,0,1-.56.16c-.15,0-.23,0-.23-.16s.34-.66,1-1.41a19.29,19.29,0,0,0,4.43-6.18,23,23,0,0,0,1.79-8s.21.1.69.22,1,.25,1.6.42,1.12.34,1.6.52.72.37.72.53c0,.38-.57.79-1.72,1.23a8.93,8.93,0,0,1-.74,2.29,11.39,11.39,0,0,0-.74,1.76c.56.3,1.25.7,2.06,1.19s1.6,1,2.37,1.58a20.57,20.57,0,0,1,2.07,1.73A4.19,4.19,0,0,1,984,445.78Zm12.63,4.89c0,.09-.14.21-.41.35l-.65.35v4.12a3.68,3.68,0,0,1-.23,1.51q-.23.45-1.32.45a2.08,2.08,0,0,1-1.09-.21c-.21-.14-.31-.44-.31-.91H974.08v2.88q0,1,.33,1.2a2.59,2.59,0,0,0,1.25.21h16.81l.45-.48.5-.52a3.12,3.12,0,0,1,.47-.44.68.68,0,0,1,.37-.18,1.59,1.59,0,0,1,.79.34,11,11,0,0,1,1,.73,9.83,9.83,0,0,1,.86.78c.25.24.37.39.37.44,0,.37-.55.56-1.65.56H974.5a13.92,13.92,0,0,1-1.56-.07,2.37,2.37,0,0,1-1.06-.34,1.45,1.45,0,0,1-.59-.8,4.64,4.64,0,0,1-.2-1.5V454l.76.18c.29.07.59.15.89.25a7.63,7.63,0,0,1,.85.3,2.34,2.34,0,0,1,.56.29h18.53v-3.83H973.31l-2.22.46-.77-2.18,2.95.46h19.51a3.77,3.77,0,0,1,1-.69,2.46,2.46,0,0,1,.77-.3,1.72,1.72,0,0,1,.53.14,4.11,4.11,0,0,1,.68.37,2.78,2.78,0,0,1,.6.53A1,1,0,0,1,996.62,450.67Zm-2.18-9.56h-8.06l-1.65.31-1.23-2,2.78.46h8.16Zm3.12-6.89a.54.54,0,0,1-.26.44,5.23,5.23,0,0,1-.58.35l-.58.3c-.18.09-.26.2-.26.31v11c0,.92-1,1.33-2.89,1.23V432.53a1.47,1.47,0,0,0,.92.44l1.55.31a13.86,13.86,0,0,1,1.45.37C997.35,433.79,997.56,434,997.56,434.22Z"/><path d="M1019.08,435.17a1,1,0,0,1-.25.21l-.45.3c-.17.1-.32.21-.46.31s-.21.2-.21.27v10.16a3.18,3.18,0,0,1-.21,1.51c0,.09-.22.16-.51.19a17.43,17.43,0,0,1-1.78.05q-.32,0-.24-.81h-6.79v9.74a7.63,7.63,0,0,0,.05.95.88.88,0,0,0,.25.53,1,1,0,0,0,.55.23,7.57,7.57,0,0,0,.94.05h4.65q.45-.56,1-1.11a1.44,1.44,0,0,1,1-.54,1.89,1.89,0,0,1,.71.21,5,5,0,0,1,.91.56,4.22,4.22,0,0,1,.79.79,1.47,1.47,0,0,1,.34.86c0,.36-.29.53-.85.53h-8.82c-.85,0-1.54,0-2.08-.07a3.41,3.41,0,0,1-1.28-.32,1.28,1.28,0,0,1-.65-.77,4.45,4.45,0,0,1-.18-1.4V444.94c.59.19,1.16.36,1.73.51a3.09,3.09,0,0,1,1.33.68H1015v-10h-7.53l-1.68.11-1-1.83,2.88.49H1015a8.93,8.93,0,0,0,.68-.86,1.1,1.1,0,0,1,.9-.51,2.25,2.25,0,0,1,.9.21,6.37,6.37,0,0,1,.86.47,3.74,3.74,0,0,1,.61.53C1019.07,434.94,1019.13,435.07,1019.08,435.17Zm3.9,15h-4l-.36.06-.87.12-.59-1.79c.54.11,1,.21,1.26.28a3.61,3.61,0,0,0,.56.1h4Zm3.94-15.5c0,.26-.33.48-.91.67s-.85.37-.85.63v24.08c0,.92-1,1.3-2.88,1.16v-28.4l1.53.47c.5.15,1,.29,1.53.4C1026.46,434,1027,434.31,1026.92,434.71Zm6.71-.35c0,.26-.32.48-.91.66s-.84.38-.84.64v25.13c0,.92-1,1.31-2.89,1.16V432.49q.71.25,1.5.48c.53.15,1.06.29,1.6.4C1033.19,433.63,1033.71,434,1033.63,434.36Z"/><path d="M1041.09,449.9a1.79,1.79,0,0,0-.78.24,6.63,6.63,0,0,1-.73.21l-.53-2.18a6.66,6.66,0,0,0,1,.25l1.06.21h25.91q1.2-1.62,2.07-1.62a1.91,1.91,0,0,1,.6.11,1.2,1.2,0,0,1,.63.32,5.18,5.18,0,0,1,.42.36l.53.51a2.2,2.2,0,0,1,.74,1.2q0,.39-.6.39Zm5.83-6.51h-1.79a5.47,5.47,0,0,1-1.44-.17,1.72,1.72,0,0,1-1-.67,2.59,2.59,0,0,1-.35-1.48V433a1.59,1.59,0,0,0,.79.26l1.46.29c.51.1,1,.22,1.42.35s.68.3.72.51-.08.22-.24.31a3.07,3.07,0,0,1-.55.25l-.54.18c-.17,0-.25.09-.25.14v5.41a2.59,2.59,0,0,0,.12.88.81.81,0,0,0,.39.44,1.8,1.8,0,0,0,.67.14l1,0h17.47a6,6,0,0,0,.47-.55c.18-.22.35-.44.53-.65a5.77,5.77,0,0,1,.53-.56,1,1,0,0,1,.47-.28c.14,0,.38.08.71.31a9.13,9.13,0,0,1,1,.85,7.21,7.21,0,0,1,.83,1c.22.33.28.58.19.74s-.18.42-.53.42Zm22.22,17.76c0,.32-.23.49-.7.49H1047a11.1,11.1,0,0,1-2.81-.21,2.11,2.11,0,0,1-1.34-2.22v-7l1.41.33,1.4.33c1.25.33,1.87.64,1.87.92s-.32.44-1,.56-.92.26-.92.42v3.41c0,1.5.55,2.25,1.66,2.25h16.24l1.26-1.26a1.71,1.71,0,0,1,1.16-.6,2.85,2.85,0,0,1,1.41.53,4.24,4.24,0,0,1,1.16.93A1.72,1.72,0,0,1,1069.14,461.15Z"/><path d="M1109.5,433.76a1.84,1.84,0,0,1,.63.21,8,8,0,0,1,.94.51,7.07,7.07,0,0,1,.84.63c.25.23.37.42.37.58s-.45.64-1.34,1a25.77,25.77,0,0,1-1.28,6.29,34.81,34.81,0,0,1-2.76,6.29,31.46,31.46,0,0,1-3.9,5.54,21.22,21.22,0,0,1-4.71,4.06l-1.15.67c-.41.23-.83.45-1.26.65a10.63,10.63,0,0,1-1.27.49,3.77,3.77,0,0,1-1.14.19c-.16,0-.2-.07-.1-.22a2.6,2.6,0,0,1,.47-.55c.22-.21.48-.44.77-.68l.79-.65a28.21,28.21,0,0,0,4.66-4.42,36.13,36.13,0,0,0,4-5.64,33.17,33.17,0,0,0,2.77-6.26,21.63,21.63,0,0,0,1.13-6.25h-10c-.21,0-.84.07-1.9.21l-1-1.9q1.1.21,3,.42h9.73c.29-.26.58-.52.88-.77A1.4,1.4,0,0,1,1109.5,433.76Zm11.25,27c0,.87-1,1.23-2.88,1.09V432.49a2.28,2.28,0,0,0,1,.39l1.62.37a9,9,0,0,1,1.48.46c.42.17.61.39.56.65a.49.49,0,0,1-.32.35l-.59.31a6.26,6.26,0,0,0-.58.29.4.4,0,0,0-.27.35v11.46h.56c.17-.19.36-.41.57-.67l.63-.76a6.24,6.24,0,0,1,.63-.63,1.3,1.3,0,0,1,.6-.3,1.08,1.08,0,0,1,.81.32,8.14,8.14,0,0,1,1,.91,10.47,10.47,0,0,1,.82,1.06,1.66,1.66,0,0,1,.35.74c0,.33-.32.49-1,.49h-5Z"/><path d="M1131.76,448.49c-.33.09-.69.18-1.08.26l-1.17.27-.71-2.22,2,.37.74.12h25.77l.25-.29c.14-.18.34-.46.59-.83a1.35,1.35,0,0,1,1-.6,2.61,2.61,0,0,1,1.19.42,2.37,2.37,0,0,1,.57.43,5.92,5.92,0,0,1,.52.59,4.14,4.14,0,0,1,.41.62,1.23,1.23,0,0,1,.16.51c0,.23-.15.35-.43.35Zm25.24-8.33a3.3,3.3,0,0,1,1.37.7,2.35,2.35,0,0,1,.72,1,.92.92,0,0,1-.16.91,1.58,1.58,0,0,1-1.26.39,9.85,9.85,0,0,1-2.48-.51c-.51-.17-1.13-.4-1.87-.68l-2.4-.95-2.57-1-2.36-1-1.75-.74a20.39,20.39,0,0,1-5.19,3.41,26.15,26.15,0,0,1-6.24,1.87,4.57,4.57,0,0,0-.51.07,8.76,8.76,0,0,1-.91.09,4,4,0,0,1-.81,0c-.22,0-.3-.12-.23-.26s.39-.5.88-.65l1.48-.48a17.81,17.81,0,0,0,2.14-.82,24.08,24.08,0,0,0,2.43-1.3c.82-.51,1.63-1.06,2.44-1.67a22.11,22.11,0,0,0,2.21-1.9,15.21,15.21,0,0,0,1.74-2,6.45,6.45,0,0,0,1-2,3.16,3.16,0,0,0,.71.43l1.19.61c.42.22.83.46,1.21.7a2.76,2.76,0,0,1,.8.69.52.52,0,0,1-.36.42,2.49,2.49,0,0,1-.7.21l-.74.13a.82.82,0,0,0-.45.15l-.48.55c-.17.2-.38.43-.61.68.82.22,1.7.43,2.63.64l2.92.68c1,.25,2,.51,3.09.79S1156,439.83,1157,440.16Zm1.4,12.58c0,.21-.18.43-.56.64s-.53.37-.53.63v6.19a4,4,0,0,1-.14,1.47c-.18.33-.59.5-1.23.5a3.17,3.17,0,0,1-1.12-.11c-.26-.12-.39-.45-.39-1h-19.16c0,.72-.58,1.09-1.76,1.09q-.87,0-1-.39a3.5,3.5,0,0,1-.11-1.23v-8.86a5.25,5.25,0,0,1,2.92.74h19.23l.35-.27.36-.26a2,2,0,0,1,.8-.39.34.34,0,0,1,.28.14c.22.05.43.11.64.18l.6.21C1158.11,452.25,1158.4,452.49,1158.4,452.74Zm-4,.88h-19.12v6.23h19.12Z"/><path d="M1179.92,446.84a30.6,30.6,0,0,1-.33,4.59,33.71,33.71,0,0,1-.94,4.2q-1.86,5.24-5.37,5.23a4.48,4.48,0,0,1-3.24-1.28,9.84,9.84,0,0,1-2.25-3.85,26.87,26.87,0,0,1-1.23-8.89,30,30,0,0,1,1.09-8.62q1.65-5.13,5.31-5.13c2.58,0,4.48,1.67,5.69,5a29.27,29.27,0,0,1,.94,4.12A31,31,0,0,1,1179.92,446.84Zm-3,0q0-12.34-3.87-12.34t-4,12.34a37.93,37.93,0,0,0,.18,3.79,27.18,27.18,0,0,0,.56,3.52q1.05,5.34,3.41,5.34Q1177,459.49,1177,446.84Zm8,.21h-4.81a1.51,1.51,0,0,0-.71.14,4,4,0,0,1-.47.1l-.27.07-.56-2c.75.11,1.3.21,1.64.28s.46.1.37.1H1185Zm3.94-12.34c0,.26-.33.48-.91.67s-.85.37-.85.63v24.08c0,.92-1,1.3-2.88,1.16v-28.4l1.53.47c.5.15,1,.29,1.53.4C1188.46,434,1189,434.31,1188.92,434.71Zm6.71-.35c0,.26-.32.48-.91.66s-.84.38-.84.64v25.13c0,.92-1,1.31-2.89,1.16V432.49q.71.25,1.5.48c.53.15,1.06.29,1.6.4C1195.19,433.63,1195.71,434,1195.63,434.36Z"/><path d="M1252.17,447.47c0,.21-.16.32-.46.32h-30.34l-1,.28-1.08.31-.66-2.25,1.17.18c.46.07,1,.13,1.6.18h25.88a3.92,3.92,0,0,0,1.09-1.06,1.46,1.46,0,0,1,1-.56,2.42,2.42,0,0,1,1.3.6,1.2,1.2,0,0,1,.37.3,3.8,3.8,0,0,1,.51.61A2.33,2.33,0,0,1,1252.17,447.47Zm-4.68,11.43a3.07,3.07,0,0,1,1.44,2.32c0,.56-.33.84-1,.84a4.12,4.12,0,0,1-1.48-.32,10.68,10.68,0,0,1-1-.51c-.41-.22-.91-.51-1.5-.86l-1.63-1L1240,458c-.52-.33-1.16-.72-1.94-1.16l-2.74-1.59a18,18,0,0,1-5.69,4.68,19.51,19.51,0,0,1-7.11,2.39l-.63.07-.91.07q-1,.07-1-.21c0-.26,1-.7,2.85-1.33a26.37,26.37,0,0,0,6.29-3.38,15.87,15.87,0,0,0,2.67-2.67c.54-.68,1-1.3,1.34-1.85a5.6,5.6,0,0,0,.7-1.46,4.29,4.29,0,0,0,.86.34c.41.13,1,.28,1.64.47,1.07.28,1.61.55,1.61.81s-.56.6-1.68.95l0,0c1.22.42,2.31.8,3.27,1.16s1.82.69,2.57,1c1.4.59,2.55,1.09,3.42,1.52A18.24,18.24,0,0,1,1247.49,458.9Zm-22-15.65q0,.84-.42,1a10.2,10.2,0,0,0-1.27,0,3.65,3.65,0,0,1-.95-.07q-.14-.07-.21-.57v-.88c0-.25,0-.44,0-.54v-8.84a1.26,1.26,0,0,0,.38.17l.85.28a7,7,0,0,0,1.23.32h19.61a1.22,1.22,0,0,0,.46-.25,4.64,4.64,0,0,0,.4-.36,4.59,4.59,0,0,1,.41-.36.72.72,0,0,1,.42-.15,1.48,1.48,0,0,1,.49.12,6.34,6.34,0,0,1,.67.3,3.1,3.1,0,0,1,.6.38c.16.15.24.27.24.39a.55.55,0,0,1-.14.3l-.29.42c-.11.15-.21.3-.3.44a.63.63,0,0,0-.14.35v6.16c0,1.4-.09,2.15-.25,2.25l-.37,0-.44,0c-1.12,0-1.71-.07-1.76-.22v-.7Zm19.26-7.91h-19.26V442h19.26Zm-8.4,11.74,0,4.05c0,.4-.43.7-1.27.91a3.55,3.55,0,0,1-1.69.18v-5.14Z"/><path d="M1291.93,446.84a24.7,24.7,0,0,1-.41,4.53,26.07,26.07,0,0,1-1.17,4.26q-2.22,5.24-6.54,5.23c-3,0-5.24-1.71-6.65-5.13a15.18,15.18,0,0,1-1.18-3.94,30.9,30.9,0,0,1-.36-5,25.19,25.19,0,0,1,1.37-8.62q2-5.13,6.47-5.13c3.11,0,5.41,1.67,6.89,5a23.32,23.32,0,0,1,1.17,4.15A25.26,25.26,0,0,1,1291.93,446.84Zm-3.62,0q0-12.34-4.75-12.34t-4.85,12.34a30.77,30.77,0,0,0,.84,7.31c.92,3.56,2.31,5.34,4.19,5.34Q1288.3,459.49,1288.31,446.84Zm15.32-12.48c0,.26-.32.48-.91.66s-.84.38-.84.64v25.13c0,.92-1,1.31-2.89,1.16V432.49q.71.25,1.5.48c.53.15,1.06.29,1.6.4C1303.19,433.63,1303.71,434,1303.63,434.36Z"/><path d="M1326.17,433.23a7.51,7.51,0,0,1,1.18.78,3.5,3.5,0,0,1,.89,1,2.3,2.3,0,0,1-1.19,1.17,15.63,15.63,0,0,1-1.62,4.53,19.94,19.94,0,0,1-3,4.22,22.06,22.06,0,0,1-4.2,3.5,19.3,19.3,0,0,1-5.12,2.33c-.23.05-.52.11-.86.16l-1,.16a4.79,4.79,0,0,1-.79.07c-.22,0-.33-.05-.33-.14s.24-.37.72-.56,1.17-.51,2.06-.95a21.9,21.9,0,0,0,4.23-2.78,24,24,0,0,0,3.48-3.51,18.29,18.29,0,0,0,2.39-3.8,9.58,9.58,0,0,0,1-3.59h-9.35l-1.93.18-1.09-1.86,3,.49h9.74a4.46,4.46,0,0,1,.88-.92A2.22,2.22,0,0,1,1326.17,433.23Zm12.45,27.35c.16.8-.29,1.2-1.34,1.2a3.69,3.69,0,0,1-1.69-.49c-.23-.12-.61-.34-1.12-.67l-1.78-1.16-2.07-1.41-2-1.4c-.64-.45-1.18-.84-1.62-1.18a10,10,0,0,1-.85-.69,11.62,11.62,0,0,1-2.35,2.27,26.15,26.15,0,0,1-3.16,2,33.65,33.65,0,0,1-3.4,1.6,25.34,25.34,0,0,1-3.07,1,10.25,10.25,0,0,1-2.78.56c-.38,0-.49-.09-.35-.28a8.3,8.3,0,0,1,2.49-1.37,38,38,0,0,0,3.64-1.85,29,29,0,0,0,3.69-2.48,18.92,18.92,0,0,0,3.06-3,8.53,8.53,0,0,0,1.74-3.43l1.13.42c.37.14.76.27,1.16.39,1.19.49,1.79.89,1.79,1.19s-.11.3-.33.41a8.54,8.54,0,0,1-1.64.37c-.09.16-.2.34-.33.53a7,7,0,0,1-.48.59s.28,0,.78.23,1.1.46,1.84.79,1.54.69,2.39,1.09,1.67.79,2.43,1.16,1.41.71,1.95,1a6.66,6.66,0,0,1,1,.58,5.88,5.88,0,0,1,.81.92A3,3,0,0,1,1338.62,460.58Zm-2.92-16.87h-7l-1.66.31-1.23-2,2.78.46h7.07Zm3.86-9.49a.54.54,0,0,1-.26.44,5.23,5.23,0,0,1-.58.35l-.58.3c-.18.09-.26.2-.26.31V451c0,.91-1,1.32-2.89,1.23V432.53a1.47,1.47,0,0,0,.92.44l1.55.31a13.86,13.86,0,0,1,1.45.37C1339.35,433.79,1339.56,434,1339.56,434.22Z"/><path d="M1363.93,446.84a24.7,24.7,0,0,1-.41,4.53,26.07,26.07,0,0,1-1.17,4.26q-2.22,5.24-6.54,5.23c-3,0-5.24-1.71-6.65-5.13a15.18,15.18,0,0,1-1.18-3.94,30.9,30.9,0,0,1-.36-5,25.19,25.19,0,0,1,1.37-8.62q2-5.13,6.47-5.13c3.11,0,5.41,1.67,6.89,5a23.32,23.32,0,0,1,1.17,4.15A25.26,25.26,0,0,1,1363.93,446.84Zm-3.62,0q0-12.34-4.75-12.34t-4.85,12.34a30.77,30.77,0,0,0,.84,7.31c.92,3.56,2.31,5.34,4.19,5.34Q1360.3,459.49,1360.31,446.84Zm15.32-12.48c0,.26-.32.48-.91.66s-.84.38-.84.64v25.13c0,.92-1,1.31-2.89,1.16V432.49q.71.25,1.5.48c.53.15,1.06.29,1.6.4C1375.19,433.63,1375.71,434,1375.63,434.36Z"/><path d="M1387.48,459.7a10.39,10.39,0,0,1-2.19-.17,2.08,2.08,0,0,1-1.2-.67,2.46,2.46,0,0,1-.49-1.34,21.69,21.69,0,0,1-.09-2.21V433.72a2.24,2.24,0,0,0,.93.39l1.28.28a9.79,9.79,0,0,1,1.25.35,1.58,1.58,0,0,1,.83.6h7.28c1.07-1.26,1.78-1.87,2.11-1.83a4.14,4.14,0,0,1,.44.28c.26.19.56.41.87.67a7.65,7.65,0,0,1,.87.83,1.26,1.26,0,0,1,.38.75c0,.33-.29.5-.88.5h-12.41l0,20.14c0,.84.19,1.35.56,1.53a4.44,4.44,0,0,0,1.79.26h6.61c.94-1.28,1.68-1.93,2.22-1.93a1.75,1.75,0,0,1,1.14.42,6,6,0,0,1,1.49,1.83,1.24,1.24,0,0,1,.22.67c0,.16-.39.24-1.16.24Zm21.27,1.09c0,.87-1,1.23-2.88,1.09V432.49a2.28,2.28,0,0,0,1,.39l1.62.37a9,9,0,0,1,1.48.46c.42.17.61.39.56.65a.49.49,0,0,1-.32.35l-.59.31a6.26,6.26,0,0,0-.58.29.4.4,0,0,0-.27.35v11.46h.56c.17-.19.36-.41.57-.67l.63-.76a6.24,6.24,0,0,1,.63-.63,1.3,1.3,0,0,1,.6-.3,1.08,1.08,0,0,1,.81.32,8.14,8.14,0,0,1,1,.91,10.47,10.47,0,0,1,.82,1.06,1.66,1.66,0,0,1,.35.74c0,.33-.32.49-1,.49h-5Z"/><path d="M1424.64,459a2.13,2.13,0,0,1-.65,1.62,2.25,2.25,0,0,1-1.63.63,2,2,0,0,1-1.53-.67,2.25,2.25,0,0,1-.62-1.58,2.33,2.33,0,0,1,.62-1.6,2,2,0,0,1,1.53-.68A2,2,0,0,1,1424.64,459Z"/></svg>