<svg xmlns="http://www.w3.org/2000/svg" xmlns:xlink="http://www.w3.org/1999/xlink" viewBox="0 0 1920 1080"><defs><style>.a{fill:none;}.b{opacity:0.95;}.c{opacity:0.7;fill:url(#a);}.d{fill:#fff;}.e{clip-path:url(#b);}.f{fill:#1e1e1e;}</style><linearGradient id="a" x1="960" y1="1080" x2="960" gradientUnits="userSpaceOnUse"><stop offset="0" stop-color="#bd0d1a"/><stop offset="1" stop-color="#dd4830"/></linearGradient><clipPath id="b"><rect class="a" x="2026.3" width="1920" height="1080"/></clipPath></defs><g class="b"><rect width="1920" height="1080"/><rect class="c" width="1920" height="1080"/><rect width="1920" height="1080"/></g><path class="d" d="M783.3,546.13H775v38.6h-7.69v-38.6H759v-7.45H783.3Z"/><path class="d" d="M794.58,538.68v19h8.66v-19h7.7v46.05h-7.7V565.16h-8.66v19.57h-7.7V538.68Z"/><path class="d" d="M816.27,584.73V538.68h22.05v7.45H824v11.45h10.67V565H824v12.24h14.36v7.45Z"/><path class="d" d="M876.92,538.68l3.76,3.76v15l-3.76,3.76,3.76,3.76v16l-3.76,3.76H857.35V538.68Zm-4.78,18.9.85-.91v-9.75l-.85-.91h-7v11.57Zm0,7.46h-7v12.18h7l.85-.91V565.88Z"/><path class="d" d="M908.68,542.44V581l-3.76,3.76H889.41L885.65,581V542.44l3.76-3.76h15.51ZM900,546.19H894.2l-.85.85v29.39l.85.85H900l.91-.85V547Z"/><path class="d" d="M914,584.73V538.68h19.88l3.75,3.76V563l-3.75,3.75,3.75,17.94h-7.57l-3.76-17.94h-4.6v17.94Zm15.09-25.39.85-.91V547l-.85-.85h-7.39v13.15Z"/><path class="d" d="M962,538.68l3.76,3.76V581L962,584.73H942.49V538.68Zm-4.91,38.54.85-.91V546.92l-.85-.91h-6.84v31.21Z"/><path class="d" d="M971.09,584.73V538.68h22.06v7.45H978.79v11.45h10.66V565H978.79v12.24h14.36v7.45Z"/><path class="d" d="M997.63,584.73V538.68h19.88l3.75,3.76V563l-3.75,3.75,3.75,17.94h-7.57l-3.76-17.94h-4.6v17.94Zm15.09-25.39.85-.91V547l-.85-.85h-7.39v13.15Z"/><path class="d" d="M1040.66,581V542.44l3.75-3.76h15.51l3.76,3.76V552H1056V547.1l-.91-.91h-5.82l-.91.91v29.21l.91.91h5.82l.91-.91v-4.85h7.69V581l-3.76,3.76h-15.51Z"/><path class="d" d="M1068.41,584.73V538.68h7.7v46.05Z"/><path class="d" d="M1104,546.13h-8.3v38.6H1088v-38.6h-8.3v-7.45H1104Z"/><path class="d" d="M1107.56,584.73V538.68h7.69v46.05Z"/><path class="d" d="M1120.58,584.73V538.68h22.06v7.45h-14.36v11.45h10.66V565h-10.66v12.24h14.36v7.45Z"/><path class="d" d="M1162.09,552V547.1l-.91-.91h-5.87l-.91.91v9.57l.91.91h10.78l3.76,3.76V581l-3.76,3.76h-15.63L1146.7,581v-9.51h7.7v4.91l.91.91h5.87l.91-.91V566l-.91-.91h-10.72l-3.76-3.76V542.44l3.76-3.76h15.63l3.76,3.76V552Z"/><path class="d" d="M770,480.9H697.74V466.77H770Zm-5.18,8.3v27.11H750.16V502.76H701.93V489.2Zm-18.73-13.89a40.42,40.42,0,0,0,2.26-8.75q.78-5.06,1.27-11.21H702.25V440.8h62.86q-.09,6.66-.16,11t-.42,7.89c-.22,2.36-.56,4.71-1,7.07s-1.14,5.2-2,8.54Zm-20.46-6.24h15.28v22H725.59Z"/><path class="d" d="M826,440.72a43.2,43.2,0,0,1-2.22,15.82,35.2,35.2,0,0,1-7.39,12.28A45.06,45.06,0,0,1,804.26,478a83.15,83.15,0,0,1-16.47,6.45l-6.25-12.57a30.74,30.74,0,0,0,5.34-1.31A60.32,60.32,0,0,0,798.76,465a42.19,42.19,0,0,0,5-3.53,20.21,20.21,0,0,0,3.49-3.62,5.32,5.32,0,0,0,1.23-3.36H786.14V440.72Zm25.23,60q0,8.79-10.11,12.57a46.53,46.53,0,0,1-9.41,2.51,67.3,67.3,0,0,1-11.62.78q-33.29-.09-33.28-15.86,0-8.7,11-12.82,9.2-3.45,22.27-3.36Q851.22,484.6,851.22,500.7Zm-14.63,0q0-5.18-16.51-5.17a49.19,49.19,0,0,0-11.51,1.23c-3.94.87-5.91,2.19-5.91,3.94q0,5.26,17.42,5.26Q836.6,506,836.59,500.7Zm6.9-41.49h-23v-12h23Zm.5,4.93v11.91H821.14V464.14Zm-7.48-25h14V484.1h-14Z"/><path class="d" d="M915.22,514.67H869.46v-14h45.76ZM912.35,464q0,10.69-5.1,17-5.58,7.06-16,7.07-10.85,0-16.27-6.82-4.77-6.33-4.76-17.26,0-11.09,4.68-17.33,5.42-7.06,16.19-7.07Q912.34,439.57,912.35,464Zm-13.23,0q0-10.35-7.89-10.35T883.42,464q0,10,7.81,10a6.83,6.83,0,0,0,6.33-3.53A13.41,13.41,0,0,0,899.12,464Zm20.78-24.81h14.88v77.07H919.9Z"/><path class="d" d="M1063.94,514.59H992.87v-14.3h28V477.61h16v22.68h27Zm-67.46-30.4v-42.4h62.69v14h-46.91v14.95h47.16v13.48Z"/><path class="d" d="M1117.92,513c-1.1-1.21-2.38-2.78-3.86-4.73s-3-4-4.56-6.24-3.08-4.45-4.56-6.7-2.8-4.27-4-6.08a56.25,56.25,0,0,1-2.63,7.23c-1,2.36-2.15,4.6-3.32,6.74s-2.39,4.15-3.62,6-2.42,3.63-3.57,5.22l-11.92-7.24a70.05,70.05,0,0,0,8.18-14.66,88.18,88.18,0,0,0,4.72-15.74A122.73,122.73,0,0,0,1091,460q.54-8.7.62-18h14.13c0,.6,0,1.79,0,3.57s-.07,3.69-.13,5.71-.08,3.95-.08,5.75,0,3,.08,3.7a27.52,27.52,0,0,0,1.77,5.71q1.44,3.57,3.53,7.85t4.56,8.79q2.47,4.51,4.85,8.54t4.44,7.15a43.91,43.91,0,0,0,3.28,4.52Zm12.32-73.87h14.87v77.07h-14.87Z"/><path class="d" d="M1232.78,480.41h-72.3V469.15h72.3Zm-68,36.15.08-19.8h48.32v-2.47h-48.81V483.78h63.18v20.29h-48.23v2.79h49.06v9.7Zm14.79-61.21h48.15V465.7h-62.77v-25h62.44v10.35h-47.82Z"/><g class="e"><rect class="f" x="1365.64" y="-181.99" width="3001.5" height="2874.91"/><polygon class="d" points="3748.78 -181.99 1369.66 -181.99 1369.66 1273.26 1730.21 979.24 2181.03 912.37 2393 810.43 2597.13 677.67 2738.77 585.55 2872.65 367.37 2894.78 351.88 2922.24 332.66 2966.87 407.04 3137.54 460.93 3145.59 463.47 3150.16 304.09 3150.34 297.95 3277.1 288.19 3279.27 288.03 3388.36 173.98 3482.57 173.98 3482.7 172.91 3499.93 22.74 3505.08 24.8 3574.31 52.49 3574.31 92.16 3607.69 135.37 3607.69 135.36 3748.78 -181.99"/></g></svg>