<svg xmlns="http://www.w3.org/2000/svg" xmlns:xlink="http://www.w3.org/1999/xlink" viewBox="0 0 1920 1080"><defs><style>.a{fill:none;}.b{fill:#1e1e1e;}.c{fill:#fff;}.d{opacity:0.95;}.e{clip-path:url(#a);}.f{fill:#d8d8d8;}</style><clipPath id="a"><rect class="a" x="-1683.15" y="1208" width="1920" height="1080"/></clipPath></defs><polygon class="b" points="1263.34 92.14 1263.34 42.45 1170.17 5.18 1148.43 194.62 1030.42 194.62 893.77 337.48 720.73 334.56 726.33 557.24 502.47 486.55 446.57 393.38 384.46 436.86 216.75 710.15 -355.97 1082.64 -188.6 1082.64 247.93 754.3 396.69 448.37 444.54 418.03 492.97 521.55 738.94 592.55 751.8 369.19 907.39 378.19 1032.75 218.03 1148.94 222.83 1192.15 45.28 1236.48 64.47 1252.38 110.98 1356.81 263.62 1363.99 249 1263.34 92.14"/><polygon class="b" points="1061.92 1.91 1061.91 2 1062.13 2 1061.92 1.91"/><path d="M4.13,484.37a3.57,3.57,0,0,1,.14.94c0,.65-.22,1-.66,1a2,2,0,0,1-1.08-.54,5.64,5.64,0,0,1-.77-1.2c-.38-.68-.86-1.66-1.45-2.92C-.44,480.11-1,479-1.38,478.17L-2,476.89a19.89,19.89,0,0,1-.63,2c-.25.69-.55,1.41-.89,2.16a22,22,0,0,1-1.25,2.3A13.47,13.47,0,0,1-6,485.14c-.25.29-.5.54-.75.78a6.24,6.24,0,0,1-.77.61,1.67,1.67,0,0,1-.68.37c-.12,0-.11-.19.05-.56A3.07,3.07,0,0,0-8,486c0-.09.1-.19.17-.3.26-.38.61-.94,1-1.69a29.28,29.28,0,0,0,1.68-3.29A23.26,23.26,0,0,0-4,477.49a28.63,28.63,0,0,0,.67-3.39,34.5,34.5,0,0,0,.3-3.67H-6.7a9.57,9.57,0,0,0-1.06.14l-.35-1.25c.24.07.47.12.71.17s.47.1.72.16H.94c.11-.12.22-.26.33-.4a4.36,4.36,0,0,1,.35-.4.79.79,0,0,1,.56-.3,2,2,0,0,1,1,.38l.34.22a1.43,1.43,0,0,1,.26.22,1.24,1.24,0,0,1,.47.77c0,.19-.16.29-.49.29H-1a36.24,36.24,0,0,1-.5,5.32c.41.46.87,1.05,1.39,1.75S.94,479,1.6,480A21.55,21.55,0,0,1,4.13,484.37Zm6.93-15.16c0,.17-.21.32-.61.44s-.56.25-.56.42v16.76c0,.61-.64.87-1.92.77V468c.31.11.64.22,1,.32s.7.19,1.06.27C10.77,468.72,11.11,468.94,11.06,469.21Z"/><path d="M28,469.84c0,.2-.14.3-.43.3H23.37a6.77,6.77,0,0,1-.28,1.43c-.17.6-.39,1.25-.64,1.95a18.79,18.79,0,0,1,3,2.32,9.66,9.66,0,0,1,1.45,1.76,2.42,2.42,0,0,1,.38,1.19q0,.66-.54.66a2.23,2.23,0,0,1-.94-.33,2.07,2.07,0,0,1-.48-.46c-.21-.24-.45-.52-.7-.85s-.53-.68-.8-1.05l-.77-1c-.25-.33-.46-.61-.65-.84a2.72,2.72,0,0,0-.37-.42,10.43,10.43,0,0,1-.86,1.37A14.76,14.76,0,0,1,20,477.21a15.16,15.16,0,0,1-1.38,1.27,14.92,14.92,0,0,1-1.49,1l-.37.17a3.93,3.93,0,0,1-.43.18A1.46,1.46,0,0,1,16,480c-.11,0-.17,0-.17-.13s.13-.34.4-.61a20.37,20.37,0,0,0,2-2.09,18.2,18.2,0,0,0,1.57-2.28,12.89,12.89,0,0,0,1.06-2.35,8.33,8.33,0,0,0,.45-2.35H18.05a10.12,10.12,0,0,1-1.36.14L16.2,469l.85.18c.31.05.64.12,1,.2H25a2.1,2.1,0,0,1,.44-.62,5.49,5.49,0,0,1,.59-.48,2.12,2.12,0,0,1,.62.22,3.84,3.84,0,0,1,.63.42,3.37,3.37,0,0,1,.5.5A.74.74,0,0,1,28,469.84Zm6.37,11.3c0,.17-.12.31-.37.42s-.36.25-.36.42v4.45a3,3,0,0,1-.09,1c-.12.22-.4.33-.82.33a2.47,2.47,0,0,1-.75-.07c-.17-.08-.26-.3-.26-.66H19c0,.48-.39.73-1.17.73-.39,0-.62-.09-.7-.26a2.28,2.28,0,0,1-.07-.82v-6.24a3.08,3.08,0,0,1,1.94.5H31.76l.22-.17.22-.16a1.4,1.4,0,0,1,.57-.26.21.21,0,0,1,.18.07l.43.14.39.12C34.17,480.81,34.36,481,34.36,481.14Zm-2.65.58H19.06v4.48H31.71Zm1.46-7.24H27.8a7.83,7.83,0,0,0-1.1.21l-.82-1.34,1.4.24.45.07h5.44ZM35,469.11a.38.38,0,0,1-.18.3,2.87,2.87,0,0,1-.39.23l-.38.2q-.18.09-.18.21v8.48c0,.61-.64.89-1.92.82V468a1,1,0,0,0,.61.29l1,.21a7.18,7.18,0,0,1,1,.25C34.87,468.83,35,469,35,469.11Z"/><path d="M40,477.9l-1,.31-.35-1.46a2.05,2.05,0,0,1,.71.17l.7.14H57.35c.52-.74,1-1.1,1.39-1.1a.8.8,0,0,1,.39.09.89.89,0,0,1,.43.21,2.05,2.05,0,0,1,.29.25l.34.34a1.38,1.38,0,0,1,.49.82c0,.15-.13.23-.4.23ZM58.2,472a2.31,2.31,0,0,1-.72,1.74,4.86,4.86,0,0,1-1.92,1.08,13.16,13.16,0,0,1-2.84.54q-1.62.15-3.45.15c-1.21,0-2.35-.05-3.44-.15a13.74,13.74,0,0,1-2.86-.54A5,5,0,0,1,41,473.76a2.19,2.19,0,0,1-.73-1.72,2.41,2.41,0,0,1,.76-1.84,5.2,5.2,0,0,1,2-1.1,14,14,0,0,1,2.87-.53c1.08-.09,2.19-.14,3.33-.14a35,35,0,0,1,3.52.16,11.91,11.91,0,0,1,2.83.56,4.87,4.87,0,0,1,1.89,1.1A2.37,2.37,0,0,1,58.2,472Zm-.14,8.2c0,.06-.09.14-.27.23l-.44.24v2.55a2.45,2.45,0,0,1-.15,1c-.1.2-.39.3-.88.3a1.3,1.3,0,0,1-.72-.14c-.15-.09-.22-.29-.22-.61H42.87v1.83c0,.44.07.71.22.8a1.76,1.76,0,0,0,.83.14H55.29l.31-.32.32-.35a2.71,2.71,0,0,1,.32-.29.43.43,0,0,1,.25-.12,1.15,1.15,0,0,1,.52.22,7.76,7.76,0,0,1,.67.5c.22.18.41.35.58.51s.24.26.24.3c0,.25-.37.37-1.1.37H43.15a10,10,0,0,1-1-.05,1.57,1.57,0,0,1-.71-.22,1,1,0,0,1-.39-.54,2.93,2.93,0,0,1-.13-1v-3.31l.5.12.6.16c.2.06.39.13.56.2a1.82,1.82,0,0,1,.38.2H55.43v-2.37H42.59l-1.48.31-.51-1.45,2,.3H55.5a2.64,2.64,0,0,1,.66-.46,1.77,1.77,0,0,1,.51-.2.9.9,0,0,1,.35.1,2.25,2.25,0,0,1,.46.24,2.71,2.71,0,0,1,.4.35A.66.66,0,0,1,58.06,480.2Zm-2-8.3a1.7,1.7,0,0,0-.5-1.25,3.3,3.3,0,0,0-1.37-.81,9.3,9.3,0,0,0-2.12-.43,25.83,25.83,0,0,0-2.76-.13,24.83,24.83,0,0,0-2.64.13,9.73,9.73,0,0,0-2.19.44,3.83,3.83,0,0,0-1.49.86,1.81,1.81,0,0,0-.55,1.36,1.56,1.56,0,0,0,.6,1.26,4.53,4.53,0,0,0,1.57.79,12,12,0,0,0,2.2.41c.82.07,1.65.11,2.5.11,1,0,1.93,0,2.76-.11a8.79,8.79,0,0,0,2.12-.43,3.14,3.14,0,0,0,1.37-.84A1.93,1.93,0,0,0,56,471.9Z"/><path d="M86,476.82a1.45,1.45,0,0,1,0,.91.68.68,0,0,1-.63.41,1.62,1.62,0,0,1-.84-.33,4.26,4.26,0,0,1-.82-.75c-.33-.36-.68-.75-1-1.17s-.72-.84-1.08-1.25a13,13,0,0,0-1-1c-.29.52-.57,1-.85,1.39a8.69,8.69,0,0,1-.91,1.15,11.2,11.2,0,0,1-1.07,1,13.58,13.58,0,0,1-1.28.88,3.46,3.46,0,0,1-.37.21l-.46.21a1.08,1.08,0,0,1-.37.1c-.1,0-.15,0-.15-.1s.22-.44.67-.94a12.83,12.83,0,0,0,3-4.12,15.37,15.37,0,0,0,1.19-5.33s.14.07.46.15.68.17,1.07.28a10.14,10.14,0,0,1,1.06.35c.32.12.48.24.48.35s-.38.52-1.14.82a5.65,5.65,0,0,1-.5,1.52,8.08,8.08,0,0,0-.49,1.18c.38.2.83.46,1.37.79s1.07.68,1.58,1.06a11.64,11.64,0,0,1,1.39,1.15A3,3,0,0,1,86,476.82Zm8.41,3.26q0,.09-.27.24l-.43.23v2.74a2.45,2.45,0,0,1-.15,1c-.1.2-.4.3-.88.3a1.34,1.34,0,0,1-.73-.14c-.14-.09-.21-.29-.21-.61H79.36v1.93c0,.43.07.7.22.79a1.66,1.66,0,0,0,.84.14h11.2l.3-.31.33-.35a2.86,2.86,0,0,1,.32-.3.49.49,0,0,1,.24-.11,1.07,1.07,0,0,1,.53.22,7.63,7.63,0,0,1,.67.49,6,6,0,0,1,.57.52c.17.16.25.26.25.29,0,.25-.37.37-1.1.37H79.64c-.4,0-.75,0-1,0a1.52,1.52,0,0,1-.7-.23,1,1,0,0,1-.4-.53,3,3,0,0,1-.13-1v-3.4l.5.12.6.16.56.2a1.82,1.82,0,0,1,.38.2H91.76v-2.55H78.85l-1.48.3-.52-1.45,2,.3h13a2.39,2.39,0,0,1,.66-.45A1.42,1.42,0,0,1,93,479a1,1,0,0,1,.35.09,1.88,1.88,0,0,1,.46.25,2.23,2.23,0,0,1,.4.35A.62.62,0,0,1,94.38,480.08Zm-1.45-6.37H87.56l-1.1.21-.82-1.34,1.85.31h5.44Zm2.09-4.6a.38.38,0,0,1-.18.3,2.87,2.87,0,0,1-.39.23l-.38.2q-.18.09-.18.21v7.36c0,.61-.64.88-1.92.82V468a1,1,0,0,0,.61.29l1,.21a7.18,7.18,0,0,1,1,.25C94.87,468.83,95,469,95,469.11Z"/><path d="M112,469.84c0,.2-.14.3-.43.3h-4.19a6.77,6.77,0,0,1-.28,1.43c-.17.6-.39,1.25-.64,1.95a28.1,28.1,0,0,1,3.07,2.19,7.44,7.44,0,0,1,1.53,1.65,2.46,2.46,0,0,1,.37,1.2c0,.44-.18.65-.54.65a2.3,2.3,0,0,1-.93-.32,3,3,0,0,1-.5-.44c-.21-.22-.46-.49-.72-.81s-.55-.64-.83-1l-.81-1-.66-.79a3,3,0,0,0-.37-.41,10.43,10.43,0,0,1-.86,1.37,14.76,14.76,0,0,1-1.17,1.38,15.16,15.16,0,0,1-1.38,1.27,14.92,14.92,0,0,1-1.49,1l-.37.17a3.93,3.93,0,0,1-.43.18,1.46,1.46,0,0,1-.37.08c-.11,0-.17,0-.17-.13s.13-.34.4-.61a20.37,20.37,0,0,0,2-2.09,18.2,18.2,0,0,0,1.57-2.28,12.89,12.89,0,0,0,1.06-2.35,8.33,8.33,0,0,0,.45-2.35h-3.21a10.12,10.12,0,0,1-1.36.14L100.2,469l.85.18c.31.05.64.12,1,.2H109a2.1,2.1,0,0,1,.44-.62,5.49,5.49,0,0,1,.59-.48,2.12,2.12,0,0,1,.62.22,3.84,3.84,0,0,1,.63.42,3.37,3.37,0,0,1,.5.5A.74.74,0,0,1,112,469.84Zm6.11,14.58q0,3.42-8.48,3.42a20.9,20.9,0,0,1-5.11-.59q-3.49-.92-3.49-2.83,0-2.09,3.4-2.93a21.63,21.63,0,0,1,2.41-.4,25.84,25.84,0,0,1,2.74-.14,20.34,20.34,0,0,1,5.13.56Q118.1,482.43,118.1,484.42Zm-2.27-.07c0-.88-.74-1.54-2.23-2a13.51,13.51,0,0,0-4-.51,14.23,14.23,0,0,0-4.08.51c-1.5.44-2.25,1.11-2.25,2s.76,1.66,2.27,2.08a10.22,10.22,0,0,0,1.83.37,20.76,20.76,0,0,0,2.18.1,20.3,20.3,0,0,0,2.35-.12,8.58,8.58,0,0,0,1.78-.37C115.12,486,115.83,485.3,115.83,484.35Zm.84-9.89h-5.11l-1.1.21-.82-1.34,1.85.31h5.18Zm2.35-5.35a.38.38,0,0,1-.18.3,2.87,2.87,0,0,1-.39.23l-.38.2q-.18.09-.18.21v9.28c0,.61-.64.88-1.92.82V468a1,1,0,0,0,.61.29l1,.21a7.18,7.18,0,0,1,1,.25C118.87,468.83,119,469,119,469.11Z"/><path d="M124.5,472.32l-.7.2-.28.11-.5-1.5c.19.06.41.12.65.17l.78.18h4.25v-3.23a7.77,7.77,0,0,1,2.83.65.41.41,0,0,1,.12.31c0,.09-.17.18-.52.28s-.49.19-.49.37v1.67h3.28l.31-.38.33-.37c.32-.39.56-.59.7-.59a1.12,1.12,0,0,1,.37.21c.85.7,1.27,1.21,1.27,1.53s-.3.39-.89.39Zm10.9,8.58a5.88,5.88,0,0,1-1.48,4.13,5.17,5.17,0,0,1-4,1.71,5.37,5.37,0,0,1-4.08-1.67,5.56,5.56,0,0,1-1.57-4.17,6.25,6.25,0,0,1,1.48-4.31,5.15,5.15,0,0,1,4.17-1.76,5,5,0,0,1,4.17,1.74A6.57,6.57,0,0,1,135.4,480.9Zm-2,0a7.2,7.2,0,0,0-.75-3.44,3,3,0,0,0-2.81-1.83,3.11,3.11,0,0,0-2.86,1.8,7.33,7.33,0,0,0-.75,3.47,6.57,6.57,0,0,0,.82,3.35,3,3,0,0,0,5.46-.09A6.12,6.12,0,0,0,133.45,480.9Zm7.69,5.93c0,.58-.64.82-1.92.73V468a1.41,1.41,0,0,0,.66.26l1.07.25a6.17,6.17,0,0,1,1,.3c.28.12.41.26.37.44s-.08.17-.21.23l-.4.21-.38.19a.27.27,0,0,0-.18.23v7.64h.38c.11-.12.23-.27.37-.44l.42-.51a4.21,4.21,0,0,1,.43-.42.91.91,0,0,1,.39-.2.72.72,0,0,1,.54.21,6.12,6.12,0,0,1,.65.61,6.8,6.8,0,0,1,.55.71,1.21,1.21,0,0,1,.23.49c0,.22-.22.33-.65.33h-3.31Z"/><path d="M167.25,485.68a1.81,1.81,0,0,1,.38,1.06c0,.47-.21.7-.61.7a1.83,1.83,0,0,1-.94-.35,12.23,12.23,0,0,0-1.72-1.88c-.7-.62-1.42-1.31-2.17-2.06A12.67,12.67,0,0,1,158.6,487l-.3.21c-.13.07-.28.17-.45.28s-.49.19-.68.26l-.47.14c-.14,0-.21,0-.21-.1s.14-.27.4-.58l.21-.23.21-.22a4.59,4.59,0,0,0,.37-.39,5.38,5.38,0,0,0,.34-.43,4.11,4.11,0,0,1-1.09-.57l-1.34-.92a12.82,12.82,0,0,0-1.21-.74c-.36-.18-.58-.19-.68,0a3.32,3.32,0,0,1-.57.72c-.3.32-.68.68-1.11,1.09a16.13,16.13,0,0,1-1.32,1.06,10.22,10.22,0,0,1-1.24.79,4.53,4.53,0,0,1-1.87.68c-.08,0-.12,0-.12-.07s.15-.28.45-.52l.37-.3c.14-.11.31-.25.52-.4a15.91,15.91,0,0,0,1.68-1.51,10.71,10.71,0,0,0,1.25-1.54,7.14,7.14,0,0,0,1.66-4.31c1,.28,1.55.42,1.62.42.84.28,1.26.52,1.26.73s-.22.29-.68.47l-.18,0-.29.07a3.17,3.17,0,0,1-.58,1.13c.22.09.41.18.57.26s.33.15.48.23l.48.23.58.26a10.7,10.7,0,0,1,1.44.79,1.67,1.67,0,0,1,.76.88,8.25,8.25,0,0,0,1.62-2.18,9,9,0,0,0,.79-1.76,4.91,4.91,0,0,0,.29-1.48q2.79.9,2.79,1.38c0,.21-.39.33-1.15.38l-.21.49a6.73,6.73,0,0,1-.36.71c.33.17.73.38,1.19.64s.92.53,1.37.83.87.6,1.24.9A3.61,3.61,0,0,1,167.25,485.68Zm-8.76-12a4.73,4.73,0,0,1-1.11,3.16,5,5,0,0,1-4.12,1.71,4.87,4.87,0,0,1-4.15-1.82,5.72,5.72,0,0,1-1-3.33q0-5.13,5.14-5.13T158.49,473.66Zm-1.88,0q0-4.67-3.37-4.66a2.78,2.78,0,0,0-2.68,1.66,6.08,6.08,0,0,0,.1,5.39,3.4,3.4,0,0,0,1.09,1.23,2.7,2.7,0,0,0,1.51.41,3,3,0,0,0,2.72-1.57A5,5,0,0,0,156.61,473.66Zm7.85-1.34h-4.1l-1.05.14-.4-1.24,1.24.19h4.31Zm0,4.39h-4.06l-1.07.16-.4-1.19,1.29.18h4.26Zm2.62-7.5c0,.17-.13.33-.38.48a6.35,6.35,0,0,1-.79.38v8.51c0,.58-.64.82-1.92.73L164,468a2.23,2.23,0,0,0,.8.3l1,.21a4.37,4.37,0,0,1,.88.27C166.94,468.85,167.06,469,167.06,469.21Z"/><path d="M175,486.1a7,7,0,0,1-1.46-.11,1.4,1.4,0,0,1-.8-.45,1.63,1.63,0,0,1-.33-.89,14.43,14.43,0,0,1-.06-1.47v-14.4a1.56,1.56,0,0,0,.62.26l.86.19a6.25,6.25,0,0,1,.83.23,1.08,1.08,0,0,1,.55.4H180c.72-.84,1.19-1.25,1.41-1.22a2.57,2.57,0,0,1,.29.19c.18.13.38.27.59.45a4.25,4.25,0,0,1,.57.55.78.78,0,0,1,.26.5c0,.22-.19.33-.58.33h-8.28l0,13.43c0,.56.12.9.37,1a3,3,0,0,0,1.2.17h4.4c.63-.85,1.12-1.28,1.48-1.28a1.15,1.15,0,0,1,.76.28,3.46,3.46,0,0,1,.6.61,3.73,3.73,0,0,1,.4.61.87.87,0,0,1,.14.44c0,.11-.26.16-.78.16Zm14.18.73c0,.58-.64.82-1.92.73V468a1.41,1.41,0,0,0,.66.26l1.07.25a6.17,6.17,0,0,1,1,.3c.28.12.41.26.37.44s-.08.17-.21.23l-.4.21-.38.19a.27.27,0,0,0-.18.23v7.64h.38c.11-.12.23-.27.37-.44l.42-.51a4.21,4.21,0,0,1,.43-.42.91.91,0,0,1,.39-.2.72.72,0,0,1,.54.21,6.12,6.12,0,0,1,.65.61,6.8,6.8,0,0,1,.55.71,1.21,1.21,0,0,1,.23.49c0,.22-.22.33-.65.33h-3.31Z"/><path d="M199.74,485.64a1.43,1.43,0,0,1-.44,1.07,1.47,1.47,0,0,1-1.09.43,1.34,1.34,0,0,1-1-.45,1.53,1.53,0,0,1-.41-1.05,1.56,1.56,0,0,1,.41-1.07,1.32,1.32,0,0,1,1-.46A1.35,1.35,0,0,1,199.74,485.64Z"/><path d="M25.2,504.94a5.55,5.55,0,0,0-1,1.74l-3.68,9.19h-.4l-2.91-8.56-3.05,8.56h-.49L9.87,506a5.2,5.2,0,0,0-.56-1.24,2.43,2.43,0,0,0-1.83-.52v-.56h5.76v.56c-1.18,0-1.78.36-1.78,1.08a5,5,0,0,0,.26,1.08l2.7,7.2,2.48-7.29a4.9,4.9,0,0,0-1-1.43,2.76,2.76,0,0,0-1.57-.64v-.56h5.69v.56q-1.8,0-1.8,1.11a3.5,3.5,0,0,0,.19.65l2.34,7.6,2.81-7a2.49,2.49,0,0,0,.31-1.07c0-.83-.56-1.25-1.67-1.25v-.56H27v.56A2.3,2.3,0,0,0,25.2,504.94Z"/><path d="M38.72,514.41a8,8,0,0,1-1.1.78,6,6,0,0,1-3,.75,5.84,5.84,0,0,1-4.19-1.64,5.35,5.35,0,0,1-1.81-4.11,7.78,7.78,0,0,1,1.6-4.89,5.42,5.42,0,0,1,4.5-2.23q4.77,0,5.27,5.67H30.33s0,.08,0,.19v.58a5.93,5.93,0,0,0,1.24,3.89,4.43,4.43,0,0,0,3.65,1.67,4.62,4.62,0,0,0,2.37-.75l1-.67c.34-.24.69-.52,1-.83l.49.33A18.06,18.06,0,0,1,38.72,514.41Zm-1.27-9.35a3.05,3.05,0,0,0-2.71-1.36q-3.29,0-4.25,4.41h7.76A5.19,5.19,0,0,0,37.45,505.06Z"/><path d="M51.42,504.19c0,.64-.45,1-1.36,1a10.57,10.57,0,0,1-1.82-.49,1.93,1.93,0,0,0-1.32.75,3.45,3.45,0,0,0-.84,1.34,7.86,7.86,0,0,0-.49,2.72v3.84a1.3,1.3,0,0,0,.65,1.31,4.34,4.34,0,0,0,1.6.21v.64H41.91v-.64a3.6,3.6,0,0,0,1.52-.21,1.37,1.37,0,0,0,.56-1.31v-7.76c0-.7-.57-1.05-1.73-1.05h-.35v-.56a4.53,4.53,0,0,0,2-.38c.22-.11.47-.25.74-.41l.93-.57v3.68a6.91,6.91,0,0,1,1.64-2.35A4,4,0,0,1,49.9,503C50.92,503,51.42,503.4,51.42,504.19Z"/><path d="M63,514.41a7.44,7.44,0,0,1-1.1.78,6,6,0,0,1-3,.75,5.85,5.85,0,0,1-4.2-1.64,5.38,5.38,0,0,1-1.8-4.11,7.84,7.84,0,0,1,1.59-4.89,5.44,5.44,0,0,1,4.5-2.23q4.78,0,5.27,5.67H54.63a.56.56,0,0,0,0,.19v.58a5.93,5.93,0,0,0,1.24,3.89,4.44,4.44,0,0,0,3.66,1.67,4.62,4.62,0,0,0,2.37-.75c.31-.2.64-.43,1-.67s.7-.52,1.06-.83l.49.33A16.35,16.35,0,0,1,63,514.41Zm-1.26-9.35A3.08,3.08,0,0,0,59,503.7q-3.28,0-4.24,4.41h7.76A5.27,5.27,0,0,0,61.76,505.06Z"/><path d="M86.38,514.6a5.68,5.68,0,0,1-.74.63,3.46,3.46,0,0,1-2.06.57A4.66,4.66,0,0,1,80,514.06a6.35,6.35,0,0,1-1.52-4.36A6.79,6.79,0,0,1,80.09,505a7.19,7.19,0,0,1,1.52-1.38,3.82,3.82,0,0,1,2-.49,5.32,5.32,0,0,1,1.62.47,14.58,14.58,0,0,1,2.15,1.78v-5.13a1.41,1.41,0,0,0-.21-.94,3.34,3.34,0,0,0-1.87-.33v-.56l1-.17a7.33,7.33,0,0,0,2.56-1v15.85a1.64,1.64,0,0,0,.56,1.43,3.23,3.23,0,0,0,1.52.39v.57l-2.15.23H87.35v-2.15C87,514,86.67,514.32,86.38,514.6Zm-1-10.27a3,3,0,0,0-1.38-.46,2.74,2.74,0,0,0-1.55.42,5.09,5.09,0,0,0-1.08,1.19,6.92,6.92,0,0,0-1.15,4.15,6.2,6.2,0,0,0,1.15,3.85A3.33,3.33,0,0,0,84,515a3.52,3.52,0,0,0,1.64-.54,8.53,8.53,0,0,0,1.73-2v-6.16l-.51-.73A4.59,4.59,0,0,0,85.36,504.33Z"/><path d="M102.17,514.41a8,8,0,0,1-1.11.78,6,6,0,0,1-3,.75,5.85,5.85,0,0,1-4.2-1.64,5.38,5.38,0,0,1-1.8-4.11,7.84,7.84,0,0,1,1.59-4.89,5.44,5.44,0,0,1,4.5-2.23q4.78,0,5.27,5.67H93.77a.56.56,0,0,0,0,.19v.58A6,6,0,0,0,95,513.4a4.44,4.44,0,0,0,3.66,1.67,4.62,4.62,0,0,0,2.37-.75c.31-.2.64-.43,1-.67a12.34,12.34,0,0,0,1.06-.83l.49.33A18.06,18.06,0,0,1,102.17,514.41Zm-1.27-9.35a3.08,3.08,0,0,0-2.72-1.36q-3.29,0-4.24,4.41h7.76A5.27,5.27,0,0,0,100.9,505.06Z"/><path d="M114.24,498.83c0,.62-.28.93-.82.93a2.49,2.49,0,0,1-1.2-.46,3.08,3.08,0,0,0-.84-.5,4.45,4.45,0,0,0-.85.19,1.49,1.49,0,0,0-.51.68,7.65,7.65,0,0,0-.35,2.84v.89h3.53v.7h-3.53v9.21a1.3,1.3,0,0,0,.63,1.27l.55.13,1,.19v.57h-5.93v-.64a3.78,3.78,0,0,0,1.57-.21c.39-.2.58-.64.58-1.31V504.1h-2.72v-.7h2.72c0-.32.08-.69.14-1.13s.15-.94.26-1.52c.83-2.14,2-3.21,3.68-3.21a3.57,3.57,0,0,1,1.29.33C114,498.12,114.24,498.44,114.24,498.83Z"/><path d="M117.54,514.83a.85.85,0,0,0,.7-.91v-.3a.84.84,0,0,1,0-.24V506a2.9,2.9,0,0,0-.09-1,.81.81,0,0,0-.82-.4H117a.33.33,0,0,1-.14,0h-.61V504a10,10,0,0,0,1.9-.47l.61-.34,1.1-.64v11a.4.4,0,0,1,0,.21V514a.81.81,0,0,0,.73.84,7.22,7.22,0,0,0,1.29.07v.57h-5.6v-.57A6.48,6.48,0,0,0,117.54,514.83Zm2.7-15.11a1.36,1.36,0,0,1-.43,1,1.43,1.43,0,0,1-1,.41,1.43,1.43,0,0,1-1.43-1.43,1.43,1.43,0,0,1,.41-1,1.46,1.46,0,0,1,2.48,1Z"/><path d="M132.6,514.71a1.41,1.41,0,0,0,.43-1.23v-6.17a3.51,3.51,0,0,0-.7-2.16,2.33,2.33,0,0,0-2-1,2.17,2.17,0,0,0-1.59.66c-.17.15-.38.35-.62.59s-.53.52-.86.84v7.12c0,.84.24,1.33.71,1.45a6,6,0,0,0,1.22.07v.64h-5.61v-.64a4.34,4.34,0,0,0,1.57-.16c.35-.19.52-.64.52-1.36v-7.76c0-.34-.34-.62-1-.84a6.33,6.33,0,0,0-1.06-.21v-.56a5.81,5.81,0,0,0,3.68-1.27v2.65c1.3-1.45,2.51-2.18,3.64-2.18a3.36,3.36,0,0,1,2.65,1.15,4.11,4.11,0,0,1,1,2.79v6.3a1.72,1.72,0,0,0,.38,1.26,1.89,1.89,0,0,0,1.3.36v.47h-5.13V515A2.67,2.67,0,0,0,132.6,514.71Z"/><path d="M148.55,514.41a8,8,0,0,1-1.1.78,6,6,0,0,1-3,.75,5.87,5.87,0,0,1-4.2-1.64,5.38,5.38,0,0,1-1.8-4.11A7.84,7.84,0,0,1,140,505.3a5.44,5.44,0,0,1,4.5-2.23q4.78,0,5.28,5.67h-9.61s0,.08,0,.19v.58a5.93,5.93,0,0,0,1.25,3.89,4.43,4.43,0,0,0,3.65,1.67,4.62,4.62,0,0,0,2.37-.75c.31-.2.64-.43,1-.67a12.34,12.34,0,0,0,1.06-.83l.49.33A18.06,18.06,0,0,1,148.55,514.41Zm-1.27-9.35a3.07,3.07,0,0,0-2.72-1.36c-2.18,0-3.6,1.47-4.24,4.41h7.76A5.27,5.27,0,0,0,147.28,505.06Z"/><path d="M159.9,514.6a6.48,6.48,0,0,1-.73.63,3.49,3.49,0,0,1-2.07.57,4.66,4.66,0,0,1-3.61-1.74A6.4,6.4,0,0,1,152,509.7a6.84,6.84,0,0,1,1.64-4.69,7.44,7.44,0,0,1,1.52-1.38,3.84,3.84,0,0,1,2-.49,5.25,5.25,0,0,1,1.62.47,13.9,13.9,0,0,1,2.16,1.78v-5.13a1.41,1.41,0,0,0-.21-.94,3.41,3.41,0,0,0-1.88-.33v-.56l1.06-.17a7.3,7.3,0,0,0,2.55-1v15.85a1.66,1.66,0,0,0,.56,1.43,3.28,3.28,0,0,0,1.53.39v.57l-2.16.23h-1.45v-2.15C160.52,514,160.19,514.32,159.9,514.6Zm-1-10.27a2.9,2.9,0,0,0-1.38-.46,2.76,2.76,0,0,0-1.55.42,4.89,4.89,0,0,0-1.07,1.19,6.85,6.85,0,0,0-1.15,4.15,6.14,6.14,0,0,0,1.15,3.85A3.32,3.32,0,0,0,157.5,515a3.52,3.52,0,0,0,1.64-.54,8.48,8.48,0,0,0,1.74-2v-6.16l-.52-.73A4.59,4.59,0,0,0,158.88,504.33Z"/><path d="M170.74,514.44a1.42,1.42,0,0,1-.43,1.07,1.47,1.47,0,0,1-1.09.43,1.31,1.31,0,0,1-1-.45,1.53,1.53,0,0,1-.41-1,1.56,1.56,0,0,1,.41-1.07,1.29,1.29,0,0,1,1-.46A1.35,1.35,0,0,1,170.74,514.44Z"/><path class="c" d="M721.79,333.27V167.6H928.65V330.18c-13.52-5.33-27.09-10.56-40.54-16.06-4-1.62-5.4-.11-7.44,3.2a135.16,135.16,0,0,1-13.2,17.9c-1.77,2-6.1,1.73-8.06,3.69-5.78,5.77-13,5-20.85,6.22l8.35-7.9-.83-1c-1.34.62-2.7,1.16-4,1.86a30.93,30.93,0,0,1-33.67-3.54c-4.4-3.71-10.1-6.44-13.22-11-4.75-6.89-8.54-14.57-8-23.74.18-2.81-1.92-6.5-4.14-8.46-1.38-1.21-6.76-.7-7.26.42-2.43,5.44-9,9.43-6.37,16.83a70,70,0,0,1,1.86,8.29c-5.55,2.13-10.58,4.32-15.77,6C744.35,326.48,733.05,329.82,721.79,333.27Zm159.56-100c0-5.92-.12-10.36,0-14.8s.63-8.89.9-13.33c.81-12.83-10.58-24.64-23.39-23.61-10,.81-19.84,2.3-30,1.68-15.86-1-31.8-.53-47.69-.95-7-.19-13.88,3.62-15,9.7-2.62,13.65-.9,27.25,1,40.83.46,3.21,2.74,3.88,4.72,2.33,2.51-2,5.9-4.77,6.06-7.39.57-9.11,5.07-14,13.49-16.33,3.25-.91,6.12-3.21,9.37-4a87.49,87.49,0,0,1,13.79-2.12,62.75,62.75,0,0,1,9.69.15,129.75,129.75,0,0,1,14.08,1.35c4.52.8,8.87,2.54,13.38,3.5,9.87,2.09,11.69,4.11,13.2,14.12.31,2.08,1.71,5,3.38,5.67C872.14,231.66,876.41,232.15,881.35,233.29Zm-53.73,29.47c-.3-9.65.71-11.39,9.48-12.52,6.51-.84,13.21-.48,19.8-.19,1.87.08,3.66,1.79,5.48,2.75l-.6,1.53-6.12-1.41.65,1.4c-1.45.91-2.87,2.53-4.36,2.59-5.24.22-10.5-.17-15.74-.16a15.52,15.52,0,0,0-3.85,1c.47,1.73.55,3.76,1.57,5.07.56.73,2.74.57,4.08.29,4.31-.94,8.53-2.82,12.85-3,6.06-.31,11.5,1.14,16.83-4.84,2.85-3.19,10.64-2,15.95-2.7-2.34-5.25-2.67-5.55-9.26-3.9-2.18.55-4.06,2.24-6.19,3.18-.87.38-2.67.54-2.91.13a12.14,12.14,0,0,1-.88-3.79c-3.08-.55-6-.71-8.75-1.64-9.29-3.16-18.26-4.77-26.2,3.13a5.12,5.12,0,0,1-1.79.85c-7.77,3.08-14.62,1-21.57-3a19.52,19.52,0,0,0-11-2.31c-4.43.44-8.65,2.75-13,4-2.91.81-5.95,1.16-7.9,1.53l-3.75,6.85,7.49,7.08c2.35-13.15,5.69-15.39,20.64-14.66,5.36.26,9,3.56,9.39,9-5-.72-10-1.19-14.88-2.22-3.64-.77-10.29,2-13.08,6.28,7.27-.39,14.32-.84,21.38-1.1,2-.07,4.51-.27,5.78.8,4,3.35,7.24,3.76,10.32-.88a7.53,7.53,0,0,0,.41-.8l-.93.05c-.13-1.61-.25-3.21-.38-4.82,1.51.07,3,.11,4.51.25.49,0,1.11.65,1.39.5C828.25,253.79,826.49,258.93,827.62,262.76ZM824,324.5c-2.54-5.83-10.94-6.55-11.15-13.38l4.92-.93-5.45-5.14,9.08-1.1.33-1.9c-2.34-.7-4.67-1.85-7-2s-5.09.72-8.24,1.24c.85-4.6,1.77-7,6.38-6.76,3.15.18,6.4-1.3,9.61-2l0-1.7c-3.46-1.22-6.83-3-10.38-3.51-4.06-.57-7.32-.95-5.1-6.83-4.15,2.88-8.81,18-7.3,21.69a1.2,1.2,0,0,0,.25.44c5,4.48,5.53,10.7,6.72,16.77,1.23,6.32,4.93,8.15,11.13,6.25A62.09,62.09,0,0,1,824,324.5Zm-60.59-41.83c5.22-6.08,1.83-12.66,2.22-18.78.08-1.27-2.4-2.74-3.84-3.95-.08-.07-2,1.3-2.12,2.13C758.67,269.23,759.29,276.14,763.39,282.67ZM840,279.75l-2.1,1.31c3.21,6.54,6.35,13.11,9.69,19.58.36.7,1.85.83,2.82,1.22.31-1.07,1.22-2.47.84-3.14C847.58,292.33,843.74,286.05,840,279.75Zm-10.29,22.31-.1.58,7.47,1.77-2.23,5.5c2.22-.29,4-.13,5.26-.82,1-.54,1.47-2.13,2.18-3.26-1.53-.86-3-2.06-4.6-2.5A72.85,72.85,0,0,0,829.67,302.06Z"/><path class="b" d="M720.35,333.8c11.27-3.44,24-7.32,35.22-10.92,5.19-1.67,10.22-3.86,15.77-6a70,70,0,0,0-1.86-8.29c-2.62-7.4,3.94-11.39,6.37-16.83.5-1.12,5.88-1.63,7.26-.42,2.22,2,4.32,5.65,4.14,8.46-.59,9.17,3.2,16.85,8,23.74,3.12,4.53,8.82,7.26,13.22,11a30.93,30.93,0,0,0,33.67,3.54c1.29-.7,2.65-1.24,4-1.86l.83,1-8.35,7.9c7.81-1.23,15.07-.45,20.85-6.22,2-2,6.29-1.66,8.06-3.69a135.16,135.16,0,0,0,13.2-17.9c2-3.31,3.47-4.82,7.44-3.2,13.45,5.5,27,10.73,40.54,16.06v94.71H815.44l16.59-47,2.9,2.18,14.58-28.83-1.11-1.49c-7.91,3.21-15.79,6.49-23.77,9.54a6.8,6.8,0,0,1-4.49-.16c-12-4.81-24.06-9.74-34.4-19.89L791,368.59l-4.87-2c-2.56,9.33-.24,17.88,2.28,26.43a15.46,15.46,0,0,1,.72,5.42c-.29,3.39-1.4,6.75-1.41,10.12,0,5.46.59,10.92.93,16.37H723C723,394.35,720.35,364.35,720.35,333.8Z"/><path class="c" d="M788.68,424.89c-.34-5.45-.94-10.91-.93-16.37,0-3.37,1.12-6.73,1.41-10.12a15.46,15.46,0,0,0-.72-5.42c-2.52-8.55-4.84-17.1-2.28-26.43l4.87,2-5.29-29.33c10.34,10.15,22.35,15.08,34.4,19.89a6.8,6.8,0,0,0,4.49.16c8-3.05,15.86-6.33,23.77-9.54l1.11,1.49-14.58,28.83-2.9-2.18-16.59,47H796.92c9.88-8.71,17.21-39.65,10.41-45.47-2.14,2.84-4.86,5.42-6.2,8.59-.83,1.94.4,4.78.8,7.2.2,1.21,1,2.44.88,3.56-1,7.06-1.44,14.29-5.81,20.44a57,57,0,0,0-3.17,5.68Z"/><path d="M793.83,424.89a57,57,0,0,1,3.17-5.68c4.37-6.15,4.81-13.38,5.81-20.44.15-1.12-.68-2.35-.88-3.56-.4-2.42-1.63-5.26-.8-7.2,1.34-3.17,4.06-5.75,6.2-8.59,6.8,5.82-.53,36.76-10.41,45.47Z"/><path d="M881.35,233.29c-4.94-1.14-9.21-1.63-13-3.24-1.67-.71-3.07-3.59-3.38-5.67-1.51-10-3.33-12-13.2-14.12-4.51-1-8.86-2.7-13.38-3.5a129.75,129.75,0,0,0-14.08-1.35,62.75,62.75,0,0,0-9.69-.15,87.49,87.49,0,0,0-13.79,2.12c-3.25.83-6.12,3.13-9.37,4-8.42,2.35-12.92,7.22-13.49,16.33-.16,2.62-3.55,5.43-6.06,7.39-2,1.55-4.26.88-4.72-2.33-1.94-13.58-3.66-27.18-1-40.83,1.16-6.08,8-9.89,15-9.7,15.89.42,31.83,0,47.69.95,10.18.62,20-.87,30-1.68,12.81-1,24.2,10.78,23.39,23.61-.27,4.44-.74,8.88-.9,13.33S881.35,227.37,881.35,233.29Z"/><path d="M827.62,262.76c-1.13-3.83.63-9-5.21-5.72-.28.15-.9-.46-1.39-.5-1.5-.14-3-.18-4.51-.25.13,1.61.25,3.21.38,4.82l.93-.05a7.53,7.53,0,0,1-.41.8c-3.08,4.64-6.33,4.23-10.32.88-1.27-1.07-3.82-.87-5.78-.8-7.06.26-14.11.71-21.38,1.1,2.79-4.29,9.44-7.05,13.08-6.28,4.88,1,9.87,1.5,14.88,2.22-.41-5.45-4-8.75-9.39-9-15-.73-18.29,1.51-20.64,14.66l-7.49-7.08,3.75-6.85c2-.37,5-.72,7.9-1.53,4.38-1.23,8.6-3.54,13-4a19.52,19.52,0,0,1,11,2.31c6.95,4,13.8,6.08,21.57,3a5.12,5.12,0,0,0,1.79-.85c7.94-7.9,16.91-6.29,26.2-3.13,2.71.93,5.67,1.09,8.75,1.64a12.14,12.14,0,0,0,.88,3.79c.24.41,2,.25,2.91-.13,2.13-.94,4-2.63,6.19-3.18,6.59-1.65,6.92-1.35,9.26,3.9-5.31.73-13.1-.49-15.95,2.7-5.33,6-10.77,4.53-16.83,4.84-4.32.21-8.54,2.09-12.85,3-1.34.28-3.52.44-4.08-.29-1-1.31-1.1-3.34-1.57-5.07a15.52,15.52,0,0,1,3.85-1c5.24,0,10.5.38,15.74.16,1.49-.06,2.91-1.68,4.36-2.59l-.65-1.4,6.12,1.41.6-1.53c-1.82-1-3.61-2.67-5.48-2.75-6.59-.29-13.29-.65-19.8.19C828.33,251.37,827.32,253.11,827.62,262.76Z"/><path d="M824,324.5a62.09,62.09,0,0,0-6.2,1.12c-6.2,1.9-9.9.07-11.13-6.25-1.19-6.07-1.68-12.29-6.72-16.77a1.2,1.2,0,0,1-.25-.44c-1.51-3.64,3.15-18.81,7.3-21.69-2.22,5.88,1,6.26,5.1,6.83,3.55.51,6.92,2.29,10.38,3.51l0,1.7c-3.21.74-6.46,2.22-9.61,2-4.61-.26-5.53,2.16-6.38,6.76,3.15-.52,5.72-1.37,8.24-1.24s4.7,1.28,7,2l-.33,1.9-9.08,1.1,5.45,5.14-4.92.93C813,318,821.44,318.67,824,324.5Z"/><path d="M763.39,282.67c-4.1-6.53-4.72-13.44-3.74-20.6.12-.83,2-2.2,2.12-2.13,1.44,1.21,3.92,2.68,3.84,3.95C765.22,270,768.61,276.59,763.39,282.67Z"/><path d="M840,279.75c3.78,6.3,7.62,12.58,11.25,19,.38.67-.53,2.07-.84,3.14-1-.39-2.46-.52-2.82-1.22-3.34-6.47-6.48-13-9.69-19.58Z"/><path d="M829.67,302.06a72.85,72.85,0,0,1,8,1.27c1.64.44,3.07,1.64,4.6,2.5-.71,1.13-1.16,2.72-2.18,3.26-1.29.69-3,.53-5.26.82l2.23-5.5-7.47-1.77Z"/><polygon class="d" points="1236.48 64.47 1192.15 45.28 1148.94 222.83 1032.75 218.03 907.39 378.19 751.8 369.19 738.94 592.55 492.97 521.55 444.54 418.03 396.69 448.37 247.93 754.3 -188.6 1082.64 628.98 1083.02 1148.6 739.55 1124.8 495.63 1309.22 257.67 1356.81 263.62 1252.38 110.98 1236.48 64.47"/><polygon class="b" points="1443.75 92.14 1443.75 42.45 1350.59 5.18 1328.85 194.62 1210.83 194.62 1074.19 337.48 901.15 334.56 906.74 557.24 682.88 486.55 626.98 393.38 564.87 436.86 397.17 710.15 -175.56 1082.64 -8.19 1082.64 428.35 754.3 577.11 448.37 624.95 418.03 673.38 521.55 919.36 592.55 932.22 369.19 1087.8 378.19 1213.16 218.03 1329.35 222.83 1372.56 45.28 1416.89 64.47 1432.79 110.98 1537.23 263.62 1544.41 249 1443.75 92.14"/><polygon class="c" points="1416.89 64.47 1372.56 45.28 1329.35 222.83 1213.16 218.03 1087.8 378.19 932.22 369.19 919.36 592.55 673.38 521.55 624.95 418.03 577.11 448.37 428.35 754.3 -8.19 1082.64 809.39 1083.02 1329.01 739.55 1305.21 495.63 1489.63 257.67 1537.23 263.62 1432.79 110.98 1416.89 64.47"/><polygon class="d" points="1800.05 92.14 1800.05 42.45 1706.88 5.18 1685.14 194.62 1567.13 194.62 1430.48 337.48 1257.44 334.56 1263.03 557.24 1039.17 486.55 983.27 393.38 921.16 436.86 753.46 710.15 180.74 1082.64 348.11 1082.64 784.64 754.3 933.4 448.37 981.25 418.03 1029.67 521.55 1275.65 592.55 1288.51 369.19 1444.1 378.19 1569.45 218.03 1685.64 222.83 1728.85 45.28 1773.19 64.47 1789.09 110.98 1893.52 263.62 1900.7 249 1800.05 92.14"/><polygon class="d" points="1773.19 64.47 1728.85 45.28 1685.64 222.83 1569.45 218.03 1444.1 378.19 1288.51 369.19 1275.65 592.55 1029.68 521.55 981.25 418.03 933.4 448.37 784.64 754.3 348.11 1082.64 1165.69 1083.02 1685.3 739.55 1661.5 495.63 1845.93 257.67 1893.52 263.62 1789.09 110.98 1773.19 64.47"/><polygon class="d" points="1707.63 -2 5516.37 0 5516.37 1081.02 1144.94 1081.02 1613.93 354.16 1759.9 138.58 1706.88 5.18 1707.63 -2"/><polygon class="b" points="856.61 345.13 823.98 352.14 782.3 330.11 770.37 393.23 848.06 390.93 856.61 345.13"/><path d="M891.31,126.52a38,38,0,0,0,4.26-.23,1.92,1.92,0,0,0,1.7-1.12.18.18,0,0,1,.18-.11c.18,0,.39.15.39.31a2,2,0,0,1,0,.2l-.22,1.24c-.09.5-.41.7-1.33.7h-5.19c-.47,0-.74-.21-.74-.48a1.31,1.31,0,0,1,.24-.62c1.46-2.48,5.17-4.84,5.17-8.17a1.82,1.82,0,0,0-1.9-2,2.52,2.52,0,0,0-2.26,1.8c-.06.18-.17.4-.44.4a.64.64,0,0,1-.64-.61c0-.89,1.74-2.33,3.69-2.33,1.6,0,3,.83,3,2.65C897.18,121.53,892.73,124.2,891.31,126.52Z"/><path d="M899.86,121.46c.07-3.58,1.74-6.12,4.1-6.12s3.8,2.54,3.75,6.12c-.06,3.91-1.66,6.38-4,6.38S899.8,125.19,899.86,121.46Zm6.5,0c0-3.1-1.08-5.31-2.65-5.31s-2.5,2.21-2.5,5.31,1.09,5.53,2.66,5.53S906.36,124.68,906.36,121.46Z"/><path d="M912.13,117.86c0-.25-.09-.34-.27-.34s-.86.07-1,.07a.33.33,0,0,1-.35-.29.21.21,0,0,1,.15-.21,5.61,5.61,0,0,0,1.93-1.3c.12-.16.25-.29.39-.29s.47.11.47.34-.07.63-.07,1v9a1,1,0,0,0,.36.86,3,3,0,0,0,.65.2c.21,0,.36.14.36.32s-.08.29-.18.29-1,0-1.72,0-1.58,0-1.89,0-.36-.11-.36-.27a.25.25,0,0,1,.18-.27,3,3,0,0,0,.87-.22.85.85,0,0,0,.5-.86Z"/><path d="M919.42,117.86c0-.25-.09-.34-.27-.34s-.86.07-1,.07a.33.33,0,0,1-.35-.29.21.21,0,0,1,.15-.21,5.61,5.61,0,0,0,1.93-1.3c.12-.16.25-.29.39-.29s.47.11.47.34-.07.63-.07,1v9a1,1,0,0,0,.36.86,3,3,0,0,0,.65.2c.21,0,.36.14.36.32s-.08.29-.18.29-1,0-1.72,0-1.58,0-1.89,0-.36-.11-.36-.27a.25.25,0,0,1,.18-.27,3,3,0,0,0,.87-.22.85.85,0,0,0,.5-.86Z"/><path d="M929.7,120.78c.27,0,.42.16.42.5s-.18.58-.42.58h-4.93c-.22,0-.42-.24-.42-.58a.45.45,0,0,1,.43-.5Z"/><path d="M940.27,123.28c0,2.67-1.69,4.5-3.77,4.5a3,3,0,0,1-2.32-1.13c0-.06-.09-.11-.12-.11s-.08,0-.08.11v3.72c0,.47.4.62.67.72s.32.17.32.33-.07.23-.18.23c-.34,0-.82,0-1.24,0s-.88,0-1.31,0c-.18,0-.33-.11-.33-.25a.23.23,0,0,1,.18-.23c.45-.15.81-.27.81-.8v-9.32c0-.24-.09-.33-.32-.36l-.36-.06c-.2,0-.34-.16-.34-.3s0-.18.18-.22a3,3,0,0,0,1.24-.75.42.42,0,0,1,.32-.15c.2,0,.36.11.36.54v.47c0,.27.13.32.24.18a3.23,3.23,0,0,1,2.56-1.26C938.72,119.14,940.27,120.69,940.27,123.28Zm-1.17.14c0-2.08-1.06-3.52-2.58-3.52s-2.55,1.44-2.55,3.52,1,3.61,2.55,3.61S939.1,125.55,939.1,123.42Z"/><path d="M948.4,119.86c0,.32-.16.54-.43.54a5.64,5.64,0,0,0-1-.18,3,3,0,0,0-2.74,2.79v3.24c0,.47.4.61.67.72s.32.16.32.33-.07.23-.18.23c-.34,0-.83,0-1.24,0s-.85,0-1.28,0a.29.29,0,0,1-.32-.25.24.24,0,0,1,.18-.24c.48-.16.77-.32.77-.79v-5.2c0-.24-.09-.33-.32-.36l-.36-.06c-.2,0-.34-.16-.34-.3s.05-.18.18-.22a3.68,3.68,0,0,0,1.24-.75.42.42,0,0,1,.32-.15c.2,0,.36.11.36.54v1c0,.27.11.28.24.14a4.29,4.29,0,0,1,2.93-1.75C948,119.19,948.4,119.46,948.4,119.86Z"/><path d="M953.62,127a3.58,3.58,0,0,0,3-1.66c.11-.16.18-.23.29-.23s.34.23.2.52a4.21,4.21,0,0,1-3.6,2.14c-2.34,0-3.87-1.67-3.87-4.25s1.69-4.37,4-4.37a3.22,3.22,0,0,1,3.39,3.24c0,.59-.38.85-1.48.85H950.8a1.8,1.8,0,0,0,0,.2C950.8,125.66,951.89,127,953.62,127Zm1.73-4.5a.43.43,0,0,0,.45-.43,2.23,2.23,0,0,0-2.34-2.18c-1.47,0-2.5,1-2.65,2.75C952.11,122.63,954.29,122.58,955.35,122.49Z"/><path d="M965.22,121.08a.2.2,0,0,1-.22.22c-.13,0-.25-.09-.41-.41a3.22,3.22,0,0,0-2.58-1.1c-1.1,0-1.82.52-1.82,1.22s.9,1.28,2.54,1.59c2.25.41,3,1.24,3,2.43,0,1.62-1.4,2.75-3.54,2.75-1.75,0-3.12-1-3.12-1.49a2.76,2.76,0,0,1,.22-1c.12-.3.21-.39.32-.39s.34.1.31.41c-.09.76,1.11,1.68,2.57,1.68s2.36-.78,2.36-1.73c0-.67-.61-1.26-2.68-1.71-1.88-.42-2.81-1.17-2.81-2.33,0-1.36,1.28-2.21,2.91-2.21a6.6,6.6,0,0,1,1.75.29,1.56,1.56,0,0,0,.56.12c.14,0,.2-.1.31-.1a.25.25,0,0,1,.28.28C965.14,120.47,965.22,120.8,965.22,121.08Z"/><path d="M971.73,127a3.58,3.58,0,0,0,3-1.66c.11-.16.18-.23.29-.23s.34.23.2.52a4.21,4.21,0,0,1-3.6,2.14c-2.34,0-3.87-1.67-3.87-4.25s1.69-4.37,4-4.37a3.23,3.23,0,0,1,3.39,3.24c0,.59-.38.85-1.48.85H968.9s0,.13,0,.2C968.9,125.66,970,127,971.73,127Zm1.73-4.5a.44.44,0,0,0,.45-.43,2.24,2.24,0,0,0-2.34-2.18c-1.48,0-2.5,1-2.65,2.75C970.22,122.63,972.4,122.58,973.46,122.49Z"/><path d="M985.7,127.3c0,.14-.07.23-.18.23-.34,0-.67,0-1.15,0s-.8,0-1.23,0c-.18,0-.32-.09-.32-.23a.24.24,0,0,1,.18-.24c.45-.14.72-.34.72-.81V122a1.88,1.88,0,0,0-1.82-2.08,3,3,0,0,0-2.68,3.24v3.11a.66.66,0,0,0,.48.72c.22.09.33.16.33.33s-.07.23-.18.23c-.34,0-.65,0-1.06,0s-.89,0-1.32,0a.29.29,0,0,1-.32-.25.24.24,0,0,1,.18-.24c.45-.14.81-.27.81-.79v-5.2c0-.24-.09-.33-.33-.36l-.36-.06c-.19,0-.34-.16-.34-.3a.22.22,0,0,1,.18-.24,3.54,3.54,0,0,0,1.24-.73.42.42,0,0,1,.33-.15c.2,0,.36.11.36.54v.85c0,.09,0,.11.07.11s.07,0,.13-.11a3.49,3.49,0,0,1,2.75-1.46A2.52,2.52,0,0,1,984.8,122v4.3c0,.47.25.61.58.72S985.7,127.13,985.7,127.3Z"/><path d="M992.32,126.79a2.58,2.58,0,0,1-2.12,1,1.66,1.66,0,0,1-1.69-1.76V120.4l-1.3,0a.33.33,0,0,1-.31-.36.24.24,0,0,1,.24-.27c1-.07,1.31-.45,1.44-.83a4.39,4.39,0,0,0,.21-1.24c0-.15.15-.22.27-.22a.5.5,0,0,1,.53.52v1.68a13.51,13.51,0,0,0,2.08-.16c.24,0,.49.18.49.39s-.11.4-.27.42-1,0-2.3,0v5.39c0,.9.27,1.11,1,1.11a3.21,3.21,0,0,0,1.37-.34A.22.22,0,0,1,992.32,126.79Z"/><path d="M899.8,137.59c0,.21-.18.34-.63,1a19.47,19.47,0,0,1-6.5,5.81c-.43.24-.82.24-.95.09s-.07-.36.18-.5a18.28,18.28,0,0,0,6.21-5.93c-1.08,0-2.59.08-3.4.15-.52.05-.67.23-1,.23-.54,0-1.57-.48-1.57-.77a.35.35,0,0,1,.36-.34,10.83,10.83,0,0,0,1.34.1c1,0,3.18,0,4-.1.34,0,.52-.18.76-.18C899.12,137.16,899.8,137.28,899.8,137.59Zm3.91,8.51c-.2,1.05-.41,2.45-.59,3.52.54.14.83.37.83.68s-.18.47-.54.47-.8,0-1.44,0c-1.46,0-3.07,0-3.91.09-.15.25-.31.45-.54.45s-.42-.25-.45-.84l-.25-4.2c0-.23-.13-.34-.45-.47l-.4-.16c-.16-.07-.23-.14-.23-.25a.35.35,0,0,1,.36-.36,7.93,7.93,0,0,1,1.94.29c.58,0,3.15,0,3.93-.08.36,0,.5-.18.73-.18.71,0,1.23.13,1.23.38S903.77,145.82,903.71,146.1ZM898,146l.06,4c.88,0,2.43,0,3.51-.09.54,0,.7-.22.72-.42,0-.41.05-2.43.05-3.6C901.46,145.94,899.05,146,898,146Zm5.76-10.85c0,.27,0,.43,0,.68v5.49c0,1.53-.5,2.79-.92,2.79a.32.32,0,0,1-.36-.36c0-.27.11-.75.11-1.83v-6.07c0-.2-.07-.34-.4-.5l-.92-.49c-.14-.07-.21-.16-.21-.25a.37.37,0,0,1,.36-.36C902,134.26,903.78,134.78,903.78,135.16Z"/><path d="M914.74,141a17.8,17.8,0,0,1-4.3,3.49c-.41.23-.81.27-1,.07s-.06-.34.14-.47a17.8,17.8,0,0,0,5.93-6.05c-.81,0-2.22.09-2.9.16-.35,0-.51.2-.8.2-.46,0-1.58-.47-1.58-.77a.37.37,0,0,1,.36-.36,7.55,7.55,0,0,0,1.22.11c1,0,2.8,0,3.43-.08.39,0,.54-.18.79-.18.59,0,1.19.18,1.19.44s-.22.43-.58,1a19.79,19.79,0,0,1-1.51,2,8.82,8.82,0,0,0,1.24,1,8.53,8.53,0,0,1,.83.47,2.59,2.59,0,0,1,.84,1.47.51.51,0,0,1-.46.51.61.61,0,0,1-.44-.22Zm7.17,7a3.41,3.41,0,1,1-4.29-2.87,1,1,0,0,0,.67-.36.43.43,0,0,1,.33-.18.59.59,0,0,1,.59.47A3,3,0,0,1,921.91,148Zm-1.22,0a2.17,2.17,0,1,0-4.33,0,2.17,2.17,0,1,0,4.33,0ZM922,135.18c0,.27-.05.48-.05.68v5.74c0,1.53-.56,2.85-.95,2.85s-.36-.11-.36-.33a16.58,16.58,0,0,0,.14-1.92v-1.62c-.45,0-.92.09-1.3.14s-.56.2-.79.2c-.45,0-1.31-.41-1.31-.67a.33.33,0,0,1,.36-.32,7.67,7.67,0,0,0,1.09,0l2,0v-4.05c0-.2-.07-.36-.47-.58l-.75-.43c-.15-.09-.22-.16-.22-.25a.37.37,0,0,1,.36-.36C920.27,134.26,922,134.8,922,135.18Z"/><path d="M942.52,143.64c0,.39-.31.57-.7.57h-3.15c-2.54,0-7,.09-8.57.21-.67.06-1,.22-1.43.22-.9,0-2.17-.45-2.17-.83a.36.36,0,0,1,.36-.36,13.78,13.78,0,0,0,2,.16l9-.2a16.65,16.65,0,0,0,2.41-.36C941.87,143,942.52,143.26,942.52,143.64Zm-9.34,6.23,2.34,0a8.16,8.16,0,0,0,1.53-.16,3.13,3.13,0,0,0,.86-.29,2.13,2.13,0,0,1,.83-.34.56.56,0,0,1,.59.57c0,.33-.43.69-1.36.87a11,11,0,0,1-2.06.14l-2.75,0c-1.35,0-2.07-.49-2.07-1.62v-1.85c0-.17-.09-.27-.29-.33l-.94-.27a.25.25,0,0,1-.21-.25A.37.37,0,0,1,930,146c.61,0,2.32.16,2.32.47s-.05.38-.05.63v2.07C932.28,149.67,932.58,149.87,933.18,149.87Zm4.82-11.2a3.2,3.2,0,0,1-3.49,3.17c-2,0-3.49-1.26-3.49-3.06a3.13,3.13,0,0,1,2.64-3c.34-.07.56-.2.61-.45a.26.26,0,0,1,.27-.16.51.51,0,0,1,.56.54A3.08,3.08,0,0,1,938,138.67Zm-1.22,0a2.27,2.27,0,0,0-4.54,0,2.27,2.27,0,1,0,4.54,0Z"/><path d="M957.78,140.69a19.89,19.89,0,0,1-4.95,3.54c-.43.22-.79.24-1,0s-.06-.34.19-.49a19,19,0,0,0,6.68-6c-1,0-2.3.07-3.36.18-.38,0-.62.21-.92.21-.45,0-1.6-.48-1.6-.79a.37.37,0,0,1,.36-.36,10.81,10.81,0,0,0,1.49.11c.79,0,3,0,3.69-.09.4,0,.54-.18.79-.18.67,0,1.28.18,1.28.43s-.23.4-.65,1a17.15,17.15,0,0,1-1.6,2,8,8,0,0,0,1.15.73c.44.22.71.27.85.38a2.43,2.43,0,0,1,1,1.48.49.49,0,0,1-.49.54.57.57,0,0,1-.38-.16Zm6.59,3.92c0,.25,0,.43,0,.61l-.07,4.16c0,1.17-.44,1.84-.71,1.84s-.41-.13-.41-.72c-1.57,0-3.17,0-4.36.09-.12.43-.36.7-.54.7s-.43-.2-.45-.92l-.07-4.73c0-.22-.11-.33-.36-.45l-.65-.35c-.13-.07-.21-.1-.21-.25a.36.36,0,0,1,.36-.32c.57,0,2.08.32,2.08.68,0,.18,0,.36,0,.61v1.05c1.37,0,3,0,4.25-.13v-1.26a.45.45,0,0,0-.29-.43l-.67-.38c-.12-.07-.21-.14-.21-.25a.37.37,0,0,1,.36-.32C962.9,143.84,964.37,144.25,964.37,144.61Zm-5.49,2.81,0,2.36c1.24,0,2.72-.06,4.27-.15v-2.34C961.78,147.29,960.19,147.33,958.88,147.42Zm5.56-12.24c0,.27-.05.48-.05.68v4.93a4.84,4.84,0,0,1-.29,1.75c-.18.52-.41.86-.63.86a.32.32,0,0,1-.36-.36,4,4,0,0,1,0-.45,8.57,8.57,0,0,0,.06-1.17v-5.54c0-.2-.07-.4-.45-.58l-.86-.43c-.15-.07-.22-.16-.22-.25a.37.37,0,0,1,.36-.36C962.66,134.26,964.44,134.8,964.44,135.18Z"/><path d="M974.38,142.74c-.9.11-1.75.2-2.47.25-.43,0-.65.22-1,.22-.6,0-1.69-.58-1.69-.85a.37.37,0,0,1,.36-.36,7.69,7.69,0,0,0,1.15.13c.32,0,.9,0,1.24,0,2.14-.11,5.2-.34,7.4-.7.22,0,.43,0,.47.16s-.16.38-.52.45c-1.05.2-2.42.41-3.8.59v1.82c0,1-.43,1.66-.74,1.66s-.43-.24-.43-1.1Zm-3.57-5.3a.36.36,0,0,1,.36-.36,9.64,9.64,0,0,0,1.48.11l3.87-.11c.36,0,.52-.18.76-.18.73,0,1.15.18,1.15.42s-.11.3-.18.63a20.54,20.54,0,0,1-.65,2.36c-.16.43-.38.61-.61.61s-.31-.16-.27-.45c.09-.77.18-1.84.2-2.65-1,0-2.81.11-3.57.2-.41,0-.59.2-.86.2C971.84,138.22,970.81,137.71,970.81,137.44Zm12.48,12.23c0,.32-.43.74-1.37.88a15.54,15.54,0,0,1-2.23.15H977.1c-1.3,0-2-.43-2-1.4v-1.22c0-.26-.14-.4-.43-.53l-.6-.25c-.12-.05-.21-.11-.21-.25a.35.35,0,0,1,.36-.34c.61,0,2.12.32,2.12.63a1.78,1.78,0,0,1,0,.3,1.92,1.92,0,0,0,0,.38v1.24c0,.45.27.63.81.63h2.16a6.94,6.94,0,0,0,2.58-.45c.41-.18.63-.36.83-.36A.56.56,0,0,1,983.29,149.67Zm-3.76-15a.34.34,0,0,1,.36-.36c.61,0,2.46.66,2.46,1s-.05.47-.05.67v8.32c0,1.53-.52,2.82-.94,2.82a.32.32,0,0,1-.36-.36,19.34,19.34,0,0,0,.13-2v-.29c-.51,0-1.1.11-1.53.18a5.24,5.24,0,0,1-.69.16c-.37,0-1.17-.34-1.17-.57a.32.32,0,0,1,.33-.31,7.64,7.64,0,0,0,1.13,0l1.93-.09V136a.53.53,0,0,0-.31-.54l-1.08-.63C979.6,134.78,979.53,134.71,979.53,134.62Z"/><path d="M996.25,138.47c0,.22-.2.45-.52,1.06a18.74,18.74,0,0,1-6.25,6.94c-.51.3-.94.36-1.12.14s-.11-.34.13-.51a18.44,18.44,0,0,0,6-7.09c-1.1,0-2.85.11-3.55.22-.47.07-.57.21-.93.21s-1.68-.54-1.68-.86a.37.37,0,0,1,.36-.36,10.84,10.84,0,0,0,1.86.12l3.6-.12c.45,0,.63-.2.9-.2C995.62,138,996.25,138.15,996.25,138.47Zm4.12-3.17c0,.27,0,.47,0,.67v13.3c0,1.16-.49,2.18-.79,2.18s-.38-.07-.38-.63V136c0-.18-.08-.34-.36-.5l-1-.58c-.14-.09-.22-.16-.22-.25a.38.38,0,0,1,.37-.36C998.52,134.26,1000.37,134.92,1000.37,135.3Z"/><path d="M890.5,170.39c0-.16.07-.25.18-.27a1.62,1.62,0,0,0,.54-.18.83.83,0,0,0,.54-.81V160.2a.63.63,0,0,0-.45-.63l-.45-.2c-.22-.09-.36-.18-.36-.36s.07-.27.18-.27c.3,0,.79,0,1.63,0s1.21,0,1.34,0,.36.07.36.27a.25.25,0,0,1-.18.27,2.74,2.74,0,0,0-.54.23.67.67,0,0,0-.36.69v8.87a.9.9,0,0,0,.36.81,1,1,0,0,0,.36.15c.21.05.36.16.36.34s-.07.29-.18.29-.62,0-1.34,0-1.33,0-1.63,0S890.5,170.55,890.5,170.39Zm9-10.95a2.88,2.88,0,0,0-.83.59l-4,4.13a1.57,1.57,0,0,1,.77.45c1,1,2.65,3.47,3.87,4.79.35.36.6.5.85.5s.27-.12.4-.12a.31.31,0,0,1,.34.32c0,.34-.47.76-1.08.76a1.77,1.77,0,0,1-1.39-.63c-1.22-1.32-2.91-4.15-4.09-5.26a4,4,0,0,0-.68-.49.26.26,0,0,1,0-.45,1.77,1.77,0,0,0,.43-.36l3.58-3.71c.2-.2.2-.34,0-.39l-.52-.15c-.22,0-.36-.18-.36-.36s.07-.27.18-.27c.41,0,1,0,1.51,0s1.14-.09,1.28-.09.36.08.36.27a.27.27,0,0,1-.18.27Z"/><path d="M902.65,163.8l-.29-.06c-.2,0-.34-.16-.34-.3s.05-.18.18-.24a3.9,3.9,0,0,0,1.2-.81.45.45,0,0,1,.33-.14c.18,0,.36.13.36.27s0,.43,0,.74v6.19c0,.47.36.61.63.72s.32.16.32.33-.07.23-.18.23c-.34,0-.79,0-1.2,0s-.9,0-1.33,0c-.18,0-.33-.11-.33-.25a.24.24,0,0,1,.18-.24c.45-.14.83-.27.83-.79v-5.31C903,163.92,902.88,163.83,902.65,163.8Zm.75-5a.86.86,0,0,1,.88.9.87.87,0,0,1-.88.9.9.9,0,1,1,0-1.8Z"/><path d="M919.89,170.5c0,.14-.07.23-.18.23-.34,0-.66,0-1.15,0s-.79,0-1.21,0c-.18,0-.32-.09-.32-.23a.24.24,0,0,1,.18-.24c.43-.14.7-.34.7-.81V165c0-1.28-.65-1.94-1.53-1.94A2.75,2.75,0,0,0,914,166v3.47c0,.47.16.63.49.74s.32.14.32.31-.07.23-.18.23c-.34,0-.57,0-1.06,0s-.86,0-1.17,0-.32-.09-.32-.23a.24.24,0,0,1,.17-.24c.44-.14.67-.34.67-.81v-4.27c0-1.36-.61-2.08-1.57-2.08s-2.39,1.22-2.39,3.24v3.11a.64.64,0,0,0,.45.72c.22.09.32.16.32.33s-.07.23-.18.23c-.34,0-.61,0-1,0s-.88,0-1.32,0a.29.29,0,0,1-.32-.25.24.24,0,0,1,.18-.24c.45-.14.81-.25.81-.79v-5.2c0-.24-.09-.33-.32-.36l-.36-.06c-.2,0-.35-.16-.35-.3s.06-.18.18-.22a3.72,3.72,0,0,0,1.25-.75.39.39,0,0,1,.32-.15c.2,0,.36.11.36.54v.85c0,.09,0,.11.07.11s.09,0,.13-.11a3,3,0,0,1,2.48-1.46,2.13,2.13,0,0,1,2.15,1.48h0c0,.09.08.15.11.15s.07,0,.11-.11a3.15,3.15,0,0,1,2.66-1.53c1.34,0,2.36.86,2.36,2.68v4.43c0,.47.25.61.58.72S919.89,170.33,919.89,170.5Z"/><path d="M932.33,167.51c0,2.59-1.39,3.69-2.86,3.69-1.05,0-2-.54-2-1.28a.78.78,0,0,1,.71-.7c.19,0,.35,0,.37.27a.92.92,0,0,0,1,.95c.93,0,1.6-.81,1.6-2.39V160.2a.63.63,0,0,0-.45-.63l-.45-.2c-.22-.09-.36-.18-.36-.36s.07-.27.18-.27c.3,0,.79,0,1.64,0s1.2,0,1.33,0,.36.07.36.27a.25.25,0,0,1-.18.27,2.74,2.74,0,0,0-.54.23.67.67,0,0,0-.36.69Z"/><path d="M935.42,166.62a4.11,4.11,0,1,1,4.11,4.33A4,4,0,0,1,935.42,166.62Zm7,0c0-2.12-1.23-3.64-3-3.64s-2.91,1.52-2.9,3.64,1.25,3.51,3,3.51S942.46,168.73,942.45,166.66Z"/><path d="M954.09,170.5c0,.14-.07.23-.18.23-.34,0-.67,0-1.15,0s-.79,0-1.23,0c-.18,0-.32-.09-.32-.23a.24.24,0,0,1,.18-.24c.45-.14.72-.34.72-.81v-4.27a1.88,1.88,0,0,0-1.82-2.08,3,3,0,0,0-2.68,3.24v3.11a.66.66,0,0,0,.49.72c.21.09.32.16.32.33s-.07.23-.18.23c-.34,0-.65,0-1.06,0s-.89,0-1.32,0a.29.29,0,0,1-.32-.25.24.24,0,0,1,.18-.24c.45-.14.81-.27.81-.79v-5.2c0-.24-.09-.33-.33-.36l-.36-.06c-.19,0-.34-.16-.34-.3a.23.23,0,0,1,.18-.24,3.68,3.68,0,0,0,1.25-.73.39.39,0,0,1,.32-.15c.2,0,.36.11.36.54v.85c0,.09,0,.11.07.11s.07,0,.13-.11a3.52,3.52,0,0,1,2.75-1.46,2.52,2.52,0,0,1,2.63,2.81v4.3c0,.47.25.61.58.72S954.09,170.33,954.09,170.5Z"/><path d="M963.58,171.5c0,1.75-1.88,3.12-4.41,3.12-2.35,0-3.7-.87-3.7-2.13a2.51,2.51,0,0,1,1.82-1.9c.16,0,.29.18.13.28a1.83,1.83,0,0,0-.77,1.37c0,.87.9,1.46,2.64,1.46,2.16,0,3.55-.86,3.55-1.89,0-.65-.51-1.08-1.46-1.19l-3-.34c-1.17-.13-1.93-.54-1.93-1.13,0-.35.72-1.14,1.55-1.37a2.66,2.66,0,0,1-2-2.6c0-1.65,1.31-2.79,3.2-2.79a3.42,3.42,0,0,1,2.29.76,1.27,1.27,0,0,0,1.19-.49.38.38,0,0,1,.34-.18.45.45,0,0,1,.49.44c0,.54-.56.81-1.64.63a2.66,2.66,0,0,1,.54,1.63c0,1.64-1.32,2.78-3.21,2.78a4.73,4.73,0,0,1-.54,0c-.77.25-1.13.65-1.13.92s.23.41.86.47l3,.23C962.86,169.67,963.58,170.37,963.58,171.5Zm-4.32-4.23a1.91,1.91,0,0,0,2-2.09,2.06,2.06,0,0,0-2.13-2.08,1.91,1.91,0,0,0-2,2.08A2.07,2.07,0,0,0,959.26,167.27Z"/><path d="M982.53,159a.25.25,0,0,1-.18.27,4.17,4.17,0,0,0-.63.23.67.67,0,0,0-.36.69v6.24A4.22,4.22,0,0,1,977,171c-2.5,0-4.12-1.75-4.12-4.58V160.2a.63.63,0,0,0-.45-.63l-.45-.2c-.22-.09-.36-.18-.36-.36s.07-.27.18-.27c.3,0,.79,0,1.64,0s1.2,0,1.33,0,.36.07.36.27a.25.25,0,0,1-.18.27,2.74,2.74,0,0,0-.54.23.67.67,0,0,0-.36.69v6.24c0,2.16,1.19,3.68,3.06,3.68a3.43,3.43,0,0,0,3.4-3.68V160.2c0-.35-.09-.53-.34-.63l-.45-.2c-.2-.09-.36-.22-.36-.36s.07-.27.18-.27c.31,0,.79,0,1.46,0s1,0,1.15,0S982.53,158.81,982.53,159Z"/><path d="M992.88,170.5c0,.14-.07.23-.18.23-.34,0-.67,0-1.15,0s-.79,0-1.23,0c-.18,0-.32-.09-.32-.23a.24.24,0,0,1,.18-.24c.45-.14.72-.34.72-.81v-4.27a1.88,1.88,0,0,0-1.82-2.08,3,3,0,0,0-2.68,3.24v3.11a.66.66,0,0,0,.48.72c.22.09.33.16.33.33s-.07.23-.18.23c-.34,0-.65,0-1.06,0s-.89,0-1.32,0a.29.29,0,0,1-.32-.25.24.24,0,0,1,.18-.24c.45-.14.81-.27.81-.79v-5.2c0-.24-.09-.33-.33-.36l-.36-.06c-.19,0-.34-.16-.34-.3a.23.23,0,0,1,.18-.24,3.54,3.54,0,0,0,1.24-.73.42.42,0,0,1,.33-.15c.2,0,.36.11.36.54v.85c0,.09,0,.11.07.11s.07,0,.13-.11a3.51,3.51,0,0,1,2.75-1.46,2.52,2.52,0,0,1,2.63,2.81v4.3c0,.47.25.61.58.72S992.88,170.33,992.88,170.5Z"/><path d="M1001.46,170.66c-.21,0-.36-.11-.36-.27a.25.25,0,0,1,.18-.27,1.9,1.9,0,0,0,.54-.16.75.75,0,0,0,.54-.78v-9a.63.63,0,0,0-.45-.63l-.45-.2c-.21-.09-.36-.18-.36-.36s.08-.27.18-.27c.31,0,.8,0,1.64,0h5c.92,0,1.19,0,1.31,0s.45,0,.45.21v1.77a.4.4,0,0,1-.39.36c-.13,0-.2-.06-.24-.27-.16-.92-.59-1.28-1.13-1.28h-4.38v4.14c0,.25.17.33.54.33l2.76,0a.92.92,0,0,0,1-.72c.07-.2.1-.36.28-.36a.33.33,0,0,1,.36.36l0,2.27c0,.32-.09.45-.27.45a.36.36,0,0,1-.36-.36.87.87,0,0,0-1-.9h-2.76c-.37,0-.54.1-.54.34v4.81h4.33c.75,0,1.26-.42,1.67-1.41a.27.27,0,0,1,.27-.18.38.38,0,0,1,.38.43l-.27,1.35a.61.61,0,0,1-.61.56h-6.2C1002.44,170.62,1001.77,170.66,1001.46,170.66Z"/><path d="M1018.19,163.06c0,.32-.16.54-.44.54a5.25,5.25,0,0,0-1-.18,3,3,0,0,0-2.73,2.79v3.24c0,.47.39.61.66.72s.33.16.33.33-.08.23-.18.23c-.35,0-.83,0-1.25,0s-.84,0-1.27,0c-.18,0-.33-.11-.33-.25a.24.24,0,0,1,.18-.24c.49-.16.78-.32.78-.79v-5.2c0-.24-.09-.33-.33-.36l-.36-.06c-.2,0-.34-.16-.34-.3s0-.18.18-.22a3.58,3.58,0,0,0,1.24-.75.42.42,0,0,1,.33-.15c.19,0,.36.11.36.54V164c0,.27.1.28.23.14a4.31,4.31,0,0,1,2.93-1.75C1017.83,162.39,1018.19,162.66,1018.19,163.06Z"/><path d="M1027,170.41c0,.16-.12.23-.3.28a5.18,5.18,0,0,1-1.08.09.46.46,0,0,1-.51-.48V169a3.25,3.25,0,0,1-3.13,2,2.35,2.35,0,0,1-2.54-2.3c0-1.48,1.08-2.33,2.86-2.58s2.81-.48,2.81-1.15v-.11a1.71,1.71,0,0,0-1.87-1.87,2.36,2.36,0,0,0-2.34,1.35.4.4,0,0,1-.4.31.72.72,0,0,1-.64-.72c0-.56,1.67-1.66,3.51-1.66s2.82.79,2.82,2.7v4.74c0,.3.24.43.54.48S1027,170.3,1027,170.41Zm-1.89-4.43c-.16.18-.59.46-2,.66-1.68.24-2.47.88-2.47,1.91a1.65,1.65,0,0,0,1.71,1.66,3,3,0,0,0,2.79-3.05Z"/><g class="e"><rect class="b" x="-2343.81" y="1026.01" width="3001.5" height="2874.91"/><polygon class="c" points="39.33 1026.01 -2339.79 1026.01 -2339.79 2481.26 -1979.24 2187.24 -1528.42 2120.37 -1316.45 2018.43 -1112.33 1885.67 -970.68 1793.55 -836.8 1575.37 -814.67 1559.88 -787.21 1540.66 -742.58 1615.04 -571.91 1668.93 -563.87 1671.47 -559.29 1512.09 -559.11 1505.95 -432.35 1496.19 -430.19 1496.03 -321.1 1381.98 -226.88 1381.98 -226.76 1380.9 -209.52 1230.74 -204.37 1232.8 -135.14 1260.49 -135.14 1300.16 -101.76 1343.37 -101.76 1343.36 39.33 1026.01"/><polygon class="c" points="39.33 1026.01 -101.76 1343.36 -101.76 1343.37 -101.76 1343.37 -33.21 1443.39 661.72 1429.7 661.72 1026.01 39.33 1026.01"/><polygon class="f" points="-135.14 1300.16 -101.76 1343.36 39.33 1026.01 -172.3 1026.01 -172.3 1245.63 -135.14 1260.49 -135.14 1300.16"/></g></svg>